<?xml version="1.0" encoding="utf-8"?>
<!-- Generator: Adobe Illustrator 23.0.6, SVG Export Plug-In . SVG Version: 6.00 Build 0)  -->
<svg version="1.1" id="Layer_1" xmlns="http://www.w3.org/2000/svg" xmlns:xlink="http://www.w3.org/1999/xlink" x="0px" y="0px"
	 viewBox="0 0 100 39.01" style="enable-background:new 0 0 100 39.01;" xml:space="preserve">
<style type="text/css">
	.st0{fill:#191970;}
</style>
<g>
	<path class="st0" d="M98.99,1.17c-0.08-0.15-1.08,0.01-1.26,0.01c-0.53,0.01-1.07,0-1.61,0.03c-1.09,0.05-2.16,0.24-3.2,0.58
		c-1.98,0.64-3.95,1.27-5.86,2.09c-3.83,1.64-7.56,3.53-11.16,5.64c-3.65,2.13-7.69,3.62-11.79,4.63c-1.01,0.25-1.98,0.36-3,0.48
		c-1.12,0.13-2.15,0.63-3.18,1.04c-0.4,0.16-0.8,0.31-1.21,0.44c-0.36,0.12-0.87,0.1-0.86,0.47c0,0.15,0.3,0.52,0.37,0.66
		c0.11,0.23,0.22,0.46,0.31,0.69c0.21,0.53,0.38,1.1,0.48,1.66c0.02,0.12,0.21,0.98-0.17,0.76c-0.16-0.09-0.21-0.9-0.26-1.1
		c-0.21-0.86-0.59-1.7-1.04-2.46c-0.76-1.28-1.84-2.34-3.16-3.05c-3.08-1.64-6.85-1.29-9.4,1.16c-1.3,1.25-2.17,2.88-3.33,4.25
		c-1.27,1.5-3.03,2.24-4.82,2.91c-1.84,0.7-3.16,2.45-4.8,3.51c-0.79,0.51-1.65,0.91-2.58,1.1c-0.91,0.19-1.92,0.12-2.78,0.46
		c-0.47,0.19-0.86,0.61-1.35,0.74c-0.5,0.13-1.06-0.11-1.53-0.25c-0.52-0.15-1.04-0.36-1.57-0.46c-0.57-0.11-1.12,0-1.69,0.02
		c-2.48,0.08-4.49-1.38-6.83-1.93c-0.56-0.13-1.14-0.13-1.69-0.27c-0.55-0.14-1.07-0.36-1.59-0.58c-1.04-0.44-2.02-0.8-3.16-0.84
		c-1.11-0.04-2.26,0.25-3.13,0.96c-0.84,0.69-1.07,1.59-1.27,2.61c0.26-0.01,0.49-0.15,0.69-0.28c0.21-0.14,0.42-0.48,0.63-0.58
		c0.34-0.16,1.18,0.51,1.53,0.7c0.34,0.19,1.21,0.5,1.19,0.96c-0.02,0.57-0.98,0.81-1.38,0.55c0.28-0.2,1.12-0.11,1.12-0.59
		c0-0.41-1.26-0.8-1.56-0.99c-0.15-0.09-0.49-0.44-0.65-0.45c-0.19-0.02-0.34,0.27-0.46,0.39c-0.27,0.26-1.13,0.81-1.49,0.41
		c0.1-0.02,0.19-0.06,0.28-0.1c-0.46-0.4,0.15-1.6,0.39-2c0.38-0.62,0.94-1.09,1.59-1.4c0.72-0.35,1.53-0.51,2.32-0.51
		c0.56,0,0.83,0.17,1.22-0.26c0.28-0.31,0.58-0.57,0.94-0.78c1.56-0.91,3.58-0.69,5.17,0.02c0.4,0.18,0.76,0.41,1.15,0.59
		c0.45,0.22,0.69,0.16,1.17,0.05c0.99-0.24,2.01-0.2,3,0.06c0.84,0.22,1.61,0.64,2.37,1.06c0.87,0.48,1.71,0.8,2.68,1.04
		c0.86,0.21,1.63,0.69,2.42,1.08c0.37,0.18,0.74,0.44,1.16,0.42c0.54-0.02,1.18-0.21,1.68-0.38c1.77-0.59,3.12-1.92,4.55-3.05
		c1.43-1.14,3.18-1.47,4.71-2.41c3.12-1.9,4.16-5.88,7.5-7.54c2.84-1.4,6.44-0.95,8.89,1.01c0.58,0.47,1.11,1.01,1.57,1.59
		c0.24,0.3,0.3,0.53,0.68,0.42c0.39-0.12,0.83-0.47,1.22-0.63c0.84-0.35,1.68-0.73,2.55-0.99c0.94-0.29,1.9-0.34,2.86-0.51
		c3.92-0.7,7.8-2.16,11.35-3.96c2.03-1.02,4-2.19,6-3.28c1.99-1.09,4.03-2.08,6.12-2.97c2.15-0.92,4.32-1.65,6.53-2.39
		c1.06-0.35,2.11-0.58,3.24-0.64c0.51-0.03,1.03-0.03,1.54-0.03c0.29,0,1.45,0.16,1.62-0.1C98.99,0.83,98.99,1,98.99,1.17z
		 M23.95,27.11c-1.23-0.13-2.3-0.29-3.43-0.83c-1.16-0.56-2.28-1.21-3.45-1.73c-0.52-0.23-1.07-0.3-1.61-0.46
		c-0.6-0.18-1.16-0.47-1.71-0.77c-1.13-0.63-2.2-1.23-3.51-1.36c-1.12-0.1-2.35,0.1-3.24,0.82c-0.1,0.08-0.49,0.35-0.49,0.49
		c0.01,0.19,0.1,0.14,0.32,0.19c0.63,0.16,1.22,0.43,1.82,0.68c0.5,0.21,1.02,0.43,1.55,0.55c0.67,0.15,1.35,0.16,2.01,0.36
		c1.22,0.36,2.38,0.89,3.57,1.33c0.71,0.26,1.43,0.4,2.18,0.44c0.73,0.04,1.48-0.1,2.19,0.01C21.39,27.02,22.88,28.21,23.95,27.11z
		 M25.32,26.58c-0.88-0.46-1.75-1.01-2.72-1.25c-0.98-0.24-1.82-0.57-2.7-1.07c-0.85-0.48-1.7-0.94-2.66-1.13
		c-0.72-0.14-2.16-0.33-2.78,0.18c0.82,0.37,1.69,0.47,2.51,0.82c0.96,0.41,1.88,0.94,2.82,1.4c0.87,0.43,1.65,0.85,2.62,1.02
		C23.29,26.72,24.48,27.01,25.32,26.58z"/>
	<path class="st0" d="M98.99,29.8c-0.62-0.08-1.52,0.51-2.1,0.7c-0.73,0.24-1.47,0.44-2.22,0.59c-1.55,0.32-3.13,0.63-4.71,0.77
		c-1.64,0.14-3.21,0.41-4.85,0.45c-1.61,0.04-3.18,0.14-4.8,0.07c-3.13-0.13-6.29,0.25-9.43,0.12c-1.69-0.07-3.39-0.04-5.08-0.09
		c-1.57-0.04-3.04,0.15-4.6,0.29c-0.67,0.06-1.24,0.25-1.89,0.41c-0.79,0.19-1.64,0.18-2.45,0.27c-1.6,0.2-3.15,0.48-4.76,0.55
		c-1.56,0.07-3.04,0.32-4.57,0.61c-1.51,0.28-2.92,0.91-4.43,1.17c-3.01,0.53-5.85,1.79-8.85,2.38c-0.77,0.15-1.53,0.35-2.32,0.21
		c-0.72-0.12-1.39-0.45-2.05-0.74c-1.44-0.62-2.89-1.21-4.41-1.63c-0.81-0.23-1.57-0.59-2.42-0.67c-0.86-0.08-1.69-0.09-2.54-0.27
		c-0.85-0.18-1.69-0.41-2.54-0.6c-0.76-0.17-1.66-0.55-2.43-0.57c-0.42-0.01-0.8,0.14-1.22,0.08c-0.46-0.06-0.9-0.24-1.33-0.41
		c-0.74-0.3-1.4-0.73-2.19-0.9c-0.95-0.2-3.56-0.77-3.6-2.09c0.12,0.11,0.42,0.51,0.57,0.54c0.11,0.02,0.12-0.07,0.22-0.07
		c0.39-0.01,0.78-0.2,1.14-0.19c0.3,0.01,1.02,0.31,1.31,0.45c0.27,0.13,0.66,0.47,0.69,0.78c-0.6-0.55-1.55-1.07-2.39-0.89
		c-0.28,0.06-0.71-0.02-0.58,0.24c0.18,0.33,1.24,0.62,1.58,0.73c0.55,0.18,1.13,0.22,1.67,0.4c0.52,0.18,0.98,0.5,1.48,0.72
		c0.48,0.21,1.08,0.51,1.61,0.54c0.62,0.03,1.3-0.16,1.92-0.21c-0.11,0.04-0.21,0.09-0.3,0.16c0.27,0.23,0.89,0.23,1.22,0.29
		c0.5,0.1,1,0.21,1.5,0.32c0.9,0.21,1.8,0.45,2.72,0.58c0.86,0.12,1.74,0.1,2.59,0.32c0.86,0.22,1.66,0.23,2.55,0.12
		c3.61-0.42,6.58-2.51,10.05-3.41c-0.88,0.44-1.75,0.82-2.66,1.19c-0.9,0.37-1.74,0.87-2.63,1.26c-0.84,0.37-1.73,0.67-2.62,0.9
		c-0.28,0.07-2.62,0.32-2.64,0.45c-0.02,0.12,2.66,1.02,2.94,1.12c1.1,0.41,2.17,1.16,3.37,1.16c2.39-0.01,4.53-1.1,6.8-1.65
		c2.43-0.59,4.82-1.3,7.23-1.93c1.16-0.3,2.4-0.52,3.59-0.68c1.16-0.16,2.36-0.02,3.52-0.2c1.21-0.19,2.43-0.41,3.65-0.57
		c0.6-0.08,1.24-0.07,1.83-0.21c0.53-0.12,0.99-0.37,1.54-0.44c1.14-0.15,2.33-0.36,3.48-0.35c1.28,0,2.55-0.01,3.83,0
		c1.31,0.01,2.61,0.09,3.92,0.09c1.29,0,2.57-0.08,3.86-0.03c1.25,0.04,2.48-0.13,3.72-0.13c1.26,0,2.5,0.13,3.76,0.07
		c2.75-0.12,5.49-0.3,8.21-0.75c1.28-0.21,2.61-0.36,3.85-0.74c0.63-0.19,1.28-0.32,1.9-0.53c0.32-0.11,0.64-0.23,0.96-0.35
		c0.23-0.09,0.62-0.12,0.81-0.28C98.99,29.49,98.99,29.64,98.99,29.8z"/>
	<path class="st0" d="M45.21,15.45c0.19-0.03,1.69-0.23,1.1,0.13c-0.25,0.15-0.83,0.1-1.12,0.17c-0.32,0.09-0.64,0.21-0.94,0.36
		c-1.03,0.49-1.87,1.28-2.37,2.31c-1.09,2.22-0.35,4.96,2.04,5.93c0.64,0.26,1.33,0.36,2.02,0.32c0.26-0.02,0.8-0.24,1.04-0.17
		c0.36,0.1,0.12,0.26-0.12,0.35c-0.98,0.4-2.4,0.12-3.32-0.3c-2.2-1.02-3.12-3.78-2.13-5.97c0.29-0.65,0.74-1.21,1.24-1.71
		c0.57-0.55,1.26-0.87,1.87-1.36c0.29-0.23,0.57-0.5,0.8-0.8c0.07-0.1,0.43-0.79,0.52-0.72c0.44,0.33-0.85,1.33-0.77,1.46
		C45.12,15.5,45.17,15.5,45.21,15.45z"/>
	<path class="st0" d="M15.96,28.7c0.21-0.09,0.73-0.19,0.55-0.39c-0.12-0.13-1.23-0.06-1.45-0.07c-1.05-0.03-2.04-0.39-3.09-0.39
		c-1.66,0.01-4.15,0.54-4.6,2.47c-0.59-0.69,0.86-1.76,1.32-2.02c0.93-0.54,2.02-0.71,3.08-0.75c1.08-0.04,2.05,0.35,3.1,0.46
		c0.55,0.06,1.11,0.11,1.66,0.16c0.58,0.05,1.04-0.18,1.6-0.28c1.16-0.2,2.27-0.02,3.39,0.27c0.4,0.1,1.25,0.21,1.47,0.6
		c0.22,0.4-0.32-0.01-0.49-0.08c-0.92-0.4-2.19-0.58-3.19-0.6C18.14,28.07,17.11,28.69,15.96,28.7z"/>
	<path class="st0" d="M47.44,17.29c0.34,0.69,0.28,1.54,0.51,2.26c0.11,0.34,0.34,0.55,0.52,0.85c0.18,0.31,0.31,0.72,0.45,1.05
		c0.29,0.71,0.38,1.58,0.03,2.29c-0.18,0.37-0.46,0.69-0.84,0.86c-0.31,0.14-0.77,0.15-0.42-0.2c0.19-0.2,0.53-0.27,0.74-0.49
		c0.21-0.22,0.34-0.5,0.4-0.79c0.14-0.64-0.05-1.38-0.39-1.93c-0.16-0.26-0.63-0.54-0.73-0.79c-0.1-0.25,0.08-0.17,0.13-0.41
		c0.05-0.24-0.3-0.94-0.35-1.22C47.4,18.27,47.37,17.8,47.44,17.29z"/>
	<path class="st0" d="M53.17,20.96c-0.02,0.36,0.03,1.52-0.41,1.69c-0.54,0.21,0.05-0.8,0.09-1.04c0.17-1.16-0.08-2.5-0.43-3.6
		c-0.06-0.2-0.72-1.44-0.59-1.56c0.23-0.21,0.66,0.78,0.7,0.89C53,18.47,53.17,19.75,53.17,20.96z"/>
	<path class="st0" d="M73.12,22.22c-1.57,0.42-3.22,0.29-4.82,0.49c-1.64,0.21-3.3,0.45-4.96,0.31c1.69-0.12,3.37-0.31,5.05-0.49
		c0.8-0.09,1.6-0.13,2.41-0.17c0.43-0.02,0.86-0.04,1.28-0.09C72.4,22.22,72.8,22.08,73.12,22.22z"/>
	<path class="st0" d="M15.34,31.73c0.46-0.08,0.72,0.12,1.08,0.37c0.42,0.29,0.86,0.53,1.32,0.75c0.48,0.23,0.76,0.32,1.29,0.3
		c0.17-0.01,1.3-0.13,1.41,0.03c-0.08,0.13-0.42,0-0.15,0.22c0.28,0.22,0.93,0.28,1.28,0.4c0.33,0.11,0.5,0.33,0.06,0.3
		c-0.42-0.03-1-0.34-1.4-0.51c-0.83-0.34-1.69-0.15-2.52-0.5C16.87,32.74,16.15,32.14,15.34,31.73z"/>
	<path class="st0" d="M58.53,27.15c0.39-1.15,0.95-2.28,1.12-3.49c0.09-0.61,0.09-1.24,0-1.85c-0.02-0.16-0.37-1.22-0.08-1.16
		c0.16,0.03,0.28,1.2,0.29,1.32c0.07,0.58,0.06,1.17-0.03,1.75C59.65,24.92,59.11,26.1,58.53,27.15z"/>
	<path class="st0" d="M48.75,26.56c-0.2,0.01-0.74-0.15-0.51-0.36c-0.02,0.02,0.57,0.09,0.66,0.07c0.19-0.05,0.39-0.16,0.57-0.25
		c0.75-0.38,1.4-0.92,1.83-1.65c0.12-0.2,0.42-0.77,0.42-0.16c0,0.35-0.55,0.86-0.77,1.09C50.37,25.9,49.59,26.42,48.75,26.56z"/>
	<path class="st0" d="M34.82,26.13c0.63-0.7,0.87-1.59,1.22-2.43c0.1-0.23,1.04-1.6,1.26-1.23c0.02,0.04-0.59,0.67-0.65,0.76
		c-0.27,0.38-0.41,0.78-0.55,1.21C36,24.72,35.23,26.37,34.82,26.13z"/>
	<path class="st0" d="M28.2,28.85c-0.76-0.04-1.49-0.25-2.25-0.31c-0.3-0.02-1.78,0.27-1.79,0.03c0-0.42,1.52-0.38,1.79-0.34
		C26.71,28.33,27.49,28.58,28.2,28.85z"/>
	<path class="st0" d="M58.43,17.18c0.17,0.07,0.23,0.47,0.4,0.63c0.28,0.28,0.57,0.51,0.83,0.81c0.5,0.6,0.99,1.31,1.23,2.07
		c-0.4-0.66-0.84-1.31-1.34-1.9c-0.21-0.26-0.44-0.49-0.69-0.71C58.42,17.69,58.54,17.71,58.43,17.18z"/>
	<path class="st0" d="M40.93,18.55c-0.47,0.65-0.83,1.35-1.17,2.07c-0.25,0.53-0.54,1.21-1.09,1.49c0.49-0.54,0.75-1.19,1.05-1.83
		C39.85,20.01,40.56,18.4,40.93,18.55z"/>
	<path class="st0" d="M34.89,35.48c-0.19,0.46-0.46,0.92-0.83,1.26c-0.13,0.11-0.98,0.71-1.11,0.33c-0.04-0.11,0.72-0.42,0.86-0.54
		C34.19,36.21,34.41,35.69,34.89,35.48z"/>
	<path class="st0" d="M30.68,26.08c0.67-0.19,1.34-0.35,2.03-0.4c0.15-0.01,1.57,0.01,1.39,0.2c-0.19,0.2-1.4,0-1.7,0.02
		C31.95,25.92,31.08,26.25,30.68,26.08z"/>
	<path class="st0" d="M3.87,28.75c0.43-0.08,0.9,0.28,1.25,0.48c0.18,0.1,1.18,0.57,1.22,0.8c0.09,0.45-0.77-0.2-0.89-0.28
		C4.93,29.42,4.4,29.09,3.87,28.75z"/>
	<path class="st0" d="M56.01,24.58c0.29-0.52,0.63-1.04,0.79-1.62c0.04-0.15,0.11-1.2,0.22-1.11
		C57.45,22.23,56.61,24.58,56.01,24.58z"/>
	<path class="st0" d="M46.24,19.16c-0.24-0.49-0.49-1.02-0.86-1.43c-0.13-0.15-0.83-0.59-0.42-0.63
		C45.57,17.05,46.34,18.7,46.24,19.16z"/>
	<path class="st0" d="M1.34,27.59c0.2,0.05,1.97,0.81,1.85,0.9C2.99,28.65,1.43,27.86,1.34,27.59z"/>
	<path class="st0" d="M43.53,15.49c0.18-0.13,1.27-1.28,1.33-1.24C45.12,14.44,43.68,15.43,43.53,15.49z"/>
	<path class="st0" d="M39.54,31.04c-0.27,0.19-0.59,0.31-0.91,0.37c-0.12,0.02-0.26,0.07-0.38,0.04c-0.03-0.01-0.18-0.12-0.07-0.15
		C38.59,31.18,39.1,31.14,39.54,31.04z"/>
	<path class="st0" d="M9.77,29.05c0.45-0.06,0.93,0.43,1.14,0.77C10.92,29.82,9.83,29.1,9.77,29.05z"/>
	<path class="st0" d="M11.14,32.02c0.11,0.03,0.16,0.09,0.15,0.16C11.22,32,11.17,31.95,11.14,32.02z"/>
	<path class="st0" d="M11.29,32.18L11.29,32.18C11.29,32.18,11.29,32.18,11.29,32.18z"/>
</g>
</svg>
