<?xml version="1.0" encoding="utf-8"?>
<!-- Generator: Adobe Illustrator 23.0.6, SVG Export Plug-In . SVG Version: 6.00 Build 0)  -->
<svg version="1.1" id="Layer_1" xmlns="http://www.w3.org/2000/svg" xmlns:xlink="http://www.w3.org/1999/xlink" x="0px" y="0px"
	 viewBox="0 0 905.68 1000" style="enable-background:new 0 0 905.68 1000;" xml:space="preserve">
<style type="text/css">
	.st0{fill:#191970;}
	.st1{opacity:0.2;}
</style>
<g>
	<path class="st0" d="M378.27,122.47c2.01-6.27,8.24-10.45,12.95-14.61c5.16-4.56,10.72-8.9,17.47-10.75
		c6.63-1.81,13.88-2.21,20.71-2.2c2.21,0,19.05-1.04,19.32,0.88c0.18,1.25-15.89,0.9-17.51,0.91c-7.22,0.02-14.35,0.71-21.39,2.45
		c-6.17,1.52-11.12,5.67-15.84,9.7C388.77,113.32,382.65,117.14,378.27,122.47z"/>
	<path class="st0" d="M399.22,172.55c2.36-9.34,8.82-13.91,17.94-16.24c5.44-1.39,11.06-2.86,16.63-3.59
		c1.09-0.14,13.13-1.39,13.46-0.54c0.83,2.16-10.05,2.5-11.04,2.63c-5.43,0.72-10.67,2.35-15.98,3.62
		C410.71,160.71,405.07,164.82,399.22,172.55z"/>
	<path class="st0" d="M635.8,27.01c-0.06,0.11-1.37,2.69-1.67,2.6c-3.54-1.02,4.59-11.29,5.73-12.16c4.57-3.49,13.29-4.53,18.9-3.78
		c0.96,0.13,3.82,0.39,2.73,2.07c-1.02,1.57-8.26,1.3-9.97,1.56C644.28,18.39,639.83,20.74,635.8,27.01z"/>
	<path class="st0" d="M590.79,83.31c1.56,1.1-1.01,5.9-1.44,7.74c-0.75,3.24-0.98,5.88-0.4,9.18c0.34,1.96,4.11,19.19,3.09,19.42
		c-1.78,0.4-4.76-16.74-5.06-18.42c-0.63-3.5-0.62-6.54,0.25-9.98C587.68,89.5,588.42,83.53,590.79,83.31z"/>
	<path class="st0" d="M655.46,48.95c-4.91-0.38-9.54-0.24-13.72-3.21c-1.41-1-9.51-9.98-6.25-10.27c1.79-0.16,6.76,6.81,8.64,8.01
		c1.21,0.77,13.36,4.65,13.26,4.78C656.86,48.95,656.22,48.86,655.46,48.95z"/>
	<path class="st0" d="M505.69,123.55c3.83-1.08,39.71-2.83,39.76-2.15c0.27,3.58-36.52,1.58-39.99,1.98
		C505.53,123.43,505.59,123.48,505.69,123.55z"/>
	<path class="st0" d="M400.24,73.51c4.19-2.85,10.09-3.89,14.63-6.32c1.6-0.86,8.73-6.72,9.85-5.1c1.31,1.89-10.43,7.79-11.66,8.33
		C411.89,70.92,400.22,74.41,400.24,73.51z"/>
	<path class="st0" d="M588.81,28.48c0.09-0.03,0.18-0.05,0.28-0.08c0.44,4.54,2.4,9.43,3.97,13.7c0.95,2.59,2.01,5.15,3.19,7.65
		c0.4,0.84,3.31,5.7,1.71,5.75c-2.46,0.08-6.06-11.21-6.75-13.1C589.93,38.87,586.85,32.15,588.81,28.48z"/>
	<path class="st0" d="M589.07,158.55c-0.32,4.02-0.73,7.86-0.23,11.89c0.14,1.1,1.91,7.82,0.16,8.3
		c-3.39,0.93-1.86-25.41-0.49-24.91C589.43,154.16,589.03,157.86,589.07,158.55z"/>
	<path class="st0" d="M535.55,35.09c-0.07-0.96,0.09-6.23,1.73-6.21c-0.61-0.01,0.07,11.06,0.29,12.17
		c0.58,2.98,4.98,8.71,4.36,11.5c-0.83,3.7-3.7-4.08-4.31-5.63C536.11,43.09,535.59,39.18,535.55,35.09z"/>
	<path class="st0" d="M583.65,96.82c-1.03,4.09-0.15,9.6,0.66,13.72c0.44,2.21,1.23,4.36,1.86,6.52c0.45,1.55,1.29,3.32,1.37,4.9
		c-0.01-0.3,0.25,3.21-0.4,2.42c-2.41-2.96-4.18-10.48-4.74-14.23C582.12,108.27,581.19,97.27,583.65,96.82z"/>
	<path class="st0" d="M560.07,240.77c0-3.81,1.42-8.04,3.07-11.44c0.45-0.94,5.91-9.76,7.06-7.71c0.61,1.09-5.28,8.35-5.92,9.91
		c-0.49,1.18-4.19,10.96-3.51,11.48C560.02,242.52,559.79,241.77,560.07,240.77z"/>
	<path class="st0" d="M575.98,98.26c-0.09-2.97,0.08-8.97,2.9-10.85c0.42,0.71-0.75,4.05-0.86,4.81c-0.35,2.27-0.45,4.56-0.39,6.85
		c0.04,1.58,2.37,11.63,1.78,12.23C578.04,112.71,575.85,99.68,575.98,98.26z"/>
	<path class="st0" d="M447.36,261.57c-7.83-1.68-14.55-1.23-22.41-0.27c0.11-2.35,12.36-2.67,14.1-2.53
		c2.54,0.2,5.68,0.45,8.06,1.32C448.62,260.64,450.47,262.11,447.36,261.57z"/>
	<path class="st0" d="M598.17,166.03c-0.41,3.62-0.25,7.4-2.74,9.69c0.65-0.6,0.66-5.13,0.79-6.7c0.33-3.97-0.23-7.76-1.24-11.61
		c-0.5-1.89-1.82-6.93,0.81-3.32C597.76,156.78,598.17,162.86,598.17,166.03z"/>
	<path class="st0" d="M642.04,123.07c-0.08-0.94,0.56-9.78,2.1-9.17c-0.83-0.33,0.55,19.16,0.32,19.39
		C643.33,134.37,642.01,123.45,642.04,123.07z"/>
	<path class="st0" d="M595.74,31.04c0-0.76-0.22-6.39,1.43-6.37c-1.35-0.01,2.48,17.06,2.16,17.87c-0.97,2.5-1.69-0.32-2.18-2.1
		C596.3,37.37,595.64,34.24,595.74,31.04z"/>
	<path class="st0" d="M553.41,242.07c-2.18-2.77-1.4-6.11-0.43-9.16c0.5-1.56,2.62-8.37,4.7-8.79c2.2-0.44-1.67,6.11-2.14,7.19
		C554.06,234.77,552.78,238.26,553.41,242.07z"/>
	<path class="st0" d="M379,382.36c-0.78-2.51-8.12,6.69-8.71,7.5c-3.33,4.52-6.25,9.34-8.77,14.35c-2.48,4.94-4.32,10.1-6.44,15.19
		c-2.15,5.15-4.86,10-6.74,15.27c-3.88,10.87-5.97,22.11-10.65,32.73c-4.56,10.35-6.98,21.17-10.5,31.87
		c-15.01,45.62-30.36,91.54-49.36,135.66c-9.64,22.38-17.8,45.42-27.38,67.83c-9.55,22.33-19.66,44.3-30.73,65.92
		c-21.85,42.64-47.4,83.08-77.13,120.69c-14.77,18.69-31.04,36.47-48.11,53.09c-8.69,8.46-17.78,16.53-26.9,24.52
		c-4.48,3.92-9,7.8-13.57,11.61c-3.86,3.21-8.09,5.65-11.92,8.82c-1.2,0.99-9.65,6.68-7.85,8.03c1.19,0.89,10.79-7.36,12-8.26
		c4.11-3.04,7.72-6.73,11.86-9.9c4.57-3.5,9.08-7.08,13.53-10.73c18.24-15,35.07-31.42,51.07-48.77
		c32.23-34.95,58.9-74.23,82.99-115.09c24.5-41.55,42.35-86.15,61.03-130.45c18.65-44.22,35.91-88.87,51.24-134.36
		c3.79-11.25,7.47-22.53,11.31-33.76c3.78-11.08,6.15-22.52,10.76-33.31c4.44-10.4,7.08-20.98,10.4-31.75
		c3.15-10.22,7.9-20.66,12.43-30.35c2.34-5.01,4.99-9.9,8.04-14.51C372.34,392,379.76,384.81,379,382.36z"/>
	<path class="st0" d="M637.12,198.41c0.07-3.07,1.1-5.89,2.84-8.39c0.38-0.55,3.09-4.52,4.03-3.1c0.32,0.49-3.33,4.62-3.65,5.18
		c-1.49,2.64-1.44,5.67-2.63,8.34C637.24,201.54,636.93,195.83,637.12,198.41z"/>
	<path class="st0" d="M491.94,302.21c-0.87-1.47-2.96-2.14-4.09-3.75c-0.34-0.48-4.23-9.09-2.39-8.8
		C488.21,290.1,488.26,300.88,491.94,302.21z"/>
	<path class="st0" d="M289.04,351.12c-2.21-0.99-7.99,6.1-9.91,7.55c-3.94,2.97-8.18,5.17-12.98,6.35c-5.16,1.27-10.44,1-15.7,0.99
		c-0.73,0-11.74-0.56-10.14,1.5c0.64,0.82,5.37,0.27,6.45,0.33c2.28,0.12,4.46,0.66,6.73,0.82c5.28,0.39,11.17-0.34,16.25-1.8
		c4.56-1.32,8.5-3.68,12.14-6.68C282.95,359.31,291.03,352.02,289.04,351.12z"/>
	<path class="st0" d="M341.44,173.77c-2.34-0.63-8.33,9.05-9.72,10.74c-4.06,4.96-8.24,9.81-12.29,14.78
		c-1.92,2.36-19.78,22.71-17.65,24.79c1.35,1.32,6.1-7.45,6.87-8.42c3.9-4.89,7.85-9.74,11.85-14.54c4.15-4.99,8.39-9.9,12.46-14.96
		C333.98,184.92,342.21,173.98,341.44,173.77z"/>
	<path class="st0" d="M534.27,241.23c-2.49-1.45-8.13-0.32-10.84,0c-3.83,0.45-7.42,1.75-11.17,2.4c-1.22,0.21-7.12,0.11-7.08,2.45
		c0.03,1.75,6.27-0.58,7.42-1.01c-0.05-0.07-0.1-0.12-0.16-0.17c0.39,0.32,10.21-1.99,11.6-2.11c2.54-0.23,5.71,0.22,8.16-0.32
		C532.31,242.44,535.61,242.02,534.27,241.23z"/>
	<path class="st0" d="M591.29,52.27c-2.1-3.54-3.47-6.56-4.63-10.41c-0.68-2.25-2.42-5.69-2.18-1.1c0.15,2.76,2.01,5.71,3.24,8.08
		c0.3,0.57,1.71,3.98,2.62,4.07C590.63,52.94,591.8,53.14,591.29,52.27z"/>
	<path class="st0" d="M580.16,224.54c-0.84-1.97-6.53,8.39-6.86,9.19c-0.52,1.28-4.29,8.56-2.61,9.36c1.49,0.72,3.47-7.37,3.98-8.48
		C575.4,232.99,580.63,225.63,580.16,224.54z"/>
	<path class="st0" d="M455.31,211.89c-0.23-1.14-29.61,3.55-32.22,4.08c-5.1,1.04-10.24,2.55-14.62,5.45
		c-1.2,0.79-10.18,7.56-9.11,9.12c0.67,0.97,7.78-5.57,9.08-6.4c4.44-2.83,9.32-4.56,14.43-5.74c5.68-1.3,11.45-2.04,17.22-2.85
		C442.02,215.28,455.84,214.54,455.31,211.89z"/>
	<g>
		<path class="st0" d="M670.53,200.09l0.1,0.11c0.24-0.18,0.53-0.33,0.6-0.6C670.96,199.58,670.73,199.84,670.53,200.09z"/>
		<path class="st0" d="M491.94,302.21c-0.28,0.22-0.08,0.47,0.6,0.74C492.42,302.71,492.22,302.44,491.94,302.21z"/>
		<path class="st0" d="M728.87,120.78c0.1-0.07,0.19-0.15,0.27-0.23c-0.11,0.06-0.23,0.12-0.33,0.16L728.87,120.78z"/>
		<path class="st0" d="M899.33,627.26c-1.9-32.75-11.99-65.55-27.48-94.36c-7.34-13.65-16.04-26.57-25.91-38.52
			c-5.28-6.39-10.99-12.32-16.82-18.2c-5.28-5.33-8.21-12.6-12.65-18.64c-19.22-26.19-46.64-46.53-75.4-61.13
			c-14.52-7.37-29.75-13.44-45.55-17.44c-7.79-1.98-15.74-3.56-23.75-4.27c-4.32-0.38-8.67-0.52-13.01-0.46
			c-2.07,0.03-9.31,1.62-10.87,0.28c-1.63-1.4-0.4-7.72-0.32-9.64c0.17-4.23,0.3-8.46,0.72-12.67c0.77-7.73,1.08-15.42,1.11-23.18
			c0.03-8.13-0.32-16.33,0.58-24.43c0.94-8.45,2.78-16.82,3.37-25.3c0.48-6.89,0.65-13.88,1.42-20.75c0.26-2.3-0.06-9.35,1.39-11.04
			c1.45-1.7,6.81-0.55,8.86-0.64c12.5-0.54,25.64-16.01,24.82-28.61c-0.48-7.43-6.53-10.38-11.27-14.8
			c-5.37-5.02-8.69-12.09-14.09-17.3c-2.21-2.14-6.56-4.12-8.23-6.52c-1.96-2.82-1.32-9.19-1.45-12.49
			c-0.18-4.35,0.84-4.54,4.95-4.2c4.34,0.36,8.68,1.01,13,1.56c8.21,1.05,16.74,1.43,25.01,1.02c7.23-0.36,15.08,0.42,21.78-2.72
			c14.1-6.62,22.07-20.81,16.71-36.18c-2.32-6.65-7.64-11.99-13.18-16.12c-6.17-4.6-12.64-6.17-20.13-7.51
			c-15.76-2.82-30.92-9.76-47.21-8.73c-7.77,0.49-15.61,1.17-22.78-2.35c-7.05-3.45-13.4-8.19-20.51-11.46
			c-1.51-0.69-6.6-1.73-5.8-3.81c0.67-1.73,9.31-3.03,11.1-3.44c8.06-1.87,16.21-3.04,24.14-5.48c8.09-2.49,16.49-5.44,24.07-9.22
			c6.23-3.1,10.45-8.75,13.37-14.98c6.51-13.88,2.56-29.03-11.91-35.41c-13.98-6.17-31.29-3.42-45.66,0.02
			c-14.86,3.55-30.18,8.18-45.48,9.36c-7.53,0.58-15.08,0.25-22.62,0.9c-3.51,0.3-6.66,0.85-10.07,1.73
			c-4.11,1.05-7.3,3.29-11.2,4.58c-2.93,0.97-6.2,0.7-9.22,1.2c-4.08,0.68-8.02,1.97-12.12,2.6c-7.54,1.16-15.02,2.54-22.54,3.79
			c-15.78,2.62-31.41,6.02-47.23,8.41c-7.58,1.15-15.38,1.54-22.68,4.02c-6.35,2.16-11.88,6.09-16.8,10.6
			c-11.28,10.33-19.32,24.34-27.9,36.87c-5.01,7.31-9.79,14.8-14.96,22c-4.52,6.29-9.84,11.92-14.47,18.15
			c-9.79,13.19-19.02,26.63-29.23,39.51c-10.09,12.72-18.64,26.66-28.74,39.31c-10.16,12.72-19.62,25.92-29.43,38.91
			c-10,13.25-20.36,26.22-29.92,39.8c-9.46,13.43-20.28,25.73-30.9,38.24c-11.24,13.23-21.79,27.01-32.49,40.68
			c-9.9,12.65-17.92,26.57-27.58,39.37c-5.02,6.66-10.43,12.99-15.31,19.76c-5.06,7.03-9.91,14.22-15.43,20.91
			c-21.52,26.06-43.97,51.35-68.11,75c-3.23,3.16-31.04,30.56-33.1,28.18c0,1.52,0,3.04,0,4.56c0.73-1.02,1.92-1.12,2.99-1.73
			c1.98-1.12,3.84-2.89,5.66-4.27c3.76-2.86,7.42-5.82,10.98-8.93c6.38-5.59,12.4-11.52,18.53-17.37
			c12.93-12.34,25.15-25.25,36.82-38.79c11.49-13.33,23.53-26.41,34.13-40.47c10.07-13.36,20.6-26.65,30.12-40.38
			c9.84-14.19,19.38-28.33,30.05-41.93c10.83-13.8,21.78-27.43,33.24-40.72c11.28-13.09,21.07-27.07,31.49-40.81
			c10.22-13.46,20.76-26.69,30.73-40.33c9.97-13.63,20.36-26.91,30.05-40.74c9.77-13.94,21.1-26.71,30.92-40.58
			c19.94-28.16,42.32-54.98,59.97-84.71c8-13.48,20.02-25.39,35.8-28.81c8.02-1.74,16.33-2.11,24.41-3.68
			c8.84-1.72,17.65-2.91,26.45-4.92c8.26-1.89,16.81-2.9,25.16-4.39c8.15-1.45,16.41-3.68,24.58-4.76c4.38-0.58,4.53-0.04,3.8,3.98
			c-0.79,4.38-0.36,8.85,0.97,13.09c0.99,3.18,2.43,6.49,4.32,9.26c2.05,3,4.13,3.06,1.92-0.56c-4.23-6.93-6.51-13.75-5.89-21.96
			c0.26-3.48,0.29-4.37,3.62-5.76c3.67-1.53,7.22-2.51,11.1-3.43c7.82-1.85,15.99-1.73,24-1.74c9.03-0.01,17.61-1.62,26.46-3.31
			c16.31-3.12,31.61-8.23,48.34-9.28c4.24-0.27,8.32-0.33,12.51,0.47c2.74,0.52,8.78,1.44,10.5,3.81c1.84,2.54-0.62,1.01-1.45,3.05
			c-0.72,1.77,2.47,7.6,2.82,9.56c0.66,3.68,0.17,7.81-0.38,11.5c-0.19,1.28-3.28,10.18-2.6,10.75c1.5,1.26,4.81-10.56,4.97-11.43
			c0.88-4.82,0.81-9.78-0.54-14.5c-0.43-1.5-3.82-7.29-0.29-7.01c3.01,0.24,6.75,6.64,7.58,9.07c3.09,9.03-1.07,18.78-6.33,26.13
			c-5.05,7.06-16.09,9.52-23.84,12.41c-9.97,3.73-20.2,5.44-30.47,8c-4.71,1.17-8.58,2.94-12.58,5.2c-1.84,1.04-0.83,1.09-3.22,0.64
			c-2.55-0.48-4.9-1.91-7.5-2.4c-20.39-3.85-40.51-0.37-60.96,0.27c-6.09,0.19-12.11,0.62-18.19,1.02
			c-5.77,0.38-11.5-0.51-17.28-0.55c-5.53-0.03-10.99-0.31-16.47-1.17c-1.54-0.24-17.41-3.2-17.43-2.89
			c-0.04,0.8,7.47,3.21,8.4,3.52c3.65,1.19,7.53,1.88,11.31,2.5c8.18,1.36,17.02,1.54,25.31,1.64c14.36,0.18,28.6-1.7,42.93-2.21
			c14.26-0.5,28.77-2.01,42.94,1.11c14.74,3.25,27.09,12.31,40.52,18.67c1.21,0.57,2.68,1.62,3.97,1.95c2,0.51,1.63-0.18,3.41-0.31
			c2.64-0.19,6.76-0.81,8.23,1.69c1.18,2.01,0.53,8.71-0.04,10.91c-1,3.92-2.56,6.54-2.7,10.86c-0.22,6.76,2.34,12.7,2.49,19.25
			c0.09,3.78-0.05,7.53,0.2,11.32c0.36,5.48,1.39,7.74-4.86,6.34c-15.99-3.58-31.38-9.48-47.55-12.35
			c-14.5-2.57-29.19-0.72-43.71-2.21c-9.25-0.95-18.74-0.92-28.04-1.18c-8.2-0.23-16.36-0.96-24.55-1.38
			c-8.61-0.45-16.93-1.57-25.22-3.97c-4.36-1.26-8.55-2.83-12.67-4.71c-2.6-1.19-7.86-4.84-10.67-4.36
			c2.41,4.72,12.21,8.25,16.83,10.13c7.38,3,15.31,4.81,23.23,5.57c15.57,1.49,31.22,1.93,46.87,2.12
			c7.86,0.1,15.71,0.43,23.57,0.58c3.54,0.07,7.04-0.37,10.57-0.03c4.32,0.41,8.57,1.29,12.91,1.59
			c14.82,1.01,26.21,13.9,38.81,20.82c6.28,3.45,12.83,6.22,19.14,9.56c2.05,1.08,5.81,2.24,7.1,4.28
			c1.64,2.59,0.53,8.09,0.55,10.98c0.06,7.93,0.82,15.78,0.67,23.72c-0.07,4.07-0.16,8.13-0.24,12.2
			c-0.06,2.69,1.23,11.24-0.48,13.33c-2.43,2.96-14.37-3.25-17.21-4.57c-7.25-3.38-14.28-9.09-22.18-10.85
			c-3.02-0.67-3.57,0.76-6.3-0.47c-2.9-1.3-5.49-3.84-8.3-5.41c-6.11-3.39-13.98-7.28-20.8-8.78c-8.69-1.91-17.77-3.68-26.64-4.51
			c-8.71-0.82-17.34-0.01-26.07,0.11c-8.02,0.11-16.18,0.8-24.19-0.04c-4.48-0.47-9.06-1.26-13.47-2.22
			c-2-0.43-10.02-4.3-11.29-3.62c0.18-0.1,0.41-0.16,0.64-0.21c-3.1-3.27-4.35,0.81-1.12,1.14c-0.03-0.4,0.1-0.65,0.31-0.82
			c-1.8,1.45,12.48,6.75,13.76,7.04c7.35,1.62,14.08,2.09,21.59,2.05c13.62-0.07,27.29-1.74,40.88-0.6
			c6.75,0.57,13.58,1.81,20.26,2.95c6.41,1.09,12.56,4.65,18.51,7.23c9.85,4.27,23.17,12.1,26.95,22.86
			c3.63,10.32,0.63,25.97-6.68,34.26c-8.06,9.15-26.25,3.84-36.35,1.97c-5.96-1.1-11.1-3.25-16.68-5.51
			c-1.03-0.41-4.16-2.57-4.05-0.75c0.18,2.8,7.37,2.68,1.77,4.57c-5.85,1.98-13.19,2.17-19.31,2.96
			c-7.41,0.95-14.32,0.92-21.74,0.34c-6.46-0.5-13.49-3.71-19.05-7.01c-0.52-0.31-4.53-3.84-4.88-1.31
			c-0.19,1.38,6.96,4.43,7.78,4.92c1.07,0.63,2.15,1.24,3.25,1.81c1.51,0.79,5.8,1.82,6.78,3.06c1.86,2.33-0.8,4.44-2.5,6.64
			c-1.31,1.69-11.33,15.32-14.18,13.41c2.09,4.43-20.39,6.68-22.43,6.91c1.35,1.05,5.5,1.17,7.23,1.26
			c1.95,0.1,9.14-2.19,10.33-1.42c2.18,1.42-6.24,11.95-7.65,14.23c-7.66,12.42-15.67,23.11-26.8,32.65
			c-11.7,10.02-25.76,15.23-40.58,18.99c-13.99,3.55-29.81,3.81-43.95,0.83c-3.33-0.7-7.29-1.61-10.22-3.4
			c-0.99-0.6-5.28-4.89-5.66-1.96c-0.37,2.86,14.2,6.98,16.16,7.34c7.37,1.38,14.57,1.32,22.02,1.54c7.38,0.22,14.02,0.23,21.31-1.5
			c14.05-3.32,29.13-8.04,40.29-17.54c10.88-9.27,20.68-19.33,27.59-32.01c2.69-4.93,5.33-10.02,8.55-14.64
			c1.86-2.67,3.87-5.34,5.84-7.93c2.28-2.99,5.48-4.72,8.03-7.41c1.93-2.03,3.43-4.44,5.07-6.7c1.22-1.68,3.72-7.28,5.39-8.07
			c2.36-1.12,6.96,0.47,9.54,0.6c4.44,0.21,8.83-0.09,13.23-0.66c7.07-0.93,14.04-2.36,21.06-3.57c7.56-1.3,14.07,1.41,21.52,2.79
			c11.32,2.11,28.72,4.88,36.57-5.97c7.25-10.02,10.01-27.45,4.01-38.5c-0.84-1.54-1.77-2.97-2.9-4.31
			c-0.81-0.96-3.45-2.69-3.77-3.88c-0.94-3.49,2.78-1.24,4.6-0.3c3.06,1.58,6.03,3.39,9.03,5.09c4.71,2.66,7.92,3.49,8.82,9.14
			c4.77,30.01,3.56,61.29-1.35,91.14c-1.21,7.38-2.2,14.83-1.9,22.33c0.16,4.15,0.59,8.33,1.13,12.45c0.54,4.13,1.76,5.45-2.54,6.39
			c-15.08,3.31-29.48,6.49-43.78,12.6c-25.94,11.07-49.49,27.92-69.03,48.22c-41.13,42.74-64.73,101.05-61.73,160.54
			c0.75,14.86,3.78,29.91,8.57,43.99c2.03,5.97,5.83,11.94,6.9,18.11c1.36,7.84,2.42,15.6,4.38,23.34
			c7.21,28.47,19.89,55.46,37.05,79.28c34.19,47.45,86.29,81.29,144.09,91.32c58.18,10.09,119.13-5.16,165.14-42.32
			c42.75-34.53,70.16-86.37,76.49-140.77C899.9,656.55,900.18,641.94,899.33,627.26z M656.48,237.99
			c0.24-14.29,0.24-28.46,0.11-42.74c-0.03-3.29-2.08-13.22,3.19-8.87c2.15,1.77,12.19,10.12,11.45,13.23
			c1.45,0.09,3.63,4.28,4.76,5.31c2.03,1.85,4.64,2.88,6.66,4.7c4.61,4.16,1.04,11.97-1.38,16.58c-0.64,1.22-1.3,2.53-2.19,3.61
			c-0.81,0.98-3,1.8-3.55,2.53c-1.36,1.8-0.09,3.51,2.34,2.91c5.23-1.28,7.15-10.88,8.99-14.97c0.88,8.88-8.76,20.43-16.91,22.95
			c-2.84,0.88-8.67,1.96-11.61,0.78C655.69,242.95,656.44,240.65,656.48,237.99z M651.14,176.73c-4.02-1.09-8.18-3.83-12-5.6
			c-4.05-1.87-7.98-4.06-11.9-6.17c-4.03-2.18-7.71-4.63-11.45-7.25c-3.11-2.18-9.11-4.41-11.14-7.59
			c11.35,1.6,22.83,5.92,33.95,8.87c3.26,0.86,10.71,1.17,12.44,4.16C651.79,164.45,651.44,176.81,651.14,176.73z M654.87,97.23
			c14.05-2.61,28.11,4.99,41.53,7.66c6.49,1.29,13.64,1.45,19.66,4.42c1.76,0.87,14.73,9.57,13.09,11.24
			c1.46-0.73,4.57,5.61,4.93,6.54c1.34,3.55,1.51,7.82,1.27,11.56c-0.45,7.19-4.87,12.8-10.21,17.34c-2.55,2.17-5.41,4.13-8.49,5.49
			c-4.23,1.87-7.12,0.58-11.55,0.54c-4.03-0.04-7.98,0.86-12.02,0.76c-3.76-0.09-7.5-0.58-11.26-0.66
			c-7.17-0.15-14.2-1.45-21.32-2.23c-4.63-0.51-5.72-0.37-6.04-5.2c-0.28-4.35-0.33-8.66-0.28-13.01c0.09-7.71,0.3-15.42,0.24-23.13
			C654.4,116.03,653.06,97.56,654.87,97.23z M797.81,446.89c-18.23-12.85-36.39-24.23-57.65-31.48
			c-20.75-7.08-42.23-10.17-64.1-10.58c-5.55-0.1-11.1,0.11-16.63,0.54c-1.9,0.15-5.12,1.13-6.62-0.26c-0.37-0.34-1.5-3.36-1.21-4
			c0.96-2.12,4.9-1.49,6.97-1.61c5.51-0.31,11.03-0.62,16.56-0.5c21.21,0.43,42.46,4.1,62.45,11.22
			C760.07,418.22,780.51,430.46,797.81,446.89z M565.07,463.61c-19.64,12.76-37.39,28.39-52.15,46.6
			c-15.68,19.34-26.58,40.75-35.24,63.97c-1.32-4.78,2.78-13.49,4.25-18.04c1.97-6.08,4.26-12.05,6.85-17.89
			c4.77-10.73,10.52-21.03,17.13-30.74c13.19-19.39,29.89-36.32,48.86-50.09c19.8-14.37,42.12-25.23,65.63-32.01
			c23.41-6.75,48.18-9.59,72.48-7.85c14.53,1.04,28.91,3.27,42.97,7.16c6.86,1.9,13.62,4.13,20.24,6.73
			c5.92,2.32,14.12,4.74,18.85,9.15c-17.19-6.2-34.29-11.28-52.45-13.71c-18.99-2.54-37.87-2.15-56.86,0
			C629.97,430.94,595.09,444.1,565.07,463.61z M768.14,432.89c-33.04-15.19-68.32-20.65-104.45-18.65c-2.48,0.14-5.84,1.13-7.68-0.7
			c-3.81-3.79,0.82-4.47,3.48-4.75c9.03-0.95,18.37-1.14,27.42-0.42c16.98,1.34,33.56,3.82,49.83,9.02
			c8.9,2.84,17.58,6.36,25.95,10.51c4.09,2.03,8.11,4.21,12.05,6.54c1.31,0.77,9.27,6.98,9.96,6.74c-1.34,0.46-5.81-2.74-7.01-3.37
			C774.49,436.17,771.32,434.53,768.14,432.89z M651.09,396.19c-2.24-0.26-3.49-5.93-1.91-7.24c1.62-1.35,8.27-0.45,10.2-0.45
			c7.78,0.01,15.65,0.57,23.36,1.62c8.63,1.17,17.22,2.87,25.63,5.13c4.32,1.16,8.59,2.51,12.8,4.01c2.88,1.02,9.6,2.28,10.96,4.97
			c-2.14,0.37-4.93-1.03-6.98-1.59c-3.56-0.97-7.15-1.85-10.76-2.62c-6.98-1.5-14.04-2.63-21.14-3.39
			c-6.87-0.74-13.78-1.13-20.68-1.16C665.62,395.43,657.97,396.98,651.09,396.19z M650.55,377.87c13.82-0.54,26.97,0.24,40.56,3.39
			c12.99,3.02,25.69,7.54,37.85,12.99c24.43,10.95,47.42,26.04,66.68,44.67c-25.52-17.71-49.97-34.87-79.9-44.45
			c-14.36-4.59-29.18-7.59-44.25-8.48c-3.79-0.23-7.58-0.33-11.37-0.33c-2.63,0-8.76,1.29-11.22,0.16
			C645.49,384.26,646.41,378.03,650.55,377.87z M636.31,338.59c1.82-10.63,3.65-21.1,4.03-31.91c0.34-9.58,1.31-19.77,0.43-29.31
			c-0.89-9.74-1.76-19.53-2.76-29.3c-0.1-1-1.08-5.04-0.17-5.78c1.15-0.93,3.64,0.73,4.79,1.11c2.39,0.78,4.84,1.35,7.23,2.11
			c3.05,0.96,3.11,1.24,2.93,4.44c-0.59,10.7-0.73,21.59-2.35,32.19c-1.58,10.31-3.62,20.49-4.13,30.93
			c-0.5,10.17,0.1,20.38-0.65,30.54c-0.77,10.33-1.51,20.64-1.66,31.01c-0.03,2.48,1.9,12.89-2.9,11.61
			c-3.13-0.84-4.12-9.72-4.62-12.38C634.34,362.24,634.32,350.23,636.31,338.59z M646.51,396.2c0.24,0.95-2.56,1.07-3.19,0.74
			c-1.19-0.63-2.12-4.43-1.85-5.71c0.26-1.22,0.72-2.77,2.51-1.99C645.55,389.92,646.1,394.6,646.51,396.2z M640.23,397.14
			c-2.24,2.05-9.37,2.12-12.34,2.72c-4.38,0.89-8.73,1.91-13.05,3.07c-8.89,2.38-17.64,5.32-26.16,8.79
			c-16.64,6.76-32.48,15.48-47.06,25.98c-3.3,2.38-6.53,4.84-9.7,7.38c-1.35,1.09-3.06,3.12-4.7,3.82c-1.8,0.76-1.59,1.02-0.82-0.73
			c1.4-3.2,6.57-6.87,9.09-9.23c3.29-3.09,6.68-6.07,10.17-8.92c13.57-11.1,28.63-20.4,44.75-27.33c9.35-4.02,19.04-7.22,28.94-9.53
			c4.77-1.11,9.59-1.98,14.42-2.78c1.79-0.3,3.09-0.77,4.5,0.32C639.25,391.46,640.51,395.97,640.23,397.14z M470.53,520.27
			c19.71-56.81,63.97-105.86,119.81-128.89c6.88-2.84,13.92-5.27,21.08-7.28c3.67-1.03,7.37-1.95,11.1-2.75
			c2.6-0.56,9.26-3.05,11.57-1.42c0.71,0.5,2.08,3.73,2.14,4.59c0.22,2.92,0.82,1.43-1.64,2.64c-2.86,1.42-7.51,1.27-10.65,1.9
			c-7.89,1.57-15.67,3.7-23.26,6.36c-28.29,9.9-53.53,26.85-74.3,48.38c-11.98,12.42-22.04,26.63-32.39,40.39
			c-5.28,7.02-10.14,14.37-14.5,22c-3.98,6.96-6.82,14.71-11.14,21.44C468.96,524.84,469.74,522.55,470.53,520.27z M459.39,575.7
			c-0.69-8.38,2.86-18.13,5.25-26.08c2.72-9.05,6.1-17.92,10.1-26.48c7.56-16.19,17.38-31.3,28.81-45.02
			c22.2-26.65,50.93-47.72,82.8-61.35c10.1-4.32,20.52-7.87,31.14-10.69c5.24-1.39,10.53-2.51,15.85-3.51
			c1.53-0.29,5.69-1.71,7.29-1.04c0.84,0.35,1.65,2.39,2.19,2.3c1.18-0.19,0.23-4.04,3.83-3.27c1.64,0.35,3.64,3.14,2.75,5.04
			c-0.7,1.5-7.6,1.83-9.42,2.27c-5.05,1.22-10.27,1.82-15.33,3.05c-20.18,4.88-39.61,12.6-57.71,22.76
			c-33.27,18.67-61.79,45.86-81.61,78.5c-5.74,9.46-10.73,19.37-14.92,29.62c-2.25,5.51-4.24,11.11-5.97,16.8
			C462.82,563.92,462.24,570.9,459.39,575.7z M471.03,589.13c-1.43,11.72-1.39,23.22-1.24,34.99c0.08,6.22,0.23,12.4,0.86,18.59
			c0.09,0.87,1.13,5.36-0.01,5.68c-1.03,0.28-3.01-6.93-3.18-7.5c-3.32-10.89-4.06-22.7-4.61-34c-0.56-11.32,0.5-22.68,1.58-33.92
			c1.07-11.1,6.16-22.79,10.54-32.94c4.39-10.18,9.65-19.98,15.59-29.33c10.82-17.04,23.98-32.56,39.07-45.97
			c16.08-14.29,34.25-26.35,53.7-35.55c10.49-4.97,21.38-9.09,32.52-12.36c4.86-1.42,9.76-2.68,14.7-3.78
			c3.35-0.74,6.72-1.41,10.11-1.97c2.46-0.41,6.46-1.72,8.91-1.21c1.76,0.37,1.93,0.59,2.74,2.42c1.36,3.06,0.66,2.8-2.56,3.34
			c-5.97,1-11.94,1.97-17.86,3.28c-11.1,2.46-22,5.81-32.56,10.01c-20.39,8.1-39.66,19.25-56.67,33.13
			C504.07,493.55,477.1,539.44,471.03,589.13z M893.97,672.54c-6.38,47.92-28.59,93.71-64.08,126.83
			c-36.51,34.06-84.78,53.04-134.61,54.04c-14.88,0.3-30.02-1.28-44.58-4.3c-7.93-1.65-15.78-3.71-23.48-6.24
			c-6.69-2.2-14.19-4.31-20.11-8.24c30.79,7.41,62.68,13.49,94.53,10.49c29.8-2.8,58.48-10.13,84.57-25.15
			c43.69-25.16,73.84-67.6,91.3-114.16c5.47-14.58,9.72-29.63,12.98-44.86c1.61-7.52,3.53-15.43,4.22-23.09
			c0.11-1.23,0.71-4.53-1.11-4.55c-1.69-0.02-2.6,9.24-2.84,10.52c-5.55,30.04-14.28,60.01-28.25,87.28
			c-23.69,46.24-61.49,83.87-111.39,100.62c-30.18,10.13-62.61,12.27-94.13,8.82c-7.34-0.8-14.65-1.91-21.9-3.3
			c-8.63-1.65-17.15-4.41-25.81-5.75c-3.13-0.48-5.83-0.05-8.76-0.07c-2.91-0.02-6.08-2.38-8.65-3.76c-7.24-3.89-14.26-8.2-21-12.9
			c-45.18-31.5-78.1-78.88-92-132.18c-1.69-6.49-4.18-13.8-4.49-20.49c-0.13-2.91,0.3-6.07,0.46-9.01c0.18-3.4-0.04-6.35-0.44-9.81
			c-1.88-16.35-1.06-32.88,2.18-49.02c5.96-29.64,19.76-57.3,38.69-80.77c31.7-39.32,77.36-66.88,126.37-78.5
			c59.46-14.1,128.52-4.83,175.94,36.01c44.55,38.37,72.69,95.54,77.45,153.98C896.32,640.77,896.06,656.82,893.97,672.54z"/>
	</g>
	<path class="st0" d="M580.62,164.57c0.04-0.76,2.06-13.53,0.5-13.19c-1.3,0.29-1.71,9.13-1.79,10.35
		c-0.23,3.4-1.51,11.34,0.95,14.1c1.79,2.01,1.16-0.86,1.06-1.91C581.05,170.74,580.44,167.8,580.62,164.57z"/>
	<path class="st0" d="M553.22,184.93c-8.03-1.14-15.23-0.68-23.27,0.18c-3.6,0.39-7.2,1.09-10.78,1.35
		c-0.55,0.04-6.23,0.55-3.02,1.72c1.08,0.39,2.08-0.81,3.03-0.98c1.48-0.25,3.04-0.03,4.54-0.07c4.13-0.12,8.32-0.59,12.43-1.02
		c3.78-0.39,7.44-0.58,11.23-0.19c0.96,0.1,4.05,1.08,5.03,0.48C552.23,186.52,554.47,185.1,553.22,184.93z"/>
	<path class="st0" d="M517.12,61.4c-0.72-1.18-18.36,2.61-20.46,2.92c-2.29,0.34-6.84,1.81-1.91,2.78c2.29,0.45,7.06-0.5,8.89-1.82
		C505.53,64.96,517.42,61.89,517.12,61.4z"/>
	<path class="st0" d="M548.13,49.75c-1.74-4.62-4.05-9.19-5.1-14.04c-0.35-1.63-0.92-8.66-1.58-3.42
		c-0.48,3.82,1.19,8.91,2.52,12.51c0.3,0.8,2.07,6.3,2.88,6.4C547.71,51.3,548.59,50.96,548.13,49.75z"/>
	<path class="st0" d="M718.1,148.15c-6.64-0.12-15.3-2.85-18.85-8.91c-2.63-4.48-4.91-17.78,0.75-21.12
		c1.02,7.85-2.36,17.51,5.68,22.88c3.41,2.28,7.04,2.95,10.93,3.8C719.78,145.49,723.7,148.15,718.1,148.15z"/>
	<path class="st0" d="M728.81,120.71c-0.78,1.54,0.79,4.31,1.15,6c0.56,2.65,0.81,5.34,0.85,8.05c0.02,1.6-1.32,14.1-4.47,10.65
		c-0.75-0.82,1.12-5.41,1.26-6.19c0.49-2.83,0.5-5.72,0.21-8.57C727.41,126.72,725.43,122.68,728.81,120.71z"/>
	<path class="st0" d="M705.79,113.71c4.84,0.98,9.68,2,14.48,3.17c1.97,0.48,6.77,1.77,2.69,2.61c-1.91,0.39-5.12-0.82-7.05-1.15
		c-2.68-0.46-5.36-0.96-8.05-1.36c-0.85-0.13-5.38-0.11-5.51-1.23C702.13,113.89,704.6,113.9,705.79,113.71z"/>
	<path class="st0" d="M657.23,123.27c0.91,1.67,4.88,15.9,4.08,16.29C657.91,141.23,656.74,125.01,657.23,123.27z"/>
	<path class="st0" d="M670.53,200.09c-1.9,4.17-4.8,7.92-5.93,12.44c-0.68,2.74-0.22,4.75-0.06,7.44c0.09,1.44,0.99,3.01-0.86,1.58
		C657.6,216.83,664.63,201.05,670.53,200.09z"/>
	<path class="st0" d="M666.52,225.85c1.37,0,5.46,3.63,3.62,4.57C669.2,230.89,665.25,226.45,666.52,225.85z"/>
	<path class="st0" d="M708.84,587.7c3.03-2.99,5.34-6.88,7.46-10.54c0.71-1.23,5.98-11.98,7.11-11.08
		c1.18,0.95-4.35,9.67-5.17,11.07c-2.23,3.83-5.35,9.19-9.67,10.95L708.84,587.7z"/>
	<path class="st0" d="M523.08,648.85c1.32-4.23,1.08-9.04,1.57-13.44c0.5-4.45,1.04-8.9,1.86-13.3c1.64-8.77,4.46-17.38,8.03-25.54
		c3.41-7.79,7.74-15.2,11.61-22.77c2.03-3.97,4-7.99,6.11-11.92c0.39-0.72,4.89-8.86,5.59-6.58c0.39,1.27-4.89,8.63-5.52,9.91
		c-1.81,3.71-3.53,7.46-5.42,11.13c-3.99,7.74-8.42,15.24-11.78,23.29c-3.41,8.16-5.96,16.66-7.5,25.36
		c-0.83,4.66-1.55,9.34-2.27,14.02c-0.43,2.81-0.39,8.91-2.26,11C523.07,649.63,523.07,649.25,523.08,648.85z"/>
	<path class="st0" d="M640.84,793.1c2.11-8.55,6.11-16.4,9.13-24.64c2.96-8.06,5.56-15.97,9.43-23.67
		c3.84-7.64,7.69-15.37,12.35-22.55c2.23-3.43,4.78-6.45,7.49-9.5c1.51-1.7,5.02-7.03,7.1-6.84c0.24,0.02-5.27,6.82-5.84,7.47
		c-2.73,3.12-5.34,6.22-7.59,9.72c-4.61,7.21-8.52,14.93-12.32,22.59C653.02,761,647.91,777.5,640.84,793.1z"/>
	<path class="st0" d="M639.44,714.14c-0.63,5.71-1.51,11.39-2.01,17.14c-0.61,6.99-0.51,14.01-1.66,20.94
		c-1.1,6.64-2.71,13.26-4.56,19.73c-0.93,3.25-1.95,6.47-3.15,9.63c-0.6,1.57-2.16,7.01-3.72,7.79c-0.87-1.76,1.56-6.08,2.16-7.81
		c1.22-3.5,2.29-7.04,3.22-10.63c1.85-7.16,3.61-14.4,4.66-21.73c0.97-6.74,0.89-13.61,1.66-20.39c0.36-3.13,0.68-6.27,1.12-9.39
		c0.02-0.16,1.19-7.4,2.11-6.51C639.41,713.31,639.46,713.72,639.44,714.14z"/>
	<path class="st0" d="M552.2,675.42c0.8-3.15,1.05-4.45,0.39-7.43c-0.67-3.05-0.83-6.25-1.15-9.36c-0.71-7.03-3.01-14.43-2.73-21.47
		c0.12-3.05,0.73-6.14,1.16-9.16c0.36-2.48,0.12-7.43,1.92-9.33c1.97-2.08,1.81-1.07,1.81,0.16c0,0.54-0.98,1.97-1.18,2.72
		c-0.46,1.72-0.49,3.91-0.73,5.68c-0.85,6.24-1.4,11.5-0.38,17.74c0.58,3.55,1.04,7.12,1.39,10.7c0.13,1.29-0.31,9,0.54,9.6
		c1.82,1.31,1.84-1.36,2.22-3.32c0.15-0.78,1.04-6.26,1.94-3.3c0.7,2.29-1.02,6.85-1.58,9.19c-0.65,2.73-1.12,6.91-3.51,8.62
		C552.27,676.15,552.24,675.85,552.2,675.42z"/>
	<path class="st0" d="M677.56,764.24c1.03-1.04,1.31-4.24,1.72-5.69c0.79-2.79,1.62-5.55,2.49-8.32c2.02-6.41,4-12.83,6.07-19.23
		c0.91-2.81,13.65-29.13,16.3-26.71c-0.37-0.33-12.51,20.7-13.72,24.02c-2.19,6-3.96,12.17-5.95,18.24
		c-0.97,2.96-1.93,5.93-3.06,8.84C680.61,757.49,677.32,762.2,677.56,764.24z"/>
	<path class="st0" d="M681.04,576.44c7.8-5.57,17.25-10.5,24.05-17.26c3.26-3.24,5.3-7.1,7.45-11.1c0.76-1.42,5.46-11.51,6.98-11.08
		c1.68,0.48-10.75,21.18-13.06,23.41c-7.07,6.82-16.82,11.63-25.38,16.31C681.06,576.63,681.05,576.54,681.04,576.44z"/>
	<path class="st0" d="M746.64,623.51c4.82-7.86,9.99-15.51,14.43-23.6c2.48-4.52,4.71-9.16,7.04-13.76
		c0.82-1.62,3.38-8.44,5.47-6.76c1.26,1.01-10.96,22.14-12.04,23.97C760.09,605.81,748.15,624.57,746.64,623.51z"/>
	<path class="st0" d="M643.42,597.84c-1.44-1.49,1.83-9.15,2.45-11.26c1.29-4.33,2.72-8.62,4.3-12.86
		c0.81-2.16,9.2-22.63,10.57-21.71c1.47,0.98-7.9,19.93-8.82,22.33c-1.63,4.26-3.12,8.57-4.52,12.9
		C646.74,589.32,645.33,597.13,643.42,597.84z"/>
	<path class="st0" d="M708.05,732.16c0.38,3.34-1.83,8.5-2.76,11.72c-1.07,3.72-2.36,7.36-4.08,10.83
		c-1.24,2.52-8.7,18.56-11.29,18.39c-0.09-0.01,4.5-10.06,5.06-11.12c1.98-3.71,4.12-7.29,5.76-11.18
		C701.59,748.76,706.38,731.36,708.05,732.16z"/>
	<path class="st0" d="M763.51,707.62c2.1-7.75,4.65-15.4,8.04-22.7c1.65-3.56,3.4-7.61,5.92-10.67c0.76-0.92,2.81-3.66,2.96-1.31
		c0.02,0.29-2.75,3.7-2.99,4.09c-0.89,1.43-1.65,2.94-2.41,4.44c-1.78,3.48-3.41,7.03-4.86,10.66c-1.49,3.72-2.82,7.51-4.11,11.31
		c-0.59,1.73-2.28,9.91-3.96,10.67C761.68,712.51,763.11,709.24,763.51,707.62z"/>
	<path class="st0" d="M631.88,556.97c-2.5,5.1-3.07,11.21-5.3,16.52c-0.6,1.42-8.11,16.05-8.55,15.64
		c-1.8-1.65,6.63-15.98,7.54-18.42c1.28-3.42,2.19-6.92,3.04-10.47c0.22-0.9,0.47-3.87,1.17-4.19
		C630.34,555.79,632.17,555.73,631.88,556.97z"/>
	<path class="st0" d="M749.2,689.93c-1.83-1.63,3.6-15.24,4.27-17.61c0.78-2.76,4.16-19.95,6.72-19.95c0.41,0-4.29,17.05-4.76,18.64
		c-1.06,3.59-2.12,7.18-3.21,10.77C751.75,683.4,750.74,689.23,749.2,689.93z"/>
	<path class="st0" d="M618.24,726.43c1.77-6.17,3.61-12.33,5.34-18.51c0.87-3.11,1.45-6.31,2.34-9.4c0.34-1.18,1.38-5.17,1.98-2.35
		c0.54,2.56-1.58,7.28-2.23,9.79c-0.75,2.91-1.58,5.81-2.45,8.69c-0.97,3.2-1.99,6.39-3.05,9.56c-0.5,1.51-1.53,6.36-3.04,7.28
		c-0.5-0.92,0.8-4.03,1.06-5.06C618.21,726.42,618.23,726.42,618.24,726.43z"/>
	<path class="st0" d="M602.83,762.11c-0.68-4.21,3.19-39.13,7.21-38.21c-0.99-0.23-6.07,34.48-7.48,37.51
		C602.54,761.39,602.54,761.37,602.83,762.11z"/>
	<path class="st0" d="M733.53,779.27c-0.16,5.21-0.68,10.34-1.78,15.45c-0.37,1.7-3.16,14.34-5.24,14.05
		c-0.88-0.12,3.18-12.72,3.56-14.3c1.06-4.47,0.29-11.62,2.79-15.51C732.79,779.07,733.46,779.23,733.53,779.27z"/>
	<path class="st0" d="M791.97,767.84c3.72-3.76,7.14-7.94,9.32-12.8c0.56-1.26,4.49-13.95,5.93-12.31
		c1.21,1.38-4.13,12.83-5.07,14.63C799.84,761.78,796.49,765.61,791.97,767.84z"/>
	<path class="st0" d="M744.34,584.14c-0.23-4.13,0.23-8.31,1.31-12.3c0.24-0.91,2.35-7.42,3.11-4.22c0.26,1.1-1.45,4.17-1.75,5.54
		c-0.56,2.52-0.79,5.09-0.91,7.66c-0.1,2.11-0.09,4.22-0.1,6.33c0,1.5,0.72,5.5-0.04,6.78
		C745.76,594.26,744.28,585.14,744.34,584.14z"/>
	<path class="st0" d="M559.41,674.65c1.06-4.13,2.2-8.25,3.12-12.41c0.42-1.88,0.63-12.48,2.06-13.37
		c2.06-1.29,0.13,10.58-0.16,11.99C563.43,665.64,562.06,670.5,559.41,674.65z"/>
	<path class="st0" d="M794.05,786.29c-0.07-1.91,9.16-19.41,9.69-19.24C807.4,768.22,795.34,784.79,794.05,786.29z"/>
	<path class="st0" d="M612.13,776.05c1.37-3.96,2.74-7.92,4-11.91c0.79-2.5,1.62-9.99,4.03-11.2c1.08,2.65-1.91,9.39-2.79,12.04
		C616.07,768.93,614.24,772.48,612.13,776.05z"/>
	<path class="st0" d="M680.5,802.98c1.02-3.32,2.08-6.62,3.08-9.94c0.3-1.01,1.42-8.02,2.08-7.87
		C688.99,785.88,682.24,801.63,680.5,802.98z"/>
	<path class="st0" d="M657.93,813.9c-0.26-1.53,0.3-16.89,2.14-15.92C662.32,799.16,658.42,811.58,657.93,813.9z"/>
	<path class="st0" d="M803.03,788.45c-0.44-1.6,0.83-16.42,3.73-15.13C807.23,773.53,804.04,787.2,803.03,788.45z"/>
</g>
<g class="st1">
	<path class="st0" d="M852.58,612.98c-1.8-9.71,12.88-8.84,11.98-1.04c-0.4,3.49-3.71,3.75-5.35,6.05c-1,1.41-0.49,3.26-1.88,4.88
		c-0.84,0.98-1.95,2.06-3.15,2.54c-1.68,0.67-2.76,0.04-4.07,1.27c-0.94,0.88-1.04,2.9-1.96,3.99c-1.09,1.29-2.8,2.35-4.54,2.42
		c-2.84,0.11-3.41-2.37-5.66-3.03c-2.8-0.82-3.37,2.29-6.53,3.08c-2.24,0.56-5.1-1.69-6.42-0.88c-1.17,0.72-1.05,3.88-2.64,4.9
		c-1.34,0.87-2.78,1-4.32,0.45c-2.67-0.94-4.48-4.02-4.23-6.8c0.28-3.07,2.95-5.74,6.04-5.92c1.17-0.07,3.3,1.42,3.93,1.3
		c1.59-0.3,1.68-1.5,2.79-2.76c2.38-2.7,4.68-2.78,7.67-0.9c1.42,0.89,0.88,1.61,2.33,1.03c0.9-0.36,1.85-3.21,2.54-3.97
		c2.48-2.72,5.05-0.87,8.1-2.01C849.54,616.71,852.97,615.71,852.58,612.98z M847.81,624.25c-2.64-5.63-9.84-3.45-8.27,2.45
		C841.31,633.37,847.08,628.7,847.81,624.25z M854.77,612.47c-0.95,0,0.93,2.68,1.81,2.91c1.81,0.48,4.83-1.47,5.03-3.51
		C862.04,607.34,854.77,607.33,854.77,612.47z M820.35,627.05c-1.64,0.9-3.32,1.49-3.69,3.54c-0.32,1.76,1.01,4.37,3.02,4.39
		C823.48,635.01,823.18,628.47,820.35,627.05z M833.46,627.05c0-4.5-5.68-4.29-5.96-0.03C827.2,631.4,833.48,631.39,833.46,627.05z
		 M853.5,618.26c-1.03,0.06-3.46-0.11-4.13,0.93c-0.8,1.25,0.92,3.88,2.13,4.19C854.34,624.13,858.1,619.37,853.5,618.26z"/>
	<path class="st0" d="M615.33,687c-4.21-0.84-1.86,2.08-3.97,4.88c-2.24,2.97-5.36,2.89-8.2,1.1c-4.51-2.84-2.23-0.78-4.05,2.97
		c-1.38,2.84-5.23,3.74-8.03,2.61c-7.15-2.89-6.57-14.37,2.06-13.53c2.16,0.21,5.71,3.45,7.06,2.62c0.56-0.35,0.94-2.96,1.54-3.75
		c1.5-1.98,3.16-2.31,5.45-2.41c2.94-0.14,1.23,1.76,2.36-0.26c0.47-0.85-0.12-3.01,0.46-4.23c1.88-3.95,4.54-3.39,7.9-2.65
		c5.1,1.11,1.47-2.52,2.56-5.81c1.09-3.29,5.22-5.21,8.52-4.22c6.66,1.99,5.37,13.7-1.76,13.57c-1.39-0.03-3.11-2.07-4.32-1.39
		c-1.15,0.64-0.22,2.3-0.29,3.2C622.29,683.66,619.02,686.45,615.33,687z M627.41,675.65c5-1.22,4.97-9.13-0.52-9.42
		C620.04,665.87,622.68,674.27,627.41,675.65z M596.98,693.49c0.16-7.26-9.71-7.27-8.26-1.09
		C589.88,697.3,596.98,697.33,596.98,693.49z M620.18,679.68c0.07-4.47-8.84-5.2-8.04,0.6
		C612.95,686.07,619.16,684.39,620.18,679.68z M606.72,691.99c5.5-1.06,3.01-9.01-1.32-8.18
		C600.57,684.74,603.32,691.18,606.72,691.99z M621.44,675.35c0.11,0.2,0.22,0.39,0.32,0.59
		C622.11,675.59,622.04,674.75,621.44,675.35z"/>
	<path class="st0" d="M690.7,531.65c0.72,1.6,0.88,5.11,1.91,5.87c0.17,0.13,3.19-0.54,3.51-0.47c1.38,0.32,2.76,1.67,3.5,2.78
		c2.9,4.33-0.07,10.27-5.58,9.24c-3.39-0.63-4.82-4.01-4.74-7.19c0.07-3.03,1.11-1.44-0.47-2.8c-1.2-1.04-2.7,0.07-3.98-1.67
		c-1.62-2.22,0.58-4-0.09-5.9c-0.92-2.63-3.94-2.64-3.45-6.34c0.43-3.25,2.86-3.6,5.03-5.32c2.58-2.04,0.07-1.06-1.81-3.27
		c-3.71-4.35,2.26-10.54,6.69-6.86c1.82,1.51,2.64,4.59,1.34,6.64c-1.41,2.24-3.89,1.59-1.85,3.47c1.31,1.21,2.15,0.3,3.25,2.18
		c0.78,1.35,0.75,2.95,0.35,4.4C693.73,528.49,692.11,530.14,690.7,531.65z M689.01,522.07c-4.94-0.37-6.84,6.56-1.6,7.14
		C691.63,529.67,693.98,523.13,689.01,522.07z M698.36,543.13c-0.78-3.8-5.47-5.43-6.27-0.57
		C691.33,547.13,698.57,547.77,698.36,543.13z M690.7,513.32c-0.79-2.03-3.87-3.51-4.53-0.37
		C685.53,516.06,691.04,516.77,690.7,513.32z M689.65,534.63c-0.75-0.92-3.75-1.58-3.23,0.53
		C686.93,537.23,689.65,536.56,689.65,534.63z"/>
	<path class="st0" d="M568.98,577.17c-0.63-2.54,0.12-5.25,2.16-6.92c1.01-0.83,4.74-1.35,4.81-2.32c0.05-0.61-1.46-1.68-1.81-2.29
		c-0.89-1.51-1.1-2.58-0.87-4.31c0.3-2.21,1.3-3.83,3.23-4.88c4.35-2.37,11.5,0.57,11.7,5.86c0.08,2.2-1.16,4.57-2.93,5.84
		c-1.29,0.92-4.39,0.8-4.82,1.9c-0.22,0.57,1.92,3.01,2.02,3.72c0.19,1.27-0.07,2.23-0.68,3.35c-1.13,2.08-3.17,3.45-5.46,3.91
		c-3.81,0.77-3.47-0.78-4.2,3.13c-0.43,2.28-1.09,4.72-3.42,5.73c-4.13,1.8-10.3-2.14-9.25-6.8c0.5-2.21,2.39-3.83,4.5-4.47
		C565.6,578.14,569.51,579.69,568.98,577.17z M580.74,566.65c6.08,0,6.11-7.65,0.2-8.46C574.37,557.29,574.84,566.86,580.74,566.65z
		 M574.78,578.66c5.64,0.09,7.17-7.84,0.62-7.54C570.46,571.35,569.63,578.02,574.78,578.66z M569.71,584.46
		c-0.35-5.59-8.77-5.07-8.26-0.1C561.97,589.47,568.65,589.01,569.71,584.46z"/>
	<path class="st0" d="M661.45,622.26c0.18,2.34-1.52,4.48-3.3,5.79c-0.84,0.62-1.58,1.13-2.61,1.37c-0.91,0.21-3-0.56-3.57-0.33
		c-1.98,0.82-1.27,3.37-2.32,5.22c-0.99,1.73-2.91,3.07-4.9,3.35c-4.97,0.7-8.52-4.68-6.77-9.19c1.07-2.75,2.77-3.26,5.4-3.75
		c3.2-0.6,3.25,0.03,4.16-2.64c1.38-4.05,2.17-7.36,7.54-6.99c0.57,0.04,2.04,0.63,2.6,0.55c1.89-0.26,0.9,0.13,1.65-1.31
		c1.08-2.08,0.32-3.97,3.08-4.84c5.06-1.58,8.83,4.55,5.55,8.44C664.99,621.46,660.94,616.5,661.45,622.26z M653.48,617.16
		c-4.62,1.57-3.97,9.25,1.01,9.5C660.5,626.96,659.44,617.63,653.48,617.16z M648.2,629.83c-0.64-2.25-0.94-3.09-3.39-3.02
		c-2.32,0.06-4.29,1.5-4.41,3.84c-0.12,2.27,1.59,4.37,3.94,4.24C647.19,634.75,647.71,632.05,648.2,629.83z M666.48,614.65
		c-0.41-2.51-4.44-4.56-4.5-0.92C661.93,616.84,665.3,617.44,666.48,614.65z"/>
	<path class="st0" d="M617.56,809.1c4.27-0.6,8.4,3.39,6.24,7.93c-1.01,2.11-3.97,3.1-6.06,2.1c-3.66-1.76-1.81-5.24-2.4-8.08
		c-0.7-3.34-2.95,0.11-5.65-0.08c-2.5-0.18-4.42-2.38-5.11-4.66c-0.63-2.09,1.79-6.43,1.23-7.48c-0.8-1.48-4.62,1.19-6.4,0.87
		c-5.04-0.91-7.3-7.89-4.37-11.8c3.38-4.51,9.96-1.59,11.54,3c0.7,2.03-1.25,5.53-0.54,6.83c0.89,1.64,4.91-0.16,6.83,0.82
		c2.56,1.3,3.18,4.18,2.98,6.81C615.68,807.56,614.26,810.04,617.56,809.1z M604.75,793.09c-0.57-5.26-8.49-7.23-8.65-0.93
		C595.93,798.2,602.83,797.86,604.75,793.09z M606.71,805.13c1.52,4.72,7.39,3.48,6.91-1.57
		C613.18,798.83,606.51,800.55,606.71,805.13z M622.03,814.46c-0.08-3.35-4.2-4.76-4.8-0.99
		C616.68,816.93,621.89,818.58,622.03,814.46z"/>
	<path class="st0" d="M664.27,661.02c-1.42-3.33-5.63-3.48-4.89-8.29c0.54-3.5,3.51-5.79,6.95-6.06c3.44-0.27,6.01,1.97,7.23,5.15
		c1.69,4.39-1.08,6.41-4.04,9.18c2.35,2.28,5.69,4.4,5.05,8.1c-0.65,3.7-4.52,5.18-7.88,5.26c-3.67,0.09-7.18-1.81-7.83-5.71
		C658.18,664.57,661.12,662.72,664.27,661.02z M671.46,654.55c-1.01-5.4-9.74-7.23-9.34-0.65
		C662.44,659.15,670.35,659.73,671.46,654.55z M666.76,671.8c2.05-0.56,5.49-1.02,5-3.9c-0.27-1.6-3.16-4.22-4.7-4.48
		c-1.95-0.33-4.88,1.55-5.26,3.54C661.17,670.24,664.36,671.21,666.76,671.8z"/>
	<path class="st0" d="M620.37,468.25c3.26,0.69,2.13-0.48,3.27-2.98c1.13-2.48,3.73-3.5,6.19-2.01c1.86,1.13,2.93,4.2,1.81,6.35
		c-1.67,3.2-6.22,0.7-6.79,1.45c-0.35,0.46,1.46,3.77,1.04,5.08c-0.73,2.3-2.85,3.09-4.8,3.99c-2.51,1.17-1.13-0.35-1.93,1.94
		c-0.72,2.06,0.02,3.02-2.01,4.45c-0.8,0.56-2.14,0.42-2.83,1.09c-0.56,0.54-0.39,1.64-0.82,2.23c-1.25,1.72-2.53,2.62-4.65,1.67
		c-3.71-1.67-3.68-7.74,0.99-6.96c0.66,0.11,3.31,1.98,3.15,0.09c-0.13-1.51-2.67-1.26-3.68-2.16c-3.36-3.02,0.96-7.85,4.53-4.58
		c0.3,0.28,1.84,3.7,2.6,1.93c0.29-0.66-1.38-2.45-1.7-3.4C613.41,472.37,615.83,468.24,620.37,468.25z M619.89,477.67
		c3.96-0.07,4.42-5.96,0.81-6.94C616.56,469.6,615.5,476.69,619.89,477.67z M629.47,467.46c-0.26-2.08-2.69-4.12-3.52-1.03
		C625.26,469.04,629.55,470.56,629.47,467.46z M611.87,488.46c-0.32-1.13-3.67-2.91-3.17-0.37
		C608.98,489.53,611.92,490.39,611.87,488.46z M617.15,483.07 M611.51,479.11c-2.21,0.01,0.01,1.94,0.01,1.86
		C611.52,481.08,613.76,479.1,611.51,479.11z"/>
	<path class="st0" d="M801.64,622.51c-0.09-1.24,1.54-4.18,1-5c-0.54-0.83-1.56-0.58-2.33-1c-2.55-1.4-4.81-4.19-4.5-7.29
		c0.81-8.02,13.64-5.66,15.57,0.44c0.55,1.74,0.31,3.22-0.74,4.74c-1.53,2.22-1.93,0.85-0.8,3.22c1.54,3.25,4.23,4.17,2.98,8.39
		C810.36,634.29,801.33,629.48,801.64,622.51z M801.86,606.52c-6.33,0.73-2.12,8.62,3.11,7.69
		C812.6,612.86,806.76,606.13,801.86,606.52z M804.35,622.28c0,4.21,5.48,7.69,5.83,1.85C810.42,620.03,805.33,617.02,804.35,622.28
		z"/>
	<path class="st0" d="M580.18,633.51c-0.37-8.48,8.86-7.17,13.98-7.78c5.82-0.69,12.14,2.61,10.07,9.57
		c-0.78,2.62-2.87,5.2-5.44,6.21c-3.09,1.21-4.82-0.62-7.72-0.83c-2.62-0.19-5.09,1.83-7.66,0.14
		C581.34,639.46,580.13,635.82,580.18,633.51z M582.84,633.51c0.12,3.03,1.39,5.24,4.32,5.49c1.91,0.16,3.67-0.75,5.73-0.45
		c1.44,0.21,2.04,1.13,3.67,1.03c7.22-0.47,7.61-12.54-0.61-11.73c-4.63,0.46-3.31,1.37-2.55,4.19c0.61,2.3,0.3,4.86-1.47,2.02
		c-1.61-2.59,0.43-4.16-2.57-5.41C585.81,627.18,583.61,630.53,582.84,633.51z"/>
	<path class="st0" d="M842.52,575.26c3.23,2.9,5.27,6.02,2.99,10.35c-2.47,4.67-8.08,4.85-11.11,0.52
		c-2.69-3.83,0.21-6.57,1.4-10.03c0.94-2.73-0.53-0.63-1.02-2.57c-0.61-2.4,1.44-1.85,3.56-1.71c1.62,0.11,4.63,1.06,4.71-1.48
		c0.04-1.26-2.01-2.9-3.06-3.27c-2.92-1.04-4.41,4.15-5.41,1.34c-1.87-5.26,5.74-4.67,8.19-2.73
		C846.95,568.98,846.22,572.24,842.52,575.26z M844.17,581.8c-1.71-5.39-9.31-5.6-8.23,1.03
		C836.93,588.93,843.2,586.44,844.17,581.8z"/>
	<path class="st0" d="M738.47,505.29c-0.72,8.69-11.96,4.58-10.11-2.59c1.46-5.67,4.64-2.51,7.81-1.6c1.77,0.5,1.06,1.26,1.98-0.25
		c0.56-0.92,0.1-3.48,0.83-4.85c3.6-6.76,14.97-4.01,11.98,3.66c-1.23,3.17-4.4,5.33-7.72,4.68c-0.75-0.15-4.02-2.17-4.63-1.66
		C738.23,503,738.28,505.28,738.47,505.29z M748.88,497.96c-0.75-5.07-8.82-4.1-8.24,0.96
		C741.23,504.01,747.83,501.55,748.88,497.96z M731.91,501.97c-2.5-0.19-0.58,5.41,1.96,5.57
		C738.27,507.82,734.77,502.38,731.91,501.97z"/>
	<path class="st0" d="M566.12,526.08c-2.53-1.77-1.94-5.5,0.61-7.46c2.21-1.69,5.93-1.19,8.22,0.03c2.25,1.2,3.7,3.46,3.88,6.01
		c0.09,1.32-0.12,2.49-0.81,3.62c-0.64,1.05-2.51,1.63-2.88,2.62c-0.71,1.9,1.17,4.01,0.16,6.26c-1.32,2.95-4.6,3.23-6.96,1.22
		c-2.84-2.43-1.3-4.21-0.51-7.01C568.29,529.75,569.03,528.12,566.12,526.08z M574.38,528.21c3.86-0.01-0.31-11.61-5.85-7.49
		C563.91,524.16,571.29,528.26,574.38,528.21z M573.65,534.82c-0.59-3.09-4.87-3.81-4.77-0.16
		C568.96,537.68,573.61,538.32,573.65,534.82z"/>
	<path class="st0" d="M552.66,530.85c-0.72,3.22-1.49,6.53-5.61,5.77c-1.11-0.21-2.94-2.31-3.57-2.31c-1.39,0-0.55,0.29-1.58,1.22
		c-1.94,1.78-3.44,4.09-6.71,3.37c-3.2-0.7-3.58-3.69-2.76-6.39c0.82-2.68,2.46-4.66,5.51-4.3c2.63,0.31,3.18,2.76,5.04,0.93
		c1.98-1.94,1.54-5.16,5.59-4.42C551.57,525.28,552.75,528.02,552.66,530.85z M549.99,530.79c0.16-4.43-4.98-3.83-4.34,0.41
		C546.28,535.32,549.26,533.9,549.99,530.79z M536.57,536.17c2.81-0.56,5.1-5.47,0.95-5.48
		C534.86,530.68,533.34,536.32,536.57,536.17z"/>
	<path class="st0" d="M827.05,545.05c-0.16-5.21,3.72-7.78,8.61-6.86c2.84,0.54,4.64,2.29,7.09,3.25c2.01,0.79,3.12,0.25,4.05,2.78
		c0.89,2.4-0.04,4.98-1.86,6.67c-2.63,2.44-4.5,1.81-7.28,0.46c-2.51-1.21-4.15,0.26-6.77-0.61
		C828.27,549.88,827.22,547.61,827.05,545.05z M838.41,541.45c-3.55-1.47-11.6-1.26-8.65,4.98c0.8,1.68,3.57,3.13,5.36,1.7
		c0.85-0.68,0.47-2.18,0.89-3.07C836.65,543.71,837.64,542.72,838.41,541.45z M841.71,543.55c-3.14,0.7-5.44,5.67-0.86,6.25
		C844.71,550.29,846.35,543.36,841.71,543.55z"/>
	<path class="st0" d="M691.56,502.62c0-7.16,7.37-3.68,10.71-5.2c1.92-0.88,2.06-2.89,4.88-2.02c2.58,0.79,4.62,3.91,3.9,6.52
		c-0.82,3.01-2.52,2.24-4.91,2.51c-2.89,0.32-1.21,0.76-3.3,3.16C699.62,511.28,691.2,507.4,691.56,502.62z M701.46,505.07
		c0-3.23-5.21-8.29-6.99-3.46C693.2,505.05,701.14,508.59,701.46,505.07z M708.59,500.73c-0.11-1.27-2.46-4.57-3.65-2.33
		C703.73,500.68,708.47,503.19,708.59,500.73z"/>
	<path class="st0" d="M814.58,691.44c1.23-1.71-2.66-4.22-1.94-6.6c1.1-3.62,4.47-1.35,6.42-2.34c1.45-0.74-0.27-4.18,1.19-5.77
		c2.08-2.26,5.84-1.24,7.74,0.64c1.71,1.69,2.7,5.11,0.78,7.16c-1.86,1.98-4.73-0.16-6.25,1.22c-1.36,1.23,0.86,3.89-1.58,5.56
		C818.75,692.79,816.05,690.29,814.58,691.44z M823.05,678.5c-3.38,0.83,0.41,5.33,2.62,4.63
		C829.17,682.02,825.33,678.45,823.05,678.5z M820.02,688.6c0.45-1.62-3.57-5.5-4.51-3.06C814.84,687.26,818.79,690.91,820.02,688.6
		z"/>
	<path class="st0" d="M671.92,504.77c-3.76,0-7.29-1.07-7.69-5.46c-0.44-4.76,5.2-7.51,9.2-8.17c4.23-0.71,8.57,1.91,9.4,6.45
		C683.89,503.41,676.41,505.41,671.92,504.77z M671.65,502.35c2.21,0.03,7.25-0.29,8.32-2.71c1.51-3.38-2.4-6.56-5.31-6.35
		C668.83,493.72,663.09,501.42,671.65,502.35z"/>
	<path class="st0" d="M803.15,505.7c3.98,0.59,8.96,1.05,9.15,6.25c0.16,4.4-3.87,8.22-8.02,8.73
		C794.79,521.87,792.72,506.22,803.15,505.7z M803.4,518.26c8.27,0.7,7.94-11.81-1.17-9.96C796.72,509.41,797.9,518.27,803.4,518.26
		z"/>
	<path class="st0" d="M745.75,631.09c10.14,0,10.04,14.95,0.56,13.5c-3.28-0.5-7.24-3.2-7.75-6.62
		C737.91,633.54,741.23,629.85,745.75,631.09z M745.76,633.14c-6.53-0.09-4.7,7.71,0.75,8.41
		C752.78,642.37,751.06,633.36,745.76,633.14z"/>
	<path class="st0" d="M734.54,512.74c4.1,0.18,6.53,2.04,7.67,6.14c1.02,3.64,0.23,8.43-4.37,8.78c-3.59,0.28-9.36-3.49-10.59-6.85
		C725.57,516.23,730.53,512.74,734.54,512.74z M740.22,521.72c-0.57-4.18-6.06-10.63-9.86-4.6
		C727.56,521.57,738.55,528.81,740.22,521.72z"/>
	<path class="st0" d="M765.37,530.93c0.56-4.31-6.39-7.67-1.06-12.13c3.44-2.88,8.8-0.06,9.09,4.2c0.13,1.88-0.82,2.97-0.33,4.79
		c0.56,2.08,2.14,3.16,0.77,5.6C771.37,537.81,765.37,535.51,765.37,530.93z M767.15,526.15c3.79-0.03,5.09-5.2,0.77-5.8
		C763.54,519.74,764.32,524.65,767.15,526.15z M769.73,529.28c-3.24-0.04-2.19,4.71,0.7,3.97
		C773.33,532.52,771.89,529.59,769.73,529.28z"/>
	<path class="st0" d="M788.25,494.52c9.8-0.69,9.87,14.24,0.36,14.35C779.59,508.98,780.23,495.56,788.25,494.52z M788.26,497.01
		c-4.58-0.03-5.09,10.42,1.38,9.01C795.05,504.83,793.47,496.99,788.26,497.01z"/>
	<path class="st0" d="M766.04,479.44c-0.89-9.59,14.99-9.25,13.84,1.08C778.83,489.95,766.04,488.52,766.04,479.44z M777.19,479.85
		c0.72-5.9-7.99-6.79-8.43-0.65C768.34,485.15,777.66,486.32,777.19,479.85z"/>
	<path class="st0" d="M712.61,622.11c3.12-0.41,8.5,2.83,9.19,6.07c0.91,4.3-3.57,7.19-7.24,7.08c-3.66-0.11-8.17-2.16-8.68-6.21
		C705.43,625.43,708.81,621.47,712.61,622.11z M712.86,624.75c-7.6,0.07-2.59,10.1,3.61,7.94
		C722.77,630.49,716.64,625.29,712.86,624.75z"/>
	<path class="st0" d="M597.45,493.45c1.48,8.72-15.72-0.13-13.63-7.54c1.35-4.77,6.21-4.44,9.3-2
		C596.47,486.56,597.45,489.19,597.45,493.45z M595.07,493.59c-0.13-2.73-0.44-4.49-2.35-6.5c-1.53-1.61-4.83-3.92-6.11-0.56
		C585.27,490.05,594.49,497.09,595.07,493.59z"/>
	<path class="st0" d="M667.52,470.11c-1.34,7.72-12.53,10.61-14.32,1.37C651.55,462.98,667.91,459.75,667.52,470.11z M664.88,468.94
		c0.25-5.48-9.06-2.51-8.85,1.71c0.12,2.41,2.48,4.24,4.74,4.01C663.95,474.34,664.41,471.49,664.88,468.94z"/>
	<path class="st0" d="M714.05,619.14c-3.35-0.29-6.36-4.58-2.75-7c1.44-0.96,3.19,0.13,4.46-0.68c1.92-1.22,0.78-3.09,3.71-3.62
		c4.28-0.77,7.83,4.37,4.55,7.81c-1.43,1.5-3.21,0.99-4.91,1.75C716.9,618.38,716.76,619.14,714.05,619.14z M722.65,612.66
		c-0.02-1.65-2.36-3.77-3.58-1.88C717.89,612.61,721.35,615.52,722.65,612.66z M714.36,613.75c-3.6,0.56-0.9,4.15,1.41,3.11
		C718.8,615.51,716.18,614.06,714.36,613.75z"/>
	<path class="st0" d="M821.12,494.67c10.26-1.18,9.87,15.07,0.01,14.19C812.82,508.12,812.26,494.67,821.12,494.67z M816.96,501.18
		c0.13,7.01,10.53,6.2,9.77,0c-0.25-2.08-2.93-3.71-4.85-3.93C818.8,496.9,817.68,498.54,816.96,501.18z"/>
	<path class="st0" d="M626.97,528.49c-0.03-9.3,13.37-7.59,14.28,0.59C642.32,538.72,627,537.64,626.97,528.49z M633.49,524.64
		c-6.3-0.27-3.68,10.25,2.24,9C641.66,532.39,638.15,524.9,633.49,524.64z"/>
	<path class="st0" d="M582.18,513.34c-0.62-8.68,13.79-7.36,13.78,1.33C595.95,524.21,581.68,522.81,582.18,513.34z M584.86,513.36
		c-0.06,5.03,6.08,7.64,8.34,2.43C595.86,509.65,584.68,507.82,584.86,513.36z"/>
	<path class="st0" d="M796.05,634.62c7.39-0.09,14.12,15.22,4.42,14.47C793.49,648.55,786.07,634.86,796.05,634.62z M796.27,636.83
		c-5.66-0.07,0.28,9.4,4.3,9.5C806.84,646.49,799.58,637.51,796.27,636.83z"/>
	<path class="st0" d="M706.49,461.09c-3.45,0.19-8.02-2.5-9.19-5.92c-1.48-4.31,3.11-8.35,7.07-8.33
		C711.34,446.87,714.43,460.28,706.49,461.09z M708.8,456.3c-0.13-4.09-4.06-10.06-8.01-5.15
		C696.44,456.55,708.95,461.07,708.8,456.3z"/>
	<path class="st0" d="M853.85,715.05c8.68,0.51,9.78,12.96,0.65,13.34c-4.16,0.17-7.37-2.24-7.56-6.56
		C846.75,717.18,849.84,715.56,853.85,715.05z M854.2,725.88c6.29-0.01,4.84-9.7-1.02-8.58C848.15,718.27,849.11,726.2,854.2,725.88
		z"/>
	<path class="st0" d="M569.7,504.1c0.96,7.27-12.46,8-12.69-0.16c-0.12-4.29,2.39-7.2,6.91-7.19
		C568.57,496.78,569.7,500.11,569.7,504.1z M559.57,504.37c0.45,5.14,8.52,3.51,8.04-1.41
		C567.09,497.62,559.48,499.47,559.57,504.37z"/>
	<path class="st0" d="M755.34,531.66c-0.39,3.12,1.62,7.39-0.67,10.02c-2.63,3.02-7.08,0.89-8.04-2.44
		c-0.63-2.21,0.92-2.92,0.97-4.7c0.05-1.94-1.81-3.15-0.54-5.26c0.96-1.59,3.53-2.29,5.24-1.79
		C754.55,528.14,754.75,529.54,755.34,531.66z M753.46,538.32c-0.14-3.05-4.48-4.02-4.65-0.62
		C748.65,540.9,753.07,541.87,753.46,538.32z M752.74,531.31c-0.04-1.92-3.49-1.62-3-0.05
		C750.06,532.28,752.77,532.95,752.74,531.31z"/>
	<path class="st0" d="M795.37,552.08c-0.45-9.84,13.7-6.76,13.31,0.63C808.21,561.89,794.06,560.6,795.37,552.08z M798,551.99
		c-0.25,5.85,8.65,5.6,8.02,0.41C805.55,548.48,797.92,546.34,798,551.99z"/>
	<path class="st0" d="M649.37,461.03c-0.14,8.42-13.31,8.02-13.64,0.06C635.36,452.37,649.5,451.5,649.37,461.03z M643.76,456.35
		c-4.73-0.31-7.44,6.25-2.37,8C647.62,466.51,648.16,456.35,643.76,456.35z"/>
	<path class="st0" d="M618.16,647.03c-9.82,0.38-8.08-13.64,1.32-13.24C629.83,634.23,627.5,647.59,618.16,647.03z M618.57,644.64
		c5.97,0.07,7.6-8.55,1.12-8.67C613.64,635.85,611.57,644.65,618.57,644.64z"/>
	<path class="st0" d="M713.56,603.86c-8.6,3.31-10.91-9.57-2.53-11.83C720.12,589.58,721.5,601.66,713.56,603.86z M713.21,601.67
		c5.06-1.66,4.14-9.46-1.49-7.82C706.54,595.36,706.88,603.84,713.21,601.67z"/>
	<path class="st0" d="M573,708.15c9.81,0.06,7,13.61-1.96,13.17C562.01,720.88,564.34,708.07,573,708.15z M570.81,718.85
		c5.41,0.06,9.46-7.22,2.42-8.03C567.86,710.21,565.61,718.93,570.81,718.85z"/>
	<path class="st0" d="M773.7,781.91c-0.32,8.43-11.56,10.35-13.31,1.64C758.34,773.3,774,773.1,773.7,781.91z M766.35,778.1
		c-5.49,0.26-4.2,8.06,0.57,8.5C772.87,787.14,771.97,777.85,766.35,778.1z"/>
	<path class="st0" d="M638.83,653.42c0.64,8.56-15.61,9.04-15.17,0.09C624.05,645.62,638.83,645.18,638.83,653.42z M631.65,649.72
		c-5.85-0.61-7.08,7.23-1.12,8C636.87,658.55,639.03,649.01,631.65,649.72z"/>
	<path class="st0" d="M609.44,626.01c-9.41,0.53-9.95-12.9-0.45-12.1c3.58,0.3,6.68,1.55,6.61,5.42
		C615.54,623.01,613.08,626.01,609.44,626.01z M608.3,616.28c-5.8,0.59-3.82,8.26,1.43,7.41c1.69-0.27,3.19-1.69,3.33-3.55
		C613.27,617.27,610.56,616.75,608.3,616.28z"/>
	<path class="st0" d="M879.89,587.63c3.63,0.61,5.96,1.14,6.98,5.05c0.96,3.68-0.21,7.54-4.11,8.53
		C873.5,603.55,869.9,587.15,879.89,587.63z M876.62,593.53c0.3,4.17,6.58,7.75,7.94,2.35
		C886.04,590.01,876.63,587.95,876.62,593.53z"/>
	<path class="st0" d="M698.01,471.37c7.77-0.27,7.9,17.37-1.81,12.88c-2.97-1.37-6.76-3.73-6.59-7.63
		C689.77,472.66,694.93,471.33,698.01,471.37z M697.83,473.73c-6,0.09-6.45,5.44-1.49,7.93
		C702.83,484.91,702.97,473.65,697.83,473.73z"/>
	<path class="st0" d="M785.54,800.04c0.31,8.45-12.72,6.9-13.95-0.34C769.95,789.98,785.24,790.74,785.54,800.04z M783.38,799.92
		c0-4.73-8.89-7.44-9.79-2.07C772.68,803.36,783.18,806.05,783.38,799.92z"/>
	<path class="st0" d="M861.08,560.21c3.3-2.02,6.08-3.87,9.27-0.43c2.21,2.38,2.41,5.73,0.66,8.44c-1.97,3.07-4.92,3.9-8,1.85
		c-3.86-2.58-3.24-6.08-1.85-9.91L861.08,560.21z M866.23,560.32c-3.99,1.19-4.25,8.68,0.47,8
		C870.8,567.72,870.3,560.77,866.23,560.32z"/>
	<path class="st0" d="M602.53,601.89c0.6-7.98,13.95-8.45,14.17-0.32C616.92,609.95,602.6,610.36,602.53,601.89z M610,597.77
		c-5.99-0.18-5.98,8.19-0.07,8.05C615.72,605.68,615.35,597.01,610,597.77z"/>
	<path class="st0" d="M792.76,572.84c-6.88,0.12-11.22-11.53-3.07-13.06C797.57,558.3,801.63,572.36,792.76,572.84z M790.49,562.19
		c-4.66,0.49-2.03,8.85,2.42,7.65C797.87,568.5,794.05,562.43,790.49,562.19z"/>
	<path class="st0" d="M668.21,640.96c-3.18-0.18-7.87-1.76-7.93-5.58c-0.05-3.36,3.33-4.94,6.21-5.27
		C673.68,629.29,676.79,639.78,668.21,640.96z M666.98,632.99c-4.6,0.19-3.92,4.39,0.19,5.05
		C672.17,638.85,671.2,632.87,666.98,632.99z"/>
	<path class="st0" d="M733.12,619.28c8.25-0.73,9.82,12.87,0.81,11.99C726.61,630.55,725.32,618.53,733.12,619.28z M737.38,625.84
		c-0.33-3.58-6.91-6.07-7.08-1.25C730.16,628.35,737.6,630.31,737.38,625.84z"/>
	<path class="st0" d="M701.41,583.96c6.62-0.58,8.94,10.21,1.6,10.58C695.75,594.91,694.25,583.27,701.41,583.96z M705.16,589.74
		c-0.25-2.64-4.28-5.18-5.93-2.21C697.08,591.43,705.38,594.16,705.16,589.74z"/>
	<path class="st0" d="M682.39,598.74c0.04,6.99-8.7,12.41-12.48,4.4C665.8,594.45,682.41,593.29,682.39,598.74z M675.85,603.99
		c3.83,0.51,5.23-5.63,0.79-6.16C672.05,597.29,670.81,603.57,675.85,603.99z"/>
	<path class="st0" d="M683.59,684.3c-6.72,0.28-9.08-11.5-1.85-12.5C690.03,670.65,691,684.43,683.59,684.3z M681.71,674.82
		c-2.88,0.08-1.24,7.48,2.32,6.32C688.44,679.7,684.98,674.89,681.71,674.82z"/>
	<path class="st0" d="M789.68,582.73c0,8.69-12.83,8.06-12.31,0.28C777.88,575.4,790.27,573.66,789.68,582.73z M787.14,582.81
		c-0.47-5.11-6.53-5.21-7.01-0.19C779.74,586.78,787.07,587.81,787.14,582.81z"/>
	<path class="st0" d="M574.46,737.46c-7.4-0.7-8.11-11.55-0.31-12.26c3.97-0.36,7.08,2.51,7.55,6.41
		C582.28,736.39,578.54,737.13,574.46,737.46z M575.69,727.81c-5.82,0-5.9,7.76-0.04,7.49C581.36,735.04,580.59,728.2,575.69,727.81
		z"/>
	<path class="st0" d="M759.49,772.69c-7.53,0.68-9.52-14.26,0.17-12.91c3.73,0.52,6.54,3.96,6.1,7.75
		C765.31,771.44,762.89,772.48,759.49,772.69z M755.28,764.66c-0.23,4.61,6.72,8.51,8.05,2.75
		C764.53,762.23,755.34,760.5,755.28,764.66z"/>
	<path class="st0" d="M859.47,747.78c-7.53,0.68-9.52-14.26,0.17-12.91c3.73,0.52,6.54,3.96,6.1,7.75
		C865.3,746.54,862.87,747.57,859.47,747.78z M855.26,739.75c-0.23,4.61,6.72,8.51,8.05,2.75
		C864.51,737.32,855.32,735.59,855.26,739.75z"/>
	<path class="st0" d="M772.28,462.39c0.06-7.77,13.13-7.05,12.56,1.17C784.24,472.16,771.08,471.06,772.28,462.39z M778.65,459.5
		c-1.58,0.36-3.31,0.56-3.93,2.27c-0.67,1.85,1.13,4.93,2.94,5.29C782.51,468.01,782.83,461.06,778.65,459.5z"/>
	<path class="st0" d="M878.79,634.84c-4.01-0.9-6.96-2.63-6.64-7.29c0.26-3.79,2.84-5.58,6.47-4.56
		C885.95,625.06,886.25,633.13,878.79,634.84z M874.9,627.14c0.22,1.7,0.42,3.32,2.01,4.29c1.49,0.91,4.18,0.78,4.85-1.16
		C882.78,627.32,876.49,622.62,874.9,627.14z"/>
	<path class="st0" d="M861.15,560.15c-1.05-1.8-2.88,0.29-4.42,0.58c-2,0.38-5.06-0.06-6.49-1.69c-2.73-3.12,0.59-6.69,3.3-8.38
		c2.78-1.73,8.14-2.47,9.37,1.6C863.69,554.82,858.87,559.26,861.15,560.15z M855.03,558.25c2.65,0.03,7.96-4.65,3.93-6.32
		C855.16,550.36,847.96,558.33,855.03,558.25z"/>
	<path class="st0" d="M529.37,534.22c-1.82-3.14-5.31-2.53-7.99-0.68c-1.28,0.88-1.59,1.34-2.14,2.78
		c-0.75,1.93,0.89,5.04-0.04,6.49c-1.06,1.02-6.35-1.59-9.02,0.02c-3.06,1.84-4.12,7.25-3.06,10.52c1.13,3.47,5.99,4.76,9.07,3.39
		c4.91-2.18,4.12-7.63,3.86-12.05v0c0.85-1.48,5.36,0.75,7.46-0.66C530.25,542.2,530.97,536.97,529.37,534.22z M512.34,554.29
		c-0.91-0.29-1.95-1.66-2.44-4.55c0-7.23,8.6-6.61,7.81,0.4C517.39,552.95,515.32,555.24,512.34,554.29z M524.43,542.03
		c-1.95-0.07-2.65-1.88-2.56-3.55c0.1-1.75,1.13-3.34,3.1-3.45c2.1-0.12,2.16,0.87,2.65,2.81
		C527.73,539.86,526.9,542.12,524.43,542.03z"/>
	<path class="st0" d="M719.52,660.4c-2.89,6.74-11.69,7.09-12.27-1.38C706.61,649.67,717.53,655.56,719.52,660.4z M713.21,662.76
		c3.56-0.91,3.69-4.6-0.07-5.82C708.4,655.39,710.18,661.5,713.21,662.76z"/>
	<path class="st0" d="M847.9,690.17c-0.22,3.21-2.12,7.09-5.77,7.29c-2.95,0.16-6.17-2.27-6.49-5.22
		C834.84,684.85,845.65,683.14,847.9,690.17z M842.44,687.87c-3.44,0.42-5.85,5.58-1.44,6.6
		C844.89,695.36,846.54,688.6,842.44,687.87z"/>
	<path class="st0" d="M750.11,483.76c-8.67,0.68-8.42-11.88-0.37-12.44C757.64,470.76,757.85,484,750.11,483.76z M753.32,476.51
		c-0.32-5.16-8.61-1.92-7.03,2.39C747.97,483.47,753.48,480.61,753.32,476.51z"/>
	<path class="st0" d="M844.85,651.51c3.21-0.59,5.32,2.87,5.1,5.73c-0.27,3.5-3.79,5.18-7.02,5.13c-3.09-0.05-5.82-2.64-5.88-5.8
		C836.97,652.41,841.41,651.31,844.85,651.51z M847.31,657.08c0-4.05-6.7-4.24-7.26-0.84C839.36,660.44,847.36,660.68,847.31,657.08
		z"/>
	<path class="st0" d="M814.9,569.06c7.94,0.41,9.29,9.46,0.42,10.4C806.3,580.42,807.6,569.77,814.9,569.06z M815.69,572.02
		c-4.43,0-5.98,5.38-0.56,4.76C819.43,576.29,820.42,572.49,815.69,572.02z"/>
	<path class="st0" d="M603.3,593.09c-8.53,0.48-8.02-12.27,0.15-11.8C610.33,581.69,610.43,593.02,603.3,593.09z M602.4,590.49
		c5.46,0.56,4.56-7.78-0.44-6.7C597.61,584.73,599.25,589.32,602.4,590.49z"/>
	<path class="st0" d="M799.57,697.03c6.91-0.07,11.29,12.09,2.97,12.1C796.66,709.14,792.18,697.18,799.57,697.03z M804.58,704.33
		c0.44-4.2-8.06-6.62-5.9-1.06C799.65,705.75,804.18,708.37,804.58,704.33z"/>
	<path class="st0" d="M629.32,493.22c0.27-1.41,0.76-2.09,1.93-2.79c2.23-1.34,1.65-0.09,3.07-2.12c1.03-1.47,1.48-3.38,3.8-3.24
		c1.87,0.11,3.23,1.98,3.54,3.63c0.65,3.43-1.33,2.56-3.3,4.13c-1.37,1.09-0.73,1.68-1.78,3.12
		C634.3,499.1,628.85,497.58,629.32,493.22z M640.02,489.21c-0.14-1.8-2.76-2.75-3.15-0.49
		C636.46,491.03,640.17,491.3,640.02,489.21z M634.75,494.63c-0.17-1.18-2.21-2.89-3.03-1.29
		C630.96,494.87,633.93,496.46,634.75,494.63z"/>
	<path class="st0" d="M818.68,582.84c7.67,0.56,7.48,12.85-0.4,11.92C810.83,593.89,809.9,581.94,818.68,582.84z M817.8,585.46
		c-5.45,1.07-1.53,7.71,2.16,6.26C824.04,590.13,820.94,585.67,817.8,585.46z"/>
	<path class="st0" d="M785.85,733.98c-6.37-0.57-11.53-11.68-2.8-12.25c3.05-0.2,6.44,3.11,7.39,5.85
		C791.83,731.59,789.31,733.03,785.85,733.98z M783.16,724.4c-4.81,1.6-1.44,7.17,2.55,6.99
		C791.33,731.13,786.56,724.79,783.16,724.4z"/>
	<path class="st0" d="M864.65,650.06c0.4,9.24-12.27,4.83-11.46-2.01C854.12,640.21,864.65,643.29,864.65,650.06z M862.09,649.5
		c-0.41-2.98-5.68-5.76-6.3-1.47C855.26,651.65,861.68,655.43,862.09,649.5z"/>
	<path class="st0" d="M623.64,824.47c0.72-3.16,2.1-6.35,5.96-5.96c2.85,0.29,5.5,3,5.44,5.84
		C634.86,831.77,623.44,832.61,623.64,824.47z M629.23,821.02c-3.37,1.1-4.82,7.7,0.01,7.12
		C633.18,827.67,633.73,821.05,629.23,821.02z"/>
	<path class="st0" d="M583.78,752.19c-1,3.26-2.59,6.12-6.64,5.42c-3.42-0.59-6.36-4.96-5.45-8.33
		C573.55,742.4,583.48,746.43,583.78,752.19z M577.54,747.94c-5.56,0-3.96,7.39,0.62,7.33C583.47,755.2,581.81,748.62,577.54,747.94
		z"/>
	<path class="st0" d="M818.58,553.88c-7.27,0.24-5.85-13.76,2.3-12.36C828.14,542.75,824.89,554.07,818.58,553.88z M822.79,546.48
		c-0.05-4.28-7.21-2.48-6.34,1.92C817.48,553.66,822.82,550.22,822.79,546.48z"/>
	<path class="st0" d="M857.02,592.63c5.67,1.22,6.7,11.06,0.32,11.54C850.01,604.73,850.6,593.12,857.02,592.63z M857.31,601.39
		c2.16-0.35,2.68-3.96,0.57-4.84C854.31,595.07,853.05,601.4,857.31,601.39z"/>
	<path class="st0" d="M811.22,469.27c0.03,7.71-12.37,10.34-13.03,1.84C797.63,463.86,809,463.18,811.22,469.27z M808.79,470.24
		c-1.13-4.57-8.65-3.29-7.79,1.06C802.02,476.45,807.43,473.05,808.79,470.24z"/>
	<path class="st0" d="M856.85,705.93c-0.64,7.4-11.36,7.02-11.13-0.43C845.97,697.41,857.3,697.73,856.85,705.93z M848.46,705.4
		c0,4.51,6.17,4.31,5.76-0.23C853.83,700.83,848.8,701.13,848.46,705.4z"/>
	<path class="st0" d="M870.69,647.74c-3.11-0.6-4.91-1.57-5.29-4.85c-0.29-2.48,0.96-6.28,3.91-6.79
		C876.12,634.95,878.12,647.72,870.69,647.74z M867.98,641.36c0.45,2.54,3.3,5.44,4.71,1.74
		C873.99,639.67,868.48,636.88,867.98,641.36z"/>
	<path class="st0" d="M832.37,654.29c-0.01,7.08-9.69,11.05-10.66,2.29C821,650.18,830.49,647.61,832.37,654.29z M829.78,655.6
		c0.31-4.4-5.07-3.45-5.34,0.12C824.08,660.34,829.12,659.49,829.78,655.6z"/>
	<path class="st0" d="M582.9,582.63c0.04-7.26,12.03-7.75,12.35-1.21C595.65,589.45,582.4,590.04,582.9,582.63z M589.14,579.15
		c-4.59-0.11-5.24,5.58-0.58,6.35c2.03,0.34,3.6-0.88,3.95-3.01C592.92,579.89,591.52,579.79,589.14,579.15z"/>
	<path class="st0" d="M876.96,610.78c0.81-2.93,2-4.65,5.41-4.28c3.04,0.33,6.08,2.74,5.72,6.02
		C887.28,620.03,877.23,617.47,876.96,610.78z M885.62,612.05c-0.98-1.97-5.3-5.15-6.06-1.32
		C878.79,614.61,884.2,615.46,885.62,612.05z"/>
	<path class="st0" d="M612.23,522.93c0.24,2.51-2.47,5.86-5.14,5.55c-2.98-0.34-4.65-4.68-4.52-7.16
		C602.99,512.86,612.57,515.93,612.23,522.93z M606.88,519.07c-2.7,0.81-1.67,6.59,0.74,6.29
		C610.98,524.94,609.04,519.69,606.88,519.07z"/>
	<path class="st0" d="M608.51,451.6c1.61,2.96-0.63,7.51-4.14,7.13c-2.82-0.31-5.34-3.51-5.75-6.1
		C597.41,444.97,606.44,446,608.51,451.6z M602.07,450.14c-2.16,1.81,1.05,6.72,3.14,5.5C608.15,453.94,604.31,449.87,602.07,450.14
		z"/>
	<path class="st0" d="M769.54,735.07c1.2-7.14,11.93-1.07,11.08,4.26c-0.44,2.74-3.7,4.28-6.25,3.61
		C771.06,742.08,769.47,738.16,769.54,735.07z M775.65,740.32c4.53-1.4,0.13-6.64-2.88-5.98
		C769.29,735.12,773.56,739.8,775.65,740.32z"/>
	<path class="st0" d="M629.3,450.88c-6.03,0.59-4.9-12.39,3.03-10.5C640.63,442.36,635.62,450.48,629.3,450.88z M634.27,444.87
		c-1.6-3.31-7.42-2.93-6.32,1.33C629.03,450.4,633.38,447.51,634.27,444.87z"/>
	<path class="st0" d="M716.58,674.63c-0.71,6.1-9.35,6.83-10.64,0.53C704.4,667.62,715.38,667.5,716.58,674.63z M713.69,674.89
		c-0.38-2.24-4.54-4.88-5.02-1.12C708.33,676.49,713.04,678.31,713.69,674.89z"/>
	<path class="st0" d="M707.8,644.29c0.61-2.89,1.42-5.47,4.82-5.53c3.24-0.06,6.58,3.43,6.22,6.72
		C718.08,652.45,708.1,650.72,707.8,644.29z M710.59,643.44c-0.33,2.86,3.77,5.76,5.23,2.44
		C717.13,642.9,712.4,638.89,710.59,643.44z"/>
	<path class="st0" d="M581.18,773.34c-8.45-1.01-5.71-11.71,1.77-10.19c2.99,0.61,5.05,3.38,4.34,6.4
		C586.56,772.6,583.95,773.22,581.18,773.34z M581.49,770.92c3.12-0.41,5.48-4.13,1.16-5.28
		C578.65,764.58,576.2,770.34,581.49,770.92z"/>
	<path class="st0" d="M788.24,629.35c0,7.03-9.79,9.27-10.27,1.22C777.48,622.21,789.47,623.27,788.24,629.35z M780.72,629.82
		c0.53,3.43,4.58,4.45,4.91,0.38C785.9,626.73,781.43,626.54,780.72,629.82z"/>
	<path class="st0" d="M720.41,756.13c0.21-3.3,2.16-4.95,5.44-4.62c3.44,0.35,5.13,3.17,5.49,6.49
		C732.34,767.25,720.19,763.28,720.41,756.13z M722.85,755.44c-0.18,2.92,5.2,8.68,6.42,4.02
		C730.11,756.26,724.43,750.86,722.85,755.44z"/>
	<path class="st0" d="M703.38,678.64c0.52,6.57-9.72,6.82-11.21,1.02C690.13,671.77,703.67,670.93,703.38,678.64z M698.3,681.26
		c4.22-0.86,1.72-6.82-1.62-5.83C693,676.53,695.56,680.96,698.3,681.26z"/>
	<path class="st0" d="M723.01,772.19c-0.02,7.49-12.19,4.01-11.58-2.71C712.18,761.3,723.29,765.62,723.01,772.19z M720.78,771.93
		c-0.8-2.68-7.2-7.52-7.03-2.02C713.85,773.26,719.67,776.03,720.78,771.93z"/>
	<path class="st0" d="M788.43,536.9c-7.34-0.02-6.29-11.51,0.33-11.4C795.91,525.62,795.78,536.87,788.43,536.9z M791.59,531.23
		c-1.02-3.15-5.64-4.29-5.58,0.01C786.06,535.41,791.05,534.85,791.59,531.23z"/>
	<path class="st0" d="M777.98,602.9c-6.43-0.05-5.33-10.03,0.24-11.01C785.03,590.7,786.08,603.32,777.98,602.9z M778.57,594.49
		c-3.13,0.99-3.03,6.67,0.75,5.66C782.81,599.22,781.16,595.19,778.57,594.49z"/>
	<path class="st0" d="M698.53,578.08c0.34,7.63-11.09,7.51-10.47,0.46C688.57,572.74,697.91,572.45,698.53,578.08z M693.41,581.27
		c3.1-0.02,3.28-4.79-0.06-4.88C689.8,576.3,689.91,581.3,693.41,581.27z"/>
	<path class="st0" d="M656.55,446.85c6.37,0.32,7.83,11.47,0.04,10.28C650.61,456.21,649.11,446.72,656.55,446.85z M657.79,454.47
		c3.5,0,0.63-4.74-1.34-5.05C652.35,448.77,654.36,454.74,657.79,454.47z"/>
	<path class="st0" d="M582.95,458.34c7.18,2.32,5.28,15.34-3.12,11.5C573.42,466.9,574.64,455.96,582.95,458.34z M582.05,467.28
		c3.99,1.07,2.04-5.88-0.63-6.42C577.37,460.04,578.67,466.65,582.05,467.28z"/>
	<path class="st0" d="M573.66,694.47c-2.46-0.97-6.3,1.79-7.94-1.28c-0.71-1.33-0.13-3.53,1.09-4.42c1.6-1.18,2.47,0.07,4.08-0.21
		c2.44-0.42,4.92-3.61,7.02-0.12C579.73,691.46,576.52,694.27,573.66,694.47z M574.61,692.13c1.39-0.24,2.26-2.76,0.42-2.99
		C573.54,688.96,572.98,692.52,574.61,692.13z M568.95,690.12c-1.57,0.1-1.67,2.29-0.14,2.6C570.58,693.09,570.76,690,568.95,690.12
		z"/>
	<path class="st0" d="M775.09,613.33c-0.21-5.82,10.49-7.32,10.25-0.82C785.1,618.78,775.09,620.89,775.09,613.33z M782.57,612.37
		c-1.42-2.48-5.49-1.23-4.49,1.64C779.16,617.12,782.14,614.24,782.57,612.37z"/>
	<path class="st0" d="M733.22,461.37c-6.36,0.14-8.55-9.61-1.64-10.14C736.76,450.84,740.41,461.35,733.22,461.37z M734.93,457.75
		c-0.24-1.78-3.36-6.07-4.75-2.48C729.21,457.76,733.41,460.44,734.93,457.75z"/>
	<path class="st0" d="M762.35,457.39c0.16,6.77-9.37,7.06-9.58,0.28C752.57,451.6,761.75,451.36,762.35,457.39z M756.33,455.27
		c-1.84,1.38-1.33,4.75,1.41,4.75C761.63,460.02,759.92,454.99,756.33,455.27z"/>
	<path class="st0" d="M723.15,487.28c-6.89-0.67-4.12-10.2,1.41-10.31c3.84-0.08,5.42,3.36,4.31,6.8
		C727.94,486.65,726.03,487.28,723.15,487.28z M723.68,484.64c3.27-0.23,4.31-5.51,0.79-5.21
		C721.77,479.66,720.69,483.91,723.68,484.64z"/>
	<path class="st0" d="M579.71,542.68c5.88,1.23,5.98,10.24-0.73,9.06C573.08,550.71,573.78,542.68,579.71,542.68z M581.55,547.77
		c-0.06-2.24-3.96-3.34-3.9-0.7C577.69,549.11,581.51,550.22,581.55,547.77z"/>
	<path class="st0" d="M703.59,798.52c-6.63,0.4-4.88-10.15,0.75-10.04C710.97,788.6,710,798.59,703.59,798.52z M706.71,793.28
		c-0.63-2.98-4.65-3.12-5.22,0.06C700.79,797.26,706.78,796.96,706.71,793.28z"/>
	<path class="st0" d="M540.15,496.11c-0.22-6.48,9.72-2.85,9.37,2.44C549.03,505.88,540.17,501.83,540.15,496.11z M547.05,498.43
		c-0.45-1.88-3.82-4.63-4.08-1.25C542.74,500.22,547.48,500.56,547.05,498.43z"/>
	<path class="st0" d="M792.02,710.33c5.54,0.01,8.9,10.08,2.61,9.99C789.76,720.24,785.51,711.33,792.02,710.33z M795.98,716.58
		c-0.16-2.09-4.3-5.78-5.11-2.5C790.41,715.95,795.67,719.71,795.98,716.58z"/>
	<path class="st0" d="M563.88,526.84c0.7,1.77,1.03,4.61-0.89,6.72c-2.37,2.6-5.56,2.38-6.9-1c-0.94-2.37-0.04-7.06,2.98-7.83
		C560.94,524.25,563.01,524.95,563.88,526.84z M558.26,530.33c0.49,3.24,3.87,2.13,3.71-0.45
		C561.78,526.74,558.58,527.7,558.26,530.33z"/>
	<path class="st0" d="M754.02,733.3c7.1,0.09,5.89,11.5-0.37,9.39C749.68,741.36,748.64,732.43,754.02,733.3z M756.49,738.34
		c0-1.65-3.16-3.59-3.77-1.29C752.18,739.13,756.12,741.65,756.49,738.34z"/>
	<path class="st0" d="M814.54,691.4c-2.04,1.53,2.38,5.2-0.56,7.89c-2.62,2.4-5.91-0.06-7.44-2.56c-1.71-2.79-1.22-6.14,2.66-6.56
		C810.83,690,813.81,692.86,814.54,691.4z M811.59,697.71c2.39,0.17,0.18-6.34-2.77-4.41C806.97,694.52,809.81,697.71,811.59,697.71
		z"/>
	<path class="st0" d="M628.94,477.07c7.38-0.41,5.31,10.99-1.41,10.42C620.14,486.88,623.53,478.25,628.94,477.07z M627.96,485.06
		c2.03-0.44,5.51-4.52,1.87-5.53C626.91,478.7,624.03,483.66,627.96,485.06z"/>
	<path class="st0" d="M683.42,582.61c7.07-0.08,6.69,10.45,0.28,9.69C677.91,591.62,678.4,583.91,683.42,582.61z M683.67,585.07
		c-2.72,0.05-1.48,5.11,0.84,4.59C687.14,589.08,686.24,585.02,683.67,585.07z"/>
	<path class="st0" d="M674.02,835.7c-4.98,0.41-7.82-11.99-1.08-9.8C677.09,827.25,680.12,835.42,674.02,835.7z M675.24,832.52
		c-0.1-1.65-2.6-5.96-4.04-3.45C670.42,830.45,673.89,834.97,675.24,832.52z"/>
	<path class="st0" d="M748.33,516.19c5.21,0.42,7.96,9.17,1.27,8.82C744.3,524.72,741.9,516.77,748.33,516.19z M747.9,518.24
		c-2.57,0.1,0.38,5.31,2.27,4.14C752.31,521.06,749.4,518.41,747.9,518.24z"/>
	<path class="st0" d="M842.2,678.8c0.1,5.5-8.73,5.34-9.61,0.39C831.47,672.95,842.25,672.74,842.2,678.8z M837.38,676.61
		c-2.79-0.32-2.71,3.93,0.08,3.73C839.81,680.17,839.75,676.88,837.38,676.61z"/>
	<path class="st0" d="M795.25,485.71c-0.16,6.03-10.47,3.7-9.58-1.88C786.59,478.13,795.4,480.07,795.25,485.71z M792.64,485.75
		c0.25-2.71-4.18-4.81-4.25-1.45C788.36,486.2,792.41,488.24,792.64,485.75z"/>
	<path class="st0" d="M690.65,447.24c-5.53-0.69-5.31-9.13,0.58-8.55C697.9,439.35,697.43,447.46,690.65,447.24z M694.11,442.8
		c-0.3-1.84-4.33-2.72-4.91-0.64C688.34,445.25,693.23,445.27,694.11,442.8z"/>
	<path class="st0" d="M676.7,485.91c-6.94-0.77-5.62-10.44,0.93-9.12c2.3,0.46,3.65,1.89,3.97,4.03
		C682.14,484.4,679.7,485.42,676.7,485.91z M679.43,481.15c-0.46-2.45-4.04-2.75-4.69-0.21
		C673.84,484.43,679.62,484.48,679.43,481.15z"/>
	<path class="st0" d="M760.75,756.43c-5.36,0.37-9.28-9.61-1.52-8.45c2.55,0.38,5.15,1.42,5.4,4.27
		C764.85,754.72,763.22,756.39,760.75,756.43z M760.56,753.74c3.77-0.11-0.63-4.71-2.49-3.77
		C755.82,751.1,759.4,753.34,760.56,753.74z"/>
	<path class="st0" d="M541.81,714.44c2.07,0.53,4.95,1.52,4.57,4.08c-0.34,2.29-4.21,4.11-6.21,4.06
		C533.41,722.44,535.49,714.29,541.81,714.44z M540.12,720.23c2.02-0.09,5.34-2.37,1.98-3.37
		C539.61,716.12,536.64,719.92,540.12,720.23z"/>
	<path class="st0" d="M656.64,831.83c0.06-7.68,8.85-1.45,8.74,3.61c-0.06,2.86-2.74,4.57-5.45,3.36
		C657.43,837.68,656.59,834.29,656.64,831.83z M663.03,835.62c0.12-1.38-2.56-6.69-4.11-4.25
		C657.81,833.11,661.06,838.3,663.03,835.62z"/>
	<path class="st0" d="M682.15,455.28c-0.85,5.96-9.02,7.34-9.41,0.61C672.39,449.9,680.81,449.99,682.15,455.28z M679.53,455.11
		c-1.09-2.44-4.95-1.17-4.04,1.31C676.6,459.41,679.23,457.13,679.53,455.11z"/>
	<path class="st0" d="M606.8,472.52c-0.89,6.75-12.05,3.65-9.58-2.8C599.48,463.78,606.58,467.57,606.8,472.52z M599.54,471.51
		c-0.35,3.04,4.28,3.92,5.15,1.06C605.6,469.61,599.67,468.03,599.54,471.51z"/>
	<path class="st0" d="M718.88,441.46c0.18,5.21-8.68,5.46-8.59-0.03C710.4,435.39,718.56,435.02,718.88,441.46z M715.32,438.99
		c-1.82,0.31-3.44,3.58-0.78,3.68C716.39,442.74,716.99,439.57,715.32,438.99z"/>
	<path class="st0" d="M671.91,548.28c-6.5,0-6.21-10.41,0.53-9.16C678.25,540.19,677.85,547.85,671.91,548.28z M671.97,541.35
		c-2.93-0.4-2.99,3.89,0.01,4.18C675.33,545.86,675.09,542.02,671.97,541.35z"/>
	<path class="st0" d="M682.28,827.23c-4.64,0.07-7.97-9.03-1.38-9.26C686.02,817.78,688.41,827.38,682.28,827.23z M683.64,823.81
		c0-1.53-2.06-5.22-3.9-3.27C677.84,822.53,683.18,826.01,683.64,823.81z"/>
	<path class="st0" d="M814.2,648.43c5.91,1.08,4.66,9.88-1.24,9.14c-2.64-0.33-4.44-3.08-3.73-5.7
		C809.91,649.37,811.94,648.83,814.2,648.43z M815.71,652.56c-0.88-2.43-4.37-2.11-3.98,0.65
		C812.11,655.8,815.82,655.22,815.71,652.56z"/>
	<path class="st0" d="M535.14,683.33c6.5-0.2,2.42,10.42-3.67,8.02c-1.85-0.73-3.02-2.75-2.28-4.75
		C530.04,684.3,533.03,683.78,535.14,683.33z M536.31,686.17c-1.3-1.11-5.24,0.21-4.39,2.26
		C532.91,690.82,536.21,687.45,536.31,686.17z"/>
	<path class="st0" d="M544.12,774.74c-0.62,5.77-9.56,0.63-9.3-3.42C535.18,765.5,543.93,770.15,544.12,774.74z M538.62,771.31
		c-1.46,0.07,0.9,3.68,2.31,3.47C543.48,774.41,540.3,771.23,538.62,771.31z"/>
	<path class="st0" d="M536.99,706.06c-5.28-0.55-3.21-7.12,1.28-7.64C546.38,697.49,543.42,706.49,536.99,706.06z M540.16,700.57
		c-1.69-0.05-5.51,1.91-2.44,3.24C539.4,704.53,542.11,701.96,540.16,700.57z"/>
	<path class="st0" d="M738.49,740.93c-5.25,0.39-6.7-8.41-1.25-8.81C742.68,731.72,744.55,741.02,738.49,740.93z M736.1,736.01
		c0.2,1.82,2.81,4.17,3.7,1.38C740.5,735.21,736.09,733.3,736.1,736.01z"/>
	<path class="st0" d="M615.2,517.37c-5.42,0.13-6.84-8.18-1.13-8.52C619.4,508.54,620.81,517.51,615.2,517.37z M614.41,511.23
		c-2.05,1.05-1.27,4.36,1.17,3.43C618.2,513.64,615.63,511.82,614.41,511.23z"/>
	<path class="st0" d="M693.5,815.15c-0.47,5.8-8.74,1.96-7.96-2.63C686.59,806.31,693.43,810.56,693.5,815.15z M691.42,815
		c0-1.98-3.51-4.98-3.57-1.74C687.82,814.95,690.41,816.97,691.42,815z"/>
	<path class="st0" d="M541.33,751.49c-5.83-0.73-3.81-7.6,1.34-7.2C548.81,744.76,547.55,751.81,541.33,751.49z M541.6,749.03
		c1.3-0.09,4.4-0.91,1.63-2.08C541.7,746.3,539,748.35,541.6,749.03z"/>
	<path class="st0" d="M755.12,510.23c-0.36,5.67-8.83,3.17-8.6-1.45C746.8,503.38,754.46,506.26,755.12,510.23z M752.33,510.6
		c-0.21-0.97-3.21-3.61-4.01-1.79C747.74,510.13,751.4,510.85,752.33,510.6z"/>
	<path class="st0" d="M670.69,444.48c-5.59,0.06-6.26-7.8-0.53-8.19C675.27,435.95,676.27,443.96,670.69,444.48z M670.84,438.56
		c-1.85-0.52-3.15,3.07-0.47,3.28C672.69,442.01,672.37,439.59,670.84,438.56z"/>
	<path class="st0" d="M577.07,478.22c0.11,5.87-8.77,3.86-8.6-1.61C568.65,471.27,577.14,473.83,577.07,478.22z M572.15,476.58
		c-0.6,0.66-0.2,2.85,0.98,2.92C575.36,479.63,574.39,476.32,572.15,476.58z"/>
	<path class="st0" d="M734.55,746.66c-0.53,2.43-1.01,3.9-3.94,3.17c-1.85-0.46-4.65-2.96-4.49-5.13
		C726.51,739.45,734.42,742.16,734.55,746.66z M731.45,747.59c2.99-1.73-2.21-4.86-3.01-3.48
		C727.56,745.64,730.32,747.28,731.45,747.59z"/>
	<path class="st0" d="M588.15,781.62c-6.09,0.38-6-7.51-0.16-7.2C593.16,774.69,593.22,781.97,588.15,781.62z M588.29,776.95
		c-2.69-0.17-2.74,2.97-0.16,2.13C589.44,778.66,590.09,777.39,588.29,776.95z"/>
	<path class="st0" d="M614.97,463.77c0,5.18-7.34,4.7-7.81-0.11c-0.19-1.96,1.64-4.49,3.68-4.78
		C613.87,458.45,614.66,461.46,614.97,463.77z M611.45,461.59c-2.03,0.06-2.28,3.18-0.22,3.53
		C613.61,465.52,613.12,462.28,611.45,461.59z"/>
	<path class="st0" d="M541.75,737.45c-5.74-1.13-4.58-7.33,0.9-6.76C548.38,731.28,546.28,736.72,541.75,737.45z M544.15,733.88
		c-0.63-1.31-4.02-1.77-3.7,0.2C540.75,735.93,543.52,734.79,544.15,733.88z"/>
	<path class="st0" d="M701.96,805.07c-0.15,4.93-6.59,6.9-6.85,1.06c-0.08-1.81,0.68-4.56,2.76-4.9
		C699.49,800.96,702.01,803.42,701.96,805.07z M698.33,803.97c-1.41,0.47-1.98,3.31-0.09,3.42
		C700.19,807.49,700.44,803.93,698.33,803.97z"/>
	<path class="st0" d="M617.86,506.62c-4.39-0.26-6.82-8.64-1.42-8.44C621.27,498.36,623.51,505.67,617.86,506.62z M617.79,504.02
		c2.55-0.35,0.07-4.35-1.49-3.26C614.96,501.71,616.47,504.02,617.79,504.02z"/>
	<path class="st0" d="M568.68,490.03c-3.9,0.17-6.87-5.55-2.11-6.68C571.05,482.29,573.95,489.8,568.68,490.03z M567.42,485.86
		c-1.34,1.79,1.07,0.94,1.35,1.22C568.66,486.96,568.9,485.48,567.42,485.86z"/>
	<path class="st0" d="M768.25,497.29c3.99-0.38,6.41,6.27,1.74,7.3C765.07,505.67,762.71,497.29,768.25,497.29z M767.36,500.14
		c0.07,0.52,1.89,2.98,2.25,1.51C769.96,500.21,768.49,499.34,767.36,500.14z"/>
	<path class="st0" d="M756.78,492.63c4.73,0.29,5.21,7.2,0.38,6.9C753.26,499.29,751.79,491.64,756.78,492.63z M756.34,495.7
		c-0.2,1.97,2.04,0.11,1.53,0.05C757.78,495.75,756.48,494.29,756.34,495.7z"/>
	<path class="st0" d="M878.62,579.6c0.25,5.35-8.21,4.39-7.95-0.61C870.95,573.69,878.5,575.05,878.62,579.6z M876.32,579.7
		c0.04-1.48-2.66-2.98-3.07-1.04C872.9,580.33,876.27,581.56,876.32,579.7z"/>
	<path class="st0" d="M711.5,786.48c-4.28,0.09-4.92-7.58-0.36-7.94C715.91,778.18,716.95,786.42,711.5,786.48z M711.95,784.31
		c2.31,0.18,0.87-3.89-0.71-3.6C709.05,781.11,710.6,783.81,711.95,784.31z"/>
	<path class="st0" d="M616.6,491.99c0.05-4.99,7.23-4.73,6.65,0.44C622.74,497,617.25,496.06,616.6,491.99z M620.98,491.73
		c-0.19-1.97-1.84,0.59-1.57,0.5C619.45,492.21,621.19,493.81,620.98,491.73z"/>
	<path class="st0" d="M542.73,758.29c-0.05,3.99-6.14,3.97-6-0.03C536.85,754.52,542.82,754.15,542.73,758.29z M539.73,758.77"/>
	<path class="st0" d="M643.69,508.32c0.41,3.7-5.05,4.39-5.58,0.84C637.6,505.7,643.33,505.02,643.69,508.32z"/>
	<path class="st0" d="M639.45,831.89c-0.19,2.24-4.01,2.16-3.67-0.15C636.09,829.69,639.67,829.3,639.45,831.89z"/>
	<path class="st0" d="M576.19,788.09c-1.22-0.2-0.05-1.34-0.04-1.64C576.12,786.99,577.79,787.12,576.19,788.09z"/>
	<path class="st0" d="M643.69,508.32c0.41,3.7-5.05,4.39-5.58,0.84C637.6,505.7,643.33,505.02,643.69,508.32z"/>
	<path class="st0" d="M639.45,831.89c-0.19,2.24-4.01,2.16-3.67-0.15C636.09,829.69,639.67,829.3,639.45,831.89z"/>
	<path class="st0" d="M576.19,788.09c-1.22-0.2-0.05-1.34-0.04-1.64C576.12,786.99,577.79,787.12,576.19,788.09z"/>
</g>
</svg>
