<?xml version="1.0" encoding="utf-8"?>
<!-- Generator: Adobe Illustrator 23.0.6, SVG Export Plug-In . SVG Version: 6.00 Build 0)  -->
<svg version="1.1" id="Layer_1" xmlns="http://www.w3.org/2000/svg" xmlns:xlink="http://www.w3.org/1999/xlink" x="0px" y="0px"
	 viewBox="0 0 732.82 989.55" style="enable-background:new 0 0 732.82 989.55;" xml:space="preserve">
<style type="text/css">
	.st0{fill:#161616;}
	.st1{opacity:0.2;}
</style>
<g>
	<path class="st0" d="M723.09,736.86c-10.86-14.86-22.3-29.15-33.91-43.43c-5.53-6.8-10.92-13.7-16.16-20.73
		c-2.77-3.72-5.39-7.63-8.4-11.16c-0.63-0.74-5.64-5.26-2.37-4.91c1.76,0.19,5.84,5.94,6.96,7.34c2.7,3.36,5.13,6.93,7.76,10.35
		c5.53,7.18,11.31,14.17,17.07,21.17c5.72,6.94,11.45,13.87,16.94,20.99c2.88,3.73,5.69,7.52,8.54,11.27
		c0.96,1.26,2.09,2.51,2.81,3.93C723.08,733.14,723.09,734.76,723.09,736.86z"/>
	<path class="st0" d="M711.2,803.65c-0.39,2.95-6.28-1.89-7.28-2.49c-2.76-1.69-5.53-3.38-8.26-5.11
		c-6.61-4.18-13.08-8.6-19.3-13.35c-12.37-9.45-23.71-20.17-34.45-31.42c-21.15-22.16-41.75-45.95-58.21-71.85
		c-8.4-13.22-14.93-26.93-20.33-41.61c-0.67-1.83-1.65-3.69,0.64-2.53c2.07,1.05,3.99,8.95,4.89,11.11
		c3.07,7.44,6.6,14.52,10.65,21.47c15.39,26.44,35.34,49.85,55.59,72.65c11.32,12.74,23.52,24.7,36.69,35.52
		c6.61,5.43,13.52,10.45,20.65,15.17c3.29,2.18,6.62,4.3,9.98,6.37C704.44,798.79,710.73,801.08,711.2,803.65z"/>
	<path class="st0" d="M192.78,231.36"/>
	<path class="st0" d="M470.24,531.55c25.16-4.05,49.27-15.01,70.81-28.35c21.04-13.03,40.67-29.12,53.2-50.76
		c5.28,8.72,7.67,18.76,11.38,28.17c3.74,9.5,7.78,18.93,12.3,28.08c8.85,17.92,19.06,35.31,29.89,52.1
		c10.85,16.82,23.27,31.25,36.75,45.98c13.52,14.77,26.15,30.3,38.52,46.03c0-3.34,0.09-4.61-2.07-7.06
		c-2.21-2.51-4.19-5.31-6.29-7.92c-5.06-6.31-10.2-12.55-15.46-18.69c-9.43-11.02-19.59-21.37-29.08-32.34
		c-19.68-22.74-34.87-50.53-48.55-77.2c-7.09-13.83-12.73-28.15-18.44-42.59c-1.48-3.76-3.01-7.49-4.55-11.23
		c-1.08-2.62-2.73-5.25-2.51-8.09c0.23-3.02,1.46-5.22,0.71-8.41c-0.97-4.13-3.59-7.86-5.8-11.4c-3.1-4.95-6.27-10.63-10.8-14.44
		c-2.64-2.22-5.25-2.44-8.2-3.76c-2.97-1.32-3.56-4-4.83-7.04c-5.63-13.45-11.24-26.6-18.83-39.11
		c-8.32-13.7-17.97-26.57-26.17-40.35c-7.45-12.52-13.93-25.62-19.37-39.12c-2.72-6.74-6.07-13.12-8.14-20.11
		c-2.26-7.65-4.15-15.44-6.05-23.18c-3.7-15.08-6.8-30.28-11.01-45.24c-4.09-14.5-8.8-28.97-14.82-42.79
		c-6.09-13.99-15.67-26.06-22.18-39.81c-2.74-5.8-3.84-11.83-5.42-17.99c-2.01-7.84-6.19-14.27-10.64-20.92
		c-3.88-5.79-8.81-11.45-11-18.15c-2.25-6.86-0.9-13.85-0.21-20.86c0.65-6.65,2-14.76-2.53-20.44c-3.73-4.68-10.38-6.34-16.12-5.64
		c-13.97,1.71-23.77,17.07-27.57,29.34c-5.16,16.65-0.43,33.04,4.4,49.12c2.39,7.95,3.99,15.95,5.99,23.98
		c0.96,3.83,2.32,7.55,3.74,11.23c1.2,3.12,4.77,8.49,4.45,11.86c-2.15,0.35-6.2-1.6-8.25-2.19c-2.56-0.75-5.13-1.48-7.68-2.26
		c-6.42-1.97-12.68-4.26-18.75-7.16c-11.07-5.29-21.66-11.41-32.33-17.44c-10.71-6.06-21.46-8.18-33.23-11.06
		c-12.13-2.96-23.09-9.36-35.32-12.07c-5.93-1.31-12-1.87-18.05-2.12c-5.52-0.23-11.91-1.07-17.27,0.61
		c-8.25,2.58-14.21,10.75-14.57,19.3c-0.35,8.47,3.67,16.92,10.86,21.53c10.09,6.47,21.38,12.9,32.61,17.08
		c5.57,2.07,11.29,3.93,17.04,5.42c6.18,1.6,12.47,2.07,18.36,4.69c10.63,4.73,19.95,12.22,30.27,17.59
		c2.12,1.1,10.15,2.8,10.49,4.93c0.45,2.86-8.61,7.91-10.66,8.76c-10.83,4.47-21.64-4.61-31.47-8.59
		c-11.66-4.71-24.04-7.14-36.61-7.23c-12.45-0.1-24.58-1.23-37-1.82c-12.72-0.6-24.94-2.67-37.4-5.19
		c-12.19-2.47-23.14-2.25-32.55,6.94c-3.83,3.74-6.6,8.62-7.36,13.97c-0.39,2.75-0.24,5.54,0.51,8.22c0.43,1.52,3.66,5.99,3.4,7.37
		c-0.29,1.5-4.63,3.95-5.83,5.23c-1.97,2.09-3.71,4.43-5.06,6.97c-2.77,5.24-3.86,11.38-2.39,17.17
		c2.77,10.93,13.43,17.96,23.44,21.53c6.05,2.16,12.4,3.15,18.35,5.6c3.1,1.28,6.19,2.5,9.4,3.5c3.23,1,7.27,1.26,10.25,2.86
		c-6.31,1.86-12.41,3.26-15.9,9.4c-2.49,4.38-3.01,9.74-1.32,14.48c1.18,3.32,3.21,6.38,5.72,8.82c2.15,2.09,4.83,3.49,5.58,6.61
		c0.92,3.78-0.3,8.59-0.04,12.5c0.29,4.45,1.03,8.86,1.37,13.32c1.41,18.67-0.85,37.36,0.16,56.05c0.46,8.63,1.79,17.03,1.64,25.7
		c-0.06,3.3,1.46,9.74,0.12,12.82c-1.32,3.03-4.9,2.58-6.66,5.09c1.57-0.43,6.2-2.67,7.54-1.72c1.01,0.71,1.05,10.19,1.36,11.76
		c0.8,4.01-1.53,2.94-5.23,3.09c-5.07,0.21-10.13,0.64-15.15,1.31c-17.73,2.36-35.11,7.67-51.19,15.51
		c-30.93,15.09-56.31,39.56-73.43,69.32C-3.9,585.74,6.3,670.22,57.57,724.97c50.39,53.82,132.74,68.29,198.42,34.59
		c68.23-35.02,104.9-113.77,89.51-188.67c-14.32-69.71-71.93-125.64-142.95-135.09c-2-0.27-9.29,0.1-9.7-2.05
		c-0.22-1.11,1.65-3.3,2.1-4.37c0.87-2.09,1.32-4.36,1.61-6.59c0.59,0.14,1.19,0.28,1.78,0.42c-4.74-7.31-2.71-16.76-2.82-24.91
		c-0.13-9.05-0.83-18.06-0.69-27.12c0.26-17.37,1.27-34.41,0.22-51.82c-0.24-4.01-0.71-8.29-0.25-12.29
		c0.33-2.92,0.46-2.76,3.05-1.86c3.77,1.32,7.34,3.58,11.05,5.13c4.23,1.76,8.57,2.97,12.95,4.26c8.26,2.44,15.86,6.01,23.77,9.32
		c7.87,3.3,16.74,4.73,24.94,7.11c3.54,1.03,7.78,1.47,11.01,3.27c3.21,1.78,5.17,5.56,7.53,8.26c5.14,5.88,10.99,11.14,17.26,15.79
		c2.95,2.19,6.19,3.87,9.2,5.95c3.41,2.35,6.28,5.34,9.77,7.61c7.05,4.59,15.08,7.31,23.05,9.79c14.82,4.62,30.47,9.07,41.71,20.44
		c5.85,5.91,10.11,13.29,14.42,20.34c4.59,7.5,8.38,14.6,10.78,23.11c2.55,9.06,5.09,18.12,7.63,27.19
		c1.02,3.65,3.9,9.41,3.66,13.09c-0.2,3.13-3.14,5.47-3.4,9.07c-0.52,7.42,3.52,15.59,7.05,21.84c1.84,3.26,3.76,6.95,6.4,9.64
		c2.51,2.56,5.94,3.14,7.97,6.22c4.56,6.93,7.09,15.74,10.13,23.41c3.53,8.9,7,17.81,10.13,26.86c6.02,17.4,11.66,34.95,16.5,52.71
		c4.88,17.92,8.12,36.19,12.78,54.15c2.23,8.59,4.78,17.09,7.69,25.47c2.85,8.21,6.74,15.97,9.73,24.12
		c12.5,33.97,25.31,67.5,45.32,97.83c4.73,7.16,9.45,13.84,11.76,22.2c2.32,8.37,6.87,15.59,12.58,22.1
		c12.14,13.84,25.66,26.47,37.85,40.28c5.81,6.58,11.02,13.66,16.14,20.78c4.55,6.34,8.71,13.89,14.84,18.86
		c6.36,5.15,15.31,8.18,22.94,10.86c7.9,2.77,16.01,4.9,24.22,6.52c4.13,0.82,8.29,1.53,12.46,2.09c4.43,0.6,9.06,0.21,13.42,1.23
		c0-1.13,0-2.27,0-3.4c-2.14,1.66-8.13-0.01-10.64-0.29c-4.93-0.54-9.84-1.31-14.7-2.28c-8.76-1.76-17.39-4.17-25.82-7.11
		c-7.62-2.66-16.67-5.67-22.44-11.56c-5.77-5.88-9.85-13.59-14.7-20.21c-10.72-14.62-23.07-27.98-35.61-41.04
		c-6.3-6.56-13.05-12.73-18.63-19.94c-5.09-6.57-7.68-12.79-10.18-20.6c-2.72-8.49-8.35-15.25-13.1-22.66
		c-4.85-7.56-9.73-15.16-13.82-23.17c-8.39-16.45-15.2-33.91-21.93-51.09c-6.81-17.37-13.64-35.02-19.57-52.71
		c-5.9-17.59-9.19-35.95-13.25-54.01c-9.28-41.28-23.99-81.79-41.15-120.39C455.06,532.95,462.73,532.76,470.24,531.55z
		 M577.26,429.52c-0.33-6.83-3.39-12.17-5.93-17.84C580.31,412.69,583.04,420.46,577.26,429.52z M160.65,248.84
		c-5.91-2.79-12.25-3.68-18.44-5.52c-5.51-1.64-10.37-5.23-14.81-8.8c-8.78-7.06-10.84-19.01-5.13-28.65
		c1.93-3.25,7.24-11.04,11.24-9.76c2.09,0.67,4.61,3.64,6.73,4.7c2.41,1.2,5,2.06,7.61,2.71c12.66,3.14,26.01,4.47,38.91,6.32
		c0.47-2.27-24.85-5.77-27.86-6.25c-8.17-1.29-17.61-2.33-23.87-8.34c-12.2-11.73-4.53-30.23,9.84-35.85
		c7.97-3.12,16.22-1.28,24.34,0.18c4.66,0.84,9.32,1.74,13.98,2.63c2.65,0.5,11.01,0.45,11.54,3.24c0.22,1.16-0.78,3.57-0.92,4.82
		c-0.28,2.51-0.39,5.06-0.57,7.58c-0.4,5.41-0.79,10.83-1.15,16.24c-0.72,10.77-1.32,21.55-1.83,32.34
		c-0.21,4.48-1.13,10.43-0.96,14.09c0,0.01,0.69,0.74,0.72,1.03c0.16,1.59-0.08,3.4-0.08,5.02c0.01,1.88,1.03,7.36,0.18,9.05
		C188.3,259.26,164.52,250.67,160.65,248.84z M170.98,290.42c-7.49-6.6-11.93-18.01-4.02-26.28c3.22-3.37,10.5-6.17,15.03-6.74
		c1.56-0.2,6.9,0.19,7.9,1.58c1.05,1.46,0.3,6.38,0.3,8.06c-0.98-1.14-4.54-5.46-6.41-5.06c-2.53,0.54,3.05,3.88,3.62,4.47
		c3.58,3.66,4.86,12.1,1.63,16.32c-1.59,2.08-4.55,3.3-7.09,3.54c-1.12,0.11-7.49-1.39-6.94,0.41c0.48,1.57,6.35,1.54,7.66,1.42
		c3.41-0.32,6-1.93,7.83-4.88c0.43,3.92,0.81,7.83,1.11,11.76c0.28,3.59,1.19,5.45-2.72,3.9
		C183.35,296.72,175.52,294.41,170.98,290.42z M134.78,768.84C61.79,747.91,12.85,678.78,13.39,603.4
		c4.4,42.69,19,82.51,48.53,114.37c28.28,30.51,66.99,50.31,108.48,54.34c12.45,1.21,24.98,0.95,37.36-0.85
		c5.94-0.86,11.84-2.02,17.67-3.49c2.91-0.74,5.8-1.55,8.66-2.44c1.49-0.47,6.97-3.22,8.32-2.45
		C208.02,776.79,170.48,779.08,134.78,768.84z M132.73,452.76c4.94-1.67,9.93-3.17,14.99-4.43c2.33-0.58,11.93-1.15,12.98-3.25
		c-1.6-1.71-7.68,0.34-9.6,0.71c-3.51,0.67-6.98,1.5-10.41,2.47c-6.85,1.93-13.53,4.44-20.02,7.35c-12.28,5.5-24.01,12.37-35,20.12
		c-10.8,7.62-20.88,16.23-30.1,25.69c-4.92,5.05-9.59,10.34-13.94,15.88c-1.07,1.37-10.2,13.88-10.56,13.48
		c-0.79-0.88,4.81-9.76,5.48-10.95c2.4-4.22,5-8.32,7.79-12.28c5.4-7.68,11.5-14.85,18.12-21.49
		c13.13-13.16,28.24-24.15,44.94-32.34c17.57-8.61,37.32-15.48,57.1-14.98c20.55,0.52,41.11,4.02,60.51,10.87
		c36.92,13.03,68.8,38.22,89.78,71.3c10.54,16.61,18.27,34.96,23.03,54.04c4.9,19.66,7.82,41.71,5.4,61.94
		c-4.37,36.63-26.83,71.97-54.53,95.62c-30.52,26.06-70.37,39.84-110.48,37.95c-68.93-3.25-128.97-51.86-151.81-116.16
		c-13.66-38.46-16.6-83.4,5.13-119.3c19.47-32.16,50.45-58.44,84.07-74.86C121.21,457.37,126.99,455.18,132.73,452.76z
		 M345.81,616.38c-1.55-35.07-10.97-69.68-30.47-99.12c-19.18-28.97-46.64-52.23-78.71-65.7c-18.12-7.61-37.42-12.13-56.94-14.2
		C264.75,433.88,352.82,511.41,345.81,616.38z M192.91,429.07c-1.39,4.04-1.57,5.8-6.27,5.57c-6.43-0.31-5.97-4-6.72-9.66
		c-1.38-10.41-1.39-20.82-1.9-31.29c-0.5-10.13-2.11-19.9-1.82-30.09c0.29-10.25,0.99-20.5,0.91-30.76
		c-0.07-10.57-2.12-20.93-2.11-31.49c0.01-4.95-1-7.18,3.83-4.65c3.26,1.71,10.27,2.85,12.57,5.71c1.86,2.32,0.81,9.51,0.99,12.54
		c0.3,5.08,0.73,10.15,0.94,15.23c0.43,10.36-0.17,20.81-0.33,31.18c-0.18,11.73,0.02,23.26,0.36,34.99
		c0.16,5.5-0.85,10.93-0.22,16.42C193.83,418.76,194.95,423.18,192.91,429.07z M427.41,489.44c0.43,1.21,4.55,13.23,6.97,11.14
		c-4.52-5.18-5.38-14.64-7.14-21.09c-2.37-8.68-4.7-17.36-7.08-26.03c-2.34-8.52-4.3-16.94-8.74-24.66
		c-4.05-7.04-8.33-14.08-13.15-20.61c-10.16-13.76-23.9-20.93-39.96-26.05c-8.07-2.57-16.35-4.59-24.1-8.07
		c-7.29-3.27-13.14-7.97-19.53-12.62c-7.45-5.41-14.82-10.43-21.31-17.04c-3.23-3.29-6-6.99-9.27-10.22
		c-2.52-2.48-6.06-6.71-9.85-6.9c1.63,1.77,4.24,2.63,5.36,4.87c-3.72,0.05-7.56-2.43-11.04-3.55c-4.45-1.43-9.02-2.45-13.53-3.7
		c-8.85-2.47-16.74-6.99-25.4-9.93c-8.48-2.88-16.99-5.19-25.18-8.87c-3.07-1.38-8.61-2.79-10.05-5.88
		c-1.55-3.35-0.68-10.97-0.89-14.69c-0.27-4.9-0.51-9.8-0.64-14.7c-0.04-1.38-1.09-10.07,0.27-10.84c2.14-1.19,8.14,1.53,10.27,2.15
		c4.42,1.27,8.77,2.79,13.08,4.4c8.41,3.16,16.21,6.9,25.19,8.16c9.33,1.3,18.47,2.07,27.21,5.94c-6.19-1.33-12.55-1.24-18.76-2.35
		c-2.72-0.49-5.4-1.18-8.06-1.91c-0.85-0.23-4.7-1.84-3.39,0.69c1.59,3.05,12.5,3.87,15.45,4.14c3.17,0.29,6.36,0.14,9.54,0.26
		c1.83,0.07,5.85,1.68,7.37,0.98c1.82-2.47,32.92,19.72,37.26,22.01c-1.81-3.19-7.59-5.66-10.49-7.81
		c-3.72-2.76-7.4-5.58-11.17-8.26c-7.16-5.09-14.6-9.57-23.05-12.17c-8.93-2.75-18.16-2.64-27.27-4.29
		c-9.23-1.67-16.65-6.15-25.41-9.19c-4.68-1.62-9.43-2.8-14.22-4.04c-5.08-1.32-3.93-4.09-3.99-9.07
		c-0.05-4.33-0.98-9.74,0.12-13.97c0.25-0.96,1.91-2.95,1.72-3.98c-0.13-0.7-1.37-0.68-1.81-1.52c-0.68-1.29,0.14-5.32,0.21-6.81
		c0.12-2.82,0.26-5.63,0.43-8.44c0.27-4.48-0.31-10.53,1.02-14.76c1.15-3.64,4.13-6.48,5.28-10.3c0.9-2.99,2.12-10.27-0.59-12.7
		c0.65,6.88-0.52,13.66-4.31,19.54c-1.13-4.65,0.31-10.56,0.66-15.28c0.31-4.19-0.52-10.71,1.03-14.6
		c2.15-5.37,14.33-2.13,19.19-1.73c11.12,0.91,22.25,0.77,33.38,1.49c10.29,0.67,19.73,3.49,29.22,7.47
		c9.34,3.93,18.17,9,27.67,12.55c9.41,3.51,19.29,5.69,29.31,6.38c10.37,0.71,20.66-1.03,31.02-0.16c10.77,0.9,21.42,3.6,32,5.72
		c-3.33-2.27-7.64-2.79-11.45-3.84c-4.18-1.15-8.38-2.13-12.67-2.77c-8.19-1.23-16.5-1.49-24.77-1.18
		c-8.19,0.31-16.09,0.55-24.2-0.93c-3.78-0.69-7.51-1.63-11.17-2.75c-1.97-0.61-10.32-2.35-10.66-4.58
		c4.95,1.03,9.29-0.92,12.96-4.13c1.87-1.63,3.22-4.59,5.04-5.99c1.95-1.5,2.57-0.76,5.22,0.23c5.6,2.1,11.16,4.24,16.94,5.8
		c2.83,0.76,5.7,1.43,8.62,1.8c1.49,0.19,5.19,1.3,6.5,0.39c-7.67-1.82-14.94-4.06-22.39-6.63c-8.07-2.79-16.26-4.66-23.96-8.47
		c-13.34-6.6-25.99-18.43-40.77-21.39c-15.35-3.08-29.37-7.35-43.25-14.8c-11.76-6.31-26.87-12.37-26.05-28.18
		c0.27-5.27,2.65-10.56,6.56-14.14c5.29-4.84,12.09-4.88,18.86-4.78c8.06,0.13,16.19,0.83,24.06,2.68c7.9,1.86,14.98,5.52,22.5,8.37
		c7.41,2.81,14.95,3.99,22.63,5.7c8.08,1.81,15.62,5.32,22.76,9.44c13.44,7.78,26.75,14.74,41.15,20.69
		c8.48,3.51,17.32,5.38,25.91,8.44c7.46,2.66,14.41,6.56,20.98,10.93c14.21,9.47,29,21.49,45.95,25.56
		c-6.71-4.21-13.97-7.45-20.56-12.04c5.98,0.59,11.82,0.22,17.77-1.3c-9.2,0-18.1,0.76-26.49-3.76c-8.6-4.63-16.1-11.16-24.79-15.78
		c-3.22-1.71-9.25-3.1-11.39-6.08c-2.63-3.65-3.31-10.46-4.74-14.74c-1.67-4.99-4.23-9.93-4.87-15.19
		c-0.58-4.75-0.06-9.68-0.06-14.46c-1.08,1.35-0.85,3.35-1.44,4.89c-2.17-0.64-3.16-7.86-3.76-9.9c-1.1-3.69-2.08-7.41-2.98-11.15
		c-1.78-7.4-3.67-14.94-3.45-22.61c0.36-13.05,6.62-26.66,16.62-35.17c4.39-3.73,9.43-6.03,15.29-5.41
		c3.7,0.39,11.91,3.23,11.31,8.13c-0.29,2.33-3.66,5.75-5.08,7.63c-2.42,3.19-3.33,4.44-3.07,8.51c0.25,3.94,1.21,19.13,6.29,20.19
		c-1.65-6.08-3.81-12.22-4.44-18.51c-0.66-6.62,4.37-9.07,6.98-14.64c1.43,8.99-1.39,17.43-1.09,26.39
		c0.28,8.44,4.86,14.91,9.47,21.61c2.24,3.25,4.49,6.5,6.6,9.84c1.67,2.65,6.5,8.87,6.15,12.21c-0.65,6.1-14.34,0.51-18.35,1.58
		c4.08,2.45,9.15,2.87,13.78,2.19c1.34-0.2,3.86-1.61,5.01-0.92c1.07,0.64,2.09,5.53,2.05,6.71c-0.33,8.3-20.01,1.72-20.52,3.7
		c-0.62,2.39,9.4,2.36,10.75,2.25c2.79-0.24,9.13-3.69,10.62-2.17c0.84,0.85,1.49,5.24,2.05,6.51c0.91,2.06,2.04,4.02,3.19,5.96
		c2.44,4.1,4.85,8.22,7.28,12.33c5.34,9.04,10.8,17.83,14.66,27.63c3.95,10.02,7.75,20.13,10.9,30.43
		c6.47,21.18,10.86,43.09,16.25,64.57c5.15,20.53,13.71,40.71,23.86,59.27c10.58,19.33,24.01,36.78,34.9,55.9
		c5.39,9.46,10.03,19.35,14.17,29.42c3.99,9.69,8.94,18.84,13.26,28.36c1.03,2.27,1.6,2.87,0.85,5.1c-0.63,1.88-2.24,3.89-3.31,5.51
		c-2.85,4.31-6.12,8.32-9.65,12.09c-6.7,7.16-14.25,13.58-22.15,19.37c-18.07,13.26-38.78,23.54-60.16,30.24
		c-11.15,3.49-22.95,6.27-34.66,6.8c-5.53,0.25-11.21,0.16-15.73-3.4C427.45,499.39,423.3,493.39,427.41,489.44z M192.78,231.36
		 M447.41,529.27c-6.83-1.38-11.06-5.22-14.23-11.25c-1.87-3.55-3.71-7.14-5.3-10.83c-0.56-1.3-3.84-7.39-1.34-6.49
		c0.95,0.34,2.26,2.6,3.15,3.31c1.22,0.98,2.55,1.74,4,2.32c3.11,1.26,6.49,1.52,9.81,1.51c8.2-0.04,16.52-1.28,24.52-2.99
		c31.65-6.75,62.55-22.68,86.92-43.88c12.74-11.08,24.15-24.43,28.39-41.11c3.81,6.39,11.72,14.69,11.72,22.46
		c0,7.07-5.55,14.8-9.66,20.15c-10.21,13.31-23.89,24.35-37.74,33.65c-14.24,9.57-29.62,17.76-45.6,24
		C485.35,526.64,465.43,532.91,447.41,529.27z"/>
	<path class="st0" d="M277.69,237.05c2.95-0.45,7.83,3.78,10.28,5.03c3.53,1.8,7.14,3.42,10.81,4.91c7.61,3.1,15.49,5.88,23.43,8
		c7.67,2.05,15.94,3.17,23.87,3.57c8.03,0.4,15.58-1.85,23.34-3.55c-0.83,2.01-7.43,3.3-9.13,3.77c-3.48,0.97-7.05,1.59-10.65,1.8
		c-8.71,0.5-17.8-1.15-26.25-3.13c-8.47-1.99-16.57-4.97-24.52-8.46C291.46,245.73,283.42,242.94,277.69,237.05z"/>
	<path class="st0" d="M459.28,283.05c-5.82-5.66-8.68-15.5-11.52-22.91c-3.17-8.26-5.75-16.73-7.55-25.4
		c-1.71-8.26-1.46-17.01-5.64-24.44c-2.1-3.74-3.76-7.33-5.02-11.45c-0.68-2.23-4.15-7.78-2.25-9.59c3.65,6.26,4.6,13.66,8.42,19.85
		c4.5,7.29,4.25,15.31,5.91,23.53C445.01,249.52,450.95,267.99,459.28,283.05z"/>
	<path class="st0" d="M297.72,234.65c-9.27-2.46-18.12-5.33-27.66-6.79c-4.49-0.69-9-0.96-13.51-1.48
		c-1.03-0.12-11.18-2.18-9.56-3.49c1.26-1.02,9.75,1.46,11.65,1.67c4.89,0.54,9.78,1.03,14.64,1.82
		C281.78,227.76,290.6,229.48,297.72,234.65z"/>
	<path class="st0" d="M318.42,350.76c3.78-1.53,10.17-0.52,14.24-0.65c4.68-0.16,9.4-0.38,14.08-0.13c9.46,0.5,17.97,2.25,26.1,7.17
		c-1.06,0.77-9.91-3.53-11.79-3.91c-4.35-0.88-8.81-1.22-13.23-1.44c-4.85-0.24-9.72-0.23-14.58-0.14
		C329.46,351.74,321.44,353.65,318.42,350.76z"/>
	<path class="st0" d="M244.44,223.29c-9.22-0.71-18.19-4.1-27.27-5.78c-3.91-0.72-7.78-1.55-11.66-2.42
		c-0.74-0.17-10.97-2.42-8.92-3.4c1.95-0.94,8.09,1.35,10.21,1.76c4.32,0.84,8.62,1.76,12.94,2.6c4.53,0.88,8.86,2.01,13.24,3.44
		C235.69,220.36,242.93,221.28,244.44,223.29z"/>
	<path class="st0" d="M518.45,400.11c-6.77-0.57-13.49-2.75-17.91-8.18c-2.53-3.11-4.37-7-3.93-11.08
		c0.19-1.78,3.57-10.35,4.38-6.41c0.18,0.87-1.92,4.14-2.15,5.31c-0.35,1.83-0.29,3.6,0.21,5.39c1.07,3.89,4.12,6.98,7.42,9.14
		c3.37,2.2,7.23,3.34,11.2,3.81c0.95,0.11,3.85-0.34,4.08,1.03C521.98,400.53,519.03,400.11,518.45,400.11z"/>
	<path class="st0" d="M467.44,204.53c5.18,5.37,5.5,17.72,6.24,24.71c0.91,8.65-0.79,18.28,3.27,26.28
		c-5.65-6.63-3.83-16.49-4.6-24.54c-0.43-4.49-1.06-8.96-1.81-13.41C469.8,213.19,468.02,208.88,467.44,204.53z"/>
	<path class="st0" d="M444.96,286.82c-8.33-14.01-13.7-29.1-16.02-45.28C433.31,256.97,438.44,272.15,444.96,286.82z"/>
	<path class="st0" d="M381.02,294.85c-6.14-0.11-12.17-2.36-17.87-4.48c-2.25-0.84-15.52-5.39-14.83-8.51
		c0.34-1.54,4.93,1.89,5.6,2.26c2.72,1.48,5.53,2.8,8.39,4.01C368.41,290.71,374.72,292.77,381.02,294.85z"/>
	<path class="st0" d="M238.19,105.6c0.09-5.35-2.25-10.41-6.36-13.83c-1.16-0.97-5.86-2.57-6.39-3.64
		c-1.18-2.42,2.54-0.79,3.78-0.26c4.96,2.11,8.83,6.63,10.21,11.85c0.46,1.76,1.62,6.91,0.3,8.47
		C237.95,110.29,238.19,106.9,238.19,105.6z"/>
	<path class="st0" d="M533.37,458.21c-5.38-3.68-9.9-8.45-14.41-13.12c-2.21-2.28-4.41-4.57-6.59-6.88
		c-0.54-0.57-5.92-5.43-3.49-5.91c1.55-0.31,9.63,9.89,10.97,11.33C524.37,448.46,529.01,453.24,533.37,458.21z"/>
	<path class="st0" d="M402.69,169.32c-4.73,1.51-12.96-2.5-17.22-4.41c-1.14-0.51-12.98-8.03-10.58-8.77
		c1.08-0.33,3.79,2.75,4.87,3.5c2.36,1.63,4.96,2.92,7.59,4.04C392.28,165.77,398.04,166.71,402.69,169.32z"/>
	<path class="st0" d="M220.38,87.47c-3.56,3.84-5.98,8.53-7.38,13.55c-0.4,1.44-1.04,11.2-2.64,11.42
		c-1.52,0.21,0.75-11.77,1.22-13.34C212.95,94.57,215.57,89.11,220.38,87.47z"/>
	<path class="st0" d="M428.22,281.08c-6.38-8.61-12.43-17.39-18.2-26.68C412.44,255.34,427.5,277.44,428.22,281.08z"/>
	<path class="st0" d="M267.79,239.32c2.62,8.19-3.83,23.91-10.22,24.31c4.24-3.19,6.3-7.91,7.9-12.8c0.7-2.14,1.61-4.39,1.74-6.64
		C267.31,242.29,266.27,240.98,267.79,239.32z"/>
	<path class="st0" d="M444.74,299.62c4.88,8.93,10.62,16.18,16.83,24.22C454.13,317.09,446.84,310.22,444.74,299.62z"/>
	<path class="st0" d="M249.84,312.53c7.7-6.88,11.81-15.86,7.91-25.97c4.73,0.15,2.9,11.56,2.05,14.14
		C258.19,305.61,254.67,310.4,249.84,312.53z"/>
	<path class="st0" d="M215.94,116.5c4.4-1.12,8.82,1.75,13.56,0.03c1.63-0.59,9.28-6.82,6.02-1.74
		C232.08,120.16,220.26,120.74,215.94,116.5z"/>
	<path class="st0" d="M554.54,446.08c-4.91-3.57-9.67-7.34-14.3-11.27c-1.43-1.22-10.65-7.75-10.33-9.16
		c0.33-1.43,10.24,7.22,11.25,8.12c2.36,2.07,4.72,4.15,7.07,6.22C549.94,441.5,553.82,443.73,554.54,446.08z"/>
	<path class="st0" d="M432.38,310.02c6.89,7.47,12.94,15.67,19.73,23.23C448.01,331.25,435.02,314.81,432.38,310.02z"/>
	<path class="st0" d="M257.98,204.85c-2.86-4.7-0.5-17.87,4.16-22.66C259.15,189.46,257.65,196.99,257.98,204.85z"/>
	<path class="st0" d="M258.62,126.54c8.46-4.59,15.09-10.09,18.51-18.66C277.92,113.95,265.23,127.15,258.62,126.54z"/>
	<path class="st0" d="M278.7,195.27c0.94,4.31-0.81,8.39-2.73,12.18c-0.55,1.08-4.74,9.1-6.13,8.26c-1.62-0.97,3.06-6.33,3.86-7.73
		C276.06,203.85,277.76,199.93,278.7,195.27z"/>
	<path class="st0" d="M305.89,115.32c-0.97,3.97-2.09,8.08-4.52,11.43c-0.77,1.05-7.02,7.39-8.23,5.44
		c-0.41-0.65,6.13-5.25,7.01-6.36C301.21,124.5,305.12,115.02,305.89,115.32z"/>
	<path class="st0" d="M402.27,260.57c2.59,3.51,5.08,7.09,7.45,10.74c0.59,0.91,6.08,9.85,5.14,9.86c-1.27,0.02-5.9-8.83-6.69-10.01
		C406.95,269.33,400.84,261.63,402.27,260.57z"/>
	<path class="st0" d="M429.77,128.68c-6.9,0.37-11.96,3.65-16.43,8.27C414.23,131.79,425.19,126.04,429.77,128.68z"/>
	<path class="st0" d="M336.57,328.06c7.41,0.89,14.43,4.24,22.08,3.78C353.42,333.04,346.48,331.96,336.57,328.06z"/>
	<path class="st0" d="M266.3,295.37c-1.3,3.79-2.9,6.89-5.49,9.44c1.3-4.06,4.9-7.42,3.73-12.01c3.94,2.13,4.65,7.15,1.04,9.98
		C266.9,300.35,267.44,298.19,266.3,295.37z"/>
	<path class="st0" d="M252.56,256c2.08-3.08,4.72-5.72,6.47-9.03c0.59-1.12,1.13-5.57,2.5-4.78C265.4,244.43,254.06,255,252.56,256z
		"/>
	<path class="st0" d="M269.35,189.6c0.6,3.03,0.16,6.12-0.83,9.01c-0.21,0.62-2.01,6.12-2.91,6.04c-1.73-0.15,0.9-4.82,1.21-5.69
		C267.89,195.9,269.05,192.85,269.35,189.6z"/>
	<path class="st0" d="M391.59,246.13c-5.31-1.96-10.61-4-14.62-8.3C381.82,240.63,386.81,243.17,391.59,246.13z"/>
	<path class="st0" d="M427.43,101.22c-0.95,0.38-10.85,1.02-10-1.12C417.83,99.09,426.19,101.01,427.43,101.22z"/>
	<path class="st0" d="M248.04,250.34c0.66-3.78,2.33-7.17,4.03-10.55C251.92,243.75,249.71,246.94,248.04,250.34z"/>
	<path class="st0" d="M411.42,72.49c-0.09-1.02-3.05-8.9-2.53-9.04C411.31,62.77,411.75,71.28,411.42,72.49z"/>
	<path class="st0" d="M291.38,123.17c0.5-4.05,2.4-7.37,5.37-10.1C294.97,116.44,292.74,119.57,291.38,123.17z"/>
	<path class="st0" d="M298.32,119.22c0.31,2.28-2.34,7-4.85,8.13C295.18,124.48,296.78,121.81,298.32,119.22z"/>
	<path class="st0" d="M265.27,302.63"/>
	<path class="st0" d="M127.96,222.99c0.49-5.51,1.74-11.17,4.93-15.8c0.44-0.64,3.47-4.97,4.42-3.47c0.75,1.18-2.02,2.85-2.76,3.77
		c-3.05,3.8-4.57,9.73-4.71,14.51c-0.04,1.37,1.7,6.88,0.51,7.67C128.57,230.87,128,223.67,127.96,222.99z"/>
	<path class="st0" d="M169.91,185.88c0.07,2.79-2.43,11.14-6.58,10.61c-2.39-0.31,1.81-3.6,2.21-4.15c1.53-2.05,2.49-4.5,2.49-7.08
		c0-2.67-1.03-5.35-2.54-7.54c-0.55-0.79-3.9-3.68-2.15-4.1C167.32,172.69,169.96,183.44,169.91,185.88z"/>
	<path class="st0" d="M151.76,165.18c-5.04,2.48-8.99,6.48-11.35,11.57c-1.15,2.48-1.87,5.1-2.45,7.76
		c-0.28,1.28-0.2,6.26-0.98,6.79c-1.64,1.12-0.8-4.57-0.76-4.8c0.69-3.7,1.43-7.53,3.05-10.95
		C141.42,171.03,146.08,164.55,151.76,165.18z"/>
	<path class="st0" d="M156.03,223.2c-2.02-4.79-2.79-9.63-6.84-13.28c-1.32-1.2-9.35-4.42-7.3-5.49c2.62-1.36,8.49,3.73,9.97,5.47
		C154.84,213.39,157.04,218.59,156.03,223.2z"/>
	<path class="st0" d="M188.31,226.2c2.72,7.25-4.31,19-9.65,19.87C184.56,240.45,188.56,234.78,188.31,226.2z"/>
	<path class="st0" d="M157.82,195.54c-3.7,0.66-7.54,0.62-11.21-0.26c-0.78-0.19-7.32-1.85-6.44-3.11
		C140.33,191.96,156.11,195.24,157.82,195.54z"/>
	<path class="st0" d="M145.7,229.92c-2.12,1.5-10.9,4.54-12.67,1.38c-0.95-1.68,4.53-0.86,5.06-0.86
		C140.59,230.45,143.24,229.29,145.7,229.92z"/>
	<path class="st0" d="M148.94,230.22c0.72-0.69,5.56-7.7,6.14-5.96C155.9,226.69,150.6,229.78,148.94,230.22z"/>
	<path class="st0" d="M154.14,166.83c2.85,0.58,4.68,2.6,6.19,5.08C159.04,171.06,153.31,168.15,154.14,166.83z"/>
	<path class="st0" d="M170.05,274.58c0.39-4.96,2.77-9.35,6.79-12.3c0.31-0.22,5.1-3.35,4.32-1.07c-0.37,1.08-4.41,2.91-5.34,3.86
		c-4.11,4.22-4.29,8.91-3.47,14.38c0.14,0.92,1.16,4.69-0.91,3.28C169.96,281.72,170.2,276.01,170.05,274.58z"/>
</g>
<g class="st1">
	<path class="st0" d="M247.04,524.11c-0.04,0.02-0.08,0.05-0.13,0.08C247.07,524.2,247.11,524.17,247.04,524.11z"/>
	<path class="st0" d="M152.67,456.73c3.7,0.23,7.49,1.13,10.97,2.39c3.59,1.3,5.78,4.77,8.97,5.98c6.03,2.28,11.09-8.68,15.62-11.2
		c5.76-3.2,18.44,0.93,24.94,2.4c8.81,2,17.39,4.88,25.71,8.41c31.24,13.24,59.2,36.59,76.48,65.95c2.54,4.31,4.83,8.77,6.86,13.34
		c0.82,1.85,3.94,8.48,0.27,5.13c-1.15-1.04-1.92-4.17-2.64-5.57c-1.21-2.35-2.45-4.68-3.74-6.98c-2.64-4.71-5.41-9.44-8.71-13.71
		c-0.57,2.94,2.82,11.23-0.9,12.78c-5.36,2.23-3.65-7.54-5.24-9.16c-1.67,3.91-5.91,5.31-7.67,9.24
		c-0.92,2.06-4.27,13.29-6.43,13.91c-4.21,1.19-0.86-7.69-0.12-9.61c2.08-5.37,5.29-11.69,5.74-17.5c0.52-6.7-3.31-2.68-5.42-6.68
		c-2.68-5.07,6.57-3.92,7.27-7.44c0.54-2.75-4.48-5.97-6.41-7.85c-4.12-4.02-8.44-7.83-12.95-11.4
		c-16.89-13.37-36.55-23.57-57.36-29.22c-5.3-1.44-10.67-2.58-16.1-3.42c-5.68-0.88-10.86-2.53-15.48,1.41
		c-3.04,2.6-4.99,6.6-8.71,8.3c-6.05,2.77-7.83-2.02-12.47-4.69c-2.33-1.34-4.93-2.06-7.54-2.57c-1.65-0.32-5.43-0.04-6.47-1.45
		c-2.34-3.2,9.06-5.01,9.66-7.39c0.19-0.76-1.47-2.84-1.03-3.38c1.04-1.27,2.58,2.6,2.55,3.39c-0.07,1.74-0.23,1.81-1.74,2.79
		C158.26,454.42,155.18,455.03,152.67,456.73z M286.92,546.75c2.21-5.33,4.11-13.18,8.56-16.92c1.13-0.95,3.79-4.36,5.05-4.7
		c3.59-0.97,2.86,3.85,3.19,5.64c0.33,1.83,0.65,3.99,2.53,2.25c1.45-1.34-0.42-6.32-0.43-7.95c-0.03-3.36,0.74-3.38-1.22-6.12
		c-2.58-3.6-5.52-7.04-8.52-10.29c-0.34,3.9-7.72,4-7.39,6.08c0.32,2.02,4.84,1.87,5.72,4.69c1.05,3.36-1.62,9.6-2.66,12.85
		C290.27,536.96,287.21,541.8,286.92,546.75z"/>
	<path class="st0" d="M271.99,545.16c2.22-3.37,4.82-2.89,6.86,0.19c3.15,4.75-1.72,10.03-2.7,14.74c-0.37,1.75-0.02,4.28-1.73,5.46
		c-1.83,1.26-4.36,0.13-5.41-1.58c-1.7-2.75,0.56-5.15,1.28-7.93c0.86-3.34,0.62-6.9,1.04-10.31c-2.02,2.72-1.73,5.76-3,8.66
		c-1.21,2.77-1.51,3-3.51-0.16c-3.68-5.83,0.68-12.42,2.93-17.89c1.49-3.63,1.7-4.99,0.04-8.45c-1.51-3.13-2.27-5.88-2.03-9.39
		c0.43-6.26,4.27-11.68,5.68-17.72c0.2-0.88,0.45-5.4,2.12-4.35c0.35,0.22-0.73,4.17-0.85,4.87c-0.99,5.97-4.86,11.16-5.21,17.25
		c-0.38,6.61,4.96,10.58,2.46,16.87c-2.33,5.86-7.88,13.13-3.29,19.1c0.1-6.14,3.99-10.86,5.75-16.49
		c2.11-6.76-1.88-12.67-0.8-19.55c0.45-2.84,1.52-14.62,6.53-11.38c5.85,3.78,1.2,12.59,2.61,17.32c3.32-3.56,3.92-9.76,1.84-14.08
		c-1.95-4.05-8.83-7.36-3.7-12.02c-0.66,7.67,7.26,10.42,6.36,18.34c-0.23,2.04-1.66,10.14-4.74,9.38
		c-2.96-0.72-0.54-8.52-0.84-10.83c-0.35-2.7-1.41-8.88-4.44-5.97c-1.45,1.39-2.17,10.09-2.19,12.28c-0.04,4.85,2.6,9,1.9,13.92
		c-0.36,2.54-1.81,8.29-3.76,9.72C271.44,545.74,271.71,545.73,271.99,545.16z M278.23,549.01c0.26-4.21-3.59-4.99-4.93-1.36
		c-0.68,1.85-0.34,4.15-0.62,6.08c-0.34,2.36-1.68,4.32-2.14,6.53c-0.78,3.71,2.29,5.87,3.68,1.16c0.56-1.9,0.43-3.82,1.23-5.76
		C276.4,553.32,277.64,551.53,278.23,549.01z"/>
	<path class="st0" d="M280.76,665.88c-3.01,2.94-2.78,1.04-1.2-1.54c1.79-2.94,3.4-5.84,4.67-9.06c2.93-7.43,5.13-15.26,7.38-22.91
		c1.2-4.1,2.32-8.12,2.65-12.39c0.2-2.65-0.13-5.72,1.29-8.12c1.47-2.47,4.23-3.12,5.99-5.17c0.94-1.09,1.39-2.49,2.47-3.56
		c1.13-1.12,2.74-1.53,3.53-2.88c1.08-1.85,2.59-14.44,6.21-9.05c0.69,1.03,0.51,2.76,1.1,3.93c0.54,1.07,2.95,2.96,3.18,4
		c0.65,2.99-3.02,4.24-4.14,6.44c-1.29,2.55-0.84,3.92-3.22,6.09c-2.05,1.88-3.73,2.9-6.57,2.68c-1.95-0.15-5.48-2.87-6.95-2.21
		c-1.88,0.84-0.78,8.63-0.74,10.06c0.3-0.87,1.9-7.54,2.89-7.39c0.19,0.03-2.64,22.76-2.19,24.87c-1.07,0.2-0.69,0.9-0.53,1.53
		l0.05-0.08c-2.53,4.68-2.83,9.88-5.63,14.52c-0.53,0.89-7.93,13.62-9.67,11.65c-0.65-0.74,0.72-1.06,0.13-1.73
		C281.12,665.4,280.89,665.5,280.76,665.88z M299.26,610.54c2.14,1.94,6.11,1.93,8.62,0.82c3.22-1.43,3.08-3.54,4.44-6.31
		c0.99-2.02,3.96-3.24,3.53-5.41c-0.15-0.76-1.85-2.29-2.27-3.11c-0.82-1.59-1.08-3.42-1.81-5.06c-0.34,3.56-1.65,8.99-4.08,11.46
		c-1.42,1.45-2.83,2.22-4.16,3.91C302.19,608.57,301.81,610.25,299.26,610.54z M282.18,663.41c2.68,1.2,8.73-11.26,9.56-13.46
		c1.37-3.65,2.16-7.81,2.93-11.62c0.55-2.72,2.11-7.85,1.32-10.56c-0.71-2.42-0.69-0.52-1.27,0.51c-1.9,3.4-2.66,8.58-3.84,12.31
		C288.43,648.36,286.6,656.43,282.18,663.41z"/>
	<path class="st0" d="M142.63,496.32c-2.42-0.39-1.51,1.06-2.42,2.25c-1.55,2.05-0.67,2.3-3.71,2.16c-1.52-0.07-3.52-0.97-5.01-0.27
		c-2.03,0.96-1.18,3.32-2.58,4.22c-2.23,1.42-2.8-1.38-3.59-2.65c-1.25-2.01-0.23-2.6-3.52-2.52c-0.88,0.02-2.24,0.94-3.14,0.63
		c-0.78-0.26-1.16-1.85-2.02-2.26c-2.12-1.03-3.87,1.13-5.86,0.37c1.71-2.27,3.24-1.66,5.5-2.13c0.55-0.12,3.85,0.97,2.27-1.43
		c-0.98-1.49-4.23-0.76-5.5-2.5c-1.29-1.77-0.3-3.78-0.62-5.77c-0.72-4.39-4.89-5.86-8.88-6.31c-1.85-0.21-3.59-0.17-5.4,0.23
		c-1.01,0.22-2.87,1.43-3.79,1.37c-1.68-0.1-1.1-0.6-0.12-1.49c3.64-3.33,12.94-1.62,16.51,0.87c4.28,3,1.44,7.75,4.59,10.62
		c1.24,1.13,3.59,0.44,4.66,1.86c1.07,1.42-0.47,3.38,0.54,4.34c1.01,0.96,3.52-0.14,4.79,0.67c1.37,0.87,1.76,2.58,2.27,4.03
		c2.22-6.89,7.06-1.16,10.89-4.18c0.72-0.57,0.18-2.59,1.32-3.52c0.87-0.72,2.61-0.54,3.62-1.01c3.5-1.66,1.5-1.33,1.01-4.66
		c-0.43-2.94,0.74-4.59-1.58-7.46c-2.21-2.74-5.25-2.28-7.99-4.16c-2.79-1.92-3-4.92-4.95-7.36c-2.29-2.87-5.24-1.53-7.97-3.19
		c3.3-4.57,9.34,2.97,10.84,5.38c3.16,5.06,8.39,4.88,12.26,9.26c0.27-4.96,3.4-11.25,9.17-6.76c1.85,1.44,3.35,4.1,3.81,6.36
		c0.18,0.9,0.63,1.5,0.61,2.43c-0.02,1.08-2.45,0.26-0.9,2.4c2.23-1.86,4.62-0.67,5.84,1.64c0.82-1.01,1.64-2.01,2.46-3.02
		c0.2,1.01-1.21,5.31-2.58,5.25c-1.21-0.06-0.75-1.35-1.16-1.42c-0.02-0.56-0.26-1-0.7-1.31c-0.51,0.33-1.04,0.64-1.57,0.93
		c-1.21-0.23-1.74,0.48-2.99-0.64c-0.79-0.71-0.32-2.27-1.14-2.72c-0.8-0.44-2.41,0.75-3.39,0.82c-2.04,0.15-3.74-0.41-5.33-1.74
		c-2.2,3.18,1.28,6.74,0.21,9.46c-0.85,2.16-3.55,1.35-4.78,2.98L142.63,496.32z M151.57,484.07c1.73-0.36,4.74-0.31,5.11-2.11
		c0.33-1.62-3.02-5.56-4.45-6.15c-2.25-0.92-4.51,0.13-5.17,2.62C146.16,481.79,148.78,483.21,151.57,484.07z"/>
	<path class="st0" d="M148.57,466.94c-2.13-5.76-7.66-2.18-11.95-3.02c-4.26-0.83-7.07-6.47-6.84-10.55
		c-3.25,0.04-0.23,6.45,0.82,7.98c0.83,1.2,3.8,2.77,4.12,4.02c0.33,1.27-1.42,2.86-1.23,4.37
		C134.81,479.79,151.83,475.75,148.57,466.94z M146.76,469.79c-1.95,4.74-11.53,5.87-11.51-0.56
		C135.27,463.6,149.46,463.22,146.76,469.79z"/>
	<path class="st0" d="M70.93,543.27c2.13,4.28,2.07,10.59-4.7,8.89c-3.86-0.97-6.99-7.89-1.2-8.15c-1.56,1.34-3,3.12-1.1,5.08
		c-0.21-2.44,3.67-4.67,4.88-2.1c1.74,3.69-4.05,2.44-4.39,2.89c-0.09,0.13,5.64,2.5,6.8-1.08c1.59-4.93-4.43-6.05-7.56-5.43
		c0.8-2.06,2.65-1.67,4.37-2.17c-2.68-4.46-9.93,6.4-12.53,6.08c-2.69-0.33-4.97-4.59-5.74-6.78c-0.46-1.29-0.29-2.77-0.88-4.02
		c-0.65-1.37-2.29-2.19-2.85-3.56c-1.16-2.82,0.53-4.15,3.24-5.05c1.31-0.43,3.55,0.15,4.49-0.27c1.95-0.87-0.15,0.3,1.88-2.06
		c1.61-1.87,4.88-4.78,5.29-7.24c0.47-2.84-2.38-7.02,0.42-9.67c3.39-3.21,11.05,1.37,14,3.53c4.87,3.56,10.12,3.23,11.32,10.17
		c0.91,5.26,6.06,12.12,1.13,16.41c-2.71,2.36-6.59,1.68-9.91,2.6C76.4,541.76,70.99,543.37,70.93,543.27z M51.91,529
		c-7.51,1.4-2.23,4.36-0.78,9.23c0.66,2.22,0.63,4.44,2.9,5.96c2.91,1.95,2.93,0.58,5.26-1.74c1.77-1.76,4.16-3.53,6.78-3.49
		c3.19,0.05,5.21,2.64,8.45,2.09c1.72-0.29,3.57-1.59,5.43-1.93c1.22-0.22,2.64-0.03,3.83-0.36c2.57-0.72,5.16-2.66,4.86-5.54
		c-0.23-2.25-2.84-5.28-3.35-7.9c-0.53-2.68-0.23-5.9-2.62-7.79c-1.89-1.5-4.84-1.42-7.01-2.83c-2.5-1.61-4.42-3.49-7.27-4.6
		c-2.63-1.03-4.65-2.2-5.92,0.24c-1.53,2.95,1.14,5.84,0.34,8.74c-0.67,2.46-3.19,4.07-4.65,6.01
		C55.82,528.18,56.42,529.87,51.91,529z"/>
	<path class="st0" d="M52.83,574.72c3.84-1.05,4.83,1.04,7.4,3.01c2.02,1.55,4.49,0.8,6.57,2.39c1.91,1.45,3.35,5.24,1.61,7.35
		c-1.7,2.07-6.32,2.23-8.61,3.38c-5.65,2.84-9.53,8.12-16.34,3.63c-8.09-5.34,2.62-9.82,3.24-15.42c-3.06,0-5.77,0.14-5.47-3.52
		c0.26-3.19,2.96-6.5,3.35-9.99c0.27-2.41-0.35-4.69,2.21-5.86c0.87-0.4,3.18,0.79,3.83,0.17c0.69-0.65-0.06-1.83,0.25-2.56
		c0.86-2.03,1.04-5.25,4.41-4.62c2.48,0.46,4.29,4.86,4.71,7.07c0.63,3.32-0.58,5.81-2.62,8.34
		C56.54,569.14,51.96,575.1,52.83,574.72z M49.11,594.26c3.17-0.83,4.46-1.88,7.07-3.79c2.71-1.99,5.77-1.82,8.56-3.28
		c1.91-1,2.73-2.21,1.5-4.42c-1.57-2.82-3.78-0.99-6.33-2.34c-2.35-1.23-2.74-3.7-5.86-3.91c-3.28-0.22-4.31,1.96-6.01,4.4
		c-1.41,2.02-5.65,6.15-5.51,8.7C42.67,592.27,46.67,594.04,49.11,594.26z M47.1,575.13c0.88,0.19,1.67,1.37,2.68,1.05
		c0.81-0.26,2.32-4.03,2.7-4.61c1.75-2.67,4.87-4.91,5.71-8.1c0.5-1.9-0.39-9.03-3.35-9.19c-3.18-0.17-1.68,5.06-2.68,6.4
		c-1.86,2.51-3.61-0.17-5.36,1.33c-0.78,0.67-0.63,7.26-1.02,8.68c-0.58,2.12-2.95,4.83-1.29,6.42
		C47.66,580.14,46.68,575.83,47.1,575.13z"/>
	<path class="st0" d="M186.94,620.07c-3.61,5.34,0.67,9.83,0.89,15.32c0.19,4.72-2.79,8.8-2.32,13.5c0.24,2.38,1.59,4.45,1.61,6.86
		c0.01,2.01-0.98,4.06-1.2,6.07c-0.53,4.7,1.32,9.25,0.83,13.82c-1.98-4.24-3.12-8.88-2.61-13.57c0.21-1.94,1.11-3.86,1.17-5.79
		c0.06-2.23-0.83-3.62-1.25-5.75c-0.98-4.94,1.4-8.36,2.16-13.03c0.72-4.4-2.55-8.18-2.38-12.72c0.11-3.04,1.05-5.43,3.39-7.44
		c1.05-0.9,3.61-1.76,4.34-2.85c1.44-2.13,0.24,1.18,0.38-2.75c0.13-3.62-1.16-6.12,2.44-8.27c3.88-2.33,5.71-0.64,7.42,2.98
		c2.3-0.53,1.97-2.78,4.98-2.65c2.83,0.12,5.06,2.14,4.62,5.08c-0.79,5.25-9.2,6.35-10.83,1.01c-3.66,1.18,1.49,3.43,2.25,4.73
		c2.37,4.07-1.43,3.85-4.29,2.94c-1.38-0.44-4.69-2.95-5.63-2.81c-0.95,0.14-5.59,4.59-5.99,5.4L186.94,620.07z M205.15,611.57
		c4.17-0.07,6.51-6.28,1.4-6.31C203.74,605.25,200.31,611.27,205.15,611.57z M197.83,604.02c-2.26,0.74-7.6,4.62-2.29,5.98
		C199.03,610.9,202.55,605.1,197.83,604.02z M193.51,610.97c0.27,1.5,6.85,8.29,8.41,5.66
		C203.64,613.74,194.51,611.37,193.51,610.97z"/>
	<path class="st0" d="M87.78,512.98c0.53-4.67-2.3-9.46-6.59-11.35c-1.06-0.46-4.02-0.46-4.18-1.5c-0.15-0.99,4.62-4.86,5.25-5.55
		c3.63-4.03,6.26-9.34,12.13-6.14c4.34,2.37,7.81,6.47,12.31,8.38c-1.38-2.09-1.23-6.2,2.3-4.41c3.09,1.57,0.86,4.88-2.13,4.33
		c-0.04,0.71,2.86,2.84,3.39,3.92c0.9,1.82,0.82,3.9,1.06,5.87c0.3,2.54,0.14,1.99-0.5,4.04c-0.84,0.19-1.22,0.68-1.14,1.47
		c0.28,0.62,0.46,1.26,0.54,1.93c-0.35,1.16,0.23,3-1.84,2.15c-0.17-0.73-0.36-1.45-0.55-2.17c-0.58-0.74-1.21-0.68-1.91,0.2
		c-1.46-0.02-2.55,2.3-3.96,0.12c-1.4-2.17,2.76-3.18,3.66-4.04c-2.85-1.36-6.09,1.65-6.64,4.4c-0.55,2.8,1.48,3.72-1.89,4.15
		C92.85,519.32,90.68,513.56,87.78,512.98z M80.01,499.64c3.57,1.63,7.33,3.26,8.9,7.16c1.5,3.75,1.18,7.99,5.96,9.57
		c2.3,0.76,1.41,1.79,2.6-0.26c0.98-1.7,0.14-3.76,1.77-5.58c1.29-1.43,3.12-2.24,5.05-2.31c1.16-0.04,4.14,1.52,4.98,1.06
		c2.39-1.29-0.62-8.16-2.29-9.8c-2.63-2.57-6.71-5.12-9.93-6.84c-3.61-1.93-5.97-6.19-9.66-2.23c-1.28,1.37-1.78,3.29-3.08,4.66
		C82.74,496.72,81.12,497.52,80.01,499.64z"/>
	<path class="st0" d="M113.56,567.01c1.21-2.06,2.07-0.31,3.8,0.15c2.4,0.63,5.41,0.71,7.89,0.89c2.45,0.18,5.91-0.95,8.05,0.57
		c1.51,1.07,3.19,5.02,3.3,6.69c0.34,5-4.54,7.82-8.37,4.47c-1.78-1.56-2.5-3.98-4.22-5.53c-2.63-2.36-6.59-4.1-9.6-5.97
		c-0.38,1.75,0.96,3.32-0.04,5.02c-2.47-6.38-15-9.42-14.65-16.5c0.27-5.56,5.07-2.92,7.7-0.32
		C110.37,559.39,112.16,563.16,113.56,567.01z M122.24,570.37c2.71,1.64,4.34,3.31,6.23,5.76c1.38,1.79,3.53,4.88,5.36,1.41
		c0.76-1.44-0.08-5.02-1.25-6.22C130.67,569.38,124.76,570.36,122.24,570.37z M109.92,565.76c-0.02-2.32-4.13-10.02-6.88-9.99
		C97.28,555.83,109.39,565.14,109.92,565.76z"/>
	<path class="st0" d="M317.31,644.54c-3.41,1.74-2.77,9.46-7.16,11.14c-6.2,2.38,0.97-9.19,1.88-10.57
		c3.36-5.06,4.58-10.54,6.05-16.35c1.29-5.11,0.5-12.17,2.76-16.85c0.48-1,2.02-3.86,3.56-2.74c1.27,0.91-1.34,4.43-1.68,5.68
		c-1.42,5.25-0.01,11.29-0.46,16.7c-0.42,5.01,1.24,10.33-0.89,15.18c-0.55,1.25-2.02,4.1-3.8,3.98
		C314.18,650.48,316.64,646.28,317.31,644.54z M313.95,645.9c-2.48,2.04-3.71,4.83-4.48,7.86
		C311.83,652.96,313.7,648.02,313.95,645.9z M320.84,625.4c-1.13,3.14-1.78,6.41-2.64,9.62c-0.4,1.52-3.25,7.08-2.41,8.34
		C315.71,643.33,321,640.12,320.84,625.4z M319.85,643.64c-1.03,1.87-1.77,3.22-2.73,4.98
		C319.46,647.62,319.96,646.16,319.85,643.64z"/>
	<path class="st0" d="M89.93,593.06c3.1-1.29,6.19-2.83,9.39-3.87c0.66-0.21,7.45-2.25,5.53,0.76c-0.72,1.13-6.66,2.32-8.26,3.05
		c-3.15,1.44-6.17,2.73-8.8,5.04c-4.72,4.16-6.98,9.71-10.39,14.8c-3.47,5.18-10,6.48-13.95,11.4c0.46-5.13,3.35-5.77,6.99-8.27
		c3.35-2.3,5.7-5.64,7.86-9c4.71-7.31,10.38-15.16,13.27-23.43c1.62-4.62,0.37-7.13-0.94-11.55c-0.32-1.08-1.75-0.98-1.29-2.13
		c0.46-1.15,2.03,0.66,2.23,0.79c3.57,2.47,3.09,9.52,2,12.84c-0.51,1.55-4.98,9.38-4.56,9.9
		C89.43,593.62,89.74,593.52,89.93,593.06z"/>
	<path class="st0" d="M129.61,540.86c5.03,4.19,10.29,8.84,14.6,13.77c2,2.28,3.84,6.17-0.78,6.83c-3.19,0.45-6.55-3.55-8.39-5.7
		c-2-2.34-3.63-4.89-6.05-6.86c-2.84-2.3-5.7-3.33-7.31-6.87c-0.74-1.64-2.29-5.87,0.66-6.25c1.6-0.2,5.12,3.71,6.49,4.36
		c1.49-1.49-3.86-3.65-1.72-6.36c1.99-2.53,5.18-0.08,6.75,1.69c1.17,1.31,3.24,3.97,1.83,5.51c-1.37,1.49-5.57-1.47-6.27-0.83
		C129.19,540.45,129.25,540.69,129.61,540.86z M144.28,558.37c-3.3-4.61-8.11-9.01-12.24-12.91c-2.06-1.94-4.43-4.6-6.83-6.04
		c-1.85-1.11-2.55-2-2.47,0.49c0.15,4.43,7.31,7.03,10.01,9.79C133.98,550.96,142.4,562.52,144.28,558.37z M128.2,534.82
		c1.7,1.79,2.31,4.14,5.5,3.85C131.89,537.12,131.22,534.85,128.2,534.82z"/>
	<path class="st0" d="M213.65,483.71c-3.01-0.61-2.37,1.05-3.16,2.88c-0.98,2.26-2.44,4.2-3.53,6.45c-2.41,5-5.21,7.47-5.86,13.18
		c-0.9,7.96-5.89,5.07-8.71,0.03c-1-1.79-4.14-4.85-1.45-6.47c2.39-1.43,4.11,2.04,6.11,1.18c2.73-1.17,0.05-2.51-1.02-2.87
		c-1.51-0.51-5.02,0.13-5.89-2.16c-0.76-2,1.31-3.81,3.02-4.37c2.92-0.96,4.05,1.56,6.67,1.41c5.56-0.32,2.02-9.39,5.28-12.62
		c2.77-2.75,3.85-0.86,5.76,1.04C211.68,482.19,213.14,482.73,213.65,483.71z M199.68,499.99c3.2-3.53,5.33-6.53,7.63-10.73
		c0.92-1.67,3-4.83,2.25-6.89c-0.81-2.2-2.17-2.04-3.71-0.37c-2.98,3.25,0.73,9.21-3.7,11.84c-2.29,1.35-10.87-2.89-10.18,1.33
		c0.51,3.09,6.87-0.36,7.94,3.09c0.35,1.12-0.81,3.93-1.83,4.53c-1.85,1.08-2.36-0.33-4.14-0.79c-4.23-1.1-1.23,2.58,0.72,5.22
		C199.78,514.13,199.38,503.56,199.68,499.99z"/>
	<path class="st0" d="M288.94,564.27c-0.21,2.4,0.9,4.62,0.79,6.94c-0.12,2.64-1.72,4.07-2.97,6.22c-0.68,1.18-2.9,4.56-2.65,5.9
		c0.33,1.73,2.88,1.8,4.14,3.14c2.86,3.04,2.35,8.01-2.71,5.66c-1.93-0.9-2.37-2.11-3.35-3.83c-1.34-2.36-1.62-1.7-3.52-3.24
		c-2.27-1.84-8.03-8.69-7.03-11.91c0.8-2.59,2.95-1.63,4.78-2.67c1.52-0.87,1.49-2.67,2.5-3.4c0.16-0.12,0.52-0.81,0.72-0.98
		c0.01-0.01,0.92,1.33,1.31,1.03c1.43-1.09,1.08-3.19,2.05-4.45c0,0.01,3.82-3.1,3.34-2.99
		C288.61,559.17,289.03,562.65,288.94,564.27z M286.95,563.27c-3.71,0.67-5.3,5.62-8.22,7.73c-1.2,0.86-4.72,1.48-5.37,2.8
		c-0.9,1.81,2.29,4.55,3.12,5.66c0.82,1.09,2.39,4.51,3.85,4.66c2.05,0.2,2.88-4.14,3.63-5.74c0.92-1.94,2.98-4.03,3.47-6.08
		C288.03,569.8,286.94,565.89,286.95,563.27z M283.41,586.19c0.79,3.66,1.48,4.31,4.87,4.71
		C287.87,588.14,286.15,586.78,283.41,586.19z"/>
	<path class="st0" d="M244.15,744.16c3.45-1.34,4.84-4.81,8.93-5.39c3.07-0.44,8.67-0.27,11.74,0.4c2.09,0.46,3,1.9,5.28,1.1
		c1.49-0.52,2.68-2.49,4-3.34c1.57-1.02,2.53-1.26,3.9-2.73c0.99-1.06,1.54-2.46,2.74-3.36c2.66-1.97,5.38-1.17,7.66-3.82
		c2.35-2.73,3.77-6.04,6.47-8.62c2.79-2.67,6.12-4.65,8.99-7.22c2.35-2.11,5.12-7.89,8.98-6.82c-3.88,2.41-6.28,6.97-9.91,9.84
		c-3.46,2.73-6.99,4.87-9.76,8.4c-1.94,2.46-3.07,6.14-5.89,7.75c-1.88,1.07-3.94,0.77-5.68,2.18c-1.2,0.97-1.72,2.63-2.73,3.76
		c-1.54,1.71-2.09,1.19-3.92,2.27c-1.36,0.8-2.2,2.17-3.65,2.84c-3.1,1.45-6.44-0.49-9.72-0.66c-4.01-0.21-8-1.34-11.69,0.76
		C248.39,742.37,244.67,747.27,244.15,744.16z"/>
	<path class="st0" d="M129.87,664.79c-0.01,4.22-5.09,3.57-5.73,6.7c-0.7,3.42,6.41,6.23,6.66,9.68c0.15,2.07,0.2,6.53-1.32,7.35
		c-2.67,1.45-7.84-3.67-9.58-5.01c-2.81-2.15-8.27-5.3-8.46-9.17c-0.09-1.84,1.52-3.83,2.11-5.62c0.45-1.38,0.44-3.25,1.38-4.47
		c1.27-1.65,2.16-1.18,3.94-2.01c1.4-0.65,2.75-2.44,4.23-2.79C126.24,658.73,129.95,661.29,129.87,664.79z M129.35,687.39
		c-1.6-3.23,0.66-5.9-1.1-8.6c-1.26-1.93-3.9-2.53-4.96-4.77c-0.46-0.97-0.09-2.6-0.53-3.35c-0.54-0.93-1.11-0.67-1.7-1.47
		c-0.69-0.93-1.55-1.54-2-2.7c0.34,0.85-0.54-2.91-0.12-2.56c-2.46-2.06-5.94,9.78-5.5,11.29
		C114.58,679.12,125.5,686.59,129.35,687.39z M127.98,664.6c-0.13-4.6-6.79-4.28-7.34,0.05
		C119.98,669.76,128.11,669.48,127.98,664.6z"/>
	<path class="st0" d="M166.79,494.2c0.83,1.13-0.99,4.55-0.01,6.44c1.14,2.21,3.87,3.84,5.4,5.83c1.34,1.73,5.28,11.8,8.86,8.9
		c4.41-3.57-7.47-9.47-8.8-10.92c-1.63-1.8-3.01-4.34-3.06-6.8c-0.03-1.51,0.19-4.18,1.67-2.45c0.83,0.96,0.65,5.07,1.48,6.58
		c1.4,2.54,2.77,2.98,5.12,4.28c1.95,1.08,4.37,2.4,5.13,4.72c0.57,1.73-0.24,2.31-0.26,3.78c-0.02,1.9,0.17,1.58,1.16,3.38
		c1.25,2.26,2.6,3.75,1.91,6.57c-0.74,3.02-2.76,4.94-5.76,3.56c-3.09-1.42-2.38-3.13-3.18-6.01c-0.52-1.86-4.27-4.71-4.26-5.81
		c0.01-0.98,2.27-1.14,2.19-3.05c-0.08-2.06-3.73-5.94-4.97-7.42C166.97,502.84,161.6,497.75,166.79,494.2z M173.77,515.39
		c2.12,2.3,3.57,3.87,4.23,6.88c0.44,2.01,1.3,6.26,4.61,4.47c2.55-1.38,1.23-6.37-0.16-7.92
		C180.4,516.54,176.56,516.17,173.77,515.39z"/>
	<path class="st0" d="M217.05,670.69c0.87-1.36,2.35-4.73,2.41-6.34c0.05-1.34-1.39-2.76-1.6-4.3c-0.54-3.87,1.52-7.46,5.85-6.41
		c4.41,1.07,5.83,5.95,2.06,8.7c-3.47,2.53-4.12,0.67-5.8,5.18c-1.32,3.53-3.15,6.27-6.33,8.36c-2.45,1.61-10.64,4.69-10.83-1.19
		c-0.05-1.68,4.31-7.67,5.56-8.53C212.36,663.43,216.03,666.97,217.05,670.69z M214.87,670.42c-0.08-5.53-8.45-3.29-7.09,1.74
		C209.15,677.27,214.93,674.79,214.87,670.42z M222.29,654.92c-3.57,0.04-4,6.92-0.89,7.38
		C226.41,663.03,228.27,654.85,222.29,654.92z M205.73,672.16c-2.46,2.64-0.1,6.32,3.44,4.38
		C207.64,675.43,206.61,673.81,205.73,672.16z"/>
	<path class="st0" d="M150.04,576.93c-3.74-0.47-6.41-2.68-8.63-5.59c-0.79-1.04-3.67-7.84-4.86-8.07
		c-1.29-0.24-2.32,1.67-3.96,1.56c-1.85-0.12-3.03-2.06-4.08-3.3c-1.31-1.55-5.49-5.59-5.92-7.49c-0.63-2.84,3.35-0.22,5.3,0.82
		c3.71,1.98,6.63,4.53,9.95,7.07c3.24,2.47,6.96,4.31,9.88,7.19C148.37,569.75,155.14,577.74,150.04,576.93z M149.97,574.95
		c-2.5-3.35-4.88-6.21-9.02-7.87C143.39,570.67,145.28,574.09,149.97,574.95z M128.39,557.81c0.74,1.21,3.59,6.61,5.51,4.89
		C135.97,560.85,129.26,558.12,128.39,557.81z M128.45,557.78"/>
	<path class="st0" d="M153.99,550.11c0.76,1.96,3.07,3.05,0.77,4.95c-2.28,1.87-6.89-1.31-8.46-2.73
		c-3.69-3.34-14.4-15.56-3.67-16.24c4.33-0.27,7.54,3.14,10.72,5.62c3.58,2.79,7.22,5.41,9.51,9.44c0.91,1.6,2.5,2.96,0.81,4.46
		c-1.16,1.03-2.71,0.33-3.79-0.24C158.73,554.77,155.77,549.36,153.99,550.11z M154.52,553.59c-1.11-1.38-4.69-4.83-0.72-5.34
		c2.95-0.38,4.62,4.12,6.62,5.34c3.02,1.83,2.44,0.3,0.86-1.96c-2.08-2.97-4.88-5.24-7.76-7.38c-1.56-1.16-12.75-11.33-14.11-4.68
		c-0.49,2.39,4.59,7.51,6.08,9.24C147.9,551.57,150.47,554.48,154.52,553.59z"/>
	<g>
		<path class="st0" d="M301.88,565.75c-2.19-1.91-0.41-2.74,0.03-5c0.45-2.26-0.45-4.57-1.44-6.55c-0.94-1.86-4.89-9.56-3.73-3.71
			c0.53,2.68,3.1,4.68,2.47,7.47c-0.47,2.11-3.23,4.4-4.29,6.35c-3.89,7.09,2.52,5.71,5.44,0.87c0.05,1.89-9.43,14.95-3.29,14.4
			c2.24-0.2,2.86-4.34,3.8-5.97C302.53,570.74,305.31,568.72,301.88,565.75z M295.98,566.76c0.78-2.19,2.48-3.45,3.3-5.32
			C300.22,563.48,297.31,565.82,295.98,566.76z M296.98,578.12c-0.47-1.94-0.18-2.75,2.04-5.23
			C298.38,574.55,297.73,576.2,296.98,578.12z M299.21,572.17c-0.45-0.44,2.46-4.22,2.66-4.58
			C301.98,570.28,299.44,572.39,299.21,572.17z"/>
	</g>
	<path class="st0" d="M322.52,569.66c-0.24,2.67-5.83,18.52-10.51,13.43c-2.18-2.38,2.24-4.48,0.96-7.31
		c-0.98-2.18-5.45-3.95-1.07-6.2c2.23-1.15,4.47,1.38,4.7-1.9c0.21-2.98-3.91-3.56-3.24-6.84c0.6-2.98,5.18-4.35,7.19-1.87
		C321.93,560.67,322.66,567.56,322.52,569.66z M314.7,571.17c-6.16,0.4,1.05,3.08,0.67,6.47c-0.02,0.22-3.54,5.29-0.9,4.31
		c1.9-0.7,4.01-5.78,4.76-7.56c1.09-2.62,2.02-15.07-2.16-14.68C311.16,560.27,323.35,569.7,314.7,571.17z"/>
	<path class="st0" d="M82.82,692.43c1.05-5.16,7.64-10.58,11.14-3.75c3.38,6.6-4.79,9.05-9.5,6.87c-0.62,4.95-6.02,9.57-10.08,4.75
		C68.83,693.72,77.21,689.72,82.82,692.43z M82.29,696.62c0.08-4.52-6.39-5.15-7.55-0.94C73.18,701.35,82.2,701.95,82.29,696.62z
		 M92.63,691.26c-0.02-4.64-7.11-4.92-7.81-0.48C83.98,696.08,92.65,696.42,92.63,691.26z"/>
	<path class="st0" d="M272.9,640.37c-0.17-2.83,2.23-4.29,3.34-6.61c1.28-2.69,0.93-5.69,1.41-8.55c0.46-2.79,1.53-6.51,4.74-7.19
		c1.44-0.3,3.48,0.15,4.3,1.54c0.98,1.66,0.04,2.17-0.55,3.7c-1.24,3.2-2.53,5.01-2.49,8.7c0.03,2.92,0.6,4.6-0.97,7.27
		C280.83,642.36,272.94,647.56,272.9,640.37z M274.68,640.55c0.06,4.95,7.06-2.17,7.5-4.33c0.47-2.29-0.83-3.65-0.88-5.73
		c-0.05-2.13,1.53-5.14,2.48-7.02c2.85-5.59-2.85-3.73-4.02,0.85c-0.72,2.82-0.35,5.84-1.17,8.63
		C277.74,635.86,275.2,637.57,274.68,640.55z"/>
	<path class="st0" d="M294.29,593.99c0.5-2.16-0.32-6.29,2.63-7.27c2.17-0.72,4.09,1.11,5,2.81c2.3,4.31-0.13,14.13-4.99,16.14
		c-2.28,0.94-4.32-0.64-6.53-0.83c-2.19-0.19-4.9,1.12-4.32-2.69c0.57-3.72,3.75-2.15,5.99-3.05
		C294.91,597.96,294.29,597.63,294.29,593.99z M295.95,594.99c0.23,4.11,0.21,5.26-3.88,5.76c-0.58,0.07-5.95,0.07-4.4,2.44
		c0.01,0.01,5.8,0.58,6.05,0.6c4.81,0.34,6.91-5.55,7.05-9.88c0.06-1.73-0.31-6.3-3.16-5.65
		C295.23,588.79,295.95,593.4,295.95,594.99z"/>
	<path class="st0" d="M312.72,654.6c2.16,3.17,7.65-1.11,6.9,6.26c-0.26,2.61-2.31,5.51-3.31,7.99c-1.18,2.92-2.7,4.97-4.88,7.21
		c-1.61,1.65-3.05,3.69-5.44,2.66c-3-1.29-1.67-3.61-0.76-5.72c1.36-3.16,2.48-6.44,3.93-9.56
		C310.46,660.64,311.12,657.22,312.72,654.6z M317.72,659.72c-0.01-1.9-0.83-3.15-2.97-2.54c-2.22,0.63-1.25,1.66-2.09,3.5
		c-1.83,4.05-3.52,8.34-5.51,12.33c-2.89,5.8,1.65,3.68,4.21,0.24C313.66,670.16,317.72,663.62,317.72,659.72z"/>
	<path class="st0" d="M64.57,601.3c4.08-1.63,7-4.39,10.04-7.44c2.28-2.29,5.87-6.9,9.21-7.79c2.87-0.77,2.78-0.25,1.38,1.95
		c-1.91,3-7.17,6.4-9.75,8.99c-3.57,3.58-6.68,3.86-10.78,6.18c-1.95,1.1-3.06,3.91-3.82,1.5c0.11,0.36,1.14-3.92,1.11-3.68
		c0.21-1.36-0.19-3.79,0.98-4.92C66.66,592.47,65.02,599.55,64.57,601.3z"/>
	<path class="st0" d="M120.25,581.59c0.07-0.14-3.08,1.92-2.49,1.9c-1.63,0.05-5.42-3.93-6.78-5.07c-2.63-2.18-4.15-2.83-7.37-3.75
		c-2.7-0.77-5.87-2.41-6.5-5.53c-1.57-7.76,8.82-1.68,11.16,0.29C112.27,572.83,114.73,580.48,120.25,581.59z M109.49,574.2
		c0.31,0.44,0.51,0.44,0.62,0c-0.78-1.53-9.06-9.03-11.09-6.83C95.75,570.91,108.32,573.9,109.49,574.2z"/>
	<path class="st0" d="M114.63,713.87c2.93,4.63-6.46,9.45-9.51,4.93c-1.47-2.18-0.75-5.03,1.09-6.6c0.84-0.72,2.85-0.51,3.57-1.35
		c0.71-0.82,0.3-1.63,0.71-2.51c1.58-3.42,6.5-9.44,10.63-4.22C124.95,708.95,119.2,713.84,114.63,713.87z M116.31,712.05
		c4.21-0.07,5.52-7.77,0.82-8.1C112.13,703.59,109.96,712.15,116.31,712.05z M106.22,716.16c-0.32,4.37,6.29,2.99,7.04-0.07
		C114.35,711.61,106.18,710.96,106.22,716.16z"/>
	<path class="st0" d="M100.22,745.21c-4.73-4.06,2.29-3.91,4.45-4.32c-2.55-1.46-5.11-3.5-4.43-6.75c0.59-2.8,3.74-4.77,6.52-4.49
		c8.18,0.85,4.32,9.12-0.68,11.35c2.02,1.32,8.04,1.42,6.71,4.14C111.51,747.78,101.96,746.03,100.22,745.21z M106.19,731.37
		c-6.07,0.16-4.69,8.62,0.37,7.35C110.74,737.68,111.22,731.24,106.19,731.37z M110.58,744.25c-1.84-0.62-7.52-3.41-9.52-1.88
		C98.53,744.31,109.68,744.44,110.58,744.25z"/>
	<path class="st0" d="M172.4,550.54c-0.96,1.43-3.09,1.23-3.86-0.35c-1.31,2.15-3.79,2.33-4.69-0.53c-0.69-2.19,1.12-4.67,0.32-7.19
		c-0.72-2.26-8.93-8.73-6.69-10.2c0.84-0.55,4.1,0.87,4.88,1.38c1.84,1.2,2.27,3.69,4.29,4.59c2.71,1.22,3.59-0.89,5.32,2.42
		C173.4,543.43,173.82,547.75,172.4,550.54z M163.64,537.54c-0.28-0.56-3.75-5.52-4.85-3.58c0.64-1.11,7.23,8.45,7.41,9.94
		c0.18,1.53-2.38,6.85,0.75,6.37c0.98-0.15,0.38-2.61,2.32-2.58c1.24,0.02-0.29,2.92,1.76,2.12c1.4-0.54,0.69-4.53,0.54-5.32
		c-0.29-1.48-0.84-3.75-2.14-4.7c-0.63-0.46-1.84,0.34-2.48,0.11C165.63,539.42,164.5,538.63,163.64,537.54z"/>
	<path class="st0" d="M98.6,707.94c0.06,5.6-5.82,3.53-7.97,5.86c-1.85,2-1.39,4.73-5.14,4.39c-2.28-0.21-4.1-2.23-4.56-4.34
		c-1.34-6.19,4.26-5.35,7.73-7.38c1.79-1.05,2.69-4.01,4.8-4.32C96.24,701.75,98.57,705.58,98.6,707.94z M87.16,708.47
		c-3.92-0.01-7.25,5.87-2.56,7.75C89.36,718.13,91.89,708.48,87.16,708.47z M96.82,708c0.06-4.54-4.15-5.5-5.76-1.33
		C89.1,711.77,96.76,712.66,96.82,708z"/>
	<path class="st0" d="M158.91,528.72c-5.59-0.25-6.81-7.66-9.1-11.7c-0.72-1.26-4.42-6.04-3.48-7.66c1.52-2.63,3.73,0.94,4.82,1.83
		c2.63,2.14,6.09,4.46,9.11,6.51c2.11,1.43,3.08,1.99,2.76,4.88C162.86,524.19,161.26,529.16,158.91,528.72z M148.13,510.23
		c-0.87,1.39,4.53,7.85,5.33,9.39c1.02,1.97,1.64,8.93,5.57,7.53c1.47-0.53,2.84-5.2,2.24-6.53c-0.73-1.63-3.37-2.08-4.73-3.31
		c-1.37-1.23-2.23-2.03-3.57-3C152.08,513.66,149.16,510.21,148.13,510.23z"/>
	<path class="st0" d="M299.5,675.02c0.2,1.87-1.66,3.9-3.63,2.9c-1.38-0.7-1.04-4.19-2.84-5.21c-2.05-1.15-4.52,0.7-6.46-0.93
		c-3.4-2.85-0.3-2.43,1.02-3.56c1.8-1.54,3.66-10.77,7.16-7.91c1.33,1.08,0.6,5.61,1.27,7.36
		C296.97,670.14,299.89,672.14,299.5,675.02z M287.25,670.74c4.96-0.96,8.68,0.01,9.89,5.85c1.37-3.37-1.5-4.89-2.8-7.55
		c-0.8-1.65-0.24-6.47-1.6-7.28C290.83,664.81,290.54,668.65,287.25,670.74z"/>
	<path class="st0" d="M266.82,495.71c-0.28,3.93-4.24,10.25-6.72,4.02c-1.06-2.66-0.1-6.06-0.56-8.83
		c-0.42-2.51-1.53-3.94-3.04-5.91c-3.99-5.19,1.15-7.26,4.66-2.82C263.96,485.71,266.12,491.27,266.82,495.71z M265.19,496.13
		c-0.61-4.19-2.51-8.02-4.79-11.58c-0.75-1.17-1.39-3.5-3.46-3.31c-2.66,0.25-0.38,1.48,0.02,2.29c0.78,1.58,2.87,2.26,3.57,4.21
		c0.79,2.17,0.41,4.77,0.53,7.04C261.4,500.46,263.4,502.62,265.19,496.13z"/>
	<path class="st0" d="M112.16,634.11c2.85-3.39,9.84-4.7,9.99,1.28c0.14,5.62-7.44,4.51-7.22,7.75c0.16,2.28,2.52-1.24,1.98-1.36
		c1.68,0.36,1.09,2.28-0.26,2.96c-3.57,1.81-2.44-2.47-2.68-3.83c-0.4-2.18-1.71-4.2-1.62-6.93c-4.55,3.68-8.64-3.36-4.96-5.83
		C111.73,625.23,111.87,631.9,112.16,634.11z M120.34,635.76c0.02-4.73-6.8-3.58-6.68,0.35C113.8,640.4,120.3,640.26,120.34,635.76z
		 M110.77,631.62c-0.47-2.03-2.62-4.02-3.24-0.91C107.01,633.3,110.06,635.18,110.77,631.62z"/>
	<path class="st0" d="M125.64,738.88c-1.18,2.25-2.17,5.52-4.86,6.37c-3.37,1.06-4.57-1.48-2.56-3.8c3.57-4.11,10.4-3.85,12.14-10.1
		c1.3,3.06-1.9,3.64-1.91,6.16c-0.01,2.55,4.69,4.33,4.37,7.28c-0.35,3.25-4,2.98-5.69,0.98
		C126.38,744.89,125.73,738.9,125.64,738.88z M127.61,739.8c0.05,0.91-0.04,7.3,2.51,5.82C132.32,744.34,128.56,741.02,127.61,739.8
		z M118.52,743.88c2.61-0.55,2.61-0.55,3.44-2.67C120.53,741.62,119.44,742.25,118.52,743.88z"/>
	<path class="st0" d="M118.21,618.49c0.46-3.13,1.64-7.87,6.22-5.75c5.23,2.42,2.56,9.82-1.82,11.18c-1.85,0.57-4.78,0.38-6.71,0.41
		c-2.54,0.03-3.71,0.15-4.72-2.78C109.33,616.17,115.02,615.86,118.21,618.49z M125.43,617.7c-1.53-6.45-5.98-3.18-5.91,1.93
		c0.03,1.92-1.01,3.1,1.79,2.95C123.14,622.48,125.42,619.38,125.43,617.7z M116.41,620.43c0.43-3.59-4.43-3.52-3.74,0.24
		c0.2,1.07,0.7,2.42,2.06,2.42C116.64,623.09,115.94,621.64,116.41,620.43z"/>
	<path class="st0" d="M227.16,484.91c-0.01-4.78,1.76-9.38,1.84-14.14c0.01-0.67-1.57-3.97,0.78-2.83c1.4,0.68,2.25,4.3,2.69,5.68
		c1.49,4.64,1.16,10.16-1.07,14.58C228.67,493.55,227.82,487.93,227.16,484.91z M230.57,475.12c-0.69,4.12-2.01,8.17-1.42,12.63
		C231.1,484.71,231.74,479.29,230.57,475.12z"/>
	<path class="st0" d="M333.23,632.22c-0.94,8.25-2.38,16.54-5.45,24.3c-0.9,2.26-2.13,7.03-4.25,8.47
		c-3.06,2.08-0.79-2.38-0.17-3.67c3.48-7.28,5.96-15.08,7.43-23.02c0.36-1.97-0.03-8.84,1.13-10.12
		C333.58,626.35,333.23,631.93,333.23,632.22z"/>
	<path class="st0" d="M297.03,639.74c3.16-3.31,1.93-10.31,5.36-13.22c3.46-2.93,5.47,1.97,5.54,4.76c0.1,3.86-3.08,8.65-5.79,11.2
		c-1.07,1.01-3.04,3-4.84,1.56c-0.51-0.41-1.08-2.85-0.74-2.85C297.33,640.93,297.21,640.02,297.03,639.74z M305.89,631.42
		c0.12-2.59-0.55-4.3-2.54-3.08c-1.51,0.93-3.87,9.77-4.29,11.43c-0.99,3.93,0.48,2.74,2.25,0.14
		C303.16,637.23,306.06,634.93,305.89,631.42z"/>
	<path class="st0" d="M247.58,505.03c-0.37-4.4,2.84-9.31,3.22-13.82c0.17-2.06-1.36-2.62,1.23-3.71c2.24-0.94,4.66,0.92,5.57,2.94
		c1.58,3.53-0.31,9.13-1.96,12.31c-0.91,1.75-2.54,4.93-4.59,5.43C248.81,508.73,247.27,507.38,247.58,505.03z M251.53,495.12
		c0.56,3.06-4.01,7.91-2.61,10.54c1.91,3.59,5.57-4.74,6.09-6.1c1.11-2.91,2.98-7.24,0.22-9.78
		C251.4,486.25,251.35,492.26,251.53,495.12z"/>
	<path class="st0" d="M307.58,545.41c-0.41-3.25,0.7-10.72,5.3-9.7c5.05,1.12,4.3,7.34,3.94,10.91c-0.37,3.71,1.93,7.65-3.49,6.57
		C309.07,552.35,307.49,549.57,307.58,545.41z M315.67,551.6c-2.52-3.56,0.33-6.12-0.22-9.79c-0.38-2.52-2.45-5.8-4.62-3.78
		c-1.44,1.34-2,8.31-1.23,10.26C310.64,550.96,312.93,551.52,315.67,551.6z"/>
	<path class="st0" d="M331.58,585.43c-0.22,5.19-2.09,6.9-5.93,9.72c-1.69,1.25-3.1,3.67-5.15,1.4c-1.36-1.51-0.6-3.91,0.52-5.07
		c1.12-1.16,3.25-0.96,4.34-2.33c1.21-1.52,0.77-2.96,0.97-4.73C327.03,578.33,331.58,580.03,331.58,585.43z M322,596.04
		c2.34-2.79,5.83-3.56,7.12-7.2c0.28-0.8,1.19-7.44-0.66-5.98c-1.52,1.2,0.17,6.3-2.21,8.37C323.23,593.85,320.92,591.2,322,596.04z
		"/>
	<path class="st0" d="M219.68,652.95c-1.11-2.82-0.55-4.49,0.87-6.88c0.34-0.56,1.91-1.13,2-1.85c0.15-1.2-1.21-2.51-1.39-3.72
		c-0.8-5.4,5.39-10.5,9.36-5.18c2.92,3.92-0.63,8.31-4.19,9.65c-1.92,0.72-3.33,0.63-4.59,2.42
		C220.58,649.01,221.39,651.66,219.68,652.95z M222.71,639.82c-0.39,5.37,7.57,3.19,6.78-1.81
		C228.55,632.08,222.91,635.53,222.71,639.82z"/>
	<path class="st0" d="M272.88,657.21c4.53-0.12,5.53,4.3,3.86,7.65c-1.91,3.84-4.95,4.19-8.63,5.44c-1.23,0.42-3.28,2.46-4.45,0.7
		c-1.06-1.59,1.46-2.99,2.19-4.08C267.72,664.12,268.6,657.32,272.88,657.21z M268.09,668.53c2.35-0.85,10.68-3.99,7.25-8.43
		c-3.82-4.95-8.37,8.31-8.01,8.64C267.65,668.94,267.9,668.87,268.09,668.53z"/>
	<path class="st0" d="M169.13,659.24c-8.82,0.22-8.21-13.62,0.77-12.68C177.68,647.37,177.18,659.04,169.13,659.24z M168.88,657.58
		c6.14-0.02,6.11-9.24,0.2-9.39C163.25,648.05,163.23,657.6,168.88,657.58z"/>
	<path class="st0" d="M94.13,478.65c0.26-4.9,11.2-10.02,14.9-11.98c2.93-1.54,6.05-2.56,9.03-3.97c2.54-1.2,5.46-3.71,8.45-2.67
		C115.44,465.69,103.68,470.48,94.13,478.65z"/>
	<path class="st0" d="M221.22,467.65c1.05,3.05,4.36,20.89-3.8,17.69C211.51,483.03,219.72,470.74,221.22,467.65z M220.8,474.16
		c-0.79,1.56-5.26,8.23-2.4,9.29C221.46,484.58,220.94,475.32,220.8,474.16z"/>
	<path class="st0" d="M306.73,688.57c0.07,7.86-10.56,7.61-11.12,0.48C294.99,681.29,306.66,680.41,306.73,688.57z M304.61,688.56
		c0.06-4.99-6.5-5.23-6.99-0.27C297.15,693.15,304.54,694.34,304.61,688.56z"/>
	<path class="st0" d="M152.04,759.49c-1.19-4.41,3.47-8.75,7.52-5.52c1.83,1.46,2.02,4.48,0.75,6.26c-2.17,3.03-5.2,1.96-7.74,0.29
		c0.73,6.52-6.97,0.54-3.33-1.82c0.99-0.64,2.08,2.79,3.08,1.52C152.44,759.89,152.35,759.65,152.04,759.49z M156.61,760.42
		c3.43-0.6,3.42-5.47-0.23-5.41C152.23,755.07,152.68,760.37,156.61,760.42z"/>
	<path class="st0" d="M127.01,649.18c-7.73,1.27-8.58-6.09-1.93-9.04C133.4,636.45,134.81,649.93,127.01,649.18z M130.74,644.41
		c-0.49-1.4-0.8-3.48-2.6-3.75c-2.53-0.38-1.73,0.86-2.04,2.29C125.11,647.51,129.53,649.01,130.74,644.41z M125.94,648.58
		c-0.91-1.44-0.7-7.17-3.02-5.76C119.32,645.01,123.91,648.12,125.94,648.58z"/>
	<path class="st0" d="M175.38,460.99c-5.7-3.93-0.6-6.2,0.6-10.75c0.21-0.8-0.54-3.93,0.96-3.52c1.64,0.44,0.58,4.75,0.12,5.63
		c3.12-0.96,5.11-4.77,7.51-6.73c1.62-1.31,2.75-2.6,1.85,0.07C185.11,449.56,171.54,456.52,175.38,460.99z"/>
	<path class="st0" d="M222.79,619.7c-2.89,0.92-7.59,0.41-9.36-2.5c-1.54-2.52,0.61-6.51,2.78-8.03c2.1-1.47,6.67-1.57,8.36,0.78
		c2.23,3.1-0.17,7.15-1.83,9.8L222.79,619.7z M223.75,613.04c0.69-7.03-10.25-2.16-9.37,2.52c0.34,1.78,3.63,3.01,5.32,2.82
		C222.71,618.04,223,615.49,223.75,613.04z"/>
	<path class="st0" d="M158.05,743.83c0.03-6.25,9.63-8.52,11.02-1.95C170.68,749.46,158,753.5,158.05,743.83z M160.01,744.08
		c0.02,6.55,7.84,3.22,7.17-1.5C166.46,737.41,159.99,739.43,160.01,744.08z"/>
	<path class="st0" d="M143.8,683.52c-0.07,8.41-13.5,6.92-12.09-1.39C133.07,674.1,143.86,675.45,143.8,683.52z M142.07,683.12
		c-0.04-6.19-7.74-5.85-8.59-0.5C132.52,688.74,142.11,689.43,142.07,683.12z"/>
	<path class="st0" d="M163.54,577.19c8.54,0.11,3.94,11.68-2.31,11.54c-2.84-0.06-5.31-3.09-5.19-5.91
		C156.16,579.9,160.72,576.6,163.54,577.19z M163.52,578.86c-5.85-0.1-7.56,8.63-1.93,8.27
		C165.71,586.86,169.15,579.86,163.52,578.86z"/>
	<path class="st0" d="M184.03,483.26c-7.07-11.44,11.39-10.13,7.05-1.45c-0.98,1.96-2.19,1.38-3.47,2.54
		c-0.68,0.62-1.68,2.78-2.36,3.13C181.75,489.29,179.85,483.88,184.03,483.26z M186.37,476.39c-4.21-0.61-2.57,6.97,1.11,6.28
		C191.86,481.87,189.61,477.02,186.37,476.39z M184.21,484.02c-2.24,1.36-0.14,1.31-0.37,2.46
		C183.81,486.63,186.38,483.62,184.21,484.02z"/>
	<path class="st0" d="M196.22,568.73c-0.13-8.06,14.64-7.47,13.03,0.17c-0.4,1.9-5.24,5.75-6.99,5.86
		C199.26,574.95,196.27,571.59,196.22,568.73z M197.99,569.81c0.22,6.03,8.79,1.71,9.34-1.5
		C208.22,563.07,197.93,563.3,197.99,569.81z"/>
	<path class="st0" d="M121.6,723.97c2.95,0.91,6.05,1.07,6.01,4.71c-0.03,2.61-2.93,6.56-5.55,7.1
		C115.47,737.16,114.79,723.92,121.6,723.97z M125.51,728.72c0.32-4.01-7.29-3.34-6.96,1.77C118.98,737,124.81,732.86,125.51,728.72
		z"/>
	<path class="st0" d="M233.05,733.93c0.11-6.86,12.19-8.33,11.94-0.76C244.79,739.25,232.95,740.28,233.05,733.93z M234.88,733.6
		c0.06,4.01,8.63,3.36,7.86-1.17C242.03,728.15,234.82,729.77,234.88,733.6z"/>
	<path class="st0" d="M292.69,680.62c-0.18,7.73-12.36,8.82-11.1,0.33C282.55,674.5,292.87,673.15,292.69,680.62z M283.27,681.36
		c-0.32,6.03,7.49,4.06,7.46-0.9C290.7,675.08,283.5,677.1,283.27,681.36z"/>
	<path class="st0" d="M181.34,716.4c-5.63-0.43-9.07-8-2.54-10.59C186.39,702.8,189.48,716.45,181.34,716.4z M184.13,711.08
		c-0.08-5.05-7.26-5.32-7.01-0.17C177.34,715.22,184.2,715.83,184.13,711.08z"/>
	<path class="st0" d="M209.98,726.38c-0.05,8.41-12.36,7.09-11.47-0.5C199.35,718.69,210.02,718.28,209.98,726.38z M208.1,726.12
		c-0.05-5.9-7.55-4.62-8.03,0.1C199.55,731.43,208.15,732.36,208.1,726.12z"/>
	<path class="st0" d="M239.14,680.43c-7.14-0.07-6.16-10.05-0.36-11.12C247.48,667.72,247.38,680.51,239.14,680.43z M238.52,678.71
		c5.91-0.01,7.26-9.04,1.03-8.13C236.01,671.09,233.84,679.4,238.52,678.71z"/>
	<path class="st0" d="M96.42,634.28c7.17-0.08,4.99,10.16-0.52,11.16C89.08,646.67,88.47,634.37,96.42,634.28z M92.37,639.57
		c-0.09,5.49,6.04,5.13,6.79,0.05C99.91,634.54,92.44,635.36,92.37,639.57z"/>
	<path class="st0" d="M94.62,613.96c-7.95-2.5-4.84-14.13,3.4-11.32C105.33,605.13,100.81,614.07,94.62,613.96z M95.85,603.75
		c-6.08,1.17-5.24,9.01-0.09,8.43C100.97,611.6,101.81,604.13,95.85,603.75z"/>
	<path class="st0" d="M177.21,563.04c-0.05,6.53-11.1,9.15-11.52,1.07C165.37,557.89,177.27,555.5,177.21,563.04z M171.72,559.92
		c-4.22-0.44-6.09,6.57-1.43,7.6C174.4,568.45,177.67,561.15,171.72,559.92z"/>
	<path class="st0" d="M239.31,568.81c2.16,0.02,5.79,2.83,5.57,5.21c-0.25,2.76-6,5.18-8.28,4.95
		C229.41,578.24,232.87,568.77,239.31,568.81z M234.3,574.27c-0.11,5.46,8.68,1.51,8.22-1.1
		C241.73,568.71,234.38,569.98,234.3,574.27z"/>
	<path class="st0" d="M224.98,590.52c0.38-7.28,11.58-5.62,11.31,0.44C235.97,598.08,224.58,598.23,224.98,590.52z M230.25,587.25
		c-5.19-0.13-4.13,8.07,0.75,7.17C235.64,593.57,235.08,587.36,230.25,587.25z"/>
	<path class="st0" d="M249.93,597.89c-6.58-0.14-7.15-10.99-0.26-11.2C256.97,586.47,256.51,598.03,249.93,597.89z M250.1,588.33
		c-4.59-0.05-4.05,8.74,0.5,7.38C254.03,594.69,254.11,588.37,250.1,588.33z"/>
	<path class="st0" d="M175.7,676.9c0.2-7.28,10.24-5.7,9.93,0.72C185.29,684.47,175.52,683.59,175.7,676.9z M180.11,674.19
		c-3.56-0.58-3.02,5.94,0.3,6.22C184.62,680.78,184.55,673.98,180.11,674.19z"/>
	<path class="st0" d="M193.63,647.82c-8.16,0.05-5.53-10.92,1.67-9.94C202.73,638.9,200.57,647.78,193.63,647.82z M193.61,646.03
		c5.78-0.09,5.84-7.26,0.58-6.83C190.17,639.52,188.48,646.61,193.61,646.03z"/>
	<path class="st0" d="M151.27,697.04c-0.14-7.04,10.12-7.61,11.14-0.74C163.58,704.09,151.43,704.76,151.27,697.04z M160.64,697.21
		c0.18-4.77-5.54-5.74-7.32-1.55C151.09,700.89,160.41,703.32,160.64,697.21z"/>
	<path class="st0" d="M193.81,658.86c7.46-0.39,7.03,10.15,0.47,10.74C186.89,670.26,186.3,659.25,193.81,658.86z M193.65,660.12
		c-4.66,0.02-4.92,8.18,0.36,7.64C198.64,667.28,198.83,660.1,193.65,660.12z"/>
	<path class="st0" d="M96.1,618.32c4.4-0.02,4.79,3.8,3.97,6.96c-0.8,3.08-1.73,6.83-5.57,5.38
		C87.35,627.96,87.65,618.32,96.1,618.32z M98.92,623.01c0.34-5.61-8.63-2.96-8.66,0.96c-0.01,1.45,4.06,5.96,5.71,5.67
		C97.4,629.39,98.73,624.42,98.92,623.01z"/>
	<path class="st0" d="M102.66,722.34c-0.09,7.45-9.2,8.49-9.49,0.31c-0.05-1.47-0.51-1.29,0.18-2.6c0.3-0.58,3.25-2.24,3.61-2.36
		C101.65,716.05,101.22,719.31,102.66,722.34z M100.79,722.64c0.03-2.77-1.41-4.29-4.02-3.11c-3.18,1.44-1.37,1.36-1.42,3.4
		C95.22,728.88,99.31,726.76,100.79,722.64z"/>
	<path class="st0" d="M222.24,518.69c0.06-6.42,12.69-6.05,11.22,1.32C232.18,526.43,222.17,525.57,222.24,518.69z M224.18,518.55
		c-0.1,4.47,6.18,5.88,7.26,1.32C232.55,515.18,224.27,514.18,224.18,518.55z"/>
	<path class="st0" d="M216.87,735.56c0.09-7.12,9.74-7.04,10.93-0.2C229.08,742.7,216.77,743.22,216.87,735.56z M226.17,736.51
		c0-5.17-6.33-6.9-7.26-1.23C218.09,740.26,226.18,740.85,226.17,736.51z"/>
	<path class="st0" d="M212.39,598.4c-7.45,0.01-6.34-11.44,1.42-10.61C221.16,588.58,218.79,598.39,212.39,598.4z M216.87,591.9
		c-0.05-5.11-8.52-2.5-7.9,1.75C209.71,598.65,216.91,596.07,216.87,591.9z"/>
	<path class="st0" d="M133.96,518.6c3.19,0.18,19.57,4.57,16.05,9.71C145.6,534.76,136.36,520.92,133.96,518.6z M139.98,522.09
		c0.97,1.7,5.26,8.69,8.31,5.92C151.71,524.91,141.49,522.54,139.98,522.09z"/>
	<path class="st0" d="M139.57,735.81c8.13,0.06,5.8,13.03-1.49,11.33C131.97,745.72,132.97,735.77,139.57,735.81z M143.03,741.24
		c-0.04-5.33-8.16-4.72-7.25,0.73C136.62,746.96,143.06,745.84,143.03,741.24z"/>
	<path class="st0" d="M125.77,748.24c5.9,4.79-2.93,13.85-8.24,8.84C112.85,752.66,120.21,743.72,125.77,748.24z M124.91,754.86
		c3.23-4.1-2.56-8.67-5.78-4.52C115.68,754.81,121.57,759.09,124.91,754.86z"/>
	<path class="st0" d="M67.33,672.01c-0.06,6.9-11.9,2.56-9.17-3.24c0.91-1.94,3.97-3.72,6.1-2.98
		C66.77,666.67,67.14,669.72,67.33,672.01z M65,669.7c0.61-3.81-4.94-2.64-5.41,0.21C58.88,674.17,64.69,673.45,65,669.7z"/>
	<path class="st0" d="M154.43,502.24c4.79-3.83,16.19,3.48,13.84,9.74c-1.45,3.87-5.14,0.02-6.66-2.17
		C159.3,506.46,159.27,503.04,154.43,502.24z M159.26,503.1c2.63,3.21,3,7.79,7.5,9.11C166.52,506.78,164.32,504.02,159.26,503.1z"
		/>
	<path class="st0" d="M218.34,531.64c-0.09,7.18-10.23,7.53-10.64,0.54C207.36,526.3,218.43,524.56,218.34,531.64z M216.49,531.38
		c0.77-3.92-7.12-3.5-6.87,0.7C209.91,536.96,216.4,536.49,216.49,531.38z"/>
	<path class="st0" d="M180.85,592.62c-6.58,0.02-5.52-10.02,0.57-10.79C189.87,580.75,185.52,593.34,180.85,592.62z M181.97,583.15
		c-1.23,0.61-3.49,1.13-4,2.49c-0.38,1,0.43,4.27,1.31,4.8C182.61,592.45,187.18,583.44,181.97,583.15z"/>
	<path class="st0" d="M134.25,731.55c-6.82-0.34-4.42-10.91,1.24-10.88C142.43,720.71,140.36,731.85,134.25,731.55z M134.21,729.78
		c3.55,0.18,5.93-6.52,1.6-7.42C132.2,721.61,129.12,729.02,134.21,729.78z"/>
	<path class="st0" d="M29.58,591.89c-1.34-5.36-1.11-10.83-0.21-16.22c0.16-0.96,1.87-12.8,3.62-12.23
		C33.13,563.48,29.74,589.46,29.58,591.89z"/>
	<path class="st0" d="M215.36,559.78c-6.48,0.19-6.95-12.87,1.06-10.86C222.47,550.44,221.24,559.61,215.36,559.78z M215.36,550.24
		c-4.66-0.07-3.8,8.34,0.27,7.96C219.58,557.84,220.1,550.32,215.36,550.24z"/>
	<path class="st0" d="M186.91,620.13c2.87,0.44,4.9-4.07,8.49-1.44c2.73,2,2.17,5.38,0.34,7.69
		C190.83,632.58,185.39,625.9,186.91,620.13z M192.3,619.62c-5.73,0.08-4.51,8.91-0.08,7.87
		C195.79,626.66,197.08,619.55,192.3,619.62z"/>
	<path class="st0" d="M237.08,554.09c0.06,8.22-11.17,7.75-10.1-0.6C227.76,547.35,237.03,547.71,237.08,554.09z M228.55,554.25
		c-0.05,5.88,6.95,5.73,6.82,0.01C235.25,549.46,228.59,549.11,228.55,554.25z"/>
	<path class="st0" d="M198.59,595.69c-6.66-0.93-5.94-10.79,0.91-10.46c2.84,0.14,5.64,2.04,5.07,5.22
		C204.26,592.11,200.49,595.91,198.59,595.69z M199.52,586.64c-5.29-0.35-5.28,7.96-0.43,7.12
		C202.85,593.12,204.71,586.86,199.52,586.64z"/>
	<path class="st0" d="M90.82,649.01c0.01,2.29-2.07,5.84-4.42,6.46c-3.06,0.81-4.02-1.81-4.84-4.4c-0.95-2.97-0.98-4.15,2.57-5.43
		C87.07,644.57,90.8,645.01,90.82,649.01z M86.63,646.76c-1.73,0.19-4.18,0.68-4.35,2.74c-0.02,0.19,2.43,4.39,2.33,4.35
		C87.35,655.05,91.67,646.76,86.63,646.76z"/>
	<path class="st0" d="M62.58,647.72c3.2,0.53,6.17,0.95,5.44,5.2c-0.37,2.14-2.52,5.46-4.71,5.57
		C57.27,658.79,57.25,648.83,62.58,647.72z M66.35,651.79c-0.22-5.24-8.93-0.66-5.55,3.6C63.16,658.37,66.46,654.52,66.35,651.79z"
		/>
	<path class="st0" d="M130.87,625.69c8.21,0.12,3.81,12.41-2.14,10.41C123,634.17,124.87,625.61,130.87,625.69z M133.88,630.39
		c0.12-4.18-7.95-3.75-6.72,1.02C128.29,635.83,133.76,634.41,133.88,630.39z"/>
	<path class="st0" d="M87.45,552.6c-7.2-0.17-8.9-11.44-0.22-10.56C93.88,542.72,95,552.78,87.45,552.6z M91.13,548.05
		c0.34-4.63-7.7-7.1-8.58-2.03C81.75,550.68,90.73,553.56,91.13,548.05z"/>
	<path class="st0" d="M92.36,673.26c-6.28,0.08-3.25-10.63,2.04-10.16C100.8,663.68,98.2,673.19,92.36,673.26z M92.19,671.42
		c2.85,0.07,6.12-4.26,2.98-6.28C91.38,662.7,88.86,671.83,92.19,671.42z"/>
	<path class="st0" d="M178.21,741.48c-3.89-3.69-7.04-7.53-11.73-10.32c-1.38-0.82-11.92-5.05-11.63-5.93
		C156.11,721.45,182.25,738.15,178.21,741.48z"/>
	<path class="st0" d="M107.4,667.18c-3.92-10.1,11.2-5.17,3.53,1.03c-1.53,1.23-4.36,3.37-6.38,2.44c-0.96-0.44-2.25-1.47-1.95-2.74
		C103.15,665.61,105.97,667.06,107.4,667.18z M108.44,664.6c0.63,2.42,3.5,2.36,2.78-0.48C110.72,662.13,108.22,662.18,108.44,664.6
		z M103.71,668.12"/>
	<path class="st0" d="M134.17,608.94c6.6-0.06,6.17,12.43-1.39,9.42C126.78,615.97,127.59,609,134.17,608.94z M133.48,610.6
		c-4.44,0.21-4.1,5.35-0.09,6.47C138.38,618.46,137.99,610.39,133.48,610.6z"/>
	<path class="st0" d="M70.18,680.29c-0.03-6.44,11.49-5.76,10.09,0.83C78.96,687.24,70.21,686.71,70.18,680.29z M71.86,680.3
		c-0.22,4.38,5.97,4.65,6.57,0.5C79.05,676.51,72.05,676.5,71.86,680.3z"/>
	<path class="st0" d="M95.81,683.56c-1.38-5.42,9.04-5.39,7.98,2.2c-0.3,2.16-2.43,4.92-4.91,4.52
		C95.73,689.77,95.94,685.99,95.81,683.56z M101.97,685.25c-0.67-3.27-3.85-6.59-4.58-1.98C96.65,688,101.77,690.43,101.97,685.25z"
		/>
	<path class="st0" d="M137.59,656c-2.15,7.47-14.11,2.65-10.29-1.16c1.16-1.16,2.1,0.04,3.15-0.54c1.06-0.59,0.92-1.88,2.09-2.31
		C135.49,650.91,136.93,653.95,137.59,656z M132.59,658.79c-0.7-1.02-2-4.87-4.04-3.11C126.12,657.77,131.1,659.29,132.59,658.79z
		 M135.9,655.66c-0.39-1.54-2.11-2.94-2.97-0.84C131.99,657.13,136.05,658.67,135.9,655.66z"/>
	<path class="st0" d="M50.22,679.36c-5.58,0.1-6.67-9.17-0.77-10.12C55.33,668.3,56.74,679.24,50.22,679.36z M53.05,674.33
		c-0.97-1.6-0.29-2.96-2.48-3.38c-1.7-0.33-3.43,1.2-3.59,2.79C46.53,678.06,52.68,678.8,53.05,674.33z"/>
	<path class="st0" d="M79.78,649.95c-0.14,6.63-9.13,6.61-8.99,0.1C70.92,644.06,79.91,643.38,79.78,649.95z M77.96,649.33
		c-0.41-4.56-6.13-2.17-5.42,1.53C73.44,655.57,77.99,653.19,77.96,649.33z"/>
	<path class="st0" d="M179.01,536.13c-2.57-0.36-15.07-5.2-10.93-7.66c2.26-1.34,6.36,1.67,8.29,2.46
		C177.98,531.6,185.01,535.22,179.01,536.13z M168.35,529.64c0.79,1.49,9.39,5.92,10.97,5.13c2.1-1.05-1.92-1.86-2.31-2.04
		C174.67,531.64,171.08,528.83,168.35,529.64z"/>
	<path class="st0" d="M106.13,694.79c5.47,0.16,5.46,9.25,0.73,10.54C101.03,706.93,100.3,694.72,106.13,694.79z M108.74,699.59
		c-0.66-4.45-4.8-4.22-4.92,0.35C103.66,705.31,108.25,704.26,108.74,699.59z"/>
	<path class="st0" d="M111.55,652.24c-0.15,7.3-9.94,8.16-9.03,1C103.09,648.77,111.69,645.91,111.55,652.24z M109.85,652.77
		c-0.12-4.25-4.69-2.43-5.39,0.43C103.32,657.86,108.99,657.27,109.85,652.77z"/>
	<path class="st0" d="M83.28,579.48c-3.5-0.21-11.01-7.84-5.57-8.81C81.36,570.02,88.59,579.8,83.28,579.48z M83.73,577.47
		c-1.32-2.61-3.51-3.2-5.67-4.57C79.2,576.48,79.47,576.7,83.73,577.47z"/>
	<path class="st0" d="M60.04,691.04c-0.07,5.86-10.15,5.51-8.64-0.43C52.57,686.03,60.12,684.98,60.04,691.04z M58.1,690.75
		c-1.01-1.82-3.55-3.77-4.61,0.14C52.5,694.53,57.83,694.16,58.1,690.75z"/>
	<path class="st0" d="M69.42,685.02c0.04,6.6-10.16,5.86-9.64,0.17C60.28,679.82,69.38,677.89,69.42,685.02z M64.24,688.13
		c3.73,0.13,5.53-5.85,1.5-6.37C62.24,681.3,59.54,688.1,64.24,688.13z"/>
	<path class="st0" d="M46.81,654.55c-0.01-6.39,9.33-6.99,8.88,0.01C55.31,660.39,46.82,661,46.81,654.55z M48.54,654.7
		c-0.18,4.45,5.15,3.58,5.44-0.29C54.36,649.57,48.59,650.18,48.54,654.7z"/>
	<path class="st0" d="M193.46,471.75c0.02-5.67,8.74-7.07,9.11-0.87C202.93,476.9,193.43,478.86,193.46,471.75z M200.93,470.7
		c-0.11-4.42-6.14-2.27-6.05,1.21C194.98,476.61,201.02,474.72,200.93,470.7z"/>
	<path class="st0" d="M92.62,520.06c2.64,0,6.98-0.35,6.8,3.65c-0.06,1.32-0.37,2.26-1.8,2.79c-2.64,0.97-1.46-0.6-3.17-1.52
		c-1.1-0.6-0.89-0.87-2.31-1.29c-1.03-0.3-1.73,1.34-2.86-0.19C87.17,520.62,92.62,520.3,92.62,520.06z M93.85,521.55
		c0.32,0.26,3.26,5.3,3.86,2.75C98.24,522.07,95.61,521.02,93.85,521.55z"/>
	<path class="st0" d="M247.07,524.15c0.18-2.02-3.42-2.35-2.53-5.67c0.9-3.34,4.5-3.88,7.04-1.85
		C256.27,520.38,250.6,523.74,247.07,524.15z M248.64,517.12c-4.26,0.12-2.51,6.41,1.19,5.1
		C253.41,520.95,251.01,517.79,248.64,517.12z"/>
	<path class="st0" d="M117.92,549.35c-2.83-0.3-5.98-0.5-7.76-3.13c-1.52-2.25-0.98-4.89,2.11-4.29
		C114.07,542.27,120.7,549.68,117.92,549.35z M114.7,546.65c-1.6-1.18-1.39-2.73-3.84-2.91
		C111.47,544.93,113.08,547.01,114.7,546.65z"/>
	<path class="st0" d="M78.2,669.24c-0.23,5.32-7.59,5.82-8.23,0.44C69.26,663.79,78.5,662.34,78.2,669.24z M76.49,668.91
		c-0.78-3.61-4.95-3.66-4.89,0.25C71.66,672.95,76.39,672.64,76.49,668.91z"/>
	<path class="st0" d="M140.35,637.37c-6.45,0.52-2.4-8.57,2.68-7.9C148.7,630.21,144.98,637.38,140.35,637.37z M140.53,635.94
		c3.03,0.06,5.41-4.68,1.57-4.93C139.81,630.86,136.54,636.06,140.53,635.94z"/>
	<path class="st0" d="M140,645.88c0.4-1.83,1.7-3,3.48-3.47c0.57,1.65-3.27,3.28-1.72,5.14c2.73,3.28,2.3-4.09,2.47-4.3
		c1.27-1.59,1.48,0.41,1.63,1.88c0.27,2.64-0.67,3.68-2.72,4.34c-1.72,0.55-6.45,0.12-6.9-1.76c-0.29-1.24,2.28-4.73,3.32-3.27
		c0.82,1.15-2.65,1.59-1.68,3.22C139.65,650.66,140.02,645.84,140,645.88z"/>
	<path class="st0" d="M331.99,592.99c3.75,0.49,5.81,21.95,3.22,22.81c-2.05,0.68-0.66-5.95-0.68-7.31
		C334.46,603.23,333.44,598.02,331.99,592.99z"/>
	<path class="st0" d="M44.71,540.07c3.11,0.82,3.24,4.83,0.1,3.5c-1.03-0.44-0.69-1.44-1.3-1.99c-0.45-0.41-1.7-1.36-2.11-1.85
		C36.41,533.63,49.97,533.44,44.71,540.07z M44.48,537.06c-0.16-1.43-2.77-0.88-2.88,0.38C41.43,539.2,44.28,538.76,44.48,537.06z"
		/>
	<path class="st0" d="M133.3,599.89c-5.37-0.06-5.43-7.15-0.3-7.38C138.01,592.28,138.82,599.96,133.3,599.89z M133.27,598.28
		c2.81-0.3,3.17-3.93,0.22-4.13C130.09,593.93,130.46,597.49,133.27,598.28z"/>
	<path class="st0" d="M84.44,680.1c-0.17-4.1,6.49-7.3,7.68-2.4C93.36,682.83,84.67,685.64,84.44,680.1z M90.49,678.3
		c0.4-2.9-4.05-1.59-4.2,0.95C86.06,683.05,90.51,681.83,90.49,678.3z"/>
	<path class="st0" d="M118.86,653.78c-0.8,4.97-7.9,6.16-6.19,0.04C113.87,649.52,117.93,649.15,118.86,653.78z M116.99,653.74
		c-0.27-3.26-3.23-0.69-2.97,1.3C114.35,657.52,116.77,656.07,116.99,653.74z"/>
	<path class="st0" d="M122.03,610.87c-4.76-0.13-2.8-8.09,1.19-7.91C127.96,603.17,127.19,611.01,122.03,610.87z M122.06,609.19
		c1.77-0.53,4.73-3.68,0.98-4.26C120.74,604.58,119.42,608.79,122.06,609.19z"/>
	<path class="st0" d="M112.34,605.6c-5.02-0.11-5.1-6.96-0.12-7.01C116.74,598.54,117.37,605.71,112.34,605.6z M114.54,602.26
		c-0.72-2.31-4.58-3.36-4.52-0.15C110.07,604.86,113.93,604.7,114.54,602.26z"/>
	<path class="st0" d="M150.95,751.98c-0.11,3.62-5.45,5.97-7.01,1.96C142.3,749.69,150.47,747.27,150.95,751.98z M149.26,752.08
		c-0.47-2.02-3.65-1.47-3.78,0.48C145.29,755.37,148.67,753.78,149.26,752.08z"/>
	<path class="st0" d="M172.44,702.55c-2.43-0.79-5.01-2.07-6.39-4.33c-0.64-1.04-1.74-7.48,0.75-6.88c1.87,0.45,0,3.17,0.44,4.74
		C167.84,698.29,171.05,700.9,172.44,702.55z"/>
	<path class="st0" d="M131.09,504.37c2.01-1.93,4.9-3.03,7.62-2.14c1.32,0.43,5.51,3.5,4.55,5.39c-1.04,2.04-2.29-1.57-3.07-2.3
		C136.82,502.18,134.59,505.79,131.09,504.37z"/>
	<path class="st0" d="M128.99,510.74c0.79-3.66,5.87-1.78,6.27,1.48C135.78,516.6,129.01,515.31,128.99,510.74z M130.47,510.88"/>
	<path class="st0" d="M37.48,543.96c1.07-3.59,5.7-2.56,5.26,1.09C42.31,548.73,37.31,547.24,37.48,543.96z"/>
	<path class="st0" d="M244.2,744.11c-5.46,2-10.23-5.01-15.15-2.06c1.78-3.76,5.19-1.76,8.16-0.58
		C238.94,742.17,243.24,742.88,244.2,744.11z"/>
	<path class="st0" d="M148.63,491.56c2.01-0.42,9.33,1.69,6.83,5C152.22,500.86,149.72,492.72,148.63,491.56z M154.3,495.57
		c-1.06-1.28-1.85-2.02-3.27-2.25C151.48,495.01,152.28,495.75,154.3,495.57z"/>
	<path class="st0" d="M143.63,625.95c-3.58,0.02-4.6-4.98-0.58-5.42C147.54,620.04,147.97,625.93,143.63,625.95z M141.53,622.42"/>
	<path class="st0" d="M187.01,489.85c-0.69-1.87,8.04-11.54,9.85-10.07C197.67,480.44,188.45,488.58,187.01,489.85z"/>
	<path class="st0" d="M173.02,711.43c-2.69-2.52-5.96-2.91-9.36-3.76c-0.14-0.04-6.95-2.32-4.14-2.79c0.93-0.16,5.3,1.62,6.51,1.9
		C168.94,707.44,171.67,708.56,173.02,711.43z"/>
	<path class="st0" d="M116.35,508.93c2.33-1.13,4.62-2.66,7.22-1.53c1.53,0.67,3.98,3.58,2.02,5.11c-1.53,1.2-1.71-2.58-2.51-3.23
		C121.15,507.71,118.43,509.79,116.35,508.93z"/>
	<path class="st0" d="M169.76,492.2c-3.18,0.08-4.73-4.65-0.79-4.74C172.24,487.39,173.85,492.15,169.76,492.2z"/>
	<path class="st0" d="M142.6,496.36c2.2,1.45,4.63-0.76,6.65,1.9c1.34,1.77,1.27,5.72-1.82,5.61c1.66-3.62-0.09-7.49-5.05-5.72
		C142.21,497.95,142.6,496.36,142.6,496.36z"/>
	<path class="st0" d="M195.34,742.36c2.29-0.79,2.89,3.76,4.04,5.15c1.61,1.94,4.08,3.05,6.41,3.85
		C198.47,752.09,198.66,746.56,195.34,742.36z"/>
	<path class="st0" d="M123.73,519.5c-1.48,0.24-9.36-1.61-6.48-4.05C119.93,513.2,122.95,517.77,123.73,519.5z"/>
	<path class="st0" d="M103.54,517.09c-0.76,1.54,0.43,5.17,1.72,3.12c0.33-0.53-3.33-3.02-0.2-2.44c3.53,0.66,2.06,4.81-1.09,4.38
		C100.47,521.68,100.76,518.26,103.54,517.09z"/>
	<path class="st0" d="M182.78,720.62c-1.37,0.35-13.57-0.76-11.02-3.98C172.08,716.24,181.24,720.3,182.78,720.62z"/>
	<path class="st0" d="M114.8,508.03c-2.87-0.3-3.06-5.33,0.17-5.1C118.11,503.14,117.43,507.38,114.8,508.03z"/>
	<path class="st0" d="M199.96,490.94c0.18-1.09-0.87-13.41,0.99-12.93C202.45,478.41,201.93,489.84,199.96,490.94z"/>
	<path class="st0" d="M196.39,721.4c-1.87,1.89-11.36,1.52-9.97-2.35c0.59-1.65,1.91,0.77,2.75,1.17
		C191.37,721.26,194.02,721.15,196.39,721.4z"/>
	<path class="st0" d="M216.86,740c-2.13,0.58-3.11-0.2-4.3-1.76c-0.54-0.71-3.21-5.76-2.91-6.36
		C210.34,730.5,215.53,739.33,216.86,740z"/>
	<path class="st0" d="M222.75,619.76c4.07,1,6.25,6.55,3.67,10.54c-0.21-2.32-0.31-4.7-1.41-6.81
		C224.3,622.13,223.03,621.1,222.75,619.76z"/>
	<path class="st0" d="M82.06,505.47c2.94,0.06,4.29,4.48,0.65,3.98C80.37,509.13,79.57,506.06,82.06,505.47z"/>
	<path class="st0" d="M105.32,485.18c0.03,3.13-4.48,1.77-4.23-0.6C101.4,481.82,105.26,482.47,105.32,485.18z"/>
	<path class="st0" d="M171.87,482.43c0.59-1.23-0.33-1.03,0.86-1.82c0.76-0.51,3.34,0.07,3.63,0.99c1.3,4.16-3.73,0.86-4.54,0.78
		L171.87,482.43z"/>
	<path class="st0" d="M87.73,512.93c-0.6,3.76-5.63,2.59-4.83-0.92C84.39,512.78,86.39,511.9,87.73,512.93z"/>
	<path class="st0" d="M171.82,482.39c-0.71,0.27-0.19,1.78-0.73,2.28c-1.27,1.17-3.24,0.46-3.35-1.27
		C167.56,480.66,170.72,481.28,171.82,482.39z"/>
	<path class="st0" d="M31.48,641.25c-1.64-3.05-0.52-6.48-2.88-9.22C31.41,633.02,32.5,636.79,31.48,641.25z"/>
	<path class="st0" d="M42.86,651.83c-0.71-0.6-8.69-4.43-7.71-5.53C36.05,645.28,42.8,650.25,42.86,651.83z"/>
	<path class="st0" d="M133.26,708.76c1.46-1.78,3.51-0.95,8.28,3.24C138.44,711.33,136.44,708.64,133.26,708.76z"/>
	<path class="st0" d="M240.09,515.98c-1.55-1.18-3.82-4.59-3.19-6.83c1.89,1.96,3,4.4,4.04,6.87
		C240.71,516.29,240.42,516.28,240.09,515.98z"/>
	<path class="st0" d="M193.4,740.13c-1.85-2.21-4.29-3.46-7.59-4.37C189.72,735.27,192.74,737.12,193.4,740.13z"/>
	<path class="st0" d="M38.19,659.09c-3.41-0.8-5.08-2.69-5.11-5.7C34.72,655.41,35.76,657.49,38.19,659.09z"/>
	<path class="st0" d="M107.11,484.89c1.01,0.32,4.98,4.09,3.65,3.88C109.82,488.62,107.73,485.93,107.11,484.89z"/>
	<path class="st0" d="M178.55,741.22c0.37,0.08,0.51,0.29,0.43,0.63C178.73,742.12,177.86,741.69,178.55,741.22z"/>
	<path class="st0" d="M213.58,483.74"/>
	<path class="st0" d="M155.09,670.73c-0.81-0.46-3.37-2.84-1.77-3.82C154.41,666.23,154.93,670.05,155.09,670.73z"/>
	<path class="st0" d="M122.06,679.84c-1.62-1.27-3.41-2.9-3.83-5.02c-0.32-1.62-0.24-4.02,1.13-2.28c0.45,0.57,1.21,3.85,1.67,4.85
		C121.61,678.62,122.5,678.58,122.06,679.84z"/>
	<path class="st0" d="M122.07,679.89"/>
	<path class="st0" d="M86.71,549.75c-2.52-0.79-2.57-4.51,0.13-4.87C90.87,544.35,89.45,548.81,86.71,549.75z"/>
	<path class="st0" d="M314.14,702.32c-5.08-2.77-10.84-2.61-15.76-5.11c-2.05-1.04-3.28-2.52-5.65-2.99
		c-2.09-0.41-3.44-0.02-5.36-1.23c-4.04-2.56-6.22-5.51-11.58-5.28c-2.1,0.09-4.3,1.6-6.3,1.46c-2.27-0.17-3.97-2.47-6.14-3.09
		c1.11-1.38,1.96-2.81,1.59-4.66c4.74,5.23,13.89-0.77,9.01-6.08c-1.38-1.5-4.67-2.59-6.55-1.42c-2.59,1.62-0.78,5.09-2.45,6.81
		c-2.06-0.66-1.04-2.51-3.83-1.38c-1.91,0.78-2.62,3.32-2.63,5.16c-2.99-0.67-10.1-1.37-8.05-5.02c1.51-2.69,0.97-0.92,3.56,0.05
		c1.66,0.63,3.46,0.61,5.05-0.2c4.42-2.25,4.17-7.58,0.06-9.93c-0.71-0.41-4.88-0.93-4.49-1.89c0.51-1.24,3.24,0.5,4.36,0.4
		c4.03-0.36,7.08-5.46,4.23-8.71c-1.12-1.27-2.96-0.93-3-2.56c-0.06-2.16,1.52-2.07,2.76-2.77c2.69-1.51,7.44-2.74,7.2-7.13
		c-0.18-3.3-4.06-5.43-7.01-5.19c0.71-1.66,2.12-6.31,0.24-7.71c3.97-0.3,8.46-2.71,9.52-6.88c0.43-1.71,0.32-3.33-0.94-4.66
		c-1.39-1.46-4.09-0.5-5.14-1.53c-1.11-1.09-1.1-10.11,0.21-10.8c3.13-1.65,1.4,8.14,1.76,9.4c1.88-2.43,0.22-5.54,1.37-7.58
		c0.83-1.47,2.01-1.11,3.78-1.83c4.34-1.77,5.87-6.84,1.48-9.93c-2.04-1.44-4.11-0.11-6.05-1c-2-0.92-1.29-1.83-1.27-3.97
		c0.01-0.8-0.58-4.45,0.81-4.41c0.99,0.02,0.7,5.69,1.14,6.57c0.36-1.37,0.23-4.62,0.59-5.51c-0.74-0.97-0.31-1.48,1.3-1.55
		c0.9-0.46,1.67-1.09,2.32-1.86c1.6-2.23,1.22-5.92-0.96-7.74c-3.78-3.16-5.2,1.6-5.8-4.39c-0.38-3.79-0.03-8.36-0.91-11.94
		c-0.84-3.42-3.42-6.71-4.67-10.06c-0.95-2.54-0.95-1.07-0.91-3.27c0.03-1.9,1.22-3.06,0.35-5.07c-1.57-3.67-5.08-1.65-6.96-3.68
		c-0.48-0.51,0.32-2.03,0.11-2.81c-0.43-1.56-1.52-3.02-1.61-4.65c3.21,0.86,7.15,1.06,9.19-2.12c1.45-2.25,1.28-5.33-1.04-6.81
		c-5.15-3.28-9.51,2.19-9.95,6.75c-0.51-0.93-4.72-8.01-4.23-8.31c-3.38,1.03,7.05,14.1,6.98,16.63c-1.79-0.39-3.66-5.68-4.53-7.24
		c-1.78-3.19-3.75-6.25-5.59-9.41c-1.68-2.88-3.29-5.81-4.96-8.67c-0.89-1.52-3.2-3.98-2.97-5.77c0.21-1.65,4.59-2.74,0.91-5.24
		c-2.85-1.94-3.23,1.45-5.25-2.17c-1.8-3.22-0.23-14.23-7.23-8.45c-2.11,1.74-2.78,4.32-4.22,6.52c-1.66,2.53-3.97,4.54-6.19,6.56
		c-1.98,1.81-4.12,3.49-5.46,5.87c-1.45,2.57-1.67,5.38-3.79,7.6c-1.81,1.9-4.11,2.34-6.11,3.84c-2.23,1.68-1.82,3.38-3.33,5.43
		c-1.24,1.7-3.38,2.33-4.77,3.89c-1.86,2.08-2.49,4.47-4.47,6.49c-9.75,9.9-22.23,17.1-29.18,29.64
		c-7.63,13.78-5.65,28.03-5.94,43.06c-0.12,6.26,0.34,12.9-1.64,18.74c-1.77,5.22,2.22,9.02-0.01,14.43
		c-1.5,3.65-1.79,3.74-0.24,7.67c0.94,2.38,1.01,4.46,0.89,7.1c-0.19,4.06-4.79,12.52,1.52,14.29c4.45,1.25,11.76-5.86,7.59-9.81
		c-2-1.9-6.15-0.77-7.54-2.18c-0.14-0.14-0.02-4.42,0.05-4.73c0.74-3.3,0.09-1.76,2.48-2.95c2.55-1.26,5.24-1.53,5.63-5.12
		c0.25-2.29-1.16-4.56-3.23-5.46c-2.32-1.02-5.19,0.63-4.61-2.96c0.4-2.44,3.92-1.7,6.13-3.33c2.72,4.63,9.31,6.83,11.36,0.22
		c1.96-6.31-4.96-9.58-9.67-5.93c-1.29-3.58-3.16-2.65-5.73-4.05c-1.43-0.78-0.66,0.45-1.74-0.96c-0.74-0.96,0.01-5.55,0.01-6.65
		c4.36,2.35,11.45,2.8,11.56-4.03c0.11-6.54-6.6-6.64-10.97-4.38c-0.69-2.69-0.35-5.49-0.56-8.22c2.45,1.73,3.91,2.72,6.76,1.18
		c2.36-1.28,3.62-3.47,3.04-6.17c-1.23-5.67-6.14-4.24-10.06-2.49c-0.47-4.01,0.48-9.98,1.84-13.78c1.86-5.22,4.16-8.78,7.19-13.22
		c1.42-2.09,1.37-4.4,2.4-6.5c1.22-2.46,4.04-4.68,5.99-6.57c2.38-2.32,4.89-4.44,7.44-6.57c1.63-1.36,3.72-4.37,5.81-5
		c1.04,5.82,6.56,8.7,10.5,3.42c3.52-4.72-0.85-7.29-5.23-8.38c8.14-6.14,15.38-13.23,21.99-20.99c6.2-7.28,12.48-14.64,15.94-23.69
		c5.95,11.24,12.58,22.09,18.97,33.08c-3.7,0.32-9.64,2.22-6.71,7.37c2.55,4.47,7.98,2.14,10.52-0.76c1.61,2.72,4.36,5.76,4.03,8.74
		c-0.36,3.18-3.93,6.43,1.11,8.79c1.44,0.67,2.89-0.21,4.09,0.21c2.41,0.84,0.57,0.09,2.24,2.45c1.75,2.48,3.66,5.31,3.7,8.44
		c-4.31-2.93-10.8-1.35-9.89,4.85c1.03,7.01,7.31,4.27,10.57,0.54c0.45,3.19,2.44,7.05,2.06,10.26c-0.33,2.83-2.1,4.53-1.4,7.65
		c0.74,3.29,1.56,5.73,1.46,9.31c-0.09,3.27-0.92,6.21-0.96,9.48c-0.05,3.66-0.54,7.22-0.99,10.84c-0.44,3.59-1.59,3.94-3.07,6.82
		c-1.21,2.35-0.02,4.78,0.18,7.18c0.28,3.25-0.39,7.04-1.27,10.17c-0.72,2.57-1.82,4.6-2.22,7.25c-0.49,3.25-0.69,5.96-2.29,8.94
		c-1.6,2.97-2.28,3.63-2.42,6.96c-0.14,3.37-0.78,5.36-2.37,8.41c-0.72,1.38-1.73,2.7-2.2,4.2c-0.35,1.13-0.04,3.57-0.59,4.31
		c-1.46,1.98-4.51,0.27-7.07,0.34c-3.59,0.09-7.05,0.76-10.66,0.74c-2.31-0.01-6.85,0.85-8.91-0.47c2.8-0.87,7.67-1.82,9.61-4.15
		c2.25-2.69,1.32-7.13-1.66-8.85c-3.55-2.05-6.35,0.63-8.84,3.05c-3.4,3.3-5.41,4.86-1.95,9.1c-7.36-1.6-14.67,0.99-22.05,0.38
		c0.61-2.94,5.1-3.33,3.93-7.47c-0.79-2.8-2.91-3.4-5.45-3.34c-7.1,0.19-9,5.61-3.69,10.44c-3.93,0.04-6.65,1.52-10.26,2.44
		c-0.59,0.15-8.48,0.96-5.37,2.83c-0.15-0.09,6.26-1.55,6.53-1.6c3.15-0.6,6.14-2.02,9.39-2.12c4.16-0.13,8.03,0.97,12.27,0.53
		c4.09-0.42,8.21-1.25,12.32-0.58c3.98,0.65,7.46,1.92,11.56,1.93c4.09,0.01,8.17-1.12,12.2-1.11c6.42,0.02,12.72,1.48,18.81,3.6
		c2.97,1.04,6.84,4.12,9.79,4.56c2.66,0.4,5.27-1.76,8.1-1.67c2.87,0.09,5.01,1.06,7.25,2.75c3.58,2.7,5.11,2.52,9.15,3.81
		c3.52,1.12,5.66,3.31,9.51,4.01c3.89,0.71,7.55,2.39,11.44,3.01C314.18,703,314.16,702.66,314.14,702.32z M261.87,684.49
		c-2.53,0.27-0.9-4.18,0.75-3.77C264.13,681.1,263.38,684.33,261.87,684.49z M267.23,679.2c1.07-1.23-0.27-2.8,1.56-3.7
		c1.72-0.84,4.48,1.17,4.51,3C273.34,682.13,266.16,683.93,267.23,679.2z M253.02,674.88c-0.03-5.68,7.35-5.67,7.4-0.63
		C260.46,678.3,252.83,680.62,253.02,674.88z M258.52,658.98c4.31,0.44,5.23,5.99,0.68,6.91C253.73,667,254.66,658.59,258.52,658.98
		z M257.8,657.23 M260.22,648.5c0.44-2.34,1.03-4.36,3.7-4.75c2.53-0.38,4.55,1.48,3.9,4.1
		C266.87,651.64,260.21,654.37,260.22,648.5z M263.17,624.68c2.92-5.29,11.62,0.1,4.85,5.47
		C263.66,633.6,260.9,628.79,263.17,624.68z M266.65,585.09c-0.19-4.58,7.94-5.16,6.31,0.54
		C271.92,589.29,266.82,589.15,266.65,585.09z M272.07,600.8c6.42,0.05,3.6,10.05-2.47,7.57
		C265.14,606.54,267.87,600.76,272.07,600.8z M260.18,547.74c0.17,4.79-8.26,5.56-7.53-0.12
		C253.24,543.1,260.03,543.49,260.18,547.74z M253.03,530.59c0.04-4.22,8.4-5.97,7.99-0.82
		C260.67,533.98,252.98,535.6,253.03,530.59z M247.05,533.45c0.28,4.04-7.38,5.19-7.74,0.51
		C238.96,529.49,246.77,529.42,247.05,533.45z M234.97,508.06c-1.81-0.08-1.41-2.56-0.03-2.89
		C236.39,504.82,237.53,508.18,234.97,508.06z M229.34,499.08c-1.6-1.37-1.63-4.01-4.26-4.37
		C228.77,492.5,229.82,495.65,229.34,499.08z M219.55,504.6c-3.84,4.88-7.68,9.76-11.75,14.94
		C208.04,516.51,216.73,502.4,219.55,504.6z M202.75,524.09c-1.41,2.41-3.54,4.12-5.78,6.25
		C196.88,525.78,200.35,525.49,202.75,524.09z M188.12,542.05c5.95,0.01,5.27,7.64,0.28,8.06
		C183.92,550.49,182.91,542.04,188.12,542.05z M149.24,649.98c-0.06-5.17,9.37-5.3,8.25,0.51
		C156.68,654.67,149.3,654.73,149.24,649.98z M153.17,665.01c6.71-0.02,6.15,7.76,0.2,8.3C148.1,673.78,148.41,665.02,153.17,665.01
		z M149.78,634.59c0.2-5.55,8.95-5.81,8.42-0.07C157.76,639.22,149.59,639.91,149.78,634.59z M159.69,637.08
		c0.01-5.36,6.92-6.26,7.7-0.9C168.24,641.97,159.67,642.9,159.69,637.08z M153.13,617.22c-0.02-5.46,8.52-5.54,8.59-0.16
		C161.79,622.37,153.15,622.71,153.13,617.22z M153.22,600.14c0.21-5.62,8.59-3.3,6.69,1.93
		C158.09,607.1,153.04,604.76,153.22,600.14z M262.71,567.5c0.04,3.67-6.63,6.27-7.44,1.14
		C254.45,563.44,262.66,562.93,262.71,567.5z M223.64,679.45c-1.8,2.2-6.92-1.14-4.51-3.99C221.7,672.4,224.02,678.97,223.64,679.45
		z M223.13,673.76c-0.13-4.79,7.49-5.12,7.4-0.11C230.44,678.94,223.29,679.51,223.13,673.76z M194.18,679.82
		c-1.86,0.07-4.88-2.69-4.49-4.7c0.4-2.1,2.55-2.52,4.44-2.74C200.93,671.6,199.05,679.64,194.18,679.82z"/>
</g>
</svg>
