<?xml version="1.0" encoding="utf-8"?>
<!-- Generator: Adobe Illustrator 23.0.6, SVG Export Plug-In . SVG Version: 6.00 Build 0)  -->
<svg version="1.1" id="Layer_1" xmlns="http://www.w3.org/2000/svg" xmlns:xlink="http://www.w3.org/1999/xlink" x="0px" y="0px"
	 viewBox="0 0 903.2 999.6" style="enable-background:new 0 0 903.2 999.6;" xml:space="preserve">
<style type="text/css">
	.st0{fill:#FBBB0E;}
</style>
<g id="Capa_11">
	<path class="st0" d="M769.7,750.8c-1.8,2.5-3.6,4.9-5.4,7.4c1.5-2,0,0-0.4,0.5c-0.5,0.6-1,1.2-1.4,1.8c-1,1.2-2,2.5-3.1,3.7
		c-3.9,4.6-7.9,9-12.2,13.2c-4.3,4.3-8.8,8.4-13.4,12.3c-2.3,1.9-4.6,3.8-7,5.7c1.9-1.5,0,0-0.5,0.3c-0.7,0.5-1.3,1-2,1.5
		c-1.2,0.9-2.5,1.8-3.7,2.7c-5.6,3.9-11.3,7.6-17.3,11l11.3,6.5c-0.3-5.5-3.7-9.5-8.9-11.3c-4-1.4-8.8-0.7-12.3,1.3
		c-1.8,1-3.5,2.5-4.9,4c-0.6,0.7-1.2,1.4-1.7,2.1s-1.1,1.4-1.6,2.1c-1.2,1.6,0.8-1,0,0c-1,1.3-2.1,2.5-3.4,3.6
		c-1,0.9,1.6-1.1,0.2-0.2c-0.4,0.2-0.7,0.5-1.1,0.7c-0.8,0.4-1.5,0.8-2.3,1.2l1.8-0.8c-2.1,0.9-4.3,1.5-6.6,1.8l2-0.3
		c-2.8,0.3-5.6,0.3-8.5-0.1l2,0.3c-7.6-1.1-14.6-4.3-21.7-7.1s-13.8-4.1-21-3c-4.1,0.7-8.2,2.8-11,6c-3.4,3.8-2.6,8.9,1.5,11.8
		c4.5,3.1,10.8,4,16,2.1l-9.2-9.2c-0.4,2.4-0.5,4.8,0.3,7.1c0.6,1.7,1.4,3.3,2.5,4.8s2.3,3,3.5,4.4c0.8,1-1.1-1.6-0.4-0.5
		c0.2,0.3,0.4,0.5,0.5,0.8c0.4,0.6,0.8,1.3,1,1.9l-0.8-1.8c0.3,0.7,0.4,1.4,0.5,2.2l-0.3-2c0.2,2.2,0.2,4.3,0.6,6.5
		c0.2,1.5,0.8,2.9,1.4,4.3c1.3,3.1,3.2,5.8,5.4,8.3c1.7,2,3.5,3.8,5.3,5.7c0.5,0.5,1,1.1,1.4,1.6c0.2,0.2,0.4,0.5,0.6,0.7
		c0.8,1-0.2-0.3-0.4-0.5c1,1,1.8,2.5,2.4,3.8l-0.8-1.8c0.3,0.7,0.5,1.3,0.5,2l-0.3-2c0,0.4,0,0.8,0,1.2l0.3-2
		c-0.1,0.4-0.2,0.7-0.3,1l0.8-1.8c-0.1,0.2-0.2,0.4-0.3,0.5c-0.4,0.6-0.2,0.3,0.6-0.8c-0.3,0.3-0.6,0.6-0.9,0.9
		c-0.6,0.5-1.2,1-1.8,1.4c-2.2,1.8-3.8,4.1-4.5,6.8c-1.6,5.6,0.9,11.4,4,16c1.8,2.6,3.8,4.9,6.7,6.2c3.2,1.4,6.9,1.3,10-0.5
		c4.3-2.5,5.5-7.2,7.3-11.5l-0.8,1.8c0.3-0.7,0.6-1.3,1-1.9c0.4-0.8-1.1,1.3-0.5,0.6c0.1-0.1,0.2-0.3,0.4-0.4c0.3-0.4,0.7-0.7,1.1-1
		c0.9-0.9-1.4,0.9-0.3,0.2c0.4-0.2,0.7-0.5,1.1-0.8c0.8-0.5,1.5-0.9,2.3-1.4c3.9-2.2,7.9-4.3,11.8-6.5s7.9-4.2,11.7-6.5
		c4.3-2.6,7.7-6,10.4-10.2c2.2-3.4,3.9-7,5.9-10.4s4.1-7.1,6.3-10.5c4.4-6.9,9-13.7,14-20.2c0.2-0.2,0.4-0.5,0.5-0.7
		c0.6-0.8-1,1.2-0.3,0.5c0.4-0.5,0.7-0.9,1.1-1.4c0.7-0.9,1.4-1.8,2.1-2.6c1.5-1.8,2.9-3.6,4.4-5.3c3-3.6,6.2-7.1,9.4-10.5
		c2.7-2.9,3-7.8,0-10.6s-7.7-3-10.6,0c-12.2,12.9-23.2,27-32.7,42c-2.4,3.7-4.6,7.5-6.8,11.3s-3.9,7.5-6.2,11
		c-0.3,0.4-0.5,0.8-0.8,1.2c-0.1,0.2-0.2,0.3-0.4,0.5c-0.5,0.8,1-1.2,0.4-0.5c-0.7,0.8-1.4,1.6-2.2,2.3c-0.2,0.1-0.3,0.3-0.5,0.4
		c-0.7,0.6,1.3-0.9,0.5-0.4c-0.4,0.3-0.8,0.6-1.3,0.9c-0.9,0.6-1.9,1.1-2.8,1.7c-4.2,2.3-8.3,4.6-12.5,6.8s-8.8,4.4-12.7,7.3
		c-2.5,1.8-4.7,3.8-6.2,6.6c-1.1,2-1.8,4.3-2.7,6.4l0.8-1.8c-0.3,0.7-0.7,1.3-1,2c-0.3,0.6,1.4-1.7,0.4-0.6
		c-0.7,0.8,1.9-1.1,0.5-0.5l1.8-0.8c-0.3,0.1-0.7,0.2-1,0.3l2-0.3c-0.3,0-0.6,0-1,0l2,0.3c-0.3-0.1-0.6-0.2-1-0.3l1.8,0.8
		c-0.8-0.4-0.8-0.8,0.4,0.4c-0.2-0.3-0.5-0.5-0.8-0.8c-0.8-0.9,0.9,1.2,0.4,0.5c-0.2-0.3-0.4-0.6-0.6-0.9c-0.9-1.3-1.7-2.7-2.3-4.2
		l0.8,1.8c-0.4-1-0.7-2-0.9-3.1l0.3,2c-0.1-0.6-0.1-1.2,0-1.9l-0.3,2c0.1-0.5,0.2-1,0.4-1.5l-0.8,1.8c0.1-0.2,0.2-0.5,0.4-0.7
		c0.4-0.6,0.2-0.4-0.6,0.8c0.2-0.2,0.5-0.5,0.7-0.7c0.6-0.5,1.2-1,1.8-1.5c1.5-1.2,2.8-2.6,3.7-4.3c2.8-5.4,0.8-11.2-2.7-15.7
		c-2.3-3-4.8-5.7-7.4-8.4c-0.5-0.6-1-1.1-1.5-1.7c-0.3-0.3-0.6-0.7-0.9-1.1c-0.8-1,1.1,1.5,0.3,0.4c-0.9-1.3-1.7-2.6-2.4-4l0.8,1.8
		c-0.5-1.2-0.8-2.3-1-3.5l0.3,2c-0.3-2.5-0.1-5.1-0.8-7.6c-0.5-1.8-1.4-3.6-2.5-5.1s-2.4-3.1-3.6-4.6c-0.2-0.2-1.1-1.4-0.2-0.2
		s0,0-0.2-0.2c-0.4-0.6-0.7-1.2-1-1.8l0.8,1.8c-0.2-0.5-0.4-1.1-0.5-1.6l0.3,2c0-0.5-0.1-1,0-1.5l-0.3,2l0-0.3
		c0.4-2.7,0.1-5.2-1.9-7.3c-1.8-1.8-4.8-2.8-7.3-1.9c-0.8,0.3-1.5,0.5-2.3,0.6l2-0.3c-0.9,0.1-1.8,0.1-2.8,0l2,0.3
		c-1.1-0.1-2.1-0.4-3-0.8l1.8,0.8c-0.7-0.3-1.4-0.7-2.1-1.2l1.5,11.8c0.3-0.3,0.6-0.7,1-1c1.2-1.1-0.8,0.5-0.3,0.2
		c0.7-0.4,1.4-0.8,2.1-1.2l-1.8,0.8c1.2-0.5,2.5-0.8,3.8-1l-2,0.3c2.1-0.3,4.2-0.2,6.3,0.1l-2-0.3c9.7,1.4,18.3,6.9,27.8,9.2
		c10.9,2.7,22.9,1.7,31.7-6c1-0.8,1.8-1.8,2.6-2.8c0.7-0.9,1.4-1.8,2.1-2.7c0.2-0.2,0.3-0.4,0.5-0.6c0.9-1.2-1.2,1.4-0.2,0.3
		c0.8-1,1.6-2,2.5-2.8c0.2-0.2,0.4-0.3,0.6-0.5c0.9-0.8-1.2,0.8-0.5,0.4c0.5-0.3,0.9-0.6,1.5-0.8l-1.8,0.8c0.6-0.2,1.2-0.4,1.9-0.5
		l-2,0.3c0.8-0.1,1.5-0.1,2.3,0l-2-0.3c0.7,0.1,1.4,0.3,2.1,0.6l-1.8-0.8c0.2,0.1,0.5,0.2,0.7,0.4c1,0.5-1.5-1.3-0.7-0.6
		c0.7,0.7-0.1,0.6-0.5-0.8c0.1,0.2,0.3,0.4,0.4,0.6l-0.8-1.8c0.1,0.3,0.2,0.6,0.3,1l-0.3-2c0,0.2,0,0.4,0,0.5
		c0.2,2.7,1.3,5.1,3.7,6.5s5.2,1.3,7.6,0c21.8-12.4,41.6-28.7,58-47.8c4.8-5.7,9.4-11.6,13.7-17.7c1.1-1.5,1.2-4.1,0.8-5.8
		s-1.8-3.6-3.5-4.5C776.1,746.1,772.1,747.4,769.7,750.8L769.7,750.8L769.7,750.8z"/>
	<path class="st0" d="M661.4,885.3c0.6-1.2,1.2-2.4,1.9-3.5c0.3-0.6,0.7-1.1,1.1-1.7c0.2-0.2,0.3-0.4,0.5-0.6
		c0.5-0.6,0.3-0.4-0.5,0.6c0.2-0.2,0.3-0.4,0.5-0.6c1.7-2,3.6-3.9,5.7-5.7c0.5-0.4,1.1-0.8,1.6-1.3c-1.8,1.6-0.1,0.1,0.4-0.3
		c1.1-0.8,2.2-1.5,3.3-2.3c2.7-1.8,5.5-3.4,8.2-5c5.7-3.3,11.2-6.6,16.3-10.7c4.4-3.4,8.4-7.4,11.8-11.8c4.2-5.3,7.8-11,10.6-17.2
		c0.8-1.8,1.4-3.8,0.8-5.8c-0.5-1.6-1.4-2.9-2.7-3.9s-2.9-1.7-4.5-1.6c-2.1,0.1-3.7,0.9-5.3,2.2c-14,11.2-28.1,22.3-42.1,33.5
		l-6,4.8l-2.9,2.3l-0.6,0.5c-0.2,0.2-1.2,0.9-0.1,0.1s-0.2,0-0.5,0.2l1.8-0.8c-0.5,0.2-1,0.4-1.6,0.5l2-0.3c-0.3,0-0.5,0-0.8,0
		l2,0.3c-0.2,0-0.3,0-0.4-0.1l1.8,0.8c-0.4-0.2-0.3-0.1,0.4,0.4c0.6,0.4,1.2,1,1.5,1.6l0.8,1.8c-0.1-0.2-0.1-0.3-0.1-0.5l0.3,2
		l0-0.4l-0.3,2l0.1-0.3l-0.8,1.8c0.5-1.1-0.5,0.6-0.5,0.6c0,0,0.5-0.5,0.5-0.6c0.3-0.4,0.7-0.7,1.1-1.1c0.7-0.7,1.5-1.4,2.2-2.1
		c1.5-1.3,3-2.7,4.6-3.9c0.3-0.3,0.9-0.6,1.2-0.9c0,0-1.5,1.2-0.6,0.5c0.2-0.2,0.4-0.3,0.6-0.5c0.8-0.6,1.6-1.2,2.4-1.8
		c1.6-1.2,3.3-2.4,5-3.5c7-4.9,14.1-9.8,20.3-15.6c3.6-3.4,6.8-7.3,9.6-11.4c1.6-2.5,1.2-6.1-0.6-8.3s-5.1-3.7-7.9-2.7
		c-4.2,1.5-8.1,3.6-11.7,6.3s-6.9,5.5-10.4,8.3c-0.2,0.2-0.5,0.4-0.7,0.5c-0.6,0.5,0.7-0.5,0.6-0.5c-0.4,0.3-0.8,0.6-1.2,0.9
		c-0.8,0.6-1.7,1.2-2.5,1.8c-1.7,1.2-3.4,2.4-5.1,3.5c-3.5,2.3-7,4.4-10.7,6.4c-4.1,2.2-8.3,4.2-12.6,6.1l1.8-0.8
		c-0.5,0.2-1.1,0.5-1.6,0.7l9.2,9.2l0.2-0.4l-0.8,1.8c0.5-1.2,1.1-2.4,1.8-3.5c0.2-0.3,0.4-0.7,0.6-1c0.2-0.2,0.9-1.2,0.1-0.2
		s0,0,0.2-0.2c0.2-0.2,0.4-0.5,0.7-0.7c0.4-0.5,0.9-1,1.4-1.4c0.2-0.2,0.5-0.4,0.7-0.7c0.2-0.1,1.2-1,0.2-0.2s-0.1,0.1,0.2-0.1
		c0.3-0.2,0.6-0.4,1-0.7c0.6-0.4,1.2-0.7,1.8-1.1c2.8-1.6,5.8-3.1,8.1-5.5c2.9-3,5-7.2,4.8-11.5c-0.2-3-1.8-5.7-4.6-6.8
		s-5.9-0.5-8.2,1.5c-0.6,0.5-1.2,1-1.9,1.6c-0.3,0.2-0.6,0.5-0.9,0.7c-1.2,1,1.4-1,0.1-0.1s-2.6,1.9-4,2.8c-2.7,1.8-5.5,3.5-8.5,4.8
		l1.8-0.8c-0.4,0.2-0.8,0.3-1.3,0.4l2-0.3c-0.3,0-0.6,0.1-0.9,0l2,0.3c-0.3,0-0.6-0.1-0.8-0.2l1.8,0.8c-1-0.5,1.3,1.3,0.6,0.5l0.8,1
		c-0.1-0.2-0.2-0.3-0.3-0.5l0.8,1.8c-0.2-0.4-0.3-0.8-0.4-1.2l0.3,2c-0.1-0.5-0.1-1,0-1.6l-0.3,2c0.1-0.3,0.2-0.6,0.3-1l-0.8,1.8
		c0.2-0.4,0.6-0.9,0.7-1.3c-0.8,1-1,1.2-0.5,0.6c0.2-0.2,0.3-0.4,0.5-0.5c0.7-0.7,1.5-1.3,2.3-2c1.3-1.1,2.3-3.7,2.2-5.3
		s-0.6-3.2-1.6-4.5c-2.2-2.9-6.4-3.9-9.7-1.9c-1.1,0.7-2.2,1.3-3.4,1.8l1.8-0.8c-0.8,0.3-1.6,0.5-2.4,0.7l2-0.3
		c-0.6,0.1-1.1,0.1-1.7,0l2,0.3c-0.5-0.1-1.1-0.2-1.6-0.5l1.8,0.8c-0.2-0.1-0.4-0.2-0.6-0.3c-1-0.5,1.2,1.1,0.6,0.5
		c-0.4-0.4,0.7,1.4,0.6,0.8c0-0.2-0.3-0.5-0.4-0.7l0.8,1.8c-0.1-0.2-0.2-0.5-0.2-0.7l0.3,2c-0.1-0.7,0-1.4,0-2.1l-0.3,2
		c0.2-1.6,0.7-3.3,0.6-4.9c-0.1-2.4-0.9-4.5-2.3-6.4c-2.8-3.7-8.3-5.6-12.5-2.7c-2,1.4-3.2,3-3.6,5.5s0.4,4.5,2.1,6.3
		c0.7,0.8,1.4,1.6,2.1,2.4c-1.6-1.7-0.3-0.4,0,0.1c0.3,0.4,0.6,0.9,0.9,1.3c1.2,1.8,2.1,3.7,3,5.7l-0.8-1.8c1.3,3.2,2.3,6.6,2.7,10
		l-0.3-2c0.3,2.8,0.4,5.6,0.2,8.4h15c0.2-4.5-0.4-9.3-2-13.5c-0.7-1.9-1.7-3.5-3.5-4.5c-1.6-0.9-4-1.3-5.8-0.8
		c-4.1,1.3-6.1,5.1-5.2,9.2c1.7,8.3,6.9,15.5,13.9,20.2c3.2,2.2,8.5,0.7,10.3-2.7c2-3.8,0.8-7.9-2.7-10.3c-0.2-0.2-0.4-0.3-0.6-0.4
		c-1.2-0.8,1.1,0.9,0.4,0.3c-0.4-0.3-0.8-0.7-1.2-1c-0.9-0.8-1.6-1.7-2.4-2.5c-0.6-0.7,1,1.3,0.5,0.6c-0.2-0.2-0.3-0.4-0.5-0.6
		c-0.3-0.5-0.7-1-1-1.5c-0.6-1-1.1-2-1.6-3.1l0.8,1.8c-0.6-1.6-1.1-3.2-1.5-4.8l-14.5,4c0.7,2,1.2,4,1.5,6.1l-0.3-2
		c0.2,1.8,0.3,3.6,0.2,5.4c-0.2,3.9,3.6,7.7,7.5,7.5c1.9-0.1,4-0.7,5.3-2.2s2-3.2,2.2-5.3c1.2-12.7-3.7-25.5-12.3-34.8l-1.5,11.8
		c0.2-0.1,0.3-0.2,0.5-0.3l-1.8,0.8l0.3,0l-2,0.3h0.3l-2-0.3c0.2,0,0.4,0.1,0.5,0.1l-1.8-0.8c1,0.5-1.3-1.3-0.5-0.4l-0.8-1
		c0.1,0.2,0.2,0.4,0.3,0.6l-0.8-1.8c0.1,0.2,0.1,0.4,0.2,0.6l-0.3-2c0,0.5,0,1,0,1.6l0.3-2c-0.2,1.5-0.5,3-0.6,4.5
		c-0.1,2,0.4,3.9,1.3,5.7c1.3,2.9,4,4.7,6.9,5.8c5.2,2,10.5-0.2,14.9-2.8l-9.1-11.8c-3.7,2.9-6.8,6.8-6.8,11.7
		c0,6.2,4.9,11.7,11.3,11.4c2.9-0.2,5.5-1.6,8.1-2.9c1.6-0.9,3.2-1.8,4.8-2.8c3.6-2.3,7.1-5,10.4-7.8l-12.8-5.3c0,0.5,0,1-0.1,1.5
		l0.3-2c-0.1,0.5-0.2,1-0.4,1.5l0.8-1.8c-0.2,0.5-0.5,1-0.8,1.5c-0.8,1.2,0.4-0.4,0.3-0.4c0,0-0.5,0.5-0.5,0.6
		c-0.2,0.2-0.5,0.4-0.7,0.7c-0.5,0.6,1.6-1.1,0.4-0.3c-0.5,0.3-1,0.7-1.6,1c-2.2,1.3-4.5,2.4-6.6,3.9c-2.3,1.7-4.4,3.6-6.2,5.8
		c-2.2,2.9-3.8,5.7-5.2,9.1c-1,2.4,0.2,5.6,1.9,7.3s4.9,2.9,7.3,1.9c8.1-3.3,16-7.1,23.4-11.7s14.3-10,21-15.5
		c0.4-0.3,0.8-0.6,1.2-0.9c0.2-0.2,0.4-0.4,0.7-0.5c-0.2,0.2-1.3,1-0.5,0.4c0.9-0.7,1.8-1.3,2.8-2c1.9-1.2,3.8-2.4,5.9-3.2l-1.8,0.8
		c0.5-0.2,1-0.4,1.6-0.6l-8.5-11c-0.5,0.8-1.1,1.7-1.7,2.5c-0.1,0.2-0.4,0.4-0.5,0.6c0,0,1.2-1.5,0.5-0.6c-0.4,0.4-0.7,0.9-1.1,1.3
		c-1.3,1.5-2.7,3-4.2,4.4s-2.9,2.7-4.5,4c-0.8,0.6-1.5,1.3-2.3,1.9c-0.4,0.3-1.1,0.8,0.6-0.5c-0.2,0.2-0.4,0.3-0.6,0.5
		c-0.5,0.3-0.9,0.7-1.4,1c-7.1,5.2-14.5,10-21.4,15.6c-1.6,1.3-3.1,2.6-4.6,3.9c-1.9,1.7-4,3.5-5.2,5.8c-2.8,4.9-0.4,11.5,5.1,13
		c3.1,0.8,6.3,0.2,9.1-1.4c1.4-0.8,2.5-1.9,3.8-2.9l3.3-2.6l6.4-5.1l12.7-10.1l28.7-22.8l-11.8-9.1c-2.2,5.1-5.1,9.9-8.4,14.4
		c-0.9,1.2,0.9-1.2,0.3-0.4c-0.2,0.3-0.4,0.5-0.6,0.8c-0.4,0.5-0.9,1-1.3,1.6c-0.9,1-1.8,2-2.8,3c-2,2-4.1,4-6.3,5.8
		c-0.2,0.2-0.4,0.3-0.6,0.5c-1.2,0.9,1.2-0.9,0.4-0.3c-0.5,0.4-1,0.8-1.6,1.2c-1.4,1-2.8,1.9-4.2,2.8c-2.6,1.6-5.2,3.2-7.9,4.7
		c-5.6,3.2-11,6.6-16,10.6s-9.7,9.3-12.4,15.3c-0.9,1.9-1.3,3.7-0.8,5.8c0.5,1.7,1.8,3.6,3.5,4.5
		C654.4,889.8,659.6,889.1,661.4,885.3L661.4,885.3L661.4,885.3z"/>
</g>
<g id="Cartagena">
	<path d="M137.3,356.1c12.9-11,25.9-21.9,39.4-32.3c13.2-10.2,26.8-19.9,41-28.7c8-5,16.1-9.6,24.4-14c1.4-0.8,0.2-2.9-1.3-2.2
		c-14.9,7.8-29.1,16.6-42.9,26.2c-13.9,9.6-27.2,20-40.3,30.6c-7.4,6.1-14.8,12.3-22.1,18.6C134.4,355.4,136.1,357.2,137.3,356.1
		L137.3,356.1L137.3,356.1z"/>
	<path d="M246.2,280.4c12.6,1.4,24.1-5.6,33.8-13c11.4-8.6,22.4-17.6,33.5-26.5l19.5-15.5c1.3-1-0.5-2.8-1.8-1.8
		c-11.2,8.9-22.4,17.7-33.6,26.6c-5.5,4.4-11,8.7-16.5,13.1c-4.9,3.8-9.9,7.5-15.4,10.3c-6.1,3.1-12.7,5-19.6,4.2
		C244.6,277.7,244.7,280.2,246.2,280.4L246.2,280.4L246.2,280.4z"/>
	<path d="M334.4,224.9c7.9-4.7,14.8-10.7,21.3-17c7.1-6.9,14.1-13.9,21.2-20.9c4.1-4.1,8.2-8.1,12.3-12.2c1.1-1.1-0.6-2.9-1.8-1.8
		c-7.2,7.1-14.3,14.1-21.5,21.2c-6.6,6.5-13.1,13.2-20.2,19.3c-4,3.4-8.2,6.5-12.6,9.1C331.8,223.5,333,225.7,334.4,224.9
		L334.4,224.9L334.4,224.9z"/>
	<path d="M413.6,696.4c-3.5,0.6-7.2,0.7-10.7,0c-3.1-0.6-6.8-1.6-9.3-3.8c-4.2-3.8-4.6-9.9-5.8-15.1c-0.6-2.5-1.3-6-3.4-7.6
		c-2.4-1.7-5.3-0.7-7.9-0.4c-7.2,0.8-14.3,3.5-21.6,3.2c-2.3-0.1-4.6-0.8-6.9-1.2c-2.1-0.4-4.3-0.7-6.4-0.8
		c-4.4-0.3-8.9,0.2-13.1,1.7c-1.5,0.5-0.9,3,0.7,2.4c3.8-1.3,7.7-1.9,11.7-1.7c2,0.1,4,0.3,6,0.7s4,1,6,1.2c7.5,0.9,14.6-1.8,22-2.9
		c1.5-0.2,2.9-0.3,4.4-0.6c1.2-0.2,2.7-0.5,3.8,0.2s1.5,2.8,1.9,4c0.4,1.4,0.7,2.8,1,4.2c1.1,5.2,2,11,6.4,14.7
		c2.8,2.3,6.7,3.5,10.2,4.2c4,0.7,7.9,0.6,11.9-0.1C415.8,698.6,415.2,696.1,413.6,696.4L413.6,696.4L413.6,696.4z"/>
	<path d="M438.9,864c-14.3-15.6-1.5-37,3.3-53.7c6.6-23.1-3.3-45.9-12.4-66.8c-5.3-12.2-10.5-24.8-11.2-38.3c-0.1-1.6-2.6-1.6-2.5,0
		c0.6,12,4.6,23.3,9.3,34.3c4.6,11,9.8,21.8,13.1,33.3s4.7,23.4,1.8,35.1c-2.4,9.5-6.7,18.4-9,28c-1.2,5.1-1.8,10.5-1.1,15.7
		s3.2,10.3,6.9,14.3C438.2,867,440,865.2,438.9,864L438.9,864L438.9,864z"/>
	<path d="M597.1,982.3c-10-1.8-20.2-2.4-30.4-2.9c-5-0.2-10-0.4-15-0.8c-3.1-0.2-5.7-2-7.2-4.7c-1.3-2.6-1.6-5.7-1-8.6
		c0.4-1.8,1.1-3.5,1.5-5.3s0.7-3.8,0.9-5.7c0.6-7.4-1-14.9-4.3-21.6s-8.4-12.4-14.5-16.6c-1.6-1.1-3.3-2.2-5.1-2.8
		c-2.2-0.8-4.5-1.5-6.9-1.9c-4.6-0.8-9.2-0.9-13.8-1s-9.5,0-14.2-0.6c-4-0.5-7.6-2.7-10.4-5.5s-4.7-6.1-5.8-9.8
		c-0.3-1.1-0.4-1.7-1.6-2.1c-1-0.3-2.1-0.5-3.1-0.7c-2.1-0.2-4.3,0.1-6.3,0.7c-4.3,1.2-8.2,3.7-12,6c-0.8,0.5-1.7,1.2-2.5,1.5
		s-1.8,0-2.6,0.2c-0.9,0.2-1.5,0.9-2.2,1.5c-0.9,0.8-1.8,1.6-2.6,2.5c-3.2,3.2-6,6.8-9.1,10.2c-0.7,0.8-1.4,1.6-2.1,2.3
		s-1.9,0-2.4-0.7c-1.4-1.7-2.2-4.5-2.5-6.7c-0.3-2.4,0.2-4.8,1.3-7c0.7-1.4-1.4-2.7-2.2-1.3c-2.4,4.8-2,9.8,0.3,14.5
		c1,2,2.4,3.7,4.7,3.9c2.2,0.2,3.8-2.3,5.1-3.8c3.4-3.8,6.5-7.8,10.3-11.3c0.8-0.7,1.5-1.7,2.7-1.8c1,0,1.9,0,2.7-0.5
		c2.1-1.2,4.2-2.6,6.4-3.8c4.8-2.7,10.3-5.2,15.9-3.2l-0.9-0.9c1.4,5.6,4.6,10.7,9.2,14.2c2.2,1.7,4.9,3.1,7.6,3.7
		c3.5,0.7,7.2,0.8,10.8,0.8c6.9,0.1,13.9-0.2,20.6,1.4c3.3,0.8,6.1,2,8.9,3.8c2.3,1.6,4.5,3.4,6.5,5.5c7.8,8,12.3,19.2,11.4,30.4
		c-0.2,2.9-0.8,5.8-1.7,8.5c-0.7,2.2-1.1,4.4-1,6.8c0.3,4.5,2.5,9,6.8,10.9c3.2,1.4,7,1.1,10.3,1.3c4.2,0.2,8.5,0.4,12.7,0.6
		c8.7,0.5,17.3,1.1,25.9,2.6C598,985,598.7,982.6,597.1,982.3L597.1,982.3L597.1,982.3z"/>
	<path d="M318.8,670.3c-3.3-6.5-0.9-13.9,1.1-20.3c2.3-7.1,4-14.3,4.7-21.8c0.4-4.5,0.3-9.1-0.6-13.6c-0.3-1.6-2.7-0.9-2.4,0.7
		c1.5,8.1,0.4,16.5-1.4,24.4c-1.6,7-4.6,13.6-5.4,20.7c-0.5,3.9,0,7.7,1.8,11.2C317.4,673,319.5,671.7,318.8,670.3L318.8,670.3
		L318.8,670.3z"/>
	<path d="M805.3,668.4c-1.4,1.4-2.7,2.9-4.3,4.2c-2,1.6-4.3,2.6-6.8,3.1l1,0.1c-5.5-3.8-11.5-6.9-17.4-10.2c-2.8-1.6-5.7-3.2-8.4-5
		c-1.4-0.9-2.8-1.9-4.1-2.9c-0.7-0.5-0.9-0.9-1.1-1.8c-0.1-0.6-0.2-1.3-0.1-2c0.2-2.5,1.6-4.8,2.9-7c1.3-2.2,2.7-4.5,3.6-7
		c0.8-2.3,0.2-4.5-2.1-5.8c-1-0.5-2.2-0.8-3.3-0.8c-1.7,0-3,0.9-4.5,1.4c-1.8,0.5-3.6,0.8-5.5,0.8c-1,0-2.1,0-3.1,0
		c-0.6,0-1,0.2-1.5,0.3c-2.4,0.5-4-1.5-4.3-3.7c-0.3-1.6-2.7-0.9-2.4,0.7c0.5,2.7,2.3,4.9,5,5.4c0.5,0.1,1.1,0.1,1.7,0.1
		s1.1-0.3,1.6-0.4c0.6-0.1,1.9,0.1,2.7,0.1c1,0,2.1-0.1,3.1-0.2c2.1-0.3,4-0.9,6-1.7c1.3-0.5,3-0.4,4.1,0.6c1.2,1.1,0.2,2.8-0.3,4
		c-0.7,1.5-1.6,3-2.4,4.4c-1.6,2.6-3.2,5.4-3.5,8.5c-0.1,1.5,0.1,3.3,0.8,4.6c0.4,0.7,1.3,1.2,2,1.7c0.9,0.7,1.8,1.4,2.8,2
		c6.8,4.7,14.3,8.2,21.3,12.4c1,0.6,2,1.2,3,1.9c0.8,0.5,1.9,1.6,2.9,1.8c0.9,0.1,2-0.3,2.8-0.6c0.9-0.3,1.8-0.7,2.6-1.1
		c2.9-1.5,5-4,7.3-6.2C808.2,669,806.4,667.3,805.3,668.4L805.3,668.4L805.3,668.4z"/>
	<path d="M817.6,722.3c7.1-8.7,15.4-16.4,22.7-25c6.3-7.5,11.2-16.4,9.4-26.4c-1.6-9.3-7.5-18.2-15-24c-6.9-5.2-17.4-8.9-25.9-5.6
		s-7.9,13.8-4,20.3c0.8,1.4,3,0.1,2.2-1.3c-2.9-4.9-4.2-13.3,2-16.4c3.7-1.8,8.4-1.5,12.3-0.6c4.1,1,8.1,2.8,11.5,5.2
		c7.1,5.1,12.5,13.3,14.4,21.8c2,9.2-2.2,17.6-8,24.5c-7.4,8.9-16,16.6-23.2,25.6C814.8,721.8,816.6,723.6,817.6,722.3L817.6,722.3
		L817.6,722.3z"/>
	<path d="M800.7,567.9c5.6,7.3,14.7,12.6,24.1,12.7c3.4,0,6.6-1.6,8.1-4.8s1.2-6.8,0.2-10c-2.4-7.5-11.2-14-8.7-22.6
		c2.5-8.7,12-12.3,19.9-14.3s17.1-3.4,23.5-9.5c3.3-3.1,6-7.6,5.9-12.2s-2.8-8.2-5.6-11.5c-3.2-3.8-6.5-7.2-9.1-11.4
		s-4.6-8.6-6.3-13.1c-3.4-9.1-5.7-18.5-8.8-27.7c-6.7-19.8-19.7-36.3-32.1-52.8c-1.5-2-3.1-4.1-4.6-6.1c-0.9-1.3-3.1,0-2.2,1.3
		c11.8,16.1,24.9,31.5,33.1,49.9c7.8,17.3,9.4,37.1,20.6,52.8c2.7,3.8,6.2,7,9,10.8c2.6,3.5,4.3,7.6,2.7,12
		c-3.2,8.7-12.8,11.8-20.9,13.8s-16.2,3.5-22.4,9.2c-3,2.8-5.3,6.6-5.8,10.7s1.3,7.8,3.3,11.2s4.7,6.7,5.9,10.5
		c0.9,2.8,1.1,6.5-0.7,9c-2.2,3.1-6.6,2.5-9.9,1.8c-4.5-1-8.9-3-12.5-6c-1.8-1.5-3.4-3.1-4.8-4.9
		C801.9,565.4,799.8,566.6,800.7,567.9L800.7,567.9L800.7,567.9z"/>
	<path d="M401.8,438c-12.5-10.4-14.9-27.5-12.2-42.7c1.4-8.3,4.5-16.6,8.2-24.2s8.7-14.8,14.5-21.1c1.4-1.5,2.6-2.9,4.8-3.2
		c1.9-0.3,3.9,0,5.8,0.1c1.8,0,3.6-0.1,5.3-0.9c1.8-0.9,3-2.6,3.9-4.4c1.1-2.1,1.2-4.5,1.4-6.8c0.2-2.4,0.4-4.9,0.4-7.3
		c0-4.8-0.3-9.6-0.9-14.4c-1.1-9.6-2.8-19.1-3.2-28.8c-0.1-2.5-0.1-4.9,0-7.4c0-0.9,0.1-1.6,0.6-2.5c0.5-1,1-1.5,2-1.9
		c3.4-1.5,7-2.6,10.2-4.5c3.5-2.2,5.4-5.3,6.5-9.3c1.2-4.5,1.4-9.1,1-13.7s-1.3-9.3-2.2-13.9c-0.5-2.4-0.9-4.8-1.3-7.2
		s-0.8-4.9-0.6-7.3c0.2-2.5,1-5,1.7-7.5c0.4-1.6-2-2.2-2.4-0.7c-0.6,2.4-1.3,4.8-1.6,7.2s0,4.9,0.4,7.3c0.7,4.9,1.8,9.7,2.6,14.6
		s1.5,9.4,1.2,14.2c-0.2,4.2-1.1,9.3-4.2,12.4c-2.7,2.6-6.4,3.8-9.8,5.1c-1.8,0.7-3.7,1.3-4.8,2.9s-1.5,3.3-1.6,5.3
		c-0.3,9.8,1.2,19.5,2.5,29.3c1.3,9.6,2.3,19.4,1.2,29.1c-0.1,1.3-0.2,2.7-0.6,3.9c-0.3,0.9-1,2-1.6,2.7c-1.4,1.7-3.2,2.1-5.2,2
		c-3.6,0-8-0.9-10.9,1.8c-3.2,2.9-6,6.5-8.5,9.9s-4.8,7-6.8,10.8c-4.1,7.6-7.2,15.9-9.2,24.3c-3.6,14.8-2.5,32.4,7.8,44.4
		c1.3,1.5,2.7,2.9,4.3,4.2C401.3,440.8,403,439,401.8,438L401.8,438L401.8,438z"/>
	<path d="M683.7,489.1c1.8-5,7.5-7.6,12.5-8c6.1-0.4,11.8-3.2,16.5-7c0.7-0.6,1.3-1.2,2-1.8c0.8-0.6,1.6-1.1,2.5-1.5
		c1.6-0.7,3-0.8,4.7-0.7c2.4,0.2,4.7,0.3,7.1,0.4c4.9,0.2,9.8,0.2,14.7-0.5s9.4-2.1,13.3-4.9c1.9-1.4,3.7-3,5.1-4.9c0.7-1,1.4-2,2-3
		c0.8-1.4,0.9-2.8,1.2-4.3c2.6-12.1,7.4-23.6,13.9-34.1c7.3-11.9,16.8-22.4,27.8-31c1.3-1-0.5-2.7-1.8-1.8
		c-19.6,15.3-34.5,36.9-41.1,60.9c-0.4,1.4-0.7,2.8-1.1,4.2s-0.4,3.2-1.1,4.6c-1.1,2.3-2.8,4.3-4.7,6c-3.6,3.1-8.2,4.8-12.8,5.6
		c-4.9,0.9-9.9,0.9-14.9,0.7c-2.4-0.1-4.8-0.3-7.1-0.4c-1.2-0.1-2.5-0.2-3.7,0c-1.7,0.3-3.8,1.1-5.1,2.1c-0.8,0.5-1.4,1.3-2.1,1.9
		c-0.8,0.7-1.6,1.3-2.5,1.9c-1.5,1-3.1,1.9-4.7,2.7s-3.3,1.3-5,1.8c-1.5,0.4-3,0.4-4.6,0.6c-5.8,0.8-11.6,4-13.6,9.7
		C680.8,490,683.2,490.6,683.7,489.1L683.7,489.1L683.7,489.1z"/>
	<path d="M627.9,472.2c2.9,1.5,4.1,4.5,5.7,7.1c1.8,2.8,4.2,4.9,7.2,6.3c3.4,1.6,7,2.5,10.6,3.6c4,1.3,8,2.5,12.1,3.3
		c4.5,0.9,9.2,1.4,13.8,1c1.6-0.1,1.6-2.6,0-2.5c-8.2,0.7-16.1-1.4-23.9-3.8c-3.5-1.1-7.2-2.1-10.6-3.5c-3-1.3-5.5-3.2-7.2-6
		s-3.2-6.1-6.5-7.7C627.8,469.3,626.5,471.5,627.9,472.2L627.9,472.2L627.9,472.2z"/>
	<path d="M408.2,443.2c13,2.7,26.1,5.6,39.4,6.7c1.5,0.1,3,0.2,4.5,0.6s2.8,1,4.3,1.3c3,0.6,6.2,0.5,9.2,0.6
		c6.5,0.3,13.1,0.5,19.6,0.8c7.5,0.4,14.9,0.9,22.3,1.8l-0.9-0.4c3.3,3,7.2,5.2,11.6,6.2s8.5,0.9,12.7,0.3c4.5-0.6,8.8-1.9,13.1-3.3
		s8.7-3.5,13.5-3.3s9.6,1.7,14.5,1.8c2.4,0,4.8-0.3,7-1.1s3.9-2.3,5.8-3.6c3.6-2.5,7.7-5.4,12.3-4.5c3.9,0.8,7.3,2.9,10,5.8
		c3,3.4,4.9,7.8,5.2,12.4c0.2,2.1-0.3,4.1,0.7,6.1s2.8,3.5,4.9,4c1.6,0.4,2.2-2,0.7-2.4s-2.7-1.4-3.4-2.8c-0.6-1.3-0.3-2.7-0.3-4.1
		c-0.1-3.2-0.9-6.4-2.3-9.3c-2.7-5.6-7.7-10.2-13.8-11.8c-3.5-0.9-6.7-0.4-9.9,1.2s-6,3.9-9,5.9c-3.3,2.1-7.6,2-11.4,1.5
		s-7.7-1.5-11.6-1.5c-1.8,0-3.7,0.1-5.4,0.7s-3.4,1.2-5.1,1.7c-3.4,1.1-6.8,2.2-10.3,3.1c-6.6,1.6-13.8,2.4-20.3-0.1
		c-1.7-0.6-3.2-1.5-4.7-2.5c-0.8-0.5-1.5-1.1-2.1-1.7c-0.8-0.7-1.5-0.8-2.5-0.9c-4.3-0.5-8.7-0.9-13-1.2c-8.9-0.6-17.7-0.8-26.6-1.2
		c-4.2-0.2-8.4-0.1-12.4-1.4s-8.4-1.3-12.6-1.8c-8.8-1.1-17.5-2.9-26.2-4.6c-2.2-0.5-4.5-0.9-6.8-1.4
		C407.3,440.5,406.7,442.9,408.2,443.2L408.2,443.2L408.2,443.2z"/>
	<path d="M25,584.2c9.1-5.1,18.9-8.7,27.9-14c8.3-4.9,15.7-11.1,22.6-17.8s13.3-14.2,19.6-21.5c6.2-7.2,12.4-14.4,17.6-22.4
		s9.3-16.4,11.1-25.6c2-10,1.2-20.4-1.1-30.3s-6.3-19.4-10.5-28.8c-4-9.2-8.3-18.9-8.5-29c-0.1-9,3.5-17,9.8-23.2
		c5.8-5.8,13.1-9.9,20.3-13.6c1.9-0.9,3.7-1.8,5.6-2.7c1.4-0.7,0.2-2.8-1.3-2.2c-14.2,6.7-30.6,15.2-35.6,31.3
		c-2.9,9.5-0.9,19.6,2.5,28.8c3.5,9.6,8.3,18.8,11.7,28.5s5.7,19.9,5.6,30.2s-2.9,19.4-7.5,28.1c-4.5,8.4-10.4,16-16.5,23.3
		s-12.5,14.7-19.1,21.8s-13.8,13.9-21.9,19.5s-17.6,9.7-26.7,14.1c-2.3,1.1-4.7,2.3-6.9,3.6C22.3,582.8,23.6,585,25,584.2L25,584.2
		L25,584.2z"/>
	<path d="M639.4,323c1.6,0,1.6-2.5,0-2.5S637.8,323,639.4,323L639.4,323z"/>
	<path d="M303.9,504.4c2,2.9,4.5,5.3,6.6,8c2,2.5,4.5,6,4.1,9.4c-0.8,6.9-11,7.1-16.1,7.2c-9.5,0.2-19,0.1-28.5-0.8
		c-10.8-1-21.5-2.7-32.1-4.9c-2.3-0.5-4.5-0.9-6.8-1.3c-2.1-0.4-4.3-0.8-6.2-1.7c-1.5-0.7-2.8-1.6-3.1-3.4c-0.2-1.4,0.2-2.8,1.8-2.8
		s1.6-2.5,0-2.5c-3.7,0-5,3.9-3.9,7c1.4,3.8,6.2,4.9,9.8,5.6c10.8,2.1,21.6,4.3,32.5,5.6c11.4,1.4,22.8,1.8,34.2,1.7
		c6.5-0.1,16,0.2,19.9-6.2c2.3-3.9,0.8-8.3-1.5-11.7c-2.5-3.8-5.9-6.8-8.4-10.5C305.1,501.9,302.9,503.1,303.9,504.4L303.9,504.4
		L303.9,504.4z"/>
	<path d="M428.2,139c15.3-18.6,30.8-36.9,46.3-55.4c7.5-9,15-18.1,22.5-27.1c6.6-7.9,14-15.3,18.4-24.7c3.6-7.7,7.7-17.6,17.1-19.5
		c1.6-0.3,0.9-2.7-0.7-2.4c-8.4,1.7-13.2,9.5-16.7,16.6c-2,4.2-4,8.4-6.7,12.2c-3,4.3-6.5,8.2-9.9,12.2
		c-7.7,8.9-15.1,18.1-22.6,27.2s-15.5,18.4-23.2,27.6c-8.8,10.5-17.6,21-26.3,31.5C425.4,138.4,427.2,140.2,428.2,139L428.2,139z"/>
	<path d="M492.4,96.9c13,1,26.7,6.5,35.8,16.1c3.8,3.9,7,9.6,12.7,11s10.2-3.1,12.2-8.1c2.1-5.3,1.6-10.9-1.3-15.8s-7.5-8.9-12-12.6
		s-8.9-7.6-12.6-12.1s-7.1-10.5-5.1-16.5c1.1-3.4,3.8-6,6-8.6c2.6-2.9,4.9-6,7.1-9.2c4.6-6.6,8.6-13.6,12.2-20.7
		c0.9-1.8,1.9-3.6,2.8-5.5c0.7-1.4-1.4-2.7-2.2-1.3c-3.5,7.1-7.3,14.2-11.5,20.9c-2.1,3.4-4.4,6.6-6.8,9.8c-2.2,3-4.8,5.6-7.1,8.5
		c-1.9,2.5-3.3,5.2-3.6,8.4c-0.3,2.9,0.4,5.7,1.6,8.4c2.4,5.5,6.8,10.1,11.2,14.2c4.1,3.8,8.6,7.2,12.5,11.1c4,3.9,7.6,8.7,7.6,14.5
		c0,4.7-2.7,11.5-7.9,12.3c-5.6,0.9-9.8-5.6-12.9-9.2c-8.5-9.7-21.5-15.6-34.1-17.5c-1.5-0.2-3-0.4-4.6-0.5S490.8,96.8,492.4,96.9
		L492.4,96.9L492.4,96.9z"/>
	<path d="M441,163.1c6.4,6.3,13,13.6,22.2,15.6c4.2,0.9,8.9-0.2,11.2-4.2c2-3.5,1.4-8.1,1.1-12c-0.4-4.9-1.1-9.9-0.9-14.9
		s1.4-9.4,4-13.6c4.1-6.7,10.9-11.6,13.7-19.1c1.1-3,1.8-6.5,0.8-9.7c-1.1-3.5-4.1-5.4-7.5-6.2c-1.6-0.3-2.2,2.1-0.7,2.4
		c2.7,0.5,5.1,1.9,5.9,4.6c0.7,2.5,0.2,5.2-0.6,7.6c-1,2.9-2.7,5.3-4.6,7.6c-2.7,3.2-5.5,6.3-7.9,9.7c-2.4,3.4-4.3,7.3-5,11.5
		c-0.8,4.4-0.5,8.9-0.2,13.4s1,8.7,0.8,13c-0.1,1.7-0.4,3.4-1.4,4.7c-1.2,1.7-3.3,2.7-5.3,2.8c-4.7,0.2-9.5-2.6-13.2-5.3
		c-3.9-2.9-7.2-6.5-10.6-9.9C441.6,160.2,439.8,162,441,163.1L441,163.1L441,163.1z"/>
	<path d="M446.8,211.2c3-5.3,6.2-11.2,5.5-17.5s-4.3-10.9-8-15.4c-1-1.2-2.8,0.5-1.8,1.8c3.3,4,7,8.6,7.3,14.1
		c0.4,5.7-2.5,11-5.2,15.8C443.8,211.3,446,212.6,446.8,211.2L446.8,211.2L446.8,211.2z"/>
	<path d="M390.4,173.5c13.2-9.6,25.5-20.6,36.5-32.6c1.1-1.2-0.7-3-1.8-1.8c-10.9,11.9-23,22.7-36,32.3
		C387.8,172.3,389.1,174.5,390.4,173.5L390.4,173.5L390.4,173.5z"/>
	<path d="M443.2,176.4c-0.4-2.6-1.8-4.7-2.6-7.1c-0.7-1.8-1.2-4.2,0.2-5.8H439l0.4,0.4c1.1,1.2,2.9-0.6,1.8-1.8l-0.4-0.4
		c-0.4-0.5-1.3-0.5-1.8,0c-1.8,2.1-1.8,4.9-1.1,7.4c0.8,2.7,2.5,5.1,2.9,7.9c0.1,0.7,1,1,1.5,0.9C443.1,177.7,443.3,177,443.2,176.4
		L443.2,176.4L443.2,176.4z"/>
	<path d="M485.4,98.4c0-0.1,0-0.2,0-0.2c0-0.2,0,0.1,0,0.1c0-0.1,0.1-0.3,0.1-0.4c0-0.1,0.1-0.2,0.1-0.4c0-0.2-0.1,0.2,0,0.1
		c0-0.1,0.1-0.1,0.1-0.2c0.1-0.1,0.1-0.2,0.2-0.3c0,0,0.1-0.2,0-0.1s0,0,0-0.1c0.1-0.1,0.2-0.2,0.3-0.3c0-0.1,0.1-0.1,0.2-0.2
		c-0.1,0.1-0.2,0.1,0,0c0.1-0.1,0.2-0.2,0.4-0.2c0.1,0,0.1-0.1,0.2-0.1c0.2-0.1-0.2,0.1,0,0s0.3-0.1,0.4-0.1c0.1,0,0.1,0,0.2,0
		c0,0,0,0,0.1,0c0.1,0,0,0-0.1,0c0.1,0,0.3,0,0.4,0c0.1,0,0.3,0,0.4,0c0.3,0-0.3-0.1,0,0c0.1,0,0.1,0,0.2,0c0.1,0,0.3,0.1,0.4,0.1
		c0.6,0.2,1.4-0.2,1.5-0.9c0.2-0.7-0.2-1.3-0.9-1.5c-1.5-0.5-3.2-0.3-4.5,0.6c-1.3,1-2.1,2.4-2.2,4c0,0.7,0.6,1.3,1.2,1.2
		C484.9,99.7,485.4,99.2,485.4,98.4L485.4,98.4L485.4,98.4z"/>
	<path d="M742.9,631.8l0.1,0.2l0.1-1l-0.1,0.2l0.8-0.6l-0.2,0.1l1,0.1c-0.1-0.1-0.3-0.7-0.4-0.9c-0.2-0.5-0.5-1.1-0.7-1.6
		c-0.4-0.9-0.7-1.8-1.1-2.8c-0.7-1.9-1.4-3.9-1.9-5.8c-1.1-3.9-1.9-7.9-2.3-12c-0.7-7.5,0.1-15.2,2.8-22.3
		c5.1-13.7,17.6-24.1,32.5-24c8.3,0,17.3,1.4,24.2,6.4c1.3,0.9,2.6-1.2,1.3-2.2c-6.9-4.9-15.5-6.4-23.8-6.7c-8.2-0.3-16,2-22.6,6.8
		c-13.8,10.2-18.7,28-16.6,44.4c0.7,5,1.9,9.9,3.6,14.7c0.8,2.3,1.7,4.9,2.9,7.1c0.4,0.7,1,1.2,1.9,1.1s1.5-1.1,1.1-2
		C744.7,629.7,742.3,630.3,742.9,631.8L742.9,631.8L742.9,631.8z"/>
	<path d="M628.2,469.7c-1.7-1.8-4.5-0.1-5.8,1.4c-0.3,0.4-0.5,0.8-0.8,1.2c-0.1,0.1-0.1,0.2-0.2,0.2c-0.1,0.1,0.1-0.1-0.1,0.1
		c-0.1,0.1-0.1,0.1-0.2,0.2c0,0-0.2,0.2-0.1,0.1c-0.2,0.1-0.3,0.2-0.4,0.2c-0.2,0.1-0.5,0.1-0.7,0.1c-0.5,0.1-0.9,0.1-1.4,0.3
		c-0.6,0.3-1.1,0.8-0.9,1.5c0.2,0.6,0.9,1.1,1.5,0.9c0.8-0.3,1.7-0.3,2.5-0.6c0.9-0.4,1.5-1,2-1.8c0.4-0.6,0.7-1.1,1.3-1.5
		c0.2-0.1,0.4-0.3,0.6-0.4c0.2-0.1,0.3-0.2,0.4-0.2c0,0,0.3-0.1,0.2,0c-0.1,0,0.2,0,0,0c0.1,0,0.2,0,0.2,0.1c-0.1,0-0.2-0.1-0.1,0
		c0.5,0.5,1.3,0.5,1.8,0C628.7,471,628.6,470.2,628.2,469.7L628.2,469.7L628.2,469.7z"/>
	<path d="M677.6,493.4c2.3-0.2,4.4-1.4,5.8-3.4c0.4-0.5,0.1-1.4-0.5-1.7c-0.6-0.3-1.3-0.1-1.7,0.5c-0.1,0.1-0.1,0.2-0.2,0.3
		c0,0,0.2-0.2,0.1-0.1c0,0-0.1,0.1-0.1,0.1c-0.1,0.2-0.3,0.3-0.4,0.5c-0.1,0.1-0.2,0.2-0.3,0.2c0,0-0.1,0.1-0.1,0.1
		c-0.1,0.1,0.2-0.2,0.1,0s-0.4,0.3-0.6,0.4c-0.2,0.1-0.4,0.2-0.6,0.3c0,0-0.1,0-0.2,0.1c0,0,0.3-0.1,0.1,0c-0.1,0-0.2,0.1-0.3,0.1
		c-0.2,0.1-0.4,0.1-0.6,0.2c-0.1,0-0.2,0-0.3,0.1c-0.2,0,0.1,0,0.1,0c0,0-0.2,0-0.2,0c-0.3,0-0.6,0.1-0.9,0.4
		c-0.2,0.2-0.4,0.6-0.4,0.9C676.4,492.8,676.9,493.5,677.6,493.4L677.6,493.4L677.6,493.4z"/>
	<path d="M807.2,669.6c1.1-1.1,1.6-2.8,1.5-4.3c-0.1-1.8-0.8-3.4-1.6-5c-0.3-0.6-1.2-0.8-1.7-0.5c-0.6,0.4-0.8,1.1-0.5,1.7
		s0.5,1.2,0.8,1.8c0.1,0.3,0.2,0.7,0.3,1.1c0,0.2,0.1,0.4,0.1,0.5c0,0.2,0,0.2,0,0.1c0,0.1,0,0.1,0,0.2c0,0.3,0,0.6,0,0.9
		c0,0.1,0,0.2,0,0.2c0-0.1,0-0.1,0,0c0,0.1-0.1,0.3-0.1,0.4c-0.1,0.5-0.3,0.8-0.7,1.2c-0.5,0.5-0.5,1.3,0,1.8
		S806.7,670.1,807.2,669.6L807.2,669.6L807.2,669.6z"/>
	<path d="M422.8,902c3.4-6.6,9.7-11.1,13.8-17.2c3.7-5.4,7.5-14.3,2.6-20c-1-1.2-2.8,0.5-1.8,1.8c2.1,2.5,1.7,6.1,0.9,9
		c-1,3.5-2.8,6.8-5.1,9.7c-4.1,5.2-9.5,9.5-12.6,15.5C419.9,902.1,422.1,903.4,422.8,902L422.8,902L422.8,902z"/>
	<path d="M413.8,699.7c0.1,0.1,0.2,0.2,0.3,0.3c0,0.1,0.3,0.4,0.2,0.2c0.2,0.2,0.4,0.5,0.5,0.8c0.3,0.5,0.6,1.1,0.9,1.7
		c0,0.1,0.1,0.1,0.1,0.2c0.1,0.2-0.1-0.2,0,0c0,0.1,0.1,0.3,0.2,0.4c0.1,0.3,0.2,0.6,0.3,0.9c0.2,0.6,0.3,1.2,0.4,1.8s1,1.1,1.5,0.9
		c0.7-0.2,1-0.8,0.9-1.5c-0.4-2.8-1.6-5.3-3.5-7.4c-0.4-0.5-1.3-0.5-1.8,0C413.3,698.4,413.3,699.1,413.8,699.7L413.8,699.7
		L413.8,699.7z"/>
	<path d="M316.9,673.1c3,1.3,6.2,2.2,9.4,2.7c0.7,0.1,1.3-0.2,1.5-0.9c0.2-0.6-0.2-1.4-0.9-1.5c-3-0.4-6-1.2-8.8-2.4
		c-0.6-0.3-1.3-0.2-1.7,0.5C316.2,672,316.3,672.9,316.9,673.1L316.9,673.1L316.9,673.1z"/>
	<path d="M322.3,611.9c-4.6-3.9-2.3-10.5,0.2-14.9c1.6-2.8,3.3-5.4,4.6-8.3s2.3-5.7,3.1-8.7c1.7-6.6,1.8-13.3,1.2-20.1
		s-1.5-13.4-1.4-20.1s1.3-13.8,5-19.6c0.9-1.3-1.3-2.6-2.2-1.3c-7.3,11.3-5.4,25.3-4.2,38c0.7,7.2,1,14.4-0.7,21.5
		c-0.8,3.3-1.9,6.6-3.4,9.7c-1.4,2.8-3.2,5.5-4.7,8.3c-2.8,5.2-4.5,12.7,0.6,17.2C321.7,614.7,323.5,613,322.3,611.9L322.3,611.9
		L322.3,611.9z"/>
	<path d="M305.7,503.2c-0.4-3.6,1.7-6.8,2.9-10.1c1.1-3.1,1.2-6.5-0.9-9.2c-4.5-5.7-12.7-3.8-18.9-5.2c-1.9-0.4-3.8-1.2-5.1-2.8
		c-1.5-1.8-2-4.3-2.5-6.6l-1.5,1.5c5.6,1.6,11.3,3.1,17.2,3.6c5.5,0.5,11,0.6,16.1,2.8c9.1,3.9,15.5,12.2,18.4,21.5
		c1.8,5.9,2.2,12.2,1.7,18.3c-0.1,1.6,2.4,1.6,2.5,0c1-10.9-1.2-22.5-8-31.3c-3-3.9-6.6-7.2-10.9-9.5c-4.8-2.6-10-3.6-15.5-4
		c-3.5-0.3-7-0.5-10.5-1.2s-6.8-1.7-10.2-2.6c-1-0.3-1.7,0.6-1.5,1.5c0.8,3.7,1.9,7.4,5.4,9.5c3,1.9,6.7,2.1,10.1,2.3
		c3.2,0.1,6.6,0.3,9.5,2c3.1,1.8,3.7,4.9,2.7,8.2c-1.2,3.7-3.5,7.2-3.1,11.3C303.3,504.8,305.8,504.8,305.7,503.2L305.7,503.2
		L305.7,503.2z"/>
	<path d="M224.5,512.9c1.8-1,3.2-2.7,3.1-4.8c-0.1-2.4-1.8-4.1-3.6-5.4c-2-1.4-2.6-4.2-3.1-6.5s-0.9-4.5-1.7-6.6s-1.9-4.1-3.6-5.5
		s-4-2.6-6.1-3.6c-4.1-2-8.5-3.6-12.7-5.7s-7.6-4.5-10-8.3s-4.4-7.6-5.5-12c-1-4.1-0.9-8.5,1.2-12.3c1.1-2,2.8-3.8,4.7-5
		c2.3-1.4,4.7-2.4,7.1-3.5c4.1-1.8,9.8-4.4,10.6-9.4c0.4-2.6-0.8-5-2.3-6.9c-0.8-1-1.9-1.9-2.5-3c-0.6-1-0.7-2.2-0.7-3.4
		c0-2.3,0.6-4.6,0.6-7c0-0.9,0-2-0.4-2.8s-1.1-1.5-1.8-2.1c-2.8-2.2-6.8-2.9-10.3-2.2c-1.5,0.3-3.1,0.9-4.2,2
		c-1.4,1.4-2.3,3.7-3,5.5c-1.9,4.7-2.6,9.8-3.8,14.7c-0.6,2.4-1.3,4.8-2.4,7c-0.5,1-1.1,1.9-1.7,2.8c-0.7,1-1.8,1.3-2.9,1.6
		c-3.6,1-7.2,0.3-10.4-1.5c-7.1-4-11.9-11.1-17.4-16.9c-1.1-1.2-2.7-3.4-4.3-3.7c-1.8-0.3-3.7,0.1-5.2,1.1c-3.1,1.9-4.3,5.6-5.3,8.9
		c-0.5,1.8-1,3.5-1.5,5.3c-0.5,1.5,1.9,2.2,2.4,0.7c1-3.1,1.5-6.3,2.9-9.3s3.5-4.5,6.9-4.2l-0.9-0.4c5.3,4.8,9.5,10.8,14.7,15.7
		c4.8,4.5,10.9,8.3,17.8,6.9c1.7-0.4,3.8-0.9,4.9-2.3c1.3-1.6,2.3-3.4,3.1-5.3c1.7-4,2.4-8.3,3.3-12.5c0.5-2.2,1-4.4,1.8-6.5
		c0.6-1.9,1.4-4,2.7-5.6c1.7-2.1,5.4-2.1,7.8-1.6c1.5,0.3,2.9,1,4,2c1.3,1.3,0.8,3.3,0.6,5c-0.2,2-0.6,4.1-0.3,6.1
		c0.1,0.9,0.3,1.8,0.7,2.6c0.5,1.1,1.3,1.8,2.1,2.7c1.5,1.7,3.2,4.1,2.5,6.5c-0.6,2.2-2.9,3.7-4.7,4.8c-3.9,2.3-8.2,3.6-12,6
		c-6.9,4.3-8.5,12.9-6.6,20.2s6.1,14.8,12.5,19c6.8,4.5,14.9,6.3,21.7,10.8c3.6,2.4,4.3,6.8,5.2,10.7c0.5,2.1,1.1,4.1,2,6
		c0.4,0.9,1,1.6,1.7,2.1s1.7,1,2.3,1.9c1.3,1.9,0.9,3.5-1.1,4.6C221.8,511.5,223.1,513.7,224.5,512.9L224.5,512.9L224.5,512.9z"/>
	<path d="M24.2,584.4c0.4,0.4-3.4,2.2-3.8,2.5c-0.6,0.5-1,1.1-1.1,1.9c-0.2,1.2,0.6,1.8,1.4,2.5l10.7,10.5
		c6.5,6.3,13.1,12.9,21.4,16.8c4,1.9,8.4,3.1,12.8,3.2c3.4,0.1,8.7-0.3,9.2-4.6c0.5-3.8-3.1-6.9-6.1-8.6c-3.5-1.9-7.5-2.6-11.3-3.5
		c-3.6-0.8-7.1-1.9-10-4.3c-1.3-1.1-2.5-2.4-3.1-4c-0.5-1.3-1.2-4.1,0.7-4.5c1.7-0.3,3.8,0.1,5.5,0.5c1.8,0.4,3.6,1,5.3,1.8
		c3.4,1.5,6.7,3.4,10,5.1c3.3,1.8,6.6,3.3,10.2,4.3c1.8,0.5,3.7,0.8,5.5,0.8c2.5,0.1,5-0.3,7.5-0.1c4.9,0.3,9.3,3.4,13.5,5.7
		l13.4,7.3l27,14.7c7.6,4.1,16.1,9.5,25.1,8.5c2-0.2,3.9-0.8,5.7-1.6c0.6-0.3,0.7-1.2,0.4-1.7c-3.4-7-9-12.2-15.6-16.3
		c-7-4.3-14-8.3-20.8-12.9s-13.4-9.4-19.8-14.6c-3.1-2.5-6.4-5-9.3-7.8c-1.2-1.2-2.4-2.5-2.9-4.2c-0.5-1.9,0.6-3.4,1.7-4.8
		c4.6-5.9,6.4-13.1,8.3-20.2c2-7.7,4.7-15.1,8.2-22.2c1.8-3.6,3.8-7.1,6-10.5c2.2-3.4,4.6-6.7,6.2-10.4c1.6-3.7,2.6-7.4,4.4-10.9
		c1.6-3.1,3.7-5.9,6.1-8.5s5.1-4.7,8.1-6.5c2.8-1.6,6.2-2.8,7.9-5.7c1.5-2.6,0.9-5.9-0.8-8.2c-2-2.6-5.2-3.6-8.4-3.1
		c-1.7,0.2-3.3,0.9-4.7,1.9l1.7,0.5c-1.5-2.8-3.7-5-6.4-6.5l-0.3,2.3c3.7-1.6,6.8-4.1,9-7.5c0.9-1.4-1.3-2.6-2.2-1.3
		c-1.8,2.8-4.4,5.1-7.5,6.4c-0.9,0.4-1.3,1.7-0.3,2.3c2.4,1.3,4.3,3.2,5.5,5.6c0.3,0.6,1.2,0.8,1.7,0.5c2.7-1.8,6.6-2.5,9.2-0.1
		c2.3,2.1,2.5,5.6,0,7.6c-1.3,1.1-2.9,1.8-4.3,2.6s-2.9,1.7-4.3,2.7c-2.7,2-5.2,4.3-7.4,6.9s-4,5.4-5.5,8.5
		c-1.7,3.5-2.6,7.2-4.3,10.7c-1.7,3.5-4.1,6.8-6.2,10.1s-4.1,6.8-5.8,10.4c-3.4,6.9-6,14.1-8,21.6c-1.9,7.1-3.6,14.1-8.1,20
		c-1,1.3-1.9,2.6-2.1,4.3s0.3,3.2,1.1,4.6c1.9,3.1,5.1,5.3,7.8,7.6c6.1,5.1,12.4,9.9,18.9,14.5s13.4,9,20.3,13.1s13.4,7.7,17.9,14.2
		c1.1,1.5,2,3.1,2.8,4.8l0.4-1.7c-7.8,3.7-16.7-0.6-23.6-4.3c-8.5-4.5-16.9-9.2-25.3-13.8s-16.7-9.2-25.1-13.7
		c-1.9-1-3.8-1.9-5.9-2.5c-2.2-0.6-4.4-0.7-6.7-0.6s-4.3,0.2-6.4-0.1c-1.7-0.2-3.4-0.7-5-1.3c-6.7-2.3-12.5-6.6-19.1-9.2
		c-3.1-1.2-6.5-2.2-9.9-2c-1.7,0.1-3.3,0.8-3.8,2.6c-0.5,1.5-0.2,3.2,0.2,4.7c2.2,6.7,9.8,9.2,16,10.7c3.6,0.8,7.3,1.5,10.5,3.5
		c1.6,1,3.1,2.2,3.8,4c0.8,2-0.3,3.4-2.3,3.8c-4,0.9-8.6,0-12.4-1.3c-4.1-1.4-7.9-3.6-11.3-6.1c-7.2-5.3-13.3-12-19.6-18.2l-5.1-5
		l0.4,0.9c0-0.8,1.1-1.1,1.7-1.4c0.8-0.3,1.5-0.7,2.1-1.2c1.2-1.2,1.6-2.9,0.4-4.1C24.8,581.4,23,583.2,24.2,584.4L24.2,584.4
		L24.2,584.4z"/>
	<path d="M125.6,424c-0.8,3.8,2.2,7.2,4.2,10.2c2.1,3.3,4.3,6.5,6.8,9.6s5,5.6,7.7,8.3c2.5,2.4,4.9,5,5.8,8.5
		c0.4,1.5,2.8,0.9,2.4-0.7c-1.8-6.7-8.2-10.8-12.5-15.8c-2.5-2.9-4.7-6.1-6.9-9.3c-1.1-1.6-2.1-3.3-3.2-4.9c-1-1.5-2.4-3.3-2-5.2
		C128.4,423.1,126,422.4,125.6,424L125.6,424L125.6,424z"/>
	<path d="M599,984.1c3-0.1,4.7-2.3,5.7-4.9c0.6-1.5,1.1-2.9,1.1-4.5c0-2,0.2-4,0.5-6s0.8-3.8,1.4-5.7c0.3-0.9,0.5-1.8,1-2.6
		c0.5-1,1.2-1.9,1.9-2.8c2.3-3.3,4.9-6.5,7.5-9.5c5.2-6,10.9-11.5,16.4-17.1c5.9-6,11.2-12.5,16.5-19.1c6.1-7.5,12-15.1,17.7-22.9
		c1-1.3-1.2-2.5-2.2-1.3c-4.9,6.7-10,13.3-15.3,19.8s-10.3,13-16,18.9c-5.4,5.6-11,11-16.2,16.7c-2.6,2.8-5.1,5.7-7.5,8.7
		c-1.2,1.5-2.3,3.1-3.5,4.7c-0.5,0.8-1.1,1.6-1.6,2.4s-0.8,1.8-1,2.7c-1.4,4-2.1,8.3-2.2,12.5c-0.1,2.4-1.2,7.3-4.3,7.3
		C597.4,981.6,597.4,984.1,599,984.1L599,984.1L599,984.1z"/>
	<path d="M717.8,836.4c19.1-22.7,38.4-45.2,56.3-68.9c4.8-6.3,9-12.9,12.4-20c0.7-1.4-1.5-2.7-2.2-1.3
		c-6.2,12.9-15.3,24.1-24.2,35.2c-9.2,11.5-18.6,22.8-28,34c-5.3,6.4-10.7,12.7-16.1,19.1C715,835.8,716.8,837.6,717.8,836.4
		L717.8,836.4L717.8,836.4z"/>
	<path d="M669.8,887.6c1.8-7.2,9.3-9.6,15.6-11.7c3.4-1.2,6.8-2.3,9.9-4.2c3.5-2.1,6.4-5,8.7-8.3c2.7-3.8,4.5-8,6.2-12.3
		c0.6-1.5-1.8-2.2-2.4-0.7c-3,7.6-7,15.1-14.3,19.4c-6.1,3.6-13.5,4.3-19.5,8.2c-3.3,2.1-5.7,5.1-6.7,8.9
		C667,888.5,669.4,889.2,669.8,887.6L669.8,887.6L669.8,887.6z"/>
	<path d="M802.7,713.2c0-0.1,0-0.2,0-0.3c0,0.1,0,0.1,0,0c0,0,0.1-0.3,0-0.2c0.1-0.2,0.2-0.3,0.5-0.5c0.2-0.2,0.8-0.4,1.1-0.4
		c0.6-0.1,1,0,1.5,0.4s1,0.9,1.4,1.4c0.9,1.3,1.4,2.8,2.1,4.3c0.7,1.5,1.7,2.9,3.1,3.9c0.6,0.4,1.4,0.1,1.7-0.5
		c0.4-0.6,0.1-1.3-0.5-1.7c-1.5-1-2.1-2.8-2.8-4.3c-0.7-1.7-1.5-3.4-2.9-4.6s-3.2-1.7-4.9-1.1c-1.6,0.5-3,1.9-2.9,3.7
		C800.2,714.8,802.7,714.8,802.7,713.2L802.7,713.2L802.7,713.2z"/>
	<path d="M788.3,743.3c5.4-8,9.9-16.6,13.3-25.7c0.6-1.5-1.8-2.2-2.4-0.7c-3.4,8.8-7.8,17.2-13.1,25.1
		C785.3,743.4,787.4,744.7,788.3,743.3L788.3,743.3L788.3,743.3z"/>
	<path d="M711.3,848.3c0.2-0.8,0.4-1.5,0.7-2.2c0-0.1,0.1-0.3,0-0.1c0-0.1,0.1-0.2,0.1-0.3c0.1-0.2,0.2-0.3,0.2-0.5
		c0.2-0.4,0.4-0.7,0.6-1c0.2-0.3,0.4-0.6,0.7-0.9c0.1-0.1,0,0.1,0.1-0.1c0-0.1,0.1-0.1,0.2-0.2c0.1-0.2,0.3-0.3,0.4-0.5
		c0.5-0.6,1.1-1.1,1.8-1.6c0.5-0.4,0.4-1.3,0-1.8c-0.5-0.5-1.2-0.4-1.8,0c-2.7,2.1-4.7,5.3-5.4,8.7c-0.1,0.6,0.2,1.4,0.9,1.5
		C710.4,849.3,711.1,849,711.3,848.3L711.3,848.3L711.3,848.3z"/>
	<path d="M657.7,896.6c-4.1-0.8-7.7-3.2-9.9-6.8c-2.5-4.2-2.3-9.3-2.8-14c-0.9-9-3.5-17.9-7.5-26c-2-4.1-4.4-8.1-7.2-11.8
		s-5.9-6.6-8.4-10.3c-1.9-2.8-4.5-7.5-1.2-10.3c1.6-1.3,3.9-1.4,5.8-1.2c2.4,0.2,4.8,0.8,7.2,1.2l16.1,3c5.3,1,10.6,2.1,15.9,2.3
		s10.2-0.7,15-2.6c4.6-1.8,9-4.1,13.5-6.3c8.8-4.3,17.5-8.7,25.6-14c7.7-5,14.7-10.9,21.1-17.5c11.1-11.5,21.3-25.5,36.4-32.2
		c1.8-0.8,3.7-1.5,5.6-2c1.5-0.4,0.9-2.8-0.7-2.4c-16.5,4.6-27.8,18.2-38.9,30.3c-6.2,6.7-12.7,13.1-20.1,18.4
		c-8.2,5.9-17.2,10.7-26.2,15.2c-4.5,2.2-9,4.5-13.6,6.6c-5,2.3-10.1,4-15.7,4.1s-11.2-1-16.7-2.1l-16.4-3.1
		c-4.3-0.8-9.5-2.5-13.7-0.8c-3.8,1.5-5.2,5.5-4.1,9.3c1.2,4.1,4.1,7.4,6.9,10.5c3.2,3.5,6,7.4,8.5,11.5c4.8,8.1,8.1,17.1,9.6,26.4
		c0.8,4.9,0.5,10.1,1.9,15c1.2,4.1,3.8,7.6,7.4,9.8c1.8,1.1,3.7,1.8,5.7,2.2C658.6,899.3,659.3,896.9,657.7,896.6L657.7,896.6
		L657.7,896.6z"/>
</g>
</svg>
