<?xml version="1.0" encoding="UTF-8"?><svg xmlns="http://www.w3.org/2000/svg" viewBox="0 0 961.65 1067.15"><defs><style>.cls-1{opacity:.35;}.cls-2{fill:#fbbb0e;}.cls-3{fill:none;stroke:#010101;stroke-linecap:round;stroke-linejoin:round;stroke-width:.75px;}</style></defs><g id="Nelson_Mandela"><path class="cls-2" d="M427.24,814.31c-.18,5.09,1.47,10.67,4.09,15l3.91,5.06c.1,.13,.2,.26,.32,.38,.18,.18,.37,.34,.56,.5,1.54,1.3,3.66,3.09,5.38,4.13,.23,.14,.46,.26,.69,.38,5.4,2.84,9.05,3.64,15.16,4.05,3.23,.22,6.65-.27,9.7-1.34,5.38-1.9,9.42-4.14,13.58-8.19,2.43-2.36,4.46-5.21,6.27-8.07,1.67-2.64,2.97-5.46,4.88-7.95l-3.91,5.06c2.57-3.27,5.67-6.04,8.83-8.73,3.64-3.1,7.3-6.19,10.95-9.28l10.91-9.24c.72-.61,1.46-1.21,2.13-1.89,1.69-1.73,3.12-3.83,4.54-5.77,.3-.41,.56-.82,.8-1.27-.02,.04,2.36-4.85,2.87-6.98,.04-.16,.05-.33,.09-.49,.27-1.3,.85-5.45,.91-6.81,.02-.44,.01-.84-.03-1.28-.13-1.53-.6-5.32-.92-6.8-.06-.26-.1-.52-.18-.78-.7-2.35-1.83-4.7-2.86-6.9-.2-.42-.4-.83-.63-1.23-.49-.85-1.06-1.64-1.65-2.43-1.29-1.74-2.64-3.43-3.54-5.41l2.52,5.97c-.84-2-1.27-4.1-1.71-6.22-.84-4.02-2.24-7.31-3.98-11.19-.37-.82-.78-1.62-1.3-2.36-1.61-2.31-3.21-4.72-5.27-6.66-3.84-3.61-9.57-7.6-14.93-8.32-3.32-1.04-6.65-1.19-9.97-.45-3.33,.15-6.43,1.14-9.29,2.97-2.91,1.57-5.25,3.72-7.01,6.44-2.21,2.41-3.7,5.25-4.47,8.5l-.89,6.65c.01,4.51,1.15,8.72,3.41,12.62l3.91,5.06c3.12,3.1,6.8,5.24,11.03,6.43,.57,.08,1.11,.21,1.65,.41l-5.97-2.52c.63,.27,1.19,.61,1.73,1.03l-5.06-3.91c.54,.45,1.01,.94,1.46,1.48l-3.91-5.06c.74,.96,1.32,1.99,1.8,3.09l-2.52-5.97c.77,1.9,1.15,3.9,1.57,5.9,.84,4.04,2.26,7.53,4.05,11.34,1.54,3.28,4.31,5.78,5.81,9.06l-2.52-5.97c.25,.61,.44,1.22,.55,1.87l-.89-6.65c.05,.43,.06,.84,.03,1.28l.89-6.65c-.08,.59-.23,1.11-.46,1.66l2.52-5.97c-.23,.45-.49,.86-.8,1.27l3.91-5.06c-1.49,1.77-3.45,3.18-5.21,4.67l-6.02,5.1-11.85,10.04c-3.46,2.93-6.97,5.85-9.85,9.38-2.63,3.23-5.25,6.47-7.28,10.11-.97,1.73-1.89,3.49-3.08,5.09l3.91-5.06c-.67,.87-1.41,1.64-2.27,2.33l5.06-3.91c-.5,.37-1.01,.68-1.59,.93l5.97-2.52c-.54,.2-1.07,.33-1.64,.41l6.65-.89c-.67,.07-1.32,.06-1.98-.02l6.65,.89c-.65-.1-1.25-.27-1.86-.52l5.97,2.52c-.4-.19-.77-.4-1.13-.66l5.06,3.91c-.33-.27-.62-.55-.88-.88l3.91,5.06c-.14-.21-.26-.41-.37-.63l2.52,5.97c-.13-.31-.22-.62-.28-.95l.89,6.65c-.03-.27-.04-.52-.03-.8,.13-3.44-.59-6.65-2.15-9.63-1.01-3.1-2.73-5.78-5.17-8.05-2.26-2.44-4.95-4.16-8.05-5.17-2.98-1.57-6.19-2.28-9.63-2.15l-6.65,.89c-4.24,1.19-7.91,3.33-11.03,6.43l-3.91,5.06c-2.26,3.9-3.4,8.11-3.41,12.62h0Z"/><path class="cls-2" d="M507.16,712.81c1.63-3.22,3.58-6.24,5.77-9.11l-3.91,5.06c7.76-10,17.95-17.66,27.33-26.03s18.71-17.87,27.3-27.53c18.56-20.85,35.13-43.42,51.62-65.92,8.71-11.89,17.41-23.79,26.42-35.46l-3.91,5.06c10.35-13.38,21.11-26.47,32.75-38.75,12.19-12.87,25.35-24.8,37.38-37.83,8.09-8.77,15.67-18.1,22.37-27.97l2.52-5.97c1.04-3.32,1.19-6.65,.45-9.97,0-2.26-.58-4.36-1.71-6.31-1.01-3.1-2.73-5.78-5.17-8.05l-5.06-3.91-5.97-2.52c-3.32-1.04-6.65-1.19-9.97-.45-3.33,.15-6.43,1.14-9.29,2.97l-70.23,42.62c-10.77,6.54-21.64,12.97-32.09,20.02-11.73,7.91-23.23,16.55-33.21,26.61-8.14,8.2-15.43,17.31-24.58,24.45l5.06-3.91c-3.45,2.66-7.14,4.98-11.16,6.69l5.97-2.52c-2.82,1.16-5.74,1.99-8.75,2.43l6.65-.89c-.44,.06-.88,.11-1.33,.16l25,25c.04-1.25,.14-2.48,.3-3.71l-.89,6.65c.43-3,1.22-5.91,2.37-8.71l-2.52,5.97c.56-1.31,1.19-2.58,1.89-3.82,4.42-7.81,4.56-17.44,0-25.24-4.41-7.54-12.8-12.48-21.59-12.38-.58,0-1.15-.02-1.72-.09l6.65,.89c-.86-.13-1.67-.34-2.48-.67l5.97,2.52c-.77-.34-1.47-.75-2.15-1.24l5.06,3.91c-.85-.66-1.58-1.41-2.25-2.25l3.91,5.06c-.98-1.28-1.75-2.68-2.4-4.16l2.52,5.97c-1.18-2.8-1.87-5.75-2.3-8.76l.89,6.65c-.35-2.62-.49-5.26-.43-7.91,.21-8.75-4.92-17.22-12.38-21.59-3.9-2.26-8.11-3.4-12.62-3.41-4.51,.01-8.72,1.15-12.62,3.41-18.48,13.75-36.54,28.07-53.99,43.1-15.9,13.71-31.31,27.98-46.19,42.8-8.4,8.36-16.62,16.9-24.67,25.6-4.27,4.61-7.61,11.21-7.32,17.68l.89,6.65c.77,3.25,2.27,6.09,4.47,8.5,1.11,1.88,2.61,3.37,4.48,4.48,2.41,2.21,5.25,3.7,8.5,4.47,6.24,1.42,13.82,1.31,19.26-2.52l69.72-49.02,19.92-14.01-30.3-39.26-51.4,65.2-14.5,18.39c-2.44,2.26-4.16,4.95-5.17,8.05-1.57,2.98-2.28,6.19-2.15,9.63-.13,3.44,.59,6.65,2.15,9.63,1.01,3.1,2.73,5.78,5.17,8.05,4.76,4.37,11.02,7.62,17.68,7.32s13.07-2.46,17.68-7.32c16.87-17.8,34.79-34.59,53.66-50.24,5.37-4.45,10.82-8.81,16.34-13.08l-5.06,3.91c1.34-1.04,2.69-2.07,4.04-3.1l-34.2-34.2c-6.07,9.03-12.52,17.8-19.17,26.42l3.91-5.06c-7.85,10.15-15.97,20.09-24.1,30.02-2.44,2.26-4.16,4.95-5.17,8.05-1.57,2.98-2.28,6.19-2.15,9.63-.13,3.44,.59,6.65,2.15,9.63,1.01,3.1,2.73,5.78,5.17,8.05,4.76,4.37,11.02,7.62,17.68,7.32,6.51-.29,13.1-2.44,17.68-7.32,13.79-14.7,27.71-29.43,43.67-41.81l-5.06,3.91c8.61-6.64,17.78-12.53,27.62-17.18l-30.3-39.26-62.92,69.32-17.98,19.81,35.36,35.36c16.32-18.86,33.83-36.69,52.41-53.34,5.26-4.71,10.6-9.32,16.02-13.84l-35.36-35.36c-15.32,16.66-31,32.97-47.05,48.93-4.6,4.58-9.24,9.12-13.9,13.64l35.36,35.36c21.53-24.52,44.88-47.43,69.83-68.47,7.09-5.98,14.3-11.8,21.64-17.47l-5.06,3.91c1.03-.79,2.06-1.58,3.09-2.37l-34.2-34.2-14.48,28.05c-1.83,2.87-2.82,5.97-2.97,9.29-.74,3.32-.6,6.65,.45,9.97,.77,3.25,2.27,6.09,4.47,8.5,1.76,2.72,4.1,4.87,7.01,6.44,5.8,3.07,12.83,4.6,19.26,2.52,6.01-1.95,11.95-5.7,14.94-11.49l14.48-28.05,2.52-5.97c1.04-3.32,1.19-6.65,.45-9.97,0-2.26-.58-4.36-1.71-6.31-1.01-3.1-2.73-5.78-5.17-8.05l-5.06-3.91-5.97-2.52c-3.32-1.04-6.65-1.19-9.97-.45-3.33,.15-6.43,1.14-9.29,2.97-28.48,21.75-55.45,45.22-80.26,71.1-6.61,6.89-13.06,13.93-19.36,21.11-2.44,2.26-4.16,4.95-5.17,8.05-1.57,2.98-2.28,6.19-2.15,9.63-.13,3.44,.59,6.65,2.15,9.63,1.01,3.1,2.73,5.78,5.17,8.05,4.76,4.37,11.02,7.62,17.68,7.32s12.79-2.59,17.68-7.32c16.25-15.75,32.15-31.85,47.68-48.31,4.46-4.72,8.88-9.48,13.27-14.26s7.32-10.99,7.32-17.68c.13-3.44-.59-6.65-2.15-9.63-1.01-3.1-2.73-5.78-5.17-8.05-4.76-4.37-11.02-7.62-17.68-7.32l-6.65,.89c-4.24,1.19-7.91,3.33-11.03,6.43-19.16,15.97-37.31,33.15-54.29,51.42-4.81,5.17-9.52,10.43-14.14,15.77-2.44,2.26-4.16,4.95-5.17,8.05-1.57,2.98-2.28,6.19-2.15,9.63-.13,3.44,.59,6.65,2.15,9.63,1.01,3.1,2.73,5.78,5.17,8.05,4.76,4.37,11.02,7.62,17.68,7.32s13.21-2.4,17.68-7.32l62.92-69.32,17.98-19.81c4.25-4.68,7.62-11.14,7.32-17.68l-.89-6.65c-.77-3.25-2.27-6.09-4.47-8.5-1.11-1.88-2.61-3.37-4.48-4.48-2.41-2.21-5.25-3.7-8.5-4.47l-6.65-.89c-4.51,.01-8.72,1.15-12.62,3.41-12.77,6.03-24.13,14.22-35.12,23.01-9.51,7.6-18.32,16.05-26.82,24.75-4.87,4.98-9.64,10.06-14.41,15.14l35.36,35.36c16.35-19.99,32.76-40.04,47.18-61.49l2.52-5.97c1.04-3.32,1.19-6.65,.45-9.97,0-2.26-.58-4.36-1.71-6.31-1.01-3.1-2.73-5.78-5.17-8.05l-5.06-3.91-5.97-2.52c-3.32-1.04-6.65-1.19-9.97-.45-3.33,.15-6.43,1.14-9.29,2.97-22.29,16.95-43.66,34.95-63.64,54.58-5.25,5.15-10.4,10.41-15.46,15.74l35.36,35.36,51.4-65.2,14.5-18.39c2.44-2.26,4.16-4.95,5.17-8.05,1.57-2.98,2.28-6.19,2.15-9.63l-.89-6.65c-.77-3.25-2.27-6.09-4.47-8.5-1.11-1.88-2.61-3.37-4.48-4.48-2.41-2.21-5.25-3.7-8.5-4.47-6.24-1.42-13.82-1.31-19.26,2.52l-69.72,49.02-19.92,14.01,30.3,39.26c12.81-13.83,26.05-27.25,39.72-40.23s27.76-25.51,42.24-37.58c8.17-6.81,16.47-13.47,24.89-19.97l-5.06,3.91c4.28-3.31,8.6-6.58,12.94-9.81l-37.62-21.59c-.12,5.14,.64,10.25,1.43,15.32,.79,5.06,2.72,9.63,4.85,14.29,.57,1.26,1.24,2.45,2.06,3.57,1.85,2.54,3.81,5.53,6.36,7.57,4.86,3.89,7.58,5.82,13.62,7.84,3.3,1.11,6.93,1.52,10.4,1.48l-21.59-37.62c-1.24,2.19-2.17,4.48-3.15,6.8s-1.98,4.59-2.66,7.01c-.38,1.37-.68,2.76-.9,4.16-.56,3.59-1.15,7.24-1.26,10.89-.13,3.44,.59,6.65,2.15,9.63,1.01,3.1,2.73,5.78,5.17,8.05l5.06,3.91c3.9,2.26,8.11,3.4,12.62,3.41,4.51-.48,9.14-.94,13.5-2.3s8.25-3.07,12.12-5.07c6.1-3.13,11.61-7.61,16.74-12.08,7.6-6.64,14.03-14.46,21.13-21.61,4.86-4.9,10.09-9.4,15.53-13.63l-5.06,3.91c13.13-10.13,27.42-18.6,41.58-27.19l46.82-28.42,26.53-16.1-34.2-34.2c-1.91,2.81-3.9,5.55-5.97,8.24l3.91-5.06c-16.92,21.83-38.4,39.54-56.81,60.04-19.03,21.19-35.96,44.22-52.78,67.17-8.81,12.01-17.59,24.04-26.69,35.83l3.91-5.06c-10.21,13.2-20.82,26.11-32.29,38.24-5.61,5.93-11.43,11.68-17.47,17.17s-12.47,10.63-18.47,16.2c-3.26,3.02-6.4,6.19-9.24,9.62-4.16,5.03-8.25,10.24-11.21,16.09-1.83,2.87-2.82,5.97-2.97,9.29-.74,3.32-.6,6.65,.45,9.97,.77,3.25,2.27,6.09,4.47,8.5,1.76,2.72,4.1,4.87,7.01,6.44,5.8,3.07,12.83,4.6,19.26,2.52,5.99-1.94,12.01-5.69,14.94-11.49h0Z"/><path class="cls-2" d="M515.09,698.17c-.04-.17-.06-.34-.09-.51l.89,6.65c-.05-.5-.04-.99,.02-1.49l-.89,6.65c.08-.49,.21-.95,.38-1.41l-2.52,5.97c.3-.7,.68-1.34,1.14-1.95l-3.91,5.06c.68-.85,1.45-1.58,2.3-2.25l-5.06,3.91c2.65-2.03,5.82-3.08,8.66-4.78,2.42-1.45,4.57-3.33,6.78-5.06,.59-.46,1.15-.95,1.65-1.5,.14-.15,.26-.31,.39-.46,1.32-1.59,2.95-3.65,4.13-5.35,.21-.3,.4-.6,.57-.92,1.3-2.48,2.63-5.15,3.2-7.93,1.04-3.32,1.19-6.65,.45-9.97-.15-3.33-1.14-6.43-2.97-9.29-1.57-2.91-3.72-5.25-6.44-7.01-2.41-2.21-5.25-3.7-8.5-4.47l-6.65-.89c-4.51,.01-8.72,1.15-12.62,3.41l-5.06,3.91c-3.1,3.12-5.24,6.8-6.43,11.03-.1,.49-.24,.95-.42,1.42l2.52-5.97c-.26,.59-.58,1.14-.97,1.66l3.91-5.06c-.61,.78-1.33,1.45-2.12,2.06l5.06-3.91c-3.04,2.27-6.75,3.32-9.82,5.52-5.18,3.72-9.16,6.98-12.47,12.58-1.48,2.51-2.75,5.28-3.36,8.14-.53,2.47-.96,5.07-.99,7.62,0,.25,.02,.5,.04,.75,.2,2.33,.54,4.86,.98,7.16,.77,3.25,2.27,6.09,4.47,8.5,1.76,2.72,4.1,4.87,7.01,6.44,2.87,1.83,5.97,2.82,9.29,2.97,3.32,.74,6.65,.6,9.97-.45l5.97-2.52c3.76-2.22,6.75-5.21,8.97-8.97l2.52-5.97c1.19-4.43,1.19-8.86,0-13.29h0Z"/><path class="cls-2" d="M266.62,770.21l57.72-39.72,57.72-39.72,32.57-22.42c2.91-1.57,5.25-3.72,7.01-6.44,2.21-2.41,3.7-5.25,4.47-8.5,1.04-3.32,1.19-6.65,.45-9.97-.15-3.33-1.14-6.43-2.97-9.29l-3.91-5.06c-3.12-3.1-6.8-5.24-11.03-6.43l-6.65-.89c-4.51,.01-8.72,1.15-12.62,3.41-12.42,6.19-24.37,13.31-35.73,21.28-12.84,9.02-25.19,18.9-36.58,29.71-5.71,5.42-11.18,11.08-16.4,16.97l-3.91,5.06c-1.83,2.87-2.82,5.97-2.97,9.29-.6,2.22-.6,4.43,0,6.65,.15,3.33,1.14,6.43,2.97,9.29l3.91,5.06,5.06,3.91c2.87,1.83,5.97,2.82,9.29,2.97,3.32,.74,6.65,.6,9.97-.45,22.7-8.11,43.77-19.58,64.15-32.31,5.27-3.29,10.51-6.64,15.75-10l-30.3-39.26-52.61,50.47-14.77,14.17c-2.44,2.26-4.16,4.95-5.17,8.05-1.57,2.98-2.28,6.19-2.15,9.63-.13,3.44,.59,6.65,2.15,9.63,1.01,3.1,2.73,5.78,5.17,8.05,4.76,4.37,11.02,7.62,17.68,7.32l6.65-.89c4.24-1.19,7.91-3.33,11.03-6.43,7.7-6.99,15.67-13.68,23.9-20.05l-5.06,3.91c13-10.04,26.62-19.29,40.78-27.63,4.03-2.37,8.09-4.67,12.2-6.9l-30.3-39.26c-17.5,18.1-35.68,35.54-53.99,52.82-5.2,4.9-10.41,9.8-15.62,14.69-2.44,2.26-4.16,4.95-5.17,8.05-1.57,2.98-2.28,6.19-2.15,9.63l.89,6.65c.77,3.25,2.27,6.09,4.47,8.5,1.11,1.88,2.61,3.37,4.48,4.48,2.41,2.21,5.25,3.7,8.5,4.47l6.65,.89c4.51-.01,8.72-1.15,12.62-3.41l65.44-48.22,18.47-13.61-30.3-39.26c-17.75,21.74-37.34,41.97-58.53,60.39-5.92,5.15-11.97,10.15-18.13,15.01l35.36,35.36c12.04-11.77,24.61-23.01,37.66-33.65,3.71-3.03,7.47-6,11.25-8.93l-5.06,3.91c4.71-3.64,9.47-7.2,14.29-10.69,4.54-3.28,9.1-7.06,14.28-9.29l-5.97,2.52c1.25-.51,2.52-.9,3.86-1.11l-6.65,.89c.9-.11,1.76-.12,2.66-.02l-6.65-.89c.77,.12,1.48,.33,2.2,.63l-5.97-2.52c.24,.11,.48,.23,.71,.36l-5.06-39.26c-13.86,17.16-29.26,33.05-45.99,47.42-4.72,4.06-9.55,7.99-14.48,11.8l5.06-3.91c-6.61,5.11-13.39,9.98-20.33,14.63l34.2,34.2c.26-.33,.51-.67,.77-1l-3.91,5.06c10.02-12.94,21.31-24.88,33.68-35.59,3.49-3.02,7.06-5.94,10.71-8.77l-5.06,3.91c11.3-8.72,23.33-16.46,35.95-23.11l-34.2-8.97c.12,.22,.23,.45,.33,.68l-2.52-5.97c.27,.68,.46,1.36,.57,2.09l-.89-6.65c.08,.71,.07,1.4,0,2.12l.89-6.65c-.15,1.1-.46,2.15-.89,3.17l2.52-5.97c-.7,1.58-1.62,3.03-2.66,4.4l3.91-5.06c-2.47,3.17-5.54,5.8-8.49,8.5-3.22,2.94-6.45,5.86-9.71,8.77-6.57,5.86-13.2,11.64-19.91,17.33-3.82,3.24-7.65,6.45-11.51,9.64l39.26,30.3c1.35-1.98,2.75-3.91,4.2-5.81l-3.91,5.06c6.35-8.2,13.72-15.56,21.92-21.91l-5.06,3.91c8.32-6.41,17.43-11.74,27.11-15.83l-5.97,2.52c1.72-.72,3.45-1.4,5.19-2.04l-30.75-30.75c-.77,2.49-1.66,4.93-2.66,7.33l2.52-5.97c-2.68,6.31-6.15,12.24-10.34,17.66l3.91-5.06c-3.12,4-6.6,7.68-10.41,11.02l39.26,30.3c2.23-4.02,4.76-7.86,7.55-11.51l-3.91,5.06c4.88-6.32,10.54-11.99,16.84-16.89l-5.06,3.91c3.11-2.39,6.35-4.59,9.73-6.58l-36.72-14.94c.1,.51,.19,1.02,.27,1.54l-.89-6.65c.31,2.33,.3,4.67-.01,7l.89-6.65c-.33,2.2-.91,4.33-1.74,6.39l2.52-5.97c-.87,2.05-1.96,3.96-3.3,5.73l3.91-5.06c-.56,.72-1.15,1.41-1.78,2.07l41.78,11.03-.05-.38,.89,6.65c-.14-1.24-.12-2.47,.03-3.71l-.89,6.65c.22-1.46,.62-2.86,1.18-4.23l-2.52,5.97c1.06-2.5,2.53-4.76,4.17-6.91l-3.91,5.06c5.34-6.91,12.06-12.82,16.12-20.68,1.66-3.22,3.13-6.59,4.23-10.05,1.11-3.5,1.51-7.32,1.73-10.93,.04-.7,.04-1.4-.02-2.1-.27-2.89-.49-5.87-1.26-8.68-.09-.33-.2-.66-.32-.99-.78-2.16-1.8-4.54-2.79-6.62-.37-.77-.8-1.48-1.3-2.16-2.22-3.76-5.21-6.75-8.97-8.97-2.87-1.83-5.97-2.82-9.29-2.97-3.32-.74-6.65-.6-9.97,.45-4.24,1.19-7.91,3.33-11.03,6.43-.47,.47-.92,.95-1.35,1.46-1.72,2.07-3.48,4.21-4.94,6.48-.33,.52-.64,1.05-.91,1.61-1.18,2.43-2.25,4.97-3.17,7.52-.43,1.19-.7,2.42-.89,3.67-.5,3.37-1.14,6.82-1.1,10.25,.02,1.37,.13,2.73,.3,4.08,.43,3.52,.85,7.08,1.53,10.57,.57,2.95,1.29,5.86,1.99,8.78,.81,3.39,1.58,6.79,2.06,10.25l-.89-6.65c.43,3.2,.59,6.43,.18,9.65l.89-6.65c-.29,2.04-.81,4-1.6,5.9l2.52-5.97c-.76,1.73-1.72,3.34-2.87,4.84l3.91-5.06c-1.45,1.84-3.12,3.46-4.96,4.9l5.06-3.91c-3.43,2.64-7.28,4.64-11.26,6.32l5.97-2.52c-3.61,1.5-7.31,2.75-11.05,3.9-3.25,.77-6.09,2.27-8.5,4.47-2.72,1.76-4.87,4.1-6.44,7.01l-2.52,5.97c-1.04,3.32-1.19,6.65-.45,9.97,0,2.26,.58,4.36,1.71,6.31,1.01,3.1,2.73,5.78,5.17,8.05l5.06,3.91c3.9,2.26,8.11,3.4,12.62,3.41,8.64,.36,17.44-.7,25.89-2.47,8.41-1.76,16.53-5.04,24.22-8.81l-34.2-34.2-13.84,22.35-2.52,5.97c-1.04,3.32-1.19,6.65-.45,9.97,0,2.26,.58,4.36,1.71,6.31,1.01,3.1,2.73,5.78,5.17,8.05l5.06,3.91,5.97,2.52c3.32,1.04,6.65,1.19,9.97,.45,3.33-.15,6.43-1.14,9.29-2.97l11.48-6.9-30.3-39.26c-2.05,1.99-4.14,3.94-6.4,5.7l5.06-3.91c-2.02,1.54-4.15,2.91-6.49,3.9l5.97-2.52c-1.45,.58-2.92,1-4.47,1.22l6.65-.89c-1.3,.15-2.58,.15-3.87-.01l6.65,.89c-1.61-.23-3.15-.69-4.65-1.3l5.97,2.52c-2.59-1.1-4.98-2.58-7.37-4.04-4.23-2.58-8.44-4.47-13.12-6.32-1.29-.51-2.62-.9-3.98-1.18-3.42-.69-6.93-1.22-10.42-1.32-1.25-.04-2.49,.04-3.73,.19-3.32,.38-7,.72-10.32,1.65-4.54,1.26-8.97,3.22-13.11,5.48s-8.05,5.44-11.85,8.42c-4.74,3.72-8.97,8.04-12.89,12.6-4.32,5.01-8.32,10.3-12.47,15.45-4.45,5.52-8.93,11.01-13.44,16.48-9.03,10.93-18.18,21.75-27.47,32.46-10.45,12.05-21.06,23.95-31.84,35.71h35.36c-5.18-6.46-11.41-11.52-18.02-16.47-6.66-4.99-14-8.26-21.68-11.41l11.03,41.78c21.94-20.18,43.47-40.82,64.55-61.89,5.96-5.96,11.88-11.95,17.77-17.97,2.44-2.26,4.16-4.95,5.17-8.05,1.57-2.98,2.28-6.19,2.15-9.63,.13-3.44-.59-6.65-2.15-9.63-1.01-3.1-2.73-5.78-5.17-8.05-4.76-4.37-11.02-7.62-17.68-7.32l-6.65,.89c-4.24,1.19-7.91,3.33-11.03,6.43l-53.27,50-15.09,14.16,41.78,11.03c-2.4-5.71-3.34-8.71-7.83-13.22-3.91-3.92-7.85-5.95-13.01-7.72-5.94-2.04-12.77-1.57-18.76-.18-3.02,.7-6.27,2.31-8.87,3.51-1.12,.51-2.18,1.11-3.19,1.81-2.16,1.51-4.26,3.17-6.29,4.84-.47,.39-.92,.8-1.35,1.24-2.25,2.28-4.2,4.91-5.95,7.59-1.83,2.87-2.82,5.97-2.97,9.29-.74,3.32-.6,6.65,.45,9.97l2.52,5.97c1.57,2.91,3.72,5.25,6.44,7.01,1.56,1.55,3.4,2.62,5.52,3.21,2.98,1.57,6.19,2.28,9.63,2.15l6.65-.89c4.24-1.19,7.91-3.33,11.03-6.43,22.89-19.42,44.63-40.18,65.05-62.18,5.71-6.15,11.32-12.4,16.83-18.74l3.91-5.06,2.52-5.97,.89-6.65c.13-3.44-.59-6.65-2.15-9.63-.59-2.12-1.67-3.96-3.21-5.52-1.11-1.88-2.61-3.37-4.48-4.48-1.56-1.55-3.4-2.62-5.52-3.21-2.98-1.57-6.19-2.28-9.63-2.15-5.54,.72-11.03,1.36-16.4,2.9s-10.22,3.66-15.12,5.89c-8.03,3.65-15.31,9.02-21.85,14.88l39.26,30.3c2.78-6.27,6.29-12.18,10.45-17.63l-3.91,5.06c1.43-1.85,2.92-3.63,4.48-5.36,2.44-2.26,4.16-4.95,5.17-8.05,1.57-2.98,2.28-6.19,2.15-9.63,.13-3.44-.59-6.65-2.15-9.63-1.01-3.1-2.73-5.78-5.17-8.05-4.76-4.37-11.02-7.62-17.68-7.32l-6.65,.89c-4.24,1.19-7.91,3.33-11.03,6.43-1.51,1.57-3.12,3.03-4.83,4.37l5.06-3.91c-3.02,2.33-6.31,4.25-9.81,5.76l5.97-2.52c-2.89,1.21-5.88,2.12-8.95,2.71l24.32,41.78,26.51-29.89c2.44-2.26,4.16-4.95,5.17-8.05,1.57-2.98,2.28-6.19,2.15-9.63l-.89-6.65c-.77-3.25-2.27-6.09-4.47-8.5-1.11-1.88-2.61-3.37-4.48-4.48-2.41-2.21-5.25-3.7-8.5-4.47l-6.65-.89c-4.51,.01-8.72,1.15-12.62,3.41-4.69,3.45-9.76,6.33-15.12,8.62l5.97-2.52c-6.29,2.65-12.88,4.46-19.64,5.38l6.65-.89c-4.08,.53-8.19,.74-12.31,.61l24.11,18.35c-.93-3.01-2.28-5.91-3.54-8.78-.45-1.03-.94-2.03-1.49-3.01s-1.17-1.91-1.83-2.82c-1.88-2.56-3.78-5.16-5.93-7.51-2.85-3.11-6.4-5.69-9.82-8.1s-7.7-4-11.7-5.64c-3.32-1.04-6.65-1.19-9.97-.45-3.33,.15-6.43,1.14-9.29,2.97l-5.06,3.91c-2.44,2.26-4.16,4.95-5.17,8.05-1.13,1.95-1.7,4.05-1.71,6.31-.74,3.32-.6,6.65,.45,9.97l2.52,5.97c2.22,3.76,5.21,6.75,8.97,8.97,1.43,.91,2.82,1.89,4.18,2.92l-5.06-3.91c4.04,3.12,7.65,6.74,10.77,10.78l-3.91-5.06c3.02,3.96,5.53,8.25,7.49,12.82l-2.52-5.97c.81,1.93,1.52,3.89,2.12,5.9,.77,3.25,2.27,6.09,4.47,8.5,1.76,2.72,4.1,4.87,7.01,6.44,2.87,1.83,5.97,2.82,9.29,2.97,3.32,.74,6.65,.6,9.97-.45l5.97-2.52c3.76-2.22,6.75-5.21,8.97-8.97l2.52-5.97c1.19-4.43,1.19-8.86,0-13.29-1.6-5.3-3.8-10.49-6.3-15.42-1.62-3.21-3.55-6.25-5.72-9.12-3.35-4.43-6.67-8.81-10.76-12.59s-8.58-7.24-13.28-10.23l-19.26,45.69,.35,.14-5.97-2.52c2.3,.98,4.44,2.24,6.43,3.76l-5.06-3.91c1.97,1.54,3.73,3.3,5.27,5.27l-3.91-5.06c1.52,1.99,2.78,4.12,3.78,6.42l-2.52-5.97c.38,.92,.72,1.85,1.02,2.81l2.52,5.97c1.57,2.91,3.72,5.25,6.44,7.01,1.56,1.55,3.4,2.62,5.52,3.21,2.98,1.57,6.19,2.28,9.63,2.15,6.4,.2,12.61-.62,18.95-1.5,4.22-.59,8.38-1.48,12.45-2.74,5.97-1.85,11.82-4.32,17.41-7.11,3.81-1.9,7.44-4.14,10.87-6.66l-30.3-39.26-26.51,29.89-3.91,5.06c-1.83,2.87-2.82,5.97-2.97,9.29-.6,2.22-.6,4.43,0,6.65,.15,3.33,1.14,6.43,2.97,9.29l3.91,5.06,5.06,3.91c2.87,1.83,5.97,2.82,9.29,2.97,3.32,.74,6.65,.6,9.97-.45,2.27-.44,4.5-1.04,6.68-1.82,4.12-1.48,8.24-3.18,12.1-5.28,2.03-1.11,3.96-2.37,5.8-3.78,3.49-2.66,7.01-5.23,10.05-8.4l-35.36-35.36c-7.55,8.36-14.27,17.72-18.84,28.05-1.83,2.87-2.82,5.97-2.97,9.29-.74,3.32-.6,6.65,.45,9.97l2.52,5.97c1.57,2.91,3.72,5.25,6.44,7.01,1.56,1.55,3.4,2.62,5.52,3.21,2.98,1.57,6.19,2.28,9.63,2.15l6.65-.89c4.24-1.19,7.91-3.33,11.03-6.43,1.24-1.11,2.51-2.17,3.83-3.19l-5.06,3.91c4.52-3.45,9.44-6.31,14.68-8.53l-5.97,2.52c5.38-2.24,11-3.79,16.78-4.57l-6.65,.89,.41-.05-17.68-42.68c-19.69,22.66-40.71,44.15-62.94,64.31-6.22,5.64-12.54,11.18-18.94,16.61l39.26,30.3c.21-.33,.43-.64,.67-.95l-3.91,5.06c.93-1.2,2.01-2.25,3.21-3.2l-5.06,3.91c1.31-.99,2.71-1.82,4.21-2.48l-5.97,2.52c1.24-.52,2.52-.9,3.85-1.09l-6.65,.89c.87-.11,1.73-.12,2.6-.02l-6.65-.89c.65,.1,1.26,.26,1.86,.51l-5.97-2.52c.44,.2,.83,.44,1.22,.72l-5.06-3.91c.38,.31,.72,.65,1.03,1.04l-3.91-5.06c.32,.43,.58,.88,.81,1.37l-2.52-5.97,.11,.26c1.19,4.24,3.33,7.91,6.43,11.03,3.12,3.1,6.8,5.24,11.03,6.43,8.82,2.43,17.77-.27,24.32-6.43l53.27-50,15.09-14.16-35.36-35.36c-20.84,21.32-42.11,42.21-63.82,62.65-6.13,5.78-12.3,11.51-18.5,17.22s-8.72,16-6.43,24.32c1.19,4.24,3.33,7.91,6.43,11.03,3.12,3.1,6.8,5.24,11.03,6.43,.25,.1,.51,.21,.76,.31l-5.97-2.52c5.69,2.42,11.03,5.55,15.93,9.33l-5.06-3.91c4.44,3.46,8.46,7.42,11.98,11.81,2.26,2.44,4.95,4.16,8.05,5.17,2.98,1.57,6.19,2.28,9.63,2.15l6.65-.89c4.24-1.19,7.91-3.33,11.03-6.43,13.6-14.85,26.95-29.93,40.04-45.24,13.03-15.25,25.8-30.71,38.3-46.4,6.07-7.61,12.21-15.17,19.93-21.19l-5.06,3.91c3.15-2.42,6.5-4.54,10.16-6.09l-5.97,2.52c2.34-.96,4.76-1.66,7.28-2.01l-6.65,.89c2.02-.25,4.04-.25,6.06,0l-6.65-.89c2.12,.3,4.15,.88,6.12,1.71l-5.97-2.52c3.55,1.56,6.72,3.79,10.09,5.69,7.06,3.99,14.56,6.57,22.72,6.7,3.05,.05,6.26-.57,9.18-1.06,.96-.16,1.89-.38,2.81-.69,3.71-1.24,7.56-2.81,10.92-4.92,5.17-3.25,9.9-7.34,14.28-11.59,2.44-2.26,4.16-4.95,5.17-8.05,1.57-2.98,2.28-6.19,2.15-9.63l-.89-6.65c-.77-3.25-2.27-6.09-4.47-8.5-1.11-1.88-2.61-3.37-4.48-4.48-2.41-2.21-5.25-3.7-8.5-4.47l-6.65-.89c-4.51,.01-8.72,1.15-12.62,3.41l-11.48,6.9,34.2,34.2,13.84-22.35,2.52-5.97c1.04-3.32,1.19-6.65,.45-9.97,0-2.26-.58-4.36-1.71-6.31-1.01-3.1-2.73-5.78-5.17-8.05l-5.06-3.91-5.97-2.52c-3.32-1.04-6.65-1.19-9.97-.45-3.33,.15-6.43,1.14-9.29,2.97-1.35,.66-2.71,1.28-4.09,1.87l5.97-2.52c-6.38,2.67-13.07,4.47-19.93,5.4l6.65-.89c-4.47,.58-8.97,.78-13.47,.59l6.65,49.11c7.09-2.19,14.09-4.83,20.75-8.12,2.34-1.16,4.61-2.47,6.71-4.01,3.6-2.64,7.54-5.39,10.42-8.91,1.99-2.43,4.07-4.91,5.73-7.61s2.94-6.15,4.11-9.09c1.68-4.22,2.12-9.05,2.5-13.49,.2-2.36,.11-4.73-.16-7.08-.52-4.66-1.15-9.32-2.13-13.9-1.19-5.51-2.77-10.95-3.54-16.54l.89,6.65c-.35-2.66-.49-5.34-.16-8.02l-.89,6.65c.22-1.58,.6-3.11,1.21-4.59l-2.52,5.97c.53-1.23,1.2-2.37,2.01-3.44l-3.91,5.06c.5-.64,1.04-1.24,1.63-1.81l-39.26-5.06c.58,.78,1.06,1.59,1.44,2.48l-2.52-5.97c.34,.87,.58,1.74,.73,2.66l-.89-6.65c.17,1.29,.16,2.56,0,3.85l.89-6.65c-.27,1.86-.81,3.63-1.53,5.36l2.52-5.97c-1.15,2.65-2.66,5.1-4.41,7.39l3.91-5.06c-1.63,2.1-3.49,4.02-5.25,6.01-3.12,3.53-6.1,7.24-8.76,11.12s-4.43,8.11-5.81,12.35c-1.04,3.21-1.29,6.73-1.62,10.04s.55,7.02,.98,10.19c1.19,4.24,3.33,7.91,6.43,11.03,3.12,3.1,6.8,5.24,11.03,6.43,8.42,2.32,18.24,0,24.32-6.43,2.13-2.25,3.97-4.81,5.81-7.29,.62-.84,1.2-1.7,1.72-2.6,.55-.96,1.03-1.96,1.46-2.97,1.23-2.86,2.62-5.73,3.49-8.73,.29-1,.52-2.02,.69-3.05,.51-3.14,1.05-6.36,1.2-9.55,.05-1.04,.04-2.08-.04-3.12-.24-3.26-.69-6.53-1.33-9.74-1.19-4.24-3.33-7.91-6.43-11.03-2.26-2.44-4.95-4.16-8.05-5.17-2.98-1.57-6.19-2.28-9.63-2.15-4.51,.01-8.72,1.15-12.62,3.41-5.36,3.15-10.23,6.9-15.11,10.73-3.3,2.59-6.43,5.38-9.35,8.38-4.33,4.43-8.1,9.34-11.81,14.29-2.51,3.35-4.78,6.88-6.82,10.54-1.83,2.87-2.82,5.97-2.97,9.29-.74,3.32-.6,6.65,.45,9.97l2.52,5.97c1.57,2.91,3.72,5.25,6.44,7.01,1.56,1.55,3.4,2.62,5.52,3.21,2.98,1.57,6.19,2.28,9.63,2.15l6.65-.89c4.24-1.19,7.91-3.33,11.03-6.43,7.03-6.14,13.05-13.62,18.13-21.43,2.01-3.1,3.81-6.34,5.37-9.68,2.4-5.17,4.66-10.47,6.34-15.93,2.61-8.45-.28-18.17-6.43-24.32-3.12-3.1-6.8-5.24-11.03-6.43-4.43-1.19-8.86-1.19-13.29,0-11.25,4.13-22.21,9.21-32.14,15.95-5.71,3.87-11.22,8.12-16.44,12.64-3.82,3.3-7.43,6.84-10.81,10.59-5.06,5.62-9.73,11.66-13.98,17.91-1.83,2.87-2.82,5.97-2.97,9.29-.74,3.32-.6,6.65,.45,9.97l2.52,5.97c1.57,2.91,3.72,5.25,6.44,7.01,1.56,1.55,3.4,2.62,5.52,3.21,2.98,1.57,6.19,2.28,9.63,2.15l6.65-.89c4.24-1.19,7.91-3.33,11.03-6.43,8.78-7.25,17.44-14.63,25.99-22.15,4.3-3.79,8.58-7.61,12.82-11.46,2.09-1.9,4.18-3.81,6.25-5.73,3.24-3,5.82-6.43,8.48-9.96,.8-1.07,1.55-2.17,2.17-3.36,1.21-2.35,2.22-4.9,3.16-7.36,.22-.58,.42-1.16,.56-1.76,.72-3.13,1.36-6.43,1.1-9.65-.21-2.49-.41-5.48-1.17-8.04-.09-.3-.2-.58-.31-.86-.84-2.21-1.77-4.54-2.85-6.66-1.57-2.91-3.72-5.25-6.44-7.01-2.41-2.21-5.25-3.7-8.5-4.47l-6.65-.89c-4.51,.01-8.72,1.15-12.62,3.41-12.38,6.52-24.19,14.08-35.29,22.6-12.78,9.8-24.92,20.16-35.89,31.98-6.74,7.27-12.89,14.99-18.91,22.86l-2.52,5.97c-1.04,3.32-1.19,6.65-.45,9.97,0,2.26,.58,4.36,1.71,6.31,1.01,3.1,2.73,5.78,5.17,8.05l5.06,3.91,5.97,2.52c3.32,1.04,6.65,1.19,9.97,.45,3.33-.15,6.43-1.14,9.29-2.97,25.48-17.04,49.26-36.93,70.07-59.47,5.47-5.92,10.73-12.03,15.8-18.3,3.1-3.12,5.24-6.8,6.43-11.03,1.04-3.32,1.19-6.65,.45-9.97-.15-3.33-1.14-6.43-2.97-9.29-2.22-3.76-5.21-6.75-8.97-8.97-5.53-2.99-10-4.14-16.28-4.47-3.67-.19-7.57,.42-11.07,1.58-5.24,1.74-9.95,4.08-14.42,7.21-6.14,4.29-12.19,8.71-18.16,13.25-13.38,10.19-26.47,20.72-39.01,31.93-6.22,5.56-12.31,11.26-18.28,17.09-2.44,2.26-4.16,4.95-5.17,8.05-1.57,2.98-2.28,6.19-2.15,9.63-.13,3.44,.59,6.65,2.15,9.63,1.01,3.1,2.73,5.78,5.17,8.05,4.76,4.37,11.02,7.62,17.68,7.32l6.65-.89c4.24-1.19,7.91-3.33,11.03-6.43,22.03-17.39,42.59-36.64,61.35-57.52,5.24-5.84,10.35-11.8,15.31-17.88,2.44-2.26,4.16-4.95,5.17-8.05,1.57-2.98,2.28-6.19,2.15-9.63l-.89-6.65c-.77-3.25-2.27-6.09-4.47-8.5-1.11-1.88-2.61-3.37-4.48-4.48-2.41-2.21-5.25-3.7-8.5-4.47l-6.65-.89c-4.51,.01-8.72,1.15-12.62,3.41l-65.44,48.22-18.47,13.61,30.3,39.26c18.36-17.23,36.72-34.47,54.57-52.24,5.06-5.04,10.09-10.13,15.05-15.27,2.44-2.26,4.16-4.95,5.17-8.05,1.57-2.98,2.28-6.19,2.15-9.63l-.89-6.65c-.77-3.25-2.27-6.09-4.47-8.5-1.11-1.88-2.61-3.37-4.48-4.48-2.41-2.21-5.25-3.7-8.5-4.47l-6.65-.89c-4.51,.01-8.72,1.15-12.62,3.41-23.5,12.76-45.47,28.01-66.18,44.92-5.37,4.39-10.62,8.92-15.75,13.58l35.36,35.36,52.61-50.47,14.77-14.17c2.44-2.26,4.16-4.95,5.17-8.05,1.57-2.98,2.28-6.19,2.15-9.63l-.89-6.65c-.77-3.25-2.27-6.09-4.47-8.5-1.11-1.88-2.61-3.37-4.48-4.48-2.41-2.21-5.25-3.7-8.5-4.47l-6.65-.89c-4.51,.01-8.72,1.15-12.62,3.41-15.88,10.17-31.81,20.36-48.68,28.86-4.78,2.41-9.63,4.67-14.56,6.76l5.97-2.52c-3.53,1.49-7.09,2.88-10.69,4.17l24.32,41.78c11.5-12.95,24.2-24.79,37.9-35.39l-5.06,3.91c14.28-11.01,29.61-20.62,45.75-28.67l-25.24-43.17-57.72,39.72-57.72,39.72-32.57,22.42c-2.91,1.57-5.25,3.72-7.01,6.44-2.21,2.41-3.7,5.25-4.47,8.5-1.04,3.32-1.19,6.65-.45,9.97,.15,3.33,1.14,6.43,2.97,9.29l3.91,5.06c3.12,3.1,6.8,5.24,11.03,6.43l6.65,.89c4.51-.01,8.72-1.15,12.62-3.41h0Z"/><path class="cls-2" d="M297.17,942.73c11.71-8.57,22.45-18.05,32.21-28.79,9.66-10.64,18.41-22.05,27.15-33.45,4.36-5.69,8.68-11.41,13.07-17.09l-3.91,5.06c11.1-14.36,22.54-28.46,34.32-42.28,3.33-3.91,6.69-7.8,10.08-11.67,2.44-2.26,4.16-4.95,5.17-8.05,1.57-2.98,2.28-6.19,2.15-9.63,.13-3.44-.59-6.65-2.15-9.63-1.01-3.1-2.73-5.78-5.17-8.05-4.76-4.37-11.02-7.62-17.68-7.32l-6.65,.89c-4.24,1.19-7.91,3.33-11.03,6.43-18.15,20.75-35.45,42.19-52.2,64.08-3.94,5.15-7.85,10.32-11.81,15.45l3.91-5.06c-10.39,13.44-21.19,26.68-33.7,38.24-3.52,3.25-7.17,6.35-10.95,9.28l5.06-3.91c-1.02,.79-2.05,1.56-3.1,2.32-2.91,1.57-5.25,3.72-7.01,6.44-2.21,2.41-3.7,5.25-4.47,8.5-1.04,3.32-1.19,6.65-.45,9.97,.15,3.33,1.14,6.43,2.97,9.29l3.91,5.06c3.12,3.1,6.8,5.24,11.03,6.43l6.65,.89c4.51-.01,8.72-1.15,12.62-3.41h0Z"/><path class="cls-2" d="M250.88,704.26c-2.06-.55-4.08-1.25-6.05-2.07l5.97,2.52c-3.81-1.63-7.37-3.72-10.67-6.23l5.06,3.91c-3.49-2.7-6.62-5.82-9.33-9.3l3.91,5.06c-2.69-3.5-4.92-7.3-6.64-11.37l2.52,5.97c-1.53-3.7-2.61-7.56-3.18-11.53l.89,6.65c-.83-6.17-.48-12.4-.52-18.6-.05-7.66-.99-15.39-2.6-22.88-1.17-5.47-2.91-10.81-5.01-15.99-2.83-6.97-5.84-13.81-9.41-20.43-5.19-9.63-11.02-19.03-17.15-28.09-2.54-3.76-5.33-7.35-8.15-10.9-1.57-1.97-3.24-3.86-5.07-5.59-.83-.78-1.68-1.52-2.57-2.23-2.53-2.02-5.08-4.13-7.82-5.88-.96-.61-1.95-1.17-2.97-1.67-3.02-1.47-6.15-2.82-9.33-3.91-4.8-1.64-10.07-2.14-15.06-2.64-3.06-.3-6.15-.33-9.23-.29-6.2,.09-12.41,.48-18.58-.3l6.65,.89c-2.34-.32-4.62-.81-6.87-1.55l-13.29,48.21c2.76,.49,5.58,.92,8.38,1.12,.74,.05,1.49,.05,2.23,0,2.78-.2,5.59-.61,8.33-1.1,.72-.13,1.44-.31,2.13-.53,2.59-.82,5.09-2.01,7.56-3.11,.68-.3,1.34-.62,1.99-.99,2.98-1.7,5.72-3.99,8.3-6.2,1.11-.95,2.1-2.01,3.02-3.14,2.11-2.59,4.58-5.5,6.2-8.56,.8-1.52,1.42-3.14,2.08-4.71s1.45-3.24,1.98-4.93c1.05-3.35,1.37-7.07,1.68-10.49,.33-3.66-.4-7.48-1.02-11.04-.14-.79-.32-1.56-.56-2.32-.9-2.76-2.11-5.46-3.38-8.07l-28.23,36.72c16.96,4.78,33.68,10.37,50.24,16.37s33.22,12.49,49.76,18.94,32.87,12.84,49.45,18.87c16.49,6,33.13,11.62,50.01,16.43,16.92,4.82,34.09,8.82,51.47,11.56,2.13,.34,4.26,.65,6.4,.95,3.32,1.04,6.65,1.19,9.97,.45,3.33-.15,6.43-1.14,9.29-2.97,2.91-1.57,5.25-3.72,7.01-6.44,2.21-2.41,3.7-5.25,4.47-8.5l.89-6.65c-.01-4.51-1.15-8.72-3.41-12.62l-3.91-5.06c-3.12-3.1-6.8-5.24-11.03-6.43-17.36-2.43-34.51-6.14-51.43-10.72-17.01-4.61-33.77-10.1-50.37-16.02-16.61-5.93-33.05-12.3-49.48-18.71-16.46-6.42-32.9-12.88-49.48-18.99s-33.36-11.9-50.35-16.89c-2.07-.61-4.14-1.21-6.22-1.79l-6.65-.89-6.65,.89-5.97,2.52c-2.91,1.57-5.25,3.72-7.01,6.44-1.55,1.56-2.62,3.4-3.21,5.52-1.13,1.95-1.7,4.05-1.71,6.31-.6,2.22-.6,4.43,0,6.65,.15,3.33,1.14,6.43,2.97,9.29,.15,.32,.3,.64,.44,.96l-2.52-5.97c.52,1.28,.86,2.6,1.06,3.96l-.89-6.65c.18,1.47,.17,2.93,0,4.39l.89-6.65c-.25,1.83-.74,3.58-1.45,5.28l2.52-5.97c-.79,1.82-1.8,3.52-3.01,5.09l3.91-5.06c-1.16,1.46-2.46,2.78-3.93,3.94l5.06-3.91c-1.37,1.05-2.83,1.93-4.41,2.62l5.97-2.52c-1.47,.61-2.98,1.03-4.56,1.25l6.65-.89c-1.38,.16-2.74,.15-4.11-.03l6.65,.89c-.23-.03-.46-.07-.7-.11-3.32-1.04-6.65-1.19-9.97-.45-3.33,.15-6.43,1.14-9.29,2.97-2.91,1.57-5.25,3.72-7.01,6.44-2.21,2.41-3.7,5.25-4.47,8.5l-.89,6.65c.01,4.51,1.15,8.72,3.41,12.62l3.91,5.06c3.12,3.1,6.8,5.24,11.03,6.43,4.85,1.59,10.12,2.14,15.15,2.63,3.08,.3,6.18,.33,9.27,.28,6.18-.09,12.37-.49,18.52,.31l-6.65-.89c2.94,.41,5.79,1.1,8.54,2.22l-5.97-2.52c2.51,1.07,4.83,2.45,7,4.11l-5.06-3.91c3.29,2.57,6.1,5.65,8.65,8.94l-3.91-5.06c5.27,6.88,9.76,14.44,14.25,21.83,4.76,7.85,9.23,15.89,12.81,24.36l-2.52-5.97c3.15,7.53,5.53,15.36,6.63,23.46l-.89-6.65c.89,6.93,.49,13.87,.61,20.83,.09,5.33,.76,10.65,1.65,15.9,.44,2.56,1.1,5.08,1.96,7.53,2.43,6.92,5.48,13.75,9.92,19.63,2.77,3.67,5.52,7.38,8.81,10.61s7.02,6.01,10.7,8.7c2.37,1.73,4.89,3.25,7.52,4.52,4.55,2.2,9.31,4.26,14.21,5.58,3.32,1.04,6.65,1.19,9.97,.45,3.33-.15,6.43-1.14,9.29-2.97,2.91-1.57,5.25-3.72,7.01-6.44,2.21-2.41,3.7-5.25,4.47-8.5l.89-6.65c-.01-4.51-1.15-8.72-3.41-12.62-3.52-5.46-8.54-9.77-14.94-11.49h0Z"/><path class="cls-2" d="M334.8,618.17c-3.63,1.46-7.41,2.85-10.74,4.96s-6.39,4.57-9.35,7.12-5.65,5.58-8.19,8.63c-6.06,7.27-11.96,14.67-17.94,22.01l-10.4,12.78,41.78,24.32c.81-3.14,1.86-6.21,3.12-9.2l-2.52,5.97c2.25-5.25,5.15-10.19,8.63-14.72l-3.91,5.06c3.51-4.51,7.55-8.57,12.07-12.06l-5.06,3.91c1.34-1.02,2.72-2,4.13-2.92l-34.2-34.2c-2.68,6.21-6.14,12.05-10.26,17.42l3.91-5.06c-4.31,5.55-9.3,10.53-14.86,14.83l5.06-3.91c-3.97,3.04-8.33,6.13-12.96,8.09l5.97-2.52c-.87,.34-1.75,.58-2.67,.71l6.65-.89c-.59,.06-1.16,.08-1.75,.02l6.65,.89c-.44-.06-.85-.17-1.27-.34l5.97,2.52c-.23-.11-.42-.23-.62-.38l5.06,3.91c-.13-.1-.24-.21-.34-.34l3.91,5.06c-.16-.21-.27-.4-.39-.64l2.52,5.97c-.07-.17-.12-.34-.16-.52l.89,6.65c-.06-.3-.08-.59-.05-.89l-.89,6.65c.07-.47,.18-.87,.34-1.32l-2.52,5.97c1.18-2.73,2.73-5.35,4.14-7.96s2.82-5.17,4.3-7.72c2.94-5.06,6.11-9.99,9.68-14.63l-3.91,5.06c3.86-4.96,8.2-9.53,13.18-13.38l-5.06,3.91c1.46-1.12,2.97-2.17,4.53-3.15l-36.72-28.23c-1.23,5.59-2.97,11.05-5.18,16.34l2.52-5.97c-3.26,7.67-7.49,14.89-12.58,21.49l3.91-5.06c-4.88,6.27-10.49,11.92-16.76,16.8l5.06-3.91c-1.54,1.19-3.12,2.34-4.74,3.44l19.26-2.52c-.29-.05-.52-.11-.79-.22l5.97,2.52c-.16-.07-.31-.16-.45-.26l5.06,3.91c-.21-.17-.38-.34-.56-.54l3.91,5.06c-.22-.3-.39-.61-.55-.95l2.52,5.97c-.22-.57-.36-1.14-.45-1.73l.89,6.65c-.21-1.71,.03-3.41,.26-5.12l-.89,6.65c.82-5.99,2.44-11.82,4.77-17.39l-2.52,5.97c2.36-5.56,5.41-10.8,9.08-15.6l-3.91,5.06c3.62-4.68,7.79-8.88,12.47-12.5l-5.06,3.91c.82-.62,1.64-1.23,2.49-1.82l-36.72-14.94c.3,1.11,.52,2.23,.68,3.36l-.89-6.65c.3,2.37,.28,4.74,0,7.11l.89-6.65c-.48,3.55-1.53,6.96-2.92,10.26l2.52-5.97c-3.41,7.91-8.48,15.16-13.72,21.96l3.91-5.06c-1.76,2.26-3.66,4.39-5.93,6.15l5.06-3.91c-1.14,.85-2.35,1.6-3.65,2.17l5.97-2.52c-1.18,.48-2.39,.81-3.64,.99l6.65-.89c-1.14,.14-2.27,.15-3.41,.02l6.65,.89c-1-.14-1.95-.38-2.89-.76l5.97,2.52c-.71-.31-1.36-.68-1.98-1.13l5.06,3.91c-.62-.48-1.15-1.01-1.64-1.63l3.91,5.06c-.47-.65-.85-1.32-1.17-2.06l2.52,5.97c-.44-1.12-.71-2.28-.87-3.47l.89,6.65c-.39-3.46-.04-7.02,.42-10.45l-.89,6.65c.82-5.83,2.39-11.52,4.67-16.95l-2.52,5.97c2.01-4.71,4.53-9.23,7.6-13.34l-3.91,5.06c.55-.71,1.13-1.37,1.83-1.95l-5.06,3.91c.41-.3,.82-.55,1.28-.76l-5.97,2.52c.34-.13,.66-.22,1.01-.29l-6.65,.89c.45-.05,.87-.05,1.32,0l-6.65-.89c.44,.08,.86,.2,1.28,.36l-5.97-2.52c.53,.24,1,.53,1.46,.88l-5.06-3.91c.45,.38,.85,.78,1.22,1.24l-3.91-5.06c.35,.48,.63,.96,.88,1.5l-2.52-5.97c.26,.67,.43,1.33,.56,2.04l-.89-6.65c.15,1.19,.13,2.36,0,3.55l.89-6.65c-.58,4.22-2.08,8.38-3.72,12.29l2.52-5.97c-1.8,4.21-3.97,8.4-6.73,12.07l3.91-5.06c-1.28,1.64-2.72,3.12-4.35,4.41l5.06-3.91c-1.2,.91-2.46,1.69-3.85,2.27l5.97-2.52c-.87,.34-1.75,.59-2.67,.72l6.65-.89c-.67,.07-1.32,.08-1.99,.01l6.65,.89c-.68-.1-1.31-.27-1.94-.52l5.97,2.52c-.55-.25-1.06-.54-1.56-.89l5.06,3.91c-.59-.46-1.11-.97-1.58-1.55l3.91,5.06c-.69-.91-1.23-1.89-1.68-2.93l2.52,5.97c-1.03-2.52-1.63-5.21-2.02-7.89l.89,6.65c-.46-3.52-.46-7.06-.01-10.59l-.89,6.65c.5-3.65,1.47-7.2,2.9-10.59l-2.52,5.97c1.31-3.02,2.95-5.85,4.96-8.46l-3.91,5.06c.79-1.01,1.63-1.92,2.65-2.71l-5.06,3.91c.61-.44,1.23-.82,1.92-1.13l-5.97,2.52c.44-.17,.86-.3,1.32-.38l-6.65,.89c.45-.05,.86-.05,1.3,0l-6.65-.89c.21,.04,.42,.1,.62,.17l-5.97-2.52c.33,.15,.59,.3,.89,.51l-5.06-3.91c.28,.24,.49,.46,.72,.75l-3.91-5.06c.19,.3,.34,.58,.49,.9l-2.52-5.97c.16,.45,.28,.9,.36,1.37l-.89-6.65c.22,1.68,.04,3.38-.17,5.06l.89-6.65c-.45,3.22-1.29,6.33-2.52,9.34l2.52-5.97c-1.26,2.98-2.87,5.77-4.83,8.34l3.91-5.06c-.96,1.22-2.01,2.35-3.23,3.31l5.06-3.91c-.72,.53-1.46,.97-2.28,1.33l5.97-2.52c-.72,.28-1.43,.47-2.19,.57l6.65-.89c-.62,.06-1.22,.06-1.84,0l6.65,.89c-.86-.12-1.67-.34-2.48-.65l5.97,2.52c-1.06-.45-2.03-1.04-2.96-1.72l5.06,3.91c-1.47-1.14-2.74-2.46-3.87-3.93l3.91,5.06c-1.95-2.59-3.52-5.46-4.79-8.45l2.52,5.97c-1.42-3.45-2.38-7.04-2.88-10.73l.89,6.65c-.35-2.84-.54-5.81-.16-8.66l-.89,6.65c.18-1.12,.48-2.2,.9-3.26l-2.52,5.97c.44-1.03,.97-2,1.64-2.91l-3.91,5.06c.45-.57,.93-1.07,1.5-1.53l-5.06,3.91c.38-.28,.77-.52,1.21-.71l-5.97,2.52c.34-.13,.67-.23,1.03-.29l-6.65,.89c.37-.04,.71-.04,1.07,0l-6.65-.89c.39,.07,.74,.17,1.11,.32l-5.97-2.52,.28,.13c2.87,1.83,5.97,2.82,9.29,2.97,3.32,.74,6.65,.6,9.97-.45l5.97-2.52c2.91-1.57,5.25-3.72,7.01-6.44,1.55-1.56,2.62-3.4,3.21-5.52,1.57-2.98,2.28-6.19,2.15-9.63l-.89-6.65c-1.19-4.24-3.33-7.91-6.43-11.03-9.59-10.35-20.43-19.36-31.87-27.6-2.87-1.83-5.97-2.82-9.29-2.97-3.32-.74-6.65-.6-9.97,.45-3.25,.77-6.09,2.27-8.5,4.47-2.72,1.76-4.87,4.1-6.44,7.01l-2.52,5.97c-1.19,4.43-1.19,8.86,0,13.29l2.52,5.97c2.22,3.76,5.21,6.75,8.97,8.97,1.72,1.24,3.41,2.5,5.09,3.8l-5.06-3.91c7.77,6.03,15.03,12.68,21.72,19.9l30.3-39.26c-4.85-2.31-9.53-4.27-15.08-3.86-6.15,.45-8.15,1-13.65,3.7-2.26,1.11-4.67,3.28-6.26,4.62-4.86,4.08-8.1,10.67-9.98,16.59-.99,3.13-1.25,6.5-1.49,9.74-.12,1.71-.1,3.43,.01,5.14,.35,5.23,1.02,10.64,2.52,15.7s3.55,9.91,6.09,14.45c.75,1.35,1.59,2.65,2.49,3.9,1.95,2.68,4.23,5.95,6.81,8.29,4.84,4.39,11.06,8.75,17.68,9.8,2.57,.41,5.69,1.11,8.49,.9,2.16-.17,4.9-.54,7.02-.94,.38-.07,.74-.15,1.11-.26,6.19-1.93,9.4-4.18,14.32-8.26,1.05-.87,1.96-1.86,2.81-2.92,2.2-2.75,4.55-5.6,6.39-8.66,.8-1.32,1.51-2.7,2.14-4.11,1.49-3.36,3.06-6.78,4.13-10.32,.45-1.48,.8-2.99,1.06-4.51,.6-3.55,1.2-7.16,1.35-10.77,.44-10.71-5.15-22.33-14.93-27.3-4.86-2.47-8.03-3.45-13.56-3.63-2.77-.09-5.63,.3-8.29,1.08-5.85,1.71-9.33,4.18-13.92,8.03-2.54,2.13-4.62,5.34-6.5,7.84-.94,1.26-1.82,2.56-2.61,3.93-.72,1.25-1.37,2.54-1.95,3.86-1.4,3.15-2.85,6.35-3.92,9.65-1.58,4.85-2.17,10.07-2.68,15.1-.3,2.93-.28,5.9,.07,8.83,.6,4.91,1.04,10.09,2.84,14.77,1.16,3.03,2.36,6.53,4.35,9.26,3.39,4.65,6.5,8.54,11.79,11.27s9.17,3.79,15.21,4.11c3.42,.18,7.06-.3,10.32-1.41,3.04-1.03,6.45-2.33,9.24-4.15,2.2-1.44,4.26-3.16,6.31-4.8,.71-.57,1.4-1.16,2.05-1.8,3.51-3.47,6.45-7.63,8.97-11.88,2.76-4.65,4.8-9.65,6.84-14.65,1.22-3,2.26-6.1,2.98-9.25,.82-3.61,1.53-7.39,1.41-11.1-.18-6.08-1.45-11.27-4.39-16.6-5.25-9.52-15.7-15.48-26.45-15.77-5.27-.14-11.14,1.45-15.6,4.28-5.44,3.45-7.82,6.59-11.56,11.75-1.85,2.55-3.5,5.26-4.95,8.05-2.44,4.71-4.52,9.65-6.27,14.65-1.07,3.04-1.91,6.16-2.52,9.33-1.01,5.2-1.75,10.52-2.01,15.81-.07,1.5-.08,2.99,.05,4.49,.25,2.75,.59,5.53,1.13,8.24s2.15,5.98,3.2,8.25c1.36,2.94,3.5,5.57,5.73,7.88s5.02,4.53,8.03,5.91c6.32,2.9,8.55,3.48,15.51,4.17,3.44,.34,7.11-.39,10.4-.96,2.25-.39,4.17-1.31,6.29-2.2,2.4-1.01,4.55-1.9,6.64-3.43,2.73-2,5.68-4.13,8.07-6.62s4.65-5.66,6.83-8.5c4-5.2,7.83-10.64,10.99-16.39,2.52-4.58,4.62-9.46,6.36-14.38s2.5-10.49,2.87-15.73c.11-1.53,.1-3.08-.06-4.61-.36-3.61-.74-7.32-1.68-10.85-1.19-4.24-3.33-7.91-6.43-11.03-2.26-2.44-4.95-4.16-8.05-5.17-2.98-1.57-6.19-2.28-9.63-2.15-4.51,.01-8.72,1.15-12.62,3.41-5.49,3.85-10.91,8.05-15.52,12.95s-8.79,10.32-12.35,16.02c-3.58,5.74-6.27,12.06-8.65,18.38-1.7,4.5-2.93,9.18-3.63,13.94-.47,3.16-.92,6.33-1.26,9.51-.11,1.08-.14,2.12-.03,3.2,.64,6.08,1.01,9.16,3.98,14.61,.09,.16,.18,.32,.27,.48,.81,1.32,3,4.12,4.07,5.28,1.7,1.85,3.78,3.4,5.95,4.66s4.47,2.27,6.88,2.8c6.59,1.43,13.79,1.13,19.59-2.74,1.08-.72,2.13-1.49,3.17-2.27,3.52-2.64,7.05-5.31,10.37-8.2,3.63-3.16,7.01-6.6,10.11-10.28,4.38-5.18,8.58-10.64,12.16-16.41,3.95-6.35,6.87-13.11,9.72-20.02,2.08-5.05,3.71-10.28,4.88-15.62l.89-6.65-.89-6.65-2.52-5.97c-1.57-2.91-3.72-5.25-6.44-7.01-1.56-1.55-3.4-2.62-5.52-3.21-1.95-1.13-4.05-1.7-6.31-1.71-2.22-.6-4.43-.6-6.65,0-3.33,.15-6.43,1.14-9.29,2.97-5.43,3.42-10.6,7.46-15.21,11.93s-8.47,9.57-12.31,14.67c-5.42,7.2-9.86,15.07-14.08,23.01-1.05,1.98-2.17,3.95-3.11,5.98-1.08,2.34-2.36,4.73-2.92,7.28-1.22,5.59-1.07,6.38-.43,11.09,.54,4.05,.7,5.9,3.18,9.93,1.26,2.05,2.63,4.12,4.4,5.76,5.65,5.24,13.33,8.75,21.2,8.21,2.46-.17,5.13-.56,7.55-1.02,.41-.08,.81-.18,1.2-.3,2.33-.73,4.6-1.85,6.83-2.83,.51-.22,1-.47,1.49-.73,3.85-2.03,7.53-4.38,11-7.01,5.08-3.85,10.09-7.72,14.52-12.32,4.8-4.98,9.11-10.53,12.96-16.27,2.75-4.1,5.12-8.45,7.07-12.99l2.52-5.97c1.04-3.32,1.19-6.65,.45-9.97,0-2.26-.58-4.36-1.71-6.31-1.01-3.1-2.73-5.78-5.17-8.05l-5.06-3.91-5.97-2.52c-3.32-1.04-6.65-1.19-9.97-.45-3.33,.15-6.43,1.14-9.29,2.97-4.38,2.86-8.56,6.09-12.49,9.54-2.43,2.14-4.71,4.46-6.81,6.93-5.53,6.51-10.64,13.47-14.11,21.31-2.32,5.24-4.58,10.5-6.02,16.06l-.89,6.65c-.13,3.44,.59,6.65,2.15,9.63,.59,2.12,1.67,3.96,3.21,5.52,1.76,2.72,4.1,4.87,7.01,6.44l5.97,2.52,6.65,.89c3.44,.13,6.65-.59,9.63-2.15,3.1-1.01,5.78-2.73,8.05-5.17l20.02-24.59c5.71-7.02,11.15-14.76,18.37-20.34l-5.06,3.91c2.01-1.52,4.15-2.83,6.46-3.84l-5.97,2.52c.25-.11,.49-.21,.74-.3,3.25-.77,6.09-2.27,8.5-4.47,2.72-1.76,4.87-4.1,6.44-7.01,1.83-2.87,2.82-5.97,2.97-9.29,.74-3.32,.6-6.65-.45-9.97l-2.52-5.97c-2.22-3.76-5.21-6.75-8.97-8.97l-5.97-2.52c-4.43-1.19-8.86-1.19-13.29,0h0Z"/><path class="cls-2" d="M102.25,572.14c-.09-.36-.16-.72-.21-1.09l.45,3.32c-.11-.89-.1-1.79,.01-2.68l-.45,3.32c.14-.95,.39-1.86,.75-2.75l-1.26,2.99c.36-.83,.8-1.61,1.34-2.33l-1.95,2.53c.55-.71,1.18-1.35,1.89-1.9l-2.53,1.95c.13-.1,.26-.19,.39-.28l2.53-1.95c1.22-1.13,2.08-2.47,2.58-4.02,.57-.97,.85-2.03,.85-3.15,.37-1.66,.3-3.32-.22-4.98l-1.26-2.99-1.95-2.53c-1.13-1.22-2.47-2.08-4.02-2.58-1.49-.78-3.09-1.14-4.82-1.08-1.78,0-3.57,.28-5.3,.65s-3.4,1.21-4.87,1.88c-.65,.3-1.27,.65-1.85,1.07-1.37,.99-2.9,2.06-4.09,3.32s-2.25,2.65-3.19,4.1-1.57,3.2-2.19,4.75c-.27,.66-.47,1.34-.59,2.05-.3,1.73-.66,3.59-.56,5.38-.06,1.72,.29,3.33,1.08,4.82,.5,1.55,1.37,2.89,2.58,4.02,1.13,1.22,2.47,2.08,4.02,2.58,1.49,.78,3.09,1.14,4.82,1.08l3.32-.45c2.12-.59,3.96-1.67,5.52-3.21l1.95-2.53c1.13-1.95,1.7-4.05,1.71-6.31-.03-.56-.01-1.12,.06-1.68l-.45,3.32c.12-.86,.35-1.69,.68-2.5l-1.26,2.99c.36-.85,.83-1.64,1.39-2.38l-1.95,2.53c.6-.77,1.29-1.46,2.07-2.06l-2.53,1.95c.7-.53,1.44-.97,2.24-1.32l-2.99,1.26c.8-.34,1.63-.57,2.49-.69l-3.32,.45c.41-.05,.82-.08,1.23-.08l-6.31-23.29c-1.07,.74-2.09,1.57-3.1,2.38-.21,.16-.41,.34-.6,.52-.4,.38-.77,.8-1.11,1.23-.96,1.22-2.02,2.42-2.78,3.79s-1.34,2.89-1.9,4.35c-.77,1.98-.97,4.27-1.14,6.33-.05,.55-.05,1.11,0,1.66,.11,1.32,.32,2.65,.52,3.95,.05,.31,.11,.62,.19,.93,.39,1.63,1.13,3.04,2.24,4.25,.88,1.36,2.05,2.43,3.51,3.22,1.43,.91,2.98,1.41,4.65,1.48,1.66,.37,3.32,.3,4.98-.22l2.99-1.26c1.88-1.11,3.37-2.61,4.48-4.48l1.26-2.99c.6-2.22,.6-4.43,0-6.65h0Z"/><path class="cls-2" d="M238.96,858.52c-4.54-.71-8.76-.9-13.26,.38-4.35,1.24-7.94,3.45-11.33,6.38-2.96,2.55-3.93,6.82-3.44,10.5,.55,4.08,2.66,6.79,5.97,9.13,1.94,1.37,3.85,2.78,5.73,4.23l-2.53-1.95c19.35,14.99,35.26,33.74,51.27,52.11l14.93,17.13c2.02,2.32,5.86,3.66,8.84,3.66s6.73-1.36,8.84-3.66,3.81-5.51,3.66-8.84-1.39-6.23-3.66-8.84c-9.2-10.56-18.34-21.17-27.62-31.64-8.68-9.79-17.6-19.4-27.32-28.18-6.18-5.58-12.71-10.8-19.51-15.61l2.53,19.63c.2-.17,.4-.34,.6-.5l-2.53,1.95c1.05-.81,2.16-1.46,3.37-2l-2.99,1.26c1.34-.56,2.72-.93,4.16-1.13l-3.32,.45c1.31-.15,2.61-.14,3.92,.03l-3.32-.45,.39,.06c1.66,.52,3.32,.6,4.98,.22,1.66-.08,3.21-.57,4.65-1.48,2.59-1.52,5.07-4.49,5.74-7.47,.73-3.2,.57-6.79-1.26-9.63-1.65-2.56-4.33-5.25-7.47-5.74h0Z"/><path class="cls-2" d="M409.45,808.66c13.24,11.33,26.16,23.04,38.72,35.12,3.57,3.44,7.12,6.9,10.63,10.4,2.28,2.26,5.62,3.66,8.84,3.66s6.73-1.36,8.84-3.66,3.81-5.51,3.66-8.84-1.26-6.46-3.66-8.84c-12.36-12.28-25.08-24.21-38.13-35.76-3.71-3.28-7.45-6.54-11.22-9.76-2.56-2.19-5.37-3.66-8.84-3.66-3.07,0-6.73,1.36-8.84,3.66s-3.81,5.51-3.66,8.84,1.16,6.7,3.66,8.84h0Z"/><path class="cls-2" d="M537.34,790.29l1.27-1.46c1.22-1.13,2.08-2.47,2.58-4.02,.78-1.49,1.14-3.09,1.08-4.82,.06-1.72-.29-3.33-1.08-4.82-.5-1.55-1.37-2.89-2.58-4.02l-2.53-1.95c-1.95-1.13-4.05-1.7-6.31-1.71l-3.32,.45c-2.12,.59-3.96,1.67-5.52,3.21l-1.27,1.46c-1.22,1.13-2.08,2.47-2.58,4.02-.78,1.49-1.14,3.09-1.08,4.82-.06,1.72,.29,3.33,1.08,4.82,.5,1.55,1.37,2.89,2.58,4.02l2.53,1.95c1.95,1.13,4.05,1.7,6.31,1.71l3.32-.45c2.12-.59,3.96-1.67,5.52-3.21h0Z"/><path class="cls-2" d="M731.19,449.81c14.13-16.9,28.26-33.79,42.63-50.48s28.76-32.93,43.71-48.88c14.98-15.98,30.43-31.55,46.51-46.43,7.83-7.24,15.88-14.23,23.87-21.29s15.48-13.97,22.28-21.87c7.26-8.44,13.72-17.58,18.08-27.86,2.31-5.44,4.36-10.91,5.5-16.73,1.14-5.79,1.83-11.79,1.48-17.7-.2-3.42-.67-6.84-1.32-10.2-.81-4.18-4.78-7.64-8.73-8.73s-9.28-.07-12.16,3.21c-13.87,15.83-27.75,31.66-41.62,47.49l-41.46,47.3-41.62,47.49c-13.11,14.96-26.09,30.05-39.45,44.78-12.56,13.85-25.65,27.3-40.13,39.15-1.77,1.45-3.56,2.87-5.37,4.27l2.53-1.95c-3.28,2.52-6.62,4.96-10.03,7.3l15.15,19.63c15.7-17.37,31.39-34.74,47.09-52.11,14.7-16.27,29.11-32.9,44.53-48.51,8.15-8.25,16.67-16.14,25.84-23.25l-2.53,1.95c4.06-3.14,8.25-6.11,12.56-8.89l-15.15-19.63c-14.06,16.23-27.48,33.01-40.33,50.22-12.26,16.41-23.91,33.28-34.94,50.54-6.24,9.76-12.27,19.66-18.1,29.67-1.63,2.81-2.12,6.5-1.26,9.63,.8,2.9,3.04,6.04,5.74,7.47,2.9,1.53,6.42,2.3,9.63,1.26s5.8-2.88,7.47-5.74c14.37-24.66,29.98-48.6,46.77-71.68,4.78-6.58,9.66-13.08,14.63-19.52l-1.95,2.53c9.67-12.51,19.68-24.74,30.02-36.69,2.1-2.42,3.81-5.5,3.66-8.84-.13-2.82-.95-5.33-2.68-7.57-1.6-2.07-3.88-3.88-6.49-4.48-3.2-.73-6.79-.57-9.63,1.26-19.99,12.86-37.07,29.52-53.12,46.9-16.97,18.38-33.6,37.09-50.37,55.66l-29.05,32.16c-2.12,2.35-3.81,5.56-3.66,8.84,.13,2.82,.95,5.33,2.68,7.57,1.6,2.07,3.88,3.88,6.49,4.48,3.15,.72,6.87,.63,9.63-1.26,16.86-11.55,32.08-25.27,46.23-39.98,13.99-14.55,27.12-29.91,40.41-45.08l43.43-49.56c14.48-16.52,28.95-33.04,43.43-49.56,14.48-16.52,28.95-33.04,43.43-49.56l5.26-6.01-20.89-5.52c.19,.97,.35,1.94,.49,2.91l-.45-3.32c.65,4.86,.6,9.75-.03,14.61l.45-3.32c-.83,6.02-2.52,11.87-4.86,17.48l1.26-2.99c-3.07,7.26-7.17,13.99-11.97,20.23l1.95-2.53c-10.24,13.2-23.07,23.99-35.57,34.96-13.18,11.57-25.93,23.61-38.32,36.01-12.37,12.38-24.39,25.11-36.16,38.06-11.84,13.03-23.42,26.28-34.87,39.65s-22.76,26.87-34.06,40.37c-1.39,1.66-2.78,3.33-4.18,4.99-2.18,2.6-3.66,5.34-3.66,8.84,0,3.07,1.36,6.73,3.66,8.84s5.51,3.81,8.84,3.66c3.14-.14,6.74-1.15,8.84-3.66h0Z"/></g><g id="Nelson_Mandela-2"><path d="M389.58,605.34c11.54-15.84,28.77-25.94,44.39-37.2,8.15-5.87,15.86-12.18,22.69-19.57,3.93-4.25,7.69-8.67,11.73-12.81s8.15-7.9,12.48-11.58c9.75-8.28,20.2-15.69,30.63-23.08,1.3-.92,.05-3.09-1.26-2.16-9.37,6.64-18.74,13.3-27.64,20.57-4.4,3.59-8.67,7.33-12.75,11.28s-7.98,8.29-11.83,12.58-7.48,8.14-11.62,11.82c-3.67,3.25-7.53,6.28-11.47,9.18-7.94,5.84-16.2,11.21-24.09,17.11-8.73,6.53-16.96,13.75-23.41,22.6-.95,1.3,1.22,2.55,2.16,1.26h0Z"/><path d="M523.72,497.56c7.18,1.6,10.82,9.23,16.09,13.65,3.09,2.59,6.77,4.21,10.88,3.88,5.27-.42,9.93-3.29,14.29-6.06,5.55-3.53,11.11-7.05,16.66-10.58,1.35-.86,.1-3.02-1.26-2.16l-14.37,9.13c-4.38,2.78-8.93,6.09-14.15,7.02-8.26,1.46-12.98-5.83-17.89-11.06-2.65-2.82-5.71-5.37-9.57-6.23-1.57-.35-2.24,2.06-.66,2.41h0Z"/><path d="M584.32,496.5l1.83-.92c.15-.08,.26-.19,.35-.32,.11-.12,.19-.26,.22-.43,.05-.17,.06-.33,.02-.5,0-.17-.06-.32-.15-.46-.17-.27-.43-.5-.75-.57l-.33-.04c-.23,0-.44,.06-.63,.17l-1.83,.92c-.15,.08-.26,.19-.35,.32-.11,.12-.19,.26-.22,.43-.05,.17-.06,.33-.02,.5,0,.17,.06,.32,.15,.46,.17,.27,.43,.5,.75,.57l.33,.04c.23,0,.44-.06,.63-.17h0Z"/><path d="M587.14,495.27c5.27-6.12,10.58-12.27,16.64-17.64,3.03-2.69,6.24-5.16,9.69-7.28,3.75-2.3,7.77-4.08,11.76-5.91,15.6-7.15,29.86-16.73,43.45-27.14,7.6-5.83,15.01-11.9,22.42-17.98,1.24-1.02-.53-2.78-1.77-1.77-13.26,10.89-26.57,21.81-40.97,31.18-7.15,4.66-14.56,8.92-22.27,12.57-4.03,1.9-8.16,3.62-12.05,5.82-3.47,1.96-6.71,4.29-9.78,6.82-7,5.79-12.97,12.7-18.89,19.56-1.05,1.21,.72,2.99,1.77,1.77h0Z"/><path d="M705.12,407.83c7.3-8.58,18.88-11.87,26.31-20.33,6.62-7.55,9.47-17.39,14.12-26.11,2.57-4.82,5.79-9.33,10.44-12.33,1.35-.87,.09-3.04-1.26-2.16-8.52,5.51-12.38,15.12-16.4,23.99-2.07,4.56-4.25,9.15-7.29,13.16-3.38,4.46-7.95,7.61-12.64,10.55-5.35,3.35-10.91,6.6-15.05,11.47-1.04,1.22,.72,3,1.77,1.77h0Z"/><path d="M764.37,339.29c14.08-20.84,31.93-38.72,50.41-55.64,18.5-16.93,37.78-33.04,55.42-50.89,9.83-9.94,19.1-20.43,27.35-31.73,.95-1.3-1.22-2.55-2.16-1.26-14.85,20.35-33.12,37.87-51.77,54.69s-37.77,32.98-55.03,51.16c-9.6,10.11-18.57,20.84-26.38,32.4-.9,1.34,1.26,2.59,2.16,1.26h0Z"/><path d="M527.76,704.86l71.49-92.04c11.91-15.34,23.83-30.68,35.74-46.02s22.77-29.08,36.05-41.98c12.97-12.59,26.31-24.69,38.73-37.85s24.03-26.5,35.57-40.15c23.15-27.4,45.62-55.36,69.78-81.89s50.56-52.89,77.7-77.41c3.37-3.04,6.75-6.06,10.16-9.07,1.21-1.07-.57-2.83-1.77-1.77-27.42,24.21-53.67,49.72-78.62,76.47-24.64,26.41-47.53,54.29-70.68,82-22.97,27.49-46.62,54.24-72.85,78.68-6.84,6.37-13.64,12.79-19.96,19.69-6.18,6.75-11.98,13.83-17.65,21.01-11.81,14.95-23.4,30.07-35.09,45.12l-71.49,92.04-8.87,11.42c-.98,1.26,.78,3.04,1.77,1.77h0Z"/><path d="M909.46,271.26c10.76-14.13,21.85-28.98,26.61-46.37,2.45-8.93,2.82-18.16,1.18-27.27-.86-4.75-2.21-9.41-3.88-13.94-.83-2.27-1.75-4.5-2.72-6.71-.81-1.85-1.57-3.86-2.96-5.37-1.47-1.59-3.63-2.2-5.69-1.48-2.28,.8-3.92,2.73-5.45,4.51-3.9,4.55-7.8,9.1-11.7,13.65-1.04,1.22,.72,2.99,1.77,1.77l9.75-11.37c1.81-2.11,6.16-8.81,9.43-5.43,1.34,1.38,2.03,3.47,2.78,5.2,.91,2.09,1.75,4.2,2.53,6.34,1.57,4.32,2.85,8.76,3.68,13.28,1.58,8.59,1.22,17.33-1.03,25.77-2.16,8.06-5.81,15.63-10.09,22.77-4.9,8.18-10.61,15.82-16.38,23.4-.97,1.28,1.2,2.53,2.16,1.26h0Z"/><path d="M70.45,583.33c-1.13-8.84,1.93-17.4,8.29-23.62,3.16-3.09,6.99-5.53,11.1-7.15,2.13-.84,4.33-1.49,6.57-1.93s4.3-1.46,6.16-2.64c1.98-1.25,3.71-2.81,4.84-4.88,1.23-2.26,2.28-4.6,3.36-6.93,2.09-4.51,4.38-9.3,8.46-12.37,8.11-6.11,18.98-7.01,28.51-4.13,5.05,1.52,9.69,4.2,14.18,6.92s9.21,5.89,13.91,8.69,9.57,5.33,14.74,7.2c5.92,2.15,11.87,4.2,17.83,6.23,23.57,8.02,47.37,15.39,70.91,23.51,11.73,4.05,23.4,8.28,34.93,12.88,5.86,2.34,11.69,4.77,17.47,7.31s11.01,5.54,16.79,7.53c2.58,.89,5.26,1.47,8,1.45,1.61-.01,1.61-2.51,0-2.5-6.32,.05-11.92-3.35-17.47-5.93s-11.46-5.09-17.25-7.49c-11.65-4.82-23.46-9.23-35.35-13.42-23.9-8.42-48.11-15.91-72.13-23.98-6.04-2.03-12.08-4.1-18.09-6.23-5.6-1.98-11-4.1-16.19-7.02-9.49-5.34-18.21-12.36-28.37-16.43-9.18-3.68-19.95-3.94-28.96,.39-4.58,2.2-8.22,5.49-10.84,9.83s-4.26,9.41-6.92,13.83c-1.28,2.13-3.62,3.55-5.81,4.6s-4.3,1.3-6.52,1.94c-4.38,1.26-8.56,3.29-12.2,6.04-6.92,5.23-11.69,12.89-12.57,21.59-.23,2.24-.16,4.49,.13,6.72,.2,1.57,2.7,1.59,2.5,0h0Z"/><path d="M361.43,603.76l17.37,3.9c1.57,.35,2.24-2.06,.66-2.41l-17.37-3.9c-1.57-.35-2.24,2.06-.66,2.41h0Z"/><path d="M76.69,587.46c8.89,4.04,18.26,6.91,27.9,8.46,4.83,.78,9.71,1.25,14.6,1.38s9.54-.22,14.33-.47,9.38-.29,13.7,1.5,7.3,5.01,10.13,8.35c5.89,6.96,11.61,14.19,16.56,21.86,4.79,7.42,8.81,15.46,10.62,24.16,2.07,9.93,.67,20.02-1.99,29.7-1.35,4.9-3.39,9.72-4.07,14.78-.62,4.59,.47,8.9,2.75,12.89s5.35,7.5,8.24,11.04c3.08,3.78,6.23,7.5,9.43,11.18,12.92,14.81,26.8,28.78,41.54,41.79,1.83,1.61,3.67,3.21,5.52,4.8,1.22,1.04,2.99-.72,1.77-1.77-14.94-12.78-29.05-26.51-42.2-41.11-6.59-7.31-13.12-14.78-19.06-22.63-2.69-3.55-5.3-7.59-5.64-12.15-.39-5.14,1.76-10.1,3.21-14.92,2.9-9.62,4.92-19.77,3.65-29.85-1.11-8.78-4.45-17.06-8.87-24.69s-10.09-14.99-15.76-22.02c-2.79-3.46-5.51-7.07-8.92-9.95s-7.44-4.69-11.94-5.27-9.29-.11-13.92,.16c-4.92,.28-9.85,.23-14.77-.16-9.8-.78-19.49-2.95-28.7-6.37-2.32-.86-4.6-1.81-6.85-2.83-1.45-.66-2.73,1.49-1.26,2.16h0Z"/><path d="M302.46,948.32c6.74-8.71,15.43-15.66,22.87-23.73,7.01-7.6,13.38-15.76,19.4-24.16,12.18-16.98,22.95-34.94,35.25-51.84,6.89-9.47,14.29-18.58,22.57-26.87,1.14-1.14-.63-2.91-1.77-1.77-14.69,14.7-26.5,31.9-37.92,49.17-11.52,17.4-22.78,35.11-36.65,50.78-3.97,4.48-8.18,8.71-12.49,12.85-4.57,4.38-9.14,8.78-13.02,13.8-.97,1.26,.78,3.04,1.77,1.77h0Z"/><path d="M467.96,853.59c2.26-5.24,6.14-9.41,10.1-13.41,4.54-4.59,9.11-9.14,13.71-13.67,9.14-9.01,18.38-17.92,27.72-26.72,5.32-5.01,10.67-9.99,16.06-14.94,1.19-1.09-.58-2.86-1.77-1.77-19.26,17.7-38.12,35.83-56.55,54.4-4.41,4.44-8.92,9.03-11.43,14.86-.63,1.46,1.52,2.74,2.16,1.26h0Z"/><path d="M218.77,887.08c-4.7-2.49-7.44-8.11-6.16-13.34,1.35-5.51,6.17-9.32,10.5-12.56,10.56-7.9,20.26-16.61,29.43-26.08,5.29-5.46,10.42-11.07,15.55-16.68,1.08-1.19-.68-2.96-1.77-1.77-9.63,10.53-19.29,21.09-29.95,30.62-5.14,4.6-10.6,8.7-16.05,12.91-4.47,3.45-9.09,7.65-10.25,13.44-1.23,6.14,1.9,12.7,7.43,15.62,1.42,.75,2.69-1.41,1.26-2.16h0Z"/><path d="M254.41,790.76c7.35,6.79,13.6,14.65,18.56,23.34,.8,1.4,2.96,.14,2.16-1.26-5.06-8.86-11.46-16.92-18.95-23.85-1.18-1.09-2.95,.67-1.77,1.77h0Z"/><path d="M224.59,892.43c10.7,6.1,20.66,13.45,29.61,21.91,4.46,4.21,8.67,8.69,12.6,13.4,3.67,4.4,7.08,9.02,10.83,13.35,4.2,4.84,8.88,9.31,14.52,12.45,1.41,.78,2.67-1.37,1.26-2.16-10.19-5.68-16.81-15.63-24.04-24.45-7.71-9.4-16.54-17.86-26.21-25.23-5.51-4.2-11.29-8.01-17.31-11.44-1.4-.8-2.66,1.36-1.26,2.16h0Z"/><path d="M406.81,813.63c-.29-2.64,3.03-3.12,4.87-2.32,2.52,1.09,4.56,3.43,6.58,5.24,4.55,4.08,9.31,8.03,13.42,12.56,6.16,6.79,10.75,14.9,17.27,21.39,3.55,3.54,7.68,6.42,12.46,8.03,1.53,.51,2.18-1.9,.66-2.41-9.43-3.17-15.44-11.7-21.12-19.35-3.08-4.14-6.2-8.26-9.87-11.9-4.64-4.61-9.63-8.96-14.57-13.24-2.11-1.83-4.75-3.69-7.7-3.16-2.45,.43-4.78,2.51-4.49,5.17,.17,1.58,2.68,1.6,2.5,0h0Z"/><path d="M540.73,778.21c1.3-5.01-1.65-9.61-5.15-12.92-1.86-1.75-3.89-3.32-5.69-5.13-1.9-1.92-3.56-4.06-5.09-6.28-3.27-4.75-6.22-9.73-9.28-14.6l-4.73-7.52c-1.28-2.04-3.58-4.75-2.69-7.34,.84-2.45,3.68-4.05,5.64-5.5l8.11-6.04c1.28-.95,.03-3.12-1.26-2.16l-7.34,5.46c-1.99,1.48-4.23,2.87-5.88,4.76-1.53,1.76-2.31,3.88-1.79,6.21,.62,2.74,2.63,5.21,4.1,7.54,3.23,5.14,6.46,10.28,9.69,15.42,2.96,4.7,6.01,9.4,10.14,13.16s10.42,8.02,8.8,14.29c-.4,1.56,2.01,2.22,2.41,.66h0Z"/><path d="M14,607.54c16.13-5.56,33.68-3.38,49.96-8.24,4.43-1.32,8.68-3.2,12.53-5.77,1.33-.89,.08-3.06-1.26-2.16-14.08,9.4-31.94,8.23-48.02,10.55-4.71,.68-9.37,1.65-13.87,3.2-1.51,.52-.86,2.94,.66,2.41h0Z"/></g><g id="Nelson_Madela"><g id="Layer_4" class="cls-1"><g><line class="cls-3" x1="294.72" y1="957.45" x2="265.22" y2="991.15"/><polyline class="cls-3" points="208.62 871.65 174.52 911.35 165.22 903.45 140.82 930.35 126.42 953.55 95.22 998.65"/><polyline class="cls-3" points="83.52 594.35 77.22 594.35 79.32 602.85 57.92 609.15 53.32 601.75 13.52 609.35"/><polyline class="cls-3" points="124.82 516.05 112.52 508.35 105.32 506.45 92.42 503.25 80.22 491.05 97.72 462.45 124.82 477.15"/><polyline class="cls-3" points="127.22 515.25 129.72 508.85 175.62 457.55 232.52 385.85"/><polyline class="cls-3" points="105.32 506.45 134.12 461.25 163.82 470.65"/><polyline class="cls-3" points="167.22 528.85 226.32 462.45 274.72 395.15"/><line class="cls-3" x1="175.62" y1="457.55" x2="220.92" y2="468.45"/><line class="cls-3" x1="243.82" y1="554.95" x2="364.22" y2="420.95"/><polyline class="cls-3" points="226.32 462.45 258.12 473.65 253.42 478.15 286.02 507.95"/><polyline class="cls-3" points="275.32 567.55 312.62 538.85 342.42 515.25 400.52 462.95 422.62 440.45"/><line class="cls-3" x1="310.72" y1="581.65" x2="456.72" y2="458.45"/><line class="cls-3" x1="447.12" y1="552.05" x2="405.92" y2="501.35"/><path class="cls-3" d="M352.02,417.85l10.6-25.6,8.1-29.9s11.5-36.4,13.1-38,10.5-30.6,10.5-30.6"/><polyline class="cls-3" points="357.42 288.55 347.52 316.65 325.32 370.15 304.02 406.45"/><polyline class="cls-3" points="302.22 282.55 267.72 363.05 274.72 363.05 265.62 381.55 256.22 378.15 252.62 391.15"/><line class="cls-3" x1="245.92" y1="279.45" x2="220.92" y2="387.55"/><polyline class="cls-3" points="402.82 431.45 411.42 415.85 451.92 310.35 459.42 311.05 481.92 176.75"/><polyline class="cls-3" points="400.42 296.05 422.62 226.55 447.82 144.25"/><polyline class="cls-3" points="352.02 287.95 352.02 270.15 361.12 270.15 361.12 265.15 378.72 212.35 401.12 122.65"/><polyline class="cls-3" points="422.62 226.55 405.92 223.85 378.72 212.35"/><polyline class="cls-3" points="315.32 282.55 318.62 265.15 330.72 237.15 338.12 198.45 353.62 149.25"/><polyline class="cls-3" points="639.92 299.95 649.42 144.85 693.02 160.05 855.72 207.55 968.12 121.35"/><polyline class="cls-3" points="855.42 131.75 809.12 168.55 755.62 151.15 743.12 133.45 728.32 145.35 717.82 167.35"/><line class="cls-3" x1="749.32" y1="142.25" x2="767.02" y2="128.45"/><polyline class="cls-3" points="-4.78 400.15 30.62 421.55 52.72 395.15 39.32 387.55 47.72 371.85 53.92 340.95"/><polyline class="cls-3" points="11.02 255.95 53.92 251.85 59.32 206.35 55.22 206.35 56.02 192.25 39.32 186.35 53.92 124.75"/><polyline class="cls-3" points="116.82 157.15 115.22 177.65 108.92 206.35 105.32 212.35 102.52 257.65 139.62 263.45 202.62 272.05 245.92 279.45 286.02 280.85 357.42 288.55 394.22 293.85 427.92 305.75 388.42 425.85"/><polyline class="cls-3" points="48.62 252.45 46.42 282.55 19.32 336.85 33.92 343.45 34.72 338.45 53.92 340.95 100.92 354.15 118.32 359.95 164.52 383.35 181.02 387.85 184.52 386.85 202.32 387.85 220.92 387.55 230.42 385.85 252.62 391.15 269.82 393.45 304.02 406.45 335.92 413.35 370.72 423.05 388.42 425.85 402.82 431.45 453.82 457.25 475.62 465.15 505.82 484.05 517.52 466.95 563.12 414.95 636.02 307.35 639.92 299.95 645.22 303.15 653.22 282.55 681.92 293.85 672.12 317.95 737.62 365.55"/><line class="cls-3" x1="139.62" y1="263.45" x2="118.32" y2="359.95"/><polyline class="cls-3" points="170.62 267.65 187.72 193.85 201.02 196.35 210.62 152.15 194.42 152.15 195.22 136.75"/><line class="cls-3" x1="534.72" y1="447.35" x2="588.92" y2="486.45"/></g></g><g id="Layer_3"><g><line class="cls-3" x1="90.62" y1="554.65" x2="75.62" y2="579.55"/><polyline class="cls-3" points="83.52 594.35 84.52 586.75 99.32 559.25 119.22 536.75 123.72 528.95 129.72 516.05"/><line class="cls-3" x1="122.42" y1="521.45" x2="127.22" y2="521.45"/><polyline class="cls-3" points="120.42 565.35 138.82 540.95 150.52 523.15"/><polyline class="cls-3" points="104.12 553.75 109.72 559.35 122.42 566.45 132.52 570.95 141.72 576.05 168.92 611.25 181.22 628.85 194.72 674.85 207.92 668.85 234.82 651.25"/><polyline class="cls-3" points="92.42 588.45 102.52 569.55 109.72 559.35"/><line class="cls-3" x1="126.42" y1="595.45" x2="94.22" y2="585.15"/><line class="cls-3" x1="134.72" y1="592.15" x2="146.92" y2="582.85"/><line class="cls-3" x1="146.92" y1="599.65" x2="139.62" y2="588.45"/><polyline class="cls-3" points="144.42 532.55 165.62 541.25 171.72 546.75 176.62 555.25 184.72 564.15 195.62 573.95"/><polyline class="cls-3" points="205.02 541.75 194.72 577.05 191.72 583.95 187.52 590.35 168.92 611.25"/><polyline class="cls-3" points="156.72 595.45 177.92 570.65 194.62 552.05 202.02 552.05"/><polyline class="cls-3" points="193.42 537.85 187.92 545.85 176.62 555.25 152.02 588.45 145.02 580.45 152.92 572.25 162.92 559.35"/><polyline class="cls-3" points="187.52 590.35 172.42 577.05 164.62 571.45 158.32 565.35"/><line class="cls-3" x1="191.72" y1="583.95" x2="177.92" y2="570.65"/><line class="cls-3" x1="152.92" y1="536.05" x2="132.52" y2="570.95"/><line class="cls-3" x1="146.92" y1="563.15" x2="140.02" y2="558.15"/><line class="cls-3" x1="179.12" y1="582.85" x2="162.42" y2="602.85"/><polyline class="cls-3" points="222.02 547.55 216.02 573.75 207.62 588.45 196.72 601.05 185.92 608.45 174.02 618.55"/><polyline class="cls-3" points="179.12 599.65 185.92 608.45 193.42 624.75 212.32 682.45 220.62 701.95 244.12 744.75 262.02 780.85"/><polyline class="cls-3" points="218.82 739.85 258.52 786.95 293.52 822.85 342.92 877.45"/><polyline class="cls-3" points="174.52 630.35 214.52 618.55 239.52 611.25 264.62 605.35 275.42 605.35 286.22 630.35 295.82 659.95 319.02 688.55 342.92 714.35 370.52 745.45 409.72 792.55"/><polyline class="cls-3" points="285.22 948.55 314.32 915.15 353.42 864.25 387.42 819.05 439.92 758.15 481.12 705.15 504.12 679.15 510.22 669.85 543.92 631.15 561.72 614.35 565.02 606.55 578.12 591.05 595.02 581.25 610.72 568.55 623.62 544.45 717.82 449.75 794.02 375.05"/><polyline class="cls-3" points="695.12 498.25 703.02 481.45 717.82 469.25 730.92 452.15 755.62 427.75"/><polyline class="cls-3" points="238.62 553.25 234.02 568.85 223.62 594.05 219.22 601.65 224.82 615.55 228.52 633.75 241.72 674.05"/><polyline class="cls-3" points="177.52 693.45 220.62 679.85 326.72 651.75 381.82 636.75 397.52 635.15 403.32 632.55 413.92 623.85 427.92 612.35 455.82 592.05 485.42 567.45 497.12 557.55 534.12 530.85 544.62 521.25"/><polyline class="cls-3" points="212.32 544.25 208.42 564.15 199.22 583.95 222.02 596.85"/><polyline class="cls-3" points="246.12 555.95 239.52 581.95 240.72 592.15 245.42 602.85"/><line class="cls-3" x1="230.42" y1="599.65" x2="240.52" y2="590.35"/><line class="cls-3" x1="234.92" y1="605.35" x2="243.42" y2="598.25"/><polyline class="cls-3" points="196.72 601.05 200.42 605.95 206.32 620.95 210.62 638.45 217.62 662.55"/><polyline class="cls-3" points="207.32 599.65 212.12 610.55 214.52 618.55 219.82 636.15 222.02 646.95 234.02 676.35"/><polyline class="cls-3" points="256.62 560.05 253.42 582.85 260.62 641.15 267.22 667.55"/><polyline class="cls-3" points="264.62 605.35 276.32 635.35 286.02 662.55"/><path class="cls-3" d="M233.22,648.05c.7,0,27.4-6.9,27.4-6.9l15.6-5.8,9.9-4.9,11.9-1.7,4.4,2.5,3.9,26.1"/><polyline class="cls-3" points="290.02 573.35 291.02 590.35 295.12 602.65"/><polyline class="cls-3" points="306.32 579.85 316.72 636.35 318.92 653.85"/><line class="cls-3" x1="218.62" y1="562.45" x2="234.02" y2="568.85"/><line class="cls-3" x1="230.42" y1="550.45" x2="227.12" y2="565.95"/><polyline class="cls-3" points="199.92 559.35 208.42 564.15 217.12 568.85"/><polyline class="cls-3" points="252.02 643.35 247.32 623.75 239.52 611.25 230.42 599.65 223.62 594.05"/><line class="cls-3" x1="226.62" y1="624.25" x2="244.62" y2="619.35"/><polyline class="cls-3" points="248.02 626.65 228.52 633.75 186.22 645.65"/><line class="cls-3" x1="242.92" y1="645.65" x2="237.82" y2="630.35"/><polyline class="cls-3" points="247.32 623.75 258.22 621.75 266.12 622.75 272.12 636.85 280.12 664.05"/><line class="cls-3" x1="316.72" y1="583.95" x2="320.42" y2="601.85"/><polyline class="cls-3" points="333.32 590.65 333.92 594.95 354.82 644.15"/><line class="cls-3" x1="338.42" y1="648.55" x2="331.82" y2="611.25"/><line class="cls-3" x1="316.72" y1="636.35" x2="336.12" y2="635.35"/><line class="cls-3" x1="349.92" y1="600.65" x2="366.02" y2="641.05"/><polyline class="cls-3" points="362.52 594.95 357.42 598.25 381.82 636.75"/><polyline class="cls-3" points="340.12 609.35 352.02 605.95 359.62 601.85"/><line class="cls-3" x1="340.22" y1="596.85" x2="335.32" y2="598.25"/><line class="cls-3" x1="389.32" y1="599.65" x2="413.92" y2="623.85"/><line class="cls-3" x1="382.82" y1="604.55" x2="397.52" y2="615.85"/><line class="cls-3" x1="399.22" y1="592.15" x2="420.22" y2="618.65"/><polyline class="cls-3" points="408.32 585.35 427.92 612.35 445.52 638.05"/><polyline class="cls-3" points="411.32 626.05 447.12 667.55 481.12 705.15 502.12 727.25"/><polyline class="cls-3" points="543.92 631.15 519.92 629.35 495.82 631.05 435.92 638.95 426.92 644.15"/><polyline class="cls-3" points="446.02 599.15 465.62 620.05 470.52 626.05 474.02 633.95"/><polyline class="cls-3" points="451.92 628.35 465.62 620.05 499.32 594.95 552.42 554.25 573.62 539.95 589.32 524.45"/><polyline class="cls-3" points="549.52 518.15 561.32 534.95 594.72 549.05 611.42 546.95 627.62 527.35 643.12 513.85 649.42 504.75 675.42 476.75 743.12 406.85 799.82 349.35 817.62 331.45 835.82 310.35 855.72 289.05 890.22 256.35 894.22 250.45 911.12 232.65 931.62 214.05"/><polyline class="cls-3" points="930.12 199.45 886.32 242.55 829.02 302.95"/><line class="cls-3" x1="822.72" y1="296.95" x2="835.82" y2="310.35"/><line class="cls-3" x1="847.42" y1="297.95" x2="858.72" y2="311.05"/><line class="cls-3" x1="855.72" y1="289.05" x2="867.52" y2="302.95"/><polyline class="cls-3" points="891.02 281.35 885.12 275.25 922.12 246.75 911.12 232.65"/><line class="cls-3" x1="890.22" y1="256.35" x2="898.22" y2="265.15"/><polyline class="cls-3" points="894.22 250.45 886.32 242.55 879.52 234.05 874.52 223.85"/><polyline class="cls-3" points="927.22 187.55 909.02 200.65 894.22 215.95 877.52 229.95 862.82 237.15"/><polyline class="cls-3" points="819.12 314.55 804.22 328.25 780.72 348.35 725.42 397.15 697.52 424.95 674.32 443.75 656.82 460.95 648.72 471.15 631.62 487.35 610.42 506.85"/><polyline class="cls-3" points="627.62 527.35 607.22 502.65 603.02 500.15 590.32 503.15 556.02 527.35"/><polyline class="cls-3" points="585.92 545.25 602.62 526.15 617.32 514.85"/><line class="cls-3" x1="623.62" y1="544.45" x2="617.32" y2="539.95"/><line class="cls-3" x1="648.42" y1="519.55" x2="643.12" y2="513.85"/><polyline class="cls-3" points="603.02 500.15 617.32 490.85 641.52 469.45 645.72 462.35"/><line class="cls-3" x1="649.42" y1="504.75" x2="627.02" y2="482.15"/><polyline class="cls-3" points="653.82 464.75 655.92 469.05 648.42 488.05 632.22 503.35"/><line class="cls-3" x1="656.82" y1="460.95" x2="675.42" y2="476.75"/><polyline class="cls-3" points="697.52 424.95 709.32 441.75 717.82 449.75"/><polyline class="cls-3" points="743.12 406.85 752.42 415.85 789.82 359.55 780.72 348.35 772.62 339.55"/><line class="cls-3" x1="799.82" y1="349.35" x2="809.12" y2="358.85"/><line class="cls-3" x1="817.62" y1="331.45" x2="826.62" y2="340.65"/><line class="cls-3" x1="833.22" y1="313.45" x2="844.32" y2="324.25"/><polyline class="cls-3" points="472.32 578.25 481.92 592.15 488.12 603.25"/><polyline class="cls-3" points="481.22 570.85 488.82 579.75 499.32 594.95 519.52 615.45 525.52 620.35 539.62 626.05 549.32 626.05"/><polyline class="cls-3" points="562.32 612.85 550.32 611.65 529.72 610.65 519.52 615.45"/><polyline class="cls-3" points="565.02 606.55 560.12 603.25 549.52 601.75 527.92 604.15 514.32 583.45"/><polyline class="cls-3" points="573.62 539.95 576.42 547.65 575.02 557.85 562.32 570.85 556.02 576.35 521.42 594.25"/><polyline class="cls-3" points="578.12 591.05 589.32 568.65 596.72 562.35 601.62 556.05"/><line class="cls-3" x1="575.02" y1="557.85" x2="585.92" y2="575.55"/><polyline class="cls-3" points="493.62 599.15 503.32 616.55 506.32 630.35"/><polyline class="cls-3" points="488.82 579.75 499.12 572.25 538.22 536.75"/><line class="cls-3" x1="510.02" y1="586.75" x2="499.12" y2="572.25"/><line class="cls-3" x1="540.22" y1="635.45" x2="554.52" y2="645.45"/><line class="cls-3" x1="532.62" y1="644.15" x2="546.22" y2="653.55"/><line class="cls-3" x1="520.62" y1="657.95" x2="535.52" y2="666.25"/><line class="cls-3" x1="515.32" y1="663.95" x2="529.32" y2="672.85"/><line class="cls-3" x1="510.22" y1="669.85" x2="524.82" y2="679.05"/><line class="cls-3" x1="504.12" y1="679.15" x2="518.62" y2="688.55"/><polyline class="cls-3" points="495.82 631.05 495.82 638.95 491.62 652.75 490.22 660.75 488.12 666.25 480.22 676.65 467.32 689.85"/><line class="cls-3" x1="452.42" y1="673.45" x2="492.12" y2="650.95"/><polyline class="cls-3" points="461.52 652.75 469.12 663.95 479.42 677.45 485.92 683.85 494.42 690.25"/><polyline class="cls-3" points="510.22 630.05 506.32 675.75 496.62 671.45 488.12 666.25"/><line class="cls-3" x1="196.72" y1="687.45" x2="204.02" y2="704.55"/><polyline class="cls-3" points="180.22 692.65 205.82 722.15 212.72 733.55 210.12 742.75"/><line class="cls-3" x1="197.42" y1="729.35" x2="205.82" y2="722.15"/><line class="cls-3" x1="187.62" y1="718.95" x2="196.42" y2="711.35"/><line class="cls-3" x1="223.82" y1="757.35" x2="229.72" y2="752.75"/><polyline class="cls-3" points="232.72 756.35 237.12 750.95 222.52 734.25"/><path class="cls-3" d="M256.82,784.95c1.4-1.4,14.7-10.8,14.7-10.8l44.6-36.2,26.7-23.6,10.2-7.1,14.2-8.2,19.9-14.3,41.9-38"/><polyline class="cls-3" points="304.52 670.65 329.02 664.05 347.12 658.65 359.62 650.95"/><line class="cls-3" x1="357.42" y1="643.35" x2="361.12" y2="656.05"/><polyline class="cls-3" points="319.02 688.55 362.72 654.65 379.12 646.65"/><polyline class="cls-3" points="397.52 635.15 405.32 648.55 387.72 665.35 361.12 678.55 353.62 683.95 332.82 703.55 305.52 727.25"/><polyline class="cls-3" points="387.42 819.05 359.62 787.45 298.42 718.95 285.22 690.25"/><polyline class="cls-3" points="220.62 679.85 233.22 705.25 247.32 732.65 264.62 766.25 271.52 774.15 281.92 784.95 353.42 864.25"/><polyline class="cls-3" points="287.02 761.65 332.92 812.85 366.12 847.45"/><polyline class="cls-3" points="347.82 774.15 320.12 798.55 306.82 812.55 293.52 822.85 283.72 832.15 273.62 840.05 266.42 845.65 249.62 861.35"/><polyline class="cls-3" points="241.22 907.65 244.82 904.15 311.52 842.75"/><line class="cls-3" x1="273.62" y1="840.05" x2="291.32" y2="861.35"/><line class="cls-3" x1="283.72" y1="832.15" x2="301.22" y2="852.25"/><polyline class="cls-3" points="283.02 812.05 254.12 836.85 235.22 854.25 229.82 861.35 217.62 871.55 213.22 876.45"/><polyline class="cls-3" points="259.72 890.45 256.82 885.35 238.02 871.55 225.52 882.15"/><polyline class="cls-3" points="232.22 899.25 234.82 894.65 249.62 880.05"/><line class="cls-3" x1="225.52" y1="892.95" x2="229.72" y2="887.75"/><line class="cls-3" x1="218.12" y1="886.05" x2="223.32" y2="879.15"/><polyline class="cls-3" points="286.42 947.05 244.82 904.15 234.82 894.65 217.62 871.55"/><polyline class="cls-3" points="314.32 915.15 301.22 903.35 288.12 885.35 277.22 874.35"/><polyline class="cls-3" points="322.82 746.25 295.22 770.85 281.92 784.95"/><polyline class="cls-3" points="288.12 791.85 301.22 777.45 312.52 767.95 332.72 757.35 365.52 739.85"/><line class="cls-3" x1="264.02" y1="792.55" x2="278.82" y2="781.75"/><line class="cls-3" x1="267.52" y1="803.45" x2="285.22" y2="788.55"/><line class="cls-3" x1="278.82" y1="807.75" x2="292.42" y2="796.65"/><polyline class="cls-3" points="294.12 798.45 307.32 784.25 336.32 761.35"/><polyline class="cls-3" points="286.42 815.55 300.32 805.35 314.12 791.85 341.22 766.85 370.52 745.45 391.72 725.75 403.32 715.15 408.42 707.75 427.22 686.05 447.12 667.55 452.92 659.75 461.52 652.75 467.32 648.85 470.32 641.45 470.32 634.45"/><polyline class="cls-3" points="409.02 664.85 417.82 676.65 435.92 695.95 435.92 701.75 426.92 709.15 421.82 715.15 419.92 720.15 379.62 756.35 350.62 777.35"/><polyline class="cls-3" points="353.72 780.85 326.62 805.75 312.72 819.05 300.02 830.05"/><polyline class="cls-3" points="306.82 837.55 319.82 826.95 332.92 812.85 359.62 787.45 388.02 766.45 413.52 744.05"/><line class="cls-3" x1="406.12" y1="732.55" x2="430.92" y2="768.55"/><line class="cls-3" x1="416.22" y1="723.45" x2="439.92" y2="758.15"/><polyline class="cls-3" points="404.62 751.85 418.52 768.55 426.12 774.15 435.92 783.15 469.42 822.45"/><polyline class="cls-3" points="413.02 789.35 454.32 837.55 467.82 823.75 533.32 766.65"/><polyline class="cls-3" points="505.92 731.95 474.22 760.65 442.42 790.85 427.22 806.05"/><polyline class="cls-3" points="397.52 758.15 419.62 781.75 434.82 798.45 461.72 830.05"/><polyline class="cls-3" points="439.92 820.75 454.92 805.45 520.02 749.85"/><polyline class="cls-3" points="526.62 758.15 494.72 786.25 462.32 814.15"/><polyline class="cls-3" points="449.02 798.45 480.82 768.95 512.92 740.75"/><polyline class="cls-3" points="498.52 723.45 467.12 751.85 487.22 777.85 501.22 794.55"/><line class="cls-3" x1="434.42" y1="781.75" x2="467.12" y2="751.85"/><line class="cls-3" x1="445.22" y1="751.35" x2="454.72" y2="763.25"/><line class="cls-3" x1="490.92" y1="715.45" x2="450.62" y2="758.15"/><line class="cls-3" x1="377.62" y1="774.15" x2="401.92" y2="802.25"/><line class="cls-3" x1="369.92" y1="779.95" x2="395.62" y2="809.55"/><polyline class="cls-3" points="438.12 657.15 417.82 676.65 406.12 687.35 391.02 706.45 382.72 715.75 369.92 726.55 361.42 735.15"/><line class="cls-3" x1="353.12" y1="707.15" x2="369.92" y2="726.55"/><polyline class="cls-3" points="367.32 698.95 374.92 708.55 382.72 715.75 391.72 725.75"/><polyline class="cls-3" points="387.22 684.65 398.22 697.35 408.42 707.75"/><line class="cls-3" x1="335.12" y1="721.25" x2="353.72" y2="746.25"/><line class="cls-3" x1="326.02" y1="749.85" x2="345.52" y2="735.15"/><line class="cls-3" x1="387.72" y1="665.35" x2="396.02" y2="676.65"/><polyline class="cls-3" points="421.12 653.85 403.32 632.55 395.82 625.45 371.22 612.85 366.02 612.85 356.42 616.85 344.32 619.35"/><polyline class="cls-3" points="401.62 642.25 378.42 654.95 375.12 648.55"/><line class="cls-3" x1="356.42" y1="659.55" x2="361.12" y2="678.55"/><polyline class="cls-3" points="326.72 651.75 329.02 664.05 331.82 672.85"/><polyline class="cls-3" points="231.32 677.05 244.82 694.55 257.62 709.95 277.52 731.95 280.12 747.45 289.62 759.55"/><line class="cls-3" x1="307.72" y1="729.35" x2="281.92" y2="749.65"/><line class="cls-3" x1="285.22" y1="753.85" x2="269.82" y2="761.65"/><line class="cls-3" x1="260.42" y1="758.15" x2="280.12" y2="747.45"/><line class="cls-3" x1="247.32" y1="732.65" x2="267.82" y2="721.25"/><polyline class="cls-3" points="244.12 726.55 255.02 721.15 262.02 714.85"/><line class="cls-3" x1="239.92" y1="718.25" x2="257.62" y2="709.95"/><line class="cls-3" x1="236.82" y1="712.35" x2="252.02" y2="703.15"/><line class="cls-3" x1="233.22" y1="705.25" x2="247.32" y2="697.45"/><line class="cls-3" x1="228.72" y1="696.15" x2="241.72" y2="690.25"/><polyline class="cls-3" points="302.02 667.55 274.32 677.05 256.12 682.25 238.42 686.25 230.42 689.85"/><polyline class="cls-3" points="252.42 671.45 256.12 682.25 263.62 703.15"/><polyline class="cls-3" points="254.52 706.25 281.92 691.75 309.12 676.35"/><polyline class="cls-3" points="271.42 666.45 274.32 677.05 281.92 691.75"/><polyline class="cls-3" points="244.82 694.55 258.32 688.55 277.52 683.05"/><polyline class="cls-3" points="288.82 698.15 307.72 691.75 317.32 686.55"/><line class="cls-3" x1="277.52" y1="731.95" x2="298.42" y2="718.95"/><line class="cls-3" x1="237.92" y1="762.45" x2="249.92" y2="756.35"/><line class="cls-3" x1="255.52" y1="790.85" x2="259.32" y2="787.85"/><line class="cls-3" x1="245.22" y1="779.95" x2="251.22" y2="778.25"/><polyline class="cls-3" points="366.02 794.75 338.92 819.05 326.22 834.05 314.32 845.85"/><polyline class="cls-3" points="320.62 852.75 332.02 840.55 346.12 826.55 372.52 802.15"/><polyline class="cls-3" points="377.92 808.25 352.02 832.75 338.22 847.45"/><line class="cls-3" x1="327.62" y1="860.55" x2="339.82" y2="849.15"/><line class="cls-3" x1="334.62" y1="868.25" x2="347.42" y2="857.65"/><polyline class="cls-3" points="345.02 854.85 358.12 839.05 381.22 812.05"/><polyline class="cls-3" points="244.12 744.75 252.02 740.75 275.12 729.35"/><polyline class="cls-3" points="248.62 753.85 256.12 749.65 278.32 736.75"/><line class="cls-3" x1="238.42" y1="664.05" x2="264.62" y2="657.15"/><polyline class="cls-3" points="255.62 670.65 252.42 660.45 250.42 653.85"/><line class="cls-3" x1="202.02" y1="650.95" x2="213.42" y2="648.15"/><polyline class="cls-3" points="414.32 611.25 422.82 605.35 460.02 578.25"/><polyline class="cls-3" points="416.12 579.45 430.72 599.65 436.22 606.35 449.02 622.65 455.82 636.35"/><polyline class="cls-3" points="527.02 500.15 517.52 510.35 499.22 524.45 483.32 539.95 463.42 561.45 448.52 575.55 424.32 590.75"/><polyline class="cls-3" points="451.92 547.25 463.42 561.45 475.62 575.55"/><line class="cls-3" x1="473.32" y1="550.85" x2="485.42" y2="567.45"/><line class="cls-3" x1="483.32" y1="539.95" x2="497.12" y2="557.55"/><polyline class="cls-3" points="534.72 508.05 528.02 524.45 491.82 550.85"/><polyline class="cls-3" points="517.52 510.35 528.02 524.45 534.12 530.85 540.92 540.75 552.42 554.25 562.32 570.85"/><polyline class="cls-3" points="525.22 701.05 528.02 692.15 548.92 669.15 580.92 638.05"/></g></g></g></svg>