<?xml version="1.0" encoding="UTF-8"?><svg xmlns="http://www.w3.org/2000/svg" viewBox="0 0 798.82 1067.15"><defs><style>.cls-1{fill:#fbbb0e;}</style></defs><g id="Capa_8"><path class="cls-1" d="M246.23,161.52c.84,.08,.25,.12,.58,.25,.08,.03-.01-.32-.06-.14,.04-.15,.29-.56,.63-.85,1.06-.9,2.52-1.47,3.78-2.03,2.52-1.13,5.13-2.07,7.61-3.29,5.73-2.81,9.96-7.55,9.81-14.26-.08-3.55-1.15-6.99-2.3-10.32-1.28-3.72-2.57-7.44-3.86-11.15-1-2.9-1.99-5.68-.34-8.52,1.48-2.54,3.86-4.45,5.82-6.61,4.37-4.82,6.86-11.11,6.99-17.62,.07-3.44-.8-6.54-1.65-9.83-.45-1.73-.09-2.84,.91-4.28s2.02-2.68,3.11-3.95c8.29-9.79,19.03-17.58,31.02-22.19,3.62-1.39,7.4-2.32,10.98-3.8s6.57-3.44,9.12-6.22c4.86-5.3,7.52-12.12,10-18.76l-1.15,1.49c.71-.48,.1-.04,.08-.09h-.1c-.12-.11-.04-.07,.23,.11,.17,.26,.39,.31,.46,.7,.28,1.47-.99,3.26-1.63,4.5l-5.5,10.63c-1.83,3.54-3.65,7.09-5.5,10.63-.66,1.26-1.23,2.48-2.57,3.11-1.5,.71-3.02,1.12-4.32,2.21s-2.2,2.61-3.06,4.05c-.92,1.55-1.85,3.09-2.76,4.65-1.82,3.11-3.6,6.25-5.25,9.46-3.29,6.41-6.06,13.12-7.6,20.18-.72,3.28-1.25,6.62-2.41,9.78-1.07,2.93-2.95,5.21-5.12,7.4s-4.59,4.44-6.18,7.21c-.84,1.46-1.37,3.08-.8,4.74,.31,.91,.95,1.61,1.74,2.14,.49,.33,1.24,.54,1.64,.85-.47-.36,.27-.39-.17,.13-.4,.47-.7,.9-1.21,1.3-1.46,1.12-2.83,2.07-3.89,3.6-1.76,2.52-2.22,5.72-2.41,8.72-.17,2.7-.02,5.41-.76,8.04-.28,1.01-.72,2.11-1.32,2.89-.32,.42-.71,.77-1.08,1.01-.62,.4-1.35,.47-1.92,1.04-2.8,2.8-1.11,6.95-.06,10.08,.59,1.77,.74,3.27,.33,5.11-.48,2.14-1.1,4.26-1.66,6.38l-6.81,25.82,3.67-1.49c-2.92-1.75-4.66-5.33-4-8.71,.26-1.32-.37-2.7-1.75-3.08-1.22-.34-2.82,.41-3.08,1.75-1.08,5.61,1.36,11.4,6.3,14.36,1.38,.82,3.26,.06,3.67-1.49l6.62-25.11c1.05-3.99,2.83-8.37,2.13-12.54-.27-1.61-.92-3.1-1.42-4.65-.41-1.26-.81-2.32-.03-3.4l-1.49,1.15c5.5-1.88,7.25-7.79,7.49-13.08,.13-2.73,0-5.53,.82-8.17,.34-1.08,.89-2.04,1.72-2.81,1.09-1.01,2.46-1.69,3.47-2.8,2.31-2.57,2.36-6.7-.91-8.48-.15-.08-1.07-.55-1.11-.51l.15,.3c.02,.28,.05,.33,.06,.13,.11-.03,.48-.88,.56-1,.7-1.14,1.56-2.14,2.47-3.1,2.1-2.23,4.39-4.26,6.22-6.73s2.99-5.44,3.79-8.42c.84-3.15,1.33-6.38,2.15-9.53s1.9-6.29,3.15-9.32c2.56-6.17,5.89-12.02,9.28-17.76,.83-1.41,1.66-2.82,2.51-4.21,.74-1.22,1.42-2.18,2.77-2.76,1.42-.61,2.82-1.06,4.02-2.08s2-2.42,2.72-3.8c3.46-6.63,6.87-13.29,10.31-19.93,1.58-3.05,3.95-6.7,2.64-10.27-1.04-2.81-4.44-4.86-7.32-3.42-1.55,.78-1.89,2.42-2.46,3.92-.52,1.35-1.05,2.7-1.63,4.03-1.12,2.55-2.38,5.06-3.93,7.38-1.47,2.2-3.27,4.26-5.43,5.8-2.55,1.82-5.48,2.83-8.43,3.78-5.94,1.89-11.71,4.15-17.16,7.2s-10.33,6.59-14.88,10.66c-2.3,2.06-4.47,4.25-6.51,6.56s-4.17,4.63-5.62,7.25c-.86,1.56-1.29,3.25-1.1,5.03s.86,3.48,1.28,5.23c.64,2.63,.75,5.43,.33,8.11s-1.39,5.5-2.83,7.93-3.37,4.27-5.28,6.26-3.86,4.28-4.84,7.01c-1.16,3.21-.34,6.49,.73,9.6,1.2,3.49,2.41,6.97,3.62,10.46,1.04,3,2.25,6.11,2.48,9.31,.18,2.55-.29,5.09-1.99,7.06-1.58,1.83-3.75,3-5.91,4.02-2.3,1.08-4.68,1.96-7,3-2.61,1.17-5.8,2.67-6.66,5.67s1.08,6.15,4.26,6.43c1.35,.12,2.5-1.24,2.5-2.5,0-1.45-1.15-2.38-2.5-2.5h0Z"/><path class="cls-1" d="M266.72,184.48c-.1-3.54-.65-7.09-1.71-10.47s-2.43-6.66-4.46-9.41c-2.21-2.99-5.6-3.78-9.11-2.91-1.52,.38-2.91,1.07-4.31,1.75,.03-.01-.89,.41-.86,.32,.05-.17,.47,.28,.56,.35,.07,.2,.09,.22,.04,.05-.04-.18-.04-.15,.02,.08-.09,.15-.43,.66-.06,.34,1.02-.89,.91-2.62,0-3.54-1.01-1.01-2.52-.89-3.54,0-3.13,2.75-.69,7.95,3.31,7.71,2.92-.17,5.73-3.2,8.56-2.29,1.12,.36,1.8,1.73,2.4,2.81,.83,1.49,1.55,3.03,2.13,4.63,1.24,3.41,1.92,6.96,2.02,10.59,.09,3.21,5.09,3.22,5,0h0Z"/><path class="cls-1" d="M281.61,114.55c-.47-.23-.9-.49-1.31-.81l2.02,1.56c-.39-.33-.72-.68-1.04-1.08l1.56,2.02c-.36-.5-.65-1.02-.9-1.58l1.01,2.39c-.32-.79-.53-1.6-.65-2.44l.36,2.66c-.13-1.09-.13-2.18,0-3.27l-.36,2.66c.19-1.29,.55-2.49,1.05-3.69l-1.01,2.39c2.22-5.12,5.72-9.59,6.97-15.14,1.31-5.84,.75-11.74,1.48-17.63l-.36,2.66c.29-2.08,.81-4.06,1.61-6l-1.01,2.39c1-2.3,2.32-4.41,3.83-6.39l-1.56,2.02c3.25-4.17,7.24-8.12,11.41-11.37l-2.02,1.56c.87-.65,1.76-1.21,2.75-1.65l-2.39,1.01c.61-.24,1.22-.4,1.87-.49l-2.66,.36c.4-.03,.77-.04,1.17-.02l-8.63-15.05c-3.63,7.53-6.87,15.28-9.61,23.18-2.26,6.52-3.75,13.34-6.38,19.72l1.01-2.39c-1.01,2.39-2.22,4.67-3.8,6.74l1.56-2.02c-.65,.81-1.34,1.58-2.08,2.3-3.77,3.64-3.93,10.53,0,14.14s10.12,3.89,14.14,0c6.09-5.89,8.97-13.96,11.29-21.9,2.28-7.81,4.89-15.48,8.04-22.99l-1.01,2.39c1.29-3.06,2.66-6.08,4.1-9.07,1.59-3.29,1.92-6.82,0-10.09s-5.06-4.77-8.63-4.95c-6.71-.35-11.91,4.03-16.51,8.29-3.66,3.38-6.97,6.95-9.92,10.98s-5.02,8.56-5.76,13.33c-.48,3.06-.74,6.07-.81,9.16-.06,2.4-.1,4.79-.41,7.17l.36-2.66c-.28,1.89-.75,3.7-1.49,5.46l1.01-2.39c-1.08,2.43-2.51,4.66-3.75,7.01-.95,1.81-1.78,3.7-2.47,5.62-.62,1.72-.83,3.57-1.02,5.38-.74,6.77,2.47,14.74,8.86,17.81,2.46,1.18,4.99,1.76,7.71,1.01,2.32-.64,4.83-2.43,5.98-4.6,1.23-2.32,1.84-5.13,1.01-7.71-.76-2.36-2.27-4.86-4.6-5.98h0Z"/><path class="cls-1" d="M277.73,162.01v-.46c.05-1.38-.24-2.66-.86-3.85-.4-1.24-1.09-2.31-2.07-3.22-.91-.98-1.98-1.66-3.22-2.07-1.19-.63-2.48-.91-3.85-.86l-2.66,.36c-1.69,.48-3.16,1.33-4.41,2.57l-1.56,2.02c-.9,1.56-1.36,3.24-1.37,5.05v.46c-.05,1.38,.24,2.66,.86,3.85,.4,1.24,1.09,2.31,2.07,3.22,.91,.98,1.98,1.66,3.22,2.07,1.19,.63,2.48,.91,3.85,.86l2.66-.36c1.69-.48,3.16-1.33,4.41-2.57l1.56-2.02c.9-1.56,1.36-3.24,1.37-5.05h0Z"/><path class="cls-1" d="M276.12,173.94c.03-6.6,.44-13.19,1.2-19.74,.21-1.78-.99-4.09-2.2-5.3-1.3-1.3-3.44-2.28-5.3-2.2s-3.95,.72-5.3,2.2l-1.17,1.52c-.68,1.17-1.02,2.43-1.02,3.79-.77,6.55-1.17,13.14-1.2,19.74-.02,3.92,3.46,7.68,7.5,7.5s7.48-3.3,7.5-7.5h0Z"/><path class="cls-1" d="M277.36,148.53c-.07-.24-.12-.48-.15-.72l.27,1.99c-.05-.48-.04-.94,.02-1.42l-.27,1.99c.11-.6,.28-1.16,.51-1.72l-.76,1.79c.8-1.79,2.01-3.33,3.08-4.96,1.44-2.18,2.62-4.76,3.16-7.32,.74-3.52,.54-7.36-1.58-10.4-2.35-3.36-5.9-5.24-10.04-4.96l1.99,.27-.37-.07,1.79,.76c2.34,1.32,2.47,3.07,1.83,1.58l.76,1.79-2.74-6.72-1.28-3.13c-.44-1.08-1.07-2.22-1.29-3.37v3.99l.05-.34-.76,1.79-2.02,2.13-1.79,.76c.23-.09,.46-.14,.7-.17l-1.99,.27c.23-.02,.47-.02,.7,.01l-1.99-.27c.37,.07,.68,.17,1.02,.3l-1.79-.76c.23,.1,.44,.22,.65,.36l-.9-.72c.33,.15,.57,.56,.84,.8,1.05,.95-1.05-1.45-.26-.37,.21,.29,.43,.58,.64,.86,1.49,1.97,2.97,3.85,5.21,5.04,4.19,2.22,9.09,1.31,13.62,1.04,3.91-.23,7.69-3.28,7.5-7.5-.17-3.86-3.31-7.75-7.5-7.5-2.74,.16-5.59,.57-8.33,.4l1.99,.27c-.42-.06-.79-.14-1.2-.28l1.79,.76c-.32-.14-.59-.33-.9-.49,1.46,.73,1.11,.92,.49,.26-.2-.21-.39-.45-.58-.67-.51-.6,1.24,1.63,.31,.38-1.51-2.03-2.87-3.73-5.02-5.12-2.5-1.63-5.76-2.26-8.66-1.48-4.47,1.2-7.46,5.62-6.31,10.23,.4,1.61,1.21,3.17,1.84,4.71l2.01,4.93c.8,1.95,1.47,4.06,2.47,5.91s3,3.42,5.09,4.03c1.34,.39,2.55,.15,3.85,.29l-1.99-.27c.23,.04,.46,.11,.67,.2l-1.79-.76c.48,.27,.43,.19-.15-.22-.55-.47-.62-.51-.2-.13l-.71-.95c.14,.2,.26,.41,.36,.63l-.76-1.79c.15,.39,.25,.75,.34,1.16l-.27-1.99c.09,.72,.08,1.4-.01,2.11l.27-1.99c-.18,1.01-.48,1.97-.85,2.93l.76-1.79c-1,2.36-2.63,4.28-3.93,6.47-2.03,3.42-2.89,7.25-1.91,11.16s5.44,6.47,9.23,5.24,6.26-5.15,5.24-9.23h0Z"/><path class="cls-1" d="M261.14,152.14c-1.52-.54-3.2-.75-4.8-.86s-3.35,.15-4.94,.48-3.09,.99-4.5,1.71-2.76,1.78-3.93,2.88c-.73,.68-1.25,1.48-1.55,2.41-.47,.89-.68,1.86-.65,2.89l.27,1.99c.23,.98,.68,1.83,1.34,2.55,.33,.56,.78,1.01,1.35,1.35,.72,.66,1.57,1.11,2.55,1.34,1.87,.43,4.15,.39,5.78-.76,.93-.65,1.91-1.2,2.95-1.65l-1.79,.76c1.34-.56,2.73-.94,4.17-1.14l-1.99,.27c1.38-.17,2.76-.17,4.13,0,1.03,.04,2-.18,2.89-.65,.93-.3,1.73-.82,2.41-1.55,1.3-1.3,2.28-3.44,2.2-5.3s-.72-3.95-2.2-5.3l-1.52-1.17c-1.17-.68-2.43-1.02-3.79-1.02-1-.13-2-.17-3.01-.11-1.63,.1-3.29,.32-4.88,.71s-3.01,1.03-4.46,1.67c-.95,.42-1.85,.94-2.7,1.54l9.09,11.78c.25-.23,.5-.46,.77-.67l-1.52,1.17c.72-.55,1.5-1.01,2.33-1.37l-1.79,.76c.89-.37,1.82-.63,2.77-.77l-1.99,.27c.96-.13,1.91-.13,2.87-.02l-1.99-.27c.73,.1,1.44,.27,2.14,.52,1,.31,1.99,.36,2.99,.13,1-.05,1.93-.34,2.79-.89,1.56-.91,3.04-2.69,3.45-4.48,.44-1.92,.34-4.07-.76-5.78l-1.17-1.52c-.94-.93-2.04-1.57-3.31-1.93h0Z"/><path class="cls-1" d="M263.81,178.96c-.23,3.06-.27,6.13-.14,9.19,.06,1.32,.52,2.59,1.46,3.54,.87,.87,2.29,1.52,3.54,1.46s2.63-.48,3.54-1.46,1.52-2.2,1.46-3.54c-.14-3.06-.09-6.13,.14-9.19,.09-1.22-.62-2.69-1.46-3.54s-2.29-1.52-3.54-1.46-2.63,.48-3.54,1.46l-.78,1.01c-.45,.78-.68,1.62-.68,2.52h0Z"/><path class="cls-1" d="M312.54,57.94c-.06-.25-.11-.5-.15-.75,.09,.7,.12,.77,.07,.2,.03-.32-.12-.87,.04-1.13-.11,.7-.11,.77-.01,.2l.08-.37c.11-.44,.21-1.07,.46-1.46l-.2,.48c.11-.23,.23-.46,.35-.69,.18-.34,.39-.68,.6-1,.14-.22,.29-.43,.45-.64-.39,.5-.4,.53-.05,.11,.27-.27,.52-.57,.8-.84,.3-.28,.61-.54,.92-.82-.86,.76,.25-.17,.46-.31,.74-.5,1.51-.94,2.29-1.35,.43-.22,.86-.43,1.3-.63,.19-.09,.38-.17,.57-.25-.56,.23-.58,.24-.05,.03,.9-.35,1.8-.68,2.71-1l-4.86-8.36-11.15,14.33,7.85,6.06c.39-.83,.83-1.62,1.33-2.39,.28-.43,.59-.86,.9-1.27-.51,.68-.1,.15,.2-.2,1.2-1.4,2.52-2.69,3.86-3.96,2.71-2.56,5.43-5.07,7.8-7.95,5.26-6.4,9.27-13.59,12.83-21.05,1.13-2.36,.73-5.51-1.79-6.84-2.23-1.18-5.64-.73-6.84,1.79-1.75,3.66-3.59,7.29-5.65,10.78-.96,1.62-1.96,3.21-3.03,4.76-.57,.83-1.17,1.65-1.77,2.46-.35,.45-.35,.46,0,.02-.13,.17-.27,.34-.4,.51-.32,.39-.64,.78-.96,1.17-4.9,5.78-11.77,10.12-15.09,17.13-1.08,2.28-.79,4.84,1.29,6.45,1.77,1.37,5.03,1.58,6.57-.39l11.15-14.33c1.33-1.72,2.08-4.04,.78-6.06-1.15-1.78-3.51-3.04-5.65-2.3-4.75,1.65-9.65,3.71-13.16,7.46-3.8,4.07-5.72,9.56-4.48,15.07,.58,2.55,3.66,4.3,6.15,3.49,2.68-.87,4.11-3.41,3.49-6.15h0Z"/></g><g id="Capa_7"><path d="M265.72,194.96c-4.8,15.95-.18,33.42,10.08,46.23,2.5,3.12,5.33,6.13,8.64,8.39,3.1,2.11,6.49,3.74,9.83,5.42,6.93,3.47,15.39,7.98,17.31,16.23,1.02,4.36-.63,8.72-2.12,12.76-.7,1.9-1.42,3.8-1.89,5.76s-.63,4.18-.99,6.27c-1.31,7.55-3.86,16.22,.59,23.25,1.19,1.88,2.15,3.08,4.34,3.51,2.68,.54,5.39,.98,8.09,1.37,5.09,.75,10.2,1.34,15.27,2.18s10.28,1.91,15.13,3.75c2.03,.77,3.93,1.85,5.95,2.63,2.28,.89,4.21,1.45,6.02,3.18,2.75,2.63,5.64,5.16,8.22,7.95,2.82,3.04,5.37,6.31,7.95,9.56,5.04,6.35,10.35,12.62,17.44,16.77,5.75,3.36,12.48,4.25,18.73,6.3,2.88,.94,5.79,2.14,8.13,4.1,1.14,.95,2.11,2.07,2.86,3.35s1.83,3.4,1.72,4.9-1.61,3.43-2.41,4.72c-1.05,1.7-2.17,3.35-3.23,5.05-1.92,3.07-3.67,6.34-4.3,9.95-.78,4.46,.3,8.93,1.39,13.25,1.19,4.73,2.77,9.37,4.62,13.88,3.77,9.2,8.51,18.18,13.8,26.6,1.04,1.66,2.45,3.07,3.52,4.74,1.32,2.06,2.67,3.93,4.32,5.73,3.1,3.37,6.53,6.39,10.03,9.32,3.97,3.33,8.29,6.07,12.47,9.12s8.37,6.37,12.52,9.6,8.27,6,12.05,9.4c3.36,3.02,6.5,6.28,9.34,9.8,5.44,6.73,9.66,14.51,11.77,22.93,1.29,5.15,1.48,10.4,1.71,15.68s.36,10.85,.45,16.27,.12,10.74,.19,16.11c.02,1.61,2.52,1.61,2.5,0-.13-11.05-.16-22.11-.67-33.16-.22-4.83-.41-9.64-1.48-14.37-.91-4.05-2.32-7.97-4.09-11.72-3.69-7.8-9.07-14.75-15.24-20.75-3.39-3.31-7.1-6.06-10.86-8.93-4.2-3.21-8.34-6.52-12.55-9.73s-8.94-6.09-13.19-9.38c-3.63-2.81-7.14-5.9-10.42-9.1-1.59-1.56-3.19-3.16-4.58-4.9-1.46-1.82-2.5-3.96-3.94-5.8-3.1-3.98-5.49-8.49-7.9-12.92-4.8-8.81-9-17.99-11.61-27.71-1.19-4.41-2.57-9.22-1.64-13.81,.8-3.92,2.97-7.33,5.12-10.64,.99-1.54,2-3.07,2.92-4.65s2.14-3.17,1.85-4.97c-.49-3.03-1.75-5.88-3.81-8.18-4.14-4.62-10.63-6.27-16.39-7.8-3.03-.81-6.1-1.57-9.03-2.72-3.79-1.49-7.22-4.01-10.22-6.73-6.14-5.56-10.75-12.51-16.15-18.74-2.58-2.99-5.58-5.41-8.31-8.22-1.18-1.21-2.32-2.47-3.71-3.45-1.78-1.26-3.9-1.69-5.89-2.51s-3.93-1.9-6.01-2.63c-2.63-.92-5.31-1.66-8.03-2.27-4.98-1.12-10.05-1.82-15.1-2.51-2.44-.33-4.88-.66-7.32-1.02-1.23-.18-2.45-.38-3.68-.59-1.37-.23-3.12-.29-4.42-.83-1.79-.74-2.98-3.52-3.53-5.25-.65-2.04-.8-4.17-.73-6.3,.17-4.45,1.32-8.78,2.01-13.16,.3-1.89,.44-3.78,.93-5.64,.54-2.06,1.33-4.05,2.06-6.05,1.38-3.76,2.61-7.69,2.08-11.74s-2.73-7.52-5.42-10.38c-5.22-5.54-12.51-8.22-19.05-11.8-14.65-8.02-23.64-25.7-23.51-42.17,.03-4.12,.66-8.16,1.85-12.1,.47-1.54-1.95-2.2-2.41-.66h0Z"/><path d="M515.37,592.79c-1.47,6.1-3.23,11.42-1.8,17.7,1.33,5.8,3.35,11.41,5.02,17.11s2.88,11.15,2.58,16.92c-.17,3.25-.76,5.95-2.55,8.7-1.7,2.6-3.44,5.18-5.25,7.7-3.6,5.03-7.45,9.87-11.69,14.37-1.77,1.88-3.97,4.85-6.33,5.95s-5.63,1.5-8.22,2.15c-10.47,2.65-21.18,5.49-30.04,11.94-6.42,4.67-11.29,13.85-10.27,21.93,.53,4.2,2.83,8.05,6.24,10.56,1.95,1.44,4.33,3.06,6.63,3.85,2.62,.9,5.23,1.77,7.81,2.78,20.16,7.84,39.17,21.09,51.35,39.22,6.17,9.19,9.51,19.83,11.25,30.69,.87,5.41,1.35,10.88,1.7,16.36,.16,2.52,.14,5.02,.75,7.47,.8,3.18,1.78,6.38,2.4,9.6,.56,2.89,.74,6.63,.12,9.51-.67,3.07-2.58,6.07-4.16,8.75-3.09,5.23-6.68,10.15-9.59,15.48-5.41,9.91-7.49,22.55-6.4,33.74,.98,10.01,5.48,20.74,12.4,28.13,3.27,3.49,7.28,6.65,12.14,7.32,4.2,.58,9.3-.48,12.53-3.39,1.47-1.33,2.04-3.61,3.25-5.2,.65-.85,1-1.65,1.32-2.68,.5-1.57,1.14-2.72,2-4.07,.91-1.43,1.5-3.02,2.58-4.33,.71-.86,1.55-1.65,2.41-2.36,2.14-1.77,4.76-2.94,7.57-2.82,5.29,.24,10.38,5.24,9.37,10.72-.5,2.75-1.71,5.49-2.69,8.1-1.11,2.95-2.29,5.87-3.43,8.81-2.1,5.4-4.11,10.87-5.27,16.56s-1.47,11.87-1.13,17.82c.64,11.19,3,23.38,8.77,33.13,4.65,7.86,11.5,14.54,19.73,18.59,4.07,2,8.44,3.36,12.94,3.95s10.03,.79,14.42-1.03,7.97-5.72,11.9-8.62c1.28-.94,.04-3.12-1.26-2.16-4.04,2.98-7.63,7.23-12.52,8.83s-10.54,1.02-15.27-.02c-9.22-2.01-17.36-7.38-23.39-14.58-7.18-8.58-10.3-19.35-11.99-30.24-.99-6.36-1.23-12.85-.64-19.26,.53-5.84,2.15-11.49,4.12-16.99,1.91-5.34,4.16-10.55,6.09-15.89,1.65-4.55,3.44-9.16,.84-13.72-2.02-3.54-5.91-6.06-9.95-6.44-4.67-.43-8.82,2.04-11.91,5.35-1.8,1.92-3,4.37-4.37,6.59-.53,.86-.83,1.78-1.13,2.75-.53,1.73-1.54,2.75-2.41,4.28-.44,.79-.65,1.78-1.15,2.52-.64,.94-1.79,1.51-2.78,2-2.26,1.11-4.8,1.62-7.31,1.45-5.56-.37-10.1-4.63-13.4-8.79s-5.74-9.33-7.61-14.43c-4.1-11.19-2.8-23.78,.68-34.97s12.28-19.55,16.55-30.32c2.07-5.23,.77-11.49-.54-16.71-.74-2.95-1.7-5.9-1.86-8.94-.14-2.55-.3-5.1-.5-7.64-.84-10.56-2.42-21.21-6.28-31.13-7.52-19.33-24.2-34.78-41.88-44.97-4.46-2.57-9.1-4.84-13.84-6.85-2.33-.98-4.68-1.91-7.06-2.77-2.58-.93-5.12-1.65-7.44-3.15-4.34-2.81-7.91-5.95-8.28-11.46-.29-4.39,1.38-8.7,3.61-12.39,1.11-1.84,2.36-3.75,4-5.16,2.13-1.82,4.61-3.32,7.07-4.65,4.93-2.67,10.25-4.5,15.63-6.03s10.55-2.69,15.8-4.14c2.4-.66,3.89-2.5,5.64-4.24,2.14-2.13,4.19-4.36,6.16-6.65,3.81-4.44,7.32-9.14,10.63-13.97,1.53-2.23,3.59-4.62,4.68-7.1,1-2.27,1.14-5.29,1.24-7.74,.45-11.27-4.54-21.75-7.25-32.45-.8-3.16-1.35-6.17-.81-9.43,.49-2.98,1.44-5.88,2.15-8.82,.38-1.56-2.03-2.23-2.41-.66h0Z"/><path d="M330.52,42.24c7.83,9.43,9.92,21.72,11.2,33.55,1.18,10.92,1.41,23.65,8.73,32.62,6.75,8.26,17.25,11.84,27.26,14.34,5.74,1.44,11.74,2.12,17.19,4.54,5.89,2.62,11.32,6.3,15.9,10.83s8.11,9.17,10.95,14.6c3.1,5.91,3.26,12.15,2.48,18.65-.39,3.22-.97,6.41-1.41,9.62-.34,2.45-1.38,6.23-.66,8.62,.58,1.91,2.98,4.03,4.35,5.41,1.96,1.97,4.13,3.72,6.35,5.39,8.63,6.49,22.61,12.89,19.15,26.09-.78,2.99-2.54,5.46-4.19,8.02-1.82,2.84-3.65,5.68-5.24,8.65-2.76,5.16-4.47,10.58-4.84,16.44-.67,10.81,4.29,20.7,9.2,29.99,2.77,5.23,5.42,10.45,7.6,15.95,2.48,6.24,5.61,12.5,7.16,19.05,1.56,6.57,1.25,13.39,.26,20.02-.47,3.18-1.11,6.34-1.77,9.48s-1.55,6.17-1.41,9.34c.23,5.19,2.65,9.86,5.86,13.84,1.62,2,3.43,3.83,5.34,5.56,.79,.72,1.58,1.51,2.52,2.03,1.28,.71,2.54,.91,3.66,1.93,18.62,16.88,39.3,31.76,62.54,41.6,12.34,5.22,25.1,8.91,37.85,12.94s24.86,10.37,36.59,16.63c11.5,6.13,21.61,15.06,32.11,22.73s22.38,14.52,34.22,20.92c10.22,5.52,19.67,11.63,26.97,20.81,6.89,8.66,11.59,18.91,14.91,29.41,1.56,4.94,2.82,9.97,3.9,15.03,.33,1.57,2.74,.91,2.41-.66-4.38-20.64-12.44-41.67-29.16-55.46-9.4-7.75-20.8-12.53-31.26-18.6-11.53-6.69-22.12-14.63-32.77-22.6-5.43-4.07-10.89-8.18-16.63-11.8s-11.86-6.41-17.85-9.29c-5.65-2.72-11.4-5.24-17.25-7.51-6.21-2.4-12.66-4.1-19.01-6.11-13.02-4.12-25.97-8.83-37.98-15.38-11.34-6.18-22.21-13.25-32.38-21.22-4.97-3.89-9.77-7.98-14.41-12.25-.87-.8-1.7-1.73-2.74-2.31s-2.18-.76-3.16-1.46c-2.26-1.62-4.36-3.95-6.14-6.08-4.27-5.09-6.48-10.88-5.15-17.51,1.29-6.4,2.77-12.75,3.3-19.27,.51-6.25,.11-12.62-1.86-18.61-2.08-6.32-4.86-12.52-7.38-18.68-4.22-10.29-10.92-19.52-14.09-30.25-1.72-5.82-2.02-11.86-.75-17.81,1.37-6.39,5-12.04,8.48-17.46,3.01-4.69,5.9-9.21,5.51-15.03-.34-4.96-2.81-9.71-6.62-12.9-4.1-3.43-8.63-6.28-12.94-9.42-2.3-1.67-4.53-3.43-6.58-5.4-.95-.92-1.86-1.87-2.7-2.89-1.47-1.77-1.55-2.96-1.38-5.15,.5-6.35,2.07-12.57,2.36-18.93s-1.02-11.55-4.05-16.91c-5.76-10.18-14.46-18.56-24.9-23.83-5.24-2.65-10.67-3.59-16.32-4.91s-11.08-2.68-16.3-4.94-9.82-5.26-13.33-9.6c-4.09-5.05-6.06-12.7-6.79-19.05-1.31-11.24-1.67-22.82-5.51-33.59-1.77-4.95-4.27-9.49-7.63-13.53-1.03-1.24-2.79,.54-1.77,1.77h0Z"/><path d="M638.4,1024.85c2.94-2.32,5.39-5.14,7.71-8.07s4.15-6.07,7.17-8.13c2.85-1.94,4.93-4.89,7.3-7.37,2.69-2.81,5.46-5.52,8.27-8.21,5.47-5.25,11.03-10.43,16.12-16.05s9.5-11.16,11.68-18.39,1.8-14.51,2.41-21.82c.68-8.12,1.56-16.24,3.5-24.16,3.58-14.65,12.31-27.39,18.13-41.17,2.81-6.66,5.03-13.57,6.02-20.75,1.11-8.07,1.25-16.22,.65-24.34s-1.86-16.1-3.49-24.08c-1.76-8.61-3.59-17.24-4.52-25.99s-1.08-17.54,.85-25.99c.9-3.96,3.39-7.75,5.11-11.42,1.57-3.35,3.08-6.74,4.51-10.15,6-14.33,10.54-29.45,11.22-45.05,.71-16.26-3.19-32.61-6.91-48.34-1.91-8.09-3.94-16.16-5.74-24.28-1.8-8.11-3.93-16.58-4.33-24.9-.2-4.21,.45-8.33,2.2-12.18,.66-1.45-1.49-2.73-2.16-1.26-3.25,7.15-2.69,14.28-1.47,21.84,1.34,8.27,3.14,16.45,5.06,24.6,3.82,16.22,8.15,32.39,10.19,48.96s-.47,31.71-5.52,46.86c-2.54,7.61-5.65,15.01-9.04,22.28-1.62,3.48-3.74,6.92-5.08,10.51s-1.54,7.95-1.81,11.7c-1.21,17.03,3.18,33.81,6.41,50.39,1.57,8.04,2.27,16.46,2.37,24.65s-.56,16.4-2.71,24.29c-3.88,14.31-11.92,26.91-17.91,40.35-3.13,7.03-5.05,14.32-6.25,21.91s-2.07,15.66-2.24,23.49-1.45,15.27-5.6,21.73-9.96,11.99-15.38,17.29-11.05,10.44-16.31,15.94c-1.27,1.33-2.53,2.68-3.75,4.06-1.39,1.56-2.75,2.64-4.42,3.86-2.65,1.94-4.52,5.34-6.54,7.88-2.25,2.82-4.62,5.53-7.47,7.77-1.26,.99,.52,2.75,1.77,1.77h0Z"/><path d="M333.59,39.03c.9-1.95,2.06-3.75,3.43-5.4s2.94-2.9,4.23-4.48c1.48-1.82,2.28-4.64,2.66-6.91s.4-4.93-.87-7.01c-1.44-2.35-4.05-3.18-6.68-3.21-.41,0-.89,.24-1.08,.62-3.71,7.52-4.69,18.49-13.14,22.45-1.46,.68-.19,2.84,1.26,2.16,9.05-4.24,10.08-15.32,14.04-23.35l-1.08,.62c2.01,.03,4.04,.62,4.85,2.64,.74,1.85,.45,4.03-.04,5.9-.26,1.02-.61,2.02-1.05,2.97-.59,1.28-1.41,2.1-2.39,3.11-2.5,2.58-4.8,5.35-6.32,8.64-.67,1.45,1.48,2.72,2.16,1.26h0Z"/><path d="M241.27,166.97c.39-4.32,.36-9.56,4.28-12.38,3.11-2.23,7.19-2,10.82-2.08,7.9-.17,12.2-10.3,9.99-17.02-1.32-3.99-4.12-7.28-6.76-10.47-2.4-2.9-3.61-6.52-2.63-10.25,.88-3.37,3.13-6.24,5.39-8.81,2.53-2.87,5.3-5.51,7.77-8.43,.69-.81,1.56-1.67,2.02-2.63s.5-2.09,.45-3.15c-.09-2.14-.68-4.19-1.45-6.17-1.65-4.26-3.68-8.29-2.58-12.97l-.57,.75c3.73-2.65,7.59-5.14,11.11-8.07,1.79-1.49,3.48-3.1,5-4.86,.75-.87,1.46-1.78,2.13-2.72,.32-.44,.59-1.05,.97-1.43s.9-.63,1.31-.98c1.78-1.54,3.02-3.61,4.82-5.15,1.68-1.43,3.65-2.54,5.67-3.39,3.95-1.66,8.21-2.46,12.38-3.37,2.34-.51,4.69-1.03,6.96-1.79,2.56-.86,4.58-3.16,6.65-4.79,1.26-.99-.52-2.75-1.77-1.77-1.49,1.17-2.86,2.52-4.45,3.55-1.36,.88-3.06,1.2-4.62,1.59-3.09,.77-6.22,1.35-9.3,2.12s-6.14,1.71-8.96,3.17c-3.02,1.56-5.37,3.73-7.53,6.33-.55,.66-1.11,1.35-1.8,1.88-.31,.23-.68,.38-.97,.63-.35,.29-.55,.72-.8,1.09-1.02,1.54-2.17,2.99-3.42,4.34-2.35,2.53-5.04,4.69-7.83,6.7-1.39,1-2.79,1.96-4.2,2.94-1.24,.86-3.01,1.61-3.33,3.18-.63,3.07-.2,6.11,.84,9.03,.97,2.73,2.35,5.33,2.97,8.17,.26,1.21,.65,3.11-.02,4.24-.73,1.23-1.92,2.35-2.88,3.41-3.77,4.15-8.19,8.01-10.88,13s-2.67,10.99,.97,15.45c3.88,4.75,8.9,10.05,6.98,16.67-.73,2.51-2.15,5.14-4.42,6.57-2.43,1.53-5.62,.85-8.35,1.13s-5.65,1.04-7.86,2.94c-2.5,2.15-3.66,5.32-4.11,8.51-.25,1.77-.35,3.55-.51,5.33-.15,1.6,2.35,1.59,2.5,0h0Z"/><path d="M265.31,185.76c-1.55-6.3-.16-13.19-3.45-19.07-.83-1.47-1.76-2.75-3.41-3.32-1.28-.44-2.68-.33-3.93,.13-3.04,1.12-5.38,3.55-8.14,5.16-1.39,.81-.13,2.97,1.26,2.16,2.44-1.42,4.52-3.48,7.08-4.7,1.04-.5,2.19-.76,3.27-.25,1.18,.56,1.94,2.36,2.41,3.51,2.18,5.39,1.13,11.46,2.5,17.04,.38,1.56,2.8,.9,2.41-.66h0Z"/><path d="M238.36,166.52c1.83,2.67,4.65,4.35,7.84,4.77,.65,.09,1.28-.64,1.25-1.25-.03-.75-.55-1.16-1.25-1.25,.17,.02,.11,.01-.03,0-.09-.01-.17-.03-.25-.05-.15-.03-.3-.06-.45-.1-.3-.07-.6-.16-.89-.27-.08-.03-.16-.06-.24-.09-.03-.01-.3-.12-.14-.05,.14,.06-.06-.03-.09-.04-.08-.04-.16-.07-.23-.11-.29-.14-.58-.3-.86-.47s-.52-.34-.77-.52c-.12-.09,.15,.12-.03-.03-.05-.04-.11-.09-.16-.13-.13-.11-.26-.23-.39-.34-.23-.21-.44-.44-.64-.67-.06-.06-.11-.13-.17-.2-.03-.04-.19-.24-.03-.03-.1-.14-.2-.28-.3-.42-.37-.54-1.11-.83-1.71-.45-.54,.35-.84,1.13-.45,1.71h0Z"/><path d="M269.57,197.68c7.59-6.4,9.29-16.74,9.49-26.14,.05-2.51,0-5.01-.09-7.52-.11-3.06-.32-6.21,.41-9.22,.67-2.77,2.18-5.18,3.7-7.56s2.89-4.63,3.94-7.19c4.27-10.47,3.1-22.49,9.58-32.14,1.65-2.45,3.53-4.73,5.18-7.18s3.07-5.1,4.32-7.8c2.46-5.34,4.28-10.94,6.21-16.49,3.84-11.02,8.83-23.01,19.59-28.92,1.41-.78,.15-2.94-1.26-2.16-9.33,5.13-14.77,14.79-18.54,24.39-2.11,5.4-3.8,10.95-5.86,16.37s-4.81,10.99-8.41,15.87c-1.75,2.37-3.58,4.7-5,7.29-1.33,2.44-2.29,5.07-3.01,7.74-1.47,5.42-2.02,11.03-3.35,16.48-.67,2.76-1.54,5.48-2.85,8s-3.03,4.82-4.44,7.31-2.32,5.04-2.64,7.86-.11,5.86-.02,8.78c.31,10.51,0,23.1-8.71,30.45-1.23,1.04,.54,2.8,1.77,1.77h0Z"/></g></svg>