<?xml version="1.0" encoding="utf-8"?>
<!-- Generator: Adobe Illustrator 23.0.6, SVG Export Plug-In . SVG Version: 6.00 Build 0)  -->
<svg version="1.1" id="Layer_1" xmlns="http://www.w3.org/2000/svg" xmlns:xlink="http://www.w3.org/1999/xlink" x="0px" y="0px"
	 viewBox="0 0 961.7 877.3" style="enable-background:new 0 0 961.7 877.3;" xml:space="preserve">
<style type="text/css">
	.st0{fill:#FBBB0E;}
	.st1{opacity:0.35;}
	.st2{fill:none;stroke:#010101;stroke-width:0.75;stroke-linecap:round;stroke-linejoin:round;}
</style>
<g id="Nelson_Mandela">
	<path class="st0" d="M427.2,693c-0.2,5.1,1.5,10.7,4.1,15l3.9,5.1c0.1,0.1,0.2,0.3,0.3,0.4c0.2,0.2,0.4,0.3,0.6,0.5
		c1.5,1.3,3.7,3.1,5.4,4.1c0.2,0.1,0.5,0.3,0.7,0.4c5.4,2.8,9,3.6,15.2,4c3.2,0.2,6.6-0.3,9.7-1.3c5.4-1.9,9.4-4.1,13.6-8.2
		c2.4-2.4,4.5-5.2,6.3-8.1c1.7-2.6,3-5.5,4.9-8l-3.9,5.1c2.6-3.3,5.7-6,8.8-8.7c3.6-3.1,7.3-6.2,11-9.3l10.9-9.2
		c0.7-0.6,1.5-1.2,2.1-1.9c1.7-1.7,3.1-3.8,4.5-5.8c0.3-0.4,0.6-0.8,0.8-1.3c0,0,2.4-4.8,2.9-7c0-0.2,0-0.3,0.1-0.5
		c0.3-1.3,0.8-5.5,0.9-6.8c0-0.4,0-0.8,0-1.3c-0.1-1.5-0.6-5.3-0.9-6.8c-0.1-0.3-0.1-0.5-0.2-0.8c-0.7-2.3-1.8-4.7-2.9-6.9
		c-0.2-0.4-0.4-0.8-0.6-1.2c-0.5-0.8-1.1-1.6-1.7-2.4c-1.3-1.7-2.6-3.4-3.5-5.4l2.5,6c-0.8-2-1.3-4.1-1.7-6.2c-0.8-4-2.2-7.3-4-11.2
		c-0.4-0.8-0.8-1.6-1.3-2.4c-1.6-2.3-3.2-4.7-5.3-6.7c-3.8-3.6-9.6-7.6-14.9-8.3c-3.3-1-6.6-1.2-10-0.5c-3.3,0.2-6.4,1.1-9.3,3
		c-2.9,1.6-5.2,3.7-7,6.4c-2.2,2.4-3.7,5.2-4.5,8.5l-0.9,6.7c0,4.5,1.1,8.7,3.4,12.6l3.9,5.1c3.1,3.1,6.8,5.2,11,6.4
		c0.6,0.1,1.1,0.2,1.6,0.4l-6-2.5c0.6,0.3,1.2,0.6,1.7,1l-5.1-3.9c0.5,0.5,1,0.9,1.5,1.5l-3.9-5.1c0.7,1,1.3,2,1.8,3.1l-2.5-6
		c0.8,1.9,1.1,3.9,1.6,5.9c0.8,4,2.3,7.5,4,11.3c1.5,3.3,4.3,5.8,5.8,9.1l-2.5-6c0.2,0.6,0.4,1.2,0.5,1.9l-0.9-6.7
		c0,0.4,0.1,0.8,0,1.3l0.9-6.7c-0.1,0.6-0.2,1.1-0.5,1.7l2.5-6c-0.2,0.5-0.5,0.9-0.8,1.3l3.9-5.1c-1.5,1.8-3.5,3.2-5.2,4.7l-6,5.1
		l-11.9,10c-3.5,2.9-7,5.8-9.9,9.4c-2.6,3.2-5.2,6.5-7.3,10.1c-1,1.7-1.9,3.5-3.1,5.1l3.9-5.1c-0.7,0.9-1.4,1.6-2.3,2.3l5.1-3.9
		c-0.5,0.4-1,0.7-1.6,0.9l6-2.5c-0.5,0.2-1.1,0.3-1.6,0.4l6.6-0.9c-0.7,0.1-1.3,0.1-2,0l6.6,0.9c-0.6-0.1-1.2-0.3-1.9-0.5l6,2.5
		c-0.4-0.2-0.8-0.4-1.1-0.7l5.1,3.9c-0.3-0.3-0.6-0.5-0.9-0.9l3.9,5.1c-0.1-0.2-0.3-0.4-0.4-0.6l2.5,6c-0.1-0.3-0.2-0.6-0.3-1
		l0.9,6.7c0-0.3,0-0.5,0-0.8c0.1-3.4-0.6-6.7-2.1-9.6c-1-3.1-2.7-5.8-5.2-8c-2.3-2.4-5-4.2-8-5.2c-3-1.6-6.2-2.3-9.6-2.2l-6.6,0.9
		c-4.2,1.2-7.9,3.3-11,6.4l-3.9,5.1C428.4,684.2,427.3,688.5,427.2,693L427.2,693L427.2,693z"/>
	<path class="st0" d="M507.2,591.5c1.6-3.2,3.6-6.2,5.8-9.1l-3.9,5.1c7.8-10,17.9-17.7,27.3-26s18.7-17.9,27.3-27.5
		c18.6-20.8,35.1-43.4,51.6-65.9c8.7-11.9,17.4-23.8,26.4-35.5l-3.9,5.1c10.3-13.4,21.1-26.5,32.8-38.8
		c12.2-12.9,25.3-24.8,37.4-37.8c8.1-8.8,15.7-18.1,22.4-28l2.5-6c1-3.3,1.2-6.6,0.5-10c0-2.3-0.6-4.4-1.7-6.3c-1-3.1-2.7-5.8-5.2-8
		l-5.1-3.9l-6-2.5c-3.3-1-6.7-1.2-10-0.5c-3.3,0.1-6.4,1.1-9.3,3l-70.2,42.6c-10.8,6.5-21.6,13-32.1,20
		c-11.7,7.9-23.2,16.5-33.2,26.6c-8.1,8.2-15.4,17.3-24.6,24.5l5.1-3.9c-3.5,2.7-7.1,5-11.2,6.7l6-2.5c-2.8,1.2-5.7,2-8.8,2.4
		l6.7-0.9c-0.4,0.1-0.9,0.1-1.3,0.2l25,25c0-1.2,0.1-2.5,0.3-3.7l-0.9,6.7c0.4-3,1.2-5.9,2.4-8.7l-2.5,6c0.6-1.3,1.2-2.6,1.9-3.8
		c4.4-7.8,4.6-17.4,0-25.2c-4.4-7.5-12.8-12.5-21.6-12.4c-0.6,0-1.2,0-1.7-0.1l6.7,0.9c-0.9-0.1-1.7-0.3-2.5-0.7l6,2.5
		c-0.8-0.3-1.5-0.8-2.2-1.2l5.1,3.9c-0.8-0.7-1.6-1.4-2.2-2.2l3.9,5.1c-1-1.3-1.8-2.7-2.4-4.2l2.5,6c-1.2-2.8-1.9-5.8-2.3-8.8
		l0.9,6.7c-0.3-2.6-0.5-5.3-0.4-7.9c0.2-8.8-4.9-17.2-12.4-21.6c-3.9-2.3-8.1-3.4-12.6-3.4c-4.5,0-8.7,1.1-12.6,3.4
		c-18.5,13.8-36.5,28.1-54,43.1c-15.9,13.7-31.3,28-46.2,42.8c-8.4,8.4-16.6,16.9-24.7,25.6c-4.3,4.6-7.6,11.2-7.3,17.7l0.9,6.7
		c0.8,3.2,2.3,6.1,4.5,8.5c1.1,1.9,2.6,3.4,4.5,4.5c2.4,2.2,5.2,3.7,8.5,4.5c6.2,1.4,13.8,1.3,19.3-2.5l69.7-49l19.9-14L475.4,425
		L424,490.2l-14.5,18.4c-2.4,2.3-4.2,5-5.2,8.1c-1.6,3-2.3,6.2-2.1,9.6c-0.1,3.4,0.6,6.7,2.1,9.6c1,3.1,2.7,5.8,5.2,8
		c4.8,4.4,11,7.6,17.7,7.3s13.1-2.5,17.7-7.3c16.9-17.8,34.8-34.6,53.7-50.2c5.4-4.5,10.8-8.8,16.3-13.1l-5.1,3.9
		c1.3-1,2.7-2.1,4-3.1l-34.2-34.2c-6.1,9-12.5,17.8-19.2,26.4l3.9-5.1c-7.9,10.2-16,20.1-24.1,30c-2.4,2.3-4.2,5-5.2,8
		c-1.6,3-2.3,6.2-2.1,9.6c-0.1,3.4,0.6,6.7,2.1,9.6c1,3.1,2.7,5.8,5.2,8c4.8,4.4,11,7.6,17.7,7.3c6.5-0.3,13.1-2.4,17.7-7.3
		c13.8-14.7,27.7-29.4,43.7-41.8l-5.1,3.9c8.6-6.6,17.8-12.5,27.6-17.2l-30.3-39.3l-62.9,69.3l-18,19.8l35.4,35.4
		c16.3-18.9,33.8-36.7,52.4-53.3c5.3-4.7,10.6-9.3,16-13.8l-35.4-35.4c-15.3,16.7-31,33-47,48.9c-4.6,4.6-9.2,9.1-13.9,13.6
		l35.4,35.4c21.5-24.5,44.9-47.4,69.8-68.5c7.1-6,14.3-11.8,21.6-17.5l-5.1,3.9c1-0.8,2.1-1.6,3.1-2.4l-34.2-34.2l-14.5,28
		c-1.8,2.9-2.8,6-3,9.3c-0.7,3.3-0.6,6.7,0.5,10c0.8,3.2,2.3,6.1,4.5,8.5c1.8,2.7,4.1,4.9,7,6.4c5.8,3.1,12.8,4.6,19.3,2.5
		c6-2,12-5.7,14.9-11.5l14.5-28l2.5-6c1-3.3,1.2-6.7,0.5-10c0-2.3-0.6-4.4-1.7-6.3c-1-3.1-2.7-5.8-5.2-8l-5.1-3.9l-6-2.5
		c-3.3-1-6.7-1.2-10-0.5c-3.3,0.2-6.4,1.1-9.3,3c-28.5,21.8-55.5,45.2-80.3,71.1c-6.6,6.9-13.1,13.9-19.4,21.1c-2.4,2.3-4.2,5-5.2,8
		c-1.6,3-2.3,6.2-2.1,9.6c-0.1,3.4,0.6,6.7,2.1,9.6c1,3.1,2.7,5.8,5.2,8c4.8,4.4,11,7.6,17.7,7.3s12.8-2.6,17.7-7.3
		c16.2-15.8,32.1-31.8,47.7-48.3c4.5-4.7,8.9-9.5,13.3-14.3s7.3-11,7.3-17.7c0.1-3.4-0.6-6.7-2.2-9.6c-1-3.1-2.7-5.8-5.2-8
		c-4.8-4.4-11-7.6-17.7-7.3l-6.6,0.9c-4.2,1.2-7.9,3.3-11,6.4c-19.2,16-37.3,33.2-54.3,51.4c-4.8,5.2-9.5,10.4-14.1,15.8
		c-2.4,2.3-4.2,5-5.2,8c-1.6,3-2.3,6.2-2.1,9.6c-0.1,3.4,0.6,6.7,2.1,9.6c1,3.1,2.7,5.8,5.2,8c4.8,4.4,11,7.6,17.7,7.3
		s13.2-2.4,17.7-7.3l62.9-69.3l18-19.8c4.2-4.7,7.6-11.1,7.3-17.7l-0.9-6.7c-0.8-3.2-2.3-6.1-4.5-8.5c-1.1-1.9-2.6-3.4-4.5-4.5
		c-2.4-2.2-5.2-3.7-8.5-4.5l-6.7-0.9c-4.5,0-8.7,1.2-12.6,3.4c-12.8,6-24.1,14.2-35.1,23c-9.5,7.6-18.3,16-26.8,24.8
		c-4.9,5-9.6,10.1-14.4,15.1l35.4,35.4c16.4-20,32.8-40,47.2-61.5l2.5-6c1-3.3,1.2-6.7,0.5-10c0-2.3-0.6-4.4-1.7-6.3
		c-1-3.1-2.7-5.8-5.2-8l-5.1-3.9l-6-2.5c-3.3-1-6.6-1.2-10-0.5c-3.3,0.2-6.4,1.1-9.3,3c-22.3,17-43.7,35-63.6,54.6
		c-5.2,5.2-10.4,10.4-15.5,15.7l35.4,35.4l51.4-65.2l14.5-18.4c2.4-2.3,4.2-5,5.2-8c1.6-3,2.3-6.2,2.2-9.6l-0.9-6.7
		c-0.8-3.2-2.3-6.1-4.5-8.5c-1.1-1.9-2.6-3.4-4.5-4.5c-2.4-2.2-5.2-3.7-8.5-4.5c-6.2-1.4-13.8-1.3-19.3,2.5l-69.7,49l-19.9,14
		l30.3,39.3c12.8-13.8,26-27.3,39.7-40.2s27.8-25.5,42.2-37.6c8.2-6.8,16.5-13.5,24.9-20l-5.1,3.9c4.3-3.3,8.6-6.6,12.9-9.8
		l-37.6-21.6c-0.1,5.1,0.6,10.2,1.4,15.3c0.8,5.1,2.7,9.6,4.9,14.3c0.6,1.3,1.2,2.5,2.1,3.6c1.9,2.5,3.8,5.5,6.4,7.6
		c4.9,3.9,7.6,5.8,13.6,7.8c3.3,1.1,6.9,1.5,10.4,1.5l-21.6-37.6c-1.2,2.2-2.2,4.5-3.2,6.8s-2,4.6-2.7,7c-0.4,1.4-0.7,2.8-0.9,4.2
		c-0.6,3.6-1.1,7.2-1.3,10.9c-0.1,3.4,0.6,6.7,2.1,9.6c1,3.1,2.7,5.8,5.2,8l5.1,3.9c3.9,2.3,8.1,3.4,12.6,3.4
		c4.5-0.5,9.1-0.9,13.5-2.3s8.2-3.1,12.1-5.1c6.1-3.1,11.6-7.6,16.7-12.1c7.6-6.6,14-14.5,21.1-21.6c4.9-4.9,10.1-9.4,15.5-13.6
		l-5.1,3.9c13.1-10.1,27.4-18.6,41.6-27.2l46.8-28.4l26.5-16.1l-34.2-34.2c-1.9,2.8-3.9,5.5-6,8.2l3.9-5.1
		c-16.9,21.8-38.4,39.5-56.8,60c-19,21.2-36,44.2-52.8,67.2c-8.8,12-17.6,24-26.7,35.8l3.9-5.1c-10.2,13.2-20.8,26.1-32.3,38.2
		c-5.6,5.9-11.4,11.7-17.5,17.2s-12.5,10.6-18.5,16.2c-3.3,3-6.4,6.2-9.2,9.6c-4.2,5-8.2,10.2-11.2,16.1c-1.8,2.9-2.8,6-3,9.3
		c-0.7,3.3-0.6,6.7,0.5,10c0.8,3.2,2.3,6.1,4.5,8.5c1.8,2.7,4.1,4.9,7,6.4c5.8,3.1,12.8,4.6,19.3,2.5
		C498.2,601,504.2,597.3,507.2,591.5L507.2,591.5L507.2,591.5z"/>
	<path class="st0" d="M515.1,576.8c0-0.2-0.1-0.3-0.1-0.5l0.9,6.7c0-0.5,0-1,0-1.5l-0.9,6.7c0.1-0.5,0.2-1,0.4-1.4l-2.5,6
		c0.3-0.7,0.7-1.3,1.1-2l-3.9,5.1c0.7-0.8,1.5-1.6,2.3-2.2l-5.1,3.9c2.6-2,5.8-3.1,8.7-4.8c2.4-1.5,4.6-3.3,6.8-5.1
		c0.6-0.5,1.2-1,1.7-1.5c0.1-0.2,0.3-0.3,0.4-0.5c1.3-1.6,3-3.7,4.1-5.3c0.2-0.3,0.4-0.6,0.6-0.9c1.3-2.5,2.6-5.2,3.2-7.9
		c1-3.3,1.2-6.7,0.5-10c-0.2-3.3-1.1-6.4-3-9.3c-1.6-2.9-3.7-5.2-6.4-7c-2.4-2.2-5.2-3.7-8.5-4.5l-6.6-0.9c-4.5,0-8.7,1.2-12.6,3.4
		l-5.1,3.9c-3.1,3.1-5.2,6.8-6.4,11c-0.1,0.5-0.2,1-0.4,1.4l2.5-6c-0.3,0.6-0.6,1.1-1,1.7l3.9-5.1c-0.6,0.8-1.3,1.5-2.1,2.1l5.1-3.9
		c-3,2.3-6.8,3.3-9.8,5.5c-5.2,3.7-9.2,7-12.5,12.6c-1.5,2.5-2.8,5.3-3.4,8.1c-0.5,2.5-1,5.1-1,7.6c0,0.2,0,0.5,0,0.8
		c0.2,2.3,0.5,4.9,1,7.2c0.8,3.2,2.3,6.1,4.5,8.5c1.8,2.7,4.1,4.9,7,6.4c2.9,1.8,6,2.8,9.3,3c3.3,0.7,6.6,0.6,10-0.5l6-2.5
		c3.8-2.2,6.8-5.2,9-9l2.5-6C516.3,585.7,516.3,581.3,515.1,576.8L515.1,576.8L515.1,576.8z"/>
	<path class="st0" d="M266.6,648.9l57.7-39.7l57.7-39.7l32.6-22.4c2.9-1.6,5.2-3.7,7-6.4c2.2-2.4,3.7-5.2,4.5-8.5
		c1-3.3,1.2-6.7,0.5-10c-0.1-3.3-1.1-6.4-3-9.3l-3.9-5.1c-3.1-3.1-6.8-5.2-11-6.4l-6.6-0.9c-4.5,0-8.7,1.2-12.6,3.4
		c-12.4,6.2-24.4,13.3-35.7,21.3c-12.8,9-25.2,18.9-36.6,29.7c-5.7,5.4-11.2,11.1-16.4,17l-3.9,5.1c-1.8,2.9-2.8,6-3,9.3
		c-0.6,2.2-0.6,4.4,0,6.7c0.1,3.3,1.1,6.4,3,9.3l3.9,5.1l5.1,3.9c2.9,1.8,6,2.8,9.3,3c3.3,0.7,6.6,0.6,10-0.5
		c22.7-8.1,43.8-19.6,64.1-32.3c5.3-3.3,10.5-6.6,15.8-10L374.6,532L322,582.5l-14.8,14.2c-2.4,2.3-4.2,5-5.2,8
		c-1.6,3-2.3,6.2-2.1,9.6c-0.1,3.4,0.6,6.7,2.1,9.6c1,3.1,2.7,5.8,5.2,8c4.8,4.4,11,7.6,17.7,7.3l6.6-0.9c4.2-1.2,7.9-3.3,11-6.4
		c7.7-7,15.7-13.7,23.9-20l-5.1,3.9c13-10,26.6-19.3,40.8-27.6c4-2.4,8.1-4.7,12.2-6.9l-30.3-39.3c-17.5,18.1-35.7,35.5-54,52.8
		c-5.2,4.9-10.4,9.8-15.6,14.7c-2.4,2.3-4.2,5-5.2,8c-1.6,3-2.3,6.2-2.1,9.6l0.9,6.7c0.8,3.2,2.3,6.1,4.5,8.5
		c1.1,1.9,2.6,3.4,4.5,4.5c2.4,2.2,5.2,3.7,8.5,4.5l6.6,0.9c4.5,0,8.7-1.2,12.6-3.4l65.4-48.2l18.5-13.6l-30.3-39.3
		c-17.8,21.7-37.3,42-58.5,60.4c-5.9,5.2-12,10.2-18.1,15l35.4,35.4c12-11.8,24.6-23,37.7-33.7c3.7-3,7.5-6,11.2-8.9l-5.1,3.9
		c4.7-3.6,9.5-7.2,14.3-10.7c4.5-3.3,9.1-7.1,14.3-9.3l-6,2.5c1.2-0.5,2.5-0.9,3.9-1.1l-6.6,0.9c0.9-0.1,1.8-0.1,2.7,0l-6.6-0.9
		c0.8,0.1,1.5,0.3,2.2,0.6l-6-2.5c0.2,0.1,0.5,0.2,0.7,0.4l-5.1-39.3c-13.9,17.2-29.3,33-46,47.4c-4.7,4.1-9.5,8-14.5,11.8l5.1-3.9
		c-6.6,5.1-13.4,10-20.3,14.6l34.2,34.2c0.3-0.3,0.5-0.7,0.8-1l-3.9,5.1c10-12.9,21.3-24.9,33.7-35.6c3.5-3,7.1-5.9,10.7-8.8
		l-5.1,3.9c11.3-8.7,23.3-16.5,36-23.1l-34.2-9c0.1,0.2,0.2,0.5,0.3,0.7l-2.5-6c0.3,0.7,0.5,1.4,0.6,2.1l-0.9-6.7
		c0.1,0.7,0.1,1.4,0,2.1l0.9-6.7c-0.1,1.1-0.5,2.2-0.9,3.2l2.5-6c-0.7,1.6-1.6,3-2.7,4.4l3.9-5.1c-2.5,3.2-5.5,5.8-8.5,8.5
		c-3.2,2.9-6.5,5.9-9.7,8.8c-6.6,5.9-13.2,11.6-19.9,17.3c-3.8,3.2-7.6,6.5-11.5,9.6l39.3,30.3c1.4-2,2.8-3.9,4.2-5.8l-3.9,5.1
		c6.4-8.2,13.7-15.6,21.9-21.9l-5.1,3.9c8.3-6.4,17.4-11.7,27.1-15.8l-6,2.5c1.7-0.7,3.5-1.4,5.2-2L408.7,588
		c-0.8,2.5-1.7,4.9-2.7,7.3l2.5-6c-2.7,6.3-6.1,12.2-10.3,17.7l3.9-5.1c-3.1,4-6.6,7.7-10.4,11l39.3,30.3c2.2-4,4.8-7.9,7.5-11.5
		l-3.9,5.1c4.9-6.3,10.5-12,16.8-16.9l-5.1,3.9c3.1-2.4,6.4-4.6,9.7-6.6l-36.7-14.9c0.1,0.5,0.2,1,0.3,1.5l-0.9-6.7
		c0.3,2.3,0.3,4.7,0,7l0.9-6.7c-0.3,2.2-0.9,4.3-1.7,6.4l2.5-6c-0.9,2-2,4-3.3,5.7l3.9-5.1c-0.6,0.7-1.1,1.4-1.8,2.1l41.8,11l0-0.4
		l0.9,6.7c-0.1-1.2-0.1-2.5,0-3.7l-0.9,6.7c0.2-1.5,0.6-2.9,1.2-4.2l-2.5,6c1.1-2.5,2.5-4.8,4.2-6.9l-3.9,5.1
		c5.3-6.9,12.1-12.8,16.1-20.7c1.7-3.2,3.1-6.6,4.2-10c1.1-3.5,1.5-7.3,1.7-10.9c0-0.7,0-1.4,0-2.1c-0.3-2.9-0.5-5.9-1.3-8.7
		c-0.1-0.3-0.2-0.7-0.3-1c-0.8-2.2-1.8-4.5-2.8-6.6c-0.4-0.8-0.8-1.5-1.3-2.2c-2.2-3.8-5.2-6.8-9-9c-2.9-1.8-6-2.8-9.3-3
		c-3.3-0.7-6.6-0.6-10,0.5c-4.2,1.2-7.9,3.3-11,6.4c-0.5,0.5-0.9,1-1.4,1.5c-1.7,2.1-3.5,4.2-4.9,6.5c-0.3,0.5-0.6,1-0.9,1.6
		c-1.2,2.4-2.2,5-3.2,7.5c-0.4,1.2-0.7,2.4-0.9,3.7c-0.5,3.4-1.1,6.8-1.1,10.2c0,1.4,0.1,2.7,0.3,4.1c0.4,3.5,0.9,7.1,1.5,10.6
		c0.6,3,1.3,5.9,2,8.8c0.8,3.4,1.6,6.8,2.1,10.2l-0.9-6.7c0.4,3.2,0.6,6.4,0.2,9.7l0.9-6.7c-0.3,2-0.8,4-1.6,5.9l2.5-6
		c-0.8,1.7-1.7,3.3-2.9,4.8l3.9-5.1c-1.5,1.8-3.1,3.5-5,4.9l5.1-3.9c-3.4,2.6-7.3,4.6-11.3,6.3l6-2.5c-3.6,1.5-7.3,2.8-11,3.9
		c-3.2,0.8-6.1,2.3-8.5,4.5c-2.7,1.8-4.9,4.1-6.4,7l-2.5,6c-1,3.3-1.2,6.7-0.5,10c0,2.3,0.6,4.4,1.7,6.3c1,3.1,2.7,5.8,5.2,8
		l5.1,3.9c3.9,2.3,8.1,3.4,12.6,3.4c8.6,0.4,17.4-0.7,25.9-2.5c8.4-1.8,16.5-5,24.2-8.8L439,626.6L425.2,649l-2.5,6
		c-1,3.3-1.2,6.7-0.5,10c0,2.3,0.6,4.4,1.7,6.3c1,3.1,2.7,5.8,5.2,8l5.1,3.9l6,2.5c3.3,1,6.6,1.2,10,0.5c3.3-0.2,6.4-1.1,9.3-3
		l11.5-6.9L440.6,637c-2,2-4.1,3.9-6.4,5.7l5.1-3.9c-2,1.5-4.1,2.9-6.5,3.9l6-2.5c-1.5,0.6-2.9,1-4.5,1.2l6.6-0.9
		c-1.3,0.2-2.6,0.2-3.9,0l6.6,0.9c-1.6-0.2-3.1-0.7-4.6-1.3l6,2.5c-2.6-1.1-5-2.6-7.4-4c-4.2-2.6-8.4-4.5-13.1-6.3
		c-1.3-0.5-2.6-0.9-4-1.2c-3.4-0.7-6.9-1.2-10.4-1.3c-1.2,0-2.5,0-3.7,0.2c-3.3,0.4-7,0.7-10.3,1.7c-4.5,1.3-9,3.2-13.1,5.5
		s-8,5.4-11.9,8.4c-4.7,3.7-9,8-12.9,12.6c-4.3,5-8.3,10.3-12.5,15.5c-4.5,5.5-8.9,11-13.4,16.5c-9,10.9-18.2,21.8-27.5,32.5
		c-10.5,12-21.1,24-31.8,35.7h35.4c-5.2-6.5-11.4-11.5-18-16.5c-6.7-5-14-8.3-21.7-11.4l11,41.8c21.9-20.2,43.5-40.8,64.5-61.9
		c6-6,11.9-12,17.8-18c2.4-2.3,4.2-5,5.2-8c1.6-3,2.3-6.2,2.1-9.6c0.1-3.4-0.6-6.7-2.1-9.6c-1-3.1-2.7-5.8-5.2-8
		c-4.8-4.4-11-7.6-17.7-7.3l-6.6,0.9c-4.2,1.2-7.9,3.3-11,6.4l-53.3,50L258.3,721l41.8,11c-2.4-5.7-3.3-8.7-7.8-13.2
		c-3.9-3.9-7.9-6-13-7.7c-5.9-2-12.8-1.6-18.8-0.2c-3,0.7-6.3,2.3-8.9,3.5c-1.1,0.5-2.2,1.1-3.2,1.8c-2.2,1.5-4.3,3.2-6.3,4.8
		c-0.5,0.4-0.9,0.8-1.4,1.2c-2.2,2.3-4.2,4.9-5.9,7.6c-1.8,2.9-2.8,6-3,9.3c-0.7,3.3-0.6,6.7,0.4,10l2.5,6c1.6,2.9,3.7,5.2,6.4,7
		c1.6,1.5,3.4,2.6,5.5,3.2c3,1.6,6.2,2.3,9.6,2.2l6.6-0.9c4.2-1.2,7.9-3.3,11-6.4c22.9-19.4,44.6-40.2,65.1-62.2
		c5.7-6.2,11.3-12.4,16.8-18.7l3.9-5.1l2.5-6l0.9-6.7c0.1-3.4-0.6-6.7-2.1-9.6c-0.6-2.1-1.7-4-3.2-5.5c-1.1-1.9-2.6-3.4-4.5-4.5
		c-1.6-1.5-3.4-2.6-5.5-3.2c-3-1.6-6.2-2.3-9.6-2.2c-5.5,0.7-11,1.4-16.4,2.9s-10.2,3.7-15.1,5.9c-8,3.7-15.3,9-21.9,14.9l39.3,30.3
		c2.8-6.3,6.3-12.2,10.5-17.6l-3.9,5.1c1.4-1.8,2.9-3.6,4.5-5.4c2.4-2.3,4.2-5,5.2-8c1.6-3,2.3-6.2,2.1-9.6c0.1-3.4-0.6-6.7-2.1-9.6
		c-1-3.1-2.7-5.8-5.2-8c-4.8-4.4-11-7.6-17.7-7.3l-6.6,0.9c-4.2,1.2-7.9,3.3-11,6.4c-1.5,1.6-3.1,3-4.8,4.4l5.1-3.9
		c-3,2.3-6.3,4.2-9.8,5.8l6-2.5c-2.9,1.2-5.9,2.1-9,2.7l24.3,41.8l26.5-29.9c2.4-2.3,4.2-5,5.2-8c1.6-3,2.3-6.2,2.1-9.6l-0.9-6.7
		c-0.8-3.2-2.3-6.1-4.5-8.5c-1.1-1.9-2.6-3.4-4.5-4.5c-2.4-2.2-5.2-3.7-8.5-4.5l-6.6-0.9c-4.5,0-8.7,1.2-12.6,3.4
		c-4.7,3.5-9.8,6.3-15.1,8.6l6-2.5c-6.3,2.7-12.9,4.5-19.6,5.4l6.6-0.9c-4.1,0.5-8.2,0.7-12.3,0.6l24.1,18.3c-0.9-3-2.3-5.9-3.5-8.8
		c-0.5-1-0.9-2-1.5-3s-1.2-1.9-1.8-2.8c-1.9-2.6-3.8-5.2-5.9-7.5c-2.9-3.1-6.4-5.7-9.8-8.1s-7.7-4-11.7-5.6c-3.3-1-6.6-1.2-10-0.5
		c-3.3,0.2-6.4,1.1-9.3,3l-5.1,3.9c-2.4,2.3-4.2,5-5.2,8c-1.1,2-1.7,4-1.7,6.3c-0.7,3.3-0.6,6.7,0.4,10l2.5,6c2.2,3.8,5.2,6.8,9,9
		c1.4,0.9,2.8,1.9,4.2,2.9l-5.1-3.9c4,3.1,7.6,6.7,10.8,10.8l-3.9-5.1c3,4,5.5,8.2,7.5,12.8l-2.5-6c0.8,1.9,1.5,3.9,2.1,5.9
		c0.8,3.2,2.3,6.1,4.5,8.5c1.8,2.7,4.1,4.9,7,6.4c2.9,1.8,6,2.8,9.3,3c3.3,0.7,6.6,0.6,10-0.5l6-2.5c3.8-2.2,6.8-5.2,9-9l2.5-6
		c1.2-4.4,1.2-8.9,0-13.3c-1.6-5.3-3.8-10.5-6.3-15.4c-1.6-3.2-3.5-6.2-5.7-9.1c-3.4-4.4-6.7-8.8-10.8-12.6s-8.6-7.2-13.3-10.2
		l-19.3,45.7l0.4,0.1l-6-2.5c2.3,1,4.4,2.2,6.4,3.8l-5.1-3.9c2,1.5,3.7,3.3,5.3,5.3l-3.9-5.1c1.5,2,2.8,4.1,3.8,6.4l-2.5-6
		c0.4,0.9,0.7,1.8,1,2.8l2.5,6c1.6,2.9,3.7,5.2,6.4,7c1.6,1.5,3.4,2.6,5.5,3.2c3,1.6,6.2,2.3,9.6,2.2c6.4,0.2,12.6-0.6,19-1.5
		c4.2-0.6,8.4-1.5,12.5-2.7c6-1.8,11.8-4.3,17.4-7.1c3.8-1.9,7.4-4.1,10.9-6.7l-30.3-39.3l-26.5,29.9l-3.9,5.1c-1.8,2.9-2.8,6-3,9.3
		c-0.6,2.2-0.6,4.4,0,6.7c0.1,3.3,1.1,6.4,3,9.3l3.9,5.1l5.1,3.9c2.9,1.8,6,2.8,9.3,3c3.3,0.7,6.6,0.6,10-0.5c2.3-0.4,4.5-1,6.7-1.8
		c4.1-1.5,8.2-3.2,12.1-5.3c2-1.1,4-2.4,5.8-3.8c3.5-2.7,7-5.2,10-8.4l-35.4-35.4c-7.5,8.4-14.3,17.7-18.8,28c-1.8,2.9-2.8,6-3,9.3
		c-0.7,3.3-0.6,6.7,0.5,10l2.5,6c1.6,2.9,3.7,5.2,6.4,7c1.6,1.5,3.4,2.6,5.5,3.2c3,1.6,6.2,2.3,9.6,2.2l6.6-0.9
		c4.2-1.2,7.9-3.3,11-6.4c1.2-1.1,2.5-2.2,3.8-3.2l-5.1,3.9c4.5-3.5,9.4-6.3,14.7-8.5l-6,2.5c5.4-2.2,11-3.8,16.8-4.6l-6.6,0.9
		l0.4,0l-17.7-42.7c-19.7,22.7-40.7,44.2-62.9,64.3c-6.2,5.6-12.5,11.2-18.9,16.6l39.3,30.3c0.2-0.3,0.4-0.6,0.7-1l-3.9,5.1
		c0.9-1.2,2-2.2,3.2-3.2l-5.1,3.9c1.3-1,2.7-1.8,4.2-2.5l-6,2.5c1.2-0.5,2.5-0.9,3.9-1.1l-6.6,0.9c0.9-0.1,1.7-0.1,2.6,0l-6.6-0.9
		c0.6,0.1,1.3,0.3,1.9,0.5l-6-2.5c0.4,0.2,0.8,0.4,1.2,0.7l-5.1-3.9c0.4,0.3,0.7,0.7,1,1l-3.9-5.1c0.3,0.4,0.6,0.9,0.8,1.4l-2.5-6
		l0.1,0.3c1.2,4.2,3.3,7.9,6.4,11c3.1,3.1,6.8,5.2,11,6.4c8.8,2.4,17.8-0.3,24.3-6.4l53.3-50l15.1-14.2l-35.4-35.4
		c-20.8,21.3-42.1,42.2-63.8,62.7c-6.1,5.8-12.3,11.5-18.5,17.2s-8.7,16-6.4,24.3c1.2,4.2,3.3,7.9,6.4,11c3.1,3.1,6.8,5.2,11,6.4
		c0.2,0.1,0.5,0.2,0.8,0.3l-6-2.5c5.7,2.4,11,5.5,15.9,9.3l-5.1-3.9c4.4,3.5,8.5,7.4,12,11.8c2.3,2.4,5,4.2,8,5.2
		c3,1.6,6.2,2.3,9.6,2.2l6.6-0.9c4.2-1.2,7.9-3.3,11-6.4c13.6-14.8,27-29.9,40-45.2c13-15.2,25.8-30.7,38.3-46.4
		c6.1-7.6,12.2-15.2,19.9-21.2l-5.1,3.9c3.1-2.4,6.5-4.5,10.2-6.1l-6,2.5c2.3-1,4.8-1.7,7.3-2l-6.6,0.9c2-0.2,4-0.2,6.1,0l-6.6-0.9
		c2.1,0.3,4.1,0.9,6.1,1.7l-6-2.5c3.5,1.6,6.7,3.8,10.1,5.7c7.1,4,14.6,6.6,22.7,6.7c3,0,6.3-0.6,9.2-1.1c1-0.2,1.9-0.4,2.8-0.7
		c3.7-1.2,7.6-2.8,10.9-4.9c5.2-3.2,9.9-7.3,14.3-11.6c2.4-2.3,4.2-5,5.2-8c1.6-3,2.3-6.2,2.1-9.6l-0.9-6.7
		c-0.8-3.2-2.3-6.1-4.5-8.5c-1.1-1.9-2.6-3.4-4.5-4.5c-2.4-2.2-5.2-3.7-8.5-4.5l-6.6-0.9c-4.5,0-8.7,1.2-12.6,3.4l-11.5,6.9
		l34.2,34.2l13.8-22.3l2.5-6c1-3.3,1.2-6.7,0.5-10c0-2.3-0.6-4.4-1.7-6.3c-1-3.1-2.7-5.8-5.2-8l-5.1-3.9l-6-2.5
		c-3.3-1-6.6-1.2-10-0.5c-3.3,0.2-6.4,1.1-9.3,3c-1.4,0.7-2.7,1.3-4.1,1.9l6-2.5c-6.4,2.7-13.1,4.5-19.9,5.4l6.6-0.9
		c-4.5,0.6-9,0.8-13.5,0.6l6.6,49.1c7.1-2.2,14.1-4.8,20.8-8.1c2.3-1.2,4.6-2.5,6.7-4c3.6-2.6,7.5-5.4,10.4-8.9
		c2-2.4,4.1-4.9,5.7-7.6s2.9-6.2,4.1-9.1c1.7-4.2,2.1-9,2.5-13.5c0.2-2.4,0.1-4.7-0.2-7.1c-0.5-4.7-1.1-9.3-2.1-13.9
		c-1.2-5.5-2.8-11-3.5-16.5l0.9,6.7c-0.4-2.7-0.5-5.3-0.2-8l-0.9,6.7c0.2-1.6,0.6-3.1,1.2-4.6l-2.5,6c0.5-1.2,1.2-2.4,2-3.4
		l-3.9,5.1c0.5-0.6,1-1.2,1.6-1.8l-39.3-5.1c0.6,0.8,1.1,1.6,1.4,2.5l-2.5-6c0.3,0.9,0.6,1.7,0.7,2.7l-0.9-6.7
		c0.2,1.3,0.2,2.6,0,3.8l0.9-6.7c-0.3,1.9-0.8,3.6-1.5,5.4l2.5-6c-1.1,2.7-2.7,5.1-4.4,7.4l3.9-5.1c-1.6,2.1-3.5,4-5.2,6
		c-3.1,3.5-6.1,7.2-8.8,11.1s-4.4,8.1-5.8,12.3c-1,3.2-1.3,6.7-1.6,10s0.5,7,1,10.2c1.2,4.2,3.3,7.9,6.4,11c3.1,3.1,6.8,5.2,11,6.4
		c8.4,2.3,18.2,0,24.3-6.4c2.1-2.2,4-4.8,5.8-7.3c0.6-0.8,1.2-1.7,1.7-2.6c0.5-1,1-2,1.5-3c1.2-2.9,2.6-5.7,3.5-8.7
		c0.3-1,0.5-2,0.7-3c0.5-3.1,1-6.4,1.2-9.5c0-1,0-2.1,0-3.1c-0.2-3.3-0.7-6.5-1.3-9.7c-1.2-4.2-3.3-7.9-6.4-11c-2.3-2.4-5-4.2-8-5.2
		c-3-1.6-6.2-2.3-9.6-2.2c-4.5,0-8.7,1.2-12.6,3.4c-5.4,3.2-10.2,6.9-15.1,10.7c-3.3,2.6-6.4,5.4-9.4,8.4
		c-4.3,4.4-8.1,9.3-11.8,14.3c-2.5,3.3-4.8,6.9-6.8,10.5c-1.8,2.9-2.8,6-3,9.3c-0.7,3.3-0.6,6.7,0.5,10l2.5,6c1.6,2.9,3.7,5.2,6.4,7
		c1.6,1.5,3.4,2.6,5.5,3.2c3,1.6,6.2,2.3,9.6,2.2l6.6-0.9c4.2-1.2,7.9-3.3,11-6.4c7-6.1,13-13.6,18.1-21.4c2-3.1,3.8-6.3,5.4-9.7
		c2.4-5.2,4.7-10.5,6.3-15.9c2.6-8.5-0.3-18.2-6.4-24.3c-3.1-3.1-6.8-5.2-11-6.4c-4.4-1.2-8.9-1.2-13.3,0
		c-11.2,4.1-22.2,9.2-32.1,16c-5.7,3.9-11.2,8.1-16.4,12.6c-3.8,3.3-7.4,6.8-10.8,10.6c-5.1,5.6-9.7,11.7-14,17.9
		c-1.8,2.9-2.8,6-3,9.3c-0.7,3.3-0.6,6.7,0.5,10l2.5,6c1.6,2.9,3.7,5.2,6.4,7c1.6,1.5,3.4,2.6,5.5,3.2c3,1.6,6.2,2.3,9.6,2.2
		l6.6-0.9c4.2-1.2,7.9-3.3,11-6.4c8.8-7.2,17.4-14.6,26-22.2c4.3-3.8,8.6-7.6,12.8-11.5c2.1-1.9,4.2-3.8,6.2-5.7
		c3.2-3,5.8-6.4,8.5-10c0.8-1.1,1.5-2.2,2.2-3.4c1.2-2.3,2.2-4.9,3.2-7.4c0.2-0.6,0.4-1.2,0.6-1.8c0.7-3.1,1.4-6.4,1.1-9.7
		c-0.2-2.5-0.4-5.5-1.2-8c-0.1-0.3-0.2-0.6-0.3-0.9c-0.8-2.2-1.8-4.5-2.9-6.7c-1.6-2.9-3.7-5.2-6.4-7c-2.4-2.2-5.2-3.7-8.5-4.5
		l-6.6-0.9c-4.5,0-8.7,1.2-12.6,3.4c-12.4,6.5-24.2,14.1-35.3,22.6c-12.8,9.8-24.9,20.2-35.9,32c-6.7,7.3-12.9,15-18.9,22.9l-2.5,6
		c-1,3.3-1.2,6.7-0.5,10c0,2.3,0.6,4.4,1.7,6.3c1,3.1,2.7,5.8,5.2,8l5.1,3.9l6,2.5c3.3,1,6.6,1.2,10,0.5c3.3-0.2,6.4-1.1,9.3-3
		c25.5-17,49.3-36.9,70.1-59.5c5.5-5.9,10.7-12,15.8-18.3c3.1-3.1,5.2-6.8,6.4-11c1-3.3,1.2-6.7,0.5-10c-0.1-3.3-1.1-6.4-3-9.3
		c-2.2-3.8-5.2-6.8-9-9c-5.5-3-10-4.1-16.3-4.5c-3.7-0.2-7.6,0.4-11.1,1.6c-5.2,1.7-10,4.1-14.4,7.2c-6.1,4.3-12.2,8.7-18.2,13.2
		c-13.4,10.2-26.5,20.7-39,31.9c-6.2,5.6-12.3,11.3-18.3,17.1c-2.4,2.3-4.2,5-5.2,8c-1.6,3-2.3,6.2-2.1,9.6
		c-0.1,3.4,0.6,6.7,2.1,9.6c1,3.1,2.7,5.8,5.2,8c4.8,4.4,11,7.6,17.7,7.3l6.6-0.9c4.2-1.2,7.9-3.3,11-6.4
		c22-17.4,42.6-36.6,61.4-57.5c5.2-5.8,10.4-11.8,15.3-17.9c2.4-2.3,4.2-5,5.2-8c1.6-3,2.3-6.2,2.1-9.6l-0.9-6.7
		c-0.8-3.2-2.3-6.1-4.5-8.5c-1.1-1.9-2.6-3.4-4.5-4.5c-2.4-2.2-5.2-3.7-8.5-4.5l-6.6-0.9c-4.5,0-8.7,1.2-12.6,3.4L338,592
		l-18.5,13.6l30.3,39.3c18.4-17.2,36.7-34.5,54.6-52.2c5.1-5,10.1-10.1,15-15.3c2.4-2.3,4.2-5,5.2-8c1.6-3,2.3-6.2,2.1-9.6l-0.9-6.7
		c-0.8-3.2-2.3-6.1-4.5-8.5c-1.1-1.9-2.6-3.4-4.5-4.5c-2.4-2.2-5.2-3.7-8.5-4.5l-6.6-0.9c-4.5,0-8.7,1.2-12.6,3.4
		c-23.5,12.8-45.5,28-66.2,44.9c-5.4,4.4-10.6,8.9-15.8,13.6l35.4,35.4l52.6-50.5l14.8-14.2c2.4-2.3,4.2-5,5.2-8
		c1.6-3,2.3-6.2,2.1-9.6l-0.9-6.7c-0.8-3.2-2.3-6.1-4.5-8.5c-1.1-1.9-2.6-3.4-4.5-4.5c-2.4-2.2-5.2-3.7-8.5-4.5l-6.6-0.9
		c-4.5,0-8.7,1.2-12.6,3.4c-15.9,10.2-31.8,20.4-48.7,28.9c-4.8,2.4-9.6,4.7-14.6,6.8l6-2.5c-3.5,1.5-7.1,2.9-10.7,4.2l24.3,41.8
		c11.5-13,24.2-24.8,37.9-35.4l-5.1,3.9c14.3-11,29.6-20.6,45.8-28.7l-25.2-43.2l-57.7,39.7L274,583.2l-32.6,22.4
		c-2.9,1.6-5.2,3.7-7,6.4c-2.2,2.4-3.7,5.2-4.5,8.5c-1,3.3-1.2,6.7-0.4,10c0.1,3.3,1.1,6.4,3,9.3l3.9,5.1c3.1,3.1,6.8,5.2,11,6.4
		l6.6,0.9C258.6,652.2,262.8,651.1,266.6,648.9L266.6,648.9L266.6,648.9z"/>
	<path class="st0" d="M297.2,821.4c11.7-8.6,22.5-18,32.2-28.8c9.7-10.6,18.4-22,27.1-33.5c4.4-5.7,8.7-11.4,13.1-17.1l-3.9,5.1
		c11.1-14.4,22.5-28.5,34.3-42.3c3.3-3.9,6.7-7.8,10.1-11.7c2.4-2.3,4.2-5,5.2-8c1.6-3,2.3-6.2,2.1-9.6c0.1-3.4-0.6-6.7-2.1-9.6
		c-1-3.1-2.7-5.8-5.2-8c-4.8-4.4-11-7.6-17.7-7.3l-6.6,0.9c-4.2,1.2-7.9,3.3-11,6.4c-18.1,20.8-35.5,42.2-52.2,64.1
		c-3.9,5.2-7.9,10.3-11.8,15.5l3.9-5.1c-10.4,13.4-21.2,26.7-33.7,38.2c-3.5,3.2-7.2,6.3-11,9.3l5.1-3.9c-1,0.8-2,1.6-3.1,2.3
		c-2.9,1.6-5.2,3.7-7,6.4c-2.2,2.4-3.7,5.2-4.5,8.5c-1,3.3-1.2,6.7-0.5,10c0.1,3.3,1.1,6.4,3,9.3l3.9,5.1c3.1,3.1,6.8,5.2,11,6.4
		l6.6,0.9C289.1,824.8,293.3,823.6,297.2,821.4L297.2,821.4L297.2,821.4z"/>
	<path class="st0" d="M250.9,582.9c-2.1-0.5-4.1-1.2-6.1-2.1l6,2.5c-3.8-1.6-7.4-3.7-10.7-6.2l5.1,3.9c-3.5-2.7-6.6-5.8-9.3-9.3
		l3.9,5.1c-2.7-3.5-4.9-7.3-6.6-11.4l2.5,6c-1.5-3.7-2.6-7.6-3.2-11.5l0.9,6.7c-0.8-6.2-0.5-12.4-0.5-18.6c-0.1-7.7-1-15.4-2.6-22.9
		c-1.2-5.5-2.9-10.8-5-16c-2.8-7-5.8-13.8-9.4-20.4c-5.2-9.6-11-19-17.1-28.1c-2.5-3.8-5.3-7.3-8.1-10.9c-1.6-2-3.2-3.9-5.1-5.6
		c-0.8-0.8-1.7-1.5-2.6-2.2c-2.5-2-5.1-4.1-7.8-5.9c-1-0.6-1.9-1.2-3-1.7c-3-1.5-6.1-2.8-9.3-3.9c-4.8-1.6-10.1-2.1-15.1-2.6
		c-3.1-0.3-6.1-0.3-9.2-0.3c-6.2,0.1-12.4,0.5-18.6-0.3l6.7,0.9c-2.3-0.3-4.6-0.8-6.9-1.5l-13.3,48.2c2.8,0.5,5.6,0.9,8.4,1.1
		c0.7,0,1.5,0,2.2,0c2.8-0.2,5.6-0.6,8.3-1.1c0.7-0.1,1.4-0.3,2.1-0.5c2.6-0.8,5.1-2,7.6-3.1c0.7-0.3,1.3-0.6,2-1
		c3-1.7,5.7-4,8.3-6.2c1.1-1,2.1-2,3-3.1c2.1-2.6,4.6-5.5,6.2-8.6c0.8-1.5,1.4-3.1,2.1-4.7s1.4-3.2,2-4.9c1.1-3.3,1.4-7.1,1.7-10.5
		c0.3-3.7-0.4-7.5-1-11c-0.1-0.8-0.3-1.6-0.6-2.3c-0.9-2.8-2.1-5.5-3.4-8.1l-28.2,36.7c17,4.8,33.7,10.4,50.2,16.4
		s33.2,12.5,49.8,18.9s32.9,12.8,49.4,18.9c16.5,6,33.1,11.6,50,16.4c16.9,4.8,34.1,8.8,51.5,11.6c2.1,0.3,4.3,0.7,6.4,1
		c3.3,1,6.6,1.2,10,0.5c3.3-0.2,6.4-1.1,9.3-3c2.9-1.6,5.2-3.7,7-6.4c2.2-2.4,3.7-5.2,4.5-8.5l0.9-6.7c0-4.5-1.1-8.7-3.4-12.6
		l-3.9-5.1c-3.1-3.1-6.8-5.2-11-6.4c-17.4-2.4-34.5-6.1-51.4-10.7c-17-4.6-33.8-10.1-50.4-16c-16.6-5.9-33-12.3-49.5-18.7
		c-16.5-6.4-32.9-12.9-49.5-19s-33.4-11.9-50.4-16.9c-2.1-0.6-4.1-1.2-6.2-1.8l-6.6-0.9l-6.7,0.9l-6,2.5c-2.9,1.6-5.2,3.7-7,6.4
		c-1.6,1.6-2.6,3.4-3.2,5.5c-1.1,2-1.7,4-1.7,6.3c-0.6,2.2-0.6,4.4,0,6.7c0.2,3.3,1.1,6.4,3,9.3c0.2,0.3,0.3,0.6,0.4,1l-2.5-6
		c0.5,1.3,0.9,2.6,1.1,4l-0.9-6.7c0.2,1.5,0.2,2.9,0,4.4l0.9-6.7c-0.2,1.8-0.7,3.6-1.4,5.3l2.5-6c-0.8,1.8-1.8,3.5-3,5.1l3.9-5.1
		c-1.2,1.5-2.5,2.8-3.9,3.9l5.1-3.9c-1.4,1-2.8,1.9-4.4,2.6l6-2.5c-1.5,0.6-3,1-4.6,1.2l6.7-0.9c-1.4,0.2-2.7,0.2-4.1,0l6.7,0.9
		c-0.2,0-0.5-0.1-0.7-0.1c-3.3-1-6.7-1.2-10-0.5c-3.3,0.2-6.4,1.1-9.3,3c-2.9,1.6-5.2,3.7-7,6.4c-2.2,2.4-3.7,5.2-4.5,8.5l-0.9,6.7
		c0,4.5,1.2,8.7,3.4,12.6l3.9,5.1c3.1,3.1,6.8,5.2,11,6.4c4.8,1.6,10.1,2.1,15.2,2.6c3.1,0.3,6.2,0.3,9.3,0.3
		c6.2-0.1,12.4-0.5,18.5,0.3l-6.6-0.9c2.9,0.4,5.8,1.1,8.5,2.2l-6-2.5c2.5,1.1,4.8,2.5,7,4.1l-5.1-3.9c3.3,2.6,6.1,5.7,8.6,8.9
		l-3.9-5.1c5.3,6.9,9.8,14.4,14.2,21.8c4.8,7.8,9.2,15.9,12.8,24.4l-2.5-6c3.1,7.5,5.5,15.4,6.6,23.5l-0.9-6.7
		c0.9,6.9,0.5,13.9,0.6,20.8c0.1,5.3,0.8,10.7,1.6,15.9c0.4,2.6,1.1,5.1,2,7.5c2.4,6.9,5.5,13.8,9.9,19.6c2.8,3.7,5.5,7.4,8.8,10.6
		s7,6,10.7,8.7c2.4,1.7,4.9,3.2,7.5,4.5c4.6,2.2,9.3,4.3,14.2,5.6c3.3,1,6.6,1.2,10,0.5c3.3-0.2,6.4-1.1,9.3-3
		c2.9-1.6,5.2-3.7,7-6.4c2.2-2.4,3.7-5.2,4.5-8.5l0.9-6.7c0-4.5-1.1-8.7-3.4-12.6C262.3,588.9,257.3,584.6,250.9,582.9L250.9,582.9
		L250.9,582.9z"/>
	<path class="st0" d="M334.8,496.8c-3.6,1.5-7.4,2.8-10.7,5s-6.4,4.6-9.4,7.1s-5.6,5.6-8.2,8.6c-6.1,7.3-12,14.7-17.9,22l-10.4,12.8
		l41.8,24.3c0.8-3.1,1.9-6.2,3.1-9.2l-2.5,6c2.2-5.2,5.1-10.2,8.6-14.7l-3.9,5.1c3.5-4.5,7.5-8.6,12.1-12.1l-5.1,3.9
		c1.3-1,2.7-2,4.1-2.9l-34.2-34.2c-2.7,6.2-6.1,12-10.3,17.4l3.9-5.1c-4.3,5.5-9.3,10.5-14.9,14.8l5.1-3.9c-4,3-8.3,6.1-13,8.1
		l6-2.5c-0.9,0.3-1.8,0.6-2.7,0.7l6.6-0.9c-0.6,0.1-1.2,0.1-1.8,0l6.6,0.9c-0.4-0.1-0.9-0.2-1.3-0.3l6,2.5c-0.2-0.1-0.4-0.2-0.6-0.4
		l5.1,3.9c-0.1-0.1-0.2-0.2-0.3-0.3l3.9,5.1c-0.2-0.2-0.3-0.4-0.4-0.6l2.5,6c-0.1-0.2-0.1-0.3-0.2-0.5l0.9,6.7
		c-0.1-0.3-0.1-0.6,0-0.9l-0.9,6.7c0.1-0.5,0.2-0.9,0.3-1.3l-2.5,6c1.2-2.7,2.7-5.3,4.1-8s2.8-5.2,4.3-7.7c2.9-5.1,6.1-10,9.7-14.6
		l-3.9,5.1c3.9-5,8.2-9.5,13.2-13.4l-5.1,3.9c1.5-1.1,3-2.2,4.5-3.2l-36.7-28.2c-1.2,5.6-3,11-5.2,16.3l2.5-6
		c-3.3,7.7-7.5,14.9-12.6,21.5l3.9-5.1c-4.9,6.3-10.5,11.9-16.8,16.8l5.1-3.9c-1.5,1.2-3.1,2.3-4.7,3.4l19.3-2.5
		c-0.3,0-0.5-0.1-0.8-0.2l6,2.5c-0.2-0.1-0.3-0.2-0.5-0.3l5.1,3.9c-0.2-0.2-0.4-0.3-0.6-0.5l3.9,5.1c-0.2-0.3-0.4-0.6-0.5-1l2.5,6
		c-0.2-0.6-0.4-1.1-0.5-1.7l0.9,6.7c-0.2-1.7,0-3.4,0.3-5.1l-0.9,6.7c0.8-6,2.4-11.8,4.8-17.4l-2.5,6c2.4-5.6,5.4-10.8,9.1-15.6
		l-3.9,5.1c3.6-4.7,7.8-8.9,12.5-12.5l-5.1,3.9c0.8-0.6,1.6-1.2,2.5-1.8l-36.7-14.9c0.3,1.1,0.5,2.2,0.7,3.4l-0.9-6.7
		c0.3,2.4,0.3,4.7,0,7.1l0.9-6.7c-0.5,3.5-1.5,7-2.9,10.3l2.5-6c-3.4,7.9-8.5,15.2-13.7,22l3.9-5.1c-1.8,2.3-3.7,4.4-5.9,6.2
		l5.1-3.9c-1.1,0.8-2.4,1.6-3.6,2.2l6-2.5c-1.2,0.5-2.4,0.8-3.6,1l6.6-0.9c-1.1,0.1-2.3,0.2-3.4,0l6.6,0.9c-1-0.1-2-0.4-2.9-0.8
		l6,2.5c-0.7-0.3-1.4-0.7-2-1.1l5.1,3.9c-0.6-0.5-1.1-1-1.6-1.6l3.9,5.1c-0.5-0.7-0.9-1.3-1.2-2.1l2.5,6c-0.4-1.1-0.7-2.3-0.9-3.5
		l0.9,6.7c-0.4-3.5,0-7,0.4-10.5l-0.9,6.7c0.8-5.8,2.4-11.5,4.7-17l-2.5,6c2-4.7,4.5-9.2,7.6-13.3l-3.9,5.1c0.5-0.7,1.1-1.4,1.8-2
		l-5.1,3.9c0.4-0.3,0.8-0.5,1.3-0.8l-6,2.5c0.3-0.1,0.7-0.2,1-0.3l-6.6,0.9c0.5,0,0.9,0,1.3,0l-6.6-0.9c0.4,0.1,0.9,0.2,1.3,0.4
		l-6-2.5c0.5,0.2,1,0.5,1.5,0.9l-5.1-3.9c0.5,0.4,0.9,0.8,1.2,1.2l-3.9-5.1c0.4,0.5,0.6,1,0.9,1.5l-2.5-6c0.3,0.7,0.4,1.3,0.6,2
		l-0.9-6.7c0.1,1.2,0.1,2.4,0,3.5l0.9-6.7c-0.6,4.2-2.1,8.4-3.7,12.3l2.5-6c-1.8,4.2-4,8.4-6.7,12.1l3.9-5.1
		c-1.3,1.6-2.7,3.1-4.4,4.4l5.1-3.9c-1.2,0.9-2.5,1.7-3.9,2.3l6-2.5c-0.9,0.3-1.8,0.6-2.7,0.7l6.6-0.9c-0.7,0.1-1.3,0.1-2,0l6.6,0.9
		c-0.7-0.1-1.3-0.3-1.9-0.5l6,2.5c-0.5-0.2-1.1-0.5-1.6-0.9l5.1,3.9c-0.6-0.5-1.1-1-1.6-1.5l3.9,5.1c-0.7-0.9-1.2-1.9-1.7-2.9l2.5,6
		c-1-2.5-1.6-5.2-2-7.9l0.9,6.7c-0.5-3.5-0.5-7.1,0-10.6l-0.9,6.7c0.5-3.7,1.5-7.2,2.9-10.6l-2.5,6c1.3-3,3-5.8,5-8.5l-3.9,5.1
		c0.8-1,1.6-1.9,2.6-2.7l-5.1,3.9c0.6-0.4,1.2-0.8,1.9-1.1l-6,2.5c0.4-0.2,0.9-0.3,1.3-0.4l-6.6,0.9c0.5,0,0.9,0,1.3,0l-6.6-0.9
		c0.2,0,0.4,0.1,0.6,0.2l-6-2.5c0.3,0.2,0.6,0.3,0.9,0.5l-5.1-3.9c0.3,0.2,0.5,0.5,0.7,0.8l-3.9-5.1c0.2,0.3,0.3,0.6,0.5,0.9l-2.5-6
		c0.2,0.5,0.3,0.9,0.4,1.4l-0.9-6.7c0.2,1.7,0,3.4-0.2,5.1l0.9-6.7c-0.4,3.2-1.3,6.3-2.5,9.3l2.5-6c-1.3,3-2.9,5.8-4.8,8.3l3.9-5.1
		c-1,1.2-2,2.3-3.2,3.3l5.1-3.9c-0.7,0.5-1.5,1-2.3,1.3l6-2.5c-0.7,0.3-1.4,0.5-2.2,0.6l6.6-0.9c-0.6,0.1-1.2,0.1-1.8,0l6.7,0.9
		c-0.9-0.1-1.7-0.3-2.5-0.7l6,2.5c-1.1-0.5-2-1-3-1.7l5.1,3.9c-1.5-1.1-2.7-2.5-3.9-3.9l3.9,5.1c-2-2.6-3.5-5.5-4.8-8.5l2.5,6
		c-1.4-3.5-2.4-7-2.9-10.7l0.9,6.7c-0.4-2.8-0.5-5.8-0.2-8.7l-0.9,6.7c0.2-1.1,0.5-2.2,0.9-3.3l-2.5,6c0.4-1,1-2,1.6-2.9l-3.9,5.1
		c0.5-0.6,0.9-1.1,1.5-1.5l-5.1,3.9c0.4-0.3,0.8-0.5,1.2-0.7l-6,2.5c0.3-0.1,0.7-0.2,1-0.3l-6.6,0.9c0.4,0,0.7,0,1.1,0l-6.6-0.9
		c0.4,0.1,0.7,0.2,1.1,0.3l-6-2.5l0.3,0.1c2.9,1.8,6,2.8,9.3,3c3.3,0.7,6.6,0.6,10-0.5l6-2.5c2.9-1.6,5.2-3.7,7-6.4
		c1.5-1.6,2.6-3.4,3.2-5.5c1.6-3,2.3-6.2,2.1-9.6l-0.9-6.7c-1.2-4.2-3.3-7.9-6.4-11c-9.6-10.3-20.4-19.4-31.9-27.6
		c-2.9-1.8-6-2.8-9.3-3c-3.3-0.7-6.6-0.6-10,0.5c-3.2,0.8-6.1,2.3-8.5,4.5c-2.7,1.8-4.9,4.1-6.4,7l-2.5,6c-1.2,4.4-1.2,8.9,0,13.3
		l2.5,6c2.2,3.8,5.2,6.8,9,9c1.7,1.2,3.4,2.5,5.1,3.8l-5.1-3.9c7.8,6,15,12.7,21.7,19.9l30.3-39.3c-4.9-2.3-9.5-4.3-15.1-3.9
		c-6.1,0.5-8.1,1-13.6,3.7c-2.3,1.1-4.7,3.3-6.3,4.6c-4.9,4.1-8.1,10.7-10,16.6c-1,3.1-1.2,6.5-1.5,9.7c-0.1,1.7-0.1,3.4,0,5.1
		c0.4,5.2,1,10.6,2.5,15.7s3.6,9.9,6.1,14.5c0.8,1.3,1.6,2.7,2.5,3.9c1.9,2.7,4.2,6,6.8,8.3c4.8,4.4,11.1,8.8,17.7,9.8
		c2.6,0.4,5.7,1.1,8.5,0.9c2.2-0.2,4.9-0.5,7-0.9c0.4-0.1,0.7-0.2,1.1-0.3c6.2-1.9,9.4-4.2,14.3-8.3c1-0.9,2-1.9,2.8-2.9
		c2.2-2.8,4.5-5.6,6.4-8.7c0.8-1.3,1.5-2.7,2.1-4.1c1.5-3.4,3.1-6.8,4.1-10.3c0.5-1.5,0.8-3,1.1-4.5c0.6-3.5,1.2-7.2,1.4-10.8
		c0.4-10.7-5.1-22.3-14.9-27.3c-4.9-2.5-8-3.5-13.6-3.6c-2.8-0.1-5.6,0.3-8.3,1.1c-5.9,1.7-9.3,4.2-13.9,8c-2.5,2.1-4.6,5.3-6.5,7.8
		c-0.9,1.3-1.8,2.6-2.6,3.9c-0.7,1.3-1.4,2.5-1.9,3.9c-1.4,3.2-2.9,6.3-3.9,9.7c-1.6,4.8-2.2,10.1-2.7,15.1
		c-0.3,2.9-0.3,5.9,0.1,8.8c0.6,4.9,1,10.1,2.8,14.8c1.2,3,2.4,6.5,4.4,9.3c3.4,4.7,6.5,8.5,11.8,11.3s9.2,3.8,15.2,4.1
		c3.4,0.2,7.1-0.3,10.3-1.4c3-1,6.5-2.3,9.2-4.2c2.2-1.4,4.3-3.2,6.3-4.8c0.7-0.6,1.4-1.2,2-1.8c3.5-3.5,6.5-7.6,9-11.9
		c2.8-4.7,4.8-9.7,6.8-14.7c1.2-3,2.3-6.1,3-9.2c0.8-3.6,1.5-7.4,1.4-11.1c-0.2-6.1-1.5-11.3-4.4-16.6c-5.2-9.5-15.7-15.5-26.5-15.8
		c-5.3-0.1-11.1,1.5-15.6,4.3c-5.4,3.5-7.8,6.6-11.6,11.8c-1.9,2.5-3.5,5.3-4.9,8c-2.4,4.7-4.5,9.7-6.3,14.7c-1.1,3-1.9,6.2-2.5,9.3
		c-1,5.2-1.8,10.5-2,15.8c-0.1,1.5-0.1,3,0.1,4.5c0.2,2.8,0.6,5.5,1.1,8.2s2.1,6,3.2,8.2c1.4,2.9,3.5,5.6,5.7,7.9s5,4.5,8,5.9
		c6.3,2.9,8.6,3.5,15.5,4.2c3.4,0.3,7.1-0.4,10.4-1c2.2-0.4,4.2-1.3,6.3-2.2c2.4-1,4.5-1.9,6.6-3.4c2.7-2,5.7-4.1,8.1-6.6
		s4.6-5.7,6.8-8.5c4-5.2,7.8-10.6,11-16.4c2.5-4.6,4.6-9.5,6.4-14.4s2.5-10.5,2.9-15.7c0.1-1.5,0.1-3.1-0.1-4.6
		c-0.4-3.6-0.7-7.3-1.7-10.8c-1.2-4.2-3.3-7.9-6.4-11c-2.3-2.4-5-4.2-8-5.2c-3-1.6-6.2-2.3-9.6-2.2c-4.5,0-8.7,1.2-12.6,3.4
		c-5.5,3.8-10.9,8-15.5,13c-4.6,4.9-8.8,10.3-12.4,16c-3.6,5.7-6.3,12.1-8.6,18.4c-1.7,4.5-2.9,9.2-3.6,13.9
		c-0.5,3.2-0.9,6.3-1.3,9.5c-0.1,1.1-0.1,2.1,0,3.2c0.6,6.1,1,9.2,4,14.6c0.1,0.2,0.2,0.3,0.3,0.5c0.8,1.3,3,4.1,4.1,5.3
		c1.7,1.8,3.8,3.4,5.9,4.7s4.5,2.3,6.9,2.8c6.6,1.4,13.8,1.1,19.6-2.7c1.1-0.7,2.1-1.5,3.2-2.3c3.5-2.6,7-5.3,10.4-8.2
		c3.6-3.2,7-6.6,10.1-10.3c4.4-5.2,8.6-10.6,12.2-16.4c4-6.3,6.9-13.1,9.7-20c2.1-5,3.7-10.3,4.9-15.6l0.9-6.7l-0.9-6.7l-2.5-6
		c-1.6-2.9-3.7-5.2-6.4-7c-1.6-1.5-3.4-2.6-5.5-3.2c-2-1.1-4-1.7-6.3-1.7c-2.2-0.6-4.4-0.6-6.6,0c-3.3,0.2-6.4,1.1-9.3,3
		c-5.4,3.4-10.6,7.5-15.2,11.9c-4.6,4.5-8.5,9.6-12.3,14.7c-5.4,7.2-9.9,15.1-14.1,23c-1,2-2.2,4-3.1,6c-1.1,2.3-2.4,4.7-2.9,7.3
		c-1.2,5.6-1.1,6.4-0.4,11.1c0.5,4,0.7,5.9,3.2,9.9c1.3,2,2.6,4.1,4.4,5.8c5.6,5.2,13.3,8.8,21.2,8.2c2.5-0.2,5.1-0.6,7.5-1
		c0.4-0.1,0.8-0.2,1.2-0.3c2.3-0.7,4.6-1.8,6.8-2.8c0.5-0.2,1-0.5,1.5-0.7c3.9-2,7.5-4.4,11-7c5.1-3.8,10.1-7.7,14.5-12.3
		c4.8-5,9.1-10.5,13-16.3c2.8-4.1,5.1-8.5,7.1-13l2.5-6c1-3.3,1.2-6.7,0.5-10c0-2.3-0.6-4.4-1.7-6.3c-1-3.1-2.7-5.8-5.2-8l-5.1-3.9
		l-6-2.5c-3.3-1-6.6-1.2-10-0.5c-3.3,0.2-6.4,1.1-9.3,3c-4.4,2.9-8.6,6.1-12.5,9.5c-2.4,2.1-4.7,4.5-6.8,6.9
		c-5.5,6.5-10.6,13.5-14.1,21.3c-2.3,5.2-4.6,10.5-6,16.1l-0.9,6.7c-0.1,3.4,0.6,6.7,2.1,9.6c0.6,2.1,1.7,4,3.2,5.5
		c1.8,2.7,4.1,4.9,7,6.4l6,2.5l6.6,0.9c3.4,0.1,6.6-0.6,9.6-2.2c3.1-1,5.8-2.7,8-5.2l20-24.6c5.7-7,11.1-14.8,18.4-20.3l-5.1,3.9
		c2-1.5,4.1-2.8,6.5-3.8l-6,2.5c0.2-0.1,0.5-0.2,0.7-0.3c3.2-0.8,6.1-2.3,8.5-4.5c2.7-1.8,4.9-4.1,6.4-7c1.8-2.9,2.8-6,3-9.3
		c0.7-3.3,0.6-6.7-0.5-10l-2.5-6c-2.2-3.8-5.2-6.8-9-9l-6-2.5C343.7,495.6,339.3,495.6,334.8,496.8L334.8,496.8L334.8,496.8z"/>
	<path class="st0" d="M102.2,450.8c-0.1-0.4-0.2-0.7-0.2-1.1l0.4,3.3c-0.1-0.9-0.1-1.8,0-2.7l-0.4,3.3c0.1-1,0.4-1.9,0.8-2.8l-1.3,3
		c0.4-0.8,0.8-1.6,1.3-2.3l-1.9,2.5c0.6-0.7,1.2-1.3,1.9-1.9l-2.5,2c0.1-0.1,0.3-0.2,0.4-0.3l2.5-2c1.2-1.1,2.1-2.5,2.6-4
		c0.6-1,0.8-2,0.8-3.2c0.4-1.7,0.3-3.3-0.2-5l-1.3-3l-1.9-2.5c-1.1-1.2-2.5-2.1-4-2.6c-1.5-0.8-3.1-1.1-4.8-1.1
		c-1.8,0-3.6,0.3-5.3,0.7s-3.4,1.2-4.9,1.9c-0.7,0.3-1.3,0.7-1.8,1.1c-1.4,1-2.9,2.1-4.1,3.3s-2.2,2.7-3.2,4.1s-1.6,3.2-2.2,4.8
		c-0.3,0.7-0.5,1.3-0.6,2c-0.3,1.7-0.7,3.6-0.6,5.4c-0.1,1.7,0.3,3.3,1.1,4.8c0.5,1.5,1.4,2.9,2.6,4c1.1,1.2,2.5,2.1,4,2.6
		c1.5,0.8,3.1,1.1,4.8,1.1l3.3-0.5c2.1-0.6,4-1.7,5.5-3.2l1.9-2.5c1.1-2,1.7-4,1.7-6.3c0-0.6,0-1.1,0.1-1.7l-0.4,3.3
		c0.1-0.9,0.3-1.7,0.7-2.5l-1.3,3c0.4-0.8,0.8-1.6,1.4-2.4l-1.9,2.5c0.6-0.8,1.3-1.5,2.1-2.1l-2.5,2c0.7-0.5,1.4-1,2.2-1.3l-3,1.3
		c0.8-0.3,1.6-0.6,2.5-0.7l-3.3,0.5c0.4,0,0.8-0.1,1.2-0.1l-6.3-23.3c-1.1,0.7-2.1,1.6-3.1,2.4c-0.2,0.2-0.4,0.3-0.6,0.5
		c-0.4,0.4-0.8,0.8-1.1,1.2c-1,1.2-2,2.4-2.8,3.8s-1.3,2.9-1.9,4.3c-0.8,2-1,4.3-1.1,6.3c-0.1,0.5-0.1,1.1,0,1.7
		c0.1,1.3,0.3,2.7,0.5,4c0.1,0.3,0.1,0.6,0.2,0.9c0.4,1.6,1.1,3,2.2,4.2c0.9,1.4,2.1,2.4,3.5,3.2c1.4,0.9,3,1.4,4.7,1.5
		c1.7,0.4,3.3,0.3,5-0.2l3-1.3c1.9-1.1,3.4-2.6,4.5-4.5l1.3-3C102.9,455.2,102.9,453,102.2,450.8L102.2,450.8L102.2,450.8z"/>
	<path class="st0" d="M239,737.2c-4.5-0.7-8.8-0.9-13.3,0.4c-4.4,1.2-7.9,3.5-11.3,6.4c-3,2.5-3.9,6.8-3.4,10.5
		c0.6,4.1,2.7,6.8,6,9.1c1.9,1.4,3.9,2.8,5.7,4.2l-2.5-2c19.4,15,35.3,33.7,51.3,52.1l14.9,17.1c2,2.3,5.9,3.7,8.8,3.7
		s6.7-1.4,8.8-3.7s3.8-5.5,3.7-8.8s-1.4-6.2-3.7-8.8c-9.2-10.6-18.3-21.2-27.6-31.6c-8.7-9.8-17.6-19.4-27.3-28.2
		c-6.2-5.6-12.7-10.8-19.5-15.6l2.5,19.6c0.2-0.2,0.4-0.3,0.6-0.5l-2.5,2c1.1-0.8,2.2-1.5,3.4-2l-3,1.3c1.3-0.6,2.7-0.9,4.2-1.1
		l-3.3,0.5c1.3-0.2,2.6-0.1,3.9,0l-3.3-0.5l0.4,0.1c1.7,0.5,3.3,0.6,5,0.2c1.7-0.1,3.2-0.6,4.6-1.5c2.6-1.5,5.1-4.5,5.7-7.5
		c0.7-3.2,0.6-6.8-1.3-9.6C244.8,740.4,242.1,737.7,239,737.2L239,737.2L239,737.2z"/>
	<path class="st0" d="M409.5,687.3c13.2,11.3,26.2,23,38.7,35.1c3.6,3.4,7.1,6.9,10.6,10.4c2.3,2.3,5.6,3.7,8.8,3.7s6.7-1.4,8.8-3.7
		s3.8-5.5,3.7-8.8s-1.3-6.5-3.7-8.8c-12.4-12.3-25.1-24.2-38.1-35.8c-3.7-3.3-7.5-6.5-11.2-9.8c-2.6-2.2-5.4-3.7-8.8-3.7
		c-3.1,0-6.7,1.4-8.8,3.7s-3.8,5.5-3.7,8.8S407,685.2,409.5,687.3L409.5,687.3z"/>
	<path class="st0" d="M537.3,668.9l1.3-1.5c1.2-1.1,2.1-2.5,2.6-4c0.8-1.5,1.1-3.1,1.1-4.8c0.1-1.7-0.3-3.3-1.1-4.8
		c-0.5-1.5-1.4-2.9-2.6-4l-2.5-2c-2-1.1-4-1.7-6.3-1.7l-3.3,0.5c-2.1,0.6-4,1.7-5.5,3.2l-1.3,1.5c-1.2,1.1-2.1,2.5-2.6,4
		c-0.8,1.5-1.1,3.1-1.1,4.8c-0.1,1.7,0.3,3.3,1.1,4.8c0.5,1.5,1.4,2.9,2.6,4l2.5,2c2,1.1,4,1.7,6.3,1.7l3.3-0.5
		C533.9,671.6,535.8,670.5,537.3,668.9L537.3,668.9z"/>
	<path class="st0" d="M731.2,328.5c14.1-16.9,28.3-33.8,42.6-50.5s28.8-32.9,43.7-48.9c15-16,30.4-31.5,46.5-46.4
		c7.8-7.2,15.9-14.2,23.9-21.3s15.5-14,22.3-21.9c7.3-8.4,13.7-17.6,18.1-27.9c2.3-5.4,4.4-10.9,5.5-16.7c1.1-5.8,1.8-11.8,1.5-17.7
		c-0.2-3.4-0.7-6.8-1.3-10.2c-0.8-4.2-4.8-7.6-8.7-8.7s-9.3-0.1-12.2,3.2c-13.9,15.8-27.8,31.7-41.6,47.5L830,156.3l-41.6,47.5
		c-13.1,15-26.1,30-39.5,44.8c-12.6,13.9-25.7,27.3-40.1,39.1c-1.8,1.5-3.6,2.9-5.4,4.3l2.5-2c-3.3,2.5-6.6,5-10,7.3L711,317
		c15.7-17.4,31.4-34.7,47.1-52.1c14.7-16.3,29.1-32.9,44.5-48.5c8.2-8.2,16.7-16.1,25.8-23.2l-2.5,2c4.1-3.1,8.2-6.1,12.6-8.9
		l-15.2-19.6c-14.1,16.2-27.5,33-40.3,50.2c-12.3,16.4-23.9,33.3-34.9,50.5c-6.2,9.8-12.3,19.7-18.1,29.7c-1.6,2.8-2.1,6.5-1.3,9.6
		c0.8,2.9,3,6,5.7,7.5c2.9,1.5,6.4,2.3,9.6,1.3s5.8-2.9,7.5-5.7c14.4-24.7,30-48.6,46.8-71.7c4.8-6.6,9.7-13.1,14.6-19.5l-2,2.5
		c9.7-12.5,19.7-24.7,30-36.7c2.1-2.4,3.8-5.5,3.7-8.8c-0.1-2.8-1-5.3-2.7-7.6c-1.6-2.1-3.9-3.9-6.5-4.5c-3.2-0.7-6.8-0.6-9.6,1.3
		c-20,12.9-37.1,29.5-53.1,46.9c-17,18.4-33.6,37.1-50.4,55.7l-29,32.2c-2.1,2.4-3.8,5.6-3.7,8.8c0.1,2.8,1,5.3,2.7,7.6
		c1.6,2.1,3.9,3.9,6.5,4.5c3.2,0.7,6.9,0.6,9.6-1.3c16.9-11.5,32.1-25.3,46.2-40c14-14.5,27.1-29.9,40.4-45.1l43.4-49.6
		c14.5-16.5,29-33,43.4-49.6s29-33,43.4-49.6l5.3-6l-20.9-5.5c0.2,1,0.3,1.9,0.5,2.9l-0.5-3.3c0.7,4.9,0.6,9.8,0,14.6l0.5-3.3
		c-0.8,6-2.5,11.9-4.9,17.5l1.3-3c-3.1,7.3-7.2,14-12,20.2l2-2.5c-10.2,13.2-23.1,24-35.6,35c-13.2,11.6-25.9,23.6-38.3,36
		c-12.4,12.4-24.4,25.1-36.2,38.1c-11.8,13-23.4,26.3-34.9,39.6s-22.8,26.9-34.1,40.4c-1.4,1.7-2.8,3.3-4.2,5
		c-2.2,2.6-3.7,5.3-3.7,8.8c0,3.1,1.4,6.7,3.7,8.8s5.5,3.8,8.8,3.7C725.5,332,729.1,331,731.2,328.5L731.2,328.5L731.2,328.5z"/>
</g>
<g id="Nelson_Mandela-2">
	<path d="M389.6,484c11.5-15.8,28.8-25.9,44.4-37.2c8.1-5.9,15.9-12.2,22.7-19.6c3.9-4.2,7.7-8.7,11.7-12.8s8.1-7.9,12.5-11.6
		c9.8-8.3,20.2-15.7,30.6-23.1c1.3-0.9,0-3.1-1.3-2.2c-9.4,6.6-18.7,13.3-27.6,20.6c-4.4,3.6-8.7,7.3-12.8,11.3s-8,8.3-11.8,12.6
		s-7.5,8.1-11.6,11.8c-3.7,3.2-7.5,6.3-11.5,9.2c-7.9,5.8-16.2,11.2-24.1,17.1c-8.7,6.5-17,13.8-23.4,22.6
		C386.5,484,388.6,485.3,389.6,484L389.6,484L389.6,484z"/>
	<path d="M523.7,376.2c7.2,1.6,10.8,9.2,16.1,13.6c3.1,2.6,6.8,4.2,10.9,3.9c5.3-0.4,9.9-3.3,14.3-6.1c5.5-3.5,11.1-7,16.7-10.6
		c1.3-0.9,0.1-3-1.3-2.2l-14.4,9.1c-4.4,2.8-8.9,6.1-14.2,7c-8.3,1.5-13-5.8-17.9-11.1c-2.7-2.8-5.7-5.4-9.6-6.2
		C522.8,373.4,522.2,375.9,523.7,376.2L523.7,376.2L523.7,376.2z"/>
	<path d="M584.3,375.1l1.8-0.9c0.2-0.1,0.3-0.2,0.3-0.3c0.1-0.1,0.2-0.3,0.2-0.4c0-0.2,0.1-0.3,0-0.5c0-0.2-0.1-0.3-0.2-0.5
		c-0.2-0.3-0.4-0.5-0.8-0.6l-0.3,0c-0.2,0-0.4,0.1-0.6,0.2L583,373c-0.2,0.1-0.3,0.2-0.3,0.3c-0.1,0.1-0.2,0.3-0.2,0.4
		c0,0.2-0.1,0.3,0,0.5c0,0.2,0.1,0.3,0.2,0.5c0.2,0.3,0.4,0.5,0.8,0.6l0.3,0C583.9,375.3,584.1,375.3,584.3,375.1L584.3,375.1z"/>
	<path d="M587.1,373.9c5.3-6.1,10.6-12.3,16.6-17.6c3-2.7,6.2-5.2,9.7-7.3c3.8-2.3,7.8-4.1,11.8-5.9c15.6-7.1,29.9-16.7,43.5-27.1
		c7.6-5.8,15-11.9,22.4-18c1.2-1-0.5-2.8-1.8-1.8c-13.3,10.9-26.6,21.8-41,31.2c-7.2,4.7-14.6,8.9-22.3,12.6c-4,1.9-8.2,3.6-12,5.8
		c-3.5,2-6.7,4.3-9.8,6.8c-7,5.8-13,12.7-18.9,19.6C584.3,373.4,586.1,375.1,587.1,373.9L587.1,373.9L587.1,373.9z"/>
	<path d="M705.1,286.5c7.3-8.6,18.9-11.9,26.3-20.3c6.6-7.5,9.5-17.4,14.1-26.1c2.6-4.8,5.8-9.3,10.4-12.3c1.3-0.9,0.1-3-1.3-2.2
		c-8.5,5.5-12.4,15.1-16.4,24c-2.1,4.6-4.2,9.1-7.3,13.2c-3.4,4.5-8,7.6-12.6,10.5c-5.3,3.4-10.9,6.6-15,11.5
		C702.3,285.9,704.1,287.7,705.1,286.5L705.1,286.5L705.1,286.5z"/>
	<path d="M764.4,217.9c14.1-20.8,31.9-38.7,50.4-55.6c18.5-16.9,37.8-33,55.4-50.9c9.8-9.9,19.1-20.4,27.3-31.7
		c1-1.3-1.2-2.6-2.2-1.3c-14.8,20.4-33.1,37.9-51.8,54.7c-18.7,16.8-37.8,33-55,51.2c-9.6,10.1-18.6,20.8-26.4,32.4
		C761.3,218,763.5,219.3,764.4,217.9L764.4,217.9L764.4,217.9z"/>
	<path d="M527.8,583.5l71.5-92c11.9-15.3,23.8-30.7,35.7-46s22.8-29.1,36-42c13-12.6,26.3-24.7,38.7-37.9s24-26.5,35.6-40.1
		c23.2-27.4,45.6-55.4,69.8-81.9s50.6-52.9,77.7-77.4c3.4-3,6.8-6.1,10.2-9.1c1.2-1.1-0.6-2.8-1.8-1.8
		c-27.4,24.2-53.7,49.7-78.6,76.5c-24.6,26.4-47.5,54.3-70.7,82c-23,27.5-46.6,54.2-72.8,78.7c-6.8,6.4-13.6,12.8-20,19.7
		c-6.2,6.8-12,13.8-17.7,21c-11.8,15-23.4,30.1-35.1,45.1l-71.5,92l-8.9,11.4C525,583,526.8,584.8,527.8,583.5L527.8,583.5
		L527.8,583.5z"/>
	<path d="M909.5,149.9c10.8-14.1,21.8-29,26.6-46.4c2.5-8.9,2.8-18.2,1.2-27.3c-0.9-4.8-2.2-9.4-3.9-13.9c-0.8-2.3-1.8-4.5-2.7-6.7
		c-0.8-1.9-1.6-3.9-3-5.4c-1.5-1.6-3.6-2.2-5.7-1.5c-2.3,0.8-3.9,2.7-5.5,4.5c-3.9,4.6-7.8,9.1-11.7,13.6c-1,1.2,0.7,3,1.8,1.8
		l9.8-11.4c1.8-2.1,6.2-8.8,9.4-5.4c1.3,1.4,2,3.5,2.8,5.2c0.9,2.1,1.8,4.2,2.5,6.3c1.6,4.3,2.8,8.8,3.7,13.3
		c1.6,8.6,1.2,17.3-1,25.8c-2.2,8.1-5.8,15.6-10.1,22.8c-4.9,8.2-10.6,15.8-16.4,23.4C906.3,149.9,908.5,151.2,909.5,149.9
		L909.5,149.9L909.5,149.9z"/>
	<path d="M70.4,462c-1.1-8.8,1.9-17.4,8.3-23.6c3.2-3.1,7-5.5,11.1-7.2c2.1-0.8,4.3-1.5,6.6-1.9s4.3-1.5,6.2-2.6
		c2-1.2,3.7-2.8,4.8-4.9c1.2-2.3,2.3-4.6,3.4-6.9c2.1-4.5,4.4-9.3,8.5-12.4c8.1-6.1,19-7,28.5-4.1c5.1,1.5,9.7,4.2,14.2,6.9
		s9.2,5.9,13.9,8.7s9.6,5.3,14.7,7.2c5.9,2.2,11.9,4.2,17.8,6.2c23.6,8,47.4,15.4,70.9,23.5c11.7,4,23.4,8.3,34.9,12.9
		c5.9,2.3,11.7,4.8,17.5,7.3s11,5.5,16.8,7.5c2.6,0.9,5.3,1.5,8,1.5c1.6,0,1.6-2.5,0-2.5c-6.3,0-11.9-3.3-17.5-5.9
		s-11.5-5.1-17.2-7.5c-11.6-4.8-23.5-9.2-35.4-13.4c-23.9-8.4-48.1-15.9-72.1-24c-6-2-12.1-4.1-18.1-6.2c-5.6-2-11-4.1-16.2-7
		c-9.5-5.3-18.2-12.4-28.4-16.4c-9.2-3.7-19.9-3.9-29,0.4c-4.6,2.2-8.2,5.5-10.8,9.8s-4.3,9.4-6.9,13.8c-1.3,2.1-3.6,3.5-5.8,4.6
		s-4.3,1.3-6.5,1.9c-4.4,1.3-8.6,3.3-12.2,6c-6.9,5.2-11.7,12.9-12.6,21.6c-0.2,2.2-0.2,4.5,0.1,6.7C68.2,463.6,70.7,463.6,70.4,462
		L70.4,462L70.4,462z"/>
	<path d="M361.4,482.4l17.4,3.9c1.6,0.3,2.2-2.1,0.7-2.4l-17.4-3.9C360.5,479.7,359.9,482.1,361.4,482.4L361.4,482.4z"/>
	<path d="M76.7,466.1c8.9,4,18.3,6.9,27.9,8.5c4.8,0.8,9.7,1.2,14.6,1.4s9.5-0.2,14.3-0.5s9.4-0.3,13.7,1.5s7.3,5,10.1,8.3
		c5.9,7,11.6,14.2,16.6,21.9c4.8,7.4,8.8,15.5,10.6,24.2c2.1,9.9,0.7,20-2,29.7c-1.4,4.9-3.4,9.7-4.1,14.8
		c-0.6,4.6,0.5,8.9,2.8,12.9s5.4,7.5,8.2,11c3.1,3.8,6.2,7.5,9.4,11.2c12.9,14.8,26.8,28.8,41.5,41.8c1.8,1.6,3.7,3.2,5.5,4.8
		c1.2,1,3-0.7,1.8-1.8c-14.9-12.8-29.1-26.5-42.2-41.1c-6.6-7.3-13.1-14.8-19.1-22.6c-2.7-3.5-5.3-7.6-5.6-12.2
		c-0.4-5.1,1.8-10.1,3.2-14.9c2.9-9.6,4.9-19.8,3.6-29.8c-1.1-8.8-4.4-17.1-8.9-24.7c-4.4-7.6-10.1-15-15.8-22
		c-2.8-3.5-5.5-7.1-8.9-10s-7.4-4.7-11.9-5.3s-9.3-0.1-13.9,0.2c-4.9,0.3-9.8,0.2-14.8-0.2c-9.8-0.8-19.5-3-28.7-6.4
		c-2.3-0.9-4.6-1.8-6.8-2.8C76.5,463.3,75.2,465.5,76.7,466.1L76.7,466.1L76.7,466.1z"/>
	<path d="M302.5,827c6.7-8.7,15.4-15.7,22.9-23.7c7-7.6,13.4-15.8,19.4-24.2c12.2-17,23-34.9,35.2-51.8c6.9-9.5,14.3-18.6,22.6-26.9
		c1.1-1.1-0.6-2.9-1.8-1.8c-14.7,14.7-26.5,31.9-37.9,49.2c-11.5,17.4-22.8,35.1-36.6,50.8c-4,4.5-8.2,8.7-12.5,12.8
		c-4.6,4.4-9.1,8.8-13,13.8C299.7,826.5,301.5,828.2,302.5,827L302.5,827L302.5,827z"/>
	<path d="M468,732.2c2.3-5.2,6.1-9.4,10.1-13.4c4.5-4.6,9.1-9.1,13.7-13.7c9.1-9,18.4-17.9,27.7-26.7c5.3-5,10.7-10,16.1-14.9
		c1.2-1.1-0.6-2.9-1.8-1.8c-19.3,17.7-38.1,35.8-56.5,54.4c-4.4,4.4-8.9,9-11.4,14.9C465.2,732.5,467.3,733.7,468,732.2L468,732.2
		L468,732.2z"/>
	<path d="M218.8,765.7c-4.7-2.5-7.4-8.1-6.2-13.3c1.4-5.5,6.2-9.3,10.5-12.6c10.6-7.9,20.3-16.6,29.4-26.1
		c5.3-5.5,10.4-11.1,15.5-16.7c1.1-1.2-0.7-3-1.8-1.8c-9.6,10.5-19.3,21.1-29.9,30.6c-5.1,4.6-10.6,8.7-16.1,12.9
		c-4.5,3.5-9.1,7.7-10.2,13.4c-1.2,6.1,1.9,12.7,7.4,15.6C218.9,768.6,220.2,766.5,218.8,765.7L218.8,765.7L218.8,765.7z"/>
	<path d="M254.4,669.4c7.4,6.8,13.6,14.7,18.6,23.3c0.8,1.4,3,0.1,2.2-1.3c-5.1-8.9-11.5-16.9-19-23.8
		C255,666.6,253.2,668.3,254.4,669.4L254.4,669.4L254.4,669.4z"/>
	<path d="M224.6,771.1c10.7,6.1,20.7,13.5,29.6,21.9c4.5,4.2,8.7,8.7,12.6,13.4c3.7,4.4,7.1,9,10.8,13.3c4.2,4.8,8.9,9.3,14.5,12.5
		c1.4,0.8,2.7-1.4,1.3-2.2c-10.2-5.7-16.8-15.6-24-24.5c-7.7-9.4-16.5-17.9-26.2-25.2c-5.5-4.2-11.3-8-17.3-11.4
		C224.4,768.1,223.2,770.3,224.6,771.1L224.6,771.1L224.6,771.1z"/>
	<path d="M406.8,692.3c-0.3-2.6,3-3.1,4.9-2.3c2.5,1.1,4.6,3.4,6.6,5.2c4.5,4.1,9.3,8,13.4,12.6c6.2,6.8,10.8,14.9,17.3,21.4
		c3.5,3.5,7.7,6.4,12.5,8c1.5,0.5,2.2-1.9,0.7-2.4c-9.4-3.2-15.4-11.7-21.1-19.3c-3.1-4.1-6.2-8.3-9.9-11.9
		c-4.6-4.6-9.6-9-14.6-13.2c-2.1-1.8-4.8-3.7-7.7-3.2c-2.5,0.4-4.8,2.5-4.5,5.2C404.5,693.9,407,693.9,406.8,692.3L406.8,692.3
		L406.8,692.3z"/>
	<path d="M540.7,656.9c1.3-5-1.7-9.6-5.2-12.9c-1.9-1.8-3.9-3.3-5.7-5.1c-1.9-1.9-3.6-4.1-5.1-6.3c-3.3-4.8-6.2-9.7-9.3-14.6
		l-4.7-7.5c-1.3-2-3.6-4.8-2.7-7.3c0.8-2.5,3.7-4,5.6-5.5l8.1-6c1.3-1,0-3.1-1.3-2.2l-7.3,5.5c-2,1.5-4.2,2.9-5.9,4.8
		c-1.5,1.8-2.3,3.9-1.8,6.2c0.6,2.7,2.6,5.2,4.1,7.5c3.2,5.1,6.5,10.3,9.7,15.4c3,4.7,6,9.4,10.1,13.2s10.4,8,8.8,14.3
		C537.9,657.8,540.3,658.4,540.7,656.9L540.7,656.9L540.7,656.9z"/>
	<path d="M14,486.2c16.1-5.6,33.7-3.4,50-8.2c4.4-1.3,8.7-3.2,12.5-5.8c1.3-0.9,0.1-3.1-1.3-2.2c-14.1,9.4-31.9,8.2-48,10.5
		c-4.7,0.7-9.4,1.7-13.9,3.2C11.8,484.3,12.5,486.7,14,486.2L14,486.2L14,486.2z"/>
</g>
<g id="Nelson_Madela">
	<g id="Layer_4" class="st1">
		<g>
			<line class="st2" x1="294.7" y1="836.1" x2="265.2" y2="869.8"/>
			<polyline class="st2" points="208.6,750.3 174.5,790 165.2,782.1 140.8,809 126.4,832.2 95.2,877.3 			"/>
			<polyline class="st2" points="83.5,473 77.2,473 79.3,481.5 57.9,487.8 53.3,480.4 13.5,488 			"/>
			<polyline class="st2" points="124.8,394.7 112.5,387 105.3,385.1 92.4,381.9 80.2,369.7 97.7,341.1 124.8,355.8 			"/>
			<polyline class="st2" points="127.2,393.9 129.7,387.5 175.6,336.2 232.5,264.5 			"/>
			<polyline class="st2" points="105.3,385.1 134.1,339.9 163.8,349.3 			"/>
			<polyline class="st2" points="167.2,407.5 226.3,341.1 274.7,273.8 			"/>
			<line class="st2" x1="175.6" y1="336.2" x2="220.9" y2="347.1"/>
			<line class="st2" x1="243.8" y1="433.6" x2="364.2" y2="299.6"/>
			<polyline class="st2" points="226.3,341.1 258.1,352.3 253.4,356.8 286,386.6 			"/>
			<polyline class="st2" points="275.3,446.2 312.6,417.5 342.4,393.9 400.5,341.6 422.6,319.1 			"/>
			<line class="st2" x1="310.7" y1="460.3" x2="456.7" y2="337.1"/>
			<line class="st2" x1="447.1" y1="430.7" x2="405.9" y2="380"/>
			<path class="st2" d="M352,296.5l10.6-25.6l8.1-29.9c0,0,11.5-36.4,13.1-38s10.5-30.6,10.5-30.6"/>
			<polyline class="st2" points="357.4,167.2 347.5,195.3 325.3,248.8 304,285.1 			"/>
			<polyline class="st2" points="302.2,161.2 267.7,241.7 274.7,241.7 265.6,260.2 256.2,256.8 252.6,269.8 			"/>
			<line class="st2" x1="245.9" y1="158.1" x2="220.9" y2="266.2"/>
			<polyline class="st2" points="402.8,310.1 411.4,294.5 451.9,189 459.4,189.7 481.9,55.4 			"/>
			<polyline class="st2" points="400.4,174.7 422.6,105.2 447.8,22.9 			"/>
			<polyline class="st2" points="352,166.6 352,148.8 361.1,148.8 361.1,143.8 378.7,91 401.1,1.3 			"/>
			<polyline class="st2" points="422.6,105.2 405.9,102.5 378.7,91 			"/>
			<polyline class="st2" points="315.3,161.2 318.6,143.8 330.7,115.8 338.1,77.1 353.6,27.9 			"/>
			<polyline class="st2" points="639.9,178.6 649.4,23.5 693,38.7 855.7,86.2 968.1,0 			"/>
			<polyline class="st2" points="855.4,10.4 809.1,47.2 755.6,29.8 743.1,12.1 728.3,24 717.8,46 			"/>
			<line class="st2" x1="749.3" y1="20.9" x2="767" y2="7.1"/>
			<polyline class="st2" points="-4.8,278.8 30.6,300.2 52.7,273.8 39.3,266.2 47.7,250.5 53.9,219.6 			"/>
			<polyline class="st2" points="11,134.6 53.9,130.5 59.3,85 55.2,85 56,70.9 39.3,65 53.9,3.4 			"/>
			<polyline class="st2" points="116.8,35.8 115.2,56.3 108.9,85 105.3,91 102.5,136.3 139.6,142.1 202.6,150.7 245.9,158.1 
				286,159.5 357.4,167.2 394.2,172.5 427.9,184.4 388.4,304.5 			"/>
			<polyline class="st2" points="48.6,131.1 46.4,161.2 19.3,215.5 33.9,222.1 34.7,217.1 53.9,219.6 100.9,232.8 118.3,238.6 
				164.5,262 181,266.5 184.5,265.5 202.3,266.5 220.9,266.2 230.4,264.5 252.6,269.8 269.8,272.1 304,285.1 335.9,292 370.7,301.7 
				388.4,304.5 402.8,310.1 453.8,335.9 475.6,343.8 505.8,362.7 517.5,345.6 563.1,293.6 636,186 639.9,178.6 645.2,181.8 
				653.2,161.2 681.9,172.5 672.1,196.6 737.6,244.2 			"/>
			<line class="st2" x1="139.6" y1="142.1" x2="118.3" y2="238.6"/>
			<polyline class="st2" points="170.6,146.3 187.7,72.5 201,75 210.6,30.8 194.4,30.8 195.2,15.4 			"/>
			<line class="st2" x1="534.7" y1="326" x2="588.9" y2="365.1"/>
		</g>
	</g>
	<g id="Layer_3">
		<g>
			<line class="st2" x1="90.6" y1="433.3" x2="75.6" y2="458.2"/>
			<polyline class="st2" points="83.5,473 84.5,465.4 99.3,437.9 119.2,415.4 123.7,407.6 129.7,394.7 			"/>
			<line class="st2" x1="122.4" y1="400.1" x2="127.2" y2="400.1"/>
			<polyline class="st2" points="120.4,444 138.8,419.6 150.5,401.8 			"/>
			<polyline class="st2" points="104.1,432.4 109.7,438 122.4,445.1 132.5,449.6 141.7,454.7 168.9,489.9 181.2,507.5 194.7,553.5 
				207.9,547.5 234.8,529.9 			"/>
			<polyline class="st2" points="92.4,467.1 102.5,448.2 109.7,438 			"/>
			<line class="st2" x1="126.4" y1="474.1" x2="94.2" y2="463.8"/>
			<line class="st2" x1="134.7" y1="470.8" x2="146.9" y2="461.5"/>
			<line class="st2" x1="146.9" y1="478.3" x2="139.6" y2="467.1"/>
			<polyline class="st2" points="144.4,411.2 165.6,419.9 171.7,425.4 176.6,433.9 184.7,442.8 195.6,452.6 			"/>
			<polyline class="st2" points="205,420.4 194.7,455.7 191.7,462.6 187.5,469 168.9,489.9 			"/>
			<polyline class="st2" points="156.7,474.1 177.9,449.3 194.6,430.7 202,430.7 			"/>
			<polyline class="st2" points="193.4,416.5 187.9,424.5 176.6,433.9 152,467.1 145,459.1 152.9,450.9 162.9,438 			"/>
			<polyline class="st2" points="187.5,469 172.4,455.7 164.6,450.1 158.3,444 			"/>
			<line class="st2" x1="191.7" y1="462.6" x2="177.9" y2="449.3"/>
			<line class="st2" x1="152.9" y1="414.7" x2="132.5" y2="449.6"/>
			<line class="st2" x1="146.9" y1="441.8" x2="140" y2="436.8"/>
			<line class="st2" x1="179.1" y1="461.5" x2="162.4" y2="481.5"/>
			<polyline class="st2" points="222,426.2 216,452.4 207.6,467.1 196.7,479.7 185.9,487.1 174,497.2 			"/>
			<polyline class="st2" points="179.1,478.3 185.9,487.1 193.4,503.4 212.3,561.1 220.6,580.6 244.1,623.4 262,659.5 			"/>
			<polyline class="st2" points="218.8,618.5 258.5,665.6 293.5,701.5 342.9,756.1 			"/>
			<polyline class="st2" points="174.5,509 214.5,497.2 239.5,489.9 264.6,484 275.4,484 286.2,509 295.8,538.6 319,567.2 
				342.9,593 370.5,624.1 409.7,671.2 			"/>
			<polyline class="st2" points="285.2,827.2 314.3,793.8 353.4,742.9 387.4,697.7 439.9,636.8 481.1,583.8 504.1,557.8 
				510.2,548.5 543.9,509.8 561.7,493 565,485.2 578.1,469.7 595,459.9 610.7,447.2 623.6,423.1 717.8,328.4 794,253.7 			"/>
			<polyline class="st2" points="695.1,376.9 703,360.1 717.8,347.9 730.9,330.8 755.6,306.4 			"/>
			<polyline class="st2" points="238.6,431.9 234,447.5 223.6,472.7 219.2,480.3 224.8,494.2 228.5,512.4 241.7,552.7 			"/>
			<polyline class="st2" points="177.5,572.1 220.6,558.5 326.7,530.4 381.8,515.4 397.5,513.8 403.3,511.2 413.9,502.5 427.9,491 
				455.8,470.7 485.4,446.1 497.1,436.2 534.1,409.5 544.6,399.9 			"/>
			<polyline class="st2" points="212.3,422.9 208.4,442.8 199.2,462.6 222,475.5 			"/>
			<polyline class="st2" points="246.1,434.6 239.5,460.6 240.7,470.8 245.4,481.5 			"/>
			<line class="st2" x1="230.4" y1="478.3" x2="240.5" y2="469"/>
			<line class="st2" x1="234.9" y1="484" x2="243.4" y2="476.9"/>
			<polyline class="st2" points="196.7,479.7 200.4,484.6 206.3,499.6 210.6,517.1 217.6,541.2 			"/>
			<polyline class="st2" points="207.3,478.3 212.1,489.2 214.5,497.2 219.8,514.8 222,525.6 234,555 			"/>
			<polyline class="st2" points="256.6,438.7 253.4,461.5 260.6,519.8 267.2,546.2 			"/>
			<polyline class="st2" points="264.6,484 276.3,514 286,541.2 			"/>
			<path class="st2" d="M233.2,526.7c0.7,0,27.4-6.9,27.4-6.9l15.6-5.8l9.9-4.9l11.9-1.7l4.4,2.5l3.9,26.1"/>
			<polyline class="st2" points="290,452 291,469 295.1,481.3 			"/>
			<polyline class="st2" points="306.3,458.5 316.7,515 318.9,532.5 			"/>
			<line class="st2" x1="218.6" y1="441.1" x2="234" y2="447.5"/>
			<line class="st2" x1="230.4" y1="429.1" x2="227.1" y2="444.6"/>
			<polyline class="st2" points="199.9,438 208.4,442.8 217.1,447.5 			"/>
			<polyline class="st2" points="252,522 247.3,502.4 239.5,489.9 230.4,478.3 223.6,472.7 			"/>
			<line class="st2" x1="226.6" y1="502.9" x2="244.6" y2="498"/>
			<polyline class="st2" points="248,505.3 228.5,512.4 186.2,524.3 			"/>
			<line class="st2" x1="242.9" y1="524.3" x2="237.8" y2="509"/>
			<polyline class="st2" points="247.3,502.4 258.2,500.4 266.1,501.4 272.1,515.5 280.1,542.7 			"/>
			<line class="st2" x1="316.7" y1="462.6" x2="320.4" y2="480.5"/>
			<polyline class="st2" points="333.3,469.3 333.9,473.6 354.8,522.8 			"/>
			<line class="st2" x1="338.4" y1="527.2" x2="331.8" y2="489.9"/>
			<line class="st2" x1="316.7" y1="515" x2="336.1" y2="514"/>
			<line class="st2" x1="349.9" y1="479.3" x2="366" y2="519.7"/>
			<polyline class="st2" points="362.5,473.6 357.4,476.9 381.8,515.4 			"/>
			<polyline class="st2" points="340.1,488 352,484.6 359.6,480.5 			"/>
			<line class="st2" x1="340.2" y1="475.5" x2="335.3" y2="476.9"/>
			<line class="st2" x1="389.3" y1="478.3" x2="413.9" y2="502.5"/>
			<line class="st2" x1="382.8" y1="483.2" x2="397.5" y2="494.5"/>
			<line class="st2" x1="399.2" y1="470.8" x2="420.2" y2="497.3"/>
			<polyline class="st2" points="408.3,464 427.9,491 445.5,516.7 			"/>
			<polyline class="st2" points="411.3,504.7 447.1,546.2 481.1,583.8 502.1,605.9 			"/>
			<polyline class="st2" points="543.9,509.8 519.9,508 495.8,509.7 435.9,517.6 426.9,522.8 			"/>
			<polyline class="st2" points="446,477.8 465.6,498.7 470.5,504.7 474,512.6 			"/>
			<polyline class="st2" points="451.9,507 465.6,498.7 499.3,473.6 552.4,432.9 573.6,418.6 589.3,403.1 			"/>
			<polyline class="st2" points="549.5,396.8 561.3,413.6 594.7,427.7 611.4,425.6 627.6,406 643.1,392.5 649.4,383.4 675.4,355.4 
				743.1,285.5 799.8,228 817.6,210.1 835.8,189 855.7,167.7 890.2,135 894.2,129.1 911.1,111.3 931.6,92.7 			"/>
			<polyline class="st2" points="930.1,78.1 886.3,121.2 829,181.6 			"/>
			<line class="st2" x1="822.7" y1="175.6" x2="835.8" y2="189"/>
			<line class="st2" x1="847.4" y1="176.6" x2="858.7" y2="189.7"/>
			<line class="st2" x1="855.7" y1="167.7" x2="867.5" y2="181.6"/>
			<polyline class="st2" points="891,160 885.1,153.9 922.1,125.4 911.1,111.3 			"/>
			<line class="st2" x1="890.2" y1="135" x2="898.2" y2="143.8"/>
			<polyline class="st2" points="894.2,129.1 886.3,121.2 879.5,112.7 874.5,102.5 			"/>
			<polyline class="st2" points="927.2,66.2 909,79.3 894.2,94.6 877.5,108.6 862.8,115.8 			"/>
			<polyline class="st2" points="819.1,193.2 804.2,206.9 780.7,227 725.4,275.8 697.5,303.6 674.3,322.4 656.8,339.6 648.7,349.8 
				631.6,366 610.4,385.5 			"/>
			<polyline class="st2" points="627.6,406 607.2,381.3 603,378.8 590.3,381.8 556,406 			"/>
			<polyline class="st2" points="585.9,423.9 602.6,404.8 617.3,393.5 			"/>
			<line class="st2" x1="623.6" y1="423.1" x2="617.3" y2="418.6"/>
			<line class="st2" x1="648.4" y1="398.2" x2="643.1" y2="392.5"/>
			<polyline class="st2" points="603,378.8 617.3,369.5 641.5,348.1 645.7,341 			"/>
			<line class="st2" x1="649.4" y1="383.4" x2="627" y2="360.8"/>
			<polyline class="st2" points="653.8,343.4 655.9,347.7 648.4,366.7 632.2,382 			"/>
			<line class="st2" x1="656.8" y1="339.6" x2="675.4" y2="355.4"/>
			<polyline class="st2" points="697.5,303.6 709.3,320.4 717.8,328.4 			"/>
			<polyline class="st2" points="743.1,285.5 752.4,294.5 789.8,238.2 780.7,227 772.6,218.2 			"/>
			<line class="st2" x1="799.8" y1="228" x2="809.1" y2="237.5"/>
			<line class="st2" x1="817.6" y1="210.1" x2="826.6" y2="219.3"/>
			<line class="st2" x1="833.2" y1="192.1" x2="844.3" y2="202.9"/>
			<polyline class="st2" points="472.3,456.9 481.9,470.8 488.1,481.9 			"/>
			<polyline class="st2" points="481.2,449.5 488.8,458.4 499.3,473.6 519.5,494.1 525.5,499 539.6,504.7 549.3,504.7 			"/>
			<polyline class="st2" points="562.3,491.5 550.3,490.3 529.7,489.3 519.5,494.1 			"/>
			<polyline class="st2" points="565,485.2 560.1,481.9 549.5,480.4 527.9,482.8 514.3,462.1 			"/>
			<polyline class="st2" points="573.6,418.6 576.4,426.3 575,436.5 562.3,449.5 556,455 521.4,472.9 			"/>
			<polyline class="st2" points="578.1,469.7 589.3,447.3 596.7,441 601.6,434.7 			"/>
			<line class="st2" x1="575" y1="436.5" x2="585.9" y2="454.2"/>
			<polyline class="st2" points="493.6,477.8 503.3,495.2 506.3,509 			"/>
			<polyline class="st2" points="488.8,458.4 499.1,450.9 538.2,415.4 			"/>
			<line class="st2" x1="510" y1="465.4" x2="499.1" y2="450.9"/>
			<line class="st2" x1="540.2" y1="514.1" x2="554.5" y2="524.1"/>
			<line class="st2" x1="532.6" y1="522.8" x2="546.2" y2="532.2"/>
			<line class="st2" x1="520.6" y1="536.6" x2="535.5" y2="544.9"/>
			<line class="st2" x1="515.3" y1="542.6" x2="529.3" y2="551.5"/>
			<line class="st2" x1="510.2" y1="548.5" x2="524.8" y2="557.7"/>
			<line class="st2" x1="504.1" y1="557.8" x2="518.6" y2="567.2"/>
			<polyline class="st2" points="495.8,509.7 495.8,517.6 491.6,531.4 490.2,539.4 488.1,544.9 480.2,555.3 467.3,568.5 			"/>
			<line class="st2" x1="452.4" y1="552.1" x2="492.1" y2="529.6"/>
			<polyline class="st2" points="461.5,531.4 469.1,542.6 479.4,556.1 485.9,562.5 494.4,568.9 			"/>
			<polyline class="st2" points="510.2,508.7 506.3,554.4 496.6,550.1 488.1,544.9 			"/>
			<line class="st2" x1="196.7" y1="566.1" x2="204" y2="583.2"/>
			<polyline class="st2" points="180.2,571.3 205.8,600.8 212.7,612.2 210.1,621.4 			"/>
			<line class="st2" x1="197.4" y1="608" x2="205.8" y2="600.8"/>
			<line class="st2" x1="187.6" y1="597.6" x2="196.4" y2="590"/>
			<line class="st2" x1="223.8" y1="636" x2="229.7" y2="631.4"/>
			<polyline class="st2" points="232.7,635 237.1,629.6 222.5,612.9 			"/>
			<path class="st2" d="M256.8,663.6c1.4-1.4,14.7-10.8,14.7-10.8l44.6-36.2l26.7-23.6l10.2-7.1l14.2-8.2l19.9-14.3l41.9-38"/>
			<polyline class="st2" points="304.5,549.3 329,542.7 347.1,537.3 359.6,529.6 			"/>
			<line class="st2" x1="357.4" y1="522" x2="361.1" y2="534.7"/>
			<polyline class="st2" points="319,567.2 362.7,533.3 379.1,525.3 			"/>
			<polyline class="st2" points="397.5,513.8 405.3,527.2 387.7,544 361.1,557.2 353.6,562.6 332.8,582.2 305.5,605.9 			"/>
			<polyline class="st2" points="387.4,697.7 359.6,666.1 298.4,597.6 285.2,568.9 			"/>
			<polyline class="st2" points="220.6,558.5 233.2,583.9 247.3,611.3 264.6,644.9 271.5,652.8 281.9,663.6 353.4,742.9 			"/>
			<polyline class="st2" points="287,640.3 332.9,691.5 366.1,726.1 			"/>
			<polyline class="st2" points="347.8,652.8 320.1,677.2 306.8,691.2 293.5,701.5 283.7,710.8 273.6,718.7 266.4,724.3 249.6,740 
							"/>
			<polyline class="st2" points="241.2,786.3 244.8,782.8 311.5,721.4 			"/>
			<line class="st2" x1="273.6" y1="718.7" x2="291.3" y2="740"/>
			<line class="st2" x1="283.7" y1="710.8" x2="301.2" y2="730.9"/>
			<polyline class="st2" points="283,690.7 254.1,715.5 235.2,732.9 229.8,740 217.6,750.2 213.2,755.1 			"/>
			<polyline class="st2" points="259.7,769.1 256.8,764 238,750.2 225.5,760.8 			"/>
			<polyline class="st2" points="232.2,777.9 234.8,773.3 249.6,758.7 			"/>
			<line class="st2" x1="225.5" y1="771.6" x2="229.7" y2="766.4"/>
			<line class="st2" x1="218.1" y1="764.7" x2="223.3" y2="757.8"/>
			<polyline class="st2" points="286.4,825.7 244.8,782.8 234.8,773.3 217.6,750.2 			"/>
			<polyline class="st2" points="314.3,793.8 301.2,782 288.1,764 277.2,753 			"/>
			<polyline class="st2" points="322.8,624.9 295.2,649.5 281.9,663.6 			"/>
			<polyline class="st2" points="288.1,670.5 301.2,656.1 312.5,646.6 332.7,636 365.5,618.5 			"/>
			<line class="st2" x1="264" y1="671.2" x2="278.8" y2="660.4"/>
			<line class="st2" x1="267.5" y1="682.1" x2="285.2" y2="667.2"/>
			<line class="st2" x1="278.8" y1="686.4" x2="292.4" y2="675.3"/>
			<polyline class="st2" points="294.1,677.1 307.3,662.9 336.3,640 			"/>
			<polyline class="st2" points="286.4,694.2 300.3,684 314.1,670.5 341.2,645.5 370.5,624.1 391.7,604.4 403.3,593.8 408.4,586.4 
				427.2,564.7 447.1,546.2 452.9,538.4 461.5,531.4 467.3,527.5 470.3,520.1 470.3,513.1 			"/>
			<polyline class="st2" points="409,543.5 417.8,555.3 435.9,574.6 435.9,580.4 426.9,587.8 421.8,593.8 419.9,598.8 379.6,635 
				350.6,656 			"/>
			<polyline class="st2" points="353.7,659.5 326.6,684.4 312.7,697.7 300,708.7 			"/>
			<polyline class="st2" points="306.8,716.2 319.8,705.6 332.9,691.5 359.6,666.1 388,645.1 413.5,622.7 			"/>
			<line class="st2" x1="406.1" y1="611.2" x2="430.9" y2="647.2"/>
			<line class="st2" x1="416.2" y1="602.1" x2="439.9" y2="636.8"/>
			<polyline class="st2" points="404.6,630.5 418.5,647.2 426.1,652.8 435.9,661.8 469.4,701.1 			"/>
			<polyline class="st2" points="413,668 454.3,716.2 467.8,702.4 533.3,645.3 			"/>
			<polyline class="st2" points="505.9,610.6 474.2,639.3 442.4,669.5 427.2,684.7 			"/>
			<polyline class="st2" points="397.5,636.8 419.6,660.4 434.8,677.1 461.7,708.7 			"/>
			<polyline class="st2" points="439.9,699.4 454.9,684.1 520,628.5 			"/>
			<polyline class="st2" points="526.6,636.8 494.7,664.9 462.3,692.8 			"/>
			<polyline class="st2" points="449,677.1 480.8,647.6 512.9,619.4 			"/>
			<polyline class="st2" points="498.5,602.1 467.1,630.5 487.2,656.5 501.2,673.2 			"/>
			<line class="st2" x1="434.4" y1="660.4" x2="467.1" y2="630.5"/>
			<line class="st2" x1="445.2" y1="630" x2="454.7" y2="641.9"/>
			<line class="st2" x1="490.9" y1="594.1" x2="450.6" y2="636.8"/>
			<line class="st2" x1="377.6" y1="652.8" x2="401.9" y2="680.9"/>
			<line class="st2" x1="369.9" y1="658.6" x2="395.6" y2="688.2"/>
			<polyline class="st2" points="438.1,535.8 417.8,555.3 406.1,566 391,585.1 382.7,594.4 369.9,605.2 361.4,613.8 			"/>
			<line class="st2" x1="353.1" y1="585.8" x2="369.9" y2="605.2"/>
			<polyline class="st2" points="367.3,577.6 374.9,587.2 382.7,594.4 391.7,604.4 			"/>
			<polyline class="st2" points="387.2,563.3 398.2,576 408.4,586.4 			"/>
			<line class="st2" x1="335.1" y1="599.9" x2="353.7" y2="624.9"/>
			<line class="st2" x1="326" y1="628.5" x2="345.5" y2="613.8"/>
			<line class="st2" x1="387.7" y1="544" x2="396" y2="555.3"/>
			<polyline class="st2" points="421.1,532.5 403.3,511.2 395.8,504.1 371.2,491.5 366,491.5 356.4,495.5 344.3,498 			"/>
			<polyline class="st2" points="401.6,520.9 378.4,533.6 375.1,527.2 			"/>
			<line class="st2" x1="356.4" y1="538.2" x2="361.1" y2="557.2"/>
			<polyline class="st2" points="326.7,530.4 329,542.7 331.8,551.5 			"/>
			<polyline class="st2" points="231.3,555.7 244.8,573.2 257.6,588.6 277.5,610.6 280.1,626.1 289.6,638.2 			"/>
			<line class="st2" x1="307.7" y1="608" x2="281.9" y2="628.3"/>
			<line class="st2" x1="285.2" y1="632.5" x2="269.8" y2="640.3"/>
			<line class="st2" x1="260.4" y1="636.8" x2="280.1" y2="626.1"/>
			<line class="st2" x1="247.3" y1="611.3" x2="267.8" y2="599.9"/>
			<polyline class="st2" points="244.1,605.2 255,599.8 262,593.5 			"/>
			<line class="st2" x1="239.9" y1="596.9" x2="257.6" y2="588.6"/>
			<line class="st2" x1="236.8" y1="591" x2="252" y2="581.8"/>
			<line class="st2" x1="233.2" y1="583.9" x2="247.3" y2="576.1"/>
			<line class="st2" x1="228.7" y1="574.8" x2="241.7" y2="568.9"/>
			<polyline class="st2" points="302,546.2 274.3,555.7 256.1,560.9 238.4,564.9 230.4,568.5 			"/>
			<polyline class="st2" points="252.4,550.1 256.1,560.9 263.6,581.8 			"/>
			<polyline class="st2" points="254.5,584.9 281.9,570.4 309.1,555 			"/>
			<polyline class="st2" points="271.4,545.1 274.3,555.7 281.9,570.4 			"/>
			<polyline class="st2" points="244.8,573.2 258.3,567.2 277.5,561.7 			"/>
			<polyline class="st2" points="288.8,576.8 307.7,570.4 317.3,565.2 			"/>
			<line class="st2" x1="277.5" y1="610.6" x2="298.4" y2="597.6"/>
			<line class="st2" x1="237.9" y1="641.1" x2="249.9" y2="635"/>
			<line class="st2" x1="255.5" y1="669.5" x2="259.3" y2="666.5"/>
			<line class="st2" x1="245.2" y1="658.6" x2="251.2" y2="656.9"/>
			<polyline class="st2" points="366,673.4 338.9,697.7 326.2,712.7 314.3,724.5 			"/>
			<polyline class="st2" points="320.6,731.4 332,719.2 346.1,705.2 372.5,680.8 			"/>
			<polyline class="st2" points="377.9,686.9 352,711.4 338.2,726.1 			"/>
			<line class="st2" x1="327.6" y1="739.2" x2="339.8" y2="727.8"/>
			<line class="st2" x1="334.6" y1="746.9" x2="347.4" y2="736.3"/>
			<polyline class="st2" points="345,733.5 358.1,717.7 381.2,690.7 			"/>
			<polyline class="st2" points="244.1,623.4 252,619.4 275.1,608 			"/>
			<polyline class="st2" points="248.6,632.5 256.1,628.3 278.3,615.4 			"/>
			<line class="st2" x1="238.4" y1="542.7" x2="264.6" y2="535.8"/>
			<polyline class="st2" points="255.6,549.3 252.4,539.1 250.4,532.5 			"/>
			<line class="st2" x1="202" y1="529.6" x2="213.4" y2="526.8"/>
			<polyline class="st2" points="414.3,489.9 422.8,484 460,456.9 			"/>
			<polyline class="st2" points="416.1,458.1 430.7,478.3 436.2,485 449,501.3 455.8,515 			"/>
			<polyline class="st2" points="527,378.8 517.5,389 499.2,403.1 483.3,418.6 463.4,440.1 448.5,454.2 424.3,469.4 			"/>
			<polyline class="st2" points="451.9,425.9 463.4,440.1 475.6,454.2 			"/>
			<line class="st2" x1="473.3" y1="429.5" x2="485.4" y2="446.1"/>
			<line class="st2" x1="483.3" y1="418.6" x2="497.1" y2="436.2"/>
			<polyline class="st2" points="534.7,386.7 528,403.1 491.8,429.5 			"/>
			<polyline class="st2" points="517.5,389 528,403.1 534.1,409.5 540.9,419.4 552.4,432.9 562.3,449.5 			"/>
			<polyline class="st2" points="525.2,579.7 528,570.8 548.9,547.8 580.9,516.7 			"/>
		</g>
	</g>
</g>
</svg>
