<?xml version="1.0" encoding="utf-8"?>
<!-- Generator: Adobe Illustrator 23.0.6, SVG Export Plug-In . SVG Version: 6.00 Build 0)  -->
<svg version="1.1" id="Layer_1" xmlns="http://www.w3.org/2000/svg" xmlns:xlink="http://www.w3.org/1999/xlink" x="0px" y="0px"
	 viewBox="0 0 550.9 1050" style="enable-background:new 0 0 550.9 1050;" xml:space="preserve">
<style type="text/css">
	.st0{fill:#FBBB0E;}
</style>
<g id="Capa_8">
	<path class="st0" d="M26.2,161.5c0.8,0.1,0.2,0.1,0.6,0.2c0.1,0,0-0.3-0.1-0.1c0-0.1,0.3-0.6,0.6-0.9c1.1-0.9,2.5-1.5,3.8-2
		c2.5-1.1,5.1-2.1,7.6-3.3c5.7-2.8,10-7.6,9.8-14.3c-0.1-3.6-1.1-7-2.3-10.3c-1.3-3.7-2.6-7.4-3.9-11.2c-1-2.9-2-5.7-0.3-8.5
		c1.5-2.5,3.9-4.4,5.8-6.6c4.4-4.8,6.9-11.1,7-17.6c0.1-3.4-0.8-6.5-1.6-9.8c-0.5-1.7-0.1-2.8,0.9-4.3s2-2.7,3.1-3.9
		c8.3-9.8,19-17.6,31-22.2c3.6-1.4,7.4-2.3,11-3.8s6.6-3.4,9.1-6.2c4.9-5.3,7.5-12.1,10-18.8l-1.1,1.5c0.7-0.5,0.1,0,0.1-0.1h-0.1
		c-0.1-0.1,0-0.1,0.2,0.1c0.2,0.3,0.4,0.3,0.5,0.7c0.3,1.5-1,3.3-1.6,4.5l-5.5,10.6c-1.8,3.5-3.6,7.1-5.5,10.6
		c-0.7,1.3-1.2,2.5-2.6,3.1c-1.5,0.7-3,1.1-4.3,2.2s-2.2,2.6-3.1,4c-0.9,1.5-1.9,3.1-2.8,4.7c-1.8,3.1-3.6,6.2-5.2,9.5
		c-3.3,6.4-6.1,13.1-7.6,20.2c-0.7,3.3-1.2,6.6-2.4,9.8c-1.1,2.9-3,5.2-5.1,7.4s-4.6,4.4-6.2,7.2c-0.8,1.5-1.4,3.1-0.8,4.7
		c0.3,0.9,1,1.6,1.7,2.1c0.5,0.3,1.2,0.5,1.6,0.8c-0.5-0.4,0.3-0.4-0.2,0.1c-0.4,0.5-0.7,0.9-1.2,1.3c-1.5,1.1-2.8,2.1-3.9,3.6
		c-1.8,2.5-2.2,5.7-2.4,8.7c-0.2,2.7,0,5.4-0.8,8c-0.3,1-0.7,2.1-1.3,2.9c-0.3,0.4-0.7,0.8-1.1,1c-0.6,0.4-1.4,0.5-1.9,1
		c-2.8,2.8-1.1,6.9-0.1,10.1c0.6,1.8,0.7,3.3,0.3,5.1c-0.5,2.1-1.1,4.3-1.7,6.4l-6.8,25.8l3.7-1.5c-2.9-1.8-4.7-5.3-4-8.7
		c0.3-1.3-0.4-2.7-1.8-3.1c-1.2-0.3-2.8,0.4-3.1,1.8c-1.1,5.6,1.4,11.4,6.3,14.4c1.4,0.8,3.3,0.1,3.7-1.5L59,172
		c1-4,2.8-8.4,2.1-12.5c-0.3-1.6-0.9-3.1-1.4-4.6c-0.4-1.3-0.8-2.3,0-3.4l-1.5,1.1c5.5-1.9,7.2-7.8,7.5-13.1c0.1-2.7,0-5.5,0.8-8.2
		c0.3-1.1,0.9-2,1.7-2.8c1.1-1,2.5-1.7,3.5-2.8c2.3-2.6,2.4-6.7-0.9-8.5c-0.1-0.1-1.1-0.6-1.1-0.5l0.1,0.3c0,0.3,0,0.3,0.1,0.1
		c0.1,0,0.5-0.9,0.6-1c0.7-1.1,1.6-2.1,2.5-3.1c2.1-2.2,4.4-4.3,6.2-6.7s3-5.4,3.8-8.4c0.8-3.2,1.3-6.4,2.1-9.5s1.9-6.3,3.1-9.3
		c2.6-6.2,5.9-12,9.3-17.8c0.8-1.4,1.7-2.8,2.5-4.2c0.7-1.2,1.4-2.2,2.8-2.8c1.4-0.6,2.8-1.1,4-2.1s2-2.4,2.7-3.8
		c3.5-6.6,6.9-13.3,10.3-19.9c1.6-3,4-6.7,2.6-10.3c-1-2.8-4.4-4.9-7.3-3.4c-1.5,0.8-1.9,2.4-2.5,3.9c-0.5,1.4-1,2.7-1.6,4
		c-1.1,2.5-2.4,5.1-3.9,7.4c-1.5,2.2-3.3,4.3-5.4,5.8c-2.5,1.8-5.5,2.8-8.4,3.8c-5.9,1.9-11.7,4.2-17.2,7.2s-10.3,6.6-14.9,10.7
		c-2.3,2.1-4.5,4.2-6.5,6.6s-4.2,4.6-5.6,7.2c-0.9,1.6-1.3,3.2-1.1,5s0.9,3.5,1.3,5.2c0.6,2.6,0.8,5.4,0.3,8.1s-1.4,5.5-2.8,7.9
		s-3.4,4.3-5.3,6.3s-3.9,4.3-4.8,7c-1.2,3.2-0.3,6.5,0.7,9.6c1.2,3.5,2.4,7,3.6,10.5c1,3,2.2,6.1,2.5,9.3c0.2,2.6-0.3,5.1-2,7.1
		c-1.6,1.8-3.8,3-5.9,4c-2.3,1.1-4.7,2-7,3c-2.6,1.2-5.8,2.7-6.7,5.7s1.1,6.1,4.3,6.4c1.4,0.1,2.5-1.2,2.5-2.5
		C28.7,162.6,27.5,161.7,26.2,161.5L26.2,161.5L26.2,161.5z"/>
	<path class="st0" d="M46.6,184.5c-0.1-3.5-0.6-7.1-1.7-10.5s-2.4-6.7-4.5-9.4c-2.2-3-5.6-3.8-9.1-2.9c-1.5,0.4-2.9,1.1-4.3,1.8
		c0,0-0.9,0.4-0.9,0.3c0.1-0.2,0.5,0.3,0.6,0.4c0.1,0.2,0.1,0.2,0,0.1c0-0.2,0-0.1,0,0.1c-0.1,0.1-0.4,0.7-0.1,0.3
		c1-0.9,0.9-2.6,0-3.5c-1-1-2.5-0.9-3.5,0c-3.1,2.8-0.7,7.9,3.3,7.7c2.9-0.2,5.7-3.2,8.6-2.3c1.1,0.4,1.8,1.7,2.4,2.8
		c0.8,1.5,1.5,3,2.1,4.6c1.2,3.4,1.9,7,2,10.6C41.7,187.7,46.7,187.7,46.6,184.5L46.6,184.5L46.6,184.5z"/>
	<path class="st0" d="M61.5,114.6c-0.5-0.2-0.9-0.5-1.3-0.8l2,1.6c-0.4-0.3-0.7-0.7-1-1.1l1.6,2c-0.4-0.5-0.6-1-0.9-1.6l1,2.4
		c-0.3-0.8-0.5-1.6-0.6-2.4l0.4,2.7c-0.1-1.1-0.1-2.2,0-3.3l-0.4,2.7c0.2-1.3,0.5-2.5,1-3.7l-1,2.4c2.2-5.1,5.7-9.6,7-15.1
		c1.3-5.8,0.8-11.7,1.5-17.6l-0.4,2.7c0.3-2.1,0.8-4.1,1.6-6l-1,2.4c1-2.3,2.3-4.4,3.8-6.4l-1.6,2c3.2-4.2,7.2-8.1,11.4-11.4l-2,1.6
		c0.9-0.7,1.8-1.2,2.8-1.7l-2.4,1c0.6-0.2,1.2-0.4,1.9-0.5l-2.7,0.4c0.4,0,0.8,0,1.2,0l-8.6-15c-3.6,7.5-6.9,15.3-9.6,23.2
		c-2.3,6.5-3.7,13.3-6.4,19.7l1-2.4c-1,2.4-2.2,4.7-3.8,6.7l1.6-2c-0.6,0.8-1.3,1.6-2.1,2.3c-3.8,3.6-3.9,10.5,0,14.1
		s10.1,3.9,14.1,0c6.1-5.9,9-14,11.3-21.9c2.3-7.8,4.9-15.5,8-23l-1,2.4c1.3-3.1,2.7-6.1,4.1-9.1c1.6-3.3,1.9-6.8,0-10.1
		s-5.1-4.8-8.6-5c-6.7-0.3-11.9,4-16.5,8.3c-3.7,3.4-7,7-9.9,11s-5,8.6-5.8,13.3c-0.5,3.1-0.7,6.1-0.8,9.2c-0.1,2.4-0.1,4.8-0.4,7.2
		l0.4-2.7c-0.3,1.9-0.8,3.7-1.5,5.5l1-2.4c-1.1,2.4-2.5,4.7-3.8,7c-1,1.8-1.8,3.7-2.5,5.6c-0.6,1.7-0.8,3.6-1,5.4
		c-0.7,6.8,2.5,14.7,8.9,17.8c2.5,1.2,5,1.8,7.7,1c2.3-0.6,4.8-2.4,6-4.6c1.2-2.3,1.8-5.1,1-7.7C65.4,118.2,63.9,115.7,61.5,114.6
		L61.5,114.6L61.5,114.6z"/>
	<path class="st0" d="M57.7,162v-0.5c0-1.4-0.2-2.7-0.9-3.9c-0.4-1.2-1.1-2.3-2.1-3.2c-0.9-1-2-1.7-3.2-2.1
		c-1.2-0.6-2.5-0.9-3.9-0.9l-2.7,0.4c-1.7,0.5-3.2,1.3-4.4,2.6l-1.6,2c-0.9,1.6-1.4,3.2-1.4,5.1v0.5c0,1.4,0.2,2.7,0.9,3.9
		c0.4,1.2,1.1,2.3,2.1,3.2c0.9,1,2,1.7,3.2,2.1c1.2,0.6,2.5,0.9,3.9,0.9l2.7-0.4c1.7-0.5,3.2-1.3,4.4-2.6l1.6-2
		C57.2,165.5,57.6,163.8,57.7,162L57.7,162z"/>
	<path class="st0" d="M56,173.9c0-6.6,0.4-13.2,1.2-19.7c0.2-1.8-1-4.1-2.2-5.3c-1.3-1.3-3.4-2.3-5.3-2.2s-4,0.7-5.3,2.2l-1.2,1.5
		c-0.7,1.2-1,2.4-1,3.8c-0.8,6.6-1.2,13.1-1.2,19.7c0,3.9,3.5,7.7,7.5,7.5S56,178.1,56,173.9L56,173.9L56,173.9z"/>
	<path class="st0" d="M57.3,148.5c-0.1-0.2-0.1-0.5-0.1-0.7l0.3,2c0-0.5,0-0.9,0-1.4l-0.3,2c0.1-0.6,0.3-1.2,0.5-1.7l-0.8,1.8
		c0.8-1.8,2-3.3,3.1-5c1.4-2.2,2.6-4.8,3.2-7.3c0.7-3.5,0.5-7.4-1.6-10.4c-2.4-3.4-5.9-5.2-10-5l2,0.3l-0.4-0.1l1.8,0.8
		c2.3,1.3,2.5,3.1,1.8,1.6l0.8,1.8l-2.7-6.7l-1.3-3.1c-0.4-1.1-1.1-2.2-1.3-3.4v4l0-0.3l-0.8,1.8l-2,2.1l-1.8,0.8
		c0.2-0.1,0.5-0.1,0.7-0.2l-2,0.3c0.2,0,0.5,0,0.7,0l-2-0.3c0.4,0.1,0.7,0.2,1,0.3l-1.8-0.8c0.2,0.1,0.4,0.2,0.6,0.4l-0.9-0.7
		c0.3,0.2,0.6,0.6,0.8,0.8c1,0.9-1-1.4-0.3-0.4c0.2,0.3,0.4,0.6,0.6,0.9c1.5,2,3,3.8,5.2,5c4.2,2.2,9.1,1.3,13.6,1
		c3.9-0.2,7.7-3.3,7.5-7.5c-0.2-3.9-3.3-7.8-7.5-7.5c-2.7,0.2-5.6,0.6-8.3,0.4l2,0.3c-0.4-0.1-0.8-0.1-1.2-0.3l1.8,0.8
		c-0.3-0.1-0.6-0.3-0.9-0.5c1.5,0.7,1.1,0.9,0.5,0.3c-0.2-0.2-0.4-0.4-0.6-0.7c-0.5-0.6,1.2,1.6,0.3,0.4c-1.5-2-2.9-3.7-5-5.1
		c-2.5-1.6-5.8-2.3-8.7-1.5c-4.5,1.2-7.5,5.6-6.3,10.2c0.4,1.6,1.2,3.2,1.8,4.7l2,4.9c0.8,1.9,1.5,4.1,2.5,5.9s3,3.4,5.1,4
		c1.3,0.4,2.5,0.1,3.9,0.3l-2-0.3c0.2,0,0.5,0.1,0.7,0.2l-1.8-0.8c0.5,0.3,0.4,0.2-0.1-0.2c-0.5-0.5-0.6-0.5-0.2-0.1l-0.7-0.9
		c0.1,0.2,0.3,0.4,0.4,0.6l-0.8-1.8c0.1,0.4,0.2,0.8,0.3,1.2l-0.3-2c0.1,0.7,0.1,1.4,0,2.1l0.3-2c-0.2,1-0.5,2-0.9,2.9l0.8-1.8
		c-1,2.4-2.6,4.3-3.9,6.5c-2,3.4-2.9,7.2-1.9,11.2s5.4,6.5,9.2,5.2S58.3,152.6,57.3,148.5L57.3,148.5L57.3,148.5z"/>
	<path class="st0" d="M41.1,152.1c-1.5-0.5-3.2-0.8-4.8-0.9s-3.4,0.1-4.9,0.5c-1.6,0.3-3.1,1-4.5,1.7s-2.8,1.8-3.9,2.9
		c-0.7,0.7-1.2,1.5-1.6,2.4c-0.5,0.9-0.7,1.9-0.6,2.9l0.3,2c0.2,1,0.7,1.8,1.3,2.6c0.3,0.6,0.8,1,1.4,1.4c0.7,0.7,1.6,1.1,2.6,1.3
		c1.9,0.4,4.1,0.4,5.8-0.8c0.9-0.6,1.9-1.2,2.9-1.6l-1.8,0.8c1.3-0.6,2.7-0.9,4.2-1.1l-2,0.3c1.4-0.2,2.8-0.2,4.1,0
		c1,0,2-0.2,2.9-0.6c0.9-0.3,1.7-0.8,2.4-1.6c1.3-1.3,2.3-3.4,2.2-5.3s-0.7-3.9-2.2-5.3l-1.5-1.2c-1.2-0.7-2.4-1-3.8-1
		c-1-0.1-2-0.2-3-0.1c-1.6,0.1-3.3,0.3-4.9,0.7c-1.6,0.4-3,1-4.5,1.7c-0.9,0.4-1.9,0.9-2.7,1.5l9.1,11.8c0.2-0.2,0.5-0.5,0.8-0.7
		l-1.5,1.2c0.7-0.6,1.5-1,2.3-1.4l-1.8,0.8c0.9-0.4,1.8-0.6,2.8-0.8l-2,0.3c1-0.1,1.9-0.1,2.9,0l-2-0.3c0.7,0.1,1.4,0.3,2.1,0.5
		c1,0.3,2,0.4,3,0.1c1-0.1,1.9-0.3,2.8-0.9c1.6-0.9,3-2.7,3.5-4.5c0.4-1.9,0.3-4.1-0.8-5.8l-1.2-1.5
		C43.4,153.1,42.3,152.5,41.1,152.1L41.1,152.1L41.1,152.1z"/>
	<path class="st0" d="M43.7,179c-0.2,3.1-0.3,6.1-0.1,9.2c0.1,1.3,0.5,2.6,1.5,3.5c0.9,0.9,2.3,1.5,3.5,1.5s2.6-0.5,3.5-1.5
		s1.5-2.2,1.5-3.5c-0.1-3.1-0.1-6.1,0.1-9.2c0.1-1.2-0.6-2.7-1.5-3.5s-2.3-1.5-3.5-1.5s-2.6,0.5-3.5,1.5l-0.8,1
		C44,177.2,43.7,178.1,43.7,179L43.7,179L43.7,179z"/>
	<path class="st0" d="M92.5,57.9c-0.1-0.2-0.1-0.5-0.1-0.8c0.1,0.7,0.1,0.8,0.1,0.2c0-0.3-0.1-0.9,0-1.1c-0.1,0.7-0.1,0.8,0,0.2
		l0.1-0.4c0.1-0.4,0.2-1.1,0.5-1.5l-0.2,0.5c0.1-0.2,0.2-0.5,0.4-0.7c0.2-0.3,0.4-0.7,0.6-1c0.1-0.2,0.3-0.4,0.5-0.6
		c-0.4,0.5-0.4,0.5,0,0.1c0.3-0.3,0.5-0.6,0.8-0.8c0.3-0.3,0.6-0.5,0.9-0.8c-0.9,0.8,0.2-0.2,0.5-0.3c0.7-0.5,1.5-0.9,2.3-1.3
		c0.4-0.2,0.9-0.4,1.3-0.6c0.2-0.1,0.4-0.2,0.6-0.2c-0.6,0.2-0.6,0.2,0,0c0.9-0.3,1.8-0.7,2.7-1l-4.9-8.4L87.1,53.7l7.9,6.1
		c0.4-0.8,0.8-1.6,1.3-2.4c0.3-0.4,0.6-0.9,0.9-1.3c-0.5,0.7-0.1,0.2,0.2-0.2c1.2-1.4,2.5-2.7,3.9-4c2.7-2.6,5.4-5.1,7.8-8
		c5.3-6.4,9.3-13.6,12.8-21c1.1-2.4,0.7-5.5-1.8-6.8c-2.2-1.2-5.6-0.7-6.8,1.8c-1.8,3.7-3.6,7.3-5.6,10.8c-1,1.6-2,3.2-3,4.8
		c-0.6,0.8-1.2,1.7-1.8,2.5c-0.4,0.5-0.4,0.5,0,0c-0.1,0.2-0.3,0.3-0.4,0.5c-0.3,0.4-0.6,0.8-1,1.2c-4.9,5.8-11.8,10.1-15.1,17.1
		c-1.1,2.3-0.8,4.8,1.3,6.5c1.8,1.4,5,1.6,6.6-0.4l11.1-14.3c1.3-1.7,2.1-4,0.8-6.1c-1.1-1.8-3.5-3-5.6-2.3
		c-4.8,1.7-9.6,3.7-13.2,7.5c-3.8,4.1-5.7,9.6-4.5,15.1c0.6,2.5,3.7,4.3,6.1,3.5C91.7,63.2,93.1,60.7,92.5,57.9L92.5,57.9L92.5,57.9
		z"/>
</g>
<g id="Capa_7">
	<path d="M45.6,195c-4.8,15.9-0.2,33.4,10.1,46.2c2.5,3.1,5.3,6.1,8.6,8.4c3.1,2.1,6.5,3.7,9.8,5.4c6.9,3.5,15.4,8,17.3,16.2
		c1,4.4-0.6,8.7-2.1,12.8c-0.7,1.9-1.4,3.8-1.9,5.8s-0.6,4.2-1,6.3c-1.3,7.5-3.9,16.2,0.6,23.2c1.2,1.9,2.1,3.1,4.3,3.5
		c2.7,0.5,5.4,1,8.1,1.4c5.1,0.8,10.2,1.3,15.3,2.2s10.3,1.9,15.1,3.8c2,0.8,3.9,1.9,6,2.6c2.3,0.9,4.2,1.5,6,3.2
		c2.8,2.6,5.6,5.2,8.2,8c2.8,3,5.4,6.3,8,9.6c5,6.4,10.4,12.6,17.4,16.8c5.8,3.4,12.5,4.2,18.7,6.3c2.9,0.9,5.8,2.1,8.1,4.1
		c1.1,1,2.1,2.1,2.9,3.4s1.8,3.4,1.7,4.9s-1.6,3.4-2.4,4.7c-1,1.7-2.2,3.4-3.2,5c-1.9,3.1-3.7,6.3-4.3,10c-0.8,4.5,0.3,8.9,1.4,13.2
		c1.2,4.7,2.8,9.4,4.6,13.9c3.8,9.2,8.5,18.2,13.8,26.6c1,1.7,2.5,3.1,3.5,4.7c1.3,2.1,2.7,3.9,4.3,5.7c3.1,3.4,6.5,6.4,10,9.3
		c4,3.3,8.3,6.1,12.5,9.1s8.4,6.4,12.5,9.6s8.3,6,12,9.4c3.4,3,6.5,6.3,9.3,9.8c5.4,6.7,9.7,14.5,11.8,22.9
		c1.3,5.2,1.5,10.4,1.7,15.7s0.4,10.8,0.5,16.3s0.1,10.7,0.2,16.1c0,1.6,2.5,1.6,2.5,0c-0.1-11-0.2-22.1-0.7-33.2
		c-0.2-4.8-0.4-9.6-1.5-14.4c-0.9-4-2.3-8-4.1-11.7c-3.7-7.8-9.1-14.8-15.2-20.8c-3.4-3.3-7.1-6.1-10.9-8.9
		c-4.2-3.2-8.3-6.5-12.5-9.7s-8.9-6.1-13.2-9.4c-3.6-2.8-7.1-5.9-10.4-9.1c-1.6-1.6-3.2-3.2-4.6-4.9c-1.5-1.8-2.5-4-3.9-5.8
		c-3.1-4-5.5-8.5-7.9-12.9c-4.8-8.8-9-18-11.6-27.7c-1.2-4.4-2.6-9.2-1.6-13.8c0.8-3.9,3-7.3,5.1-10.6c1-1.5,2-3.1,2.9-4.6
		s2.1-3.2,1.9-5c-0.5-3-1.8-5.9-3.8-8.2c-4.1-4.6-10.6-6.3-16.4-7.8c-3-0.8-6.1-1.6-9-2.7c-3.8-1.5-7.2-4-10.2-6.7
		c-6.1-5.6-10.8-12.5-16.1-18.7c-2.6-3-5.6-5.4-8.3-8.2c-1.2-1.2-2.3-2.5-3.7-3.5c-1.8-1.3-3.9-1.7-5.9-2.5s-3.9-1.9-6-2.6
		c-2.6-0.9-5.3-1.7-8-2.3c-5-1.1-10-1.8-15.1-2.5c-2.4-0.3-4.9-0.7-7.3-1c-1.2-0.2-2.5-0.4-3.7-0.6c-1.4-0.2-3.1-0.3-4.4-0.8
		c-1.8-0.7-3-3.5-3.5-5.2c-0.6-2-0.8-4.2-0.7-6.3c0.2-4.5,1.3-8.8,2-13.2c0.3-1.9,0.4-3.8,0.9-5.6c0.5-2.1,1.3-4,2.1-6
		c1.4-3.8,2.6-7.7,2.1-11.7s-2.7-7.5-5.4-10.4c-5.2-5.5-12.5-8.2-19-11.8c-14.6-8-23.6-25.7-23.5-42.2c0-4.1,0.7-8.2,1.9-12.1
		C48.5,194.1,46.1,193.4,45.6,195L45.6,195L45.6,195z"/>
	<path d="M295.3,592.8c-1.5,6.1-3.2,11.4-1.8,17.7c1.3,5.8,3.3,11.4,5,17.1s2.9,11.2,2.6,16.9c-0.2,3.2-0.8,6-2.5,8.7
		c-1.7,2.6-3.4,5.2-5.2,7.7c-3.6,5-7.5,9.9-11.7,14.4c-1.8,1.9-4,4.8-6.3,6s-5.6,1.5-8.2,2.2c-10.5,2.7-21.2,5.5-30,11.9
		c-6.4,4.7-11.3,13.8-10.3,21.9c0.5,4.2,2.8,8,6.2,10.6c2,1.4,4.3,3.1,6.6,3.8c2.6,0.9,5.2,1.8,7.8,2.8
		c20.2,7.8,39.2,21.1,51.3,39.2c6.2,9.2,9.5,19.8,11.2,30.7c0.9,5.4,1.3,10.9,1.7,16.4c0.2,2.5,0.1,5,0.8,7.5
		c0.8,3.2,1.8,6.4,2.4,9.6c0.6,2.9,0.7,6.6,0.1,9.5c-0.7,3.1-2.6,6.1-4.2,8.8c-3.1,5.2-6.7,10.2-9.6,15.5
		c-5.4,9.9-7.5,22.5-6.4,33.7c1,10,5.5,20.7,12.4,28.1c3.3,3.5,7.3,6.7,12.1,7.3c4.2,0.6,9.3-0.5,12.5-3.4c1.5-1.3,2-3.6,3.2-5.2
		c0.7-0.8,1-1.7,1.3-2.7c0.5-1.6,1.1-2.7,2-4.1c0.9-1.4,1.5-3,2.6-4.3c0.7-0.9,1.5-1.7,2.4-2.4c2.1-1.8,4.8-2.9,7.6-2.8
		c5.3,0.2,10.4,5.2,9.4,10.7c-0.5,2.8-1.7,5.5-2.7,8.1c-1.1,3-2.3,5.9-3.4,8.8c-2.1,5.4-4.1,10.9-5.3,16.6s-1.5,11.9-1.1,17.8
		c0.6,11.2,3,23.4,8.8,33.1c4.7,7.9,11.5,14.5,19.7,18.6c4.1,2,8.4,3.4,12.9,3.9s10,0.8,14.4-1s8-5.7,11.9-8.6
		c1.3-0.9,0-3.1-1.3-2.2c-4,3-7.6,7.2-12.5,8.8s-10.5,1-15.3,0c-9.2-2-17.4-7.4-23.4-14.6c-7.2-8.6-10.3-19.3-12-30.2
		c-1-6.4-1.2-12.8-0.6-19.3c0.5-5.8,2.2-11.5,4.1-17c1.9-5.3,4.2-10.5,6.1-15.9c1.7-4.5,3.4-9.2,0.8-13.7c-2-3.5-5.9-6.1-10-6.4
		c-4.7-0.4-8.8,2-11.9,5.3c-1.8,1.9-3,4.4-4.4,6.6c-0.5,0.9-0.8,1.8-1.1,2.8c-0.5,1.7-1.5,2.8-2.4,4.3c-0.4,0.8-0.7,1.8-1.2,2.5
		c-0.6,0.9-1.8,1.5-2.8,2c-2.3,1.1-4.8,1.6-7.3,1.5c-5.6-0.4-10.1-4.6-13.4-8.8s-5.7-9.3-7.6-14.4c-4.1-11.2-2.8-23.8,0.7-35
		s12.3-19.5,16.5-30.3c2.1-5.2,0.8-11.5-0.5-16.7c-0.7-3-1.7-5.9-1.9-8.9c-0.1-2.5-0.3-5.1-0.5-7.6c-0.8-10.6-2.4-21.2-6.3-31.1
		c-7.5-19.3-24.2-34.8-41.9-45c-4.5-2.6-9.1-4.8-13.8-6.8c-2.3-1-4.7-1.9-7.1-2.8c-2.6-0.9-5.1-1.7-7.4-3.2c-4.3-2.8-7.9-6-8.3-11.5
		c-0.3-4.4,1.4-8.7,3.6-12.4c1.1-1.8,2.4-3.8,4-5.2c2.1-1.8,4.6-3.3,7.1-4.7c4.9-2.7,10.2-4.5,15.6-6s10.5-2.7,15.8-4.1
		c2.4-0.7,3.9-2.5,5.6-4.2c2.1-2.1,4.2-4.4,6.2-6.7c3.8-4.4,7.3-9.1,10.6-14c1.5-2.2,3.6-4.6,4.7-7.1c1-2.3,1.1-5.3,1.2-7.7
		c0.5-11.3-4.5-21.8-7.2-32.5c-0.8-3.2-1.3-6.2-0.8-9.4c0.5-3,1.4-5.9,2.2-8.8C298.1,591.9,295.7,591.2,295.3,592.8L295.3,592.8
		L295.3,592.8z"/>
	<path d="M110.4,42.2c7.8,9.4,9.9,21.7,11.2,33.5c1.2,10.9,1.4,23.7,8.7,32.6c6.8,8.3,17.2,11.8,27.3,14.3
		c5.7,1.4,11.7,2.1,17.2,4.5c5.9,2.6,11.3,6.3,15.9,10.8s8.1,9.2,11,14.6c3.1,5.9,3.3,12.1,2.5,18.6c-0.4,3.2-1,6.4-1.4,9.6
		c-0.3,2.4-1.4,6.2-0.7,8.6c0.6,1.9,3,4,4.4,5.4c2,2,4.1,3.7,6.4,5.4c8.6,6.5,22.6,12.9,19.1,26.1c-0.8,3-2.5,5.5-4.2,8
		c-1.8,2.8-3.6,5.7-5.2,8.6c-2.8,5.2-4.5,10.6-4.8,16.4c-0.7,10.8,4.3,20.7,9.2,30c2.8,5.2,5.4,10.5,7.6,16c2.5,6.2,5.6,12.5,7.2,19
		c1.6,6.6,1.2,13.4,0.3,20c-0.5,3.2-1.1,6.3-1.8,9.5s-1.5,6.2-1.4,9.3c0.2,5.2,2.6,9.9,5.9,13.8c1.6,2,3.4,3.8,5.3,5.6
		c0.8,0.7,1.6,1.5,2.5,2c1.3,0.7,2.5,0.9,3.7,1.9c18.6,16.9,39.3,31.8,62.5,41.6c12.3,5.2,25.1,8.9,37.8,12.9s24.9,10.4,36.6,16.6
		c11.5,6.1,21.6,15.1,32.1,22.7s22.4,14.5,34.2,20.9c10.2,5.5,19.7,11.6,27,20.8c6.9,8.7,11.6,18.9,14.9,29.4c1.6,4.9,2.8,10,3.9,15
		c0.3,1.6,2.7,0.9,2.4-0.7c-4.4-20.6-12.4-41.7-29.2-55.5c-9.4-7.8-20.8-12.5-31.3-18.6c-11.5-6.7-22.1-14.6-32.8-22.6
		c-5.4-4.1-10.9-8.2-16.6-11.8s-11.9-6.4-17.8-9.3c-5.7-2.7-11.4-5.2-17.2-7.5c-6.2-2.4-12.7-4.1-19-6.1c-13-4.1-26-8.8-38-15.4
		c-11.3-6.2-22.2-13.2-32.4-21.2c-5-3.9-9.8-8-14.4-12.2c-0.9-0.8-1.7-1.7-2.7-2.3s-2.2-0.8-3.2-1.5c-2.3-1.6-4.4-4-6.1-6.1
		c-4.3-5.1-6.5-10.9-5.1-17.5c1.3-6.4,2.8-12.8,3.3-19.3c0.5-6.2,0.1-12.6-1.9-18.6c-2.1-6.3-4.9-12.5-7.4-18.7
		c-4.2-10.3-10.9-19.5-14.1-30.2c-1.7-5.8-2-11.9-0.8-17.8c1.4-6.4,5-12,8.5-17.5c3-4.7,5.9-9.2,5.5-15c-0.3-5-2.8-9.7-6.6-12.9
		c-4.1-3.4-8.6-6.3-12.9-9.4c-2.3-1.7-4.5-3.4-6.6-5.4c-1-0.9-1.9-1.9-2.7-2.9c-1.5-1.8-1.5-3-1.4-5.1c0.5-6.4,2.1-12.6,2.4-18.9
		s-1-11.6-4-16.9c-5.8-10.2-14.5-18.6-24.9-23.8c-5.2-2.7-10.7-3.6-16.3-4.9s-11.1-2.7-16.3-4.9s-9.8-5.3-13.3-9.6
		c-4.1-5.1-6.1-12.7-6.8-19c-1.3-11.2-1.7-22.8-5.5-33.6c-1.8-5-4.3-9.5-7.6-13.5C111.2,39.2,109.4,41,110.4,42.2L110.4,42.2
		L110.4,42.2z"/>
	<path d="M418.3,1024.8c2.9-2.3,5.4-5.1,7.7-8.1s4.2-6.1,7.2-8.1c2.8-1.9,4.9-4.9,7.3-7.4c2.7-2.8,5.5-5.5,8.3-8.2
		c5.5-5.2,11-10.4,16.1-16s9.5-11.2,11.7-18.4s1.8-14.5,2.4-21.8c0.7-8.1,1.6-16.2,3.5-24.2c3.6-14.7,12.3-27.4,18.1-41.2
		c2.8-6.7,5-13.6,6-20.8c1.1-8.1,1.2-16.2,0.7-24.3s-1.9-16.1-3.5-24.1c-1.8-8.6-3.6-17.2-4.5-26s-1.1-17.5,0.8-26
		c0.9-4,3.4-7.8,5.1-11.4c1.6-3.3,3.1-6.7,4.5-10.2c6-14.3,10.5-29.5,11.2-45c0.7-16.3-3.2-32.6-6.9-48.3
		c-1.9-8.1-3.9-16.2-5.7-24.3c-1.8-8.1-3.9-16.6-4.3-24.9c-0.2-4.2,0.5-8.3,2.2-12.2c0.7-1.5-1.5-2.7-2.2-1.3
		c-3.2,7.2-2.7,14.3-1.5,21.8c1.3,8.3,3.1,16.5,5.1,24.6c3.8,16.2,8.1,32.4,10.2,49s-0.5,31.7-5.5,46.9c-2.5,7.6-5.6,15-9,22.3
		c-1.6,3.5-3.7,6.9-5.1,10.5s-1.5,8-1.8,11.7c-1.2,17,3.2,33.8,6.4,50.4c1.6,8,2.3,16.5,2.4,24.7s-0.6,16.4-2.7,24.3
		c-3.9,14.3-11.9,26.9-17.9,40.3c-3.1,7-5,14.3-6.2,21.9s-2.1,15.7-2.2,23.5s-1.5,15.3-5.6,21.7s-10,12-15.4,17.3
		s-11,10.4-16.3,15.9c-1.3,1.3-2.5,2.7-3.8,4.1c-1.4,1.6-2.8,2.6-4.4,3.9c-2.7,1.9-4.5,5.3-6.5,7.9c-2.2,2.8-4.6,5.5-7.5,7.8
		C415.3,1024.1,417.1,1025.9,418.3,1024.8L418.3,1024.8L418.3,1024.8z"/>
	<path d="M113.5,39c0.9-2,2.1-3.8,3.4-5.4s2.9-2.9,4.2-4.5c1.5-1.8,2.3-4.6,2.7-6.9s0.4-4.9-0.9-7c-1.4-2.4-4-3.2-6.7-3.2
		c-0.4,0-0.9,0.2-1.1,0.6c-3.7,7.5-4.7,18.5-13.1,22.4c-1.5,0.7-0.2,2.8,1.3,2.2c9-4.2,10.1-15.3,14-23.4l-1.1,0.6
		c2,0,4,0.6,4.9,2.6c0.7,1.9,0.5,4,0,5.9c-0.3,1-0.6,2-1,3c-0.6,1.3-1.4,2.1-2.4,3.1c-2.5,2.6-4.8,5.3-6.3,8.6
		C110.7,39.2,112.8,40.5,113.5,39L113.5,39L113.5,39z"/>
	<path d="M21.2,167c0.4-4.3,0.4-9.6,4.3-12.4c3.1-2.2,7.2-2,10.8-2.1c7.9-0.2,12.2-10.3,10-17c-1.3-4-4.1-7.3-6.8-10.5
		c-2.4-2.9-3.6-6.5-2.6-10.2c0.9-3.4,3.1-6.2,5.4-8.8c2.5-2.9,5.3-5.5,7.8-8.4c0.7-0.8,1.6-1.7,2-2.6s0.5-2.1,0.5-3.2
		c-0.1-2.1-0.7-4.2-1.5-6.2c-1.6-4.3-3.7-8.3-2.6-13l-0.6,0.8c3.7-2.7,7.6-5.1,11.1-8.1c1.8-1.5,3.5-3.1,5-4.9
		c0.8-0.9,1.5-1.8,2.1-2.7c0.3-0.4,0.6-1,1-1.4s0.9-0.6,1.3-1c1.8-1.5,3-3.6,4.8-5.2c1.7-1.4,3.6-2.5,5.7-3.4
		c4-1.7,8.2-2.5,12.4-3.4c2.3-0.5,4.7-1,7-1.8c2.6-0.9,4.6-3.2,6.6-4.8c1.3-1-0.5-2.8-1.8-1.8c-1.5,1.2-2.9,2.5-4.5,3.5
		c-1.4,0.9-3.1,1.2-4.6,1.6c-3.1,0.8-6.2,1.3-9.3,2.1s-6.1,1.7-9,3.2c-3,1.6-5.4,3.7-7.5,6.3c-0.5,0.7-1.1,1.3-1.8,1.9
		c-0.3,0.2-0.7,0.4-1,0.6c-0.4,0.3-0.5,0.7-0.8,1.1c-1,1.5-2.2,3-3.4,4.3c-2.4,2.5-5,4.7-7.8,6.7c-1.4,1-2.8,2-4.2,2.9
		c-1.2,0.9-3,1.6-3.3,3.2c-0.6,3.1-0.2,6.1,0.8,9c1,2.7,2.4,5.3,3,8.2c0.3,1.2,0.6,3.1,0,4.2c-0.7,1.2-1.9,2.3-2.9,3.4
		c-3.8,4.2-8.2,8-10.9,13s-2.7,11,1,15.4c3.9,4.8,8.9,10.1,7,16.7c-0.7,2.5-2.1,5.1-4.4,6.6c-2.4,1.5-5.6,0.9-8.4,1.1
		s-5.6,1-7.9,2.9c-2.5,2.1-3.7,5.3-4.1,8.5c-0.2,1.8-0.4,3.6-0.5,5.3C18.5,168.6,21,168.6,21.2,167L21.2,167L21.2,167z"/>
	<path d="M45.2,185.8c-1.5-6.3-0.2-13.2-3.5-19.1c-0.8-1.5-1.8-2.8-3.4-3.3c-1.3-0.4-2.7-0.3-3.9,0.1c-3,1.1-5.4,3.6-8.1,5.2
		c-1.4,0.8-0.1,3,1.3,2.2c2.4-1.4,4.5-3.5,7.1-4.7c1-0.5,2.2-0.8,3.3-0.2c1.2,0.6,1.9,2.4,2.4,3.5c2.2,5.4,1.1,11.5,2.5,17
		C43.2,188,45.6,187.3,45.2,185.8L45.2,185.8L45.2,185.8z"/>
	<path d="M18.3,166.5c1.8,2.7,4.6,4.4,7.8,4.8c0.6,0.1,1.3-0.6,1.2-1.2c0-0.8-0.6-1.2-1.2-1.2c0.2,0,0.1,0,0,0c-0.1,0-0.2,0-0.2-0.1
		c-0.1,0-0.3-0.1-0.4-0.1c-0.3-0.1-0.6-0.2-0.9-0.3c-0.1,0-0.2-0.1-0.2-0.1c0,0-0.3-0.1-0.1-0.1c0.1,0.1-0.1,0-0.1,0
		c-0.1,0-0.2-0.1-0.2-0.1c-0.3-0.1-0.6-0.3-0.9-0.5s-0.5-0.3-0.8-0.5c-0.1-0.1,0.1,0.1,0,0c-0.1,0-0.1-0.1-0.2-0.1
		c-0.1-0.1-0.3-0.2-0.4-0.3c-0.2-0.2-0.4-0.4-0.6-0.7c-0.1-0.1-0.1-0.1-0.2-0.2c0,0-0.2-0.2,0,0c-0.1-0.1-0.2-0.3-0.3-0.4
		c-0.4-0.5-1.1-0.8-1.7-0.4C18.2,165.2,17.9,166,18.3,166.5L18.3,166.5L18.3,166.5z"/>
	<path d="M49.5,197.7c7.6-6.4,9.3-16.7,9.5-26.1c0-2.5,0-5-0.1-7.5c-0.1-3.1-0.3-6.2,0.4-9.2c0.7-2.8,2.2-5.2,3.7-7.6
		c1.5-2.4,2.9-4.6,3.9-7.2c4.3-10.5,3.1-22.5,9.6-32.1c1.6-2.4,3.5-4.7,5.2-7.2s3.1-5.1,4.3-7.8c2.5-5.3,4.3-10.9,6.2-16.5
		c3.8-11,8.8-23,19.6-28.9c1.4-0.8,0.1-2.9-1.3-2.2c-9.3,5.1-14.8,14.8-18.5,24.4c-2.1,5.4-3.8,10.9-5.9,16.4s-4.8,11-8.4,15.9
		c-1.8,2.4-3.6,4.7-5,7.3c-1.3,2.4-2.3,5.1-3,7.7c-1.5,5.4-2,11-3.4,16.5c-0.7,2.8-1.5,5.5-2.9,8c-1.3,2.5-3,4.8-4.4,7.3
		s-2.3,5-2.6,7.9s-0.1,5.9,0,8.8c0.3,10.5,0,23.1-8.7,30.4C46.5,196.9,48.3,198.7,49.5,197.7L49.5,197.7L49.5,197.7z"/>
</g>
</svg>
