<?xml version="1.0" encoding="UTF-8"?><svg xmlns="http://www.w3.org/2000/svg" viewBox="0 0 1817.07 1067.15"><defs><style>.cls-1{fill:#fbbb0e;}</style></defs><g id="Capa_17"><path class="cls-1" d="M357.43,643.82l10.84,2.74c2.99,.76,6.03,1.43,8.89,2.61l-1.79-.76c.81,.35,1.6,.73,2.36,1.19,.24,.15,1.6,1.14,.47,.26s.17,.19,.37,.4c.28,.28,.51,.6,.79,.88-.73-.97-.87-1.13-.42-.5,.16,.23,.31,.47,.46,.71,.45,.72,.87,1.47,1.31,2.19,2.9,4.75,7.48,8.91,13.42,8.56s10.09-4.75,12.08-10.12c1.56-4.18,.61-8.65,1.08-12.96l-.27,1.99c.14-1.02,.38-1.99,.76-2.95l-.76,1.79c.21-.49,.44-.96,.72-1.42,.32-.55,1.51-1.83-.03-.12,.64-.7,1.24-1.42,1.92-2.09s1.39-1.3,2.1-1.92c.19-.17,.39-.34,.59-.51-1.03,.77-1.22,.93-.6,.47,.45-.27,.87-.53,1.34-.75l-1.79,.76c.35-.13,.67-.23,1.03-.31l-1.99,.27c.36-.04,.65-.04,1.01,0l-1.99-.27,.32,.09-1.79-.76c.22,.08,.43,.18,.62,.32,3.36,2.03,8.39,.85,10.26-2.69s.9-8.09-2.69-10.26c-7.08-4.28-14.74,1.75-19.07,7.2-1.07,1.35-2.11,2.67-2.82,4.23-1.08,2.35-1.57,4.36-1.86,6.92-.32,2.83,.09,5.69-.21,8.52l.27-1.99c-.14,1.01-.4,1.98-.79,2.92l.76-1.79c-.18,.41-.38,.81-.61,1.19-.43,.71-1.02,.7,.41-.46-.18,.15-.52,.49-.67,.68,1.13-.83,1.39-1.03,.77-.62-.17,.11-.35,.2-.54,.29l1.79-.76c-.39,.16-.77,.27-1.18,.35l1.99-.27c-.47,.06-.91,.06-1.38,0l1.99,.27c-.49-.09-.94-.23-1.41-.42l1.79,.76c-.33-.16-.65-.4-.98-.55,.95,.77,1.2,.97,.77,.59-.15-.12-.29-.25-.42-.39-.24-.24-.64-.55-.78-.85,.19,.43,1.06,1.46,.35,.39-.9-1.36-1.64-2.82-2.58-4.15-2.49-3.53-5.65-5.98-9.61-7.64-3.09-1.31-6.29-2.1-9.54-2.93l-11.08-2.8c-3.8-.96-8.31,1.23-9.23,5.24s1.17,8.2,5.24,9.23h0Z"/><path class="cls-1" d="M416.5,636.83c3.92,0,7.68-3.45,7.5-7.5s-3.3-7.5-7.5-7.5c-3.92,0-7.68,3.45-7.5,7.5s3.3,7.5,7.5,7.5h0Z"/><path class="cls-1" d="M420.7,621.52c-.18-.69-.32-1.37-.43-2.07l.27,1.99c-.18-1.41-.18-2.81-.03-4.23l-.27,1.99c.21-1.55,.61-3.04,1.22-4.48l-.76,1.79,.17-.39c1.14-2.51,1.46-5.07,0-7.57-1.26-2.14-3.9-3.92-6.48-3.71-3.14,.24-6.28,.15-9.41-.26l1.99,.27c-4-.56-7.88-1.64-11.61-3.18l1.79,.76c-3.61-1.53-6.97-3.48-10.13-5.8-1.04-.76,1.55,1.25,.03,0-.39-.32-.77-.64-1.15-.97-.66-.58-1.31-1.18-1.93-1.8-.72-.71-1.41-1.43-2.07-2.19-.33-.38-.66-.76-.98-1.15-.17-.21-1.23-1.56-.35-.42s-.15-.23-.31-.45c-.3-.42-.58-.85-.88-1.27-1.8-2.54-4.35-4.55-7.64-4.52-4.67,.04-8.33,3.01-9.77,7.39-.7,2.13-.82,4.52-1.16,6.73l-1.21,7.85c-.32,2.07-.34,3.9,.76,5.78,.91,1.56,2.69,3.04,4.48,3.45,1.92,.44,4.07,.34,5.78-.76,1.53-.99,3.16-2.6,3.45-4.48l1.21-7.85c.35-2.29,.42-4.91,1.3-7.07l-.76,1.79c.38-.67,.19-.46-.57,.64-1.12,.76-1.34,.97-.67,.63l-1.79,.76,.32-.09-1.99,.27c.21-.05,.42-.06,.64-.03l-1.99-.27,.31,.08-1.79-.76c-.48-.24-.93-.78-1.26-1.2-.69-.88-.26-.33-.13-.12,.21,.31,.43,.62,.65,.93,.82,1.13,1.67,2.23,2.55,3.31,1.03,1.27,2.13,2.48,3.29,3.63,2.68,2.64,5.71,5.01,8.87,7.05,5.83,3.75,12.6,6.46,19.44,7.6,4.21,.7,8.44,1.06,12.7,.73l-6.48-11.29c-2.45,5.43-3.23,11.12-1.69,16.95,1,3.79,5.4,6.48,9.23,5.24s6.31-5.16,5.24-9.23h0Z"/><path class="cls-1" d="M358.58,598.85c-.91,4.45-.56,8.74,.47,13.14,.72,3.08,1.76,6.09,2.2,9.23l-.27-1.99c.24,1.86,.29,3.71,.05,5.57l.27-1.99c-.17,1.11-.44,2.18-.86,3.22l.76-1.79c-.29,.66-.67,1.22-1.02,1.85-.33,.59,1.43-1.47,.35-.51-.45,.4-1.56,1.29,.39-.19l9.09,11.78c3.22-2.74,5.99-6.24,7.92-10,2.28-4.42,3.39-8.82,3.96-13.73l-.27,1.99c.05-.32,.11-.6,.22-.91l-.76,1.79-2.13,2.03-1.79,.76,.27-.11-1.99,.27,.26-.03-1.99-.27c.17,0,.34,.05,.49,.14l-1.79-.76c-.78-.46-1.41-1.07-1.88-1.84,.11,.19,.21,.39,.29,.6l-.76-1.79c.16,.46,.25,.89,.31,1.37l-.27-1.99c.34,2.77,.33,5.54-.01,8.3l.27-1.99c-.4,2.91-1.15,5.72-2.26,8.44l.76-1.79c-.4,.94-.84,1.86-1.31,2.77l13.71,1.79c-.12-.6-.23-1.19-.32-1.8l.27,1.99c-.35-2.58-.35-5.16-.01-7.73l-.27,1.99c.29-2.02,.75-4.05,1.52-5.95l-.76,1.79c.05-.11,.49-.81,.48-.91l-.77,.99c.54-.52,.29-.32-.77,.59l-1.79,.76c.19-.1,.4-.16,.61-.19l-1.99,.27c.22-.03,.45-.03,.67,.01l-1.99-.27,.31,.09-1.79-.76c.21,.08,.41,.18,.59,.3-1.03-.86-1.28-1.01-.75-.46-1.48-1.5-.59-.72-.24,.03l-.76-1.79c.55,1.33,.93,2.69,1.14,4.12l-.27-1.99c.18,1.43,.19,2.84,.02,4.27l.27-1.99c-.14,1-.36,1.96-.66,2.92h14.46c-.32-.93-.54-1.87-.68-2.84l.27,1.99c-.14-1.26-.14-2.5,.02-3.76l-.27,1.99c.19-1.25,.52-2.45,1-3.62l-.76,1.79c.17-.37,.34-.72,.53-1.08l.19-.31c-.41,.72-.96,1.3-1.65,1.76l-1.79,.76,.34-.09-1.99,.27c.19-.03,.37-.03,.56,.01l-1.99-.27,.25,.08-1.79-.76,.24,.12c-.63-.32-1.13-.76-1.51-1.33-.81-1.02-.29-.3-.13,.04l-.76-1.79c.15,.41,.26,.81,.34,1.23l-.27-1.99c.26,1.99,.19,4.01-.06,5.99l.27-1.99c-.3,2.04-.83,4-1.6,5.92l.76-1.79c-.17,.4-.35,.8-.54,1.2l13.71,1.79c-.4-1.01-.66-2.04-.82-3.12l.27,1.99c-.12-1.08-.12-2.14,0-3.22l-.27,1.99c.17-1.21,.47-2.37,.93-3.5l-.76,1.79c.16-.37,.33-.73,.53-1.09,.16-.3,.88-1.3,.03-.21-1.09,1.39,.12-.07,.12-.02-.02,.38-1.72,1.07-.35,.44l-1.79,.76c.2-.08,.4-.13,.61-.16l-1.99,.27c.2-.03,.39-.02,.59,.01l-1.99-.27,.28,.08-1.79-.76c-.69-.47-1.28-1.04-1.77-1.7l-.76-1.79c.13,.39,.2,.75,.26,1.15l-.27-1.99c.27,2.31,.25,4.6-.05,6.91l.27-1.99c-.34,2.3-.94,4.52-1.82,6.66l.76-1.79c-.45,1.06-.97,2.09-1.54,3.1l13.71,1.79c-.29-1-.51-2-.66-3.03l.27,1.99c-.22-1.81-.21-3.61,.03-5.41l-.27,1.99c.27-1.8,.75-3.54,1.46-5.22l-.76,1.79c.42-.95,.89-1.87,1.44-2.74,.28-.44,.61-.84,.88-1.28-.79,1-.93,1.2-.44,.61,.53-.55,.29-.39-.71,.49l-1.79,.76,.33-.09-1.99,.27h.26l-1.99-.26,.23,.07-1.79-.76c-1.97-2.44-2.65-3.09-2.05-1.94l-.76-1.79c.1,.29,.17,.55,.22,.85l-.27-1.99c.06,.75-.05,1.49-.14,2.23l.27-1.99c-.49,3.61-1.44,7.12-2.83,10.49l.76-1.79c-.48,1.11-.99,2.21-1.56,3.28l13.71,1.79c-.05-.24-.09-.47-.12-.71l.27,1.99c-.17-1.32-.17-2.63,0-3.95l-.27,1.99c.2-1.32,.54-2.58,1.03-3.82l-.76,1.79c.28-.67,.6-1.31,.96-1.94,.18-.31,.38-.61,.58-.91,.74-1.16-1.22,1.39-.3,.37,.48-.54,.96-1.07,1.5-1.55,.23-.21,1.13-.92,.08-.1-1.14,.89,.18-.08,.43-.23l-11.29-6.48c.04,1.6-.05,3.19-.25,4.77l.27-1.99c-.37,2.6-1.05,5.11-2.05,7.53l.76-1.79c-.57,1.34-1.23,2.62-1.98,3.87l13.71,5.78c.42-1.46,.91-2.88,1.49-4.28l-.76,1.79c.92-2.15,2.01-4.22,3.31-6.17,.3-.46,.63-.9,.94-1.35,.59-.83-.32,.34-.43,.53,.12-.23,.35-.44,.52-.64,.79-.96,1.62-1.87,2.5-2.74l-12.8-5.3c.1,.83,.1,1.63,0,2.46l.27-1.99c-.12,.69-.31,1.33-.56,1.98l.76-1.79c-.23,.51-.49,.98-.8,1.44-2.16,3.29-.76,8.44,2.69,10.26,3.75,1.98,7.96,.82,10.26-2.69,1.8-2.73,2.8-6.4,2.39-9.67-.17-1.33-.33-2.6-1.02-3.79-.83-1.41-2.1-2.44-3.59-3.07-2.75-1.16-6.05-.6-8.19,1.55-5.39,5.4-9.34,12.14-11.44,19.48-1.03,3.61,.97,7.42,4.34,8.85s7.43,.16,9.37-3.07c3.59-5.97,5.47-12.99,5.31-19.96-.13-5.5-6.34-9.59-11.29-6.48-3.65,2.3-6.8,5.61-8.55,9.59-2.07,4.7-2.67,9.36-1.74,14.43,.53,2.88,3.55,5.01,6.24,5.37,2.84,.38,6.08-.93,7.47-3.58,2.26-4.31,4.03-8.96,4.87-13.76,.51-2.92,1.13-5.96,.2-8.87-1.69-5.26-7.66-8.04-12.63-5.12-2.41,1.41-4.21,4.05-5.55,6.47-1.14,2.08-2.08,4.35-2.66,6.66-1.18,4.75-1.16,9.82,.22,14.53,.85,2.88,3.27,4.97,6.24,5.37s5.97-.96,7.47-3.58c2.43-4.24,3.77-8.73,4.38-13.55,.68-5.37,.54-12.4-4.71-15.45-3.52-2.05-7.73-1.3-10.82,1.09-2.43,1.88-3.79,4.31-4.89,7.14-1.64,4.2-1.67,9.45-.03,13.64,1.12,2.86,3.04,4.94,6.24,5.37,2.74,.37,6.22-.9,7.47-3.58,1.94-4.14,3.09-8.28,3.35-12.87,.27-4.96-.72-10.3-5.23-13.14-3.45-2.17-8.02-1.34-10.91,1.32-1.85,1.71-2.93,4.18-3.69,6.53-1.34,4.11-1.29,8.95,.1,13.03,1.03,3.03,3.83,5.66,7.23,5.51s6.21-2.24,7.23-5.51c1.37-4.35,1.42-9.32,.08-13.69-.77-2.5-1.88-4.81-3.69-6.73-2.47-2.62-6.42-3.67-9.86-2.65-5.39,1.61-7.53,7.32-8.39,12.36s-.8,9.54,.19,14.42c.58,2.88,3.5,5,6.24,5.37s6.08-.93,7.47-3.58c3.29-6.27,5.11-13.36,4.84-20.46-.17-4.54-.98-9.69-5.37-12.13-3.37-1.87-7.56-1.33-10.34,1.35-2.25,2.17-2.5,4.9-2.87,7.8l.27-1.99c-.34,2.37-.97,4.65-1.88,6.87l.76-1.79c-.84,1.97-1.9,3.76-3.1,5.53-.46,.62-.31,.43,.46-.57-.16,.21-.33,.41-.5,.62-.34,.41-.69,.8-1.05,1.19-.73,.77-1.5,1.49-2.31,2.18-1.34,1.14-2.27,3.58-2.2,5.3s.57,3.2,1.61,4.54c.96,1.24,2.33,2.33,3.9,2.69,1.83,.42,4.21,.43,5.78-.76,1.88-1.43,3.08-2.5,4.45-4.42,.89-1.25,1.47-2.62,2.03-4.05,.97-2.5,1.29-5.34,1.23-8.01-.12-5.9-2.46-11.3-3.29-17.06l.27,1.99c-.19-1.53-.25-3.04-.09-4.57l-.27,1.99c.06-.46,.14-.91,.23-1.37,.78-3.83-1.11-8.28-5.24-9.23-3.74-.85-8.39,1.13-9.23,5.24h0Z"/><path class="cls-1" d="M380.13,585.43c1.76,3.68,3.63,7.29,5.63,10.84l3.24-1.89c-1.53-2.19-2.59-4.55-3.19-7.15l-3.43,1.44,4.83,11.03,2.94-2.27c-1.85-2.01-4.06-4.32-4.39-7.16l-3.49,.95c2.13,3.13,4.1,6.35,5.91,9.67l2.57-2.57c-2.37-1.81-4.2-4.2-5.49-6.87l-3.24,1.89c1.06,1.53,2.01,3.16,2.72,4.88l3.43-1.44c-1.3-1.72-2.57-3.52-3.45-5.5-.39-.87-.7-1.81-.86-2.75-.09-.52-.13-1.04-.13-1.57,0-.28,.02-.56,.04-.84,.11-.4,.02-.33-.27,.23l-.95,.26c-.27-.16-.3-.15-.09,.03,.14,.22,.28,.45,.41,.69,.24,.44,.47,.89,.58,1.38,.2,.89,.04,1.55-.68,2.11h2.65c-1.11-.92-1.24-2.21-1.21-3.59,.04-1.85,.37-3.7,.6-5.53s.58-3.36,1.77-4.76c1.12-1.32,2.54-2.33,3.94-3.32l-2.27-2.94c-1.93,2.17-3.89,4.43-5.08,7.11-.59,1.33-.98,2.68-1.1,4.13-.14,1.65,.32,3.24,.4,4.88l3.68-.5c-.66-2.65-.73-5.36-.17-8.03l-3.68-.5c-.13,1.28-.49,2.56-1.05,3.72-.29,.61-.64,1.2-1.02,1.75-.12,.17-1.29,1.36-1.26,1.49l1.22,.45-.08-.29c.06-.15,.03-.48,.06-.64,.09-.54,.25-1.08,.46-1.58,.51-1.2,1.32-2.16,2.31-2.99l-3.2-1.33c0,1.23-.22,2.45-.71,3.59-.23,.53-.53,1.05-.85,1.53-.3,.45-.89,.87-1.13,1.32-.04,.04-.09,.07-.14,.09-.44,.22-.1,.43,1.02,.65,.07-.09,.02-.45,.04-.58,.09-.55,.28-1.1,.55-1.59,.56-1.04,1.39-1.76,2.43-2.28l-2.75-2.12c-.3,1.22-.82,2.35-1.66,3.28-.4,.45-.86,.9-1.4,1.19,0,0-.69,.28-.66,.21-.01,.03,.15,.43,.22,.43,.3-.03,1.17-1.25,1.4-1.49,.51-.52,1.03-1.03,1.56-1.52,1.11-1.03,2.27-2.01,3.48-2.91l-2.57-2.57c-1.18,2.42-2.76,6.03-5.84,6.42l1.81,2.37c1.91-5.38,6.82-9.2,12.41-10.08l-2.12-2.75c-2.2,2.95-4.79,5.61-7.63,7.94-1.41,1.16-2.91,2.22-4.46,3.19s-3.2,1.62-4.6,2.67c-2.97,2.23-1.58,6.68,1.83,7.57,4.3,1.12,6.81-3.1,9.32-5.66h-2.65c1.15,1.49,2.06,3.15,2.8,4.87,.4,.94,1.76,1.13,2.57,.67,.97-.55,1.07-1.64,.67-2.57-.88-2.05-2.02-3.87-3.38-5.63-.62-.8-2.01-.65-2.65,0-1.02,1.04-4.17,6.06-6.1,4.5-.82-.67,.07-.92,.7-1.25,1.33-.71,2.64-1.45,3.91-2.27,5.02-3.25,9.34-7.37,12.91-12.15,1.1-1.47-.71-2.98-2.12-2.75-6.91,1.1-12.7,6.16-15.02,12.7-.37,1.05,.64,2.52,1.81,2.37,4.71-.6,7.14-4.32,9.07-8.28,.73-1.5-.92-3.8-2.57-2.57-2.05,1.54-4,3.19-5.8,5.02-1.61,1.65-3.71,3.85-1.77,6.13,1.76,2.07,4.49,1.39,6.37-.11s3.2-3.65,3.78-6c.41-1.65-1.3-2.85-2.75-2.12-2.03,1.02-3.55,2.78-4.35,4.9-.73,1.94-1.03,5.16,1.55,5.84,2.3,.6,4.18-1.7,5.27-3.38,1.31-2.03,1.95-4.45,1.97-6.85,.01-1.74-2.01-2.32-3.2-1.33-1.74,1.46-3.03,3.47-3.61,5.67-.51,1.95-.5,4.82,1.83,5.61s4.12-1.87,5.18-3.52c1.37-2.12,2.09-4.53,2.35-7.03,.22-2.1-3.25-2.55-3.68-.5-.71,3.34-.66,6.71,.17,10.03,.51,2.02,3.79,1.64,3.68-.5-.07-1.37-.43-2.72-.44-4.09,0-1.17,.3-2.32,.79-3.38,1.03-2.26,2.7-4.16,4.33-5.99,1.33-1.5-.44-4.24-2.27-2.94s-3.57,2.52-4.94,4.2c-1.63,2-2.24,4.14-2.56,6.67-.5,3.87-1.87,9.32,1.65,12.23,.86,.71,1.79,.68,2.65,0,2.13-1.67,2.2-4.65,1.21-6.96-.87-2.05-3.43-5.31-5.76-2.85-1.7,1.8-.87,5.63-.15,7.69,.94,2.69,2.49,5.07,4.19,7.33,.57,.75,1.41,1.16,2.34,.77,.77-.33,1.44-1.35,1.09-2.21-.85-2.04-1.84-3.96-3.1-5.78-1.38-1.99-4.3-.29-3.24,1.89,1.59,3.29,3.95,6.01,6.84,8.22,1.59,1.21,3.38-1.06,2.57-2.57-1.81-3.32-3.78-6.55-5.91-9.67-.93-1.37-3.73-1.07-3.49,.95,.46,3.99,2.86,6.95,5.49,9.81,.63,.69,1.75,.69,2.46,.15,.79-.61,.86-1.55,.48-2.42l-4.83-11.03c-.88-2.01-3.89-.54-3.43,1.44,.67,2.88,1.88,5.62,3.57,8.05,1.36,1.96,4.44,.24,3.24-1.89-2-3.55-3.87-7.17-5.63-10.84-1.04-2.18-4.27-.28-3.24,1.89h0Z"/><path class="cls-1" d="M371.68,580.95c-.7,.29-1.34,.63-1.84,1.22s-.84,1.2-1.12,1.94c-.41,1.06-.52,2.25-.58,3.38-.03,.46,.23,1,.55,1.33s.86,.57,1.33,.55c1.06-.05,1.81-.82,1.88-1.88,.02-.38,.05-.76,.1-1.14l-.07,.5c.09-.65,.23-1.3,.48-1.91l-.19,.45c.13-.29,.28-.57,.47-.82l-.29,.38c.14-.18,.31-.35,.49-.49l-.38,.29c.17-.13,.36-.24,.56-.33l-.45,.19,.06-.02c.47-.2,.85-.4,1.12-.86,.24-.4,.33-.99,.19-1.44s-.43-.89-.86-1.12-.99-.38-1.44-.19h0Z"/><path class="cls-1" d="M407.62,668.45c.27-2.72,.29-5.46,.05-8.18-.13-1.41-.32-2.82-.57-4.22s-.69-2.63-.89-3.96c-.01-.08-.03-.1-.01-.34,0-.05,0-.13,0-.13,.36-.06-1.84,1.48-1.55,.29,.02-.1,.09,.27,.1,.3,.39,1.21,.5,2.61,.65,3.87,.17,1.41,.29,2.83,.35,4.25,.03,.71,.05,1.42,.05,2.13,0,.35,.02,.71,0,1.07-.02,.2-.01,.24,.01,.11-.21,.58,.11,.42,.94-.5l.95,.26c.19,.09-.18-.24-.23-.32-.19-.27-.37-.55-.55-.82-.41-.6-.83-1.21-1.32-1.75-.45-.51-1-.97-1.6-1.29-.69-.37-1.39-.35-2.08-.61l1.12,.86-.11-.16,.26,.95v-.19l-.56,1.33,.11-.13-1.82,.48,.12,.02-1.12-.86,.07,.11-.26-.95v.12l.93-1.62-.09,.05c-.91,.45-1.16,1.73-.67,2.57,.54,.92,1.66,1.12,2.57,.67l.09-.05c.58-.29,.93-.99,.93-1.62,0-1.15-.88-2.12-2.06-2.12-1.46,0-2.36,1.64-1.81,2.92,.26,.6,.71,1.03,1.33,1.24,.29,.1,.87,.15,1.01,.19,.42,.11,.8,.46,1.17,.92,1.02,1.25,1.76,3.47,3.64,3.55,2.5,.1,2.81-2.56,2.8-4.43-.01-2.19-.16-4.38-.42-6.55-.13-1.05-.28-2.09-.46-3.13-.16-.95-.31-1.92-.8-2.77-1.04-1.76-3.62-2.2-4.83-.35-1,1.52-.47,3.27-.08,4.89,1.11,4.56,1.37,9.25,.91,13.91-.1,1.01,.93,1.88,1.88,1.88,1.1,0,1.78-.86,1.88-1.88h0Z"/><path class="cls-1" d="M403.05,659.94c2.41,0,2.42-3.75,0-3.75s-2.42,3.75,0,3.75h0Z"/><path class="cls-1" d="M355.05,635.46c-.73-.02-1.46-.08-2.19-.18l.5,.07c-.88-.12-1.75-.3-2.6-.53l-1,3.62c.32,.05,.62,.13,.92,.25l-.45-.19c.32,.14,.61,.31,.88,.51l-.38-.29c.29,.22,.55,.48,.77,.77l-.29-.38c.21,.27,.38,.57,.51,.88l-.19-.45c.09,.21,.15,.43,.2,.65l.86-2.12-.06,.03,.45-.19c-.08,.03-.16,.05-.24,.07l.5-.07c-.1,.01-.2,.01-.31,0l.5,.07c-.13-.02-.24-.05-.36-.1l.45,.19c-.12-.06-.23-.12-.33-.2l.38,.29c-.12-.1-.23-.21-.33-.33l.29,.38c-.09-.13-.17-.26-.23-.4l.19,.45c-.07-.17-.1-.34-.13-.53l.07,.5c-.03-.26-.02-.52,.02-.78l-.07,.5c.07-.47,.21-.92,.36-1.37,.31-.93-.36-2.09-1.31-2.31-1.03-.24-1.98,.31-2.31,1.31-.46,1.4-.74,2.98,.04,4.32,.39,.66,.98,1.19,1.69,1.49,.4,.17,.76,.26,1.2,.27,.52,.01,.96-.15,1.43-.36l.38-.29c.18-.17,.31-.37,.39-.6,.17-.4,.19-.79,.09-1.22-.24-1.07-.85-2.12-1.66-2.87s-1.84-1.35-2.94-1.51c-.52-.08-.97-.09-1.44,.19-.39,.23-.76,.67-.86,1.12-.22,.99,.3,2.03,1.31,2.31,1.72,.46,3.51,.72,5.29,.77,.98,.03,1.92-.88,1.88-1.88s-.82-1.85-1.88-1.88h0Z"/></g><g id="Capa_16"><path d="M348.15,633.33c-.63,.97-1.62,1.67-2.01,2.8-.59,1.71,.29,2.87,1.45,4.02s2.2,2.17,3.65,2.99,3.04,1.71,4.59,2.49c2.83,1.42,5.79,2.66,8.9,3.36,1.58,.36,3.2,.58,4.82,.66s3.48-.45,4.97,.17c2.48,1.04,3.56,3.51,4.74,5.77,1.08,2.08,2.12,4.22,3.69,5.98s3.78,2.86,6.2,2.95,4.73-.63,7.05-1.04,4.86-.64,5.96,1.82c.76,1.71,.45,3.43,.22,5.23-.1,.76-.27,1.62-.07,2.38,.07,.26,.2,.51,.35,.74,.06,.09,.56,.54,.57,.63,.09,.81,1.04,1.73,1.88,1.08,5.56-4.28,6.37-11.15,5.86-17.72-.26-3.36-.8-6.7-1.21-10.04-.08-.63-.29-1.16-.21-1.79,.11-.83,.38-1.63,.48-2.46,.24-1.92-.37-3.53-1.67-4.94l.37,.88c.03-.49,.35-1.43,.8-1.7,.62-.37,2.38,.05,3.12,.12,2.15,.19,4.28,.4,6.43,.11,1.73-.24,3.21-.75,4.35-2.13,1.02-1.24,1.53-2.79,1.65-4.38,.15-1.94-.49-3.39-1.19-5.14-.78-1.97-1.27-4.08-1.46-6.19-.2-2.26-.11-4.56,.24-6.8,.16-1.07,.38-2.13,.65-3.19,.24-.97,.58-1.76,.16-2.72-.54-1.25-1.73-2.44-2.98-2.98-.68-.29-1.38-.24-2.1-.29-.99-.06-1.98-.2-2.96-.29-2.09-.19-3.98,.06-6.04,.29-1.63,.18-3.4,.03-5.04-.09-3.25-.24-6.64-1.01-9.1-3.28-1.38-1.27-2.22-2.87-3.14-4.48s-1.87-3.29-2.66-5.01c-1.62-3.49-2.88-7.74-1-11.39,1.03-2,2.94-3.08,4.17-4.9,1.01-1.5,1.48-3.34,2.74-4.68,.68-.72,.26-2.25-.88-2.13-8.46,.89-15.98,4.63-22.4,10.13-1.42,1.22-3.33,2.57-4.21,4.25-.39,.74-.54,1.57-.89,2.33-.42,.93-1.41,1.54-2.12,2.24-2.98,2.93-5.45,6.38-7.04,10.26-1.8,4.42-2.15,9.24-.93,13.86,.41,1.55,2.83,.89,2.41-.66-2.08-7.83,1.31-15.53,6.77-21.13,1.29-1.32,2.71-2.28,3.38-4.05,.27-.71,.41-1.49,.9-2.09,.66-.8,1.54-1.5,2.31-2.2,2.83-2.57,5.93-4.84,9.32-6.63,3.88-2.05,8.12-3.35,12.49-3.81l-.88-2.13c-1.59,1.68-2.07,4.03-3.57,5.75-.86,.99-1.91,1.67-2.72,2.74-.73,.98-1.31,2.05-1.71,3.2-1.64,4.73,.35,9.8,2.53,14s4.53,8.78,9.28,10.8c2.15,.92,4.46,1.31,6.78,1.5,1.05,.08,2.11,.12,3.17,.13,1.38,.02,2.61-.15,3.97-.33s2.75-.11,4.11,.01c1.26,.12,2.63,.1,3.87,.32,.57,.1,1.57,.91,1.81,1.55,.18,.47-.18,1.15-.31,1.7-.21,.9-.39,1.81-.53,2.73-.46,2.97-.57,5.95-.16,8.93,.19,1.34,.46,2.67,.87,3.96,.44,1.39,1.29,2.72,1.54,4.14,.33,1.88-.16,4.54-2.09,5.42-1.28,.59-3,.54-4.39,.5-1.57-.05-3.13-.27-4.7-.37-1.18-.07-2.4-.26-3.37,.55-.76,.63-1.29,1.61-1.56,2.55-.12,.43-.25,.97-.13,1.42,.19,.66,.87,1.07,1.14,1.72,.46,1.14,0,2.37-.21,3.51s-.1,1.97,.11,3.06c.24,1.29,.34,2.62,.51,3.91,.35,2.62,.69,5.24,.78,7.88,.17,4.93-.58,10.29-4.74,13.5l1.88,1.08c-.07-.63-.21-1.13-.63-1.62s-.38-.69-.31-1.39c.15-1.54,.5-3.06,.33-4.61-.25-2.32-1.6-4.68-3.86-5.52-4.47-1.66-9.08,1.91-13.54,.67-2.15-.6-3.51-2.45-4.59-4.28-1.23-2.1-2.2-4.35-3.52-6.4s-3.53-4.04-6.13-4.1c-1.59-.03-3.16,.2-4.76,.08-1.79-.14-3.55-.51-5.26-1.02-3.49-1.04-6.73-2.72-9.9-4.49-1.74-.97-3.2-2.01-4.53-3.53-.69-.79-.64-1.11,.01-1.88,.44-.52,.91-1,1.28-1.58,.87-1.36-1.29-2.61-2.16-1.26h0Z"/><path d="M358.25,619.48c.59,2.59,.26,5.03-1.51,6.98s-4.22,3.35-6.39,4.91c-.55,.39-.81,1.09-.45,1.71,.32,.54,1.16,.85,1.71,.45,2.44-1.76,5.24-3.3,7.2-5.65,.92-1.11,1.65-2.37,1.98-3.78,.41-1.75,.27-3.54-.13-5.28-.36-1.57-2.77-.9-2.41,.66h0Z"/><path d="M343.95,636.7c-7.25,13.81-10.6,29.27-8.36,44.8,.23,1.59,2.64,.91,2.41-.66-2.14-14.81,1.2-29.71,8.1-42.87,.75-1.42-1.41-2.69-2.16-1.26h0Z"/></g><g id="Capa_14"><path d="M77.51,249.73c11.69-9.37,28.09-14.09,42.91-10.81,13.05,2.88,24.81,10.69,32.55,21.6,9.16,12.92,12.27,29.88,10.54,45.44-1.64,14.75-9.75,28.06-16.8,40.78-3.53,6.38-7.06,12.85-9.64,19.68s-3.51,14.38-2.91,21.7,2.54,14.15,5.45,20.71c1.58,3.57,3.46,7,5.58,10.27s4.47,5.95,6.84,8.81c9.63,11.66,20,22.84,27.73,35.92,1.96,3.32,3.78,6.74,5.3,10.29,1.67,3.92,2.78,8.12,3.95,12.21s2.35,8.33,3.66,12.45c.53,1.67,1.08,3.28,1.97,4.8,.83,1.41,1.91,2.67,2.65,4.13,.62,1.21,.15,2.66,.86,3.87,.95,1.62,2.45,3.13,3.72,4.51,2.61,2.86,5.58,5.89,8.96,7.82,7.03,4.01,14.83,6.29,22.51,8.65s15.13,5.21,22.67,7.9,15.58,5.64,23.09,9.16c3.62,1.7,7.16,3.55,10.59,5.6,1.39,.82,2.64-1.34,1.26-2.16-14.21-8.46-30.08-13.38-45.51-19.04-7.68-2.82-15.61-4.89-23.29-7.7-3.74-1.37-7.73-2.91-11.06-5.16-3.52-2.38-6.66-5.76-9.35-9.03-.56-.67-1.35-1.41-1.52-2.28-.13-.63,.03-1.3-.1-1.94-.28-1.32-1.33-2.59-2.08-3.69-2.39-3.51-3.42-7.46-4.6-11.49-2.33-7.97-4.26-16.09-7.95-23.56-6.74-13.66-16.73-25.28-26.5-36.83-5.09-6.02-10.4-11.93-14.25-18.84s-6.44-14.02-7.63-21.62c-1.17-7.43-.74-15.12,1.51-22.31s5.94-13.76,9.51-20.24c7.03-12.78,14.82-25.65,17.44-40.22,1.42-7.87,1.15-16.19-.22-24.04s-3.85-15.5-7.89-22.24c-6.87-11.45-17.73-20.28-30.36-24.63-13.8-4.76-29.43-3.05-42.27,3.73-3.23,1.7-6.25,3.75-9.09,6.03-1.26,1.01,.52,2.76,1.77,1.77h0Z"/><path d="M336.29,685.9c10.02,29.55,32.72,51.82,51.92,75.53,2.34,2.89,5.01,5.48,7.19,8.51s3.97,6.13,5.49,9.45c3.12,6.8,5,14.31,5.57,21.76,.66,8.5,.91,17.03,1.95,25.49,.26,2.09,.76,4.24,.81,6.34s0,4.13,0,6.19c0,3.84,.37,7.65,.69,11.47,2.75,32.1,6.87,64.42,17.78,94.9,5.51,15.4,12.77,29.95,21.58,43.72,6.11,9.56,14.07,21.34,26.7,21.64,1.62,.04,3.24-.16,4.83-.42,1.1-.18,2.04-.51,2.67-1.5,1.32-2.06,.63-5.03,.4-7.28-.15-1.49-.18-2.86-.59-4.31-.51-1.8-1.21-3.54-2-5.24-1.64-3.53-3.73-6.83-5.8-10.12s-4.45-6.7-5.71-10.45c-1.42-4.22-1.83-8.65-1.59-13.08,.22-4.09,1-7.91,2.64-11.67s3.64-6.99,5.75-10.31,4.17-6.47,6.03-9.84c.78-1.41-1.38-2.67-2.16-1.26-3.77,6.8-8.64,13-11.78,20.15-3.08,7.03-3.83,15.06-2.37,22.6s6.45,13.82,10.32,20.48c1.86,3.2,3.84,6.75,4.53,10.43,.24,1.3,.25,2.7,.39,4.02,.13,1.23,.4,2.72,.07,3.93s-1.57,1.07-2.69,1.22c-1.61,.22-3.27,.23-4.89,0-2.89-.4-5.58-1.56-8-3.16-5.11-3.38-8.91-8.51-12.28-13.53-8.7-12.98-16.03-26.79-21.67-41.37-11.47-29.67-16.16-61.32-19.07-92.84-.36-3.91-.7-7.83-1.02-11.75s-.27-7.73-.27-11.61c0-4.27-1.01-8.59-1.39-12.85s-.62-8.3-.87-12.45c-.46-7.62-1.08-15.02-3.3-22.36-2.01-6.62-5.05-12.93-9.19-18.48-2.16-2.89-4.72-5.41-6.99-8.2-2.47-3.05-4.98-6.06-7.51-9.06-4.95-5.88-9.98-11.7-14.85-17.64-9.44-11.52-18.39-23.62-24.7-37.17-1.6-3.44-3-6.96-4.22-10.56-.51-1.52-2.93-.87-2.41,.66h0Z"/><path d="M292.39,555.5c12.98,18.26,33.49,28.39,53.37,37.36,3.1,1.4,6.08,3.82,7.55,6.91s2.44,6.52,1.39,10.06c-.46,1.55,1.95,2.21,2.41,.66,.89-3.01,.69-6.08-.38-9.02-.46-1.27-1.03-2.51-1.63-3.72-.76-1.55-1.95-2.62-3.23-3.78-1.1-1-2.28-2.01-3.61-2.7s-2.63-1.2-3.94-1.79c-2.58-1.18-5.16-2.37-7.72-3.6-10.17-4.9-20.22-10.39-28.93-17.63-4.94-4.11-9.42-8.77-13.15-14.01-.92-1.3-3.09-.05-2.16,1.26h0Z"/><path d="M537.26,267.39c0,2.86,.85,5.59,2.25,8.07,.36,.63,.86,1.23,1.07,1.93,.16,.56,.12,1.12,.14,1.69,.04,1.42,.55,2.7,1.13,3.99,1.15,2.55,3.37,4.8,3.37,7.69,0,.84,0,1.12-.59,1.75-.36,.38-.74,.74-1.16,1.06-.91,.7-1.94,1.2-3.05,1.49-2.32,.6-4.7,.26-6.96-.41s-4.62-1.3-6.97-1.77c-4.66-.94-9.61-1.36-14.23-.01-8.01,2.34-12.23,9.75-15.62,16.8-3.06,6.37-5.54,13.14-9.59,18.98-1.99,2.86-4.47,5.44-7.59,7.04-3.62,1.86-7.8,2.09-11.76,1.47-1.57-.25-2.25,2.16-.66,2.41,3.82,.6,7.77,.6,11.44-.74,3.12-1.14,5.83-3.09,8.06-5.53,4.89-5.35,7.65-12.3,10.61-18.81s6.57-15.3,13.82-18.5c4.54-2,9.75-1.69,14.51-.76s9.45,3.2,14.33,2.5c2.6-.37,4.95-1.64,6.72-3.58,.41-.44,.96-.97,1.15-1.56,.26-.81,.04-1.97,.04-2.83,0-1.58-.98-3.12-1.76-4.45s-1.63-2.7-2.21-4.18c-.27-.69-.5-1.3-.53-2.05-.02-.67,0-1.33-.14-1.99-.36-1.75-1.7-3.19-2.36-4.84-.62-1.56-.96-3.19-.96-4.87s-2.5-1.61-2.5,0h0Z"/><path d="M406.59,271.27c5.87,7.45,15.53,10.6,24.7,8.3,4.53-1.14,8.74-3.54,12.05-6.83,3.99-3.96,6.63-9.26,9.25-14.17,2.86-5.36,5.55-10.82,8.9-15.9,3.08-4.67,6.78-9.59,11.89-12.15,9.37-4.71,21.2-1.22,29.17,4.71,9.32,6.95,16.48,17.35,28.42,20.04,1.57,.35,2.24-2.06,.66-2.41-10.46-2.36-17.25-11.12-25.12-17.66s-18.15-10.8-28.48-8.84c-11.35,2.15-17.98,13.11-23.1,22.49-2.89,5.29-5.53,10.72-8.68,15.87-2.66,4.35-5.8,8.03-10.37,10.45s-9.51,3.24-14.38,2.38c-5.3-.94-9.83-3.83-13.15-8.03-.99-1.26-2.75,.52-1.77,1.77h0Z"/><path d="M471.01,189.23c-18.88,6.76-37.96,12.99-56.71,20.11-6.35,2.41-12.8,4.72-18.77,7.99-5.66,3.09-11.27,7.27-14.14,13.23-1.78,3.7-2.3,7.78-.82,11.68s4.59,7.32,8.23,9.62c1.37,.86,2.62-1.3,1.26-2.16-3.06-1.93-5.77-4.7-7.08-8.12s-.89-6.84,.71-10.04c2.81-5.6,8.16-9.4,13.55-12.29s11.58-5.16,17.5-7.41c8.88-3.38,17.83-6.55,26.8-9.67,10.05-3.5,20.12-6.94,30.14-10.53,1.5-.54,.86-2.96-.66-2.41h0Z"/><path d="M35.24,233.17c16.35-18.87,37.2-33.4,60.27-42.88s47.89-14.07,72.74-14.31c6.36-.06,12.92-.13,19.21,.86,7.34,1.15,14.69,2.18,22.06,3.08,15.26,1.86,30.59,3.18,45.95,3.92,30.23,1.46,60.57,.69,90.68-2.4s59.98-8.49,89.22-16.27c3.65-.97,7.3-1.98,10.93-3.03,1.54-.44,.89-2.86-.66-2.41-29.64,8.51-59.96,14.61-90.59,18.23s-60.89,4.78-91.4,3.72c-15.23-.53-30.44-1.63-45.59-3.27s-28.87-4.59-43.45-4.89c-24.86-.51-49.95,3.28-73.32,11.85-23.03,8.44-44.36,21.58-61.53,39.17-2.17,2.22-4.27,4.51-6.3,6.86-1.05,1.21,.71,2.99,1.77,1.77h0Z"/><path d="M454.9,347.56c-18.55,2.97-36,11.94-49.43,25.05-3.37,3.29-6.47,6.85-9.29,10.62-3.07,4.11-5.65,8.52-8.23,12.94s-5.41,9.16-8.95,13.13c-2.85,3.2-6.06,6.04-9.19,8.95-6.58,6.13-13.76,13.35-13.36,23.04l1.58-1.21c-11.39-3.31-23.35-3.22-35.03-1.79s-22.78,3.59-33.94,6.19c-19.36,4.51-41.56,13.91-48.01,34.64-3.1,9.97-1.34,21.65,5.99,29.35,1.11,1.17,2.88-.6,1.77-1.77-6.28-6.59-7.98-16.45-5.85-25.12s8.53-16.64,15.94-22.02c8.49-6.16,18.53-9.67,28.64-12.16,10.6-2.61,21.47-4.65,32.27-6.2,12.47-1.78,25.34-2.28,37.55,1.28,.76,.22,1.62-.4,1.58-1.21-.35-8.36,5.66-14.69,11.33-20.06,3.04-2.88,6.2-5.63,9.09-8.66,3.4-3.55,6.19-7.58,8.73-11.78s5.11-8.93,8-13.18c2.6-3.83,5.52-7.43,8.71-10.78,6.32-6.66,13.64-12.31,21.66-16.78,9.03-5.02,18.88-8.46,29.09-10.09,1.58-.25,.91-2.66-.66-2.41h0Z"/><path d="M256.48,509.06c6.85,5.71,16.16,1.69,23.83,.32,3.89-.7,8.15-.92,11.58,1.37,3.8,2.54,5.23,7.36,6.72,11.43s3.29,8.43,6.84,11.37,7.78,4.49,11.66,6.77c1.9,1.11,3.75,2.43,5.09,4.2,1.76,2.32,2.28,5.19,2.87,7.97,.99,4.67,2.85,8.57,6.23,11.97,6.75,6.8,17,10.42,21.53,19.3,.73,1.43,2.89,.17,2.16-1.26-4.07-7.97-12.54-11.88-19.18-17.33-3.4-2.79-6.39-6.11-7.64-10.41-.84-2.89-1.11-5.92-2.27-8.71-.86-2.07-2.2-3.86-3.89-5.32-3.5-3.01-7.9-4.6-11.83-6.92-1.96-1.15-3.83-2.51-5.24-4.31s-2.35-3.85-3.16-5.93c-1.63-4.16-2.79-8.67-5.64-12.22-2.69-3.35-6.66-4.91-10.89-4.94-4.84-.03-9.55,1.5-14.26,2.45-4.25,.86-9.16,1.43-12.75-1.56-1.23-1.02-3.01,.74-1.77,1.77h0Z"/><path d="M366.33,588.67c9.38-17.27,30.71-23.88,49.3-22.01,11.97,1.21,23.45,5.6,34.16,10.91,11.25,5.58,21.96,12.19,32.78,18.55,5.72,3.36,11.43,6.72,17.15,10.08,5.11,3.01,10.32,6.08,14.26,10.6,7.13,8.18,9.8,19.27,17.42,27.14,14.11,14.56,36.16,15.09,54.8,18.61,16.23,3.06,37.7,11.45,41.03,29.89,3.06,16.95-11.79,30.28-21.4,42.13-5.1,6.29-9.98,13.11-12.12,21.03-2.63,9.76,.2,19.61,.8,29.43,.3,4.88,0,9.99-2.61,14.26-2.3,3.75-6.03,6.12-10.12,7.54-8.05,2.78-16.88,2.62-24.75,6.03-3.77,1.63-7.06,4.2-9.19,7.75-2.52,4.21-3.03,9.21-2.83,14.02,.22,5.35,1.22,10.63,1.51,15.97s-.38,10.41-2.55,15.25-5.4,8.97-9.53,12.13-8.91,4.77-13.59,6.73c-4.29,1.8-8.57,3.96-11.48,7.72-3.32,4.3-3.99,9.78-6.03,14.68-1.72,4.13-6.61,9.51-11.56,7.02-1.43-.72-2.7,1.43-1.26,2.16,4.39,2.21,9.12,.04,12.17-3.41,3.62-4.09,4.31-9.62,6.25-14.54,4.25-10.78,16.63-11.38,25.22-17.08,8.45-5.61,14.09-15.13,14.86-25.24,.42-5.51-.54-11.01-1.11-16.47s-.99-10.91,1.17-15.85c3.87-8.84,13.99-10.42,22.44-11.91,8.27-1.46,17.34-3.25,22.28-10.79,5.77-8.81,2.64-20.29,1.64-29.96-.51-4.94-.62-9.92,.69-14.75,1.09-4.04,2.97-7.8,5.19-11.33,4.67-7.39,10.76-13.73,16.24-20.5,5.07-6.26,10.01-13.11,11.82-21.1s-.05-16.93-5.23-23.69c-5.5-7.17-13.63-11.88-21.92-15.14-18.86-7.4-40.37-5.35-58.59-14.72-4.46-2.3-8.53-5.3-11.83-9.1-3.74-4.32-6.22-9.54-8.87-14.55s-5.5-9.82-9.67-13.64c-4.52-4.14-9.99-7.1-15.24-10.19-11.51-6.77-22.95-13.66-34.55-20.25-10.71-6.08-21.82-11.75-33.71-15.14-19.14-5.46-41.68-3.98-57.13,9.81-3.41,3.04-6.27,6.66-8.45,10.68-.77,1.41,1.39,2.68,2.16,1.26h0Z"/><path d="M535.62,131.09c12.25-3.12,24.26-7.17,36.61-9.91,6.18-1.37,12.44-2.4,18.76-2.78,3.18-.19,6.38-.23,9.57-.08s5.95,.63,8.98-.04,5.72-2,8.41-3.35c3.01-1.51,5.92-2.78,9.23-3.47,6.29-1.32,12.83-.78,19.11,.29,3.23,.55,6.43,1.24,9.62,1.95s6.4,1.81,9.56,1.81c2.92,0,5.87,.13,8.79,0,1.4-.06,2.85-.51,4.21-.83,1.65-.39,3.28-.84,4.9-1.32,11.28-3.35,22-8.72,33.68-10.64,6.47-1.06,13.29-.99,19.83-.72s13.28,1.03,19.84,2.13,13.58,2.39,20.15,4.27c3.86,1.11,7.87,2.85,11.29,4.93s6.36,4.94,6.98,8.98c.81,5.24-3.37,8.63-7.52,10.92-2.13,1.18-4.47,1.87-6.73,2.76s-4.61,1.87-6.87,2.91c-4.53,2.08-8.93,4.48-12.98,7.39s-7.64,6.19-10.65,10.09c-1.49,1.94-2.81,4-3.91,6.18-.53,1.05-1.01,2.12-1.45,3.21-.24,.59-.42,1.21-.67,1.79-.23,.54-.28,.42-.89,.8-.79,.49-1.1,1.01-1.32,1.9-.3,1.22-.72,2.44-1.2,3.6-.9,2.18-2.08,4.3-3.59,6.12s-3.17,3.26-5.23,4.19c-2.29,1.03-4.52,.89-6.96,.78-10.63-.46-21.03,2.03-30.67,6.4s-18.83,10.7-27.57,17.06-17.07,13.12-26.63,18.03c-4.36,2.24-9.2,4.32-14.19,4.32-5.3,0-9.59-3.03-12.01-7.67-4.97-9.57,2.82-20,6.01-28.82,2.9-8.03,3.1-17.08-1.34-24.58-4.06-6.84-10.98-11.55-18.13-14.71-7.53-3.32-15.8-5.41-24.01-6.07-5.43-.43-9.94,3.39-14.17,6.21-2.22,1.48-4.59,2.43-7.31,2.36-2.39-.06-4.68-.89-6.78-2-4.19-2.21-7.74-5.4-11.74-7.91-1.37-.86-2.62,1.3-1.26,2.16,7.9,4.97,16.61,14.02,26.68,8.61,4.66-2.5,8.82-7.4,14.57-6.93,4.08,.33,8.17,1.11,12.14,2.12,8.01,2.05,16.13,5.33,22.37,10.9s9.41,13,8.44,21.27c-.6,5.08-2.5,9.71-4.59,14.33s-4.32,9.34-4.87,14.46,1.28,10.49,4.98,14.23c3.47,3.51,8.24,4.94,13.1,4.41,5.1-.56,9.9-2.69,14.39-5.08,4.79-2.55,9.2-5.55,13.6-8.72,9.06-6.53,17.89-13.42,27.41-19.28,9.1-5.6,18.92-10.19,29.53-11.92,2.74-.45,5.51-.69,8.29-.74,2.59-.05,5.26,.4,7.83,.1,4.71-.54,8.48-3.63,11.13-7.4,1.42-2.02,2.51-4.25,3.35-6.56,.2-.54,.38-1.09,.55-1.64,.11-.35,.16-1.08,.33-1.31,.43-.57,1.46-.64,1.87-1.48,.51-1.08,.79-2.31,1.27-3.42,.55-1.25,1.17-2.47,1.85-3.66,1.22-2.13,2.65-4.12,4.26-5.98,6.69-7.71,15.93-12.82,25.25-16.67,4.62-1.91,9.36-3.24,13.38-6.34,1.88-1.45,3.53-3.22,4.49-5.41s.94-4.59,.38-6.88c-2.06-8.33-11.53-11.69-18.68-14.36-3-1.12-6.3-1.66-9.43-2.35-3.29-.73-6.59-1.39-9.91-1.98-6.62-1.17-13.3-2.04-20.02-2.43s-13.62-.36-20.39,.33c-5.92,.6-11.7,2.4-17.29,4.35s-11.41,4.28-17.22,6.11c-2.94,.92-5.92,1.74-8.93,2.36s-6.36,.23-9.41,.23-6.42-1.04-9.53-1.72c-3.35-.74-6.71-1.46-10.1-2.03-6.29-1.04-12.72-1.54-19.04-.39-3.13,.57-6.14,1.56-8.98,3s-5.79,3.03-8.95,3.84-6.24,.22-9.44,.08-6.53-.08-9.79,.14c-12.74,.87-25.12,4.2-37.34,7.72-5.98,1.72-11.95,3.48-17.99,5.01-1.56,.4-.9,2.81,.66,2.41h0Z"/><path d="M1542.49,855.79c1.18-17.42,5.06-35.86,15.39-50.3,4.86-6.79,11.34-12.41,19.05-15.7,5.42-2.32,11.25-3.39,16.92-4.9s10.53-3.47,15.29-6.42,8.86-6.35,12.94-9.95c4.64-4.1,9.18-8.31,13.76-12.47l14.05-12.78c4.28-3.89,8.43-8.09,13.1-11.51,4-2.93,8.65-5.22,13.73-4.7,4.21,.43,8.3,2.8,9.5,7.06,.72,2.58,.63,5.31,1.3,7.9,.49,1.89,1.31,3.72,2.4,5.34,2.17,3.24,5.29,5.77,8.8,7.43,7.52,3.56,16.26,3.43,23.59-.53,8.31-4.48,13.96-12.66,17.3-21.3,.85-2.2,1.54-4.46,2.1-6.75l-1.21,.92c6.12,.47,9.7,6.48,11.1,11.86,1.99,7.65-.19,15.68,.54,23.45,.36,3.81,1.42,7.41,3.25,10.77,1.72,3.16,3.96,6,6.24,8.78s4.73,5.6,6.8,8.63,3.68,6.01,5.1,9.23c5.75,13.08,6.63,28.18,3.41,42.02-3.21,13.8-10.62,26.36-20.27,36.64-4.85,5.17-10.26,9.81-16.08,13.86s-11.4,7.29-17.81,9.47c-5.86,1.99-12.33,3.18-18.49,2.04s-11.27-4.92-14.35-10.6c-3.32-6.12-4.92-13.19-9.89-18.32s-11.7-7.44-18.36-8.94c-15.81-3.56-32.46-4.24-48.56-2.69-8.19,.79-16.32,2.18-24.3,4.19-4.01,1.01-7.98,2.17-11.9,3.49s-7.89,2.92-11.88,4.26c-6.62,2.23-15.39,4.5-21.72,.29-3.96-2.63-6.86-7.89-6.24-12.71,.29-2.24,1.48-4.12,3.4-5.3,1.37-.84,.11-3-1.26-2.16-4.61,2.84-5.55,8.41-3.94,13.29,1.74,5.26,5.88,9.63,11.32,10.98,8.34,2.07,16.79-1.05,24.53-3.92s16.22-5.49,24.62-7.26c16.9-3.54,34.38-4.32,51.53-2.32,7.69,.9,15.88,2,23.01,5.19,3.24,1.45,6.26,3.4,8.63,6.07s3.96,6.14,5.38,9.47c2.74,6.43,5.5,12.88,11.77,16.61,5.44,3.23,12.01,3.76,18.16,2.93,13.85-1.86,26.34-9.99,36.7-18.97,11.03-9.55,20.08-21.52,25.38-35.17,5.33-13.72,6.47-29.14,2.89-43.45-1.76-7.05-4.72-13.84-8.85-19.83s-10.13-11.45-13.46-18.32c-3.86-7.96-1.89-16.78-2.01-25.25-.09-6.26-1.9-13.12-6.69-17.47-2.17-1.97-4.79-3.14-7.71-3.36-.53-.04-1.08,.42-1.21,.92-2.24,9.16-6.82,18.28-14.44,24.11-6.88,5.26-15.65,6.73-23.75,3.47-3.56-1.43-6.88-3.82-9.02-7.03-1.09-1.63-1.87-3.43-2.29-5.34-.59-2.69-.48-5.52-1.43-8.14-1.45-3.98-4.99-6.6-9.02-7.61-4.62-1.16-9.26-.21-13.43,1.96-4.75,2.47-8.68,6.26-12.61,9.83l-14.42,13.11c-4.68,4.26-9.37,8.52-14.05,12.78-4.15,3.77-8.3,7.56-12.84,10.85-4.57,3.32-9.49,6.06-14.88,7.79s-11.34,2.78-16.89,4.58c-8.4,2.73-15.76,7.7-21.47,14.43-11.47,13.5-16.26,31.66-18.17,48.92-.24,2.17-.43,4.34-.58,6.52-.11,1.61,2.39,1.6,2.5,0h0Z"/><path d="M807.68,402.94c-23.47,33.78-57.85,62.59-70.63,102.82-9.79,30.83-6.55,70.22,23.12,89.04,32.86,20.84,75.14,6.51,111.18,14.17,5.28,1.12,11.12,2.49,15.77,5.32,5.52,3.36,8.43,8.91,11.03,14.59,4.97,10.89,9.05,22.22,12.31,33.74,6.58,23.2,9.68,47.27,9.28,71.38-.18,11.14-.93,22.4,1.18,33.42,1.87,9.82,6.52,18.63,11.45,27.23,5.1,8.91,10.65,17.89,12.94,28.03s.29,19.69,1.34,29.52c.85,7.87,4.07,15.01,11.01,19.25,7.22,4.42,16.31,5.3,24.57,6.1,14.41,1.39,33.85,.77,40.58-14.71,3.69-8.48,2.72-18.17,6.23-26.76,3.04-7.46,8.14-13.86,13.77-19.53,11.35-11.43,25.06-20.3,35.9-32.28,12.09-13.36,16.44-28.82,15.55-46.71-.54-10.89-2.35-21.71-2.37-32.64-.02-12.01,2.98-22.65,8.81-33.13,12.16-21.86,26.04-42.9,39.08-64.25,6.24-10.21,13.41-20.29,18.66-31.05,3.54-7.25,5.28-16.07-1-22.39-5.88-5.91-15.04-6.86-22.64-9.2-9.03-2.78-17.64-6.83-25.6-11.91-16.33-10.42-29.91-25.19-38.9-42.36-4.4-8.4-7.59-17.3-9.62-26.55l-1.54,1.54c22.24,6.97,30.39,32.86,46.08,47.82,7.4,7.06,16.21,10.71,26.48,9.34,4.8-.64,9.94-2.41,14.79-1.33s7.78,5.22,11.36,8.49c4.29,3.91,9.58,5.37,15.19,3.62,17.01-5.3,18.99-26.8,34.42-33.86,.73-.33,.8-1.45,.25-1.96l-22.13-20.86c-3.19-3.01-10.1-7.27-6.36-12.04,2.11-2.68,6.39-3.76,9.62-3.63,8.16,.32,13.75,8.72,19.78,13.25,5.6,4.2,12.11,5.73,19.02,5.83,8.04,.12,16.07-1.43,24.1-.65,10.39,1,17.32,7.38,23.98,14.84,11.53,12.93,21.79,26.99,30.65,41.89,10.3,17.33,18.6,35.76,24.88,54.91,.2,.61,.87,1.11,1.54,.87,20.69-7.25,23.82-32.17,27.26-50.82,2-10.85,3.86-22.38,9.34-32.12,6.73-11.98,19.86-17.56,33.16-12.93,17.57,6.12,29.46,23.27,41.69,36.28,13.57,14.43,28.29,27.77,43.97,39.87,9.92,7.65,23.93,16.02,37.06,12.79,10.25-2.52,14.96-13.21,11.65-22.81-3.72-10.77-12.77-18.91-18.67-28.44-3.22-5.2-5.94-11.25-4.77-17.51,1.71-9.1,10.55-13.8,18.48-16.71,9.01-3.31,18.45-5.61,27.66-8.32l14.66-4.31c3.98-1.17,6.14-1.89,8.78-5.22,8.49-10.71,4.58-26.78-.28-38.15-3.79-8.88-8.64-17.35-10.61-26.9-2.36-11.44,1.43-20.56,10.14-28.1,8.04-6.97,16.55-13.45,24.83-20.13l12.02-9.71c3.01-2.44,7.94-5.07,9.55-8.58,1.72-3.77,2.61-8.31,3.87-12.26,1.39-4.36,2.73-8.75,3.64-13.23,1.43-7.06,1.92-14.62-.93-21.41-5.14-12.27-18.44-16.51-29.63-21.47-5.6-2.48-11.72-5.34-15.39-10.47-5.59-7.81-2.74-17.49,3.98-23.57,8.51-7.7,20.25-7.85,30.9-5.48,10.44,2.33,19.74,5.4,26.1,14.43,8.76,12.43,11.95,27.99,25.44,36.69,9.87,6.36,23.82,5.78,28.38-6.66s-2.92-27.28,.52-40.56c3.96-15.33,22.46-15.16,32.52-24.48s6.33-23.97-2.55-32.55c-12.56-12.15-32.07-9.89-48-9.04-42.57,2.28-85.42-.78-127.23-9.15-10.48-2.1-20.89-4.52-31.21-7.28-9.71-2.59-19.32-5.98-29.26-7.57-9.27-1.48-18.06-.31-27.22,1.3s-19.2,2.49-28.95,2.2c-36.72-1.07-71.6-14.42-107.52-20.62-16.09-2.78-32.56-4.16-48.81-1.97-18.91,2.55-34.72,11.63-52.29,18.25-9.41,3.55-18.96,5.33-29.03,4.77s-19.81-2.7-29.77-3.54c-16.79-1.41-32.28,2.97-47.31,10.18s-29.97,17.03-46.01,23.36c-8.54,3.37-17.75,6.03-26.99,6.13-11.3,.13-18.97-5.96-28.21-11.36-31.89-18.65-70.54-4.77-101.25,9.43-12.4,5.73-30.28,12.44-34.64,26.98-2.4,8,1.42,15.99,1.35,24.04-.08,8.54-3.03,16.82-7.76,23.87-9.2,13.71-25.09,22.62-41.76,21.05l1.08,1.88c5.17-6.95,4.48-17.24-1.52-23.54-6.08-6.38-16.15-6.18-23-1.13-2.28,1.68-6.22,5.55-6.29,8.71-.04,2.02,1.52,4.49,2.13,6.45,1.19,3.81,2.03,7.74,2.49,11.71,1.5,13.04-.89,26.57-6.98,38.21-4.86,9.29-16.1,18.02-14.83,29.49,.89,8.02,7.76,12.99,14.75,15.73,10.79,4.24,22.57,3.99,33.97,4.47,15.92,.67,31.83,1.35,47.75,2.02,3.86,.16,12.58-1.3,12.9,4.07,.29,4.94-4.04,8.3-8.41,9.27-7.77,1.73-17.02-.61-24.81-1.41l-55.05-5.65c-1.6-.16-1.59,2.34,0,2.5l45.22,4.64c7.21,.74,14.42,1.48,21.63,2.22,5.51,.56,11.45,1.41,16.71-.85,4.98-2.14,11.34-12.29,4.64-16.42-1.37-.84-3.32-.47-4.86-.53l-11.94-.51-21.89-.93c-14.16-.6-28.85-.13-42.89-2.17-8.72-1.26-21.05-4.37-24.51-13.64-2.29-6.12,.73-12.02,4.22-16.94s7.48-9.82,10.26-15.48c4.63-9.43,7.04-19.91,7.05-30.41,0-6.26-.83-12.57-2.56-18.59-.94-3.26-2.96-6.41-1.18-9.71,1.45-2.69,4.24-4.77,6.97-6.02,14.59-6.64,26.99,10.89,17.87,23.17-.62,.84,.25,1.8,1.08,1.88,28.63,2.69,55.7-24.92,51.58-53.63-.64-4.48-2.09-8.96-1.7-13.53,.41-4.86,2.91-9.13,6.26-12.57,5.83-5.99,13.6-9.72,21.04-13.3,17.27-8.31,35.22-16.07,54.16-19.6,19.27-3.59,38.23-1.57,54.97,9.08,7.37,4.69,14.23,8.96,23.18,9.46,8.38,.48,16.94-1.48,24.85-4.11,31.42-10.49,58.06-36.75,92.81-35.81,19.32,.52,37.78,6.92,57.01,1.6,17.61-4.87,33.07-15.24,51.01-19.24,35.31-7.86,71.49,3.17,105.67,11.44,16.86,4.08,33.89,7.84,51.23,9.19,8.43,.65,16.93,.71,25.35-.11,10.14-.99,20.14-4.03,30.37-3.79s19.99,3.57,29.7,6.31,20.05,5.33,30.18,7.54c19.76,4.3,39.78,7.42,59.92,9.36s41.41,2.72,62.15,2.18c9.9-.26,19.78-1.2,29.68-1.28s20.35,.89,28.29,6.97c6.53,5,11.67,13.72,10.05,22.18s-9,12.18-15.91,15.25c-11.89,5.3-22.2,10.4-23.22,24.78-.85,11.99,6.85,30.6-3.1,40.24-7.26,7.03-17.62,3.18-24.43-2.39s-10.13-12.52-13.79-19.91c-3.24-6.54-6.55-13.27-11.65-18.59-5.83-6.08-13.73-8.17-21.7-10.14-14.85-3.67-33.32-2.31-40.91,13.2-5.44,11.1,.94,21.44,10.7,27.04,10.52,6.03,24.37,8.36,32.31,18.22,6.55,8.13,5.69,18.85,3.37,28.37-1.03,4.21-2.36,8.34-3.69,12.47-1.5,4.66-2.26,9.22-6.02,12.56-8.15,7.24-17.06,13.78-25.54,20.64-7.34,5.93-15.74,11.52-22.03,18.61-11.82,13.34-5.85,30.43,.74,44.74,3.77,8.19,7.61,16.25,8.62,25.33,.78,7.02-.03,16.87-6.52,21.28-3.98,2.71-10.54,3.46-15.13,4.81l-15.58,4.58c-7.85,2.31-16.05,4.21-23.38,7.95-10.72,5.47-16.64,15.7-12.3,27.46,4.02,10.87,12.98,19.03,18.94,28.77,2.89,4.72,5.43,10.33,3.97,15.97-1.97,7.63-8.96,11.26-16.44,10.9-17.48-.84-32.04-14.73-44.51-25.48-14.89-12.84-28.02-27.1-41.34-41.5-9.96-10.76-22.65-23.24-38.19-24.22-10.49-.66-20.1,4.64-25.86,13.23-12.09,18.01-10.45,42.11-17.32,62.1-3.4,9.88-9.14,18.72-19.38,22.31l1.54,.87c-12.23-37.35-32.36-73.11-59.58-101.64-6.03-6.32-12.73-10.78-21.57-11.77s-18.09,1.03-27.14,.5c-5.14-.3-9.96-1.58-14.24-4.51s-7.5-6.75-11.48-9.86c-5.18-4.03-11.08-6.01-17.43-3.44-4.62,1.87-9.28,7.32-5.53,12.02s9.68,9.12,14.28,13.46l14.99,14.13,.25-1.96c-13.58,6.21-16.48,22.8-28.4,30.91-3.62,2.46-8.27,4.22-12.66,3.01s-7.05-5.06-10.2-8.01c-4.86-4.55-10.41-5.25-16.82-4.27-6.99,1.07-13.42,2.45-20.21-.18-4.92-1.9-9.1-5.34-12.72-9.11-7.63-7.95-13.29-17.56-19.97-26.28s-14.59-17-25.43-20.4c-.95-.3-1.73,.65-1.54,1.54,7.5,34.04,31.73,63.59,63.52,77.89,7.54,3.39,15.35,5.26,23.21,7.67,4.67,1.43,9.82,3.45,12.5,7.84,3.93,6.45,.49,14.21-2.81,20.1-11.74,20.91-25.03,41.09-37.53,61.55-10.73,17.57-25.29,35.75-27.39,56.88s5.84,42.56,.19,63.34c-8.48,31.23-44.53,42.33-60.09,68.84-3.95,6.74-5.59,13.83-6.66,21.5-1.49,10.73-5.19,19.47-16.13,23.11-8.33,2.77-17.55,2.36-26.16,1.44-9.51-1.02-21.12-2.25-27.34-10.46s-4.65-19.2-4.62-28.69c.04-8.99-1.59-17.22-5.29-25.44s-8.97-16.18-13.25-24.38c-5.55-10.64-8.13-21.43-8.41-33.44-.26-11.32,.56-22.62,.05-33.94-.48-10.68-1.66-21.33-3.5-31.86-3.72-21.22-10-42.65-19.6-62-4.35-8.76-10.41-13.49-19.72-16.3-8.48-2.56-17.35-3.73-26.17-4.27-18.97-1.15-38.03,.78-56.98-.95s-37.43-8.24-49.1-23.88c-10.33-13.85-13.45-31.75-12.23-48.67,3-41.7,32.54-72.79,57.66-103.56,6.07-7.43,11.96-14.99,17.44-22.87,.92-1.32-1.25-2.58-2.16-1.26h0Z"/><path d="M1449.11,618.4c10.39,12.08,16.74,26.86,24.84,40.44,7.77,13.03,17.71,24.43,30.38,32.91,6.92,4.63,14.48,8.29,22.42,10.82,.86,.27,1.87-.65,1.54-1.54-3.15-8.54-7.22-16.72-12.19-24.34-2.43-3.73-5.08-7.33-7.91-10.77s-6.02-6.65-8.7-10.24c-2.81-3.76-4.51-7.82-5.62-12.36-1.04-4.24-1.83-8.59-3.79-12.54-3.02-6.08-8.53-10.64-14.75-13.18-7.1-2.9-15.19-3.03-22.21,.15-1.46,.66-.19,2.82,1.26,2.16,11.9-5.4,27.45,.3,33.39,11.84,1.93,3.74,2.65,7.97,3.64,12.02s2.41,8.06,4.82,11.61,5.32,6.62,8.1,9.82,5.56,6.79,8.04,10.4c5.56,8.1,10.11,16.88,13.51,26.1l1.54-1.54c-14.05-4.47-26.75-12.66-36.94-23.28-10.73-11.19-17.54-25-25-38.41-4.27-7.66-8.86-15.16-14.59-21.83-1.05-1.22-2.81,.55-1.77,1.77h0Z"/><path d="M1558.1,708.38l21.93,3.28c1.57,.24,2.25-2.17,.66-2.41l-21.93-3.28c-1.57-.24-2.25,2.17-.66,2.41h0Z"/><path d="M1599.41,711.06c5,1.37,10.53,.46,14.79-2.52,.55-.39,.81-1.09,.45-1.71-.32-.55-1.15-.84-1.71-.45-3.74,2.61-8.46,3.47-12.87,2.26-1.55-.43-2.22,1.99-.66,2.41h0Z"/><path d="M1640.39,710.32l2.19,3.14c.19,.27,.42,.48,.75,.57,.3,.08,.7,.05,.96-.13s.5-.43,.57-.75,.06-.69-.13-.96l-2.19-3.14c-.19-.27-.42-.48-.75-.57-.3-.08-.7-.05-.96,.13s-.5,.43-.57,.75-.06,.69,.13,.96h0Z"/><path d="M1541.78,638.35l32.79-31.64c2.1-2.03,4.36-4.51,7.38-5.06,2.37-.43,4.59,.64,6.22,2.31,4.21,4.31,4.08,10.29,2.6,15.73-.88,3.24-2.1,6.38-2.98,9.63s-1.29,6.68-1.31,10.11c-.03,6.65,1.23,13.66-.89,20.11-1.54,4.69-5.1,9.81-10.4,10.44-3.16,.37-6.14-1.05-8.76-2.66-2.83-1.73-5.54-3.67-8.2-5.65-6.12-4.57-11.83-9.69-17.07-15.24-2.04-2.16-3.82-4.53-4.72-7.4-.72-2.29-.84-4.95,1.47-6.33,1.38-.83,.12-2.99-1.26-2.16-4.99,2.99-3.12,9.43-.61,13.46,1.73,2.78,4.16,5.1,6.48,7.39,2.64,2.62,5.4,5.13,8.25,7.52s5.85,4.71,8.91,6.88,5.9,4.24,9.22,5.6c2.9,1.2,6.15,1.54,9.13,.43,2.59-.96,4.75-2.74,6.44-4.91,4.16-5.35,4.93-11.89,4.77-18.46-.1-4.04-.44-8.08-.16-12.12,.27-3.79,1.36-7.38,2.54-10.98,2.06-6.29,4.05-12.83,1.07-19.16-2.32-4.93-7.54-8.71-13.07-6.45-3.21,1.31-5.63,4.04-8.08,6.39l-9.09,8.77-18,17.37-4.45,4.3c-1.16,1.12,.61,2.89,1.77,1.77h0Z"/><path d="M1596.16,520c-.2,12.82,2.34,25.64,7.25,37.48,4.88,11.77,11.98,22.61,20.95,31.67,5.1,5.15,10.8,9.7,16.96,13.53,.55,.34,1.41,.14,1.71-.45,2.9-5.68,1.35-12.05-1.93-17.2-3.52-5.53-8.73-9.23-13.89-13.08s-10.19-7.92-12.52-13.96c-2.56-6.61-2-13.96-4.43-20.6-2.17-5.91-6.71-11.71-13.48-11.98-1.61-.06-1.61,2.44,0,2.5,5.69,.22,9.47,5.55,11.19,10.48,2.16,6.15,1.86,12.86,3.88,19.05s6.02,10.34,10.79,14.13,9.77,6.78,13.68,11.23c4.22,4.8,7.76,11.92,4.56,18.17l1.71-.45c-21.28-13.22-36.45-35.38-41.83-59.78-1.5-6.81-2.2-13.77-2.09-20.74,.03-1.61-2.47-1.61-2.5,0h0Z"/><path d="M1115.62,823.56c-7.1-11.72-7.76-26.16-4.63-39.24,3.36-14.05,10.97-26.64,19.03-38.46,1.01-1.48,2.03-2.96,3.06-4.43s1.9-2.95,3.19-4.1c2.02-1.81,4.69-1.81,7.01-.58s4.18,3.33,5.27,5.72c1.31,2.87,1.09,6.12,.43,9.12-.78,3.57-2.21,6.94-3.48,10.35s-2.25,6.82-2.78,10.4c-1.11,7.43-.78,14.96-1.4,22.42s-2.51,14.38-7.45,20.06c-4.25,4.88-10.46,8.33-17.01,6.3-1.54-.48-2.2,1.94-.66,2.41,13.05,4.04,24.04-9.5,26.51-20.93,1.72-7.96,1.31-16.15,1.87-24.23,.28-4.07,.84-8.12,2.05-12.03,1.12-3.64,2.7-7.12,3.86-10.75,1.1-3.42,1.91-7.18,1.36-10.78-.44-2.89-1.94-5.61-3.97-7.69-1.91-1.97-4.45-3.49-7.22-3.73-3-.26-5.56,1.25-7.39,3.54-2.4,3.01-4.5,6.32-6.65,9.52s-4.36,6.63-6.38,10.04c-3.99,6.75-7.5,13.82-9.96,21.28-4.49,13.6-5.23,29.05,.73,42.33,.73,1.62,1.56,3.19,2.48,4.7,.83,1.37,2.99,.12,2.16-1.26h0Z"/><path d="M344.37,466.19c4.43,3.34,8.46,7.22,11.98,11.5,1.74,2.11,3.3,4.32,4.8,6.6,.38,.57,.61,.86,1.31,.98,.78,.13,1.67,.06,2.47,.08l4.93,.16c.7,.02,1.22-.59,1.25-1.25,.44-9.03-6.13-17.69-14.94-19.71-1.57-.36-2.23,2.05-.66,2.41,7.78,1.78,13.49,9.33,13.1,17.3l1.25-1.25-7.4-.25,1.08,.62c-4.77-7.49-10.83-14.01-17.91-19.35-1.28-.97-2.53,1.2-1.26,2.16h0Z"/><path d="M374.25,504.24c2.58,4.35,6.75,7.62,11.58,9.11,1.54,.48,2.2-1.94,.66-2.41-4.21-1.3-7.84-4.17-10.09-7.96-.82-1.38-2.98-.13-2.16,1.26h0Z"/><path d="M412.19,515.01c.03-.13,.08-.26,.12-.39,.08-.23-.14,.27-.02,.05,.03-.06,.06-.12,.09-.18,.06-.11,.13-.21,.19-.31,.15-.23-.12,.13-.03,.04,.04-.04,.07-.09,.11-.13,.09-.1,.18-.2,.28-.29,.05-.05,.1-.09,.15-.13,.19-.17-.24,.17-.04,.03,.22-.15,.44-.28,.67-.4,.18-.09,0,0-.08,.03,.06-.02,.13-.05,.19-.07,.13-.05,.26-.09,.39-.12s.27-.04,.4-.08c-.08,.02-.31,.03-.1,.02,.07,0,.13-.01,.2-.01,.12,0,.25,0,.37,0,.07,0,.13,.02,.2,.02-.35,0-.19-.03-.07,0,.13,.03,.26,.06,.39,.1,.05,.02,.11,.04,.16,.06,.09,.03,.04,.01-.14-.06,.04,.02,.08,.04,.12,.06,.59,.28,1.38,.18,1.71-.45,.3-.56,.18-1.41-.45-1.71-1.46-.7-3.05-.64-4.5,.04-1.32,.61-2.39,1.82-2.74,3.24-.16,.63,.21,1.39,.87,1.54s1.37-.19,1.54-.87h0Z"/><path d="M441.27,521.43h11.01c1.61,0,1.61-2.5,0-2.5h-11.01c-1.61,0-1.61,2.5,0,2.5h0Z"/><path d="M461.99,545.3l2.77,11c.39,1.56,2.8,.9,2.41-.66l-2.77-11c-.39-1.56-2.8-.9-2.41,.66h0Z"/><path d="M826.49,367.34c1.61,0,1.61-2.5,0-2.5s-1.61,2.5,0,2.5h0Z"/><path d="M436.36,163.77c8.4-2.38,16.58-5.54,24.4-9.44,2.37-1.18,6.82-4.01,9.44-2,1.43,1.1,1.32,3.34,1.58,4.95s.8,3.28,1.49,4.82c2.72,6.02,8.55,10.71,15.03,12.06,1.61,.34,3.26,.48,4.9,.39,1.9-.09,4.16-.58,5.93,.33,2.72,1.39,1.88,5.28,.26,7.2-2.73,3.21-7.99,2.81-11.76,2.61-4.23-.22-8.76-.32-12.4,2.17-1.32,.9-.07,3.07,1.26,2.16,7-4.79,16.6,1.12,23.55-4.14,2.44-1.85,3.8-5.2,3.21-8.22-.78-3.98-4.67-4.93-8.2-4.72-3.81,.23-7.28-.04-10.73-1.82-3.26-1.68-6.05-4.25-7.92-7.41-.9-1.52-1.57-3.16-1.97-4.88-.44-1.88-.33-3.93-1.23-5.68-1.74-3.39-5.77-3.27-8.9-2.18-2.11,.73-4.05,1.85-6.05,2.82-2.39,1.17-4.82,2.27-7.28,3.29-4.98,2.06-10.08,3.82-15.27,5.29-1.55,.44-.89,2.85,.66,2.41h0Z"/><path d="M393.48,257.94l8.18,9.24c.45,.51,1.31,.46,1.77,0,.5-.5,.45-1.26,0-1.77l-8.18-9.24c-.45-.51-1.31-.46-1.77,0-.5,.5-.45,1.26,0,1.77h0Z"/><path d="M532.38,257.07c3.1,1.98,5.3,5.45,5.71,9.05,.08,.67,.52,1.25,1.25,1.25,.62,0,1.33-.57,1.25-1.25-.52-4.58-3.05-8.72-6.95-11.21-.57-.36-1.38-.12-1.71,.45-.35,.6-.12,1.35,.45,1.71h0Z"/><path d="M30.86,238.11c-2.89,6.75-.29,14.7,5.43,19.11,6.36,4.9,15.1,5.25,22.48,2.73,4.55-1.55,8.7-4.05,12.51-6.95,1.26-.96,.02-3.13-1.26-2.16-5.77,4.4-12.56,8.08-19.99,8.17-6.77,.08-13.66-2.92-16.61-9.3-1.48-3.2-1.81-7.05-.4-10.33,.63-1.46-1.53-2.74-2.16-1.26h0Z"/><path d="M529.75,128.95c-4.92-1.69-10.08-.41-14.74,1.49-3.89,1.58-8.35,3.33-11.04,6.72-2.28,2.86-2.41,7.01,.44,9.56,2.65,2.38,6.66,2.98,10.09,2.7,4.45-.37,10.28-2.45,14.09,.92,1.2,1.06,2.98-.7,1.77-1.77-6.06-5.37-14.07-.2-20.99-2.05-2.86-.76-5.66-3.08-4.33-6.35s5.59-5.09,8.66-6.47c4.78-2.14,10.18-4.12,15.39-2.34,1.53,.52,2.18-1.89,.66-2.41h0Z"/><path d="M912.23,393.97c2.32,16.36,13.59,31.32,30,35.46,8.23,2.08,16.81,1.28,24.44-2.44,3.97-1.94,7.79-4.47,12.15-5.46,2.18-.49,4.38-.44,6.51,.25s4.26,1.93,6.39,2.88c17.01,7.63,36.19,6.09,54.16,3.56,4.18-.59,8.58-.94,12.62-2.22,3.56-1.13,6.88-3.4,7.78-7.24,1-4.27-1-8.64-3.25-12.16s-4.87-6.6-7.91-9.32-6.55-5.14-10.28-6.97c-3.46-1.7-7.12-2.83-10.82-3.9-6.27-1.82-14.13-3.7-17.37-10.03-1.03-2.01-1.33-4.29-1.98-6.44-.54-1.78-1.33-3.4-2.53-4.83-2.13-2.55-5.33-4.2-8.59-4.7s-6.75,.09-9.51,2.04c-3.31,2.33-5.85,5.89-10.3,5.74-3.87-.13-7.34-2.74-10.09-5.24-3.18-2.89-5.82-6.27-8.7-9.45-6.01-6.62-12.97-12.4-20.57-17.12-3.63-2.26-7.44-4.43-11.4-6.03-2.97-1.2-6.87-2.07-9.83-.38-3.14,1.8-3.52,5.65-1.81,8.58,1.95,3.35,5.37,5.42,7.74,8.42,2.54,3.21,3.71,7.5,3.2,11.56-.1,.77-.06,1.79-.83,2.05-.82,.28-1.76-.09-2.47-.5-1.8-1.05-2.64-2.81-3.24-4.73s-1.1-4.09-2.18-5.91-2.66-3.09-4.47-4.01c-3.62-1.84-7.78-2.74-11.81-3.01-8.22-.55-16.73,1.87-23.27,6.92-3.31,2.56-5.93,5.95-5.92,10.31,0,2.34,.65,4.62,1.26,6.85,.55,2.02,1.22,4.12,1,6.24-.28,2.6-2.09,6.7-5.34,5.89-1.56-.39-2.23,2.02-.66,2.41,3.19,.79,5.91-1.2,7.29-3.99,1.77-3.57,1.26-7.08,.25-10.79-.62-2.3-1.38-4.64-1.28-7.05,.08-2.09,.98-3.96,2.35-5.52,2.65-3.02,6.45-5.21,10.17-6.64,7.58-2.91,16.72-3.18,24.18,.28,1.93,.89,3.52,2.12,4.48,4.07s1.26,4,2.01,5.95c1.18,3.06,4.11,6.27,7.73,5.76,.76-.11,1.52-.39,2.12-.89,.75-.62,.85-1.68,1-2.6,.32-1.92,.32-3.84,.03-5.77-.58-3.86-2.42-7.41-5.19-10.15-1.36-1.35-2.82-2.62-4.12-4.03-1.1-1.19-2.41-2.67-2.57-4.36-.39-3.96,4.4-4.04,7.03-3.38,3.87,.97,7.55,3.21,10.97,5.2,3.79,2.21,7.43,4.67,10.87,7.38s6.75,5.72,9.81,8.91c2.9,3.03,5.47,6.35,8.4,9.34,5,5.09,12.49,10.64,19.73,6.39,3.28-1.93,5.46-5.3,9.33-6.18,3.13-.71,6.53,.07,9.17,1.84,1.33,.89,2.45,2.08,3.23,3.47,1.05,1.88,1.36,4.07,1.93,6.12,.96,3.4,2.84,6.23,5.65,8.37,5.51,4.2,12.72,5.36,19.16,7.47,7.71,2.53,14.58,7.21,19.77,13.45,2.63,3.16,5.3,6.96,6.05,11.08,.39,2.12,.07,4.38-1.38,6.04-1.13,1.31-2.72,2.12-4.34,2.67-3.85,1.3-8.08,1.63-12.08,2.21-4.56,.65-9.14,1.23-13.73,1.61-9.05,.76-18.27,.84-27.2-.97-4.39-.89-8.7-2.21-12.77-4.09s-7.65-3.95-12.16-3.45c-4.2,.46-7.97,2.48-11.65,4.42s-7.54,3.71-11.78,4.44c-8.17,1.41-16.85-.48-23.87-4.82s-12.16-10.94-15.27-18.38c-1.49-3.56-2.49-7.32-3.03-11.14-.22-1.59-2.63-.91-2.41,.66h0Z"/><path d="M1134.45,322.65c-7.16,.89-13.49,6.05-15.21,13.17-.88,3.61-.6,7.5,.78,10.94,.7,1.75,1.67,3.31,2.86,4.77,1.41,1.73,2.92,3.31,3.59,5.49,.62,2.02,.72,4.15,1.01,6.24s.83,4.31,1.52,6.39c1.41,4.23,3.42,8.23,5.44,12.19,1.89,3.72,4.07,6.91,7.89,8.85,3.43,1.74,7.33,2.5,11.14,2.78s8.29-.14,11.77-2.26c2.95-1.79,5.34-4.85,5.92-8.3,1.22-7.26-5.37-11.06-10.85-13.91-3.02-1.57-5.93-3.2-8.19-5.82-2.39-2.77-3.94-6.3-4.44-9.92-.24-1.77-.24-3.62,.07-5.38,.15-.84,.34-1.78,.87-2.47s1.49-1.08,2.19-1.63c1.48-1.16,1.72-2.72,1.62-4.5-.09-1.58,.13-2.56,1.44-3.51,2.07-1.49,5-2.34,5.84-5.03,1.18-3.76-2.62-6.69-5.49-8.28-6.24-3.46-14.07-3.81-20.63-1.06-1.64,.69-3.17,1.55-4.6,2.61-1.28,.95-.03,3.12,1.26,2.16,5.35-3.98,12.41-5.11,18.78-3.2,1.6,.48,3.12,1.15,4.55,2.01s3.23,2.04,3.72,3.73c.74,2.52-2.91,3.69-4.5,4.74-.98,.65-1.91,1.44-2.44,2.52-.76,1.54-.23,3.01-.42,4.61s-2.27,2.03-3.18,3.14c-1.02,1.24-1.37,2.83-1.58,4.38-.88,6.55,1.56,13.43,6.28,18.04,2.19,2.14,4.86,3.6,7.55,5s5.29,2.62,7.36,4.68,2.96,5.06,1.95,7.96c-1.19,3.4-4.27,5.69-7.65,6.62-3.63,1-7.56,.72-11.22,0s-7.05-1.92-9.55-4.56c-1.39-1.47-2.32-3.31-3.23-5.1s-1.87-3.67-2.74-5.54c-1.73-3.68-3.21-7.51-3.9-11.54s-.62-7.76-3.06-11.05c-1.08-1.46-2.38-2.75-3.37-4.28s-1.63-3.13-2.02-4.87c-1.57-6.88,1.84-13.79,8.11-16.93,1.47-.74,3.09-1.23,4.73-1.44s1.6-2.7,0-2.5h0Z"/></g></svg>