<?xml version="1.0" encoding="utf-8"?>
<!-- Generator: Adobe Illustrator 23.0.6, SVG Export Plug-In . SVG Version: 6.00 Build 0)  -->
<svg version="1.1" id="Layer_1" xmlns="http://www.w3.org/2000/svg" xmlns:xlink="http://www.w3.org/1999/xlink" x="0px" y="0px"
	 viewBox="0 0 999.02 844.09" style="enable-background:new 0 0 999.02 844.09;" xml:space="preserve">
<style type="text/css">
	.st0{fill:#191970;}
	.st1{opacity:0.2;}
</style>
<g>
	<g>
		<path class="st0" d="M775.02,77.6c0.01-0.02,0-0.04-0.02-0.04L775.02,77.6z"/>
		<path class="st0" d="M773.52,76.08c0-0.02-0.02-0.03-0.04-0.02L773.52,76.08z"/>
		<path class="st0" d="M983.22,608.23c-0.31-11.93-0.27-23.93-2.04-35.74c-1.82-12.19-4.64-24.24-8.19-36.04
			c-3.44-11.44-8.03-22.43-13.35-33.12c-2.61-5.25-5.69-10.15-8.5-15.28c-2.83-5.18-4.6-10.96-6.93-16.39
			c-18.38-42.77-49.73-79.55-89.25-104.2c-20.02-12.49-42-21.73-64.96-27.21c-11.79-2.82-23.88-4.62-35.98-5.4
			c-2.56-0.17-5.12-0.12-7.68-0.13c-2.72-0.01-6.86,0.78-9.51,0.04c-2.44-0.68-1.95-0.9-2.43-3.61c-0.55-3.12-1.6-6.18-1.98-9.32
			c-0.65-5.41,1.04-11.37,1.93-16.7c0.96-5.75,1.97-11.5,2.53-17.33c1.18-12.26,0.12-24.42-1.97-36.52
			c-2.16-12.5-3.61-25.07-6.11-37.51c-0.35-1.76-2.36-6.86-1.49-8.64c0.73-1.49,4.13-2.37,5.45-3.29c4.44-3.09,6.75-7.25,8.69-12.13
			c5.04-12.66,11.14-25.64,12.71-39.32c0.65-5.67,0.46-11.56-2.55-16.6c-3.1-5.18-8.81-8.56-13.77-11.74
			c-11.02-7.06-22.98-12.42-34.83-17.9c-12.05-5.57-22.54-13.23-32.06-22.46c8.47,15.28,25.85,21.81,40.73,28.98
			c4.12,1.99,8.33,3.8,12.41,5.87c2.09,1.06,4.13,2.21,6.14,3.41c0.81,0.48,4.43,2.08,4.74,2.91c0.59,1.56-2.4,4.78-3.14,7.11
			c-0.5,1.57-3.27,8.8-1.39,9.45c1.78-5.35,3.01-10.96,6.09-15.78c5.88,4.25,12.78,8.01,15.06,15.38
			c2.26,7.32-0.19,16.06-2.08,23.21c-2.13,8.01-5.11,15.77-8.33,23.4c-2.7,6.42-5.66,12.28-12.14,15.56
			c-3.09,1.56-11.67,4.83-14.74,2.17c-1.39-1.21-2.63-6.75-2.59-8.26c0.1-3.62,0.62-0.9,2.43-0.26c3.3,1.16-0.71-3.02-1.55-4.26
			c-2.66-3.96-3.12-7.9-3.61-12.57c-0.21-2.03-2.07-9.07-0.26-10.38c2.09-1.52,8.12,1.58,11.08,0.44c1.31-0.51,2.8-0.8,1.03-1.63
			c-0.98-0.46-4.78,0.29-6.19,0.11c-3.98-0.49-8.05-1.07-11.84-2.42c-7.95-2.83-12.56-9.11-18.09-15.09
			c2.86,5.67,6.44,11.33,12.03,14.65c2.67,1.59,5.96,1.56,8.52,2.91c2.71,1.44,1.08,4.55,1.22,7.55c0.37,8.41,1.6,16.85,3.71,25
			c1,3.85,1.74,4.91-2.48,4.15c-4.07-0.73-8.1-1.99-11.99-3.38c-6.83-2.44-14.31-5.11-20.29-9.27c-2.7-1.87-5.57-4.23-5.89-7.73
			c-0.01-0.15,0.51-2.82,0.23-3.05c-1.46-1.23-1.64,0.67-1.86,1.59c-1.59,6.73,7.3,11.55,11.99,13.98
			c7.34,3.79,15.36,6.21,23.11,8.98c-5.32,7.72-11.62,14.33-18.04,21.11c-5.91,6.24-12.07,12.17-19.5,16.6
			c-7.65,4.56-16.26,7.65-24.75,10.26c-4.62,1.42-9.29,2.67-13.98,3.84c-4.42,1.1-9.41,2.96-13.98,1.75
			c2.79-3.18,5.5-6.29,7.56-10.01c0.57-1.03,2.53-3.72,0.28-3.56c-0.89,0.06-2.87,3.97-3.46,4.74
			c-5.51,7.19-12.19,13.42-19.74,18.42c-7.67,5.08-16.65,9.89-26,10.43c-2.64,0.15-4.5-0.11-6.9,0.97
			c-2.01,0.91-4.14,2.16-5.97,3.38c-1.15,0.77-9,6.76-10.1,5.42c-0.73-0.88,5.91-8.82,6.63-10.07c0.35-0.6,2.06-3,0.56-3.06
			c-1.54-0.06-3.56,4.3-4.41,5.47c-5.65,7.7-12.52,14.47-19.19,21.28c-14.19,14.49-28.01,29.34-41.73,44.27
			c-13.8,15.03-28.03,29.85-40.9,45.68c-12.12,14.91-22.87,30.86-33.18,47.05c-43.26,67.93-76.55,144.78-136.13,200.74
			c-13.82,12.98-28.43,25.89-44.42,36.15c-16.41,10.54-34.64,17.03-52.75,23.97c-36.68,14.05-73.36,32.35-113.82,28.64
			c-9.22-0.84-18.2-1.72-24.43-9.14c-5.86-6.98-9.73-16.07-13.56-24.27c-7.96-17.05-15.62-35.96-18.51-54.66
			c-3.05-19.74,4.78-37.38,12.06-55.19c6.92-16.91,11.7-34.29,20.57-50.39c18.06-32.79,45.78-57.03,75.54-79.02
			c15.29-11.3,31.51-21.26,48.06-30.58c16.72-9.42,34.19-17.68,50.25-28.23c1.2-0.79,9.1-7.36,10.05-6.26
			c0.85,0.98-4.79,6.33-5.09,7.79c2.37-0.9,5.12-5.22,6.91-7.07c2.2-2.27,4.41-4.53,6.63-6.79c5.01-5.1,9.87-10.42,15.18-15.21
			c9.86-8.89,20.28-17.41,30.44-25.95c21.32-17.9,43.62-34.98,65.99-51.55c22.46-16.63,45.92-31.66,69.19-47.11
			c22.62-15.01,44.83-30.86,66.61-47.08c42.86-31.92,81.29-72.15,109-117.92c12.86-21.25,20.79-47.2,44.41-59.22
			c11.98-6.1,22.44-3.44,34.18,1.54c12.63,5.36,24.42,12.44,36.64,18.65c13.36,6.79,26.5,13.99,39.87,20.75
			c6.86,3.47,13.98,6.86,20.42,11.09c2,1.31,3.88,3.04,5.39,4.57c1.62,1.64,2.55,3.37,2.55,6.04c0,2.73-0.11,3.44-2.42,2.41
			c-2.88-1.28-5.7-4.01-8.38-5.76c-6.84-4.47-13.8-8.76-20.84-12.9c-6.5-3.83-13.06-7.55-19.66-11.2
			c-6.83-3.78-13.75-8.29-21.42-10.16c-0.15,1.68,5.61,3.66,6.97,4.41c3.82,2.09,7.58,4.28,11.32,6.5
			c6.7,3.97,13.41,7.92,20.19,11.76c6.88,3.91,13.63,8.05,20.25,12.4c5.42,3.56,14.47,7.66,17.11,13.96c1.26,3.01,1.1,6.51,0.4,9.62
			c-0.36,1.63-1.9,8.99-3.47,9.61c-1.52,0.6-6.08-5.17-7.55-6.5c-2.83-2.57-5.82-4.97-8.85-7.29c-12.56-9.6-25.69-18.54-39.09-26.91
			c-7.31-4.56-14.87-8.68-22.5-12.67c-7.87-4.11-15.77-8.81-24.18-11.73c13.14,8.08,26.75,15.29,40.01,23.15
			c13.28,7.87,26.02,16.81,38.52,25.87c5.7,4.13,11.46,8.28,16.54,13.17c4.25,4.09,10.66,9.98,8.97,16.51
			c-1.64,6.31-6.62,11.89-10.28,17.1c-4.6,6.54-9.19,13.07-13.68,19.68c-0.68,1-5.56,6.69-5.15,7.74c1.04,2.64,3.72-2.4,4.4-3.31
			c3.86-5.2,7.51-10.55,11.23-15.84c4.17-5.93,8.52-11.81,12.27-18.01c1.51-2.49,3.64-5.8,3.84-8.79c0.12-1.71-0.36-2.96-0.99-4.55
			c-0.61-1.54-2.59-3.84-2.62-5.42c-0.03-1.96,2.42-4.89,3.06-6.84c0.93-2.83,1.92-6.03,2.14-9.01c0.23-3-0.46-5.92-2.14-8.43
			c-0.76-1.13-2.52-2.28-2.86-3.62c-0.41-1.62,0.7-3.69,0.67-5.39c-0.12-5.89-4.93-9.43-9.4-12.4c-6.81-4.53-14.26-7.9-21.53-11.62
			c-14.21-7.27-28.13-15.09-42.36-22.31c-12.46-6.32-24.63-13.9-37.8-18.66c-6.92-2.5-13.83-4.4-21.19-2.83
			c-6.59,1.41-12.76,4.39-18.14,8.42c-11.62,8.71-18.69,20.47-25.06,33.2c-13.5,26.97-30.92,52.29-51.29,74.49
			c-20.5,22.34-41.6,43.34-65.85,61.64c-25.2,19.01-51.01,37.77-77.61,54.78c-26.42,16.9-52.24,34.48-77.18,53.55
			c-24.72,18.9-48.57,38.93-72.24,59.11c-11.15,9.51-20.94,20.08-32.91,28.64c-12.44,8.91-25.63,16.15-39.13,23.27
			c-25.78,13.6-50.79,28.74-74.17,46.18c-22.28,16.62-43.39,34.99-59.48,57.85c-17.42,24.74-25.61,53.15-36.59,80.98
			c-2.49,6.32-4.9,12.72-6.61,19.3c-2.12,8.16-1.92,15.75-0.6,24.02c2.42,15.18,7.68,29.31,13.38,43.51
			c5.26,13.09,11.08,27.14,20.33,37.99c3.93,4.62,8.97,6.44,14.76,7.67c7.56,1.6,15.31,2.93,23.07,2.52
			c13.16-0.69,27.75-2.18,40.46-6.01c14.55-4.38,28.06-11.18,42.41-16c12.95-4.35,25.96-9.56,38.61-14.76
			c13.98-5.75,27.9-11.91,40.07-20.97c23.86-17.76,46.26-37.88,65.44-60.66c39.64-47.1,66.81-102.89,98.69-155.13
			c15.82-25.92,31.88-51.39,51.88-74.35c21.04-24.16,43.02-47.4,64.99-70.71c5.06-5.36,10.25-10.58,15.36-15.89
			c1.95-2.03,3.75-5.14,5.96-6.76c2.71-1.99,6.7-1.34,9.84-3.19c2.76-1.62,5.27-3.69,8.01-5.37c3.3-2.03,5.46-1.09,9.17-1.41
			c7.09-0.6,14.36-3.71,20.52-7.13c5.9-3.27,10.57-7.67,15.91-11.65c2.49-1.86,3.42-1.63,6.43-1.41c3.82,0.27,7.85-0.85,11.55-1.67
			c13.42-2.98,27.77-7.34,39.62-14.46c6.09-3.66,11.44-8.39,16.47-13.39c5.26-5.23,10.95-10.58,15.46-16.48
			c2.92-3.82,4.41-9.98,10.39-8.82c3.73,0.73,3.75,2.98,4.42,6.3c0.88,4.39,1.8,8.77,2.64,13.17c2.89,15.26,2.72,30.72,4.64,46.1
			c0.96,7.68,2.04,15.34,3.39,22.97c1.43,8.09,3.86,16.08,4.99,24.21c0.51,3.67,2.49,14.56-1.14,16.92
			c-2.23,1.45-8.09,0.85-10.77,1.19c-4.49,0.57-8.97,1.29-13.42,2.15c-13.91,2.7-27.5,6.78-40.53,12.34
			c-26.86,11.47-50.72,28.26-70.54,49.66c-12.18,13.15-22.1,28.57-31.2,43.99c-7.65,12.98-12.79,27.24-16.93,41.66
			c-4.08,14.21-4.81,29.11-9.27,43.14c-4.7,14.76-8.99,29.04-11.68,44.34c-2.51,14.26-2.8,28.99-2.29,43.38
			c1.03,29.15,8.08,58.55,20.54,85.09c25.05,53.36,71.75,95.95,127.29,115.7c27.73,9.86,55.47,14,84.78,14.02
			c27.64,0.02,57.06-5.56,82.48-16.63c28.06-12.21,53.69-27.46,75.92-48.72c21.65-20.71,39.39-45.68,51.47-73.11
			c6.1-13.84,10.88-28.31,14.17-43.07c1.67-7.52,2.75-15.08,3.87-22.69c0.47-3.17,0.7-6.35,1.01-9.55
			C982.92,615.82,981.97,609.86,983.22,608.23z M937.54,469.16c-3.78-6.89-10.76-13.3-16.13-18.99
			c-5.58-5.91-11.56-11.44-17.78-16.67c-11.58-9.74-24.08-18.38-37.35-25.66c-27.31-14.99-57.79-24.17-88.76-27.26
			c-61.17-6.1-124.44,13-172.05,51.93c-11.71,9.57-22.42,20.34-32,32.05c-4.84,5.91-9.39,12.05-13.65,18.39
			c-2.11,3.13-4.14,6.31-6.11,9.52c-1.73,2.83-3.24,6.96-5.92,8.99c-0.87-1.22,2.25-6,2.85-7.29c1.65-3.55,3.41-7.05,5.29-10.49
			c3.31-6.07,6.96-11.94,10.94-17.59c7.99-11.34,17.3-21.73,27.59-31.03c22.62-20.44,49.7-36.01,78.48-45.95
			c62.86-21.7,134.54-18.24,193.66,12.93c14.51,7.65,28.14,17.01,40.26,28.08C910.27,433.24,941.69,466.43,937.54,469.16z
			 M919.28,440.2c-38.14-43.49-95.08-66.97-152.24-70.09c-8.23-0.45-16.47-0.47-24.71-0.33c-1.79,0.03-5.67,1.18-6.16-0.84
			c-0.85-3.49,5.34-2.72,7.1-2.77c16.51-0.47,33.07,0.61,49.36,3.38c28.87,4.9,56.86,14.95,81.76,30.44
			c13.91,8.65,26.77,18.95,37.99,30.89c3.58,3.81,6.97,7.77,10.17,11.9c1.57,2.02,6.57,6.61,6.66,9.3
			C926.9,452.63,920.8,441.94,919.28,440.2z M930.3,450.23c0.71,1.17,4.25,5.29,4.04,6.67c-2.21-4.81-7.03-9.53-10.21-13.79
			c-3.4-4.55-7.11-8.86-10.99-13c-10.27-10.95-21.89-20.59-34.46-28.79c-26.19-17.08-55.95-28.15-86.76-33.19
			c-17.04-2.79-33.89-3.37-51.11-3.18c-1.86,0.02-5.65,0.12-3.81-3.03c1.33-2.27,7.33-1.24,9.71-1.27
			c7.65-0.09,15.31,0.12,22.95,0.68c29.62,2.18,58.72,9.71,85.34,22.96C884.52,398.99,914.02,420.86,930.3,450.23z M736.9,358.01
			c-0.14-3.77,35.47-0.45,39.84,0.06c13.69,1.59,27.24,4.34,40.44,8.32c13.29,4,26.2,9.23,38.54,15.59
			c5.99,3.08,11.77,6.48,17.4,10.13c3.24,2.1,6.83,3.91,9.65,6.6c-3.39-0.88-6.53-3.8-9.41-5.68c-5.08-3.32-10.52-6.17-15.93-8.91
			c-12.36-6.26-25.28-11.31-38.59-15.18c-13.16-3.83-26.66-6.52-40.28-8.08c-7.22-0.82-14.48-1.32-21.74-1.52
			C754.05,359.25,737,360.59,736.9,358.01z M893.88,403.69c5.48,4.78,10.35,9.94,15.19,15.35c2.25,2.51,5.01,4.74,7.01,7.46
			c-1.76,0.34-5.47-4.55-6.58-5.72c-3.83-3.99-7.74-7.91-11.86-11.61c-8.57-7.69-17.96-14.55-27.74-20.6
			c-22.43-13.87-47.46-23.4-73.28-28.66c-13.8-2.81-27.9-4.49-41.99-4.94c-3.23-0.1-6.46-0.13-9.69-0.06
			c-1.57,0.04-6.56,1.2-7.67-0.2c-3.69-4.65,10.03-3.26,11.81-3.23c24.72,0.4,49.41,4.13,72.91,11.92
			C848.09,372.06,873.16,385.61,893.88,403.69z M855.72,372.86c6.09,3.16,11.85,6.91,17.32,11.04c2.73,2.06,5.38,4.23,7.96,6.46
			c1.67,1.44,6.52,4.56,6.63,6.91c-3.76-3.84-8.79-6.75-13.26-9.66c-6.19-4.03-12.5-7.92-19-11.41
			c-17.18-9.23-36.11-15.76-55.1-20.07c-10.29-2.33-20.74-3.95-31.23-4.98c-5.41-0.53-10.84-0.89-16.27-1.04
			c-2.56-0.07-5.12-0.09-7.68-0.06c-1.59,0.02-6.39,0.95-7.76,0.1c-0.95-0.59-1.49-2.23-0.81-3.21c0.66-0.96,3.82-0.49,4.66-0.51
			c5.87-0.14,11.75-0.05,17.62,0.27c10.88,0.58,21.72,1.91,32.43,3.93C813.67,354.87,835.45,362.34,855.72,372.86z M850.73,368.42
			c-1.19,1.07-10.59-4.29-12.15-4.96c-7.4-3.16-15.02-5.83-22.72-8.15c-16.45-4.96-33.4-8.01-50.51-9.42
			c-8.7-0.72-17.35-0.84-26.08-0.75c-2.26,0.02-4.71-0.66-1.96-1.92c1.49-0.68,5.03-0.17,6.75-0.22c2.56-0.07,5.11-0.07,7.66,0.01
			c16.85,0.55,33.54,2.67,49.98,6.37C819.16,353.32,835.16,359.69,850.73,368.42z M737.29,338.27c12.76-0.32,25.54,0.54,38.14,2.58
			c11.71,1.9,25.73,3.95,36.31,9.57c-4.07-0.54-8.16-1.94-12.17-2.82c-7.7-1.69-15.48-3.06-23.31-4.04
			c-8.98-1.12-18.02-1.68-27.06-1.87c-1.96-0.04-3.93-0.06-5.89-0.03c-1.54,0.02-5.58,0.96-6.89,0.18
			C734.38,340.62,734.96,338.32,737.29,338.27z M727.18,298.07c-3.42-18.17-5.5-36.38-6.31-54.84c-0.38-8.68-2.12-17.1-3.84-25.59
			c-0.49-2.42-2.97-9.35-1.1-10.49c0.88-0.54,9.1-0.72,9.56-0.24c1.55,1.62,1.75,9.81,2.13,12.03c0.74,4.33,1.38,8.65,1.89,13.01
			c1.06,9.07,2.75,18,4.09,27.03c1.27,8.56,1.62,17.82,0.95,26.44c-0.35,4.41-1.03,8.79-1.73,13.16c-0.61,3.78-0.35,10.4-2.53,13.6
			C729.25,307.47,728.07,302.8,727.18,298.07z M729.2,341.34c0.48-3.49,5.05-3.22,3.86-0.34C732.68,341.91,729,342.77,729.2,341.34z
			 M730.72,343.43c0.74-0.07,2.75-0.45,2.75,0.85c0,1.43-1.36,0.84-2.27,1.02C728.17,345.91,727.39,343.75,730.72,343.43z
			 M729.28,346.84c1.68,0.05,3.9-0.74,4.74,1.05c0.99,2.09-0.4,2.04-1.71,2.39c-1.01,0.27-4.23,0.56-4.79-0.15
			C726.5,348.84,727.92,346.8,729.28,346.84z M727.7,352.12c1.77-0.41,8.11-1.65,6.94,2.01c-0.68,2.14-6.32,1.38-8.24,1.49
			C726.98,354.82,726.56,352.38,727.7,352.12z M659.49,356.61c3.34-3.55,10.93-5.1,15.38-6.7c5.99-2.15,12.07-4.03,18.24-5.61
			c6.15-1.57,12.39-2.88,18.68-3.79c2.56-0.37,14.31-2.96,15.23-0.98c1.79,3.83-9.9,3.76-11.77,3.97
			c-6.45,0.74-12.87,1.7-19.24,2.95c-6.35,1.24-12.65,2.74-18.88,4.49c-2.97,0.84-5.93,1.73-8.87,2.68
			c-3.06,0.99-6.67,2.96-9.86,3.06C658.75,356.66,659.12,356.63,659.49,356.61z M649.8,361.83c13.65-5.56,27.76-9.97,42.17-13.09
			c7.41-1.6,14.88-2.82,22.41-3.75c2.49-0.31,8.08-2.09,10.25-1.24c3.15,1.24-1.06,2.12-2.53,2.27
			c-14.91,1.53-29.57,3.99-44.05,7.92c-14.73,4-28.61,9.76-42.6,15.78C639.69,366.15,644.71,363.9,649.8,361.83z M628.14,375.25
			c27.57-14.6,58.04-24.11,89.09-27.33c1.13-0.12,6.71-1.51,7.59-0.68c2.13,2.02-1.44,3.59-2.68,3.83
			c-8.11,1.58-16.53,1.84-24.69,3.41c-15.31,2.95-30.39,7.3-44.89,13.04c-15.99,6.33-30.6,14.59-45.15,23.67
			C613.63,384.95,620.31,379.4,628.14,375.25z M599.64,398.72c31.4-23.65,69.1-38.69,107.9-44.48c4.81-0.72,9.73-1.38,14.59-1.69
			c1.64-0.11,2.9-0.83,2.89,1.38c-0.01,2.16-1.8,2.06-3.55,2.32c-9.91,1.47-19.77,2.54-29.58,4.69
			c-18.71,4.1-36.97,10.35-54.23,18.65c-9.09,4.37-17.9,9.34-26.32,14.9c-4.23,2.79-8.37,5.73-12.4,8.82
			c-2.07,1.58-9.05,9.12-11.58,8.42C591.18,407.16,594.84,402.33,599.64,398.72z M570.31,435.64c5.48-10.52,14.06-18.83,23.22-26.17
			c9.7-7.78,19.91-14.92,30.7-21.12c21.76-12.5,45.55-21.25,70.04-26.61c6.58-1.44,13.22-2.6,19.92-3.36
			c3.42-0.39,6.88-0.49,10.3-0.92c2.16-0.27,7.02-1.96,8.88-0.79c4.8,3.02-5.73,3.5-7.94,3.74c-7.1,0.75-14.19,1.67-21.22,2.92
			c-25.16,4.46-49.73,12.95-72.27,24.99c-11.56,6.18-22.58,13.36-32.86,21.51c-5.17,4.1-10.15,8.46-14.92,13.03
			c-1.85,1.78-13.43,15.52-14.78,14.94C569.39,436.95,569.71,436.23,570.31,435.64z M568.3,442.2
			c34.03-41.59,84.3-68.37,136.88-77.72c6.87-1.22,13.79-2.12,20.73-2.76c1.13-0.11,6.9-1.53,7.82-0.85
			c1.53,1.13,0.9,3.35-0.52,4.28c-2.09,1.37-7.49,0.82-9.99,1.1c-2.88,0.32-5.76,0.69-8.63,1.11c-7.12,1.02-14.19,2.33-21.2,3.93
			c-26.04,5.95-51.04,16.1-73.7,30.25c-12.24,7.65-23.76,16.45-34.2,26.42c-10.87,10.38-19.36,22.04-28.38,33.95
			C559.47,454.6,563.42,448.16,568.3,442.2z M560.8,459.12c31.64-45.65,82.34-75.42,136.06-87.27c7.34-1.62,14.75-2.86,22.21-3.78
			c3.73-0.46,7.47-0.78,11.22-1.17c1.72-0.18,5.48-0.75,3.66,2.54c-1.09,1.96-7.35,1.49-9.35,1.71c-3.86,0.43-7.71,0.92-11.55,1.5
			c-8.05,1.21-16.03,2.89-23.92,4.92c-27.76,7.13-54.39,18.93-77.88,35.42c-12.49,8.77-24.04,18.88-34.29,30.2
			c-5.36,5.92-10.39,12.16-14.98,18.7c-2.39,3.4-4.66,6.89-6.81,10.46c-1.68,2.79-2.9,6.42-5.61,8.35
			C551.69,472.38,556.23,465.72,560.8,459.12z M546.71,491.68c24.88-55.8,78.24-94.18,135.86-110.82
			c9.16-2.64,18.46-4.75,27.86-6.34c5.05-0.85,10.13-1.56,15.22-2.12c2.52-0.28,8.59-2.29,8.39,1.86
			c1.54-5.18,13.19-3.25,17.18-3.29c8.38-0.07,16.77,0.31,25.11,1.13c14.83,1.46,29.57,4.16,43.9,8.27
			c14.25,4.08,28.09,9.55,41.25,16.37c2.38,1.24,31.52,17.44,30.27,19.54c-7.18-4.69-14.12-9.61-21.67-13.7
			c-13.55-7.34-27.61-13.4-42.35-17.94c-29.38-9.05-60.9-12.59-91.56-10.06c-53.85,4.44-106,24.88-145.65,62.13
			c-10.71,10.07-20.32,21.31-28.38,33.61c-4.04,6.16-7.68,12.57-10.91,19.19c-1.64,3.36-3.16,6.76-4.58,10.22
			c-1.36,3.32-2.22,7.43-4.37,10.34C543.3,503.81,544.1,497.52,546.71,491.68z M979.9,611.18c-2.01,48.77-19.8,95.03-50.48,132.94
			c-27.91,34.49-65.24,59.66-107.23,73.77c-91.29,30.68-197.84-0.43-255.29-78.51c-27.3-37.09-42.86-83-42.96-129.07
			c-0.09-42.77,12.03-85.01,34.98-121.12c50.93-80.15,148.34-120.75,241.27-102.78c91.56,17.71,164.17,92.6,177.64,185.2
			C979.72,584.7,980.44,597.96,979.9,611.18z"/>
		<path class="st0" d="M224.02,398.07"/>
	</g>
	<path class="st0" d="M288.1,454.63c17.23-29.17,36.78-56.91,55.19-85.34c8.5-13.12,18.95-24.57,29.35-36.19
		c5.13-5.72,10.59-11.14,16.29-16.29c2.85-2.58,5.75-5.09,8.7-7.56c2.58-2.15,5.89-5.89,9.42-6.21
		c-12.46,9.98-23.89,21.21-34.52,33.11c-10.21,11.43-20.45,22.84-28.69,35.81C326,400.05,307.18,427.36,288.1,454.63z"/>
	<path class="st0" d="M618.35,235.98c5.89-5.44,12.52-10.08,18.03-15.93c5.52-5.86,9.13-12.97,13.38-19.73
		c4.18-6.65,7.96-13.78,12.66-20.07c0.86-1.15,12.8-13.63,13.58-9.65c0.08,0.44-5.69,3.6-6.58,4.38c-2.7,2.35-4.86,5.22-6.85,8.17
		c-4.5,6.66-8.24,13.8-12.35,20.7c-4.14,6.95-8.61,13.91-14.42,19.6c-2.79,2.73-5.88,5.13-8.99,7.48
		C624.64,232.54,621.13,236.56,618.35,235.98z"/>
	<path class="st0" d="M179.14,553.72c14-10.58,28.01-21.16,41.51-32.38c6.51-5.41,12.91-10.96,19.11-16.72
		c3.11-2.88,6.17-5.82,9.17-8.81c1.63-1.63,7.21-9.38,9.67-8.59c-11.8,11.41-22.31,24.2-35.27,34.37
		C209.03,532.8,194.23,543.6,179.14,553.72z"/>
	<path class="st0" d="M542.36,225.07c13-7.24,26.97-14.01,38.74-23.2c5.56-4.34,9.86-9.67,14.64-14.8
		c4.75-5.1,10.63-9.57,14.4-15.48c0.88,2.79-4.22,6.53-5.77,8.25c-2.4,2.67-4.75,5.39-7.13,8.08c-5.12,5.77-10.4,11.53-16.52,16.26
		C577.38,206.75,543.44,227,542.36,225.07z"/>
	<path class="st0" d="M139.32,534.77c12.48-10.45,26.57-18.05,40.16-26.86c6.71-4.35,13.27-8.94,19.56-13.87
		c3.38-2.64,6.72-5.36,9.83-8.32c1.65-1.57,4.28-5.91,6.84-5.53c-9.78,12.07-23.76,21.37-36.78,29.6
		c-6.77,4.28-13.82,8.09-20.64,12.3c-3.56,2.2-7.08,4.48-10.5,6.89C145.08,530.86,142.42,533.65,139.32,534.77z"/>
	<path class="st0" d="M461.91,252.08c8.01,1.98,17.95,3.88,26.22,2.7c3.81-0.54,7.48-1.89,10.46-4.36c0.67-0.56,5.33-6.35,5.81-4.78
		c0.58,1.9-4.56,6.22-5.9,7.2c-2.85,2.08-6.18,3.13-9.65,3.62C479.64,257.79,470.48,255.27,461.91,252.08z"/>
	<path class="st0" d="M643.48,136.3c5.47-6.08,31.28-9.68,42.79-2.9C671.82,129.4,657.78,131.54,643.48,136.3z"/>
	<path class="st0" d="M652,159.5c6.47,2.42,13.34,3.48,20.23,3.22c3-0.11,6.72-0.17,9.61-1.13c1.01-0.33,4.55-3.39,4.75-1.56
		c0.5,4.47-13.88,4.38-15.89,4.4C665.24,164.51,655.84,164.18,652,159.5z"/>
	<path class="st0" d="M614.22,128.66c2.66-8.47,12.42-21.38,22.43-17.89C625.41,112.75,619.31,120.05,614.22,128.66z"/>
	<path class="st0" d="M36.28,581.3c-7.17,9.1-13.66,18.87-17.27,29.96c-2.17-3.57,3.94-12.43,5.76-15.48
		C27.94,590.47,31.8,585.58,36.28,581.3z"/>
	<path class="st0" d="M583.69,239.08c-1.48,9.68,3.32,17.14,7.58,24.91C586.1,262.77,580.62,244.8,583.69,239.08z"/>
	<path class="st0" d="M556.03,262.32c-2.37-3.48-4.07-7.38-4.94-11.5c-0.25-1.16-1.81-9.14-0.24-9.44c1.03-0.2,1.01,7.18,1.31,8.74
		c0.45,2.31,1.09,4.58,1.9,6.78C554.59,258.36,556.27,260.68,556.03,262.32z"/>
	<path class="st0" d="M656.59,61.6c1.58-0.07,4.46,7.16,5.24,8.53c0.71,1.24,4.13,5.05,3.26,5.64
		C661.85,77.98,655.81,61.8,656.59,61.6z"/>
	<path class="st0" d="M658.96,147.21c3.86,5.34,8.5,9.2,14.73,11.43C668.47,159.48,658.53,151.88,658.96,147.21z"/>
	<path class="st0" d="M676.91,158.28c-2.3-2.27-4.33-4.77-6.5-7.16c-0.63-0.69-5.53-4.82-2.48-4.97c1.11-0.05,4.15,3.78,4.83,4.6
		C674.59,152.98,676.02,155.53,676.91,158.28z"/>
	<path class="st0" d="M772.46,121.12c1.19,1.79-2.79,7.17-1.61,6.99c1.65-0.25,3.46-5.2,4.87-5.92c0.04,2.42-3.96,9.15-7.16,7.07
		c0.63-0.4,0.13-0.92,0.16-1.4c0.08-1.07,0.26-0.83,0.83-1.77C770.68,124.26,771.89,123.47,772.46,121.12z"/>
	<path class="st0" d="M672.98,32.11c-4.78-0.93-9.65-1.03-14.49-1.4C663.45,29.66,668.35,29.34,672.98,32.11z"/>
	<path class="st0" d="M634.62,231.25c-2.15,4.12-4.94,7.84-8,11.37C628.6,238.38,631.34,234.66,634.62,231.25z"/>
	<path class="st0" d="M738.52,129.99c-1.78,3.61-1.35,7.85-3.31,12.19C735.63,137.41,735.39,133.23,738.52,129.99z"/>
	<path class="st0" d="M746.61,136.52c0.19,3.63-3.53,9.86-6.36,10.72C743.25,144.02,744.58,140.07,746.61,136.52z"/>
	<path class="st0" d="M777.66,94.76c1.88,2.55,1.93,6.44,0.02,9C778.23,100.47,777.65,97.64,777.66,94.76z"/>
	<path class="st0" d="M737.33,143.02c0.9-2.93,1.79-5.86,2.69-8.79C742.36,135.02,738.35,141.84,737.33,143.02z"/>
	<path class="st0" d="M773.88,103.25c0.42-2.91,1.51-5.58,0.81-8.5C776.86,95.94,776.39,100.54,773.88,103.25z"/>
	<path class="st0" d="M668.77,45.13c-3.11-0.18-5.54-1.55-7.34-4.08C664.08,42.04,666.11,44.18,668.77,45.13z"/>
	<path class="st0" d="M692.8,40.49c-0.92-0.12-7.77-2.11-6.73-3.22C687.12,36.16,692.13,39.89,692.8,40.49z"/>
	<path class="st0" d="M771.85,97.88c-0.14-0.4-0.41-5.07,0.82-4.29C773.76,94.28,772.18,97.09,771.85,97.88z"/>
	<path class="st0" d="M769.81,121.33c-0.36,1.77-1.87,2.27-3.41,3.17C767.2,122.83,768.47,122.06,769.81,121.33z"/>
	<g>
		<path class="st0" d="M757.69,166.21"/>
		<path class="st0" d="M836,139.55c-6.32-7.46-16.28-10.74-25.53-12.78c-4.92-1.09-9.94-1.73-14.97-1.98
			c-2.38-0.12-4.77-0.14-7.16-0.09c-1.47,0.03-7.17-0.74-6.31,1.7c9.08-1.18,19.89,0.47,28.76,2.49c8.12,1.85,17.46,4.8,23.14,11.28
			c13.15,15-10.66,28.56-22.33,33.11c-7.85,3.07-16.21,5.16-24.55,6.34c-4.02,0.57-8.08,0.88-12.13,1.15
			c-2.24,0.15-6.88,1.22-8.93,0.38c-2.13-0.87-3.67-4.52-4.5-6.43c-0.69-1.59-1.28-3.28-1.49-5c-0.07-0.54,0.17-2.86-0.2-3.34
			c-1.46-1.87-1.72,0.68-1.84,1.24c-0.4,1.81,0.96,3.58,0.94,5.23c-0.05,3.46-1.28-0.32-2.71-0.93c0.75,3.38,2.4,6.37,4.37,9.18
			c-0.14-0.86-2.16-4.33-0.09-3.94c0.64,0.12,3.04,4.17,3.73,4.87c-2.74,0.74-5.59,1.63-8.46,1.67c-2.81,0.04-5.56-1.02-8.38-0.49
			c4.08,3.1,8.63,2.96,13.09,1.35c4.81-1.74,9.49-1.01,14.51-1.14c10.08-0.27,20.73-2.29,30.35-5.26
			C818.99,173.92,851.87,158.27,836,139.55z"/>
	</g>
	<path class="st0" d="M774.8,78.77c0.92-1.04-0.46-1.91-1.37-1.81c-2.09,0.24-1.22,2.68-1.29,3.96c0.35,0.04,0.41-3.89,1.38-3.14
		c1.23,0.94,0.27,4.25,0.75,5.59C776.41,81.81,774.2,80.4,774.8,78.77z"/>
	<path class="st0" d="M926.63,506.88c1.63-13.16-12.57-20.09-17.98-30.23c2.61,1.03,4.88,4.35,6.77,6.34
		c2.22,2.33,4.21,4.87,6.11,7.47C925.09,495.31,929.54,500.54,926.63,506.88z"/>
	<path class="st0" d="M883.23,440.54c-6.57,2.69-10.64-4.04-14.97-7.81c-4.81-4.18-9-8.74-14-12.65
		c6.02,1.55,10.84,8.03,15.35,12.08C873.81,435.94,876.81,441.17,883.23,440.54z"/>
	<path class="st0" d="M955.24,549.08c0.34,2.11-2.9,4.28-3.2,6.65c-0.38,3.07,1.35,5.3,3.4,7.36c4.39,4.4,9.7,8.55,11.8,14.66
		c1.2-1.76-11.39-12.63-12.65-13.89C949.4,558.67,950.12,554.09,955.24,549.08z"/>
	<path class="st0" d="M794.28,400.43c8.43-1.42,17.43-1.65,24.84,5.4c-3.59-2.1-7.39-3.96-11.52-4.69
		C803.21,400.38,798.6,401.55,794.28,400.43z"/>
	<path class="st0" d="M811.27,419.77c1.91-0.18,3.61,1.51,5.15,2.37c2.24,1.25,4.63,2.15,7.06,2.94c4,1.31,9.43,1.93,12.7,4.76
		c-4.63-1.62-9.49-2.46-14.13-4.04c-2.03-0.69-10.55-3.5-10.74-6.1C811.31,419.71,811.27,419.77,811.27,419.77z"/>
	<path class="st0" d="M599.96,501.87c-2.89,0.63-7.12-5.09-9.19-6.69c-3.37-2.6-6.86-3.45-10.91-1.73
		C586.77,486.95,595.61,497,599.96,501.87z"/>
	<path class="st0" d="M797.12,809.17c-2.18-3.87-2.27-8.78-3.99-12.91c-1.47-3.53-2.16-7.91-0.46-11.52
		c-0.42,4.27,0.43,8.2,2.02,12.15C796.33,800.99,795.79,805.07,797.12,809.17z"/>
	<path class="st0" d="M704.71,750.49c-4.29,7.86-5.24,16.58-10.9,23.81c-0.41-0.79,2.16-4.36,2.67-5.42
		c1.18-2.48,2.12-5.05,3.06-7.63C700.59,758.34,701.73,752.01,704.71,750.49z"/>
	<path class="st0" d="M697.65,414c-7.24-3.71-14.75-1.93-22.36-1.1C682.98,410.26,690.46,409.21,697.65,414z"/>
	<path class="st0" d="M790.51,507.53c4.28-0.59,8.16,4.42,10.72,7.17c2.58,2.77,6.94,7.34,6.76,11.43
		c-1.9-4.23-4.27-7.86-7.55-11.13C797.63,512.19,794.64,508.28,790.51,507.53z"/>
	<path class="st0" d="M615.73,482.03c-5.4,6.13-14.65,1.91-21.18,5.44c3.29-3.24,6.73-2.56,10.91-2.71
		C609.17,484.63,612.36,482.03,615.73,482.03z"/>
	<path class="st0" d="M617.54,543.83c3.35,1.83,6.43,3.99,9.01,6.81c2.58,2.82,4.27,5.54,8.62,4.66c-3.58,2.92-6.62-0.52-8.83-3.1
		C623.67,549.06,620.73,546.46,617.54,543.83z"/>
	<path class="st0" d="M551.11,559.91c0-7.24,1.3-14.16,4.67-19.99C553.97,546.12,552.3,552.95,551.11,559.91z"/>
	<path class="st0" d="M943.45,645.38c-6.49-3.57-12.46-8.36-20.4-8.47C930.93,636.66,937.85,640,943.45,645.38z"/>
	<path class="st0" d="M807.21,619.56c6.86,3.85,14.05,6.27,22.06,5.06C820.77,626.6,814.24,624.38,807.21,619.56z"/>
	<path class="st0" d="M609.19,505.23c7.71,0.72,13.77,4.48,18.87,10.03C622.36,510.82,616.49,506.71,609.19,505.23z"/>
	<path class="st0" d="M779.85,521.97c3.61,5.93,7.17,11.9,13.07,15.92C785.91,534.79,782.69,528.54,779.85,521.97z"/>
	<path class="st0" d="M545.22,581.64c-0.81,5.27-0.31,11.36-1.66,17.27C544.07,592.9,542.44,586.65,545.22,581.64z"/>
	<path class="st0" d="M606.73,539.11c-5.81-3.2-11.73-6.15-18.38-7.25C593.37,531.67,597.97,533.43,606.73,539.11z"/>
	<path class="st0" d="M688.91,774.95c-1.2,7.75,8.31,10.97,3.62,18.63C696.22,785.56,685.32,782.62,688.91,774.95z"/>
	<path class="st0" d="M683.42,589.79c-3.19,5.07-8.25,9.06-9.84,15.29C674.24,598.25,678.81,593.95,683.42,589.79z"/>
	<path class="st0" d="M636.65,461.98c4.1-1.63,13.41,0.24,16.96,3.85C647.75,463.41,642.39,462.04,636.65,461.98z"/>
	<path class="st0" d="M928.76,582.2c6.36,1.06,11.24-6.16,17.88-2.62C940.23,577.42,935.06,583.6,928.76,582.2z"/>
	<path class="st0" d="M923.15,571.55c6.44,2.84,12.99,3.28,20.25,1.08C938.1,576.36,929.32,576.16,923.15,571.55z"/>
	<path class="st0" d="M879.67,775.84c2.24-0.02,6.63-2.26,6.19-5.08c-0.39-2.48-4.32-2.74-5.56-4.86c2.54,1.16,6.91,2.08,6.53,5.47
		C886.42,774.94,882.82,776.55,879.67,775.84z"/>
	<path class="st0" d="M751.12,398.36c3.2,1.8,5.69,1.44,9.07,0.77c0.56-0.11,5.33-0.98,3.97,1.03c-0.23,0.34-4.94,0.73-5.46,0.8
		C755.68,401.38,753.2,400.85,751.12,398.36z"/>
	<path class="st0" d="M761.16,432.6c-3.57,0.74-10.6-4.05-13.22-8.8C752.15,427.16,755.84,430.82,761.16,432.6z"/>
	<path class="st0" d="M562.19,555.85c3.72-5.66,8.4-10.81,9.86-17.67C571.18,545.14,566.71,550.78,562.19,555.85z"/>
	<path class="st0" d="M619.92,475.16c4.66-2.29,11.53-1.82,13.49-8.96C633.33,471.14,629.38,473.65,619.92,475.16z"/>
	<path class="st0" d="M656.28,445.52c2.66,4.1,5.12,8.64,11.44,9.41C662.48,456.82,656.95,450.16,656.28,445.52z"/>
	<path class="st0" d="M579,696.52c5.61-2.92,8.75-8.83,14.23-11.94C588.51,688.58,584.91,693.89,579,696.52z"/>
	<path class="st0" d="M839.08,613.14c-6.23-1.32-11.84-3.66-17.41-4.16C823.62,608.01,830.72,609.53,839.08,613.14z"/>
	<path class="st0" d="M917.19,644.72c4.4,1.81,9.6,0.54,13.77,3.33C926.43,646.68,921.37,647.58,917.19,644.72z"/>
	<path class="st0" d="M692.26,653.19c-2.52,4.39-3.25,9.27-4.03,13.73C687.35,661.94,688.56,657.17,692.26,653.19z"/>
	<path class="st0" d="M758.47,805.92c6.51-0.2,10.24,4.72,14.77,8.2C768.1,811.82,764.65,806.37,758.47,805.92z"/>
	<path class="st0" d="M918.99,670.99c5.5,0.84,10.58,2.58,14.93,6.05C929.15,674.51,923.97,672.96,918.99,670.99z"/>
	<path class="st0" d="M748.71,791.1c0.09-5.4,4.91-8.28,7.06-13.06C754.78,783.39,749.72,786.15,748.71,791.1z"/>
	<path class="st0" d="M829.31,498.77c5.88-2.93,8.11-2.36,12.13,3.45c-2.07-0.78-2.94-3.05-4.92-3.86
		C834.18,497.41,831.72,499.09,829.31,498.77z"/>
	<path class="st0" d="M845.08,790.42c1.83,2.01,0.36,4.74,2,6.58c1.27,1.43,3.97,1.66,4.81-0.29c0.37,2.97-3.46,2.52-5,1.17
		C844.64,795.92,846.44,792.7,845.08,790.42z"/>
	<path class="st0" d="M636.91,679.91c5.23,2.02,4.99,9.17,10.4,11.32C641.27,690.68,641.13,683.08,636.91,679.91z"/>
	<path class="st0" d="M552.53,583.01c0.95-5.19,2.42-10.15,6.27-14.06C555.55,573.13,554.38,578.22,552.53,583.01z"/>
	<path class="st0" d="M958.1,640.33c0.5,4.95,4.84,6.86,7.82,10C960.67,648.28,957.65,644.46,958.1,640.33z"/>
	<path class="st0" d="M654.74,656.91c-2.96,4.42-7.09,5.95-11.65,6.66C647.4,662.39,651.15,660.17,654.74,656.91z"/>
	<path class="st0" d="M867.71,620.98c-3.51-2.1-7.6-2.57-11.43-3.78C860.5,617.44,864.75,617.56,867.71,620.98z"/>
	<path class="st0" d="M927.61,553.87c3.54,0.1,7.37,2.26,10.67,0.01C940.55,557.6,928.76,554.48,927.61,553.87z"/>
	<path class="st0" d="M590.77,727.88c-1.89-1.81-3.76-3.63-5.48-5.61c-0.7-0.8-3.22-4.88-3.6-4.96
		C584.97,720.61,588.04,724.1,590.77,727.88z"/>
	<path class="st0" d="M641.46,731.64c-1.04-3.81,1.69-7.54,1.07-11.64C643.93,723.69,642.18,727.91,641.46,731.64z"/>
	<path class="st0" d="M949.78,646.03c0.39-4.25-1.69-7.79-3.24-11.47C949.08,637.99,950.7,641.68,949.78,646.03z"/>
	<path class="st0" d="M628.67,764.76c-3.41-2.1-9.67-4.43-10.6-8.84C620.87,759.72,625.48,761.4,628.67,764.76z"/>
	<path class="st0" d="M875.21,580.64c3.96-0.35,7.48,1.26,11.86,2.41C882.48,582.97,878.91,581.51,875.21,580.64z"/>
	<path class="st0" d="M962.35,672.23c-3.62-0.56-7.22-1.18-9.35-4.73C955.57,670.23,959.32,670.49,962.35,672.23z"/>
	<path class="st0" d="M558.88,524.67c3.22-2.07,6.66-2.75,10.37-1.41C565.72,523.13,562.23,523.34,558.88,524.67z"/>
	<path class="st0" d="M675.04,689.66c-0.18-5.75,0.76-7.84,4.37-8.79C675.76,683,676.11,686.9,675.04,689.66z"/>
	<path class="st0" d="M663.41,681.59c-2.66,3.82-5.96,5.98-7.7,5.14C658.85,685.97,660.33,682.79,663.41,681.59z"/>
	<path class="st0" d="M763.43,790.52c-2.7-2.97-5.18-5.46-6.53-8.77C759.08,784.46,761.64,786.89,763.43,790.52z"/>
	<path class="st0" d="M851.94,793.61c3.02,0.59,5.96,0.47,8.93-0.4C859.19,795.42,855.87,795.65,851.94,793.61z"/>
	<path class="st0" d="M871.58,771.55c-2.92,0.93-4.63,2.96-5.49,5.8C865.86,773.56,867.17,772.14,871.58,771.55z"/>
	<path class="st0" d="M710.2,802.46c-3.01,0.76-5.6,2.48-8.55,0.89C704.42,803.32,707.1,802.38,710.2,802.46z"/>
	<path class="st0" d="M780.68,549.59c2.65,2.11,4.76,4.63,5.98,7.84C784.66,554.82,782.67,552.21,780.68,549.59z"/>
	<path class="st0" d="M866.09,782.64c2.77,1.34,5.85,2.35,6.81,5.83C871.05,786.03,868.17,784.84,866.09,782.64z"/>
	<path class="st0" d="M576.75,525.94c0.58,2.88,1.09,5.77-0.68,8.49C576.59,531.65,576.36,528.83,576.75,525.94z"/>
	<path class="st0" d="M944.72,673.17c0.47-2.77,1.07-5.47,0.83-8.26C947.1,667.89,946.06,670.58,944.72,673.17z"/>
	<path class="st0" d="M675,650.63c0.56,3.3,3.16,4.67,5.86,6.17C677.23,656.4,675.23,654.27,675,650.63z"/>
	<path class="st0" d="M595.71,731.94c2.64-0.27,5.21-0.85,7.68-1.86C601.1,731.87,598.54,732.51,595.71,731.94z"/>
	<path class="st0" d="M953.09,687.16c-2.75-0.9-5.29-1.91-8.04-3.41C948.41,684.25,950.85,685.31,953.09,687.16z"/>
</g>
<g class="st1">
	<path class="st0" d="M779.65,621.77c-10.39,5.5-16.51-10.31-5.1-10.04c-0.69-1.98-3.98-1.91-4.95-4.08
		c-1.15-2.57,0.86-2.94-1.22-4.26c-2.43-1.54-5.67-0.25-7.07-3.94c-1.38-3.63,1.38-6.67,5-6.7c3.18-0.03,6.17,2.42,6.39,5.57
		c0.05,0.7-1.26,3.19-0.95,3.58c0.61,0.77,1.85-0.4,2.59-0.03c2.66,1.37,6.19,1.21,6.67,5.31c0.4,3.39-2.19,4.36-5.26,5.04
		c3.66,1.59,4.42,4.96,4.89,8.56c-0.69-0.18-1.1,0.05-1,1.02L779.65,621.77z M775.24,621.28c5.36-0.1,3.24-6.95-1.08-7.36
		C767.88,613.31,769.92,621.39,775.24,621.28z M767.35,601.71c5.64,0.08,3.84-7.23-0.9-7.08
		C761.13,594.81,762.64,601.65,767.35,601.71z M779.29,608.15c-0.18-3.1-6.1-6.82-7.94-2.83
		C769.99,608.27,778.75,612.44,779.29,608.15z M770.09,602.77"/>
	<path class="st0" d="M869.23,670.06c-5.95,3-15.56-3.08-8.81-9.1c4.95-4.41,10.5,2.38,10.24,7.54c5.31-3.91,15.39,1.92,9.33,7.09
		c-2.02,1.73-4.98,1.3-7.17,0.06c-1.06-0.6-2.01-1.12-2.57-2.25c-0.42-0.84,0.13-3.23-0.21-3.56
		C869.68,669.62,869.42,669.7,869.23,670.06z M865.45,668.83c6.18-1.11,1.03-8.05-2.57-7.03
		C857.84,663.23,861.93,668.52,865.45,668.83z M875.05,669.06c-4.39-0.3-2.79,5.66,1.39,5.29
		C881.32,673.91,879.23,669.17,875.05,669.06z"/>
	<path class="st0" d="M665.27,770.13c-5.76-3.64-5.59-13.38,2.87-11.42c7.48,1.73,6.19,9.44,0.52,12.21
		c5.89,3.87,5.49,14.51-3.27,11.91C658.04,780.66,658.83,772.5,665.27,770.13z M665.4,772.09c-6.06,0.18-3.55,9.97,1.94,9.57
		C673.79,781.18,670.79,771.93,665.4,772.09z M667.47,768.81c5.7,0.03,4.81-7.5-0.11-8.26
		C660.91,759.55,661.62,768.78,667.47,768.81z"/>
	<path class="st0" d="M737.91,627.41c-5.1,0.24-9.7-7.61-5.54-11.5c2.8-2.63,4.9-0.28,7.23,1.36c2.49,1.75,3.77,1.47,6.72,2.59
		c4.38,1.66,10.08,9.43,4.31,12.85C745.53,635.72,739.29,626.39,737.91,627.41z M751.08,628.23c-0.02-4.44-9.03-11.27-10.13-3.98
		C740.08,629.99,751.11,634.4,751.08,628.23z M739.51,622.56c-0.07-4.22-6.04-9.09-6.8-2.86
		C732.23,623.69,739.08,628.37,739.51,622.56z"/>
	<path class="st0" d="M647.69,421.91c-4.99,2.34-8-2.6-4.95-6.75c3.52-4.78,7.52-1.23,7.27,3.66c6.81-2.05,13.34,4.33,7.77,10.78
		C651.64,436.72,647.04,427.52,647.69,421.91z M649.54,425.05c0,6.41,8.2,5.66,8.05-0.46C657.42,417.91,649.54,418.68,649.54,425.05
		z M648.27,417.06c-0.2-3.84-5.17-1.71-4.82,1.4C643.91,422.56,648.02,420.21,648.27,417.06z"/>
	<path class="st0" d="M882.17,501.96c-0.56-3.4,0.84-3.01,2.85-4.49c1.05-0.77,3.2-2.17,4.41-2.89c3.35-1.99,10.13-0.19,7.5,5.03
		c-0.92,1.83-2.74,1.66-4.02,2.94c-1.35,1.35-1.83,3.26-3.7,3.9c-1.22,0.42-2.7-0.8-3.82-0.47c-2.56,0.77-1.28,1.87-3.07,3.63
		c-3.29,3.24-8.88,1.73-9.24-3.23c-0.36-4.99,4.93-7.02,8.62-4.4c1.59,1.13,6.24,5.58,8.11,1.83c1.15-2.3-1.07-5.01-3.44-5.12
		C884.05,498.58,883.18,500.25,882.17,501.96z M878.5,502.34c-5.89-0.03-3.69,9.34,1.33,6.94
		C882.84,507.84,882.12,502.36,878.5,502.34z M891.94,501.85c2.35-1.61,6.18-7.92-0.13-6.93
		C886.42,495.77,890.83,499.72,891.94,501.85z"/>
	<path class="st0" d="M733.04,602.48c0.98,2.17,2.71,5.72,1.53,8.16c-1.69,3.5-5.9,2.82-8.18,0.39c-5.15-5.49-0.12-10.92,5.97-9.01
		c0.69-0.78-1.49-5.25-1.16-6.72c0.73-3.25,3.7-4.83,6.35-2.59C742.18,596.61,739.4,604.5,733.04,602.48z M726.2,605.72
		c-0.04,4.39,6.52,8.37,7.09,2.38C733.7,603.83,725.99,600.45,726.2,605.72z M737.88,598.34c-0.23-3.41-4.28-8.02-4.96-2.06
		C732.51,599.89,737.89,604.06,737.88,598.34z"/>
	<path class="st0" d="M567.22,510.48c-4.71,2.47-10.49-0.19-10.37-5.86c0.06-2.53,1.45-4.7,3.99-5.23c3.52-0.74,4.41,2.17,6.81,3.58
		c3.32,1.95,8.93,0.35,8.97,7.12C576.66,517.29,569.77,514.77,567.22,510.48z M566.78,506.24c0.01-4.35-6.9-7.39-8.32-2.48
		C556.95,508.98,566.76,512.49,566.78,506.24z M574.83,510.6c0.11-4.05-5.85-7.98-6.19-2.35
		C568.43,511.82,573.94,515.57,574.83,510.6z"/>
	<path class="st0" d="M862.52,515.78c0.29,4.29-3.33,8.46-7.27,4.62c-3.89-3.8,0.58-11.14,5.45-7.58c-0.11-4.73,3.84-10.13,8.46-5.6
		C874.24,512.2,868.54,518.93,862.52,515.78z M869.25,512.28c0.04-4.85-6.28-6.86-6.54-1.21
		C862.52,515.16,868.91,517.15,869.25,512.28z M860.99,517.34c0.46-3.74-5.19-5.45-5.63-1.14
		C854.94,520.18,859.9,521.52,860.99,517.34z"/>
	<path class="st0" d="M941.14,534.87c2.03-4.06,8.76-5.48,10.44-0.3c1.4,4.32-3.21,6.54-6.9,6.18c-2.11-0.21-5.22-0.82-7.26-1.25
		c-1.47-0.31-3.97-1.36-4.4-2.96C931.43,530.61,938.92,532.75,941.14,534.87z M945.26,538.85c5.82,0.18,5.62-6.75,0.26-5.65
		c-1.48,0.3-4.02,2.21-3.27,4.12C943.04,539.32,943.98,537.79,945.26,538.85z M937.09,533.93c-2.79,0.54-2.4,3.47,0.43,3.65
		C940.6,537.77,939.55,534.38,937.09,533.93z"/>
	<path class="st0" d="M900.06,455.44c0.05,4.72-7.1,6.98-7.73,1.61c-0.42-3.49,2.34-2.6,3.92-4.1c0.58,0.14,1.09,0.02,1.53-0.35
		c0.09-0.65,0.2-1.3,0.32-1.95c2.15-2.82,6.91-7.08,10.12-1.69C911.64,454.68,904.15,456.7,900.06,455.44z M903.39,454.51
		c5,0.1,4.85-6.59-0.1-6.15C898.95,448.75,898.75,454.42,903.39,454.51z M896.38,454.42c-2.33,0.39-2.97,4.4-0.18,4.03
		C898.72,458.12,899.07,454.68,896.38,454.42z"/>
	<path class="st0" d="M860.93,695.27c-6.67-0.1-11.93-12.08-3.33-13.01C865.38,681.42,870.14,695.4,860.93,695.27z M855.39,686.77
		c-0.13,4.9,8.77,9.62,8.76,3C864.14,686.32,855.84,681.91,855.39,686.77z"/>
	<path class="st0" d="M734.27,559.2c9.74,0.05,7.32,15.52-1.95,13.45C724.3,570.85,726.13,559.16,734.27,559.2z M733.87,561.09
		c-6.22,0.17-5.96,9.95,0.21,9.81C740.31,570.75,740.12,560.92,733.87,561.09z"/>
	<path class="st0" d="M695.95,680.21c6.92-0.19,14.28,12.19,4.81,13.32C693.26,694.44,685.94,680.49,695.95,680.21z M700.08,691.79
		c7.05-0.01,1.03-9.59-3.59-9.66C689.18,682.04,695.03,691.8,700.08,691.79z"/>
	<path class="st0" d="M586.02,578.16c-4.32,1.91-11.42-3.19-6.59-7.19c4.65-3.86,8.22,2.77,7.69,6.7c2.45-0.52,5.9-1.23,7.06,1.77
		c0.94,2.41-1.02,4.67-3.58,4.58c-2.5-0.09-3.22-2.02-4.12-3.88C586.3,579.77,587.62,576.8,586.02,578.16z M583.14,577.08
		c4.01,0.01,2.11-5.47-1.16-5.15C578.03,572.31,579.82,577.07,583.14,577.08z M590.53,582.27c2.69-0.16,3.05-3.28,0.22-3.64
		C587.7,578.23,587.35,582.16,590.53,582.27z"/>
	<path class="st0" d="M567.64,666.33c7.52-0.1,11.12,12.44,2.17,12.53C562.64,678.92,558.76,666.45,567.64,666.33z M573.05,673.59
		c-0.15-4.89-9.02-7.82-9.02-1.69C564.03,676.04,572.95,678.86,573.05,673.59z"/>
	<path class="st0" d="M726.17,638.31c-7.91,0.1-11.08-13.54-1.91-13.67C731.86,624.53,735.14,638.19,726.17,638.31z M729.62,632.49
		c-0.12-5.37-8.87-8.85-9.28-2.06C719.99,636.14,729.77,639.23,729.62,632.49z"/>
	<path class="st0" d="M709.2,509.04c9.04-0.07,9.45,13.18,0.15,12.33C701.48,520.66,700.65,509.1,709.2,509.04z M709.67,510.89
		c-6.55-0.04-5.62,8.76,0.32,8.74C716.74,519.61,714.64,509.69,709.67,510.89z"/>
	<path class="st0" d="M905.61,611.58c-3.34-0.25-8.68-1.5-9.33-5.44c-0.54-3.26,2.17-5.75,5.11-6.22
		C909.16,598.67,914.04,611.99,905.61,611.58z M902.3,601.83c-6.59-0.08-3.55,7.61,2.37,7.59
		C911.77,609.38,907.15,601.74,902.3,601.83z"/>
	<path class="st0" d="M665.61,629.51c0.24,9.19-12.03,4.54-12.32-2.73C652.89,617.03,665.4,621.68,665.61,629.51z M663.63,629.48
		c-0.1-4.48-7.7-10.04-8.59-3.26C654.37,631.4,663.78,635.97,663.63,629.48z"/>
	<path class="st0" d="M864.55,714.29c0.16,8.62-12.34,2.46-12.11-3.1C852.8,702.45,864.42,707.34,864.55,714.29z M860.54,716.37
		c4.05-1.7,1.74-7.55-2.6-7.55C850.94,708.82,856.74,715.57,860.54,716.37z"/>
	<path class="st0" d="M798.23,458.73c8.91,0.03,7.03,12.33-0.58,12.05C789.68,470.49,790.04,458.7,798.23,458.73z M802.09,463.87
		c0.1-4.9-9.08-3.57-8.35,1.44C794.54,470.86,801.99,468.92,802.09,463.87z"/>
	<path class="st0" d="M708.66,614.89c0.22,8.79-12.13,6.96-12.73-0.96C695.22,604.52,708.45,606.23,708.66,614.89z M702.52,619.07
		c6.46,0.13,5.02-9.81-0.69-9.89C695.46,609.09,696.74,618.95,702.52,619.07z"/>
	<path class="st0" d="M940.97,609.03c0.31,8.27-12.88,6.37-12.82-0.78C928.21,600.69,940.68,601.17,940.97,609.03z M934.68,604.76
		c-5.5,0.09-5.57,6.72-0.38,7.59C940.59,613.4,941.04,604.66,934.68,604.76z"/>
	<path class="st0" d="M709.7,608.98c-0.04-9.02,13.02-5.4,12.63,2.6C721.86,620.92,709.73,616.84,709.7,608.98z M720.38,611.22
		c-0.04-5.74-8.91-8.82-9.24-1.88C710.88,614.73,720.43,617.88,720.38,611.22z"/>
	<path class="st0" d="M848.07,725.4c0.29,8.06-10.66,3.65-11.59-1.89C834.92,714.21,847.88,716.97,848.07,725.4z M846.54,725.89
		c-0.14-4.94-8.85-9.46-7.99-2.66C838.91,726.17,846.2,730.29,846.54,725.89z"/>
	<path class="st0" d="M728.38,591.37c-0.34,8.45-11.86,5.87-11.69-1.56C716.88,581.19,728.68,583.73,728.38,591.37z M726.61,591.27
		c0.03-4.62-7.21-7.55-7.76-1.77C718.41,594.21,726.58,597.17,726.61,591.27z"/>
	<path class="st0" d="M856.35,657.42c-0.31,8.08-12.79,5.31-12.31-1.68C844.58,648,856.62,650.32,856.35,657.42z M851.01,660.52
		c5.74,0.08,3.41-7.77-1.4-7.5C844.19,653.32,846.32,660.48,851.01,660.52z"/>
	<path class="st0" d="M798.17,480.69c-0.48,8.42-13.56,9.45-12.71,0.84C786.08,475.24,798.58,473.66,798.17,480.69z M796.13,480.34
		c0.62-4.05-10.08-2.76-8.4,2.8C789.52,489.02,795.93,484.53,796.13,480.34z"/>
	<path class="st0" d="M622.34,540.09c-8.54-0.02-8.78-13.07,0.22-11.96C630.17,529.08,630.63,540.11,622.34,540.09z M622.58,538.11
		c6.61-0.02,4.24-9.12-1.82-8.04C615.15,531.08,617.71,538.13,622.58,538.11z"/>
	<path class="st0" d="M876.32,737.68c0.1,7.8-12.11,2.17-12.25-3.51C863.84,725.56,876.23,730.69,876.32,737.68z M865.94,734.03
		c0.12,3.11,6.69,8.11,8.45,4C876.25,733.67,865.73,728.89,865.94,734.03z"/>
	<path class="st0" d="M739.01,574.56c7.96,0.21,9.02,10.64,0.71,11.34C730.76,586.66,729.91,574.32,739.01,574.56z M739.21,576.38
		c-6.3,0.03-6.21,7.62-0.03,7.66C745.13,584.07,744.99,576.36,739.21,576.38z"/>
	<path class="st0" d="M708.79,645.58c-0.07-7.78,12.21-4.72,12.1,2.07C720.75,656.09,708.85,652.88,708.79,645.58z M710.65,645.63
		c-0.09,4.51,7.48,7.76,7.99,2.09C719.04,643.41,711.02,640.21,710.65,645.63z"/>
	<path class="st0" d="M780.63,620.8c3.43-1.13,7.4-2.07,10.04,1.27c1.76,2.24,1.95,5.44-0.31,7.37c-5.76,4.92-10.73-3.01-10.73-7.63
		C781.66,622.43,780.12,621.25,780.63,620.8z M787.11,628.76c5.34-0.63,2.28-7.47-2.09-7C779.45,622.35,782.51,628.87,787.11,628.76
		z"/>
	<path class="st0" d="M658.12,541.47c-8.06-0.04-9.05-14.02-0.57-12.91C664.56,529.48,666.44,541.52,658.12,541.47z M656.57,530.41
		c-5.87,0.06-2.99,9.38,1.83,9.16C664.47,539.3,661.67,530.36,656.57,530.41z"/>
	<path class="st0" d="M835.12,714.95c0.04,7.81-11.98,4.65-11.66-1.55C823.85,705.95,835.08,707.52,835.12,714.95z M833.12,714.61
		c-0.2-4.79-7.72-4.94-7.26-0.45C826.21,717.63,832.49,718.65,833.12,714.61z"/>
	<path class="st0" d="M808.61,488.22c0.16,9.49-14.55,9-12.16,0.22C797.82,483.37,808.5,481.46,808.61,488.22z M804.36,485.81
		c-4.47,0.04-9.82,6.72-3.12,7.91C805.21,494.42,808.97,485.61,804.36,485.81z"/>
	<path class="st0" d="M863.6,495.39c-8.65-0.36-5.42-12.52,2.01-12.19C874.29,483.59,871.39,495.71,863.6,495.39z M869.3,488.74
		c0.06-5.36-7.6-4.33-8.8-0.14C858.6,495.2,869.23,494.93,869.3,488.74z"/>
	<path class="st0" d="M878.9,652.7c-8.46,0.19-7.17-12.42,0.59-10.94C886.21,643.04,886.24,652.54,878.9,652.7z M878.53,650.73
		c4.85-0.1,5.28-6.45,0.38-6.92C874.05,643.34,873.42,650.84,878.53,650.73z"/>
	<path class="st0" d="M718.36,808.68c0.22-8.35,12.61-4.35,12.27,2.6C730.22,819.8,718.17,816,718.36,808.68z M723.28,805.62
		c-6.04,0.01-2.64,9.33,2.26,8.66C731.45,813.47,727.91,805.62,723.28,805.62z"/>
	<path class="st0" d="M887.53,569.04c-7.86,1.21-8.47-12.67,0.18-11.76c2.84,0.3,7.47,4.14,7.14,7.44
		C894.44,568.68,890.61,568.77,887.53,569.04z M889.3,567.37c6.35,0.08,2.63-8.31-2.02-8.26
		C880.96,559.18,882.99,567.6,889.3,567.37z"/>
	<path class="st0" d="M554.6,684.55c-1.17,0.96,0.91,4.36-1.16,6.18c-2.95,2.59-6.83,0.3-8.75-2.3c-5-6.72,2.15-11.4,7.93-6.39
		l-0.06-0.06c0.35,0.37,0.43,1.02,1.1,1.08l-0.06-0.07c-0.02,0.77,0.05,1.49,1.05,1.58L554.6,684.55z M552.65,687.19
		c-0.67-3.83-8.02-8.94-7.73-2.38C545.06,688.31,552.68,692.42,552.65,687.19z"/>
	<path class="st0" d="M660.05,518.99c-8.13-0.12-9.81-14.64-1.04-12.47C664.89,507.97,668.42,519.12,660.05,518.99z M663.28,513.96
		c-0.1-4.33-8.57-9.01-8.86-2.84C654.21,515.57,663.42,519.83,663.28,513.96z"/>
	<path class="st0" d="M763.86,634.08c-7.36-0.15-9.46-11.76-1.35-11.92C770.19,622.01,772.93,634.26,763.86,634.08z M762.5,624.06
		c-6.1-0.01-3.75,7.61,0.91,8.08C770.01,632.8,768.23,624.06,762.5,624.06z"/>
	<path class="st0" d="M698.01,493.96c-7.06,0.1-11.07-11-2.59-11.74C703.13,481.56,707.26,493.83,698.01,493.96z M696.25,484
		c-6.57-0.08-3.27,8.31,1.87,7.97C704.22,491.57,700.82,484.05,696.25,484z"/>
	<path class="st0" d="M725.03,742.26c7.73-0.09,10.43,13.08,1.8,13.34C719.13,755.82,716.46,742.35,725.03,742.26z M730.62,749.78
		c0.08-5.46-8.64-8.63-9.53-2.19C720.31,753.32,730.52,756.55,730.62,749.78z"/>
	<path class="st0" d="M809.94,430.42c7.48-0.06,4.72,12.19-2.3,11.04C800.56,440.31,803.8,430.47,809.94,430.42z M812.39,435.17
		c-0.95-1.96-0.89-3.4-3.76-2.26c-1.48,0.59-2.94,2.83-2.62,4.41C806.9,441.79,812.39,438.86,812.39,435.17z"/>
	<path class="st0" d="M592.6,512.84c0.12,8.59-13.65,8.68-12.21-0.15C581.55,505.56,592.49,504.95,592.6,512.84z M591.06,512.58
		c0.01-5.73-9.17-4.63-9.06,0.89C582.13,519.6,591.05,518.11,591.06,512.58z"/>
	<path class="st0" d="M552.62,682.04c-0.36-3.04-2.14-5.68,1.33-7.91c2.89-1.86,6.33-0.34,8.22,2.19c4.45,5.93-3.2,12.58-7.52,8.26
		c0.07-0.8-0.28-1.33-1.05-1.58c-0.04-0.13-0.56-0.89-1.04-1.01L552.62,682.04z M561.66,680.42c-0.14-5.7-9.31-6.99-8.45-1.27
		C553.75,682.71,562.07,686.07,561.66,680.42z"/>
	<path class="st0" d="M650.67,542.08c8.25,0.32,8.73,12.25,0.07,11.73C642.95,553.35,642.24,541.75,650.67,542.08z M651.46,551.82
		c5.7-0.06,4.87-7.22-0.16-7.92C644.67,542.96,645.13,551.88,651.46,551.82z"/>
	<path class="st0" d="M693.52,716.29c0.03,8.43-12.61,6.13-11.44-1.61C683.19,707.38,693.5,709.46,693.52,716.29z M687.78,720
		c4.9,0.09,4.63-7.09,0.37-7.96C682.6,710.9,682.5,719.9,687.78,720z"/>
	<path class="st0" d="M819.15,492.27c-7.17,0.05-7.02-10.73,0.13-10.91C827.26,481.15,825.89,492.29,819.15,492.27z M822.57,486.08
		c0.82-4.33-6.86-3.5-6.83,0.84C815.78,492.06,822.66,491.12,822.57,486.08z"/>
	<path class="st0" d="M621.29,576.62c-0.03-7.72,12.58-3.12,12.19,3.18C633,587.62,621.32,582.93,621.29,576.62z M628.68,581.83
		c5.66,0.15,1.21-7.85-2.72-7.32C620.28,575.29,624.83,581.71,628.68,581.83z"/>
	<path class="st0" d="M789.75,610.21c-7.02-0.91-10.6-12.47-1.62-11.6C794.56,599.23,798.42,610.64,789.75,610.21z M789.79,608.42
		c6,0.12,2.65-8.55-2.27-7.92C781.48,601.29,785.35,608.33,789.79,608.42z"/>
	<path class="st0" d="M777.38,480.34c-0.01,7.21-10.35,8.69-10.94,0.91C765.82,472.97,777.4,471.24,777.38,480.34z M768.18,480.24
		c-0.21,5.45,6.54,5.74,7.48,0.64C776.78,474.81,768.42,474.06,768.18,480.24z"/>
	<path class="st0" d="M663.48,442.28c-7.43,0.14-8.25-11.89-0.62-11.94C669.83,430.3,671.14,442.14,663.48,442.28z M667.01,436.98
		c0.13-5.28-8.46-6.29-7.67-0.41C659.91,440.77,666.89,441.88,667.01,436.98z"/>
	<path class="st0" d="M794.39,631.76c0.11-7.41,10.92-4.25,11.4,1.37C806.52,641.56,794.28,639.99,794.39,631.76z M800.42,637.22
		c4.63,0.4,3.9-7.51-1.01-7.74C794.26,629.23,796.25,636.7,800.42,637.22z"/>
	<path class="st0" d="M833.31,576.24c6.85,0.12,9.87,10.21,1.36,10.26C827.08,586.54,824.36,575.43,833.31,576.24z M832.81,578.16
		c-5.79-0.38-3.06,5.75,1.04,6.37C840.46,585.54,838.3,578.48,832.81,578.16z"/>
	<path class="st0" d="M775.84,430.02c-7.01,0.01-7.19-11.96-0.09-12.16C782.96,417.66,783.97,430,775.84,430.02z M776.14,428.06
		c5.12-0.14,4.53-8.13-0.04-8.46C770.78,419.21,771.11,428.2,776.14,428.06z"/>
	<path class="st0" d="M640.42,483.7c0.07-8.04,11.11-2.82,11.42,2.97C652.32,495.33,640.36,490.95,640.42,483.7z M649.71,487.08
		c-0.05-4.42-8-9-7.64-2.57C642.26,488.02,649.84,492.61,649.71,487.08z"/>
	<path class="st0" d="M802.9,453.74c-7.12-0.1-5.34-11.77,2.02-11.09C812.56,443.37,809.73,453.84,802.9,453.74z M804.99,444.58
		c-3.95-0.05-6.85,5.49-2.49,7.05C807.35,453.35,809.79,444.54,804.99,444.58z"/>
	<path class="st0" d="M691.74,620.7c0,7.55-10.08,4.73-11.07-1.27C679.18,610.29,691.74,612.39,691.74,620.7z M690.19,619.92
		c-0.14-4.82-8.21-7.32-8.24-1.24C681.93,623.26,690.36,625.69,690.19,619.92z"/>
	<path class="st0" d="M714.69,582.22c-0.1,8.37-12.38,6.32-11.33-1.61C704.38,572.84,714.77,574.89,714.69,582.22z M712.83,582.02
		c0.04-4.59-6.37-6.59-7.62-1.77C703.8,585.72,712.78,588.39,712.83,582.02z"/>
	<path class="st0" d="M908.6,684.89c7.03,0.09,7.33,11.49-0.77,10.16C901.32,693.98,901.97,684.81,908.6,684.89z M908.32,692.75
		c4.57,0.01,5.26-4.79,0.75-5.43C905.05,686.74,903.99,692.14,908.32,692.75z"/>
	<path class="st0" d="M888.69,527.76c7.95-0.11,10.19,10.83,1.18,11.08C882.73,539.02,879.86,527.88,888.69,527.76z M889.35,537.3
		c6.32-0.04,6.1-7.3,0.19-7.9C883.48,528.77,883.85,537.33,889.35,537.3z"/>
	<path class="st0" d="M688.45,480.64c-7.31-0.03-9.47-11.79-1.26-12C694.99,468.43,696.85,480.68,688.45,480.64z M688.43,478.88
		c6.48,0.08,3.69-9.81-1.95-8.65C681.23,471.31,683.82,478.82,688.43,478.88z"/>
	<path class="st0" d="M788.71,717.82c6.16,0.02,10.2,10.77,2.33,10.92C784.53,728.86,780.41,717.79,788.71,717.82z M791.04,726.68
		c5.27,0.15,1.09-7.24-2.44-7.21C782.94,719.51,787.23,726.57,791.04,726.68z"/>
	<path class="st0" d="M824.42,448.71c0.08-7.77,11.72-5.31,10.41,1.76C833.65,456.84,824.36,454.86,824.42,448.71z M832.87,449.05
		c-0.12-4.02-6.68-4.24-6.24,0.19C827.01,453.03,832.75,453.03,832.87,449.05z"/>
	<path class="st0" d="M674.03,732.51c-0.04-7.7,11.8-6.49,11.67,0.92C685.54,741.54,674.07,739.95,674.03,732.51z M683.72,733.38
		c-0.08-5.89-9.02-5.79-7.77,0.28C676.87,738.09,683.79,738.37,683.72,733.38z"/>
	<path class="st0" d="M718.37,528.51c8.39,0.1,5.78,11.82-1.82,10.76C708.86,538.19,711.34,528.42,718.37,528.51z M717.7,537.5
		c4.94-0.16,5.94-7.42,0.46-7.51C713.36,529.92,711.85,537.7,717.7,537.5z"/>
	<path class="st0" d="M861.3,731.25c0.19,7.3-10.36,3.73-10.65-2.26C850.27,721.05,861.13,724.67,861.3,731.25z M852.67,728.6
		c-0.22,3.93,6.25,7.02,7.12,2.39C860.4,727.76,852.39,723.92,852.67,728.6z"/>
	<path class="st0" d="M729.11,714.16c7.96-0.12,8.39,13.61-0.08,12.44C722.36,725.68,721.87,714.27,729.11,714.16z M733.58,720.72
		c0.01-5.87-8.74-6.56-8.14-0.31C725.93,725.47,733.57,726.34,733.58,720.72z"/>
	<path class="st0" d="M873.3,535.57c7.05,0.04,7.18,12.78-0.6,11.91C865.16,546.65,865.35,535.53,873.3,535.57z M873.82,546.03
		c4.92-0.28,4.01-9.02-1.36-8.25C866.71,538.6,869.12,546.3,873.82,546.03z"/>
	<path class="st0" d="M820.69,634.62c8.03,0.04,6.63,12.77-0.85,10.5C813.57,643.2,813.48,634.87,820.69,634.62z M820.37,636.64
		c-4.77,0.62-3.49,6.35,0.64,6.76C825.81,643.88,825.34,636.69,820.37,636.64z"/>
	<path class="st0" d="M804.22,557.66c6.56,0.11,9.36,10.88,1.39,10.89C798.84,568.55,795.86,557.52,804.22,557.66z M804.18,559.56
		c-5.33,0.17-2.89,6.77,0.95,7.31C811.02,567.71,809.18,559.71,804.18,559.56z"/>
	<path class="st0" d="M773.22,524.51c0.08,6.98-10.22,6.84-10.95,0.21C761.4,516.91,773.13,516.61,773.22,524.51z M767.32,520.37
		c-4.59,0.03-4.04,6.47-0.09,7.22C772.53,528.6,772.4,520.34,767.32,520.37z"/>
	<path class="st0" d="M861.8,702.76c-0.04-7.24,10.24-5.17,10.36,1.12C872.31,711.37,861.83,709.3,861.8,702.76z M870.43,704.34
		c-0.14-4.05-6.88-5.57-6.22-0.8C864.63,706.57,870.8,708.3,870.43,704.34z"/>
	<path class="st0" d="M838.64,462.89c-0.09,6.91-10.17,6.69-10.93,0.43C826.76,455.52,838.75,454.9,838.64,462.89z M836.8,462.71
		c0.15-5.58-8.52-4.35-7.11,0.89C830.79,467.69,836.68,467.16,836.8,462.71z"/>
	<path class="st0" d="M586.28,659.65c-0.02-7.81,10.72-5.37,11.08,1.46C597.8,669.42,586.3,666.68,586.28,659.65z M593.07,664.63
		c4.86-0.53,1.83-9.27-2.48-8.15C585.44,657.81,588.62,664.77,593.07,664.63z"/>
	<path class="st0" d="M921.07,603.17c8.44,0.11,7.76,12.5-1.11,9.61C914.59,611.03,914.85,603.08,921.07,603.17z M922.39,611.06
		c5.12-0.55,2.83-6.12-1.44-5.82C915.71,605.6,918.34,610.79,922.39,611.06z"/>
	<path class="st0" d="M666.93,498.41c-0.04,7.6-11.76,2.97-11.11-3.34C656.62,487.29,666.96,492.58,666.93,498.41z M665,498.15
		c-0.09-3.6-6.8-8.19-7.44-2.88C657.13,498.92,665.13,503.18,665,498.15z"/>
	<path class="st0" d="M787.37,713.23c-8.07-0.01-8.54-13.09-0.24-10.88C792.59,703.8,794.59,713.24,787.37,713.23z M790.47,708.74
		c-0.01-4.19-7.66-7.25-8.1-2.09C782.04,710.59,790.13,713.72,790.47,708.74z"/>
	<path class="st0" d="M796.59,579.85c0.17,6.79-10.85,5.88-12.24,0.43C782.28,572.17,796.4,572.38,796.59,579.85z M789.84,575.7
		c-5.93,0.12-3.78,7.26,1.38,7.36C797.33,583.19,795.11,575.59,789.84,575.7z"/>
	<path class="st0" d="M732.12,668.56c0.05-7.11,11.96-3.83,10.89,2.7C741.88,678.1,732.07,674.58,732.12,668.56z M737.94,672.9
		c5.54-0.06,2.72-7.15-1.44-6.75C731.77,666.61,733.9,673,737.94,672.9z"/>
	<path class="st0" d="M730.31,765.6c0.18,7.52-10.03,7.87-10.3,0.29C719.73,757.97,730.11,757.29,730.31,765.6z M728.76,765.28
		c0.11-6.04-7.85-4.63-7.02,0.98C722.51,771.55,728.67,770.22,728.76,765.28z"/>
	<path class="st0" d="M918.18,543.87c-0.79-6.54,10.65-4.15,9.97,2.52c-0.26,2.52-2.58,4.08-5.03,4.02
		C919.2,550.3,918.44,547.1,918.18,543.87z M922.56,548.57c4.25-0.4,4.22-5.43,0.25-6.28C918.74,541.41,919.04,547.72,922.56,548.57
		z"/>
	<path class="st0" d="M665.33,549.54c7.34-0.07,8.17,11.45,0.49,11.51C658.45,561.11,657.63,549.62,665.33,549.54z M665.88,559.1
		c5.53,0.07,4.66-7.65-0.39-7.74C659.78,551.25,660.67,559.03,665.88,559.1z"/>
	<path class="st0" d="M799.6,759.78c-6.18,0.08-9.96-11.3-2.34-11.28C803.1,748.51,806.94,759.68,799.6,759.78z M801.88,755.58
		c-0.11-3.9-6.64-8.49-7.17-2.63C794.39,756.52,801.67,760.3,801.88,755.58z"/>
	<path class="st0" d="M771.82,590.45c0.05-7.15,11.7-6.19,11.41,0.6C782.95,597.76,771.77,597.43,771.82,590.45z M777.81,587.1
		c-4.86,0.01-5.04,7.17-0.05,7.1C782.21,594.13,782.81,587.09,777.81,587.1z"/>
	<path class="st0" d="M714.25,480.96c7.49,0.23,7.79,12.97,0.34,11.61C709.37,491.62,707.59,480.76,714.25,480.96z M718.46,487.71
		c0.14-4.13-6.87-7.26-6.65-1.51C711.95,489.88,717.93,493,718.46,487.71z"/>
	<path class="st0" d="M597.95,522.97c-0.06-8.35,12-5.53,10.84,1.98C607.65,532.32,597.99,529.57,597.95,522.97z M603.88,527.59
		c5.19,0.13,3.58-8.81-1.49-8.07C597.35,520.24,599.55,527.48,603.88,527.59z"/>
	<path class="st0" d="M635.84,643.98c-6.2,0.01-10.89-10.7-2.78-11.14C639.47,632.5,644.04,643.97,635.84,643.98z M635.95,642.1
		c5.26-0.19,1.17-8.03-2.8-7.47C627.29,635.46,631.89,642.08,635.95,642.1z"/>
	<path class="st0" d="M654.75,523.3c0.08,7.02-11.24,7.02-11.32,0.02C643.34,516.15,654.66,516.01,654.75,523.3z M649.32,526.98
		c5.41,0.16,4.48-8.25-0.92-7.39C643.59,520.35,644.78,526.84,649.32,526.98z"/>
	<path class="st0" d="M611.87,640.93c6.4-0.06,10.1,11.31,2.4,11.73C608,652.99,603.83,641,611.87,640.93z M612.18,642.81
		c-5.64-0.11-3.19,7.46,1.07,7.84C619.11,651.17,616.76,642.78,612.18,642.81z"/>
	<path class="st0" d="M830.01,469.51c6.23,0.08,6.37,10.67-0.05,10.79C822.73,480.44,821.95,469.41,830.01,469.51z M829.86,471.38
		c-4.99,0.05-4.89,6.84-0.22,7.05C834.12,478.64,833.95,471.34,829.86,471.38z"/>
	<path class="st0" d="M741.07,455.88c0.03,7.03-10.64,4.1-10.51-1.93C730.72,446.42,741.04,449.51,741.07,455.88z M736.96,458.09
		c4.51-0.15,1.09-7.48-2.38-6.73C730.27,452.3,733.55,458.21,736.96,458.09z"/>
	<path class="st0" d="M717.7,780.37c-0.4-8.4,12.65-4.99,10.64,2.83C726.52,790.28,716.89,786.94,717.7,780.37z M726.69,781.74
		c-0.09-5.98-8.71-6.09-7.54,0.08C719.99,786.28,726.76,786.9,726.69,781.74z"/>
	<path class="st0" d="M646.02,510.57c-0.03,7.27-10.26,3.52-9.93-2.58C636.52,500.2,646.04,504.48,646.02,510.57z M644.08,510.71
		c0.05-2.79-4.28-7.96-5.96-3.57C636.76,510.7,643.73,515.05,644.08,510.71z"/>
	<path class="st0" d="M638.79,494.36c0.06,7.36-10.81,1-10.66-4.42C628.35,481.94,638.74,489.04,638.79,494.36z M636.89,494.09
		c0.09-2.75-5.9-8.62-7.3-4.54C628.44,492.89,636.96,498.4,636.89,494.09z"/>
	<path class="st0" d="M676.3,507.95c-6.1-0.5-8.47-12.84-1.56-11.65C679.52,497.11,682.93,507.73,676.3,507.95z M678.17,504.14
		c-0.01-2.82-4.65-9.12-6.21-4.08C671.01,503.12,677.99,508.6,678.17,504.14z"/>
	<path class="st0" d="M793.21,743.01c-6.64-0.05-9.34-10.44-1.42-10.3C798.22,732.81,800.98,743.07,793.21,743.01z M793.54,741.32
		c5.39-0.76,2.18-7.49-2.06-7.01C786.15,734.91,789.12,741.34,793.54,741.32z"/>
	<path class="st0" d="M672.25,440.17c6.38,0.13,6.42,11.7-0.34,11.61C665.27,451.69,665.14,440.03,672.25,440.17z M668.73,445
		c-0.05,4.84,6.23,7.33,6.59,1.43C675.57,442.15,669.32,439.77,668.73,445z"/>
	<path class="st0" d="M831.34,533.95c-0.1,7.18-11.42,6.46-10.99-0.66C820.76,526.45,831.43,527.18,831.34,533.95z M826.09,530.09
		c-4,0-5.08,5.36-1.59,7.06C829.53,539.6,832.12,530.09,826.09,530.09z"/>
	<path class="st0" d="M749.48,592.77c-0.03,7.3-9.69,7.05-9.62-0.2C739.95,584.96,749.51,584.65,749.48,592.77z M741.68,592.47
		c0.06,5.54,6.58,4.63,6.25-0.45C747.61,587.08,741.62,587.33,741.68,592.47z"/>
	<path class="st0" d="M764.98,500.74c0.03-8.76,9.77-5.6,8.82,1.55C772.86,509.41,764.56,507.6,764.98,500.74z M772.36,501.14
		c-0.06-4.53-5.16-5.66-5.64-0.76C766.19,505.69,772.43,506.54,772.36,501.14z"/>
	<path class="st0" d="M881.96,465.78c-0.26-6.65,10.53-5.64,11.97-0.32C895.95,472.87,882.07,473.37,881.96,465.78z M887.73,462.78
		c-5.27,0.08-4.62,6.23,0.11,6.8C893.69,470.29,893.2,462.69,887.73,462.78z"/>
	<path class="st0" d="M682.46,559.54c7.39-0.28,7.69,12.15,0.45,10.56C677.25,568.87,675.24,559.82,682.46,559.54z M682.92,561.37
		c-5.68-0.02-3.38,6.57,0.61,6.85C688.4,568.55,687.35,561.38,682.92,561.37z"/>
	<path class="st0" d="M760.65,590.99c-0.25,7.01-9.85,5.38-10.43-0.65C749.48,582.65,760.92,583.36,760.65,590.99z M754.9,586.56
		c-4.75-0.03-2.89,7.41,1.01,7.42C760.68,593.98,759.28,586.59,754.9,586.56z"/>
	<path class="st0" d="M735.27,483.56c-5.48-0.05-9.2-9.59-1.82-9.75C740.12,473.67,742.53,482.15,735.27,483.56z M735.24,481.61
		c5.65-0.97,0.9-6.81-2.46-5.72C729.26,477.03,732.52,481.57,735.24,481.61z"/>
	<path class="st0" d="M702.68,680.39c-7.96-0.02-6.39-10.69,0.83-9.84C710.05,671.31,709.13,680.4,702.68,680.39z M702.17,678.71
		c4.54,0.09,5.23-6.44,0.42-6.39C698.49,672.35,697.5,678.62,702.17,678.71z"/>
	<path class="st0" d="M921.92,704.53c-6.03-0.15-6.96-7.35-1.2-8.99C927.66,693.56,929.64,704.72,921.92,704.53z M925.33,699.52
		c-1.18-2.34-6.58-3.31-6.68,0.39C918.56,703.24,925.37,702.91,925.33,699.52z"/>
	<path class="st0" d="M779.24,677.56c-5.11,0.05-9.76-9.28-3.25-10.06C781.59,666.83,786.68,677.49,779.24,677.56z M778.98,675.52
		c4.41,0.37,0.99-5.63-1.74-5.94C771.73,668.95,775.85,674.77,778.98,675.52z"/>
	<path class="st0" d="M614.76,628.23c-5.43-0.07-7.85-9.07-1.94-10.22C619.23,616.76,622.25,628.32,614.76,628.23z M617.4,624.04
		c-0.09-3.64-5.9-6.52-6.54-1.88C610.4,625.48,617.29,628.22,617.4,624.04z"/>
	<path class="st0" d="M834.21,644.44c1.87,2.65,5.63,1.19,7.27,4.7c1.23,2.63,0.18,5.61-2.62,6.41c-2.54,0.73-5.49-0.96-6.48-3.29
		C831.07,649.22,835.43,645.93,834.21,644.44z M837.58,653.87c4.38-0.04,2.83-6.16-0.9-6.05
		C832.37,647.96,833.68,653.91,837.58,653.87z"/>
	<path class="st0" d="M768.73,441.25c-0.97-7.31,9.27-4.38,9.47,2.12C778.45,451.69,768.6,448.1,768.73,441.25z M776.61,443.79
		c0.4-3.69-5.43-8.19-6.25-2.49C769.82,445.07,775.12,449.18,776.61,443.79z"/>
	<path class="st0" d="M906.4,518.69c7.16-0.08,7.03,10.56-0.38,9.67C899.77,527.6,899.74,518.76,906.4,518.69z M906.69,526.67
		c4.44-0.03,4.26-6.08-0.11-6.05C902.19,520.65,902.17,526.71,906.69,526.67z"/>
	<path class="st0" d="M691.95,705.89c-6.55-0.1-9.29-9.19-1.53-9.46C697.16,696.2,699.79,706.01,691.95,705.89z M691.99,704.11
		c5.53-0.19,2.85-6.19-1.53-5.9C685.17,698.57,687.45,704.12,691.99,704.11z"/>
	<path class="st0" d="M685.97,515.06c-5.78-0.38-8.65-10.43-1.58-10.32C690.33,504.83,693.34,515.54,685.97,515.06z M683.99,506.66
		c-4.66,0.73-1.22,6.82,2.12,6.67C691.2,513.09,687.5,507.05,683.99,506.66z"/>
	<path class="st0" d="M841.46,510.99c8.22-0.1,5.52,12.05-1.96,10.86C832.36,520.72,835.04,511.07,841.46,510.99z M844.87,515.78
		c0.08-5.16-7.16-3.88-7.83,0.31C836.1,521.92,844.78,521.1,844.87,515.78z"/>
	<path class="st0" d="M636.88,537.04c7.13,0.08,7.34,11.22-0.04,10.06C631.17,546.2,630.38,536.97,636.88,537.04z M636.48,538.95
		c-4.71,0.57-2.36,6.66,1.47,6.26C642.54,544.73,640.48,538.94,636.48,538.95z"/>
	<path class="st0" d="M851.29,582.09c-5.36-0.87-8.37-8.56-1.1-8.83C856.83,573.01,859.72,581.55,851.29,582.09z M851.84,580.26
		c5.31,0.22,2.08-5.23-1.28-5.18C845.76,575.16,848.11,580.17,851.84,580.26z"/>
	<path class="st0" d="M890.5,685.02c-5.88-0.3-5.97-8.46-0.16-8.77C896.85,675.9,897.16,685.36,890.5,685.02z M890.91,682.89
		c3.61-0.52,3.04-4.54-0.44-4.12C887.14,679.17,887.63,682.74,890.91,682.89z"/>
	<path class="st0" d="M702.82,505.97c-6.41,0.09-6.33-9.97,0.23-9.8C709.39,496.34,709.19,505.88,702.82,505.97z M702.92,504.04
		c3.83-0.32,3.85-6.09-0.01-6.14C699.03,497.86,699.01,503.75,702.92,504.04z"/>
	<path class="st0" d="M604.88,657.9c-5.99,0.02-9.53-10.51-2.01-9.8C608.15,648.61,612.3,657.87,604.88,657.9z M604.56,656
		c5.08-0.08,1.11-6.3-2.06-6.2C597.22,649.96,601.05,655.72,604.56,656z"/>
	<path class="st0" d="M882.92,735.09c-5.19,0.02-10.07-8.6-3.15-9.13C884.54,725.6,889.06,734.75,882.92,735.09z M884.09,731.87
		c-0.1-2.08-5.23-5.21-5.54-2.21C878.29,732.2,884.39,734.19,884.09,731.87z"/>
	<path class="st0" d="M700.07,572.57c-0.03,7.21-9.93,6.86-9.81-0.32C690.39,564.78,700.1,564.94,700.07,572.57z M695.2,568.31
		c-4.4-0.1-4.3,6.93-0.52,7.75C699.3,577.07,699.8,568.41,695.2,568.31z"/>
	<path class="st0" d="M816.34,541.24c7.85,0.1,4.97,10.61-1.72,9.6C808.24,549.88,810.4,541.17,816.34,541.24z M819.51,545.2
		c-0.11-3.85-7.03-2.18-6.94,1.32C812.69,550.99,819.43,549.18,819.51,545.2z"/>
	<path class="st0" d="M886.68,607.58c-0.27,5.96-9.91,3.38-9.7-1.62C877.25,599.45,886.95,601.47,886.68,607.58z M882.93,609.05
		c4.14,0.03,1.21-5.92-1.85-4.98C876.88,605.37,880.54,608.55,882.93,609.05z"/>
	<path class="st0" d="M648.16,637.62c-5.71,0.11-9.21-9.79-2.22-10.17C651.59,627.14,655.2,637.48,648.16,637.62z M645.9,629.32
		c-4.1,0.16-1.51,6.68,1.81,6.5C652.49,635.56,649.59,629.4,645.9,629.32z"/>
	<path class="st0" d="M820.21,441.73c-6.54,0.06-6.05-10.84,0.25-9.95C826.1,432.57,826.06,441.68,820.21,441.73z M819.63,433.43
		c-2.91,1.04-3.01,6.38,0.58,6.19C825.33,439.35,821.33,434.57,819.63,433.43z"/>
	<path class="st0" d="M736.72,705.08c-0.11,6.54-9.99,4.6-9.88-1.34C726.97,696.62,736.83,698.61,736.72,705.08z M731.13,700.87
		c-3.89,0.52-3.09,5.72,0.4,6.29C736.43,707.95,735.87,700.84,731.13,700.87z"/>
	<path class="st0" d="M769.12,547.06c-6.81-0.11-7.47-11.86-0.95-10.58C773.01,537.43,775.85,547.16,769.12,547.06z M771.37,543
		c0.08-3.05-4.92-7.14-6.15-2.74C764.15,544.13,771.41,547.44,771.37,543z"/>
	<path class="st0" d="M598.74,576.96c-6,0.07-8.05-9.31-1.38-9.65C603.55,567,605.97,576.87,598.74,576.96z M598.7,575.35
		c4.66-0.09,2.7-6.92-1.54-6.04C592.44,570.29,595.19,574.93,598.7,575.35z"/>
	<path class="st0" d="M907.87,558.65c-2.41-0.16-6.3-1.27-6.76-3.95c-0.42-2.47,2.26-4.89,4.6-4.91
		C910.94,549.76,915.04,558.61,907.87,558.65z M910.2,555.25c-1.03-2.94-7.92-5.18-7.04-0.46
		C903.52,556.7,909.8,558.02,910.2,555.25z"/>
	<path class="st0" d="M782.11,405.55c0.01,6.1-10.48,6.73-9.57-0.1C773.3,399.73,782.11,399.53,782.11,405.55z M776.1,408.5
		c2.96,0.09,6.12-3.76,2.42-5.53C774.62,401.12,772.96,408.31,776.1,408.5z"/>
	<path class="st0" d="M878.62,631.64c6.36,0.03,6.66,8.88-0.17,8.37C872.37,639.56,872.28,631.61,878.62,631.64z M878.41,633.71
		c-3.55,0.35-3.07,4.19,0.25,4.41C882.7,638.4,882.15,634.09,878.41,633.71z"/>
	<path class="st0" d="M671.16,619.75c4.83-0.04,10.01,8.29,3.57,9.73C668.86,630.78,664.07,619.81,671.16,619.75z M673.71,627.73
		c4.68,0.1,0.65-6.65-2.45-6.24C666.68,622.1,670.41,627.74,673.71,627.73z"/>
	<path class="st0" d="M776.66,462.44c-1.45,7.35-9.09,4.57-9.08-1.85C767.6,453.08,776.17,456.83,776.66,462.44z M769.13,459.93
		c0.05,2.71,3.3,8.17,5.47,3.68C776.63,459.41,768.58,456.45,769.13,459.93z"/>
	<path class="st0" d="M763.75,642.51c0.04-6.26,10.05-3.34,9.88,1.87C773.42,650.93,763.72,648.27,763.75,642.51z M769.14,646.49
		c4.29,0.52,2.17-5.85-1.3-5.82C763.17,640.71,765.69,645.99,769.14,646.49z"/>
	<path class="st0" d="M686.04,460.62c-0.1,6.15-10.87,3.16-10.47-2.2C676.03,452.2,686.13,455.38,686.04,460.62z M684.15,460.75
		c0.01-2.91-6.03-6.2-6.67-2.21C677.03,461.34,683.79,464.23,684.15,460.75z"/>
	<path class="st0" d="M728.06,545.14c6.86,0.16,5.66,8.94-0.7,8.76C720.48,553.71,721.33,544.98,728.06,545.14z M727.3,551.94
		c4.02-0.27,4.98-5.15,0.59-5.43C723.93,546.26,723.01,551.36,727.3,551.94z"/>
	<path class="st0" d="M735.64,654.45c0.1-6.93,9.27-4.47,9.24,1.28C744.85,662.46,735.56,660.63,735.64,654.45z M740.88,658.19
		c3.59-0.16,1.86-6.21-1.16-6.31C735.42,651.74,736.88,658.24,740.88,658.19z"/>
	<path class="st0" d="M729.03,439.96c0.11-7.14,8.88-2.43,9.23,2.4C738.8,449.96,728.93,446.22,729.03,439.96z M730.76,439.05
		c-0.02,2.69,4.88,9.44,5.73,4.07C736.99,440.02,730.79,436.68,730.76,439.05z"/>
	<path class="st0" d="M881.47,524.12c-6.03-0.03-5.8-10.67,0.25-10.38C887.48,514.02,887.46,524.14,881.47,524.12z M884.25,518.7
		c0.34-4.35-5.47-3.72-5.43,0.39C878.88,523.53,884.25,523.49,884.25,518.7z"/>
	<path class="st0" d="M601.69,592.29c-6.67,0.11-8.84-9.08-0.73-8.13C606.63,584.82,608.65,592.17,601.69,592.29z M601.95,590.48
		c4-0.29,2.44-3.75-0.67-4.39C595.39,584.86,596.75,590.42,601.95,590.48z"/>
	<path class="st0" d="M876.26,721.97c-4.92-0.02-8.59-9.09-2.12-8.68C878.65,713.58,881.5,720.5,876.26,721.97z M876.1,719.67
		c2.85-0.52-0.55-3.92-1.96-3.87C871.08,715.92,874.17,719.71,876.1,719.67z"/>
	<path class="st0" d="M740.48,688.12c-0.05,6.65-9.14,4.15-8.72-1.82C732.24,679.38,740.53,682.41,740.48,688.12z M733.03,686.48
		c0.04,3.41,5.13,5.61,5.6,1.38C739.03,684.32,733.14,682.23,733.03,686.48z"/>
	<path class="st0" d="M676.93,753.15c-0.1,6.19-11.58,0.22-9.76-4.85C669.16,742.76,677,749.19,676.93,753.15z M670.01,747.98
		c-2.47,0.04,0.77,7.23,3.84,6.33C677.44,753.26,672.24,748.05,670.01,747.98z"/>
	<path class="st0" d="M816.21,789.73c-0.01,6.35-11.11,1.83-9.2-3.83C808.73,780.8,816.22,785.72,816.21,789.73z M814.25,789.67
		c0.07-2.61-5.82-6.35-5.8-2.31C808.46,789.17,813.77,792.87,814.25,789.67z"/>
	<path class="st0" d="M873.28,571.14c-6.5,0-9.56-9.65-2.05-9.21C875.92,562.21,880.43,571.14,873.28,571.14z M871.08,563.72
		c-5.98,0.5-0.81,7.1,2.72,5.88C877.47,568.33,873.89,563.75,871.08,563.72z"/>
	<path class="st0" d="M821.45,594.18c-6.66-0.49-8.33-10.31-0.99-8.91C825.67,586.26,828.62,594.14,821.45,594.18z M822.24,592.63
		c4.57,0.36,0.5-7.38-3.26-5.84C814.84,588.48,819.48,592.41,822.24,592.63z"/>
	<path class="st0" d="M586.69,619.61c-5.66,0.09-7.11-9.77-0.95-9.8C591.28,609.78,592.97,619.51,586.69,619.61z M588.92,615.77
		c0.1-4.43-6.18-5.44-5.78-1.02C583.4,617.64,588.53,619.6,588.92,615.77z"/>
	<path class="st0" d="M802.52,769.73c-5.02,0.05-10.01-9.42-2.79-8.98C804.05,761,808.96,769.66,802.52,769.73z M802.01,767.76
		c3.96,0.02-0.14-5.42-2.3-5.18C795.33,763.05,799.49,767.46,802.01,767.76z"/>
	<path class="st0" d="M712.64,660.94c-0.06,6.13-9.43,5.82-9.47-0.06C703.12,654.91,712.69,654.91,712.64,660.94z M707.59,663.96
		c3.9-0.22,4.3-5.99,0.28-5.9C704.42,658.13,704,663.86,707.59,663.96z"/>
	<path class="st0" d="M763.18,556.14c5.64,0.04,8.71,9.29,2.33,9.62C760.74,566.01,757.77,555.28,763.18,556.14z M763.63,558.01
		c-2.56,0.87-1.99,5,1.04,5.77C768.68,564.79,768.05,557.97,763.63,558.01z"/>
	<path class="st0" d="M614.49,578.93c-5.01,0.01-7.99-8.88-1.72-8.98C617.78,569.87,620.5,578.92,614.49,578.93z M614.66,577.01
		c3.08-0.06,0.66-4.85-1.41-5.08C609,571.45,611.21,576.83,614.66,577.01z"/>
	<path class="st0" d="M747.97,642.53c-0.09,6.22-9.61,3.66-8.4-2.11C740.73,634.87,748.05,637.62,747.97,642.53z M744.12,644.2
		c3.17-0.45,1.9-5-0.86-5.05C739.62,639.08,741.59,643.65,744.12,644.2z"/>
	<path class="st0" d="M876.28,472.62c5.46,0.16,5.23,9.46-0.25,9.44C870.33,482.04,870.75,472.46,876.28,472.62z M878.67,476.97
		c0.34-3.45-4.56-3.2-4.86,0.07C873.44,481.13,877.91,480.52,878.67,476.97z"/>
	<path class="st0" d="M598.53,614.2c5-0.03,9.04,8.82,2.59,9.29C596.15,623.85,592.47,614.23,598.53,614.2z M600.87,621.65
		c3.84,0.11,0.84-6.05-1.92-5.69C594.72,616.5,598.04,621.51,600.87,621.65z"/>
	<path class="st0" d="M762.34,573.39c6.06-0.13,6.02,8.53,0.06,8.72C756.07,582.3,755.94,573.52,762.34,573.39z M762.19,580.19
		c4-0.27,3.87-5.3-0.11-5.15C758.26,575.19,758.5,579.73,762.19,580.19z"/>
	<path class="st0" d="M622.09,637.47c5.54,0.05,8.31,9.14,1.71,9.56C618.22,647.38,615.42,637.4,622.09,637.47z M623.89,645.23
		c4.17-0.22,1.3-7.23-2.5-5.83C617.3,640.91,620.69,645.25,623.89,645.23z"/>
	<path class="st0" d="M729.21,739.07c-3.87,0.01-9.54-7.76-4.23-9.17C729.64,728.67,735.17,739.05,729.21,739.07z M730.14,736.36
		c0.08-2.03-3.99-6.39-5.94-4.34C722.29,734.01,729.84,738.86,730.14,736.36z"/>
	<path class="st0" d="M804.06,603.95c-5.34,0.12-8.72-8.82-2.35-8.54C805.74,595.59,810.58,603.8,804.06,603.95z M804.13,602.34
		c3.23-0.48-0.16-4.78-1.96-4.91C798.07,597.12,800.89,602.44,804.13,602.34z"/>
	<path class="st0" d="M776.78,399.67c-5.39-0.06-6.37-10.1-0.27-8.78C781.35,391.94,783.23,399.74,776.78,399.67z M777.08,397.71
		c4.23-0.15,1.28-4.93-1.04-5.16C772.32,392.18,774.26,397.82,777.08,397.71z"/>
	<path class="st0" d="M894.66,510.67c0.11-6.72,10.44-5.43,8.9,1.16C902.28,517.32,894.57,516.38,894.66,510.67z M902.15,510.29
		c0.13-4.22-6.08-3.14-5.98,0.74C896.27,515.46,901.98,514.56,902.15,510.29z"/>
	<path class="st0" d="M852.8,508.39c-6.12,0.07-4.9-8.68,1.07-7.97C859.52,501.1,858.02,508.33,852.8,508.39z M853.11,501.95
		c-3.22,0.55-3.53,5.03,0.1,4.84C856.61,506.61,856.41,502.29,853.11,501.95z"/>
	<path class="st0" d="M710.95,470.35c4.36,0.13,7.92,8.09,2.28,8.69C708.4,479.55,705.11,469.82,710.95,470.35z M710.64,472.18
		c-2.68-0.37,0.06,5.38,2.22,4.98C715.96,476.58,713.1,472.08,710.64,472.18z"/>
	<path class="st0" d="M863.04,533.81c-6.29,0.02-5.6-8.38,0.22-8.18C868.99,525.82,869.3,533.79,863.04,533.81z M866.34,530.18
		c-1.13-1.8-4.82-4.72-5.86-0.84C859.5,532.94,864.99,532.86,866.34,530.18z"/>
	<path class="st0" d="M660.16,786.64c4.39,0.51,10.49,7.7,3.15,7.49C659.38,794.02,653.33,786.68,660.16,786.64z M660.55,788.46
		c-3.71-0.04,0.23,3.52,1.83,3.83C667.36,793.27,662.87,789.12,660.55,788.46z"/>
	<path class="st0" d="M704.67,446.31c1.58-5.84,7.9-1.06,7.1,3.55C710.72,455.92,704.57,450.34,704.67,446.31z M710.14,449.35
		c0.04-1.8-2.79-5.8-3.86-3.13C705.51,448.19,709.9,452.38,710.14,449.35z"/>
	<path class="st0" d="M714.44,457.32c-0.01-5.6,7.88-3.56,8.08,0.88C722.74,463.35,714.44,462.67,714.44,457.32z M717.5,455.74
		c-2.18-0.47-1.52,5.43,1.86,4.04C721.9,458.74,719.72,455.74,717.5,455.74z"/>
	<path class="st0" d="M600.11,599.98c0.09,5.49-8.73,3.54-9.28-0.98C590.05,592.58,600.02,594.67,600.11,599.98z M596.16,601.87
		c4.98-0.12,0.2-7.1-2.86-5.07C590.4,598.72,593.55,601.87,596.16,601.87z"/>
	<path class="st0" d="M771.85,653.01c4.61-0.02,9.13,8.07,2.82,8.62C769.77,662.05,766.5,652.71,771.85,653.01z M774.6,659.82
		c3.44-0.24-0.22-5.68-2.41-5.19C768.39,655.48,772.19,659.76,774.6,659.82z"/>
	<path class="st0" d="M734.86,464.24c4.08,0.02,7.16,8.87,1.51,8.55C732.75,472.58,729.61,464.22,734.86,464.24z M734.55,466.11
		c-2.5,1.07,2.06,6.01,2.89,4.34C738.08,469.18,735.99,466.25,734.55,466.11z"/>
	<path class="st0" d="M782.22,686.5c6.03-0.01,7.41,9.68,0.59,8.03C778.89,693.59,776.89,686.51,782.22,686.5z M785.89,691.75
		c0.02-2.5-4.91-5.74-5.59-2.2C779.87,691.81,785.75,694.56,785.89,691.75z"/>
	<path class="st0" d="M729.61,468.82c-0.1,4.77-8.42,2.18-7.37-2.56C723.53,460.44,729.64,464.52,729.61,468.82z M724.71,464.9
		c-0.74,1.3,0.2,6.19,2.28,4.76C729.43,467.98,726.11,465.62,724.71,464.9z"/>
	<path class="st0" d="M708.46,457.37c3.53-0.05,8.19,7.23,3.33,8.76C707.28,467.55,703.36,457.93,708.46,457.37z M710.86,464.34
		c3.49-0.42-1.22-5.73-2.09-5.38C706.28,459.96,708.93,464.28,710.86,464.34z"/>
	<path class="st0" d="M583.91,597.3c5.58,0.15,5.53,8.46-0.07,8.39C578.18,605.61,578.38,597.15,583.91,597.3z M583.56,603.91
		c3.42-0.17,4.12-4.63,0.48-4.89C580.7,598.8,579.91,603.77,583.56,603.91z"/>
	<path class="st0" d="M804.23,771.46c3.6,0.08,9.49,6.85,4.03,8.11C804.14,780.52,798.17,771.33,804.23,771.46z M804.06,772.9
		c-3.26,0.49,2.1,5.84,4.11,4.93C810.83,776.61,805.13,773.24,804.06,772.9z"/>
	<path class="st0" d="M606.44,601.33c-5.15-0.1-5.68-8.42-0.34-8.39C611.32,592.96,611.81,601.43,606.44,601.33z M606.46,599.6
		c3.34-0.2,2.76-5.01-0.39-4.89C602.57,594.85,603.15,599.41,606.46,599.6z"/>
	<path class="st0" d="M572.57,614.39c-5.26,0.05-5.15-7.05,0.05-7.16C578.09,607.13,577.93,614.35,572.57,614.39z M572.23,612.49
		c2.06-0.08,3.99-2.17,1.27-3.35C570.77,607.96,568.66,612.28,572.23,612.49z"/>
	<path class="st0" d="M719.76,794.74c-0.03-5.08,9.42-3.44,8.1,2.05C726.61,802.01,719.79,799.39,719.76,794.74z M726.48,795.83
		c-0.87-3.24-6.33-3.49-5.08,0.27C722.24,798.6,725.92,798.53,726.48,795.83z"/>
	<path class="st0" d="M879.86,617.13c4.77,0.07,5.24,8.1-0.4,7.08C875.64,623.53,875.75,617.08,879.86,617.13z M882,621.41
		c-0.67-0.99-4.18-3.4-3.32-0.21C879.08,622.72,882.05,623.42,882,621.41z"/>
	<path class="st0" d="M575.68,559.1c3.88-0.02,7.14,6.22,2.13,6.08C574.57,565.09,572,560.36,575.68,559.1z M579.12,562.77
		c-0.39-0.94-2.3-2.62-3.54-2.22C574.23,560.99,578.5,565.52,579.12,562.77z"/>
</g>
</svg>
