<?xml version="1.0" encoding="utf-8"?>
<!-- Generator: Adobe Illustrator 23.0.6, SVG Export Plug-In . SVG Version: 6.00 Build 0)  -->
<svg version="1.1" id="Layer_1" xmlns="http://www.w3.org/2000/svg" xmlns:xlink="http://www.w3.org/1999/xlink" x="0px" y="0px"
	 viewBox="0 0 999.02 844.09" style="enable-background:new 0 0 999.02 844.09;" xml:space="preserve">
<style type="text/css">
	.st0{fill:none;}
	.st1{fill:#171717;}
</style>
<rect x="-0.98" class="st0" width="1000" height="844.09"/>
<g>
	<path class="st1" d="M779.65,621.77c-10.39,5.5-16.51-10.31-5.1-10.04c-0.69-1.98-3.98-1.91-4.95-4.08
		c-1.15-2.57,0.86-2.94-1.22-4.26c-2.43-1.54-5.67-0.25-7.07-3.94c-1.38-3.63,1.38-6.67,5-6.7c3.18-0.03,6.17,2.42,6.39,5.57
		c0.05,0.7-1.26,3.19-0.95,3.58c0.61,0.77,1.85-0.4,2.59-0.03c2.66,1.37,6.19,1.21,6.67,5.31c0.4,3.39-2.19,4.36-5.26,5.04
		c3.66,1.59,4.42,4.96,4.89,8.56c-0.69-0.18-1.1,0.05-1,1.02L779.65,621.77z M775.24,621.28c5.36-0.1,3.24-6.95-1.08-7.36
		C767.88,613.31,769.92,621.39,775.24,621.28z M767.35,601.71c5.64,0.08,3.84-7.23-0.9-7.08
		C761.13,594.81,762.64,601.65,767.35,601.71z M779.29,608.15c-0.18-3.1-6.1-6.82-7.94-2.83
		C769.99,608.27,778.75,612.44,779.29,608.15z M770.09,602.77C770.56,603.21,770.32,602.28,770.09,602.77z"/>
	<path class="st1" d="M869.23,670.06c-5.95,3-15.56-3.08-8.81-9.1c4.95-4.41,10.5,2.38,10.24,7.54c5.31-3.91,15.39,1.92,9.33,7.09
		c-2.02,1.73-4.98,1.3-7.17,0.06c-1.06-0.6-2.01-1.12-2.57-2.25c-0.42-0.84,0.13-3.23-0.21-3.56
		C869.68,669.62,869.42,669.7,869.23,670.06z M865.45,668.83c6.18-1.11,1.03-8.05-2.57-7.03
		C857.84,663.23,861.93,668.52,865.45,668.83z M875.05,669.06c-4.39-0.3-2.79,5.66,1.39,5.29
		C881.32,673.91,879.23,669.17,875.05,669.06z"/>
	<path class="st1" d="M665.27,770.13c-5.76-3.64-5.59-13.38,2.87-11.42c7.48,1.73,6.19,9.44,0.52,12.21
		c5.89,3.87,5.49,14.51-3.27,11.91C658.04,780.66,658.83,772.5,665.27,770.13z M665.4,772.09c-6.06,0.18-3.55,9.97,1.94,9.57
		C673.79,781.18,670.79,771.93,665.4,772.09z M667.47,768.81c5.7,0.03,4.81-7.5-0.11-8.26
		C660.91,759.55,661.62,768.78,667.47,768.81z"/>
	<path class="st1" d="M737.91,627.41c-5.1,0.24-9.7-7.61-5.54-11.5c2.8-2.63,4.9-0.28,7.23,1.36c2.49,1.75,3.77,1.47,6.72,2.59
		c4.38,1.66,10.08,9.43,4.31,12.85C745.53,635.72,739.29,626.39,737.91,627.41z M751.08,628.23c-0.02-4.44-9.03-11.27-10.13-3.98
		C740.08,629.99,751.11,634.4,751.08,628.23z M739.51,622.56c-0.07-4.22-6.04-9.09-6.8-2.86
		C732.23,623.69,739.08,628.37,739.51,622.56z"/>
	<path class="st1" d="M647.69,421.91c-4.99,2.34-8-2.6-4.95-6.75c3.52-4.78,7.52-1.23,7.27,3.66c6.81-2.05,13.34,4.33,7.77,10.78
		C651.64,436.72,647.04,427.52,647.69,421.91z M649.54,425.05c0,6.41,8.2,5.66,8.05-0.46C657.42,417.91,649.54,418.68,649.54,425.05
		z M648.27,417.06c-0.2-3.84-5.17-1.71-4.82,1.4C643.91,422.56,648.02,420.21,648.27,417.06z"/>
	<path class="st1" d="M882.17,501.96c-0.56-3.4,0.84-3.01,2.85-4.49c1.05-0.77,3.2-2.17,4.41-2.89c3.35-1.99,10.13-0.19,7.5,5.03
		c-0.92,1.83-2.74,1.66-4.02,2.94c-1.35,1.35-1.83,3.26-3.7,3.9c-1.22,0.42-2.7-0.8-3.82-0.47c-2.56,0.77-1.28,1.87-3.07,3.63
		c-3.29,3.24-8.88,1.73-9.24-3.23c-0.36-4.99,4.93-7.02,8.62-4.4c1.59,1.13,6.24,5.58,8.11,1.83c1.15-2.3-1.07-5.01-3.44-5.12
		C884.05,498.58,883.18,500.25,882.17,501.96z M878.5,502.34c-5.89-0.03-3.69,9.34,1.33,6.94
		C882.84,507.84,882.12,502.36,878.5,502.34z M891.94,501.85c2.35-1.61,6.18-7.92-0.13-6.93
		C886.42,495.77,890.83,499.72,891.94,501.85z"/>
	<path class="st1" d="M733.04,602.48c0.98,2.17,2.71,5.72,1.53,8.16c-1.69,3.5-5.9,2.82-8.18,0.39c-5.15-5.49-0.12-10.92,5.97-9.01
		c0.69-0.78-1.49-5.25-1.16-6.72c0.73-3.25,3.7-4.83,6.35-2.59C742.18,596.61,739.4,604.5,733.04,602.48z M726.2,605.72
		c-0.04,4.39,6.52,8.37,7.09,2.38C733.7,603.83,725.99,600.45,726.2,605.72z M737.88,598.34c-0.23-3.41-4.28-8.02-4.96-2.06
		C732.51,599.89,737.89,604.06,737.88,598.34z"/>
	<path class="st1" d="M567.22,510.48c-4.71,2.47-10.49-0.19-10.37-5.86c0.06-2.53,1.45-4.7,3.99-5.23c3.52-0.74,4.41,2.17,6.81,3.58
		c3.32,1.95,8.93,0.35,8.97,7.12C576.66,517.29,569.77,514.77,567.22,510.48z M566.78,506.24c0.01-4.35-6.9-7.39-8.32-2.48
		C556.95,508.98,566.76,512.49,566.78,506.24z M574.83,510.6c0.11-4.05-5.85-7.98-6.19-2.35
		C568.43,511.82,573.94,515.57,574.83,510.6z"/>
	<path class="st1" d="M862.52,515.78c0.29,4.29-3.33,8.46-7.27,4.62c-3.89-3.8,0.58-11.14,5.45-7.58c-0.11-4.73,3.84-10.13,8.46-5.6
		C874.24,512.2,868.54,518.93,862.52,515.78z M869.25,512.28c0.04-4.85-6.28-6.86-6.54-1.21
		C862.52,515.16,868.91,517.15,869.25,512.28z M860.99,517.34c0.46-3.74-5.19-5.45-5.63-1.14
		C854.94,520.18,859.9,521.52,860.99,517.34z"/>
	<path class="st1" d="M941.14,534.87c2.03-4.06,8.76-5.48,10.44-0.3c1.4,4.32-3.21,6.54-6.9,6.18c-2.11-0.21-5.22-0.82-7.26-1.25
		c-1.47-0.31-3.97-1.36-4.4-2.96C931.43,530.61,938.92,532.75,941.14,534.87z M945.26,538.85c5.82,0.18,5.62-6.75,0.26-5.65
		c-1.48,0.3-4.02,2.21-3.27,4.12C943.04,539.32,943.98,537.79,945.26,538.85z M937.09,533.93c-2.79,0.54-2.4,3.47,0.43,3.65
		C940.6,537.77,939.55,534.38,937.09,533.93z"/>
	<path class="st1" d="M900.06,455.44c0.05,4.72-7.1,6.98-7.73,1.61c-0.42-3.49,2.34-2.6,3.92-4.1c0.58,0.14,1.09,0.02,1.53-0.35
		c0.09-0.65,0.2-1.3,0.32-1.95c2.15-2.82,6.91-7.08,10.12-1.69C911.64,454.68,904.15,456.7,900.06,455.44z M903.39,454.51
		c5,0.1,4.85-6.59-0.1-6.15C898.95,448.75,898.75,454.42,903.39,454.51z M896.38,454.42c-2.33,0.39-2.97,4.4-0.18,4.03
		C898.72,458.12,899.07,454.68,896.38,454.42z"/>
	<path class="st1" d="M860.93,695.27c-6.67-0.1-11.93-12.08-3.33-13.01C865.38,681.42,870.14,695.4,860.93,695.27z M855.39,686.77
		c-0.13,4.9,8.77,9.62,8.76,3C864.14,686.32,855.84,681.91,855.39,686.77z"/>
	<path class="st1" d="M734.27,559.2c9.74,0.05,7.32,15.52-1.95,13.45C724.3,570.85,726.13,559.16,734.27,559.2z M733.87,561.09
		c-6.22,0.17-5.96,9.95,0.21,9.81C740.31,570.75,740.12,560.92,733.87,561.09z"/>
	<path class="st1" d="M695.95,680.21c6.92-0.19,14.28,12.19,4.81,13.32C693.26,694.44,685.94,680.49,695.95,680.21z M700.08,691.79
		c7.05-0.01,1.03-9.59-3.59-9.66C689.18,682.04,695.03,691.8,700.08,691.79z"/>
	<path class="st1" d="M586.02,578.16c-4.32,1.91-11.42-3.19-6.59-7.19c4.65-3.86,8.22,2.77,7.69,6.7c2.45-0.52,5.9-1.23,7.06,1.77
		c0.94,2.41-1.02,4.67-3.58,4.58c-2.5-0.09-3.22-2.02-4.12-3.88C586.3,579.77,587.62,576.8,586.02,578.16z M583.14,577.08
		c4.01,0.01,2.11-5.47-1.16-5.15C578.03,572.31,579.82,577.07,583.14,577.08z M590.53,582.27c2.69-0.16,3.05-3.28,0.22-3.64
		C587.7,578.23,587.35,582.16,590.53,582.27z"/>
	<path class="st1" d="M567.64,666.33c7.52-0.1,11.12,12.44,2.17,12.53C562.64,678.92,558.76,666.45,567.64,666.33z M573.05,673.59
		c-0.15-4.89-9.02-7.82-9.02-1.69C564.03,676.04,572.95,678.86,573.05,673.59z"/>
	<path class="st1" d="M726.17,638.31c-7.91,0.1-11.08-13.54-1.91-13.67C731.86,624.53,735.14,638.19,726.17,638.31z M729.62,632.49
		c-0.12-5.37-8.87-8.85-9.28-2.06C719.99,636.14,729.77,639.23,729.62,632.49z"/>
	<path class="st1" d="M709.2,509.04c9.04-0.07,9.45,13.18,0.15,12.33C701.48,520.66,700.65,509.1,709.2,509.04z M709.67,510.89
		c-6.55-0.04-5.62,8.76,0.32,8.74C716.74,519.61,714.64,509.69,709.67,510.89z"/>
	<path class="st1" d="M905.61,611.58c-3.34-0.25-8.68-1.5-9.33-5.44c-0.54-3.26,2.17-5.75,5.11-6.22
		C909.16,598.67,914.04,611.99,905.61,611.58z M902.3,601.83c-6.59-0.08-3.55,7.61,2.37,7.59
		C911.77,609.38,907.15,601.74,902.3,601.83z"/>
	<path class="st1" d="M665.61,629.51c0.24,9.19-12.03,4.54-12.32-2.73C652.89,617.03,665.4,621.68,665.61,629.51z M663.63,629.48
		c-0.1-4.48-7.7-10.04-8.59-3.26C654.37,631.4,663.78,635.97,663.63,629.48z"/>
	<path class="st1" d="M864.55,714.29c0.16,8.62-12.34,2.46-12.11-3.1C852.8,702.45,864.42,707.34,864.55,714.29z M860.54,716.37
		c4.05-1.7,1.74-7.55-2.6-7.55C850.94,708.82,856.74,715.57,860.54,716.37z"/>
	<path class="st1" d="M798.23,458.73c8.91,0.03,7.03,12.33-0.58,12.05C789.68,470.49,790.04,458.7,798.23,458.73z M802.09,463.87
		c0.1-4.9-9.08-3.57-8.35,1.44C794.54,470.86,801.99,468.92,802.09,463.87z"/>
	<path class="st1" d="M708.66,614.89c0.22,8.79-12.13,6.96-12.73-0.96C695.22,604.52,708.45,606.23,708.66,614.89z M702.52,619.07
		c6.46,0.13,5.02-9.81-0.69-9.89C695.46,609.09,696.74,618.95,702.52,619.07z"/>
	<path class="st1" d="M940.97,609.03c0.31,8.27-12.88,6.37-12.82-0.78C928.21,600.69,940.68,601.17,940.97,609.03z M934.68,604.76
		c-5.5,0.09-5.57,6.72-0.38,7.59C940.59,613.4,941.04,604.66,934.68,604.76z"/>
	<path class="st1" d="M709.7,608.98c-0.04-9.02,13.02-5.4,12.63,2.6C721.86,620.92,709.73,616.84,709.7,608.98z M720.38,611.22
		c-0.04-5.74-8.91-8.82-9.24-1.88C710.88,614.73,720.43,617.88,720.38,611.22z"/>
	<path class="st1" d="M848.07,725.4c0.29,8.06-10.66,3.65-11.59-1.89C834.92,714.21,847.88,716.97,848.07,725.4z M846.54,725.89
		c-0.14-4.94-8.85-9.46-7.99-2.66C838.91,726.17,846.2,730.29,846.54,725.89z"/>
	<path class="st1" d="M728.38,591.37c-0.34,8.45-11.86,5.87-11.69-1.56C716.88,581.19,728.68,583.73,728.38,591.37z M726.61,591.27
		c0.03-4.62-7.21-7.55-7.76-1.77C718.41,594.21,726.58,597.17,726.61,591.27z"/>
	<path class="st1" d="M856.35,657.42c-0.31,8.08-12.79,5.31-12.31-1.68C844.58,648,856.62,650.32,856.35,657.42z M851.01,660.52
		c5.74,0.08,3.41-7.77-1.4-7.5C844.19,653.32,846.32,660.48,851.01,660.52z"/>
	<path class="st1" d="M798.17,480.69c-0.48,8.42-13.56,9.45-12.71,0.84C786.08,475.24,798.58,473.66,798.17,480.69z M796.13,480.34
		c0.62-4.05-10.08-2.76-8.4,2.8C789.52,489.02,795.93,484.53,796.13,480.34z"/>
	<path class="st1" d="M622.34,540.09c-8.54-0.02-8.78-13.07,0.22-11.96C630.17,529.08,630.63,540.11,622.34,540.09z M622.58,538.11
		c6.61-0.02,4.24-9.12-1.82-8.04C615.15,531.08,617.71,538.13,622.58,538.11z"/>
	<path class="st1" d="M876.32,737.68c0.1,7.8-12.11,2.17-12.25-3.51C863.84,725.56,876.23,730.69,876.32,737.68z M865.94,734.03
		c0.12,3.11,6.69,8.11,8.45,4C876.25,733.67,865.73,728.89,865.94,734.03z"/>
	<path class="st1" d="M739.01,574.56c7.96,0.21,9.02,10.64,0.71,11.34C730.76,586.66,729.91,574.32,739.01,574.56z M739.21,576.38
		c-6.3,0.03-6.21,7.62-0.03,7.66C745.13,584.07,744.99,576.36,739.21,576.38z"/>
	<path class="st1" d="M708.79,645.58c-0.07-7.78,12.21-4.72,12.1,2.07C720.75,656.09,708.85,652.88,708.79,645.58z M710.65,645.63
		c-0.09,4.51,7.48,7.76,7.99,2.09C719.04,643.41,711.02,640.21,710.65,645.63z"/>
	<path class="st1" d="M780.63,620.8c3.43-1.13,7.4-2.07,10.04,1.27c1.76,2.24,1.95,5.44-0.31,7.37c-5.76,4.92-10.73-3.01-10.73-7.63
		C781.66,622.43,780.12,621.25,780.63,620.8z M787.11,628.76c5.34-0.63,2.28-7.47-2.09-7C779.45,622.35,782.51,628.87,787.11,628.76
		z"/>
	<path class="st1" d="M658.12,541.47c-8.06-0.04-9.05-14.02-0.57-12.91C664.56,529.48,666.44,541.52,658.12,541.47z M656.57,530.41
		c-5.87,0.06-2.99,9.38,1.83,9.16C664.47,539.3,661.67,530.36,656.57,530.41z"/>
	<path class="st1" d="M835.12,714.95c0.04,7.81-11.98,4.65-11.66-1.55C823.85,705.95,835.08,707.52,835.12,714.95z M833.12,714.61
		c-0.2-4.79-7.72-4.94-7.26-0.45C826.21,717.63,832.49,718.65,833.12,714.61z"/>
	<path class="st1" d="M808.61,488.22c0.16,9.49-14.55,9-12.16,0.22C797.82,483.37,808.5,481.46,808.61,488.22z M804.36,485.81
		c-4.47,0.04-9.82,6.72-3.12,7.91C805.21,494.42,808.97,485.61,804.36,485.81z"/>
	<path class="st1" d="M863.6,495.39c-8.65-0.36-5.42-12.52,2.01-12.19C874.29,483.59,871.39,495.71,863.6,495.39z M869.3,488.74
		c0.06-5.36-7.6-4.33-8.8-0.14C858.6,495.2,869.23,494.93,869.3,488.74z"/>
	<path class="st1" d="M878.9,652.7c-8.46,0.19-7.17-12.42,0.59-10.94C886.21,643.04,886.24,652.54,878.9,652.7z M878.53,650.73
		c4.85-0.1,5.28-6.45,0.38-6.92C874.05,643.34,873.42,650.84,878.53,650.73z"/>
	<path class="st1" d="M718.36,808.68c0.22-8.35,12.61-4.35,12.27,2.6C730.22,819.8,718.17,816,718.36,808.68z M723.28,805.62
		c-6.04,0.01-2.64,9.33,2.26,8.66C731.45,813.47,727.91,805.62,723.28,805.62z"/>
	<path class="st1" d="M887.53,569.04c-7.86,1.21-8.47-12.67,0.18-11.76c2.84,0.3,7.47,4.14,7.14,7.44
		C894.44,568.68,890.61,568.77,887.53,569.04z M889.3,567.37c6.35,0.08,2.63-8.31-2.02-8.26
		C880.96,559.18,882.99,567.6,889.3,567.37z"/>
	<path class="st1" d="M554.6,684.55c-1.17,0.96,0.91,4.36-1.16,6.18c-2.95,2.59-6.83,0.3-8.75-2.3c-5-6.72,2.15-11.4,7.93-6.39
		l-0.06-0.06c0.35,0.37,0.43,1.02,1.1,1.08l-0.06-0.07c-0.02,0.77,0.05,1.49,1.05,1.58L554.6,684.55z M552.65,687.19
		c-0.67-3.83-8.02-8.94-7.73-2.38C545.06,688.31,552.68,692.42,552.65,687.19z"/>
	<path class="st1" d="M660.05,518.99c-8.13-0.12-9.81-14.64-1.04-12.47C664.89,507.97,668.42,519.12,660.05,518.99z M663.28,513.96
		c-0.1-4.33-8.57-9.01-8.86-2.84C654.21,515.57,663.42,519.83,663.28,513.96z"/>
	<path class="st1" d="M763.86,634.08c-7.36-0.15-9.46-11.76-1.35-11.92C770.19,622.01,772.93,634.26,763.86,634.08z M762.5,624.06
		c-6.1-0.01-3.75,7.61,0.91,8.08C770.01,632.8,768.23,624.06,762.5,624.06z"/>
	<path class="st1" d="M698.01,493.96c-7.06,0.1-11.07-11-2.59-11.74C703.13,481.56,707.26,493.83,698.01,493.96z M696.25,484
		c-6.57-0.08-3.27,8.31,1.87,7.97C704.22,491.57,700.82,484.05,696.25,484z"/>
	<path class="st1" d="M725.03,742.26c7.73-0.09,10.43,13.08,1.8,13.34C719.13,755.82,716.46,742.35,725.03,742.26z M730.62,749.78
		c0.08-5.46-8.64-8.63-9.53-2.19C720.31,753.32,730.52,756.55,730.62,749.78z"/>
	<path class="st1" d="M809.94,430.42c7.48-0.06,4.72,12.19-2.3,11.04C800.56,440.31,803.8,430.47,809.94,430.42z M812.39,435.17
		c-0.95-1.96-0.89-3.4-3.76-2.26c-1.48,0.59-2.94,2.83-2.62,4.41C806.9,441.79,812.39,438.86,812.39,435.17z"/>
	<path class="st1" d="M592.6,512.84c0.12,8.59-13.65,8.68-12.21-0.15C581.55,505.56,592.49,504.95,592.6,512.84z M591.06,512.58
		c0.01-5.73-9.17-4.63-9.06,0.89C582.13,519.6,591.05,518.11,591.06,512.58z"/>
	<path class="st1" d="M552.62,682.04c-0.36-3.04-2.14-5.68,1.33-7.91c2.89-1.86,6.33-0.34,8.22,2.19c4.45,5.93-3.2,12.58-7.52,8.26
		c0.07-0.8-0.28-1.33-1.05-1.58c-0.04-0.13-0.56-0.89-1.04-1.01L552.62,682.04z M561.66,680.42c-0.14-5.7-9.31-6.99-8.45-1.27
		C553.75,682.71,562.07,686.07,561.66,680.42z"/>
	<path class="st1" d="M650.67,542.08c8.25,0.32,8.73,12.25,0.07,11.73C642.95,553.35,642.24,541.75,650.67,542.08z M651.46,551.82
		c5.7-0.06,4.87-7.22-0.16-7.92C644.67,542.96,645.13,551.88,651.46,551.82z"/>
	<path class="st1" d="M693.52,716.29c0.03,8.43-12.61,6.13-11.44-1.61C683.19,707.38,693.5,709.46,693.52,716.29z M687.78,720
		c4.9,0.09,4.63-7.09,0.37-7.96C682.6,710.9,682.5,719.9,687.78,720z"/>
	<path class="st1" d="M819.15,492.27c-7.17,0.05-7.02-10.73,0.13-10.91C827.26,481.15,825.89,492.29,819.15,492.27z M822.57,486.08
		c0.82-4.33-6.86-3.5-6.83,0.84C815.78,492.06,822.66,491.12,822.57,486.08z"/>
	<path class="st1" d="M621.29,576.62c-0.03-7.72,12.58-3.12,12.19,3.18C633,587.62,621.32,582.93,621.29,576.62z M628.68,581.83
		c5.66,0.15,1.21-7.85-2.72-7.32C620.28,575.29,624.83,581.71,628.68,581.83z"/>
	<path class="st1" d="M789.75,610.21c-7.02-0.91-10.6-12.47-1.62-11.6C794.56,599.23,798.42,610.64,789.75,610.21z M789.79,608.42
		c6,0.12,2.65-8.55-2.27-7.92C781.48,601.29,785.35,608.33,789.79,608.42z"/>
	<path class="st1" d="M777.38,480.34c-0.01,7.21-10.35,8.69-10.94,0.91C765.82,472.97,777.4,471.24,777.38,480.34z M768.18,480.24
		c-0.21,5.45,6.54,5.74,7.48,0.64C776.78,474.81,768.42,474.06,768.18,480.24z"/>
	<path class="st1" d="M663.48,442.28c-7.43,0.14-8.25-11.89-0.62-11.94C669.83,430.3,671.14,442.14,663.48,442.28z M667.01,436.98
		c0.13-5.28-8.46-6.29-7.67-0.41C659.91,440.77,666.89,441.88,667.01,436.98z"/>
	<path class="st1" d="M794.39,631.76c0.11-7.41,10.92-4.25,11.4,1.37C806.52,641.56,794.28,639.99,794.39,631.76z M800.42,637.22
		c4.63,0.4,3.9-7.51-1.01-7.74C794.26,629.23,796.25,636.7,800.42,637.22z"/>
	<path class="st1" d="M833.31,576.24c6.85,0.12,9.87,10.21,1.36,10.26C827.08,586.54,824.36,575.43,833.31,576.24z M832.81,578.16
		c-5.79-0.38-3.06,5.75,1.04,6.37C840.46,585.54,838.3,578.48,832.81,578.16z"/>
	<path class="st1" d="M775.84,430.02c-7.01,0.01-7.19-11.96-0.09-12.16C782.96,417.66,783.97,430,775.84,430.02z M776.14,428.06
		c5.12-0.14,4.53-8.13-0.04-8.46C770.78,419.21,771.11,428.2,776.14,428.06z"/>
	<path class="st1" d="M640.42,483.7c0.07-8.04,11.11-2.82,11.42,2.97C652.32,495.33,640.36,490.95,640.42,483.7z M649.71,487.08
		c-0.05-4.42-8-9-7.64-2.57C642.26,488.02,649.84,492.61,649.71,487.08z"/>
	<path class="st1" d="M802.9,453.74c-7.12-0.1-5.34-11.77,2.02-11.09C812.56,443.37,809.73,453.84,802.9,453.74z M804.99,444.58
		c-3.95-0.05-6.85,5.49-2.49,7.05C807.35,453.35,809.79,444.54,804.99,444.58z"/>
	<path class="st1" d="M691.74,620.7c0,7.55-10.08,4.73-11.07-1.27C679.18,610.29,691.74,612.39,691.74,620.7z M690.19,619.92
		c-0.14-4.82-8.21-7.32-8.24-1.24C681.93,623.26,690.36,625.69,690.19,619.92z"/>
	<path class="st1" d="M714.69,582.22c-0.1,8.37-12.38,6.32-11.33-1.61C704.38,572.84,714.77,574.89,714.69,582.22z M712.83,582.02
		c0.04-4.59-6.37-6.59-7.62-1.77C703.8,585.72,712.78,588.39,712.83,582.02z"/>
	<path class="st1" d="M908.6,684.89c7.03,0.09,7.33,11.49-0.77,10.16C901.32,693.98,901.97,684.81,908.6,684.89z M908.32,692.75
		c4.57,0.01,5.26-4.79,0.75-5.43C905.05,686.74,903.99,692.14,908.32,692.75z"/>
	<path class="st1" d="M888.69,527.76c7.95-0.11,10.19,10.83,1.18,11.08C882.73,539.02,879.86,527.88,888.69,527.76z M889.35,537.3
		c6.32-0.04,6.1-7.3,0.19-7.9C883.48,528.77,883.85,537.33,889.35,537.3z"/>
	<path class="st1" d="M688.45,480.64c-7.31-0.03-9.47-11.79-1.26-12C694.99,468.43,696.85,480.68,688.45,480.64z M688.43,478.88
		c6.48,0.08,3.69-9.81-1.95-8.65C681.23,471.31,683.82,478.82,688.43,478.88z"/>
	<path class="st1" d="M788.71,717.82c6.16,0.02,10.2,10.77,2.33,10.92C784.53,728.86,780.41,717.79,788.71,717.82z M791.04,726.68
		c5.27,0.15,1.09-7.24-2.44-7.21C782.94,719.51,787.23,726.57,791.04,726.68z"/>
	<path class="st1" d="M824.42,448.71c0.08-7.77,11.72-5.31,10.41,1.76C833.65,456.84,824.36,454.86,824.42,448.71z M832.87,449.05
		c-0.12-4.02-6.68-4.24-6.24,0.19C827.01,453.03,832.75,453.03,832.87,449.05z"/>
	<path class="st1" d="M674.03,732.51c-0.04-7.7,11.8-6.49,11.67,0.92C685.54,741.54,674.07,739.95,674.03,732.51z M683.72,733.38
		c-0.08-5.89-9.02-5.79-7.77,0.28C676.87,738.09,683.79,738.37,683.72,733.38z"/>
	<path class="st1" d="M718.37,528.51c8.39,0.1,5.78,11.82-1.82,10.76C708.86,538.19,711.34,528.42,718.37,528.51z M717.7,537.5
		c4.94-0.16,5.94-7.42,0.46-7.51C713.36,529.92,711.85,537.7,717.7,537.5z"/>
	<path class="st1" d="M861.3,731.25c0.19,7.3-10.36,3.73-10.65-2.26C850.27,721.05,861.13,724.67,861.3,731.25z M852.67,728.6
		c-0.22,3.93,6.25,7.02,7.12,2.39C860.4,727.76,852.39,723.92,852.67,728.6z"/>
	<path class="st1" d="M729.11,714.16c7.96-0.12,8.39,13.61-0.08,12.44C722.36,725.68,721.87,714.27,729.11,714.16z M733.58,720.72
		c0.01-5.87-8.74-6.56-8.14-0.31C725.93,725.47,733.57,726.34,733.58,720.72z"/>
	<path class="st1" d="M873.3,535.57c7.05,0.04,7.18,12.78-0.6,11.91C865.16,546.65,865.35,535.53,873.3,535.57z M873.82,546.03
		c4.92-0.28,4.01-9.02-1.36-8.25C866.71,538.6,869.12,546.3,873.82,546.03z"/>
	<path class="st1" d="M820.69,634.62c8.03,0.04,6.63,12.77-0.85,10.5C813.57,643.2,813.48,634.87,820.69,634.62z M820.37,636.64
		c-4.77,0.62-3.49,6.35,0.64,6.76C825.81,643.88,825.34,636.69,820.37,636.64z"/>
	<path class="st1" d="M804.22,557.66c6.56,0.11,9.36,10.88,1.39,10.89C798.84,568.55,795.86,557.52,804.22,557.66z M804.18,559.56
		c-5.33,0.17-2.89,6.77,0.95,7.31C811.02,567.71,809.18,559.71,804.18,559.56z"/>
	<path class="st1" d="M773.22,524.51c0.08,6.98-10.22,6.84-10.95,0.21C761.4,516.91,773.13,516.61,773.22,524.51z M767.32,520.37
		c-4.59,0.03-4.04,6.47-0.09,7.22C772.53,528.6,772.4,520.34,767.32,520.37z"/>
	<path class="st1" d="M861.8,702.76c-0.04-7.24,10.24-5.17,10.36,1.12C872.31,711.37,861.83,709.3,861.8,702.76z M870.43,704.34
		c-0.14-4.05-6.88-5.57-6.22-0.8C864.63,706.57,870.8,708.3,870.43,704.34z"/>
	<path class="st1" d="M838.64,462.89c-0.09,6.91-10.17,6.69-10.93,0.43C826.76,455.52,838.75,454.9,838.64,462.89z M836.8,462.71
		c0.15-5.58-8.52-4.35-7.11,0.89C830.79,467.69,836.68,467.16,836.8,462.71z"/>
	<path class="st1" d="M586.28,659.65c-0.02-7.81,10.72-5.37,11.08,1.46C597.8,669.42,586.3,666.68,586.28,659.65z M593.07,664.63
		c4.86-0.53,1.83-9.27-2.48-8.15C585.44,657.81,588.62,664.77,593.07,664.63z"/>
	<path class="st1" d="M921.07,603.17c8.44,0.11,7.76,12.5-1.11,9.61C914.59,611.03,914.85,603.08,921.07,603.17z M922.39,611.06
		c5.12-0.55,2.83-6.12-1.44-5.82C915.71,605.6,918.34,610.79,922.39,611.06z"/>
	<path class="st1" d="M666.93,498.41c-0.04,7.6-11.76,2.97-11.11-3.34C656.62,487.29,666.96,492.58,666.93,498.41z M665,498.15
		c-0.09-3.6-6.8-8.19-7.44-2.88C657.13,498.92,665.13,503.18,665,498.15z"/>
	<path class="st1" d="M787.37,713.23c-8.07-0.01-8.54-13.09-0.24-10.88C792.59,703.8,794.59,713.24,787.37,713.23z M790.47,708.74
		c-0.01-4.19-7.66-7.25-8.1-2.09C782.04,710.59,790.13,713.72,790.47,708.74z"/>
	<path class="st1" d="M796.59,579.85c0.17,6.79-10.85,5.88-12.24,0.43C782.28,572.17,796.4,572.38,796.59,579.85z M789.84,575.7
		c-5.93,0.12-3.78,7.26,1.38,7.36C797.33,583.19,795.11,575.59,789.84,575.7z"/>
	<path class="st1" d="M732.12,668.56c0.05-7.11,11.96-3.83,10.89,2.7C741.88,678.1,732.07,674.58,732.12,668.56z M737.94,672.9
		c5.54-0.06,2.72-7.15-1.44-6.75C731.77,666.61,733.9,673,737.94,672.9z"/>
	<path class="st1" d="M730.31,765.6c0.18,7.52-10.03,7.87-10.3,0.29C719.73,757.97,730.11,757.29,730.31,765.6z M728.76,765.28
		c0.11-6.04-7.85-4.63-7.02,0.98C722.51,771.55,728.67,770.22,728.76,765.28z"/>
	<path class="st1" d="M918.18,543.87c-0.79-6.54,10.65-4.15,9.97,2.52c-0.26,2.52-2.58,4.08-5.03,4.02
		C919.2,550.3,918.44,547.1,918.18,543.87z M922.56,548.57c4.25-0.4,4.22-5.43,0.25-6.28C918.74,541.41,919.04,547.72,922.56,548.57
		z"/>
	<path class="st1" d="M665.33,549.54c7.34-0.07,8.17,11.45,0.49,11.51C658.45,561.11,657.63,549.62,665.33,549.54z M665.88,559.1
		c5.53,0.07,4.66-7.65-0.39-7.74C659.78,551.25,660.67,559.03,665.88,559.1z"/>
	<path class="st1" d="M799.6,759.78c-6.18,0.08-9.96-11.3-2.34-11.28C803.1,748.51,806.94,759.68,799.6,759.78z M801.88,755.58
		c-0.11-3.9-6.64-8.49-7.17-2.63C794.39,756.52,801.67,760.3,801.88,755.58z"/>
	<path class="st1" d="M771.82,590.45c0.05-7.15,11.7-6.19,11.41,0.6C782.95,597.76,771.77,597.43,771.82,590.45z M777.81,587.1
		c-4.86,0.01-5.04,7.17-0.05,7.1C782.21,594.13,782.81,587.09,777.81,587.1z"/>
	<path class="st1" d="M714.25,480.96c7.49,0.23,7.79,12.97,0.34,11.61C709.37,491.62,707.59,480.76,714.25,480.96z M718.46,487.71
		c0.14-4.13-6.87-7.26-6.65-1.51C711.95,489.88,717.93,493,718.46,487.71z"/>
	<path class="st1" d="M597.95,522.97c-0.06-8.35,12-5.53,10.84,1.98C607.65,532.32,597.99,529.57,597.95,522.97z M603.88,527.59
		c5.19,0.13,3.58-8.81-1.49-8.07C597.35,520.24,599.55,527.48,603.88,527.59z"/>
	<path class="st1" d="M635.84,643.98c-6.2,0.01-10.89-10.7-2.78-11.14C639.47,632.5,644.04,643.97,635.84,643.98z M635.95,642.1
		c5.26-0.19,1.17-8.03-2.8-7.47C627.29,635.46,631.89,642.08,635.95,642.1z"/>
	<path class="st1" d="M654.75,523.3c0.08,7.02-11.24,7.02-11.32,0.02C643.34,516.15,654.66,516.01,654.75,523.3z M649.32,526.98
		c5.41,0.16,4.48-8.25-0.92-7.39C643.59,520.35,644.78,526.84,649.32,526.98z"/>
	<path class="st1" d="M611.87,640.93c6.4-0.06,10.1,11.31,2.4,11.73C608,652.99,603.83,641,611.87,640.93z M612.18,642.81
		c-5.64-0.11-3.19,7.46,1.07,7.84C619.11,651.17,616.76,642.78,612.18,642.81z"/>
	<path class="st1" d="M830.01,469.51c6.23,0.08,6.37,10.67-0.05,10.79C822.73,480.44,821.95,469.41,830.01,469.51z M829.86,471.38
		c-4.99,0.05-4.89,6.84-0.22,7.05C834.12,478.64,833.95,471.34,829.86,471.38z"/>
	<path class="st1" d="M741.07,455.88c0.03,7.03-10.64,4.1-10.51-1.93C730.72,446.42,741.04,449.51,741.07,455.88z M736.96,458.09
		c4.51-0.15,1.09-7.48-2.38-6.73C730.27,452.3,733.55,458.21,736.96,458.09z"/>
	<path class="st1" d="M717.7,780.37c-0.4-8.4,12.65-4.99,10.64,2.83C726.52,790.28,716.89,786.94,717.7,780.37z M726.69,781.74
		c-0.09-5.98-8.71-6.09-7.54,0.08C719.99,786.28,726.76,786.9,726.69,781.74z"/>
	<path class="st1" d="M646.02,510.57c-0.03,7.27-10.26,3.52-9.93-2.58C636.52,500.2,646.04,504.48,646.02,510.57z M644.08,510.71
		c0.05-2.79-4.28-7.96-5.96-3.57C636.76,510.7,643.73,515.05,644.08,510.71z"/>
	<path class="st1" d="M638.79,494.36c0.06,7.36-10.81,1-10.66-4.42C628.35,481.94,638.74,489.04,638.79,494.36z M636.89,494.09
		c0.09-2.75-5.9-8.62-7.3-4.54C628.44,492.89,636.96,498.4,636.89,494.09z"/>
	<path class="st1" d="M676.3,507.95c-6.1-0.5-8.47-12.84-1.56-11.65C679.52,497.11,682.93,507.73,676.3,507.95z M678.17,504.14
		c-0.01-2.82-4.65-9.12-6.21-4.08C671.01,503.12,677.99,508.6,678.17,504.14z"/>
	<path class="st1" d="M793.21,743.01c-6.64-0.05-9.34-10.44-1.42-10.3C798.22,732.81,800.98,743.07,793.21,743.01z M793.54,741.32
		c5.39-0.76,2.18-7.49-2.06-7.01C786.15,734.91,789.12,741.34,793.54,741.32z"/>
	<path class="st1" d="M672.25,440.17c6.38,0.13,6.42,11.7-0.34,11.61C665.27,451.69,665.14,440.03,672.25,440.17z M668.73,445
		c-0.05,4.84,6.23,7.33,6.59,1.43C675.57,442.15,669.32,439.77,668.73,445z"/>
	<path class="st1" d="M831.34,533.95c-0.1,7.18-11.42,6.46-10.99-0.66C820.76,526.45,831.43,527.18,831.34,533.95z M826.09,530.09
		c-4,0-5.08,5.36-1.59,7.06C829.53,539.6,832.12,530.09,826.09,530.09z"/>
	<path class="st1" d="M749.48,592.77c-0.03,7.3-9.69,7.05-9.62-0.2C739.95,584.96,749.51,584.65,749.48,592.77z M741.68,592.47
		c0.06,5.54,6.58,4.63,6.25-0.45C747.61,587.08,741.62,587.33,741.68,592.47z"/>
	<path class="st1" d="M764.98,500.74c0.03-8.76,9.77-5.6,8.82,1.55C772.86,509.41,764.56,507.6,764.98,500.74z M772.36,501.14
		c-0.06-4.53-5.16-5.66-5.64-0.76C766.19,505.69,772.43,506.54,772.36,501.14z"/>
	<path class="st1" d="M881.96,465.78c-0.26-6.65,10.53-5.64,11.97-0.32C895.95,472.87,882.07,473.37,881.96,465.78z M887.73,462.78
		c-5.27,0.08-4.62,6.23,0.11,6.8C893.69,470.29,893.2,462.69,887.73,462.78z"/>
	<path class="st1" d="M682.46,559.54c7.39-0.28,7.69,12.15,0.45,10.56C677.25,568.87,675.24,559.82,682.46,559.54z M682.92,561.37
		c-5.68-0.02-3.38,6.57,0.61,6.85C688.4,568.55,687.35,561.38,682.92,561.37z"/>
	<path class="st1" d="M760.65,590.99c-0.25,7.01-9.85,5.38-10.43-0.65C749.48,582.65,760.92,583.36,760.65,590.99z M754.9,586.56
		c-4.75-0.03-2.89,7.41,1.01,7.42C760.68,593.98,759.28,586.59,754.9,586.56z"/>
	<path class="st1" d="M735.27,483.56c-5.48-0.05-9.2-9.59-1.82-9.75C740.12,473.67,742.53,482.15,735.27,483.56z M735.24,481.61
		c5.65-0.97,0.9-6.81-2.46-5.72C729.26,477.03,732.52,481.57,735.24,481.61z"/>
	<path class="st1" d="M702.68,680.39c-7.96-0.02-6.39-10.69,0.83-9.84C710.05,671.31,709.13,680.4,702.68,680.39z M702.17,678.71
		c4.54,0.09,5.23-6.44,0.42-6.39C698.49,672.35,697.5,678.62,702.17,678.71z"/>
	<path class="st1" d="M921.92,704.53c-6.03-0.15-6.96-7.35-1.2-8.99C927.66,693.56,929.64,704.72,921.92,704.53z M925.33,699.52
		c-1.18-2.34-6.58-3.31-6.68,0.39C918.56,703.24,925.37,702.91,925.33,699.52z"/>
	<path class="st1" d="M779.24,677.56c-5.11,0.05-9.76-9.28-3.25-10.06C781.59,666.83,786.68,677.49,779.24,677.56z M778.98,675.52
		c4.41,0.37,0.99-5.63-1.74-5.94C771.73,668.95,775.85,674.77,778.98,675.52z"/>
	<path class="st1" d="M614.76,628.23c-5.43-0.07-7.85-9.07-1.94-10.22C619.23,616.76,622.25,628.32,614.76,628.23z M617.4,624.04
		c-0.09-3.64-5.9-6.52-6.54-1.88C610.4,625.48,617.29,628.22,617.4,624.04z"/>
	<path class="st1" d="M834.21,644.44c1.87,2.65,5.63,1.19,7.27,4.7c1.23,2.63,0.18,5.61-2.62,6.41c-2.54,0.73-5.49-0.96-6.48-3.29
		C831.07,649.22,835.43,645.93,834.21,644.44z M837.58,653.87c4.38-0.04,2.83-6.16-0.9-6.05
		C832.37,647.96,833.68,653.91,837.58,653.87z"/>
	<path class="st1" d="M768.73,441.25c-0.97-7.31,9.27-4.38,9.47,2.12C778.45,451.69,768.6,448.1,768.73,441.25z M776.61,443.79
		c0.4-3.69-5.43-8.19-6.25-2.49C769.82,445.07,775.12,449.18,776.61,443.79z"/>
	<path class="st1" d="M906.4,518.69c7.16-0.08,7.03,10.56-0.38,9.67C899.77,527.6,899.74,518.76,906.4,518.69z M906.69,526.67
		c4.44-0.03,4.26-6.08-0.11-6.05C902.19,520.65,902.17,526.71,906.69,526.67z"/>
	<path class="st1" d="M691.95,705.89c-6.55-0.1-9.29-9.19-1.53-9.46C697.16,696.2,699.79,706.01,691.95,705.89z M691.99,704.11
		c5.53-0.19,2.85-6.19-1.53-5.9C685.17,698.57,687.45,704.12,691.99,704.11z"/>
	<path class="st1" d="M685.97,515.06c-5.78-0.38-8.65-10.43-1.58-10.32C690.33,504.83,693.34,515.54,685.97,515.06z M683.99,506.66
		c-4.66,0.73-1.22,6.82,2.12,6.67C691.2,513.09,687.5,507.05,683.99,506.66z"/>
	<path class="st1" d="M841.46,510.99c8.22-0.1,5.52,12.05-1.96,10.86C832.36,520.72,835.04,511.07,841.46,510.99z M844.87,515.78
		c0.08-5.16-7.16-3.88-7.83,0.31C836.1,521.92,844.78,521.1,844.87,515.78z"/>
	<path class="st1" d="M636.88,537.04c7.13,0.08,7.34,11.22-0.04,10.06C631.17,546.2,630.38,536.97,636.88,537.04z M636.48,538.95
		c-4.71,0.57-2.36,6.66,1.47,6.26C642.54,544.73,640.48,538.94,636.48,538.95z"/>
	<path class="st1" d="M851.29,582.09c-5.36-0.87-8.37-8.56-1.1-8.83C856.83,573.01,859.72,581.55,851.29,582.09z M851.84,580.26
		c5.31,0.22,2.08-5.23-1.28-5.18C845.76,575.16,848.11,580.17,851.84,580.26z"/>
	<path class="st1" d="M890.5,685.02c-5.88-0.3-5.97-8.46-0.16-8.77C896.85,675.9,897.16,685.36,890.5,685.02z M890.91,682.89
		c3.61-0.52,3.04-4.54-0.44-4.12C887.14,679.17,887.63,682.74,890.91,682.89z"/>
	<path class="st1" d="M702.82,505.97c-6.41,0.09-6.33-9.97,0.23-9.8C709.39,496.34,709.19,505.88,702.82,505.97z M702.92,504.04
		c3.83-0.32,3.85-6.09-0.01-6.14C699.03,497.86,699.01,503.75,702.92,504.04z"/>
	<path class="st1" d="M604.88,657.9c-5.99,0.02-9.53-10.51-2.01-9.8C608.15,648.61,612.3,657.87,604.88,657.9z M604.56,656
		c5.08-0.08,1.11-6.3-2.06-6.2C597.22,649.96,601.05,655.72,604.56,656z"/>
	<path class="st1" d="M882.92,735.09c-5.19,0.02-10.07-8.6-3.15-9.13C884.54,725.6,889.06,734.75,882.92,735.09z M884.09,731.87
		c-0.1-2.08-5.23-5.21-5.54-2.21C878.29,732.2,884.39,734.19,884.09,731.87z"/>
	<path class="st1" d="M700.07,572.57c-0.03,7.21-9.93,6.86-9.81-0.32C690.39,564.78,700.1,564.94,700.07,572.57z M695.2,568.31
		c-4.4-0.1-4.3,6.93-0.52,7.75C699.3,577.07,699.8,568.41,695.2,568.31z"/>
	<path class="st1" d="M816.34,541.24c7.85,0.1,4.97,10.61-1.72,9.6C808.24,549.88,810.4,541.17,816.34,541.24z M819.51,545.2
		c-0.11-3.85-7.03-2.18-6.94,1.32C812.69,550.99,819.43,549.18,819.51,545.2z"/>
	<path class="st1" d="M886.68,607.58c-0.27,5.96-9.91,3.38-9.7-1.62C877.25,599.45,886.95,601.47,886.68,607.58z M882.93,609.05
		c4.14,0.03,1.21-5.92-1.85-4.98C876.88,605.37,880.54,608.55,882.93,609.05z"/>
	<path class="st1" d="M648.16,637.62c-5.71,0.11-9.21-9.79-2.22-10.17C651.59,627.14,655.2,637.48,648.16,637.62z M645.9,629.32
		c-4.1,0.16-1.51,6.68,1.81,6.5C652.49,635.56,649.59,629.4,645.9,629.32z"/>
	<path class="st1" d="M820.21,441.73c-6.54,0.06-6.05-10.84,0.25-9.95C826.1,432.57,826.06,441.68,820.21,441.73z M819.63,433.43
		c-2.91,1.04-3.01,6.38,0.58,6.19C825.33,439.35,821.33,434.57,819.63,433.43z"/>
	<path class="st1" d="M736.72,705.08c-0.11,6.54-9.99,4.6-9.88-1.34C726.97,696.62,736.83,698.61,736.72,705.08z M731.13,700.87
		c-3.89,0.52-3.09,5.72,0.4,6.29C736.43,707.95,735.87,700.84,731.13,700.87z"/>
	<path class="st1" d="M769.12,547.06c-6.81-0.11-7.47-11.86-0.95-10.58C773.01,537.43,775.85,547.16,769.12,547.06z M771.37,543
		c0.08-3.05-4.92-7.14-6.15-2.74C764.15,544.13,771.41,547.44,771.37,543z"/>
	<path class="st1" d="M598.74,576.96c-6,0.07-8.05-9.31-1.38-9.65C603.55,567,605.97,576.87,598.74,576.96z M598.7,575.35
		c4.66-0.09,2.7-6.92-1.54-6.04C592.44,570.29,595.19,574.93,598.7,575.35z"/>
	<path class="st1" d="M907.87,558.65c-2.41-0.16-6.3-1.27-6.76-3.95c-0.42-2.47,2.26-4.89,4.6-4.91
		C910.94,549.76,915.04,558.61,907.87,558.65z M910.2,555.25c-1.03-2.94-7.92-5.18-7.04-0.46
		C903.52,556.7,909.8,558.02,910.2,555.25z"/>
	<path class="st1" d="M782.11,405.55c0.01,6.1-10.48,6.73-9.57-0.1C773.3,399.73,782.11,399.53,782.11,405.55z M776.1,408.5
		c2.96,0.09,6.12-3.76,2.42-5.53C774.62,401.12,772.96,408.31,776.1,408.5z"/>
	<path class="st1" d="M878.62,631.64c6.36,0.03,6.66,8.88-0.17,8.37C872.37,639.56,872.28,631.61,878.62,631.64z M878.41,633.71
		c-3.55,0.35-3.07,4.19,0.25,4.41C882.7,638.4,882.15,634.09,878.41,633.71z"/>
	<path class="st1" d="M671.16,619.75c4.83-0.04,10.01,8.29,3.57,9.73C668.86,630.78,664.07,619.81,671.16,619.75z M673.71,627.73
		c4.68,0.1,0.65-6.65-2.45-6.24C666.68,622.1,670.41,627.74,673.71,627.73z"/>
	<path class="st1" d="M776.66,462.44c-1.45,7.35-9.09,4.57-9.08-1.85C767.6,453.08,776.17,456.83,776.66,462.44z M769.13,459.93
		c0.05,2.71,3.3,8.17,5.47,3.68C776.63,459.41,768.58,456.45,769.13,459.93z"/>
	<path class="st1" d="M763.75,642.51c0.04-6.26,10.05-3.34,9.88,1.87C773.42,650.93,763.72,648.27,763.75,642.51z M769.14,646.49
		c4.29,0.52,2.17-5.85-1.3-5.82C763.17,640.71,765.69,645.99,769.14,646.49z"/>
	<path class="st1" d="M686.04,460.62c-0.1,6.15-10.87,3.16-10.47-2.2C676.03,452.2,686.13,455.38,686.04,460.62z M684.15,460.75
		c0.01-2.91-6.03-6.2-6.67-2.21C677.03,461.34,683.79,464.23,684.15,460.75z"/>
	<path class="st1" d="M728.06,545.14c6.86,0.16,5.66,8.94-0.7,8.76C720.48,553.71,721.33,544.98,728.06,545.14z M727.3,551.94
		c4.02-0.27,4.98-5.15,0.59-5.43C723.93,546.26,723.01,551.36,727.3,551.94z"/>
	<path class="st1" d="M735.64,654.45c0.1-6.93,9.27-4.47,9.24,1.28C744.85,662.46,735.56,660.63,735.64,654.45z M740.88,658.19
		c3.59-0.16,1.86-6.21-1.16-6.31C735.42,651.74,736.88,658.24,740.88,658.19z"/>
	<path class="st1" d="M729.03,439.96c0.11-7.14,8.88-2.43,9.23,2.4C738.8,449.96,728.93,446.22,729.03,439.96z M730.76,439.05
		c-0.02,2.69,4.88,9.44,5.73,4.07C736.99,440.02,730.79,436.68,730.76,439.05z"/>
	<path class="st1" d="M881.47,524.12c-6.03-0.03-5.8-10.67,0.25-10.38C887.48,514.02,887.46,524.14,881.47,524.12z M884.25,518.7
		c0.34-4.35-5.47-3.72-5.43,0.39C878.88,523.53,884.25,523.49,884.25,518.7z"/>
	<path class="st1" d="M601.69,592.29c-6.67,0.11-8.84-9.08-0.73-8.13C606.63,584.82,608.65,592.17,601.69,592.29z M601.95,590.48
		c4-0.29,2.44-3.75-0.67-4.39C595.39,584.86,596.75,590.42,601.95,590.48z"/>
	<path class="st1" d="M876.26,721.97c-4.92-0.02-8.59-9.09-2.12-8.68C878.65,713.58,881.5,720.5,876.26,721.97z M876.1,719.67
		c2.85-0.52-0.55-3.92-1.96-3.87C871.08,715.92,874.17,719.71,876.1,719.67z"/>
	<path class="st1" d="M740.48,688.12c-0.05,6.65-9.14,4.15-8.72-1.82C732.24,679.38,740.53,682.41,740.48,688.12z M733.03,686.48
		c0.04,3.41,5.13,5.61,5.6,1.38C739.03,684.32,733.14,682.23,733.03,686.48z"/>
	<path class="st1" d="M676.93,753.15c-0.1,6.19-11.58,0.22-9.76-4.85C669.16,742.76,677,749.19,676.93,753.15z M670.01,747.98
		c-2.47,0.04,0.77,7.23,3.84,6.33C677.44,753.26,672.24,748.05,670.01,747.98z"/>
	<path class="st1" d="M816.21,789.73c-0.01,6.35-11.11,1.83-9.2-3.83C808.73,780.8,816.22,785.72,816.21,789.73z M814.25,789.67
		c0.07-2.61-5.82-6.35-5.8-2.31C808.46,789.17,813.77,792.87,814.25,789.67z"/>
	<path class="st1" d="M873.28,571.14c-6.5,0-9.56-9.65-2.05-9.21C875.92,562.21,880.43,571.14,873.28,571.14z M871.08,563.72
		c-5.98,0.5-0.81,7.1,2.72,5.88C877.47,568.33,873.89,563.75,871.08,563.72z"/>
	<path class="st1" d="M821.45,594.18c-6.66-0.49-8.33-10.31-0.99-8.91C825.67,586.26,828.62,594.14,821.45,594.18z M822.24,592.63
		c4.57,0.36,0.5-7.38-3.26-5.84C814.84,588.48,819.48,592.41,822.24,592.63z"/>
	<path class="st1" d="M586.69,619.61c-5.66,0.09-7.11-9.77-0.95-9.8C591.28,609.78,592.97,619.51,586.69,619.61z M588.92,615.77
		c0.1-4.43-6.18-5.44-5.78-1.02C583.4,617.64,588.53,619.6,588.92,615.77z"/>
	<path class="st1" d="M802.52,769.73c-5.02,0.05-10.01-9.42-2.79-8.98C804.05,761,808.96,769.66,802.52,769.73z M802.01,767.76
		c3.96,0.02-0.14-5.42-2.3-5.18C795.33,763.05,799.49,767.46,802.01,767.76z"/>
	<path class="st1" d="M712.64,660.94c-0.06,6.13-9.43,5.82-9.47-0.06C703.12,654.91,712.69,654.91,712.64,660.94z M707.59,663.96
		c3.9-0.22,4.3-5.99,0.28-5.9C704.42,658.13,704,663.86,707.59,663.96z"/>
	<path class="st1" d="M763.18,556.14c5.64,0.04,8.71,9.29,2.33,9.62C760.74,566.01,757.77,555.28,763.18,556.14z M763.63,558.01
		c-2.56,0.87-1.99,5,1.04,5.77C768.68,564.79,768.05,557.97,763.63,558.01z"/>
	<path class="st1" d="M614.49,578.93c-5.01,0.01-7.99-8.88-1.72-8.98C617.78,569.87,620.5,578.92,614.49,578.93z M614.66,577.01
		c3.08-0.06,0.66-4.85-1.41-5.08C609,571.45,611.21,576.83,614.66,577.01z"/>
	<path class="st1" d="M747.97,642.53c-0.09,6.22-9.61,3.66-8.4-2.11C740.73,634.87,748.05,637.62,747.97,642.53z M744.12,644.2
		c3.17-0.45,1.9-5-0.86-5.05C739.62,639.08,741.59,643.65,744.12,644.2z"/>
	<path class="st1" d="M876.28,472.62c5.46,0.16,5.23,9.46-0.25,9.44C870.33,482.04,870.75,472.46,876.28,472.62z M878.67,476.97
		c0.34-3.45-4.56-3.2-4.86,0.07C873.44,481.13,877.91,480.52,878.67,476.97z"/>
	<path class="st1" d="M598.53,614.2c5-0.03,9.04,8.82,2.59,9.29C596.15,623.85,592.47,614.23,598.53,614.2z M600.87,621.65
		c3.84,0.11,0.84-6.05-1.92-5.69C594.72,616.5,598.04,621.51,600.87,621.65z"/>
	<path class="st1" d="M762.34,573.39c6.06-0.13,6.02,8.53,0.06,8.72C756.07,582.3,755.94,573.52,762.34,573.39z M762.19,580.19
		c4-0.27,3.87-5.3-0.11-5.15C758.26,575.19,758.5,579.73,762.19,580.19z"/>
	<path class="st1" d="M622.09,637.47c5.54,0.05,8.31,9.14,1.71,9.56C618.22,647.38,615.42,637.4,622.09,637.47z M623.89,645.23
		c4.17-0.22,1.3-7.23-2.5-5.83C617.3,640.91,620.69,645.25,623.89,645.23z"/>
	<path class="st1" d="M729.21,739.07c-3.87,0.01-9.54-7.76-4.23-9.17C729.64,728.67,735.17,739.05,729.21,739.07z M730.14,736.36
		c0.08-2.03-3.99-6.39-5.94-4.34C722.29,734.01,729.84,738.86,730.14,736.36z"/>
	<path class="st1" d="M804.06,603.95c-5.34,0.12-8.72-8.82-2.35-8.54C805.74,595.59,810.58,603.8,804.06,603.95z M804.13,602.34
		c3.23-0.48-0.16-4.78-1.96-4.91C798.07,597.12,800.89,602.44,804.13,602.34z"/>
	<path class="st1" d="M776.78,399.67c-5.39-0.06-6.37-10.1-0.27-8.78C781.35,391.94,783.23,399.74,776.78,399.67z M777.08,397.71
		c4.23-0.15,1.28-4.93-1.04-5.16C772.32,392.18,774.26,397.82,777.08,397.71z"/>
	<path class="st1" d="M894.66,510.67c0.11-6.72,10.44-5.43,8.9,1.16C902.28,517.32,894.57,516.38,894.66,510.67z M902.15,510.29
		c0.13-4.22-6.08-3.14-5.98,0.74C896.27,515.46,901.98,514.56,902.15,510.29z"/>
	<path class="st1" d="M852.8,508.39c-6.12,0.07-4.9-8.68,1.07-7.97C859.52,501.1,858.02,508.33,852.8,508.39z M853.11,501.95
		c-3.22,0.55-3.53,5.03,0.1,4.84C856.61,506.61,856.41,502.29,853.11,501.95z"/>
	<path class="st1" d="M710.95,470.35c4.36,0.13,7.92,8.09,2.28,8.69C708.4,479.55,705.11,469.82,710.95,470.35z M710.64,472.18
		c-2.68-0.37,0.06,5.38,2.22,4.98C715.96,476.58,713.1,472.08,710.64,472.18z"/>
	<path class="st1" d="M863.04,533.81c-6.29,0.02-5.6-8.38,0.22-8.18C868.99,525.82,869.3,533.79,863.04,533.81z M866.34,530.18
		c-1.13-1.8-4.82-4.72-5.86-0.84C859.5,532.94,864.99,532.86,866.34,530.18z"/>
	<path class="st1" d="M660.16,786.64c4.39,0.51,10.49,7.7,3.15,7.49C659.38,794.02,653.33,786.68,660.16,786.64z M660.55,788.46
		c-3.71-0.04,0.23,3.52,1.83,3.83C667.36,793.27,662.87,789.12,660.55,788.46z"/>
	<path class="st1" d="M704.67,446.31c1.58-5.84,7.9-1.06,7.1,3.55C710.72,455.92,704.57,450.34,704.67,446.31z M710.14,449.35
		c0.04-1.8-2.79-5.8-3.86-3.13C705.51,448.19,709.9,452.38,710.14,449.35z"/>
	<path class="st1" d="M714.44,457.32c-0.01-5.6,7.88-3.56,8.08,0.88C722.74,463.35,714.44,462.67,714.44,457.32z M717.5,455.74
		c-2.18-0.47-1.52,5.43,1.86,4.04C721.9,458.74,719.72,455.74,717.5,455.74z"/>
	<path class="st1" d="M600.11,599.98c0.09,5.49-8.73,3.54-9.28-0.98C590.05,592.58,600.02,594.67,600.11,599.98z M596.16,601.87
		c4.98-0.12,0.2-7.1-2.86-5.07C590.4,598.72,593.55,601.87,596.16,601.87z"/>
	<path class="st1" d="M771.85,653.01c4.61-0.02,9.13,8.07,2.82,8.62C769.77,662.05,766.5,652.71,771.85,653.01z M774.6,659.82
		c3.44-0.24-0.22-5.68-2.41-5.19C768.39,655.48,772.19,659.76,774.6,659.82z"/>
	<path class="st1" d="M734.86,464.24c4.08,0.02,7.16,8.87,1.51,8.55C732.75,472.58,729.61,464.22,734.86,464.24z M734.55,466.11
		c-2.5,1.07,2.06,6.01,2.89,4.34C738.08,469.18,735.99,466.25,734.55,466.11z"/>
	<path class="st1" d="M782.22,686.5c6.03-0.01,7.41,9.68,0.59,8.03C778.89,693.59,776.89,686.51,782.22,686.5z M785.89,691.75
		c0.02-2.5-4.91-5.74-5.59-2.2C779.87,691.81,785.75,694.56,785.89,691.75z"/>
	<path class="st1" d="M729.61,468.82c-0.1,4.77-8.42,2.18-7.37-2.56C723.53,460.44,729.64,464.52,729.61,468.82z M724.71,464.9
		c-0.74,1.3,0.2,6.19,2.28,4.76C729.43,467.98,726.11,465.62,724.71,464.9z"/>
	<path class="st1" d="M708.46,457.37c3.53-0.05,8.19,7.23,3.33,8.76C707.28,467.55,703.36,457.93,708.46,457.37z M710.86,464.34
		c3.49-0.42-1.22-5.73-2.09-5.38C706.28,459.96,708.93,464.28,710.86,464.34z"/>
	<path class="st1" d="M583.91,597.3c5.58,0.15,5.53,8.46-0.07,8.39C578.18,605.61,578.38,597.15,583.91,597.3z M583.56,603.91
		c3.42-0.17,4.12-4.63,0.48-4.89C580.7,598.8,579.91,603.77,583.56,603.91z"/>
	<path class="st1" d="M804.23,771.46c3.6,0.08,9.49,6.85,4.03,8.11C804.14,780.52,798.17,771.33,804.23,771.46z M804.06,772.9
		c-3.26,0.49,2.1,5.84,4.11,4.93C810.83,776.61,805.13,773.24,804.06,772.9z"/>
	<path class="st1" d="M606.44,601.33c-5.15-0.1-5.68-8.42-0.34-8.39C611.32,592.96,611.81,601.43,606.44,601.33z M606.46,599.6
		c3.34-0.2,2.76-5.01-0.39-4.89C602.57,594.85,603.15,599.41,606.46,599.6z"/>
	<path class="st1" d="M572.57,614.39c-5.26,0.05-5.15-7.05,0.05-7.16C578.09,607.13,577.93,614.35,572.57,614.39z M572.23,612.49
		c2.06-0.08,3.99-2.17,1.27-3.35C570.77,607.96,568.66,612.28,572.23,612.49z"/>
	<path class="st1" d="M719.76,794.74c-0.03-5.08,9.42-3.44,8.1,2.05C726.61,802.01,719.79,799.39,719.76,794.74z M726.48,795.83
		c-0.87-3.24-6.33-3.49-5.08,0.27C722.24,798.6,725.92,798.53,726.48,795.83z"/>
	<path class="st1" d="M879.86,617.13c4.77,0.07,5.24,8.1-0.4,7.08C875.64,623.53,875.75,617.08,879.86,617.13z M882,621.41
		c-0.67-0.99-4.18-3.4-3.32-0.21C879.08,622.72,882.05,623.42,882,621.41z"/>
	<path class="st1" d="M575.68,559.1c3.88-0.02,7.14,6.22,2.13,6.08C574.57,565.09,572,560.36,575.68,559.1z M579.12,562.77
		c-0.39-0.94-2.3-2.62-3.54-2.22C574.23,560.99,578.5,565.52,579.12,562.77z"/>
</g>
</svg>
