<svg xmlns="http://www.w3.org/2000/svg" viewBox="0 0 905.68 1000">
<rect fill="none" width="905.68" height="1000"/>
<g>
	<path d="M378.27,122.47c2.01-6.27,8.24-10.45,12.95-14.61c5.16-4.56,10.72-8.9,17.47-10.75c6.63-1.81,13.88-2.21,20.71-2.2
		c2.21,0,19.05-1.04,19.32,0.88c0.18,1.25-15.89,0.9-17.51,0.91c-7.22,0.02-14.35,0.71-21.39,2.45c-6.17,1.52-11.12,5.67-15.84,9.7
		C388.77,113.32,382.65,117.14,378.27,122.47z"/>
	<path d="M399.22,172.55c2.36-9.34,8.82-13.91,17.94-16.24c5.44-1.39,11.06-2.86,16.63-3.59c1.09-0.14,13.13-1.39,13.46-0.54
		c0.83,2.16-10.05,2.5-11.04,2.63c-5.43,0.72-10.67,2.35-15.98,3.62C410.71,160.71,405.07,164.82,399.22,172.55z"/>
	<path d="M635.8,27.01c-0.06,0.11-1.37,2.69-1.67,2.6c-3.54-1.02,4.59-11.29,5.73-12.16c4.57-3.49,13.29-4.53,18.9-3.78
		c0.96,0.13,3.82,0.39,2.73,2.07c-1.02,1.57-8.26,1.3-9.97,1.56C644.28,18.39,639.83,20.74,635.8,27.01z"/>
	<path d="M590.79,83.31c1.56,1.1-1.01,5.9-1.44,7.74c-0.75,3.24-0.98,5.88-0.4,9.18c0.34,1.96,4.11,19.19,3.09,19.42
		c-1.78,0.4-4.76-16.74-5.06-18.42c-0.63-3.5-0.62-6.54,0.25-9.98C587.68,89.5,588.42,83.53,590.79,83.31z"/>
	<path d="M655.46,48.95c-4.91-0.38-9.54-0.24-13.72-3.21c-1.41-1-9.51-9.98-6.25-10.27c1.79-0.16,6.76,6.81,8.64,8.01
		c1.21,0.77,13.36,4.65,13.26,4.78C656.86,48.95,656.22,48.86,655.46,48.95z"/>
	<path d="M505.69,123.55c3.83-1.08,39.71-2.83,39.76-2.15c0.27,3.58-36.52,1.58-39.99,1.98
		C505.53,123.43,505.59,123.48,505.69,123.55z"/>
	<path d="M400.24,73.51c4.19-2.85,10.09-3.89,14.63-6.32c1.6-0.86,8.73-6.72,9.85-5.1c1.31,1.89-10.43,7.79-11.66,8.33
		C411.89,70.92,400.22,74.41,400.24,73.51z"/>
	<path d="M588.81,28.48c0.09-0.03,0.18-0.05,0.28-0.08c0.44,4.54,2.4,9.43,3.97,13.7c0.95,2.59,2.01,5.15,3.19,7.65
		c0.4,0.84,3.31,5.7,1.71,5.75c-2.46,0.08-6.06-11.21-6.75-13.1C589.93,38.87,586.85,32.15,588.81,28.48z"/>
	<path d="M589.07,158.55c-0.32,4.02-0.73,7.86-0.23,11.89c0.14,1.1,1.91,7.82,0.16,8.3c-3.39,0.93-1.86-25.41-0.49-24.91
		C589.43,154.16,589.03,157.86,589.07,158.55z"/>
	<path d="M535.55,35.09c-0.07-0.96,0.09-6.23,1.73-6.21c-0.61-0.01,0.07,11.06,0.29,12.17c0.58,2.98,4.98,8.71,4.36,11.5
		c-0.83,3.7-3.7-4.08-4.31-5.63C536.11,43.09,535.59,39.18,535.55,35.09z"/>
	<path d="M583.65,96.82c-1.03,4.09-0.15,9.6,0.66,13.72c0.44,2.21,1.23,4.36,1.86,6.52c0.45,1.55,1.29,3.32,1.37,4.9
		c-0.01-0.3,0.25,3.21-0.4,2.42c-2.41-2.96-4.18-10.48-4.74-14.23C582.12,108.27,581.19,97.27,583.65,96.82z"/>
	<path d="M560.07,240.77c0-3.81,1.42-8.04,3.07-11.44c0.45-0.94,5.91-9.76,7.06-7.71c0.61,1.09-5.28,8.35-5.92,9.91
		c-0.49,1.18-4.19,10.96-3.51,11.48C560.02,242.52,559.79,241.77,560.07,240.77z"/>
	<path d="M575.98,98.26c-0.09-2.97,0.08-8.97,2.9-10.85c0.42,0.71-0.75,4.05-0.86,4.81c-0.35,2.27-0.45,4.56-0.39,6.85
		c0.04,1.58,2.37,11.63,1.78,12.23C578.04,112.71,575.85,99.68,575.98,98.26z"/>
	<path d="M447.36,261.57c-7.83-1.68-14.55-1.23-22.41-0.27c0.11-2.35,12.36-2.67,14.1-2.53c2.54,0.2,5.68,0.45,8.06,1.32
		C448.62,260.64,450.47,262.11,447.36,261.57z"/>
	<path d="M598.17,166.03c-0.41,3.62-0.25,7.4-2.74,9.69c0.65-0.6,0.66-5.13,0.79-6.7c0.33-3.97-0.23-7.76-1.24-11.61
		c-0.5-1.89-1.82-6.93,0.81-3.32C597.76,156.78,598.17,162.86,598.17,166.03z"/>
	<path d="M642.04,123.07c-0.08-0.94,0.56-9.78,2.1-9.17c-0.83-0.33,0.55,19.16,0.32,19.39
		C643.33,134.37,642.01,123.45,642.04,123.07z"/>
	<path d="M595.74,31.04c0-0.76-0.22-6.39,1.43-6.37c-1.35-0.01,2.48,17.06,2.16,17.87c-0.97,2.5-1.69-0.32-2.18-2.1
		C596.3,37.37,595.64,34.24,595.74,31.04z"/>
	<path d="M553.41,242.07c-2.18-2.77-1.4-6.11-0.43-9.16c0.5-1.56,2.62-8.37,4.7-8.79c2.2-0.44-1.67,6.11-2.14,7.19
		C554.06,234.77,552.78,238.26,553.41,242.07z"/>
	<path d="M379,382.36c-0.78-2.51-8.12,6.69-8.71,7.5c-3.33,4.52-6.25,9.34-8.77,14.35c-2.48,4.94-4.32,10.1-6.44,15.19
		c-2.15,5.15-4.86,10-6.74,15.27c-3.88,10.87-5.97,22.11-10.65,32.73c-4.56,10.35-6.98,21.17-10.5,31.87
		c-15.01,45.62-30.36,91.54-49.36,135.66c-9.64,22.38-17.8,45.42-27.38,67.83c-9.55,22.33-19.66,44.3-30.73,65.92
		c-21.85,42.64-47.4,83.08-77.13,120.69c-14.77,18.69-31.04,36.47-48.11,53.09c-8.69,8.46-17.78,16.53-26.9,24.52
		c-4.48,3.92-9,7.8-13.57,11.61c-3.86,3.21-8.09,5.65-11.92,8.82c-1.2,0.99-9.65,6.68-7.85,8.03c1.19,0.89,10.79-7.36,12-8.26
		c4.11-3.04,7.72-6.73,11.86-9.9c4.57-3.5,9.08-7.08,13.53-10.73c18.24-15,35.07-31.42,51.07-48.77
		c32.23-34.95,58.9-74.23,82.99-115.09c24.5-41.55,42.35-86.15,61.03-130.45c18.65-44.22,35.91-88.87,51.24-134.36
		c3.79-11.25,7.47-22.53,11.31-33.76c3.78-11.08,6.15-22.52,10.76-33.31c4.44-10.4,7.08-20.98,10.4-31.75
		c3.15-10.22,7.9-20.66,12.43-30.35c2.34-5.01,4.99-9.9,8.04-14.51C372.34,392,379.76,384.81,379,382.36z"/>
	<path d="M637.12,198.41c0.07-3.07,1.1-5.89,2.84-8.39c0.38-0.55,3.09-4.52,4.03-3.1c0.32,0.49-3.33,4.62-3.65,5.18
		c-1.49,2.64-1.44,5.67-2.63,8.34C637.24,201.54,636.93,195.83,637.12,198.41z"/>
	<path d="M491.94,302.21c-0.87-1.47-2.96-2.14-4.09-3.75c-0.34-0.48-4.23-9.09-2.39-8.8C488.21,290.1,488.26,300.88,491.94,302.21z"
		/>
	<path d="M289.04,351.12c-2.21-0.99-7.99,6.1-9.91,7.55c-3.94,2.97-8.18,5.17-12.98,6.35c-5.16,1.27-10.44,1-15.7,0.99
		c-0.73,0-11.74-0.56-10.14,1.5c0.64,0.82,5.37,0.27,6.45,0.33c2.28,0.12,4.46,0.66,6.73,0.82c5.28,0.39,11.17-0.34,16.25-1.8
		c4.56-1.32,8.5-3.68,12.14-6.68C282.95,359.31,291.03,352.02,289.04,351.12z"/>
	<path d="M341.44,173.77c-2.34-0.63-8.33,9.05-9.72,10.74c-4.06,4.96-8.24,9.81-12.29,14.78c-1.92,2.36-19.78,22.71-17.65,24.79
		c1.35,1.32,6.1-7.45,6.87-8.42c3.9-4.89,7.85-9.74,11.85-14.54c4.15-4.99,8.39-9.9,12.46-14.96
		C333.98,184.92,342.21,173.98,341.44,173.77z"/>
	<path d="M534.27,241.23c-2.49-1.45-8.13-0.32-10.84,0c-3.83,0.45-7.42,1.75-11.17,2.4c-1.22,0.21-7.12,0.11-7.08,2.45
		c0.03,1.75,6.27-0.58,7.42-1.01c-0.05-0.07-0.1-0.12-0.16-0.17c0.39,0.32,10.21-1.99,11.6-2.11c2.54-0.23,5.71,0.22,8.16-0.32
		C532.31,242.44,535.61,242.02,534.27,241.23z"/>
	<path d="M591.29,52.27c-2.1-3.54-3.47-6.56-4.63-10.41c-0.68-2.25-2.42-5.69-2.18-1.1c0.15,2.76,2.01,5.71,3.24,8.08
		c0.3,0.57,1.71,3.98,2.62,4.07C590.63,52.94,591.8,53.14,591.29,52.27z"/>
	<path d="M580.16,224.54c-0.84-1.97-6.53,8.39-6.86,9.19c-0.52,1.28-4.29,8.56-2.61,9.36c1.49,0.72,3.47-7.37,3.98-8.48
		C575.4,232.99,580.63,225.63,580.16,224.54z"/>
	<path d="M455.31,211.89c-0.23-1.14-29.61,3.55-32.22,4.08c-5.1,1.04-10.24,2.55-14.62,5.45c-1.2,0.79-10.18,7.56-9.11,9.12
		c0.67,0.97,7.78-5.57,9.08-6.4c4.44-2.83,9.32-4.56,14.43-5.74c5.68-1.3,11.45-2.04,17.22-2.85
		C442.02,215.28,455.84,214.54,455.31,211.89z"/>
	<g>
		<path d="M670.53,200.09l0.1,0.11c0.24-0.18,0.53-0.33,0.6-0.6C670.96,199.58,670.73,199.84,670.53,200.09z"/>
		<path d="M491.94,302.21c-0.28,0.22-0.08,0.47,0.6,0.74C492.42,302.71,492.22,302.44,491.94,302.21z"/>
		<path d="M728.87,120.78c0.1-0.07,0.19-0.15,0.27-0.23c-0.11,0.06-0.23,0.12-0.33,0.16L728.87,120.78z"/>
		<path d="M899.33,627.26c-1.9-32.75-11.99-65.55-27.48-94.36c-7.34-13.65-16.04-26.57-25.91-38.52
			c-5.28-6.39-10.99-12.32-16.82-18.2c-5.28-5.33-8.21-12.6-12.65-18.64c-19.22-26.19-46.64-46.53-75.4-61.13
			c-14.52-7.37-29.75-13.44-45.55-17.44c-7.79-1.98-15.74-3.56-23.75-4.27c-4.32-0.38-8.67-0.52-13.01-0.46
			c-2.07,0.03-9.31,1.62-10.87,0.28c-1.63-1.4-0.4-7.72-0.32-9.64c0.17-4.23,0.3-8.46,0.72-12.67c0.77-7.73,1.08-15.42,1.11-23.18
			c0.03-8.13-0.32-16.33,0.58-24.43c0.94-8.45,2.78-16.82,3.37-25.3c0.48-6.89,0.65-13.88,1.42-20.75c0.26-2.3-0.06-9.35,1.39-11.04
			c1.45-1.7,6.81-0.55,8.86-0.64c12.5-0.54,25.64-16.01,24.82-28.61c-0.48-7.43-6.53-10.38-11.27-14.8
			c-5.37-5.02-8.69-12.09-14.09-17.3c-2.21-2.14-6.56-4.12-8.23-6.52c-1.96-2.82-1.32-9.19-1.45-12.49
			c-0.18-4.35,0.84-4.54,4.95-4.2c4.34,0.36,8.68,1.01,13,1.56c8.21,1.05,16.74,1.43,25.01,1.02c7.23-0.36,15.08,0.42,21.78-2.72
			c14.1-6.62,22.07-20.81,16.71-36.18c-2.32-6.65-7.64-11.99-13.18-16.12c-6.17-4.6-12.64-6.17-20.13-7.51
			c-15.76-2.82-30.92-9.76-47.21-8.73c-7.77,0.49-15.61,1.17-22.78-2.35c-7.05-3.45-13.4-8.19-20.51-11.46
			c-1.51-0.69-6.6-1.73-5.8-3.81c0.67-1.73,9.31-3.03,11.1-3.44c8.06-1.87,16.21-3.04,24.14-5.48c8.09-2.49,16.49-5.44,24.07-9.22
			c6.23-3.1,10.45-8.75,13.37-14.98c6.51-13.88,2.56-29.03-11.91-35.41c-13.98-6.17-31.29-3.42-45.66,0.02
			c-14.86,3.55-30.18,8.18-45.48,9.36c-7.53,0.58-15.08,0.25-22.62,0.9c-3.51,0.3-6.66,0.85-10.07,1.73
			c-4.11,1.05-7.3,3.29-11.2,4.58c-2.93,0.97-6.2,0.7-9.22,1.2c-4.08,0.68-8.02,1.97-12.12,2.6c-7.54,1.16-15.02,2.54-22.54,3.79
			c-15.78,2.62-31.41,6.02-47.23,8.41c-7.58,1.15-15.38,1.54-22.68,4.02c-6.35,2.16-11.88,6.09-16.8,10.6
			c-11.28,10.33-19.32,24.34-27.9,36.87c-5.01,7.31-9.79,14.8-14.96,22c-4.52,6.29-9.84,11.92-14.47,18.15
			c-9.79,13.19-19.02,26.63-29.23,39.51c-10.09,12.72-18.64,26.66-28.74,39.31c-10.16,12.72-19.62,25.92-29.43,38.91
			c-10,13.25-20.36,26.22-29.92,39.8c-9.46,13.43-20.28,25.73-30.9,38.24c-11.24,13.23-21.79,27.01-32.49,40.68
			c-9.9,12.65-17.92,26.57-27.58,39.37c-5.02,6.66-10.43,12.99-15.31,19.76c-5.06,7.03-9.91,14.22-15.43,20.91
			c-21.52,26.06-43.97,51.35-68.11,75c-3.23,3.16-31.04,30.56-33.1,28.18c0,1.52,0,3.04,0,4.56c0.73-1.02,1.92-1.12,2.99-1.73
			c1.98-1.12,3.84-2.89,5.66-4.27c3.76-2.86,7.42-5.82,10.98-8.93c6.38-5.59,12.4-11.52,18.53-17.37
			c12.93-12.34,25.15-25.25,36.82-38.79c11.49-13.33,23.53-26.41,34.13-40.47c10.07-13.36,20.6-26.65,30.12-40.38
			c9.84-14.19,19.38-28.33,30.05-41.93c10.83-13.8,21.78-27.43,33.24-40.72c11.28-13.09,21.07-27.07,31.49-40.81
			c10.22-13.46,20.76-26.69,30.73-40.33c9.97-13.63,20.36-26.91,30.05-40.74c9.77-13.94,21.1-26.71,30.92-40.58
			c19.94-28.16,42.32-54.98,59.97-84.71c8-13.48,20.02-25.39,35.8-28.81c8.02-1.74,16.33-2.11,24.41-3.68
			c8.84-1.72,17.65-2.91,26.45-4.92c8.26-1.89,16.81-2.9,25.16-4.39c8.15-1.45,16.41-3.68,24.58-4.76c4.38-0.58,4.53-0.04,3.8,3.98
			c-0.79,4.38-0.36,8.85,0.97,13.09c0.99,3.18,2.43,6.49,4.32,9.26c2.05,3,4.13,3.06,1.92-0.56c-4.23-6.93-6.51-13.75-5.89-21.96
			c0.26-3.48,0.29-4.37,3.62-5.76c3.67-1.53,7.22-2.51,11.1-3.43c7.82-1.85,15.99-1.73,24-1.74c9.03-0.01,17.61-1.62,26.46-3.31
			c16.31-3.12,31.61-8.23,48.34-9.28c4.24-0.27,8.32-0.33,12.51,0.47c2.74,0.52,8.78,1.44,10.5,3.81c1.84,2.54-0.62,1.01-1.45,3.05
			c-0.72,1.77,2.47,7.6,2.82,9.56c0.66,3.68,0.17,7.81-0.38,11.5c-0.19,1.28-3.28,10.18-2.6,10.75c1.5,1.26,4.81-10.56,4.97-11.43
			c0.88-4.82,0.81-9.78-0.54-14.5c-0.43-1.5-3.82-7.29-0.29-7.01c3.01,0.24,6.75,6.64,7.58,9.07c3.09,9.03-1.07,18.78-6.33,26.13
			c-5.05,7.06-16.09,9.52-23.84,12.41c-9.97,3.73-20.2,5.44-30.47,8c-4.71,1.17-8.58,2.94-12.58,5.2c-1.84,1.04-0.83,1.09-3.22,0.64
			c-2.55-0.48-4.9-1.91-7.5-2.4c-20.39-3.85-40.51-0.37-60.96,0.27c-6.09,0.19-12.11,0.62-18.19,1.02
			c-5.77,0.38-11.5-0.51-17.28-0.55c-5.53-0.03-10.99-0.31-16.47-1.17c-1.54-0.24-17.41-3.2-17.43-2.89
			c-0.04,0.8,7.47,3.21,8.4,3.52c3.65,1.19,7.53,1.88,11.31,2.5c8.18,1.36,17.02,1.54,25.31,1.64c14.36,0.18,28.6-1.7,42.93-2.21
			c14.26-0.5,28.77-2.01,42.94,1.11c14.74,3.25,27.09,12.31,40.52,18.67c1.21,0.57,2.68,1.62,3.97,1.95c2,0.51,1.63-0.18,3.41-0.31
			c2.64-0.19,6.76-0.81,8.23,1.69c1.18,2.01,0.53,8.71-0.04,10.91c-1,3.92-2.56,6.54-2.7,10.86c-0.22,6.76,2.34,12.7,2.49,19.25
			c0.09,3.78-0.05,7.53,0.2,11.32c0.36,5.48,1.39,7.74-4.86,6.34c-15.99-3.58-31.38-9.48-47.55-12.35
			c-14.5-2.57-29.19-0.72-43.71-2.21c-9.25-0.95-18.74-0.92-28.04-1.18c-8.2-0.23-16.36-0.96-24.55-1.38
			c-8.61-0.45-16.93-1.57-25.22-3.97c-4.36-1.26-8.55-2.83-12.67-4.71c-2.6-1.19-7.86-4.84-10.67-4.36
			c2.41,4.72,12.21,8.25,16.83,10.13c7.38,3,15.31,4.81,23.23,5.57c15.57,1.49,31.22,1.93,46.87,2.12
			c7.86,0.1,15.71,0.43,23.57,0.58c3.54,0.07,7.04-0.37,10.57-0.03c4.32,0.41,8.57,1.29,12.91,1.59
			c14.82,1.01,26.21,13.9,38.81,20.82c6.28,3.45,12.83,6.22,19.14,9.56c2.05,1.08,5.81,2.24,7.1,4.28
			c1.64,2.59,0.53,8.09,0.55,10.98c0.06,7.93,0.82,15.78,0.67,23.72c-0.07,4.07-0.16,8.13-0.24,12.2
			c-0.06,2.69,1.23,11.24-0.48,13.33c-2.43,2.96-14.37-3.25-17.21-4.57c-7.25-3.38-14.28-9.09-22.18-10.85
			c-3.02-0.67-3.57,0.76-6.3-0.47c-2.9-1.3-5.49-3.84-8.3-5.41c-6.11-3.39-13.98-7.28-20.8-8.78c-8.69-1.91-17.77-3.68-26.64-4.51
			c-8.71-0.82-17.34-0.01-26.07,0.11c-8.02,0.11-16.18,0.8-24.19-0.04c-4.48-0.47-9.06-1.26-13.47-2.22
			c-2-0.43-10.02-4.3-11.29-3.62c0.18-0.1,0.41-0.16,0.64-0.21c-3.1-3.27-4.35,0.81-1.12,1.14c-0.03-0.4,0.1-0.65,0.31-0.82
			c-1.8,1.45,12.48,6.75,13.76,7.04c7.35,1.62,14.08,2.09,21.59,2.05c13.62-0.07,27.29-1.74,40.88-0.6
			c6.75,0.57,13.58,1.81,20.26,2.95c6.41,1.09,12.56,4.65,18.51,7.23c9.85,4.27,23.17,12.1,26.95,22.86
			c3.63,10.32,0.63,25.97-6.68,34.26c-8.06,9.15-26.25,3.84-36.35,1.97c-5.96-1.1-11.1-3.25-16.68-5.51
			c-1.03-0.41-4.16-2.57-4.05-0.75c0.18,2.8,7.37,2.68,1.77,4.57c-5.85,1.98-13.19,2.17-19.31,2.96
			c-7.41,0.95-14.32,0.92-21.74,0.34c-6.46-0.5-13.49-3.71-19.05-7.01c-0.52-0.31-4.53-3.84-4.88-1.31
			c-0.19,1.38,6.96,4.43,7.78,4.92c1.07,0.63,2.15,1.24,3.25,1.81c1.51,0.79,5.8,1.82,6.78,3.06c1.86,2.33-0.8,4.44-2.5,6.64
			c-1.31,1.69-11.33,15.32-14.18,13.41c2.09,4.43-20.39,6.68-22.43,6.91c1.35,1.05,5.5,1.17,7.23,1.26
			c1.95,0.1,9.14-2.19,10.33-1.42c2.18,1.42-6.24,11.95-7.65,14.23c-7.66,12.42-15.67,23.11-26.8,32.65
			c-11.7,10.02-25.76,15.23-40.58,18.99c-13.99,3.55-29.81,3.81-43.95,0.83c-3.33-0.7-7.29-1.61-10.22-3.4
			c-0.99-0.6-5.28-4.89-5.66-1.96c-0.37,2.86,14.2,6.98,16.16,7.34c7.37,1.38,14.57,1.32,22.02,1.54c7.38,0.22,14.02,0.23,21.31-1.5
			c14.05-3.32,29.13-8.04,40.29-17.54c10.88-9.27,20.68-19.33,27.59-32.01c2.69-4.93,5.33-10.02,8.55-14.64
			c1.86-2.67,3.87-5.34,5.84-7.93c2.28-2.99,5.48-4.72,8.03-7.41c1.93-2.03,3.43-4.44,5.07-6.7c1.22-1.68,3.72-7.28,5.39-8.07
			c2.36-1.12,6.96,0.47,9.54,0.6c4.44,0.21,8.83-0.09,13.23-0.66c7.07-0.93,14.04-2.36,21.06-3.57c7.56-1.3,14.07,1.41,21.52,2.79
			c11.32,2.11,28.72,4.88,36.57-5.97c7.25-10.02,10.01-27.45,4.01-38.5c-0.84-1.54-1.77-2.97-2.9-4.31
			c-0.81-0.96-3.45-2.69-3.77-3.88c-0.94-3.49,2.78-1.24,4.6-0.3c3.06,1.58,6.03,3.39,9.03,5.09c4.71,2.66,7.92,3.49,8.82,9.14
			c4.77,30.01,3.56,61.29-1.35,91.14c-1.21,7.38-2.2,14.83-1.9,22.33c0.16,4.15,0.59,8.33,1.13,12.45c0.54,4.13,1.76,5.45-2.54,6.39
			c-15.08,3.31-29.48,6.49-43.78,12.6c-25.94,11.07-49.49,27.92-69.03,48.22c-41.13,42.74-64.73,101.05-61.73,160.54
			c0.75,14.86,3.78,29.91,8.57,43.99c2.03,5.97,5.83,11.94,6.9,18.11c1.36,7.84,2.42,15.6,4.38,23.34
			c7.21,28.47,19.89,55.46,37.05,79.28c34.19,47.45,86.29,81.29,144.09,91.32c58.18,10.09,119.13-5.16,165.14-42.32
			c42.75-34.53,70.16-86.37,76.49-140.77C899.9,656.55,900.18,641.94,899.33,627.26z M656.48,237.99
			c0.24-14.29,0.24-28.46,0.11-42.74c-0.03-3.29-2.08-13.22,3.19-8.87c2.15,1.77,12.19,10.12,11.45,13.23
			c1.45,0.09,3.63,4.28,4.76,5.31c2.03,1.85,4.64,2.88,6.66,4.7c4.61,4.16,1.04,11.97-1.38,16.58c-0.64,1.22-1.3,2.53-2.19,3.61
			c-0.81,0.98-3,1.8-3.55,2.53c-1.36,1.8-0.09,3.51,2.34,2.91c5.23-1.28,7.15-10.88,8.99-14.97c0.88,8.88-8.76,20.43-16.91,22.95
			c-2.84,0.88-8.67,1.96-11.61,0.78C655.69,242.95,656.44,240.65,656.48,237.99z M651.14,176.73c-4.02-1.09-8.18-3.83-12-5.6
			c-4.05-1.87-7.98-4.06-11.9-6.17c-4.03-2.18-7.71-4.63-11.45-7.25c-3.11-2.18-9.11-4.41-11.14-7.59
			c11.35,1.6,22.83,5.92,33.95,8.87c3.26,0.86,10.71,1.17,12.44,4.16C651.79,164.45,651.44,176.81,651.14,176.73z M654.87,97.23
			c14.05-2.61,28.11,4.99,41.53,7.66c6.49,1.29,13.64,1.45,19.66,4.42c1.76,0.87,14.73,9.57,13.09,11.24
			c1.46-0.73,4.57,5.61,4.93,6.54c1.34,3.55,1.51,7.82,1.27,11.56c-0.45,7.19-4.87,12.8-10.21,17.34c-2.55,2.17-5.41,4.13-8.49,5.49
			c-4.23,1.87-7.12,0.58-11.55,0.54c-4.03-0.04-7.98,0.86-12.02,0.76c-3.76-0.09-7.5-0.58-11.26-0.66
			c-7.17-0.15-14.2-1.45-21.32-2.23c-4.63-0.51-5.72-0.37-6.04-5.2c-0.28-4.35-0.33-8.66-0.28-13.01c0.09-7.71,0.3-15.42,0.24-23.13
			C654.4,116.03,653.06,97.56,654.87,97.23z M797.81,446.89c-18.23-12.85-36.39-24.23-57.65-31.48
			c-20.75-7.08-42.23-10.17-64.1-10.58c-5.55-0.1-11.1,0.11-16.63,0.54c-1.9,0.15-5.12,1.13-6.62-0.26c-0.37-0.34-1.5-3.36-1.21-4
			c0.96-2.12,4.9-1.49,6.97-1.61c5.51-0.31,11.03-0.62,16.56-0.5c21.21,0.43,42.46,4.1,62.45,11.22
			C760.07,418.22,780.51,430.46,797.81,446.89z M565.07,463.61c-19.64,12.76-37.39,28.39-52.15,46.6
			c-15.68,19.34-26.58,40.75-35.24,63.97c-1.32-4.78,2.78-13.49,4.25-18.04c1.97-6.08,4.26-12.05,6.85-17.89
			c4.77-10.73,10.52-21.03,17.13-30.74c13.19-19.39,29.89-36.32,48.86-50.09c19.8-14.37,42.12-25.23,65.63-32.01
			c23.41-6.75,48.18-9.59,72.48-7.85c14.53,1.04,28.91,3.27,42.97,7.16c6.86,1.9,13.62,4.13,20.24,6.73
			c5.92,2.32,14.12,4.74,18.85,9.15c-17.19-6.2-34.29-11.28-52.45-13.71c-18.99-2.54-37.87-2.15-56.86,0
			C629.97,430.94,595.09,444.1,565.07,463.61z M768.14,432.89c-33.04-15.19-68.32-20.65-104.45-18.65c-2.48,0.14-5.84,1.13-7.68-0.7
			c-3.81-3.79,0.82-4.47,3.48-4.75c9.03-0.95,18.37-1.14,27.42-0.42c16.98,1.34,33.56,3.82,49.83,9.02
			c8.9,2.84,17.58,6.36,25.95,10.51c4.09,2.03,8.11,4.21,12.05,6.54c1.31,0.77,9.27,6.98,9.96,6.74c-1.34,0.46-5.81-2.74-7.01-3.37
			C774.49,436.17,771.32,434.53,768.14,432.89z M651.09,396.19c-2.24-0.26-3.49-5.93-1.91-7.24c1.62-1.35,8.27-0.45,10.2-0.45
			c7.78,0.01,15.65,0.57,23.36,1.62c8.63,1.17,17.22,2.87,25.63,5.13c4.32,1.16,8.59,2.51,12.8,4.01c2.88,1.02,9.6,2.28,10.96,4.97
			c-2.14,0.37-4.93-1.03-6.98-1.59c-3.56-0.97-7.15-1.85-10.76-2.62c-6.98-1.5-14.04-2.63-21.14-3.39
			c-6.87-0.74-13.78-1.13-20.68-1.16C665.62,395.43,657.97,396.98,651.09,396.19z M650.55,377.87c13.82-0.54,26.97,0.24,40.56,3.39
			c12.99,3.02,25.69,7.54,37.85,12.99c24.43,10.95,47.42,26.04,66.68,44.67c-25.52-17.71-49.97-34.87-79.9-44.45
			c-14.36-4.59-29.18-7.59-44.25-8.48c-3.79-0.23-7.58-0.33-11.37-0.33c-2.63,0-8.76,1.29-11.22,0.16
			C645.49,384.26,646.41,378.03,650.55,377.87z M636.31,338.59c1.82-10.63,3.65-21.1,4.03-31.91c0.34-9.58,1.31-19.77,0.43-29.31
			c-0.89-9.74-1.76-19.53-2.76-29.3c-0.1-1-1.08-5.04-0.17-5.78c1.15-0.93,3.64,0.73,4.79,1.11c2.39,0.78,4.84,1.35,7.23,2.11
			c3.05,0.96,3.11,1.24,2.93,4.44c-0.59,10.7-0.73,21.59-2.35,32.19c-1.58,10.31-3.62,20.49-4.13,30.93
			c-0.5,10.17,0.1,20.38-0.65,30.54c-0.77,10.33-1.51,20.64-1.66,31.01c-0.03,2.48,1.9,12.89-2.9,11.61
			c-3.13-0.84-4.12-9.72-4.62-12.38C634.34,362.24,634.32,350.23,636.31,338.59z M646.51,396.2c0.24,0.95-2.56,1.07-3.19,0.74
			c-1.19-0.63-2.12-4.43-1.85-5.71c0.26-1.22,0.72-2.77,2.51-1.99C645.55,389.92,646.1,394.6,646.51,396.2z M640.23,397.14
			c-2.24,2.05-9.37,2.12-12.34,2.72c-4.38,0.89-8.73,1.91-13.05,3.07c-8.89,2.38-17.64,5.32-26.16,8.79
			c-16.64,6.76-32.48,15.48-47.06,25.98c-3.3,2.38-6.53,4.84-9.7,7.38c-1.35,1.09-3.06,3.12-4.7,3.82c-1.8,0.76-1.59,1.02-0.82-0.73
			c1.4-3.2,6.57-6.87,9.09-9.23c3.29-3.09,6.68-6.07,10.17-8.92c13.57-11.1,28.63-20.4,44.75-27.33c9.35-4.02,19.04-7.22,28.94-9.53
			c4.77-1.11,9.59-1.98,14.42-2.78c1.79-0.3,3.09-0.77,4.5,0.32C639.25,391.46,640.51,395.97,640.23,397.14z M470.53,520.27
			c19.71-56.81,63.97-105.86,119.81-128.89c6.88-2.84,13.92-5.27,21.08-7.28c3.67-1.03,7.37-1.95,11.1-2.75
			c2.6-0.56,9.26-3.05,11.57-1.42c0.71,0.5,2.08,3.73,2.14,4.59c0.22,2.92,0.82,1.43-1.64,2.64c-2.86,1.42-7.51,1.27-10.65,1.9
			c-7.89,1.57-15.67,3.7-23.26,6.36c-28.29,9.9-53.53,26.85-74.3,48.38c-11.98,12.42-22.04,26.63-32.39,40.39
			c-5.28,7.02-10.14,14.37-14.5,22c-3.98,6.96-6.82,14.71-11.14,21.44C468.96,524.84,469.74,522.55,470.53,520.27z M459.39,575.7
			c-0.69-8.38,2.86-18.13,5.25-26.08c2.72-9.05,6.1-17.92,10.1-26.48c7.56-16.19,17.38-31.3,28.81-45.02
			c22.2-26.65,50.93-47.72,82.8-61.35c10.1-4.32,20.52-7.87,31.14-10.69c5.24-1.39,10.53-2.51,15.85-3.51
			c1.53-0.29,5.69-1.71,7.29-1.04c0.84,0.35,1.65,2.39,2.19,2.3c1.18-0.19,0.23-4.04,3.83-3.27c1.64,0.35,3.64,3.14,2.75,5.04
			c-0.7,1.5-7.6,1.83-9.42,2.27c-5.05,1.22-10.27,1.82-15.33,3.05c-20.18,4.88-39.61,12.6-57.71,22.76
			c-33.27,18.67-61.79,45.86-81.61,78.5c-5.74,9.46-10.73,19.37-14.92,29.62c-2.25,5.51-4.24,11.11-5.97,16.8
			C462.82,563.92,462.24,570.9,459.39,575.7z M471.03,589.13c-1.43,11.72-1.39,23.22-1.24,34.99c0.08,6.22,0.23,12.4,0.86,18.59
			c0.09,0.87,1.13,5.36-0.01,5.68c-1.03,0.28-3.01-6.93-3.18-7.5c-3.32-10.89-4.06-22.7-4.61-34c-0.56-11.32,0.5-22.68,1.58-33.92
			c1.07-11.1,6.16-22.79,10.54-32.94c4.39-10.18,9.65-19.98,15.59-29.33c10.82-17.04,23.98-32.56,39.07-45.97
			c16.08-14.29,34.25-26.35,53.7-35.55c10.49-4.97,21.38-9.09,32.52-12.36c4.86-1.42,9.76-2.68,14.7-3.78
			c3.35-0.74,6.72-1.41,10.11-1.97c2.46-0.41,6.46-1.72,8.91-1.21c1.76,0.37,1.93,0.59,2.74,2.42c1.36,3.06,0.66,2.8-2.56,3.34
			c-5.97,1-11.94,1.97-17.86,3.28c-11.1,2.46-22,5.81-32.56,10.01c-20.39,8.1-39.66,19.25-56.67,33.13
			C504.07,493.55,477.1,539.44,471.03,589.13z M893.97,672.54c-6.38,47.92-28.59,93.71-64.08,126.83
			c-36.51,34.06-84.78,53.04-134.61,54.04c-14.88,0.3-30.02-1.28-44.58-4.3c-7.93-1.65-15.78-3.71-23.48-6.24
			c-6.69-2.2-14.19-4.31-20.11-8.24c30.79,7.41,62.68,13.49,94.53,10.49c29.8-2.8,58.48-10.13,84.57-25.15
			c43.69-25.16,73.84-67.6,91.3-114.16c5.47-14.58,9.72-29.63,12.98-44.86c1.61-7.52,3.53-15.43,4.22-23.09
			c0.11-1.23,0.71-4.53-1.11-4.55c-1.69-0.02-2.6,9.24-2.84,10.52c-5.55,30.04-14.28,60.01-28.25,87.28
			c-23.69,46.24-61.49,83.87-111.39,100.62c-30.18,10.13-62.61,12.27-94.13,8.82c-7.34-0.8-14.65-1.91-21.9-3.3
			c-8.63-1.65-17.15-4.41-25.81-5.75c-3.13-0.48-5.83-0.05-8.76-0.07c-2.91-0.02-6.08-2.38-8.65-3.76c-7.24-3.89-14.26-8.2-21-12.9
			c-45.18-31.5-78.1-78.88-92-132.18c-1.69-6.49-4.18-13.8-4.49-20.49c-0.13-2.91,0.3-6.07,0.46-9.01c0.18-3.4-0.04-6.35-0.44-9.81
			c-1.88-16.35-1.06-32.88,2.18-49.02c5.96-29.64,19.76-57.3,38.69-80.77c31.7-39.32,77.36-66.88,126.37-78.5
			c59.46-14.1,128.52-4.83,175.94,36.01c44.55,38.37,72.69,95.54,77.45,153.98C896.32,640.77,896.06,656.82,893.97,672.54z"/>
	</g>
	<path d="M580.62,164.57c0.04-0.76,2.06-13.53,0.5-13.19c-1.3,0.29-1.71,9.13-1.79,10.35c-0.23,3.4-1.51,11.34,0.95,14.1
		c1.79,2.01,1.16-0.86,1.06-1.91C581.05,170.74,580.44,167.8,580.62,164.57z"/>
	<path d="M553.22,184.93c-8.03-1.14-15.23-0.68-23.27,0.18c-3.6,0.39-7.2,1.09-10.78,1.35c-0.55,0.04-6.23,0.55-3.02,1.72
		c1.08,0.39,2.08-0.81,3.03-0.98c1.48-0.25,3.04-0.03,4.54-0.07c4.13-0.12,8.32-0.59,12.43-1.02c3.78-0.39,7.44-0.58,11.23-0.19
		c0.96,0.1,4.05,1.08,5.03,0.48C552.23,186.52,554.47,185.1,553.22,184.93z"/>
	<path d="M517.12,61.4c-0.72-1.18-18.36,2.61-20.46,2.92c-2.29,0.34-6.84,1.81-1.91,2.78c2.29,0.45,7.06-0.5,8.89-1.82
		C505.53,64.96,517.42,61.89,517.12,61.4z"/>
	<path d="M548.13,49.75c-1.74-4.62-4.05-9.19-5.1-14.04c-0.35-1.63-0.92-8.66-1.58-3.42c-0.48,3.82,1.19,8.91,2.52,12.51
		c0.3,0.8,2.07,6.3,2.88,6.4C547.71,51.3,548.59,50.96,548.13,49.75z"/>
	<path d="M718.1,148.15c-6.64-0.12-15.3-2.85-18.85-8.91c-2.63-4.48-4.91-17.78,0.75-21.12c1.02,7.85-2.36,17.51,5.68,22.88
		c3.41,2.28,7.04,2.95,10.93,3.8C719.78,145.49,723.7,148.15,718.1,148.15z"/>
	<path d="M728.81,120.71c-0.78,1.54,0.79,4.31,1.15,6c0.56,2.65,0.81,5.34,0.85,8.05c0.02,1.6-1.32,14.1-4.47,10.65
		c-0.75-0.82,1.12-5.41,1.26-6.19c0.49-2.83,0.5-5.72,0.21-8.57C727.41,126.72,725.43,122.68,728.81,120.71z"/>
	<path d="M705.79,113.71c4.84,0.98,9.68,2,14.48,3.17c1.97,0.48,6.77,1.77,2.69,2.61c-1.91,0.39-5.12-0.82-7.05-1.15
		c-2.68-0.46-5.36-0.96-8.05-1.36c-0.85-0.13-5.38-0.11-5.51-1.23C702.13,113.89,704.6,113.9,705.79,113.71z"/>
	<path d="M657.23,123.27c0.91,1.67,4.88,15.9,4.08,16.29C657.91,141.23,656.74,125.01,657.23,123.27z"/>
	<path d="M670.53,200.09c-1.9,4.17-4.8,7.92-5.93,12.44c-0.68,2.74-0.22,4.75-0.06,7.44c0.09,1.44,0.99,3.01-0.86,1.58
		C657.6,216.83,664.63,201.05,670.53,200.09z"/>
	<path d="M666.52,225.85c1.37,0,5.46,3.63,3.62,4.57C669.2,230.89,665.25,226.45,666.52,225.85z"/>
	<path d="M708.84,587.7c3.03-2.99,5.34-6.88,7.46-10.54c0.71-1.23,5.98-11.98,7.11-11.08c1.18,0.95-4.35,9.67-5.17,11.07
		c-2.23,3.83-5.35,9.19-9.67,10.95L708.84,587.7z"/>
	<path d="M523.08,648.85c1.32-4.23,1.08-9.04,1.57-13.44c0.5-4.45,1.04-8.9,1.86-13.3c1.64-8.77,4.46-17.38,8.03-25.54
		c3.41-7.79,7.74-15.2,11.61-22.77c2.03-3.97,4-7.99,6.11-11.92c0.39-0.72,4.89-8.86,5.59-6.58c0.39,1.27-4.89,8.63-5.52,9.91
		c-1.81,3.71-3.53,7.46-5.42,11.13c-3.99,7.74-8.42,15.24-11.78,23.29c-3.41,8.16-5.96,16.66-7.5,25.36
		c-0.83,4.66-1.55,9.34-2.27,14.02c-0.43,2.81-0.39,8.91-2.26,11C523.07,649.63,523.07,649.25,523.08,648.85z"/>
	<path d="M640.84,793.1c2.11-8.55,6.11-16.4,9.13-24.64c2.96-8.06,5.56-15.97,9.43-23.67c3.84-7.64,7.69-15.37,12.35-22.55
		c2.23-3.43,4.78-6.45,7.49-9.5c1.51-1.7,5.02-7.03,7.1-6.84c0.24,0.02-5.27,6.82-5.84,7.47c-2.73,3.12-5.34,6.22-7.59,9.72
		c-4.61,7.21-8.52,14.93-12.32,22.59C653.02,761,647.91,777.5,640.84,793.1z"/>
	<path d="M639.44,714.14c-0.63,5.71-1.51,11.39-2.01,17.14c-0.61,6.99-0.51,14.01-1.66,20.94c-1.1,6.64-2.71,13.26-4.56,19.73
		c-0.93,3.25-1.95,6.47-3.15,9.63c-0.6,1.57-2.16,7.01-3.72,7.79c-0.87-1.76,1.56-6.08,2.16-7.81c1.22-3.5,2.29-7.04,3.22-10.63
		c1.85-7.16,3.61-14.4,4.66-21.73c0.97-6.74,0.89-13.61,1.66-20.39c0.36-3.13,0.68-6.27,1.12-9.39c0.02-0.16,1.19-7.4,2.11-6.51
		C639.41,713.31,639.46,713.72,639.44,714.14z"/>
	<path d="M552.2,675.42c0.8-3.15,1.05-4.45,0.39-7.43c-0.67-3.05-0.83-6.25-1.15-9.36c-0.71-7.03-3.01-14.43-2.73-21.47
		c0.12-3.05,0.73-6.14,1.16-9.16c0.36-2.48,0.12-7.43,1.92-9.33c1.97-2.08,1.81-1.07,1.81,0.16c0,0.54-0.98,1.97-1.18,2.72
		c-0.46,1.72-0.49,3.91-0.73,5.68c-0.85,6.24-1.4,11.5-0.38,17.74c0.58,3.55,1.04,7.12,1.39,10.7c0.13,1.29-0.31,9,0.54,9.6
		c1.82,1.31,1.84-1.36,2.22-3.32c0.15-0.78,1.04-6.26,1.94-3.3c0.7,2.29-1.02,6.85-1.58,9.19c-0.65,2.73-1.12,6.91-3.51,8.62
		C552.27,676.15,552.24,675.85,552.2,675.42z"/>
	<path d="M677.56,764.24c1.03-1.04,1.31-4.24,1.72-5.69c0.79-2.79,1.62-5.55,2.49-8.32c2.02-6.41,4-12.83,6.07-19.23
		c0.91-2.81,13.65-29.13,16.3-26.71c-0.37-0.33-12.51,20.7-13.72,24.02c-2.19,6-3.96,12.17-5.95,18.24
		c-0.97,2.96-1.93,5.93-3.06,8.84C680.61,757.49,677.32,762.2,677.56,764.24z"/>
	<path d="M681.04,576.44c7.8-5.57,17.25-10.5,24.05-17.26c3.26-3.24,5.3-7.1,7.45-11.1c0.76-1.42,5.46-11.51,6.98-11.08
		c1.68,0.48-10.75,21.18-13.06,23.41c-7.07,6.82-16.82,11.63-25.38,16.31C681.06,576.63,681.05,576.54,681.04,576.44z"/>
	<path d="M746.64,623.51c4.82-7.86,9.99-15.51,14.43-23.6c2.48-4.52,4.71-9.16,7.04-13.76c0.82-1.62,3.38-8.44,5.47-6.76
		c1.26,1.01-10.96,22.14-12.04,23.97C760.09,605.81,748.15,624.57,746.64,623.51z"/>
	<path d="M643.42,597.84c-1.44-1.49,1.83-9.15,2.45-11.26c1.29-4.33,2.72-8.62,4.3-12.86c0.81-2.16,9.2-22.63,10.57-21.71
		c1.47,0.98-7.9,19.93-8.82,22.33c-1.63,4.26-3.12,8.57-4.52,12.9C646.74,589.32,645.33,597.13,643.42,597.84z"/>
	<path d="M708.05,732.16c0.38,3.34-1.83,8.5-2.76,11.72c-1.07,3.72-2.36,7.36-4.08,10.83c-1.24,2.52-8.7,18.56-11.29,18.39
		c-0.09-0.01,4.5-10.06,5.06-11.12c1.98-3.71,4.12-7.29,5.76-11.18C701.59,748.76,706.38,731.36,708.05,732.16z"/>
	<path d="M763.51,707.62c2.1-7.75,4.65-15.4,8.04-22.7c1.65-3.56,3.4-7.61,5.92-10.67c0.76-0.92,2.81-3.66,2.96-1.31
		c0.02,0.29-2.75,3.7-2.99,4.09c-0.89,1.43-1.65,2.94-2.41,4.44c-1.78,3.48-3.41,7.03-4.86,10.66c-1.49,3.72-2.82,7.51-4.11,11.31
		c-0.59,1.73-2.28,9.91-3.96,10.67C761.68,712.51,763.11,709.24,763.51,707.62z"/>
	<path d="M631.88,556.97c-2.5,5.1-3.07,11.21-5.3,16.52c-0.6,1.42-8.11,16.05-8.55,15.64c-1.8-1.65,6.63-15.98,7.54-18.42
		c1.28-3.42,2.19-6.92,3.04-10.47c0.22-0.9,0.47-3.87,1.17-4.19C630.34,555.79,632.17,555.73,631.88,556.97z"/>
	<path d="M749.2,689.93c-1.83-1.63,3.6-15.24,4.27-17.61c0.78-2.76,4.16-19.95,6.72-19.95c0.41,0-4.29,17.05-4.76,18.64
		c-1.06,3.59-2.12,7.18-3.21,10.77C751.75,683.4,750.74,689.23,749.2,689.93z"/>
	<path d="M618.24,726.43c1.77-6.17,3.61-12.33,5.34-18.51c0.87-3.11,1.45-6.31,2.34-9.4c0.34-1.18,1.38-5.17,1.98-2.35
		c0.54,2.56-1.58,7.28-2.23,9.79c-0.75,2.91-1.58,5.81-2.45,8.69c-0.97,3.2-1.99,6.39-3.05,9.56c-0.5,1.51-1.53,6.36-3.04,7.28
		c-0.5-0.92,0.8-4.03,1.06-5.06C618.21,726.42,618.23,726.42,618.24,726.43z"/>
	<path d="M602.83,762.11c-0.68-4.21,3.19-39.13,7.21-38.21c-0.99-0.23-6.07,34.48-7.48,37.51
		C602.54,761.39,602.54,761.37,602.83,762.11z"/>
	<path d="M733.53,779.27c-0.16,5.21-0.68,10.34-1.78,15.45c-0.37,1.7-3.16,14.34-5.24,14.05c-0.88-0.12,3.18-12.72,3.56-14.3
		c1.06-4.47,0.29-11.62,2.79-15.51C732.79,779.07,733.46,779.23,733.53,779.27z"/>
	<path d="M791.97,767.84c3.72-3.76,7.14-7.94,9.32-12.8c0.56-1.26,4.49-13.95,5.93-12.31c1.21,1.38-4.13,12.83-5.07,14.63
		C799.84,761.78,796.49,765.61,791.97,767.84z"/>
	<path d="M744.34,584.14c-0.23-4.13,0.23-8.31,1.31-12.3c0.24-0.91,2.35-7.42,3.11-4.22c0.26,1.1-1.45,4.17-1.75,5.54
		c-0.56,2.52-0.79,5.09-0.91,7.66c-0.1,2.11-0.09,4.22-0.1,6.33c0,1.5,0.72,5.5-0.04,6.78
		C745.76,594.26,744.28,585.14,744.34,584.14z"/>
	<path d="M559.41,674.65c1.06-4.13,2.2-8.25,3.12-12.41c0.42-1.88,0.63-12.48,2.06-13.37c2.06-1.29,0.13,10.58-0.16,11.99
		C563.43,665.64,562.06,670.5,559.41,674.65z"/>
	<path d="M794.05,786.29c-0.07-1.91,9.16-19.41,9.69-19.24C807.4,768.22,795.34,784.79,794.05,786.29z"/>
	<path d="M612.13,776.05c1.37-3.96,2.74-7.92,4-11.91c0.79-2.5,1.62-9.99,4.03-11.2c1.08,2.65-1.91,9.39-2.79,12.04
		C616.07,768.93,614.24,772.48,612.13,776.05z"/>
	<path d="M680.5,802.98c1.02-3.32,2.08-6.62,3.08-9.94c0.3-1.01,1.42-8.02,2.08-7.87C688.99,785.88,682.24,801.63,680.5,802.98z"/>
	<path d="M657.93,813.9c-0.26-1.53,0.3-16.89,2.14-15.92C662.32,799.16,658.42,811.58,657.93,813.9z"/>
	<path d="M803.03,788.45c-0.44-1.6,0.83-16.42,3.73-15.13C807.23,773.53,804.04,787.2,803.03,788.45z"/>
</g>
</svg>
