<?xml version="1.0" encoding="utf-8"?>
<!-- Generator: Adobe Illustrator 23.0.6, SVG Export Plug-In . SVG Version: 6.00 Build 0)  -->
<svg version="1.1" id="Layer_1" xmlns="http://www.w3.org/2000/svg" xmlns:xlink="http://www.w3.org/1999/xlink" x="0px" y="0px"
	 viewBox="0 0 999.02 844.09" style="enable-background:new 0 0 999.02 844.09;" xml:space="preserve">
<style type="text/css">
	.st0{fill:none;}
	.st1{fill:#171717;}
</style>
<rect x="-0.98" class="st0" width="1000" height="844.09"/>
<g>
	<g>
		<path class="st1" d="M775.02,77.6c0.01-0.02,0-0.04-0.02-0.04L775.02,77.6z"/>
		<path class="st1" d="M773.52,76.08c0-0.02-0.02-0.03-0.04-0.02L773.52,76.08z"/>
		<path class="st1" d="M983.22,608.23c-0.31-11.93-0.27-23.93-2.04-35.74c-1.82-12.19-4.64-24.24-8.19-36.04
			c-3.44-11.44-8.03-22.43-13.35-33.12c-2.61-5.25-5.69-10.15-8.5-15.28c-2.83-5.18-4.6-10.96-6.93-16.39
			c-18.38-42.77-49.73-79.55-89.25-104.2c-20.02-12.49-42-21.73-64.96-27.21c-11.79-2.82-23.88-4.62-35.98-5.4
			c-2.56-0.17-5.12-0.12-7.68-0.13c-2.72-0.01-6.86,0.78-9.51,0.04c-2.44-0.68-1.95-0.9-2.43-3.61c-0.55-3.12-1.6-6.18-1.98-9.32
			c-0.65-5.41,1.04-11.37,1.93-16.7c0.96-5.75,1.97-11.5,2.53-17.33c1.18-12.26,0.12-24.42-1.97-36.52
			c-2.16-12.5-3.61-25.07-6.11-37.51c-0.35-1.76-2.36-6.86-1.49-8.64c0.73-1.49,4.13-2.37,5.45-3.29c4.44-3.09,6.75-7.25,8.69-12.13
			c5.04-12.66,11.14-25.64,12.71-39.32c0.65-5.67,0.46-11.56-2.55-16.6c-3.1-5.18-8.81-8.56-13.77-11.74
			c-11.02-7.06-22.98-12.42-34.83-17.9c-12.05-5.57-22.54-13.23-32.06-22.46c8.47,15.28,25.85,21.81,40.73,28.98
			c4.12,1.99,8.33,3.8,12.41,5.87c2.09,1.06,4.13,2.21,6.14,3.41c0.81,0.48,4.43,2.08,4.74,2.91c0.59,1.56-2.4,4.78-3.14,7.11
			c-0.5,1.57-3.27,8.8-1.39,9.45c1.78-5.35,3.01-10.96,6.09-15.78c5.88,4.25,12.78,8.01,15.06,15.38
			c2.26,7.32-0.19,16.06-2.08,23.21c-2.13,8.01-5.11,15.77-8.33,23.4c-2.7,6.42-5.66,12.28-12.14,15.56
			c-3.09,1.56-11.67,4.83-14.74,2.17c-1.39-1.21-2.63-6.75-2.59-8.26c0.1-3.62,0.62-0.9,2.43-0.26c3.3,1.16-0.71-3.02-1.55-4.26
			c-2.66-3.96-3.12-7.9-3.61-12.57c-0.21-2.03-2.07-9.07-0.26-10.38c2.09-1.52,8.12,1.58,11.08,0.44c1.31-0.51,2.8-0.8,1.03-1.63
			c-0.98-0.46-4.78,0.29-6.19,0.11c-3.98-0.49-8.05-1.07-11.84-2.42c-7.95-2.83-12.56-9.11-18.09-15.09
			c2.86,5.67,6.44,11.33,12.03,14.65c2.67,1.59,5.96,1.56,8.52,2.91c2.71,1.44,1.08,4.55,1.22,7.55c0.37,8.41,1.6,16.85,3.71,25
			c1,3.85,1.74,4.91-2.48,4.15c-4.07-0.73-8.1-1.99-11.99-3.38c-6.83-2.44-14.31-5.11-20.29-9.27c-2.7-1.87-5.57-4.23-5.89-7.73
			c-0.01-0.15,0.51-2.82,0.23-3.05c-1.46-1.23-1.64,0.67-1.86,1.59c-1.59,6.73,7.3,11.55,11.99,13.98
			c7.34,3.79,15.36,6.21,23.11,8.98c-5.32,7.72-11.62,14.33-18.04,21.11c-5.91,6.24-12.07,12.17-19.5,16.6
			c-7.65,4.56-16.26,7.65-24.75,10.26c-4.62,1.42-9.29,2.67-13.98,3.84c-4.42,1.1-9.41,2.96-13.98,1.75
			c2.79-3.18,5.5-6.29,7.56-10.01c0.57-1.03,2.53-3.72,0.28-3.56c-0.89,0.06-2.87,3.97-3.46,4.74
			c-5.51,7.19-12.19,13.42-19.74,18.42c-7.67,5.08-16.65,9.89-26,10.43c-2.64,0.15-4.5-0.11-6.9,0.97
			c-2.01,0.91-4.14,2.16-5.97,3.38c-1.15,0.77-9,6.76-10.1,5.42c-0.73-0.88,5.91-8.82,6.63-10.07c0.35-0.6,2.06-3,0.56-3.06
			c-1.54-0.06-3.56,4.3-4.41,5.47c-5.65,7.7-12.52,14.47-19.19,21.28c-14.19,14.49-28.01,29.34-41.73,44.27
			c-13.8,15.03-28.03,29.85-40.9,45.68c-12.12,14.91-22.87,30.86-33.18,47.05c-43.26,67.93-76.55,144.78-136.13,200.74
			c-13.82,12.98-28.43,25.89-44.42,36.15c-16.41,10.54-34.64,17.03-52.75,23.97c-36.68,14.05-73.36,32.35-113.82,28.64
			c-9.22-0.84-18.2-1.72-24.43-9.14c-5.86-6.98-9.73-16.07-13.56-24.27c-7.96-17.05-15.62-35.96-18.51-54.66
			c-3.05-19.74,4.78-37.38,12.06-55.19c6.92-16.91,11.7-34.29,20.57-50.39c18.06-32.79,45.78-57.03,75.54-79.02
			c15.29-11.3,31.51-21.26,48.06-30.58c16.72-9.42,34.19-17.68,50.25-28.23c1.2-0.79,9.1-7.36,10.05-6.26
			c0.85,0.98-4.79,6.33-5.09,7.79c2.37-0.9,5.12-5.22,6.91-7.07c2.2-2.27,4.41-4.53,6.63-6.79c5.01-5.1,9.87-10.42,15.18-15.21
			c9.86-8.89,20.28-17.41,30.44-25.95c21.32-17.9,43.62-34.98,65.99-51.55c22.46-16.63,45.92-31.66,69.19-47.11
			c22.62-15.01,44.83-30.86,66.61-47.08c42.86-31.92,81.29-72.15,109-117.92c12.86-21.25,20.79-47.2,44.41-59.22
			c11.98-6.1,22.44-3.44,34.18,1.54c12.63,5.36,24.42,12.44,36.64,18.65c13.36,6.79,26.5,13.99,39.87,20.75
			c6.86,3.47,13.98,6.86,20.42,11.09c2,1.31,3.88,3.04,5.39,4.57c1.62,1.64,2.55,3.37,2.55,6.04c0,2.73-0.11,3.44-2.42,2.41
			c-2.88-1.28-5.7-4.01-8.38-5.76c-6.84-4.47-13.8-8.76-20.84-12.9c-6.5-3.83-13.06-7.55-19.66-11.2
			c-6.83-3.78-13.75-8.29-21.42-10.16c-0.15,1.68,5.61,3.66,6.97,4.41c3.82,2.09,7.58,4.28,11.32,6.5
			c6.7,3.97,13.41,7.92,20.19,11.76c6.88,3.91,13.63,8.05,20.25,12.4c5.42,3.56,14.47,7.66,17.11,13.96c1.26,3.01,1.1,6.51,0.4,9.62
			c-0.36,1.63-1.9,8.99-3.47,9.61c-1.52,0.6-6.08-5.17-7.55-6.5c-2.83-2.57-5.82-4.97-8.85-7.29c-12.56-9.6-25.69-18.54-39.09-26.91
			c-7.31-4.56-14.87-8.68-22.5-12.67c-7.87-4.11-15.77-8.81-24.18-11.73c13.14,8.08,26.75,15.29,40.01,23.15
			c13.28,7.87,26.02,16.81,38.52,25.87c5.7,4.13,11.46,8.28,16.54,13.17c4.25,4.09,10.66,9.98,8.97,16.51
			c-1.64,6.31-6.62,11.89-10.28,17.1c-4.6,6.54-9.19,13.07-13.68,19.68c-0.68,1-5.56,6.69-5.15,7.74c1.04,2.64,3.72-2.4,4.4-3.31
			c3.86-5.2,7.51-10.55,11.23-15.84c4.17-5.93,8.52-11.81,12.27-18.01c1.51-2.49,3.64-5.8,3.84-8.79c0.12-1.71-0.36-2.96-0.99-4.55
			c-0.61-1.54-2.59-3.84-2.62-5.42c-0.03-1.96,2.42-4.89,3.06-6.84c0.93-2.83,1.92-6.03,2.14-9.01c0.23-3-0.46-5.92-2.14-8.43
			c-0.76-1.13-2.52-2.28-2.86-3.62c-0.41-1.62,0.7-3.69,0.67-5.39c-0.12-5.89-4.93-9.43-9.4-12.4c-6.81-4.53-14.26-7.9-21.53-11.62
			c-14.21-7.27-28.13-15.09-42.36-22.31c-12.46-6.32-24.63-13.9-37.8-18.66c-6.92-2.5-13.83-4.4-21.19-2.83
			c-6.59,1.41-12.76,4.39-18.14,8.42c-11.62,8.71-18.69,20.47-25.06,33.2c-13.5,26.97-30.92,52.29-51.29,74.49
			c-20.5,22.34-41.6,43.34-65.85,61.64c-25.2,19.01-51.01,37.77-77.61,54.78c-26.42,16.9-52.24,34.48-77.18,53.55
			c-24.72,18.9-48.57,38.93-72.24,59.11c-11.15,9.51-20.94,20.08-32.91,28.64c-12.44,8.91-25.63,16.15-39.13,23.27
			c-25.78,13.6-50.79,28.74-74.17,46.18c-22.28,16.62-43.39,34.99-59.48,57.85c-17.42,24.74-25.61,53.15-36.59,80.98
			c-2.49,6.32-4.9,12.72-6.61,19.3c-2.12,8.16-1.92,15.75-0.6,24.02c2.42,15.18,7.68,29.31,13.38,43.51
			c5.26,13.09,11.08,27.14,20.33,37.99c3.93,4.62,8.97,6.44,14.76,7.67c7.56,1.6,15.31,2.93,23.07,2.52
			c13.16-0.69,27.75-2.18,40.46-6.01c14.55-4.38,28.06-11.18,42.41-16c12.95-4.35,25.96-9.56,38.61-14.76
			c13.98-5.75,27.9-11.91,40.07-20.97c23.86-17.76,46.26-37.88,65.44-60.66c39.64-47.1,66.81-102.89,98.69-155.13
			c15.82-25.92,31.88-51.39,51.88-74.35c21.04-24.16,43.02-47.4,64.99-70.71c5.06-5.36,10.25-10.58,15.36-15.89
			c1.95-2.03,3.75-5.14,5.96-6.76c2.71-1.99,6.7-1.34,9.84-3.19c2.76-1.62,5.27-3.69,8.01-5.37c3.3-2.03,5.46-1.09,9.17-1.41
			c7.09-0.6,14.36-3.71,20.52-7.13c5.9-3.27,10.57-7.67,15.91-11.65c2.49-1.86,3.42-1.63,6.43-1.41c3.82,0.27,7.85-0.85,11.55-1.67
			c13.42-2.98,27.77-7.34,39.62-14.46c6.09-3.66,11.44-8.39,16.47-13.39c5.26-5.23,10.95-10.58,15.46-16.48
			c2.92-3.82,4.41-9.98,10.39-8.82c3.73,0.73,3.75,2.98,4.42,6.3c0.88,4.39,1.8,8.77,2.64,13.17c2.89,15.26,2.72,30.72,4.64,46.1
			c0.96,7.68,2.04,15.34,3.39,22.97c1.43,8.09,3.86,16.08,4.99,24.21c0.51,3.67,2.49,14.56-1.14,16.92
			c-2.23,1.45-8.09,0.85-10.77,1.19c-4.49,0.57-8.97,1.29-13.42,2.15c-13.91,2.7-27.5,6.78-40.53,12.34
			c-26.86,11.47-50.72,28.26-70.54,49.66c-12.18,13.15-22.1,28.57-31.2,43.99c-7.65,12.98-12.79,27.24-16.93,41.66
			c-4.08,14.21-4.81,29.11-9.27,43.14c-4.7,14.76-8.99,29.04-11.68,44.34c-2.51,14.26-2.8,28.99-2.29,43.38
			c1.03,29.15,8.08,58.55,20.54,85.09c25.05,53.36,71.75,95.95,127.29,115.7c27.73,9.86,55.47,14,84.78,14.02
			c27.64,0.02,57.06-5.56,82.48-16.63c28.06-12.21,53.69-27.46,75.92-48.72c21.65-20.71,39.39-45.68,51.47-73.11
			c6.1-13.84,10.88-28.31,14.17-43.07c1.67-7.52,2.75-15.08,3.87-22.69c0.47-3.17,0.7-6.35,1.01-9.55
			C982.92,615.82,981.97,609.86,983.22,608.23z M937.54,469.16c-3.78-6.89-10.76-13.3-16.13-18.99
			c-5.58-5.91-11.56-11.44-17.78-16.67c-11.58-9.74-24.08-18.38-37.35-25.66c-27.31-14.99-57.79-24.17-88.76-27.26
			c-61.17-6.1-124.44,13-172.05,51.93c-11.71,9.57-22.42,20.34-32,32.05c-4.84,5.91-9.39,12.05-13.65,18.39
			c-2.11,3.13-4.14,6.31-6.11,9.52c-1.73,2.83-3.24,6.96-5.92,8.99c-0.87-1.22,2.25-6,2.85-7.29c1.65-3.55,3.41-7.05,5.29-10.49
			c3.31-6.07,6.96-11.94,10.94-17.59c7.99-11.34,17.3-21.73,27.59-31.03c22.62-20.44,49.7-36.01,78.48-45.95
			c62.86-21.7,134.54-18.24,193.66,12.93c14.51,7.65,28.14,17.01,40.26,28.08C910.27,433.24,941.69,466.43,937.54,469.16z
			 M919.28,440.2c-38.14-43.49-95.08-66.97-152.24-70.09c-8.23-0.45-16.47-0.47-24.71-0.33c-1.79,0.03-5.67,1.18-6.16-0.84
			c-0.85-3.49,5.34-2.72,7.1-2.77c16.51-0.47,33.07,0.61,49.36,3.38c28.87,4.9,56.86,14.95,81.76,30.44
			c13.91,8.65,26.77,18.95,37.99,30.89c3.58,3.81,6.97,7.77,10.17,11.9c1.57,2.02,6.57,6.61,6.66,9.3
			C926.9,452.63,920.8,441.94,919.28,440.2z M930.3,450.23c0.71,1.17,4.25,5.29,4.04,6.67c-2.21-4.81-7.03-9.53-10.21-13.79
			c-3.4-4.55-7.11-8.86-10.99-13c-10.27-10.95-21.89-20.59-34.46-28.79c-26.19-17.08-55.95-28.15-86.76-33.19
			c-17.04-2.79-33.89-3.37-51.11-3.18c-1.86,0.02-5.65,0.12-3.81-3.03c1.33-2.27,7.33-1.24,9.71-1.27
			c7.65-0.09,15.31,0.12,22.95,0.68c29.62,2.18,58.72,9.71,85.34,22.96C884.52,398.99,914.02,420.86,930.3,450.23z M736.9,358.01
			c-0.14-3.77,35.47-0.45,39.84,0.06c13.69,1.59,27.24,4.34,40.44,8.32c13.29,4,26.2,9.23,38.54,15.59
			c5.99,3.08,11.77,6.48,17.4,10.13c3.24,2.1,6.83,3.91,9.65,6.6c-3.39-0.88-6.53-3.8-9.41-5.68c-5.08-3.32-10.52-6.17-15.93-8.91
			c-12.36-6.26-25.28-11.31-38.59-15.18c-13.16-3.83-26.66-6.52-40.28-8.08c-7.22-0.82-14.48-1.32-21.74-1.52
			C754.05,359.25,737,360.59,736.9,358.01z M893.88,403.69c5.48,4.78,10.35,9.94,15.19,15.35c2.25,2.51,5.01,4.74,7.01,7.46
			c-1.76,0.34-5.47-4.55-6.58-5.72c-3.83-3.99-7.74-7.91-11.86-11.61c-8.57-7.69-17.96-14.55-27.74-20.6
			c-22.43-13.87-47.46-23.4-73.28-28.66c-13.8-2.81-27.9-4.49-41.99-4.94c-3.23-0.1-6.46-0.13-9.69-0.06
			c-1.57,0.04-6.56,1.2-7.67-0.2c-3.69-4.65,10.03-3.26,11.81-3.23c24.72,0.4,49.41,4.13,72.91,11.92
			C848.09,372.06,873.16,385.61,893.88,403.69z M855.72,372.86c6.09,3.16,11.85,6.91,17.32,11.04c2.73,2.06,5.38,4.23,7.96,6.46
			c1.67,1.44,6.52,4.56,6.63,6.91c-3.76-3.84-8.79-6.75-13.26-9.66c-6.19-4.03-12.5-7.92-19-11.41
			c-17.18-9.23-36.11-15.76-55.1-20.07c-10.29-2.33-20.74-3.95-31.23-4.98c-5.41-0.53-10.84-0.89-16.27-1.04
			c-2.56-0.07-5.12-0.09-7.68-0.06c-1.59,0.02-6.39,0.95-7.76,0.1c-0.95-0.59-1.49-2.23-0.81-3.21c0.66-0.96,3.82-0.49,4.66-0.51
			c5.87-0.14,11.75-0.05,17.62,0.27c10.88,0.58,21.72,1.91,32.43,3.93C813.67,354.87,835.45,362.34,855.72,372.86z M850.73,368.42
			c-1.19,1.07-10.59-4.29-12.15-4.96c-7.4-3.16-15.02-5.83-22.72-8.15c-16.45-4.96-33.4-8.01-50.51-9.42
			c-8.7-0.72-17.35-0.84-26.08-0.75c-2.26,0.02-4.71-0.66-1.96-1.92c1.49-0.68,5.03-0.17,6.75-0.22c2.56-0.07,5.11-0.07,7.66,0.01
			c16.85,0.55,33.54,2.67,49.98,6.37C819.16,353.32,835.16,359.69,850.73,368.42z M737.29,338.27c12.76-0.32,25.54,0.54,38.14,2.58
			c11.71,1.9,25.73,3.95,36.31,9.57c-4.07-0.54-8.16-1.94-12.17-2.82c-7.7-1.69-15.48-3.06-23.31-4.04
			c-8.98-1.12-18.02-1.68-27.06-1.87c-1.96-0.04-3.93-0.06-5.89-0.03c-1.54,0.02-5.58,0.96-6.89,0.18
			C734.38,340.62,734.96,338.32,737.29,338.27z M727.18,298.07c-3.42-18.17-5.5-36.38-6.31-54.84c-0.38-8.68-2.12-17.1-3.84-25.59
			c-0.49-2.42-2.97-9.35-1.1-10.49c0.88-0.54,9.1-0.72,9.56-0.24c1.55,1.62,1.75,9.81,2.13,12.03c0.74,4.33,1.38,8.65,1.89,13.01
			c1.06,9.07,2.75,18,4.09,27.03c1.27,8.56,1.62,17.82,0.95,26.44c-0.35,4.41-1.03,8.79-1.73,13.16c-0.61,3.78-0.35,10.4-2.53,13.6
			C729.25,307.47,728.07,302.8,727.18,298.07z M729.2,341.34c0.48-3.49,5.05-3.22,3.86-0.34C732.68,341.91,729,342.77,729.2,341.34z
			 M730.72,343.43c0.74-0.07,2.75-0.45,2.75,0.85c0,1.43-1.36,0.84-2.27,1.02C728.17,345.91,727.39,343.75,730.72,343.43z
			 M729.28,346.84c1.68,0.05,3.9-0.74,4.74,1.05c0.99,2.09-0.4,2.04-1.71,2.39c-1.01,0.27-4.23,0.56-4.79-0.15
			C726.5,348.84,727.92,346.8,729.28,346.84z M727.7,352.12c1.77-0.41,8.11-1.65,6.94,2.01c-0.68,2.14-6.32,1.38-8.24,1.49
			C726.98,354.82,726.56,352.38,727.7,352.12z M659.49,356.61c3.34-3.55,10.93-5.1,15.38-6.7c5.99-2.15,12.07-4.03,18.24-5.61
			c6.15-1.57,12.39-2.88,18.68-3.79c2.56-0.37,14.31-2.96,15.23-0.98c1.79,3.83-9.9,3.76-11.77,3.97
			c-6.45,0.74-12.87,1.7-19.24,2.95c-6.35,1.24-12.65,2.74-18.88,4.49c-2.97,0.84-5.93,1.73-8.87,2.68
			c-3.06,0.99-6.67,2.96-9.86,3.06C658.75,356.66,659.12,356.63,659.49,356.61z M649.8,361.83c13.65-5.56,27.76-9.97,42.17-13.09
			c7.41-1.6,14.88-2.82,22.41-3.75c2.49-0.31,8.08-2.09,10.25-1.24c3.15,1.24-1.06,2.12-2.53,2.27
			c-14.91,1.53-29.57,3.99-44.05,7.92c-14.73,4-28.61,9.76-42.6,15.78C639.69,366.15,644.71,363.9,649.8,361.83z M628.14,375.25
			c27.57-14.6,58.04-24.11,89.09-27.33c1.13-0.12,6.71-1.51,7.59-0.68c2.13,2.02-1.44,3.59-2.68,3.83
			c-8.11,1.58-16.53,1.84-24.69,3.41c-15.31,2.95-30.39,7.3-44.89,13.04c-15.99,6.33-30.6,14.59-45.15,23.67
			C613.63,384.95,620.31,379.4,628.14,375.25z M599.64,398.72c31.4-23.65,69.1-38.69,107.9-44.48c4.81-0.72,9.73-1.38,14.59-1.69
			c1.64-0.11,2.9-0.83,2.89,1.38c-0.01,2.16-1.8,2.06-3.55,2.32c-9.91,1.47-19.77,2.54-29.58,4.69
			c-18.71,4.1-36.97,10.35-54.23,18.65c-9.09,4.37-17.9,9.34-26.32,14.9c-4.23,2.79-8.37,5.73-12.4,8.82
			c-2.07,1.58-9.05,9.12-11.58,8.42C591.18,407.16,594.84,402.33,599.64,398.72z M570.31,435.64c5.48-10.52,14.06-18.83,23.22-26.17
			c9.7-7.78,19.91-14.92,30.7-21.12c21.76-12.5,45.55-21.25,70.04-26.61c6.58-1.44,13.22-2.6,19.92-3.36
			c3.42-0.39,6.88-0.49,10.3-0.92c2.16-0.27,7.02-1.96,8.88-0.79c4.8,3.02-5.73,3.5-7.94,3.74c-7.1,0.75-14.19,1.67-21.22,2.92
			c-25.16,4.46-49.73,12.95-72.27,24.99c-11.56,6.18-22.58,13.36-32.86,21.51c-5.17,4.1-10.15,8.46-14.92,13.03
			c-1.85,1.78-13.43,15.52-14.78,14.94C569.39,436.95,569.71,436.23,570.31,435.64z M568.3,442.2
			c34.03-41.59,84.3-68.37,136.88-77.72c6.87-1.22,13.79-2.12,20.73-2.76c1.13-0.11,6.9-1.53,7.82-0.85
			c1.53,1.13,0.9,3.35-0.52,4.28c-2.09,1.37-7.49,0.82-9.99,1.1c-2.88,0.32-5.76,0.69-8.63,1.11c-7.12,1.02-14.19,2.33-21.2,3.93
			c-26.04,5.95-51.04,16.1-73.7,30.25c-12.24,7.65-23.76,16.45-34.2,26.42c-10.87,10.38-19.36,22.04-28.38,33.95
			C559.47,454.6,563.42,448.16,568.3,442.2z M560.8,459.12c31.64-45.65,82.34-75.42,136.06-87.27c7.34-1.62,14.75-2.86,22.21-3.78
			c3.73-0.46,7.47-0.78,11.22-1.17c1.72-0.18,5.48-0.75,3.66,2.54c-1.09,1.96-7.35,1.49-9.35,1.71c-3.86,0.43-7.71,0.92-11.55,1.5
			c-8.05,1.21-16.03,2.89-23.92,4.92c-27.76,7.13-54.39,18.93-77.88,35.42c-12.49,8.77-24.04,18.88-34.29,30.2
			c-5.36,5.92-10.39,12.16-14.98,18.7c-2.39,3.4-4.66,6.89-6.81,10.46c-1.68,2.79-2.9,6.42-5.61,8.35
			C551.69,472.38,556.23,465.72,560.8,459.12z M546.71,491.68c24.88-55.8,78.24-94.18,135.86-110.82
			c9.16-2.64,18.46-4.75,27.86-6.34c5.05-0.85,10.13-1.56,15.22-2.12c2.52-0.28,8.59-2.29,8.39,1.86
			c1.54-5.18,13.19-3.25,17.18-3.29c8.38-0.07,16.77,0.31,25.11,1.13c14.83,1.46,29.57,4.16,43.9,8.27
			c14.25,4.08,28.09,9.55,41.25,16.37c2.38,1.24,31.52,17.44,30.27,19.54c-7.18-4.69-14.12-9.61-21.67-13.7
			c-13.55-7.34-27.61-13.4-42.35-17.94c-29.38-9.05-60.9-12.59-91.56-10.06c-53.85,4.44-106,24.88-145.65,62.13
			c-10.71,10.07-20.32,21.31-28.38,33.61c-4.04,6.16-7.68,12.57-10.91,19.19c-1.64,3.36-3.16,6.76-4.58,10.22
			c-1.36,3.32-2.22,7.43-4.37,10.34C543.3,503.81,544.1,497.52,546.71,491.68z M979.9,611.18c-2.01,48.77-19.8,95.03-50.48,132.94
			c-27.91,34.49-65.24,59.66-107.23,73.77c-91.29,30.68-197.84-0.43-255.29-78.51c-27.3-37.09-42.86-83-42.96-129.07
			c-0.09-42.77,12.03-85.01,34.98-121.12c50.93-80.15,148.34-120.75,241.27-102.78c91.56,17.71,164.17,92.6,177.64,185.2
			C979.72,584.7,980.44,597.96,979.9,611.18z"/>
		<path class="st1" d="M224.02,398.07C224.04,397.95,224.01,397.96,224.02,398.07z"/>
	</g>
	<path class="st1" d="M288.1,454.63c17.23-29.17,36.78-56.91,55.19-85.34c8.5-13.12,18.95-24.57,29.35-36.19
		c5.13-5.72,10.59-11.14,16.29-16.29c2.85-2.58,5.75-5.09,8.7-7.56c2.58-2.15,5.89-5.89,9.42-6.21
		c-12.46,9.98-23.89,21.21-34.52,33.11c-10.21,11.43-20.45,22.84-28.69,35.81C326,400.05,307.18,427.36,288.1,454.63z"/>
	<path class="st1" d="M618.35,235.98c5.89-5.44,12.52-10.08,18.03-15.93c5.52-5.86,9.13-12.97,13.38-19.73
		c4.18-6.65,7.96-13.78,12.66-20.07c0.86-1.15,12.8-13.63,13.58-9.65c0.08,0.44-5.69,3.6-6.58,4.38c-2.7,2.35-4.86,5.22-6.85,8.17
		c-4.5,6.66-8.24,13.8-12.35,20.7c-4.14,6.95-8.61,13.91-14.42,19.6c-2.79,2.73-5.88,5.13-8.99,7.48
		C624.64,232.54,621.13,236.56,618.35,235.98z"/>
	<path class="st1" d="M179.14,553.72c14-10.58,28.01-21.16,41.51-32.38c6.51-5.41,12.91-10.96,19.11-16.72
		c3.11-2.88,6.17-5.82,9.17-8.81c1.63-1.63,7.21-9.38,9.67-8.59c-11.8,11.41-22.31,24.2-35.27,34.37
		C209.03,532.8,194.23,543.6,179.14,553.72z"/>
	<path class="st1" d="M542.36,225.07c13-7.24,26.97-14.01,38.74-23.2c5.56-4.34,9.86-9.67,14.64-14.8
		c4.75-5.1,10.63-9.57,14.4-15.48c0.88,2.79-4.22,6.53-5.77,8.25c-2.4,2.67-4.75,5.39-7.13,8.08c-5.12,5.77-10.4,11.53-16.52,16.26
		C577.38,206.75,543.44,227,542.36,225.07z"/>
	<path class="st1" d="M139.32,534.77c12.48-10.45,26.57-18.05,40.16-26.86c6.71-4.35,13.27-8.94,19.56-13.87
		c3.38-2.64,6.72-5.36,9.83-8.32c1.65-1.57,4.28-5.91,6.84-5.53c-9.78,12.07-23.76,21.37-36.78,29.6
		c-6.77,4.28-13.82,8.09-20.64,12.3c-3.56,2.2-7.08,4.48-10.5,6.89C145.08,530.86,142.42,533.65,139.32,534.77z"/>
	<path class="st1" d="M461.91,252.08c8.01,1.98,17.95,3.88,26.22,2.7c3.81-0.54,7.48-1.89,10.46-4.36c0.67-0.56,5.33-6.35,5.81-4.78
		c0.58,1.9-4.56,6.22-5.9,7.2c-2.85,2.08-6.18,3.13-9.65,3.62C479.64,257.79,470.48,255.27,461.91,252.08z"/>
	<path class="st1" d="M643.48,136.3c5.47-6.08,31.28-9.68,42.79-2.9C671.82,129.4,657.78,131.54,643.48,136.3z"/>
	<path class="st1" d="M652,159.5c6.47,2.42,13.34,3.48,20.23,3.22c3-0.11,6.72-0.17,9.61-1.13c1.01-0.33,4.55-3.39,4.75-1.56
		c0.5,4.47-13.88,4.38-15.89,4.4C665.24,164.51,655.84,164.18,652,159.5z"/>
	<path class="st1" d="M614.22,128.66c2.66-8.47,12.42-21.38,22.43-17.89C625.41,112.75,619.31,120.05,614.22,128.66z"/>
	<path class="st1" d="M36.28,581.3c-7.17,9.1-13.66,18.87-17.27,29.96c-2.17-3.57,3.94-12.43,5.76-15.48
		C27.94,590.47,31.8,585.58,36.28,581.3z"/>
	<path class="st1" d="M583.69,239.08c-1.48,9.68,3.32,17.14,7.58,24.91C586.1,262.77,580.62,244.8,583.69,239.08z"/>
	<path class="st1" d="M556.03,262.32c-2.37-3.48-4.07-7.38-4.94-11.5c-0.25-1.16-1.81-9.14-0.24-9.44c1.03-0.2,1.01,7.18,1.31,8.74
		c0.45,2.31,1.09,4.58,1.9,6.78C554.59,258.36,556.27,260.68,556.03,262.32z"/>
	<path class="st1" d="M656.59,61.6c1.58-0.07,4.46,7.16,5.24,8.53c0.71,1.24,4.13,5.05,3.26,5.64
		C661.85,77.98,655.81,61.8,656.59,61.6z"/>
	<path class="st1" d="M658.96,147.21c3.86,5.34,8.5,9.2,14.73,11.43C668.47,159.48,658.53,151.88,658.96,147.21z"/>
	<path class="st1" d="M676.91,158.28c-2.3-2.27-4.33-4.77-6.5-7.16c-0.63-0.69-5.53-4.82-2.48-4.97c1.11-0.05,4.15,3.78,4.83,4.6
		C674.59,152.98,676.02,155.53,676.91,158.28z"/>
	<path class="st1" d="M772.46,121.12c1.19,1.79-2.79,7.17-1.61,6.99c1.65-0.25,3.46-5.2,4.87-5.92c0.04,2.42-3.96,9.15-7.16,7.07
		c0.63-0.4,0.13-0.92,0.16-1.4c0.08-1.07,0.26-0.83,0.83-1.77C770.68,124.26,771.89,123.47,772.46,121.12z"/>
	<path class="st1" d="M672.98,32.11c-4.78-0.93-9.65-1.03-14.49-1.4C663.45,29.66,668.35,29.34,672.98,32.11z"/>
	<path class="st1" d="M634.62,231.25c-2.15,4.12-4.94,7.84-8,11.37C628.6,238.38,631.34,234.66,634.62,231.25z"/>
	<path class="st1" d="M738.52,129.99c-1.78,3.61-1.35,7.85-3.31,12.19C735.63,137.41,735.39,133.23,738.52,129.99z"/>
	<path class="st1" d="M746.61,136.52c0.19,3.63-3.53,9.86-6.36,10.72C743.25,144.02,744.58,140.07,746.61,136.52z"/>
	<path class="st1" d="M777.66,94.76c1.88,2.55,1.93,6.44,0.02,9C778.23,100.47,777.65,97.64,777.66,94.76z"/>
	<path class="st1" d="M737.33,143.02c0.9-2.93,1.79-5.86,2.69-8.79C742.36,135.02,738.35,141.84,737.33,143.02z"/>
	<path class="st1" d="M773.88,103.25c0.42-2.91,1.51-5.58,0.81-8.5C776.86,95.94,776.39,100.54,773.88,103.25z"/>
	<path class="st1" d="M668.77,45.13c-3.11-0.18-5.54-1.55-7.34-4.08C664.08,42.04,666.11,44.18,668.77,45.13z"/>
	<path class="st1" d="M692.8,40.49c-0.92-0.12-7.77-2.11-6.73-3.22C687.12,36.16,692.13,39.89,692.8,40.49z"/>
	<path class="st1" d="M771.85,97.88c-0.14-0.4-0.41-5.07,0.82-4.29C773.76,94.28,772.18,97.09,771.85,97.88z"/>
	<path class="st1" d="M769.81,121.33c-0.36,1.77-1.87,2.27-3.41,3.17C767.2,122.83,768.47,122.06,769.81,121.33z"/>
	<g>
		<path d="M757.69,166.21C757.74,166.19,757.78,166.09,757.69,166.21z"/>
		<path d="M836,139.55c-6.32-7.46-16.28-10.74-25.53-12.78c-4.92-1.09-9.94-1.73-14.97-1.98c-2.38-0.12-4.77-0.14-7.16-0.09
			c-1.47,0.03-7.17-0.74-6.31,1.7c9.08-1.18,19.89,0.47,28.76,2.49c8.12,1.85,17.46,4.8,23.14,11.28
			c13.15,15-10.66,28.56-22.33,33.11c-7.85,3.07-16.21,5.16-24.55,6.34c-4.02,0.57-8.08,0.88-12.13,1.15
			c-2.24,0.15-6.88,1.22-8.93,0.38c-2.13-0.87-3.67-4.52-4.5-6.43c-0.69-1.59-1.28-3.28-1.49-5c-0.07-0.54,0.17-2.86-0.2-3.34
			c-1.46-1.87-1.72,0.68-1.84,1.24c-0.4,1.81,0.96,3.58,0.94,5.23c-0.05,3.46-1.28-0.32-2.71-0.93c0.75,3.38,2.4,6.37,4.37,9.18
			c-0.14-0.86-2.16-4.33-0.09-3.94c0.64,0.12,3.04,4.17,3.73,4.87c-2.74,0.74-5.59,1.63-8.46,1.67c-2.81,0.04-5.56-1.02-8.38-0.49
			c4.08,3.1,8.63,2.96,13.09,1.35c4.81-1.74,9.49-1.01,14.51-1.14c10.08-0.27,20.73-2.29,30.35-5.26
			C818.99,173.92,851.87,158.27,836,139.55z"/>
	</g>
	<path d="M774.8,78.77c0.92-1.04-0.46-1.91-1.37-1.81c-2.09,0.24-1.22,2.68-1.29,3.96c0.35,0.04,0.41-3.89,1.38-3.14
		c1.23,0.94,0.27,4.25,0.75,5.59C776.41,81.81,774.2,80.4,774.8,78.77z"/>
	<path class="st1" d="M926.63,506.88c1.63-13.16-12.57-20.09-17.98-30.23c2.61,1.03,4.88,4.35,6.77,6.34
		c2.22,2.33,4.21,4.87,6.11,7.47C925.09,495.31,929.54,500.54,926.63,506.88z"/>
	<path class="st1" d="M883.23,440.54c-6.57,2.69-10.64-4.04-14.97-7.81c-4.81-4.18-9-8.74-14-12.65
		c6.02,1.55,10.84,8.03,15.35,12.08C873.81,435.94,876.81,441.17,883.23,440.54z"/>
	<path class="st1" d="M955.24,549.08c0.34,2.11-2.9,4.28-3.2,6.65c-0.38,3.07,1.35,5.3,3.4,7.36c4.39,4.4,9.7,8.55,11.8,14.66
		c1.2-1.76-11.39-12.63-12.65-13.89C949.4,558.67,950.12,554.09,955.24,549.08z"/>
	<path class="st1" d="M794.28,400.43c8.43-1.42,17.43-1.65,24.84,5.4c-3.59-2.1-7.39-3.96-11.52-4.69
		C803.21,400.38,798.6,401.55,794.28,400.43z"/>
	<path class="st1" d="M811.27,419.77c1.91-0.18,3.61,1.51,5.15,2.37c2.24,1.25,4.63,2.15,7.06,2.94c4,1.31,9.43,1.93,12.7,4.76
		c-4.63-1.62-9.49-2.46-14.13-4.04c-2.03-0.69-10.55-3.5-10.74-6.1C811.31,419.71,811.27,419.77,811.27,419.77z"/>
	<path class="st1" d="M599.96,501.87c-2.89,0.63-7.12-5.09-9.19-6.69c-3.37-2.6-6.86-3.45-10.91-1.73
		C586.77,486.95,595.61,497,599.96,501.87z"/>
	<path class="st1" d="M797.12,809.17c-2.18-3.87-2.27-8.78-3.99-12.91c-1.47-3.53-2.16-7.91-0.46-11.52
		c-0.42,4.27,0.43,8.2,2.02,12.15C796.33,800.99,795.79,805.07,797.12,809.17z"/>
	<path class="st1" d="M704.71,750.49c-4.29,7.86-5.24,16.58-10.9,23.81c-0.41-0.79,2.16-4.36,2.67-5.42
		c1.18-2.48,2.12-5.05,3.06-7.63C700.59,758.34,701.73,752.01,704.71,750.49z"/>
	<path class="st1" d="M697.65,414c-7.24-3.71-14.75-1.93-22.36-1.1C682.98,410.26,690.46,409.21,697.65,414z"/>
	<path class="st1" d="M790.51,507.53c4.28-0.59,8.16,4.42,10.72,7.17c2.58,2.77,6.94,7.34,6.76,11.43
		c-1.9-4.23-4.27-7.86-7.55-11.13C797.63,512.19,794.64,508.28,790.51,507.53z"/>
	<path class="st1" d="M615.73,482.03c-5.4,6.13-14.65,1.91-21.18,5.44c3.29-3.24,6.73-2.56,10.91-2.71
		C609.17,484.63,612.36,482.03,615.73,482.03z"/>
	<path class="st1" d="M617.54,543.83c3.35,1.83,6.43,3.99,9.01,6.81c2.58,2.82,4.27,5.54,8.62,4.66c-3.58,2.92-6.62-0.52-8.83-3.1
		C623.67,549.06,620.73,546.46,617.54,543.83z"/>
	<path class="st1" d="M551.11,559.91c0-7.24,1.3-14.16,4.67-19.99C553.97,546.12,552.3,552.95,551.11,559.91z"/>
	<path class="st1" d="M943.45,645.38c-6.49-3.57-12.46-8.36-20.4-8.47C930.93,636.66,937.85,640,943.45,645.38z"/>
	<path class="st1" d="M807.21,619.56c6.86,3.85,14.05,6.27,22.06,5.06C820.77,626.6,814.24,624.38,807.21,619.56z"/>
	<path class="st1" d="M609.19,505.23c7.71,0.72,13.77,4.48,18.87,10.03C622.36,510.82,616.49,506.71,609.19,505.23z"/>
	<path class="st1" d="M779.85,521.97c3.61,5.93,7.17,11.9,13.07,15.92C785.91,534.79,782.69,528.54,779.85,521.97z"/>
	<path class="st1" d="M545.22,581.64c-0.81,5.27-0.31,11.36-1.66,17.27C544.07,592.9,542.44,586.65,545.22,581.64z"/>
	<path class="st1" d="M606.73,539.11c-5.81-3.2-11.73-6.15-18.38-7.25C593.37,531.67,597.97,533.43,606.73,539.11z"/>
	<path class="st1" d="M688.91,774.95c-1.2,7.75,8.31,10.97,3.62,18.63C696.22,785.56,685.32,782.62,688.91,774.95z"/>
	<path class="st1" d="M683.42,589.79c-3.19,5.07-8.25,9.06-9.84,15.29C674.24,598.25,678.81,593.95,683.42,589.79z"/>
	<path class="st1" d="M636.65,461.98c4.1-1.63,13.41,0.24,16.96,3.85C647.75,463.41,642.39,462.04,636.65,461.98z"/>
	<path class="st1" d="M928.76,582.2c6.36,1.06,11.24-6.16,17.88-2.62C940.23,577.42,935.06,583.6,928.76,582.2z"/>
	<path class="st1" d="M923.15,571.55c6.44,2.84,12.99,3.28,20.25,1.08C938.1,576.36,929.32,576.16,923.15,571.55z"/>
	<path class="st1" d="M879.67,775.84c2.24-0.02,6.63-2.26,6.19-5.08c-0.39-2.48-4.32-2.74-5.56-4.86c2.54,1.16,6.91,2.08,6.53,5.47
		C886.42,774.94,882.82,776.55,879.67,775.84z"/>
	<path class="st1" d="M751.12,398.36c3.2,1.8,5.69,1.44,9.07,0.77c0.56-0.11,5.33-0.98,3.97,1.03c-0.23,0.34-4.94,0.73-5.46,0.8
		C755.68,401.38,753.2,400.85,751.12,398.36z"/>
	<path class="st1" d="M761.16,432.6c-3.57,0.74-10.6-4.05-13.22-8.8C752.15,427.16,755.84,430.82,761.16,432.6z"/>
	<path class="st1" d="M562.19,555.85c3.72-5.66,8.4-10.81,9.86-17.67C571.18,545.14,566.71,550.78,562.19,555.85z"/>
	<path class="st1" d="M619.92,475.16c4.66-2.29,11.53-1.82,13.49-8.96C633.33,471.14,629.38,473.65,619.92,475.16z"/>
	<path class="st1" d="M656.28,445.52c2.66,4.1,5.12,8.64,11.44,9.41C662.48,456.82,656.95,450.16,656.28,445.52z"/>
	<path class="st1" d="M579,696.52c5.61-2.92,8.75-8.83,14.23-11.94C588.51,688.58,584.91,693.89,579,696.52z"/>
	<path class="st1" d="M839.08,613.14c-6.23-1.32-11.84-3.66-17.41-4.16C823.62,608.01,830.72,609.53,839.08,613.14z"/>
	<path class="st1" d="M917.19,644.72c4.4,1.81,9.6,0.54,13.77,3.33C926.43,646.68,921.37,647.58,917.19,644.72z"/>
	<path class="st1" d="M692.26,653.19c-2.52,4.39-3.25,9.27-4.03,13.73C687.35,661.94,688.56,657.17,692.26,653.19z"/>
	<path class="st1" d="M758.47,805.92c6.51-0.2,10.24,4.72,14.77,8.2C768.1,811.82,764.65,806.37,758.47,805.92z"/>
	<path class="st1" d="M918.99,670.99c5.5,0.84,10.58,2.58,14.93,6.05C929.15,674.51,923.97,672.96,918.99,670.99z"/>
	<path class="st1" d="M748.71,791.1c0.09-5.4,4.91-8.28,7.06-13.06C754.78,783.39,749.72,786.15,748.71,791.1z"/>
	<path class="st1" d="M829.31,498.77c5.88-2.93,8.11-2.36,12.13,3.45c-2.07-0.78-2.94-3.05-4.92-3.86
		C834.18,497.41,831.72,499.09,829.31,498.77z"/>
	<path class="st1" d="M845.08,790.42c1.83,2.01,0.36,4.74,2,6.58c1.27,1.43,3.97,1.66,4.81-0.29c0.37,2.97-3.46,2.52-5,1.17
		C844.64,795.92,846.44,792.7,845.08,790.42z"/>
	<path class="st1" d="M636.91,679.91c5.23,2.02,4.99,9.17,10.4,11.32C641.27,690.68,641.13,683.08,636.91,679.91z"/>
	<path class="st1" d="M552.53,583.01c0.95-5.19,2.42-10.15,6.27-14.06C555.55,573.13,554.38,578.22,552.53,583.01z"/>
	<path class="st1" d="M958.1,640.33c0.5,4.95,4.84,6.86,7.82,10C960.67,648.28,957.65,644.46,958.1,640.33z"/>
	<path class="st1" d="M654.74,656.91c-2.96,4.42-7.09,5.95-11.65,6.66C647.4,662.39,651.15,660.17,654.74,656.91z"/>
	<path class="st1" d="M867.71,620.98c-3.51-2.1-7.6-2.57-11.43-3.78C860.5,617.44,864.75,617.56,867.71,620.98z"/>
	<path class="st1" d="M927.61,553.87c3.54,0.1,7.37,2.26,10.67,0.01C940.55,557.6,928.76,554.48,927.61,553.87z"/>
	<path class="st1" d="M590.77,727.88c-1.89-1.81-3.76-3.63-5.48-5.61c-0.7-0.8-3.22-4.88-3.6-4.96
		C584.97,720.61,588.04,724.1,590.77,727.88z"/>
	<path class="st1" d="M641.46,731.64c-1.04-3.81,1.69-7.54,1.07-11.64C643.93,723.69,642.18,727.91,641.46,731.64z"/>
	<path class="st1" d="M949.78,646.03c0.39-4.25-1.69-7.79-3.24-11.47C949.08,637.99,950.7,641.68,949.78,646.03z"/>
	<path class="st1" d="M628.67,764.76c-3.41-2.1-9.67-4.43-10.6-8.84C620.87,759.72,625.48,761.4,628.67,764.76z"/>
	<path class="st1" d="M875.21,580.64c3.96-0.35,7.48,1.26,11.86,2.41C882.48,582.97,878.91,581.51,875.21,580.64z"/>
	<path class="st1" d="M962.35,672.23c-3.62-0.56-7.22-1.18-9.35-4.73C955.57,670.23,959.32,670.49,962.35,672.23z"/>
	<path class="st1" d="M558.88,524.67c3.22-2.07,6.66-2.75,10.37-1.41C565.72,523.13,562.23,523.34,558.88,524.67z"/>
	<path class="st1" d="M675.04,689.66c-0.18-5.75,0.76-7.84,4.37-8.79C675.76,683,676.11,686.9,675.04,689.66z"/>
	<path class="st1" d="M663.41,681.59c-2.66,3.82-5.96,5.98-7.7,5.14C658.85,685.97,660.33,682.79,663.41,681.59z"/>
	<path class="st1" d="M763.43,790.52c-2.7-2.97-5.18-5.46-6.53-8.77C759.08,784.46,761.64,786.89,763.43,790.52z"/>
	<path class="st1" d="M851.94,793.61c3.02,0.59,5.96,0.47,8.93-0.4C859.19,795.42,855.87,795.65,851.94,793.61z"/>
	<path class="st1" d="M871.58,771.55c-2.92,0.93-4.63,2.96-5.49,5.8C865.86,773.56,867.17,772.14,871.58,771.55z"/>
	<path class="st1" d="M710.2,802.46c-3.01,0.76-5.6,2.48-8.55,0.89C704.42,803.32,707.1,802.38,710.2,802.46z"/>
	<path class="st1" d="M780.68,549.59c2.65,2.11,4.76,4.63,5.98,7.84C784.66,554.82,782.67,552.21,780.68,549.59z"/>
	<path class="st1" d="M866.09,782.64c2.77,1.34,5.85,2.35,6.81,5.83C871.05,786.03,868.17,784.84,866.09,782.64z"/>
	<path class="st1" d="M576.75,525.94c0.58,2.88,1.09,5.77-0.68,8.49C576.59,531.65,576.36,528.83,576.75,525.94z"/>
	<path class="st1" d="M944.72,673.17c0.47-2.77,1.07-5.47,0.83-8.26C947.1,667.89,946.06,670.58,944.72,673.17z"/>
	<path class="st1" d="M675,650.63c0.56,3.3,3.16,4.67,5.86,6.17C677.23,656.4,675.23,654.27,675,650.63z"/>
	<path class="st1" d="M595.71,731.94c2.64-0.27,5.21-0.85,7.68-1.86C601.1,731.87,598.54,732.51,595.71,731.94z"/>
	<path class="st1" d="M953.09,687.16c-2.75-0.9-5.29-1.91-8.04-3.41C948.41,684.25,950.85,685.31,953.09,687.16z"/>
</g>
</svg>
