<svg xmlns="http://www.w3.org/2000/svg" viewBox="0 0 732.82 989.55">
<rect fill="none" width="732.82" height="989.55"/>
<g>
	<path d="M723.09,736.86c-10.86-14.86-22.3-29.15-33.91-43.43c-5.53-6.8-10.92-13.7-16.16-20.73c-2.77-3.72-5.39-7.63-8.4-11.16
		c-0.63-0.74-5.64-5.26-2.37-4.91c1.76,0.19,5.84,5.94,6.96,7.34c2.7,3.36,5.13,6.93,7.76,10.35c5.53,7.18,11.31,14.17,17.07,21.17
		c5.72,6.94,11.45,13.87,16.94,20.99c2.88,3.73,5.69,7.52,8.54,11.27c0.96,1.26,2.09,2.51,2.81,3.93
		C723.08,733.14,723.09,734.76,723.09,736.86z"/>
	<path d="M711.2,803.65c-0.39,2.95-6.28-1.89-7.28-2.49c-2.76-1.69-5.53-3.38-8.26-5.11c-6.61-4.18-13.08-8.6-19.3-13.35
		c-12.37-9.45-23.71-20.17-34.45-31.42c-21.15-22.16-41.75-45.95-58.21-71.85c-8.4-13.22-14.93-26.93-20.33-41.61
		c-0.67-1.83-1.65-3.69,0.64-2.53c2.07,1.05,3.99,8.95,4.89,11.11c3.07,7.44,6.6,14.52,10.65,21.47
		c15.39,26.44,35.34,49.85,55.59,72.65c11.32,12.74,23.52,24.7,36.69,35.52c6.61,5.43,13.52,10.45,20.65,15.17
		c3.29,2.18,6.62,4.3,9.98,6.37C704.44,798.79,710.73,801.08,711.2,803.65z"/>
	<path d="M192.78,231.36"/>
	<path d="M470.24,531.55c25.16-4.05,49.27-15.01,70.81-28.35c21.04-13.03,40.67-29.12,53.2-50.76c5.28,8.72,7.67,18.76,11.38,28.17
		c3.74,9.5,7.78,18.93,12.3,28.08c8.85,17.92,19.06,35.31,29.89,52.1c10.85,16.82,23.27,31.25,36.75,45.98
		c13.52,14.77,26.15,30.3,38.52,46.03c0-3.34,0.09-4.61-2.07-7.06c-2.21-2.51-4.19-5.31-6.29-7.92
		c-5.06-6.31-10.2-12.55-15.46-18.69c-9.43-11.02-19.59-21.37-29.08-32.34c-19.68-22.74-34.87-50.53-48.55-77.2
		c-7.09-13.83-12.73-28.15-18.44-42.59c-1.48-3.76-3.01-7.49-4.55-11.23c-1.08-2.62-2.73-5.25-2.51-8.09
		c0.23-3.02,1.46-5.22,0.71-8.41c-0.97-4.13-3.59-7.86-5.8-11.4c-3.1-4.95-6.27-10.63-10.8-14.44c-2.64-2.22-5.25-2.44-8.2-3.76
		c-2.97-1.32-3.56-4-4.83-7.04c-5.63-13.45-11.24-26.6-18.83-39.11c-8.32-13.7-17.97-26.57-26.17-40.35
		c-7.45-12.52-13.93-25.62-19.37-39.12c-2.72-6.74-6.07-13.12-8.14-20.11c-2.26-7.65-4.15-15.44-6.05-23.18
		c-3.7-15.08-6.8-30.28-11.01-45.24c-4.09-14.5-8.8-28.97-14.82-42.79c-6.09-13.99-15.67-26.06-22.18-39.81
		c-2.74-5.8-3.84-11.83-5.42-17.99c-2.01-7.84-6.19-14.27-10.64-20.92c-3.88-5.79-8.81-11.45-11-18.15
		c-2.25-6.86-0.9-13.85-0.21-20.86c0.65-6.65,2-14.76-2.53-20.44c-3.73-4.68-10.38-6.34-16.12-5.64
		c-13.97,1.71-23.77,17.07-27.57,29.34c-5.16,16.65-0.43,33.04,4.4,49.12c2.39,7.95,3.99,15.95,5.99,23.98
		c0.96,3.83,2.32,7.55,3.74,11.23c1.2,3.12,4.77,8.49,4.45,11.86c-2.15,0.35-6.2-1.6-8.25-2.19c-2.56-0.75-5.13-1.48-7.68-2.26
		c-6.42-1.97-12.68-4.26-18.75-7.16c-11.07-5.29-21.66-11.41-32.33-17.44c-10.71-6.06-21.46-8.18-33.23-11.06
		c-12.13-2.96-23.09-9.36-35.32-12.07c-5.93-1.31-12-1.87-18.05-2.12c-5.52-0.23-11.91-1.07-17.27,0.61
		c-8.25,2.58-14.21,10.75-14.57,19.3c-0.35,8.47,3.67,16.92,10.86,21.53c10.09,6.47,21.38,12.9,32.61,17.08
		c5.57,2.07,11.29,3.93,17.04,5.42c6.18,1.6,12.47,2.07,18.36,4.69c10.63,4.73,19.95,12.22,30.27,17.59
		c2.12,1.1,10.15,2.8,10.49,4.93c0.45,2.86-8.61,7.91-10.66,8.76c-10.83,4.47-21.64-4.61-31.47-8.59
		c-11.66-4.71-24.04-7.14-36.61-7.23c-12.45-0.1-24.58-1.23-37-1.82c-12.72-0.6-24.94-2.67-37.4-5.19
		c-12.19-2.47-23.14-2.25-32.55,6.94c-3.83,3.74-6.6,8.62-7.36,13.97c-0.39,2.75-0.24,5.54,0.51,8.22c0.43,1.52,3.66,5.99,3.4,7.37
		c-0.29,1.5-4.63,3.95-5.83,5.23c-1.97,2.09-3.71,4.43-5.06,6.97c-2.77,5.24-3.86,11.38-2.39,17.17
		c2.77,10.93,13.43,17.96,23.44,21.53c6.05,2.16,12.4,3.15,18.35,5.6c3.1,1.28,6.19,2.5,9.4,3.5c3.23,1,7.27,1.26,10.25,2.86
		c-6.31,1.86-12.41,3.26-15.9,9.4c-2.49,4.38-3.01,9.74-1.32,14.48c1.18,3.32,3.21,6.38,5.72,8.82c2.15,2.09,4.83,3.49,5.58,6.61
		c0.92,3.78-0.3,8.59-0.04,12.5c0.29,4.45,1.03,8.86,1.37,13.32c1.41,18.67-0.85,37.36,0.16,56.05c0.46,8.63,1.79,17.03,1.64,25.7
		c-0.06,3.3,1.46,9.74,0.12,12.82c-1.32,3.03-4.9,2.58-6.66,5.09c1.57-0.43,6.2-2.67,7.54-1.72c1.01,0.71,1.05,10.19,1.36,11.76
		c0.8,4.01-1.53,2.94-5.23,3.09c-5.07,0.21-10.13,0.64-15.15,1.31c-17.73,2.36-35.11,7.67-51.19,15.51
		c-30.93,15.09-56.31,39.56-73.43,69.32C-3.9,585.74,6.3,670.22,57.57,724.97c50.39,53.82,132.74,68.29,198.42,34.59
		c68.23-35.02,104.9-113.77,89.51-188.67c-14.32-69.71-71.93-125.64-142.95-135.09c-2-0.27-9.29,0.1-9.7-2.05
		c-0.22-1.11,1.65-3.3,2.1-4.37c0.87-2.09,1.32-4.36,1.61-6.59c0.59,0.14,1.19,0.28,1.78,0.42c-4.74-7.31-2.71-16.76-2.82-24.91
		c-0.13-9.05-0.83-18.06-0.69-27.12c0.26-17.37,1.27-34.41,0.22-51.82c-0.24-4.01-0.71-8.29-0.25-12.29
		c0.33-2.92,0.46-2.76,3.05-1.86c3.77,1.32,7.34,3.58,11.05,5.13c4.23,1.76,8.57,2.97,12.95,4.26c8.26,2.44,15.86,6.01,23.77,9.32
		c7.87,3.3,16.74,4.73,24.94,7.11c3.54,1.03,7.78,1.47,11.01,3.27c3.21,1.78,5.17,5.56,7.53,8.26c5.14,5.88,10.99,11.14,17.26,15.79
		c2.95,2.19,6.19,3.87,9.2,5.95c3.41,2.35,6.28,5.34,9.77,7.61c7.05,4.59,15.08,7.31,23.05,9.79c14.82,4.62,30.47,9.07,41.71,20.44
		c5.85,5.91,10.11,13.29,14.42,20.34c4.59,7.5,8.38,14.6,10.78,23.11c2.55,9.06,5.09,18.12,7.63,27.19
		c1.02,3.65,3.9,9.41,3.66,13.09c-0.2,3.13-3.14,5.47-3.4,9.07c-0.52,7.42,3.52,15.59,7.05,21.84c1.84,3.26,3.76,6.95,6.4,9.64
		c2.51,2.56,5.94,3.14,7.97,6.22c4.56,6.93,7.09,15.74,10.13,23.41c3.53,8.9,7,17.81,10.13,26.86c6.02,17.4,11.66,34.95,16.5,52.71
		c4.88,17.92,8.12,36.19,12.78,54.15c2.23,8.59,4.78,17.09,7.69,25.47c2.85,8.21,6.74,15.97,9.73,24.12
		c12.5,33.97,25.31,67.5,45.32,97.83c4.73,7.16,9.45,13.84,11.76,22.2c2.32,8.37,6.87,15.59,12.58,22.1
		c12.14,13.84,25.66,26.47,37.85,40.28c5.81,6.58,11.02,13.66,16.14,20.78c4.55,6.34,8.71,13.89,14.84,18.86
		c6.36,5.15,15.31,8.18,22.94,10.86c7.9,2.77,16.01,4.9,24.22,6.52c4.13,0.82,8.29,1.53,12.46,2.09c4.43,0.6,9.06,0.21,13.42,1.23
		c0-1.13,0-2.27,0-3.4c-2.14,1.66-8.13-0.01-10.64-0.29c-4.93-0.54-9.84-1.31-14.7-2.28c-8.76-1.76-17.39-4.17-25.82-7.11
		c-7.62-2.66-16.67-5.67-22.44-11.56c-5.77-5.88-9.85-13.59-14.7-20.21c-10.72-14.62-23.07-27.98-35.61-41.04
		c-6.3-6.56-13.05-12.73-18.63-19.94c-5.09-6.57-7.68-12.79-10.18-20.6c-2.72-8.49-8.35-15.25-13.1-22.66
		c-4.85-7.56-9.73-15.16-13.82-23.17c-8.39-16.45-15.2-33.91-21.93-51.09c-6.81-17.37-13.64-35.02-19.57-52.71
		c-5.9-17.59-9.19-35.95-13.25-54.01c-9.28-41.28-23.99-81.79-41.15-120.39C455.06,532.95,462.73,532.76,470.24,531.55z
		 M577.26,429.52c-0.33-6.83-3.39-12.17-5.93-17.84C580.31,412.69,583.04,420.46,577.26,429.52z M160.65,248.84
		c-5.91-2.79-12.25-3.68-18.44-5.52c-5.51-1.64-10.37-5.23-14.81-8.8c-8.78-7.06-10.84-19.01-5.13-28.65
		c1.93-3.25,7.24-11.04,11.24-9.76c2.09,0.67,4.61,3.64,6.73,4.7c2.41,1.2,5,2.06,7.61,2.71c12.66,3.14,26.01,4.47,38.91,6.32
		c0.47-2.27-24.85-5.77-27.86-6.25c-8.17-1.29-17.61-2.33-23.87-8.34c-12.2-11.73-4.53-30.23,9.84-35.85
		c7.97-3.12,16.22-1.28,24.34,0.18c4.66,0.84,9.32,1.74,13.98,2.63c2.65,0.5,11.01,0.45,11.54,3.24c0.22,1.16-0.78,3.57-0.92,4.82
		c-0.28,2.51-0.39,5.06-0.57,7.58c-0.4,5.41-0.79,10.83-1.15,16.24c-0.72,10.77-1.32,21.55-1.83,32.34
		c-0.21,4.48-1.13,10.43-0.96,14.09c0,0.01,0.69,0.74,0.72,1.03c0.16,1.59-0.08,3.4-0.08,5.02c0.01,1.88,1.03,7.36,0.18,9.05
		C188.3,259.26,164.52,250.67,160.65,248.84z M170.98,290.42c-7.49-6.6-11.93-18.01-4.02-26.28c3.22-3.37,10.5-6.17,15.03-6.74
		c1.56-0.2,6.9,0.19,7.9,1.58c1.05,1.46,0.3,6.38,0.3,8.06c-0.98-1.14-4.54-5.46-6.41-5.06c-2.53,0.54,3.05,3.88,3.62,4.47
		c3.58,3.66,4.86,12.1,1.63,16.32c-1.59,2.08-4.55,3.3-7.09,3.54c-1.12,0.11-7.49-1.39-6.94,0.41c0.48,1.57,6.35,1.54,7.66,1.42
		c3.41-0.32,6-1.93,7.83-4.88c0.43,3.92,0.81,7.83,1.11,11.76c0.28,3.59,1.19,5.45-2.72,3.9
		C183.35,296.72,175.52,294.41,170.98,290.42z M134.78,768.84C61.79,747.91,12.85,678.78,13.39,603.4
		c4.4,42.69,19,82.51,48.53,114.37c28.28,30.51,66.99,50.31,108.48,54.34c12.45,1.21,24.98,0.95,37.36-0.85
		c5.94-0.86,11.84-2.02,17.67-3.49c2.91-0.74,5.8-1.55,8.66-2.44c1.49-0.47,6.97-3.22,8.32-2.45
		C208.02,776.79,170.48,779.08,134.78,768.84z M132.73,452.76c4.94-1.67,9.93-3.17,14.99-4.43c2.33-0.58,11.93-1.15,12.98-3.25
		c-1.6-1.71-7.68,0.34-9.6,0.71c-3.51,0.67-6.98,1.5-10.41,2.47c-6.85,1.93-13.53,4.44-20.02,7.35c-12.28,5.5-24.01,12.37-35,20.12
		c-10.8,7.62-20.88,16.23-30.1,25.69c-4.92,5.05-9.59,10.34-13.94,15.88c-1.07,1.37-10.2,13.88-10.56,13.48
		c-0.79-0.88,4.81-9.76,5.48-10.95c2.4-4.22,5-8.32,7.79-12.28c5.4-7.68,11.5-14.85,18.12-21.49
		c13.13-13.16,28.24-24.15,44.94-32.34c17.57-8.61,37.32-15.48,57.1-14.98c20.55,0.52,41.11,4.02,60.51,10.87
		c36.92,13.03,68.8,38.22,89.78,71.3c10.54,16.61,18.27,34.96,23.03,54.04c4.9,19.66,7.82,41.71,5.4,61.94
		c-4.37,36.63-26.83,71.97-54.53,95.62c-30.52,26.06-70.37,39.84-110.48,37.95c-68.93-3.25-128.97-51.86-151.81-116.16
		c-13.66-38.46-16.6-83.4,5.13-119.3c19.47-32.16,50.45-58.44,84.07-74.86C121.21,457.37,126.99,455.18,132.73,452.76z
		 M345.81,616.38c-1.55-35.07-10.97-69.68-30.47-99.12c-19.18-28.97-46.64-52.23-78.71-65.7c-18.12-7.61-37.42-12.13-56.94-14.2
		C264.75,433.88,352.82,511.41,345.81,616.38z M192.91,429.07c-1.39,4.04-1.57,5.8-6.27,5.57c-6.43-0.31-5.97-4-6.72-9.66
		c-1.38-10.41-1.39-20.82-1.9-31.29c-0.5-10.13-2.11-19.9-1.82-30.09c0.29-10.25,0.99-20.5,0.91-30.76
		c-0.07-10.57-2.12-20.93-2.11-31.49c0.01-4.95-1-7.18,3.83-4.65c3.26,1.71,10.27,2.85,12.57,5.71c1.86,2.32,0.81,9.51,0.99,12.54
		c0.3,5.08,0.73,10.15,0.94,15.23c0.43,10.36-0.17,20.81-0.33,31.18c-0.18,11.73,0.02,23.26,0.36,34.99
		c0.16,5.5-0.85,10.93-0.22,16.42C193.83,418.76,194.95,423.18,192.91,429.07z M427.41,489.44c0.43,1.21,4.55,13.23,6.97,11.14
		c-4.52-5.18-5.38-14.64-7.14-21.09c-2.37-8.68-4.7-17.36-7.08-26.03c-2.34-8.52-4.3-16.94-8.74-24.66
		c-4.05-7.04-8.33-14.08-13.15-20.61c-10.16-13.76-23.9-20.93-39.96-26.05c-8.07-2.57-16.35-4.59-24.1-8.07
		c-7.29-3.27-13.14-7.97-19.53-12.62c-7.45-5.41-14.82-10.43-21.31-17.04c-3.23-3.29-6-6.99-9.27-10.22
		c-2.52-2.48-6.06-6.71-9.85-6.9c1.63,1.77,4.24,2.63,5.36,4.87c-3.72,0.05-7.56-2.43-11.04-3.55c-4.45-1.43-9.02-2.45-13.53-3.7
		c-8.85-2.47-16.74-6.99-25.4-9.93c-8.48-2.88-16.99-5.19-25.18-8.87c-3.07-1.38-8.61-2.79-10.05-5.88
		c-1.55-3.35-0.68-10.97-0.89-14.69c-0.27-4.9-0.51-9.8-0.64-14.7c-0.04-1.38-1.09-10.07,0.27-10.84c2.14-1.19,8.14,1.53,10.27,2.15
		c4.42,1.27,8.77,2.79,13.08,4.4c8.41,3.16,16.21,6.9,25.19,8.16c9.33,1.3,18.47,2.07,27.21,5.94c-6.19-1.33-12.55-1.24-18.76-2.35
		c-2.72-0.49-5.4-1.18-8.06-1.91c-0.85-0.23-4.7-1.84-3.39,0.69c1.59,3.05,12.5,3.87,15.45,4.14c3.17,0.29,6.36,0.14,9.54,0.26
		c1.83,0.07,5.85,1.68,7.37,0.98c1.82-2.47,32.92,19.72,37.26,22.01c-1.81-3.19-7.59-5.66-10.49-7.81
		c-3.72-2.76-7.4-5.58-11.17-8.26c-7.16-5.09-14.6-9.57-23.05-12.17c-8.93-2.75-18.16-2.64-27.27-4.29
		c-9.23-1.67-16.65-6.15-25.41-9.19c-4.68-1.62-9.43-2.8-14.22-4.04c-5.08-1.32-3.93-4.09-3.99-9.07
		c-0.05-4.33-0.98-9.74,0.12-13.97c0.25-0.96,1.91-2.95,1.72-3.98c-0.13-0.7-1.37-0.68-1.81-1.52c-0.68-1.29,0.14-5.32,0.21-6.81
		c0.12-2.82,0.26-5.63,0.43-8.44c0.27-4.48-0.31-10.53,1.02-14.76c1.15-3.64,4.13-6.48,5.28-10.3c0.9-2.99,2.12-10.27-0.59-12.7
		c0.65,6.88-0.52,13.66-4.31,19.54c-1.13-4.65,0.31-10.56,0.66-15.28c0.31-4.19-0.52-10.71,1.03-14.6
		c2.15-5.37,14.33-2.13,19.19-1.73c11.12,0.91,22.25,0.77,33.38,1.49c10.29,0.67,19.73,3.49,29.22,7.47
		c9.34,3.93,18.17,9,27.67,12.55c9.41,3.51,19.29,5.69,29.31,6.38c10.37,0.71,20.66-1.03,31.02-0.16c10.77,0.9,21.42,3.6,32,5.72
		c-3.33-2.27-7.64-2.79-11.45-3.84c-4.18-1.15-8.38-2.13-12.67-2.77c-8.19-1.23-16.5-1.49-24.77-1.18
		c-8.19,0.31-16.09,0.55-24.2-0.93c-3.78-0.69-7.51-1.63-11.17-2.75c-1.97-0.61-10.32-2.35-10.66-4.58
		c4.95,1.03,9.29-0.92,12.96-4.13c1.87-1.63,3.22-4.59,5.04-5.99c1.95-1.5,2.57-0.76,5.22,0.23c5.6,2.1,11.16,4.24,16.94,5.8
		c2.83,0.76,5.7,1.43,8.62,1.8c1.49,0.19,5.19,1.3,6.5,0.39c-7.67-1.82-14.94-4.06-22.39-6.63c-8.07-2.79-16.26-4.66-23.96-8.47
		c-13.34-6.6-25.99-18.43-40.77-21.39c-15.35-3.08-29.37-7.35-43.25-14.8c-11.76-6.31-26.87-12.37-26.05-28.18
		c0.27-5.27,2.65-10.56,6.56-14.14c5.29-4.84,12.09-4.88,18.86-4.78c8.06,0.13,16.19,0.83,24.06,2.68c7.9,1.86,14.98,5.52,22.5,8.37
		c7.41,2.81,14.95,3.99,22.63,5.7c8.08,1.81,15.62,5.32,22.76,9.44c13.44,7.78,26.75,14.74,41.15,20.69
		c8.48,3.51,17.32,5.38,25.91,8.44c7.46,2.66,14.41,6.56,20.98,10.93c14.21,9.47,29,21.49,45.95,25.56
		c-6.71-4.21-13.97-7.45-20.56-12.04c5.98,0.59,11.82,0.22,17.77-1.3c-9.2,0-18.1,0.76-26.49-3.76c-8.6-4.63-16.1-11.16-24.79-15.78
		c-3.22-1.71-9.25-3.1-11.39-6.08c-2.63-3.65-3.31-10.46-4.74-14.74c-1.67-4.99-4.23-9.93-4.87-15.19
		c-0.58-4.75-0.06-9.68-0.06-14.46c-1.08,1.35-0.85,3.35-1.44,4.89c-2.17-0.64-3.16-7.86-3.76-9.9c-1.1-3.69-2.08-7.41-2.98-11.15
		c-1.78-7.4-3.67-14.94-3.45-22.61c0.36-13.05,6.62-26.66,16.62-35.17c4.39-3.73,9.43-6.03,15.29-5.41
		c3.7,0.39,11.91,3.23,11.31,8.13c-0.29,2.33-3.66,5.75-5.08,7.63c-2.42,3.19-3.33,4.44-3.07,8.51c0.25,3.94,1.21,19.13,6.29,20.19
		c-1.65-6.08-3.81-12.22-4.44-18.51c-0.66-6.62,4.37-9.07,6.98-14.64c1.43,8.99-1.39,17.43-1.09,26.39
		c0.28,8.44,4.86,14.91,9.47,21.61c2.24,3.25,4.49,6.5,6.6,9.84c1.67,2.65,6.5,8.87,6.15,12.21c-0.65,6.1-14.34,0.51-18.35,1.58
		c4.08,2.45,9.15,2.87,13.78,2.19c1.34-0.2,3.86-1.61,5.01-0.92c1.07,0.64,2.09,5.53,2.05,6.71c-0.33,8.3-20.01,1.72-20.52,3.7
		c-0.62,2.39,9.4,2.36,10.75,2.25c2.79-0.24,9.13-3.69,10.62-2.17c0.84,0.85,1.49,5.24,2.05,6.51c0.91,2.06,2.04,4.02,3.19,5.96
		c2.44,4.1,4.85,8.22,7.28,12.33c5.34,9.04,10.8,17.83,14.66,27.63c3.95,10.02,7.75,20.13,10.9,30.43
		c6.47,21.18,10.86,43.09,16.25,64.57c5.15,20.53,13.71,40.71,23.86,59.27c10.58,19.33,24.01,36.78,34.9,55.9
		c5.39,9.46,10.03,19.35,14.17,29.42c3.99,9.69,8.94,18.84,13.26,28.36c1.03,2.27,1.6,2.87,0.85,5.1c-0.63,1.88-2.24,3.89-3.31,5.51
		c-2.85,4.31-6.12,8.32-9.65,12.09c-6.7,7.16-14.25,13.58-22.15,19.37c-18.07,13.26-38.78,23.54-60.16,30.24
		c-11.15,3.49-22.95,6.27-34.66,6.8c-5.53,0.25-11.21,0.16-15.73-3.4C427.45,499.39,423.3,493.39,427.41,489.44z M192.78,231.36
		 M447.41,529.27c-6.83-1.38-11.06-5.22-14.23-11.25c-1.87-3.55-3.71-7.14-5.3-10.83c-0.56-1.3-3.84-7.39-1.34-6.49
		c0.95,0.34,2.26,2.6,3.15,3.31c1.22,0.98,2.55,1.74,4,2.32c3.11,1.26,6.49,1.52,9.81,1.51c8.2-0.04,16.52-1.28,24.52-2.99
		c31.65-6.75,62.55-22.68,86.92-43.88c12.74-11.08,24.15-24.43,28.39-41.11c3.81,6.39,11.72,14.69,11.72,22.46
		c0,7.07-5.55,14.8-9.66,20.15c-10.21,13.31-23.89,24.35-37.74,33.65c-14.24,9.57-29.62,17.76-45.6,24
		C485.35,526.64,465.43,532.91,447.41,529.27z"/>
	<path d="M277.69,237.05c2.95-0.45,7.83,3.78,10.28,5.03c3.53,1.8,7.14,3.42,10.81,4.91c7.61,3.1,15.49,5.88,23.43,8
		c7.67,2.05,15.94,3.17,23.87,3.57c8.03,0.4,15.58-1.85,23.34-3.55c-0.83,2.01-7.43,3.3-9.13,3.77c-3.48,0.97-7.05,1.59-10.65,1.8
		c-8.71,0.5-17.8-1.15-26.25-3.13c-8.47-1.99-16.57-4.97-24.52-8.46C291.46,245.73,283.42,242.94,277.69,237.05z"/>
	<path d="M459.28,283.05c-5.82-5.66-8.68-15.5-11.52-22.91c-3.17-8.26-5.75-16.73-7.55-25.4c-1.71-8.26-1.46-17.01-5.64-24.44
		c-2.1-3.74-3.76-7.33-5.02-11.45c-0.68-2.23-4.15-7.78-2.25-9.59c3.65,6.26,4.6,13.66,8.42,19.85c4.5,7.29,4.25,15.31,5.91,23.53
		C445.01,249.52,450.95,267.99,459.28,283.05z"/>
	<path d="M297.72,234.65c-9.27-2.46-18.12-5.33-27.66-6.79c-4.49-0.69-9-0.96-13.51-1.48c-1.03-0.12-11.18-2.18-9.56-3.49
		c1.26-1.02,9.75,1.46,11.65,1.67c4.89,0.54,9.78,1.03,14.64,1.82C281.78,227.76,290.6,229.48,297.72,234.65z"/>
	<path d="M318.42,350.76c3.78-1.53,10.17-0.52,14.24-0.65c4.68-0.16,9.4-0.38,14.08-0.13c9.46,0.5,17.97,2.25,26.1,7.17
		c-1.06,0.77-9.91-3.53-11.79-3.91c-4.35-0.88-8.81-1.22-13.23-1.44c-4.85-0.24-9.72-0.23-14.58-0.14
		C329.46,351.74,321.44,353.65,318.42,350.76z"/>
	<path d="M244.44,223.29c-9.22-0.71-18.19-4.1-27.27-5.78c-3.91-0.72-7.78-1.55-11.66-2.42c-0.74-0.17-10.97-2.42-8.92-3.4
		c1.95-0.94,8.09,1.35,10.21,1.76c4.32,0.84,8.62,1.76,12.94,2.6c4.53,0.88,8.86,2.01,13.24,3.44
		C235.69,220.36,242.93,221.28,244.44,223.29z"/>
	<path d="M518.45,400.11c-6.77-0.57-13.49-2.75-17.91-8.18c-2.53-3.11-4.37-7-3.93-11.08c0.19-1.78,3.57-10.35,4.38-6.41
		c0.18,0.87-1.92,4.14-2.15,5.31c-0.35,1.83-0.29,3.6,0.21,5.39c1.07,3.89,4.12,6.98,7.42,9.14c3.37,2.2,7.23,3.34,11.2,3.81
		c0.95,0.11,3.85-0.34,4.08,1.03C521.98,400.53,519.03,400.11,518.45,400.11z"/>
	<path d="M467.44,204.53c5.18,5.37,5.5,17.72,6.24,24.71c0.91,8.65-0.79,18.28,3.27,26.28c-5.65-6.63-3.83-16.49-4.6-24.54
		c-0.43-4.49-1.06-8.96-1.81-13.41C469.8,213.19,468.02,208.88,467.44,204.53z"/>
	<path d="M444.96,286.82c-8.33-14.01-13.7-29.1-16.02-45.28C433.31,256.97,438.44,272.15,444.96,286.82z"/>
	<path d="M381.02,294.85c-6.14-0.11-12.17-2.36-17.87-4.48c-2.25-0.84-15.52-5.39-14.83-8.51c0.34-1.54,4.93,1.89,5.6,2.26
		c2.72,1.48,5.53,2.8,8.39,4.01C368.41,290.71,374.72,292.77,381.02,294.85z"/>
	<path d="M238.19,105.6c0.09-5.35-2.25-10.41-6.36-13.83c-1.16-0.97-5.86-2.57-6.39-3.64c-1.18-2.42,2.54-0.79,3.78-0.26
		c4.96,2.11,8.83,6.63,10.21,11.85c0.46,1.76,1.62,6.91,0.3,8.47C237.95,110.29,238.19,106.9,238.19,105.6z"/>
	<path d="M533.37,458.21c-5.38-3.68-9.9-8.45-14.41-13.12c-2.21-2.28-4.41-4.57-6.59-6.88c-0.54-0.57-5.92-5.43-3.49-5.91
		c1.55-0.31,9.63,9.89,10.97,11.33C524.37,448.46,529.01,453.24,533.37,458.21z"/>
	<path d="M402.69,169.32c-4.73,1.51-12.96-2.5-17.22-4.41c-1.14-0.51-12.98-8.03-10.58-8.77c1.08-0.33,3.79,2.75,4.87,3.5
		c2.36,1.63,4.96,2.92,7.59,4.04C392.28,165.77,398.04,166.71,402.69,169.32z"/>
	<path d="M220.38,87.47c-3.56,3.84-5.98,8.53-7.38,13.55c-0.4,1.44-1.04,11.2-2.64,11.42c-1.52,0.21,0.75-11.77,1.22-13.34
		C212.95,94.57,215.57,89.11,220.38,87.47z"/>
	<path d="M428.22,281.08c-6.38-8.61-12.43-17.39-18.2-26.68C412.44,255.34,427.5,277.44,428.22,281.08z"/>
	<path d="M267.79,239.32c2.62,8.19-3.83,23.91-10.22,24.31c4.24-3.19,6.3-7.91,7.9-12.8c0.7-2.14,1.61-4.39,1.74-6.64
		C267.31,242.29,266.27,240.98,267.79,239.32z"/>
	<path d="M444.74,299.62c4.88,8.93,10.62,16.18,16.83,24.22C454.13,317.09,446.84,310.22,444.74,299.62z"/>
	<path d="M249.84,312.53c7.7-6.88,11.81-15.86,7.91-25.97c4.73,0.15,2.9,11.56,2.05,14.14C258.19,305.61,254.67,310.4,249.84,312.53
		z"/>
	<path d="M215.94,116.5c4.4-1.12,8.82,1.75,13.56,0.03c1.63-0.59,9.28-6.82,6.02-1.74C232.08,120.16,220.26,120.74,215.94,116.5z"/>
	<path d="M554.54,446.08c-4.91-3.57-9.67-7.34-14.3-11.27c-1.43-1.22-10.65-7.75-10.33-9.16c0.33-1.43,10.24,7.22,11.25,8.12
		c2.36,2.07,4.72,4.15,7.07,6.22C549.94,441.5,553.82,443.73,554.54,446.08z"/>
	<path d="M432.38,310.02c6.89,7.47,12.94,15.67,19.73,23.23C448.01,331.25,435.02,314.81,432.38,310.02z"/>
	<path d="M257.98,204.85c-2.86-4.7-0.5-17.87,4.16-22.66C259.15,189.46,257.65,196.99,257.98,204.85z"/>
	<path d="M258.62,126.54c8.46-4.59,15.09-10.09,18.51-18.66C277.92,113.95,265.23,127.15,258.62,126.54z"/>
	<path d="M278.7,195.27c0.94,4.31-0.81,8.39-2.73,12.18c-0.55,1.08-4.74,9.1-6.13,8.26c-1.62-0.97,3.06-6.33,3.86-7.73
		C276.06,203.85,277.76,199.93,278.7,195.27z"/>
	<path d="M305.89,115.32c-0.97,3.97-2.09,8.08-4.52,11.43c-0.77,1.05-7.02,7.39-8.23,5.44c-0.41-0.65,6.13-5.25,7.01-6.36
		C301.21,124.5,305.12,115.02,305.89,115.32z"/>
	<path d="M402.27,260.57c2.59,3.51,5.08,7.09,7.45,10.74c0.59,0.91,6.08,9.85,5.14,9.86c-1.27,0.02-5.9-8.83-6.69-10.01
		C406.95,269.33,400.84,261.63,402.27,260.57z"/>
	<path d="M429.77,128.68c-6.9,0.37-11.96,3.65-16.43,8.27C414.23,131.79,425.19,126.04,429.77,128.68z"/>
	<path d="M336.57,328.06c7.41,0.89,14.43,4.24,22.08,3.78C353.42,333.04,346.48,331.96,336.57,328.06z"/>
	<path d="M266.3,295.37c-1.3,3.79-2.9,6.89-5.49,9.44c1.3-4.06,4.9-7.42,3.73-12.01c3.94,2.13,4.65,7.15,1.04,9.98
		C266.9,300.35,267.44,298.19,266.3,295.37z"/>
	<path d="M252.56,256c2.08-3.08,4.72-5.72,6.47-9.03c0.59-1.12,1.13-5.57,2.5-4.78C265.4,244.43,254.06,255,252.56,256z"/>
	<path d="M269.35,189.6c0.6,3.03,0.16,6.12-0.83,9.01c-0.21,0.62-2.01,6.12-2.91,6.04c-1.73-0.15,0.9-4.82,1.21-5.69
		C267.89,195.9,269.05,192.85,269.35,189.6z"/>
	<path d="M391.59,246.13c-5.31-1.96-10.61-4-14.62-8.3C381.82,240.63,386.81,243.17,391.59,246.13z"/>
	<path d="M427.43,101.22c-0.95,0.38-10.85,1.02-10-1.12C417.83,99.09,426.19,101.01,427.43,101.22z"/>
	<path d="M248.04,250.34c0.66-3.78,2.33-7.17,4.03-10.55C251.92,243.75,249.71,246.94,248.04,250.34z"/>
	<path d="M411.42,72.49c-0.09-1.02-3.05-8.9-2.53-9.04C411.31,62.77,411.75,71.28,411.42,72.49z"/>
	<path d="M291.38,123.17c0.5-4.05,2.4-7.37,5.37-10.1C294.97,116.44,292.74,119.57,291.38,123.17z"/>
	<path d="M298.32,119.22c0.31,2.28-2.34,7-4.85,8.13C295.18,124.48,296.78,121.81,298.32,119.22z"/>
	<path d="M265.27,302.63"/>
	<path d="M127.96,222.99c0.49-5.51,1.74-11.17,4.93-15.8c0.44-0.64,3.47-4.97,4.42-3.47c0.75,1.18-2.02,2.85-2.76,3.77
		c-3.05,3.8-4.57,9.73-4.71,14.51c-0.04,1.37,1.7,6.88,0.51,7.67C128.57,230.87,128,223.67,127.96,222.99z"/>
	<path d="M169.91,185.88c0.07,2.79-2.43,11.14-6.58,10.61c-2.39-0.31,1.81-3.6,2.21-4.15c1.53-2.05,2.49-4.5,2.49-7.08
		c0-2.67-1.03-5.35-2.54-7.54c-0.55-0.79-3.9-3.68-2.15-4.1C167.32,172.69,169.96,183.44,169.91,185.88z"/>
	<path d="M151.76,165.18c-5.04,2.48-8.99,6.48-11.35,11.57c-1.15,2.48-1.87,5.1-2.45,7.76c-0.28,1.28-0.2,6.26-0.98,6.79
		c-1.64,1.12-0.8-4.57-0.76-4.8c0.69-3.7,1.43-7.53,3.05-10.95C141.42,171.03,146.08,164.55,151.76,165.18z"/>
	<path d="M156.03,223.2c-2.02-4.79-2.79-9.63-6.84-13.28c-1.32-1.2-9.35-4.42-7.3-5.49c2.62-1.36,8.49,3.73,9.97,5.47
		C154.84,213.39,157.04,218.59,156.03,223.2z"/>
	<path d="M188.31,226.2c2.72,7.25-4.31,19-9.65,19.87C184.56,240.45,188.56,234.78,188.31,226.2z"/>
	<path d="M157.82,195.54c-3.7,0.66-7.54,0.62-11.21-0.26c-0.78-0.19-7.32-1.85-6.44-3.11C140.33,191.96,156.11,195.24,157.82,195.54
		z"/>
	<path d="M145.7,229.92c-2.12,1.5-10.9,4.54-12.67,1.38c-0.95-1.68,4.53-0.86,5.06-0.86C140.59,230.45,143.24,229.29,145.7,229.92z"
		/>
	<path d="M148.94,230.22c0.72-0.69,5.56-7.7,6.14-5.96C155.9,226.69,150.6,229.78,148.94,230.22z"/>
	<path d="M154.14,166.83c2.85,0.58,4.68,2.6,6.19,5.08C159.04,171.06,153.31,168.15,154.14,166.83z"/>
	<path d="M170.05,274.58c0.39-4.96,2.77-9.35,6.79-12.3c0.31-0.22,5.1-3.35,4.32-1.07c-0.37,1.08-4.41,2.91-5.34,3.86
		c-4.11,4.22-4.29,8.91-3.47,14.38c0.14,0.92,1.16,4.69-0.91,3.28C169.96,281.72,170.2,276.01,170.05,274.58z"/>
</g>
</svg>
