<?xml version="1.0" encoding="utf-8"?>
<!-- Generator: Adobe Illustrator 23.0.6, SVG Export Plug-In . SVG Version: 6.00 Build 0)  -->
<svg version="1.1" id="Layer_1" xmlns="http://www.w3.org/2000/svg" xmlns:xlink="http://www.w3.org/1999/xlink" x="0px" y="0px"
	 viewBox="0 0 1817.1 977.9" style="enable-background:new 0 0 1817.1 977.9;" xml:space="preserve">
<style type="text/css">
	.st0{fill:#FBBB0E;}
</style>
<g id="Capa_17">
	<path class="st0" d="M357.4,574l10.8,2.7c3,0.8,6,1.4,8.9,2.6l-1.8-0.8c0.8,0.3,1.6,0.7,2.4,1.2c0.2,0.2,1.6,1.1,0.5,0.3
		s0.2,0.2,0.4,0.4c0.3,0.3,0.5,0.6,0.8,0.9c-0.7-1-0.9-1.1-0.4-0.5c0.2,0.2,0.3,0.5,0.5,0.7c0.5,0.7,0.9,1.5,1.3,2.2
		c2.9,4.8,7.5,8.9,13.4,8.6s10.1-4.8,12.1-10.1c1.6-4.2,0.6-8.7,1.1-13l-0.3,2c0.1-1,0.4-2,0.8-3L407,570c0.2-0.5,0.4-1,0.7-1.4
		c0.3-0.5,1.5-1.8,0-0.1c0.6-0.7,1.2-1.4,1.9-2.1s1.4-1.3,2.1-1.9c0.2-0.2,0.4-0.3,0.6-0.5c-1,0.8-1.2,0.9-0.6,0.5
		c0.5-0.3,0.9-0.5,1.3-0.8l-1.8,0.8c0.4-0.1,0.7-0.2,1-0.3l-2,0.3c0.4,0,0.6,0,1,0l-2-0.3l0.3,0.1l-1.8-0.8c0.2,0.1,0.4,0.2,0.6,0.3
		c3.4,2,8.4,0.8,10.3-2.7s0.9-8.1-2.7-10.3c-7.1-4.3-14.7,1.8-19.1,7.2c-1.1,1.3-2.1,2.7-2.8,4.2c-1.1,2.3-1.6,4.4-1.9,6.9
		c-0.3,2.8,0.1,5.7-0.2,8.5l0.3-2c-0.1,1-0.4,2-0.8,2.9l0.8-1.8c-0.2,0.4-0.4,0.8-0.6,1.2c-0.4,0.7-1,0.7,0.4-0.5
		c-0.2,0.2-0.5,0.5-0.7,0.7c1.1-0.8,1.4-1,0.8-0.6c-0.2,0.1-0.4,0.2-0.5,0.3l1.8-0.8c-0.4,0.2-0.8,0.3-1.2,0.3l2-0.3
		c-0.5,0.1-0.9,0.1-1.4,0l2,0.3c-0.5-0.1-0.9-0.2-1.4-0.4l1.8,0.8c-0.3-0.2-0.6-0.4-1-0.5c1,0.8,1.2,1,0.8,0.6
		c-0.1-0.1-0.3-0.2-0.4-0.4c-0.2-0.2-0.6-0.5-0.8-0.8c0.2,0.4,1.1,1.5,0.4,0.4c-0.9-1.4-1.6-2.8-2.6-4.2c-2.5-3.5-5.6-6-9.6-7.6
		c-3.1-1.3-6.3-2.1-9.5-2.9l-11.1-2.8c-3.8-1-8.3,1.2-9.2,5.2S353.3,572.9,357.4,574L357.4,574L357.4,574z"/>
	<path class="st0" d="M416.5,567c3.9,0,7.7-3.5,7.5-7.5s-3.3-7.5-7.5-7.5c-3.9,0-7.7,3.5-7.5,7.5S412.3,567,416.5,567L416.5,567z"/>
	<path class="st0" d="M420.7,551.7c-0.2-0.7-0.3-1.4-0.4-2.1l0.3,2c-0.2-1.4-0.2-2.8,0-4.2l-0.3,2c0.2-1.5,0.6-3,1.2-4.5l-0.8,1.8
		l0.2-0.4c1.1-2.5,1.5-5.1,0-7.6c-1.3-2.1-3.9-3.9-6.5-3.7c-3.1,0.2-6.3,0.2-9.4-0.3l2,0.3c-4-0.6-7.9-1.6-11.6-3.2l1.8,0.8
		c-3.6-1.5-7-3.5-10.1-5.8c-1-0.8,1.5,1.2,0,0c-0.4-0.3-0.8-0.6-1.1-1c-0.7-0.6-1.3-1.2-1.9-1.8c-0.7-0.7-1.4-1.4-2.1-2.2
		c-0.3-0.4-0.7-0.8-1-1.2c-0.2-0.2-1.2-1.6-0.4-0.4s-0.1-0.2-0.3-0.5c-0.3-0.4-0.6-0.8-0.9-1.3c-1.8-2.5-4.4-4.5-7.6-4.5
		c-4.7,0-8.3,3-9.8,7.4c-0.7,2.1-0.8,4.5-1.2,6.7l-1.2,7.8c-0.3,2.1-0.3,3.9,0.8,5.8c0.9,1.6,2.7,3,4.5,3.5c1.9,0.4,4.1,0.3,5.8-0.8
		c1.5-1,3.2-2.6,3.5-4.5l1.2-7.8c0.4-2.3,0.4-4.9,1.3-7.1l-0.8,1.8c0.4-0.7,0.2-0.5-0.6,0.6c-1.1,0.8-1.3,1-0.7,0.6l-1.8,0.8
		l0.3-0.1l-2,0.3c0.2,0,0.4-0.1,0.6,0l-2-0.3l0.3,0.1l-1.8-0.8c-0.5-0.2-0.9-0.8-1.3-1.2c-0.7-0.9-0.3-0.3-0.1-0.1
		c0.2,0.3,0.4,0.6,0.6,0.9c0.8,1.1,1.7,2.2,2.5,3.3c1,1.3,2.1,2.5,3.3,3.6c2.7,2.6,5.7,5,8.9,7c5.8,3.8,12.6,6.5,19.4,7.6
		c4.2,0.7,8.4,1.1,12.7,0.7l-6.5-11.3c-2.5,5.4-3.2,11.1-1.7,17c1,3.8,5.4,6.5,9.2,5.2S421.8,555.7,420.7,551.7L420.7,551.7
		L420.7,551.7z"/>
	<path class="st0" d="M358.6,529c-0.9,4.5-0.6,8.7,0.5,13.1c0.7,3.1,1.8,6.1,2.2,9.2l-0.3-2c0.2,1.9,0.3,3.7,0,5.6l0.3-2
		c-0.2,1.1-0.4,2.2-0.9,3.2l0.8-1.8c-0.3,0.7-0.7,1.2-1,1.8c-0.3,0.6,1.4-1.5,0.4-0.5c-0.5,0.4-1.6,1.3,0.4-0.2l9.1,11.8
		c3.2-2.7,6-6.2,7.9-10c2.3-4.4,3.4-8.8,4-13.7l-0.3,2c0-0.3,0.1-0.6,0.2-0.9l-0.8,1.8l-2.1,2l-1.8,0.8l0.3-0.1l-2,0.3l0.3,0l-2-0.3
		c0.2,0,0.3,0,0.5,0.1l-1.8-0.8c-0.8-0.5-1.4-1.1-1.9-1.8c0.1,0.2,0.2,0.4,0.3,0.6l-0.8-1.8c0.2,0.5,0.2,0.9,0.3,1.4l-0.3-2
		c0.3,2.8,0.3,5.5,0,8.3l0.3-2c-0.4,2.9-1.1,5.7-2.3,8.4l0.8-1.8c-0.4,0.9-0.8,1.9-1.3,2.8l13.7,1.8c-0.1-0.6-0.2-1.2-0.3-1.8l0.3,2
		c-0.4-2.6-0.4-5.2,0-7.7l-0.3,2c0.3-2,0.8-4,1.5-6l-0.8,1.8c0-0.1,0.5-0.8,0.5-0.9l-0.8,1c0.5-0.5,0.3-0.3-0.8,0.6l-1.8,0.8
		c0.2-0.1,0.4-0.2,0.6-0.2l-2,0.3c0.2,0,0.5,0,0.7,0l-2-0.3l0.3,0.1l-1.8-0.8c0.2,0.1,0.4,0.2,0.6,0.3c-1-0.9-1.3-1-0.8-0.5
		c-1.5-1.5-0.6-0.7-0.2,0l-0.8-1.8c0.5,1.3,0.9,2.7,1.1,4.1l-0.3-2c0.2,1.4,0.2,2.8,0,4.3l0.3-2c-0.1,1-0.4,2-0.7,2.9h14.5
		c-0.3-0.9-0.5-1.9-0.7-2.8l0.3,2c-0.1-1.3-0.1-2.5,0-3.8l-0.3,2c0.2-1.2,0.5-2.5,1-3.6l-0.8,1.8c0.2-0.4,0.3-0.7,0.5-1.1l0.2-0.3
		c-0.4,0.7-1,1.3-1.6,1.8l-1.8,0.8l0.3-0.1l-2,0.3c0.2,0,0.4,0,0.6,0l-2-0.3l0.2,0.1l-1.8-0.8l0.2,0.1c-0.6-0.3-1.1-0.8-1.5-1.3
		c-0.8-1-0.3-0.3-0.1,0l-0.8-1.8c0.1,0.4,0.3,0.8,0.3,1.2l-0.3-2c0.3,2,0.2,4-0.1,6l0.3-2c-0.3,2-0.8,4-1.6,5.9l0.8-1.8
		c-0.2,0.4-0.4,0.8-0.5,1.2l13.7,1.8c-0.4-1-0.7-2-0.8-3.1l0.3,2c-0.1-1.1-0.1-2.1,0-3.2l-0.3,2c0.2-1.2,0.5-2.4,0.9-3.5l-0.8,1.8
		c0.2-0.4,0.3-0.7,0.5-1.1c0.2-0.3,0.9-1.3,0-0.2c-1.1,1.4,0.1-0.1,0.1,0c0,0.4-1.7,1.1-0.4,0.4l-1.8,0.8c0.2-0.1,0.4-0.1,0.6-0.2
		l-2,0.3c0.2,0,0.4,0,0.6,0l-2-0.3l0.3,0.1l-1.8-0.8c-0.7-0.5-1.3-1-1.8-1.7l-0.8-1.8c0.1,0.4,0.2,0.8,0.3,1.2l-0.3-2
		c0.3,2.3,0.2,4.6,0,6.9l0.3-2c-0.3,2.3-0.9,4.5-1.8,6.7l0.8-1.8c-0.5,1.1-1,2.1-1.5,3.1l13.7,1.8c-0.3-1-0.5-2-0.7-3l0.3,2
		c-0.2-1.8-0.2-3.6,0-5.4l-0.3,2c0.3-1.8,0.8-3.5,1.5-5.2l-0.8,1.8c0.4-1,0.9-1.9,1.4-2.7c0.3-0.4,0.6-0.8,0.9-1.3
		c-0.8,1-0.9,1.2-0.4,0.6c0.5-0.5,0.3-0.4-0.7,0.5l-1.8,0.8l0.3-0.1l-2,0.3h0.3l-2-0.3l0.2,0.1l-1.8-0.8c-2-2.4-2.6-3.1-2-1.9
		l-0.8-1.8c0.1,0.3,0.2,0.5,0.2,0.8l-0.3-2c0.1,0.8,0,1.5-0.1,2.2l0.3-2c-0.5,3.6-1.4,7.1-2.8,10.5l0.8-1.8c-0.5,1.1-1,2.2-1.6,3.3
		l13.7,1.8c0-0.2-0.1-0.5-0.1-0.7l0.3,2c-0.2-1.3-0.2-2.6,0-4l-0.3,2c0.2-1.3,0.5-2.6,1-3.8l-0.8,1.8c0.3-0.7,0.6-1.3,1-1.9
		c0.2-0.3,0.4-0.6,0.6-0.9c0.7-1.2-1.2,1.4-0.3,0.4c0.5-0.5,1-1.1,1.5-1.5c0.2-0.2,1.1-0.9,0.1-0.1c-1.1,0.9,0.2-0.1,0.4-0.2
		l-11.3-6.5c0,1.6,0,3.2-0.2,4.8l0.3-2c-0.4,2.6-1,5.1-2,7.5l0.8-1.8c-0.6,1.3-1.2,2.6-2,3.9l13.7,5.8c0.4-1.5,0.9-2.9,1.5-4.3
		l-0.8,1.8c0.9-2.2,2-4.2,3.3-6.2c0.3-0.5,0.6-0.9,0.9-1.3c0.6-0.8-0.3,0.3-0.4,0.5c0.1-0.2,0.4-0.4,0.5-0.6c0.8-1,1.6-1.9,2.5-2.7
		l-12.8-5.3c0.1,0.8,0.1,1.6,0,2.5l0.3-2c-0.1,0.7-0.3,1.3-0.6,2l0.8-1.8c-0.2,0.5-0.5,1-0.8,1.4c-2.2,3.3-0.8,8.4,2.7,10.3
		c3.8,2,8,0.8,10.3-2.7c1.8-2.7,2.8-6.4,2.4-9.7c-0.2-1.3-0.3-2.6-1-3.8c-0.8-1.4-2.1-2.4-3.6-3.1c-2.8-1.2-6-0.6-8.2,1.5
		c-5.4,5.4-9.3,12.1-11.4,19.5c-1,3.6,1,7.4,4.3,8.8s7.4,0.2,9.4-3.1c3.6-6,5.5-13,5.3-20c-0.1-5.5-6.3-9.6-11.3-6.5
		c-3.6,2.3-6.8,5.6-8.5,9.6c-2.1,4.7-2.7,9.4-1.7,14.4c0.5,2.9,3.5,5,6.2,5.4c2.8,0.4,6.1-0.9,7.5-3.6c2.3-4.3,4-9,4.9-13.8
		c0.5-2.9,1.1-6,0.2-8.9c-1.7-5.3-7.7-8-12.6-5.1c-2.4,1.4-4.2,4-5.5,6.5c-1.1,2.1-2.1,4.3-2.7,6.7c-1.2,4.8-1.2,9.8,0.2,14.5
		c0.9,2.9,3.3,5,6.2,5.4s6-1,7.5-3.6c2.4-4.2,3.8-8.7,4.4-13.5c0.7-5.4,0.5-12.4-4.7-15.5c-3.5-2-7.7-1.3-10.8,1.1
		c-2.4,1.9-3.8,4.3-4.9,7.1c-1.6,4.2-1.7,9.5,0,13.6c1.1,2.9,3,4.9,6.2,5.4c2.7,0.4,6.2-0.9,7.5-3.6c1.9-4.1,3.1-8.3,3.4-12.9
		c0.3-5-0.7-10.3-5.2-13.1c-3.5-2.2-8-1.3-10.9,1.3c-1.9,1.7-2.9,4.2-3.7,6.5c-1.3,4.1-1.3,9,0.1,13c1,3,3.8,5.7,7.2,5.5
		s6.2-2.2,7.2-5.5c1.4-4.3,1.4-9.3,0.1-13.7c-0.8-2.5-1.9-4.8-3.7-6.7c-2.5-2.6-6.4-3.7-9.9-2.7c-5.4,1.6-7.5,7.3-8.4,12.4
		s-0.8,9.5,0.2,14.4c0.6,2.9,3.5,5,6.2,5.4s6.1-0.9,7.5-3.6c3.3-6.3,5.1-13.4,4.8-20.5c-0.2-4.5-1-9.7-5.4-12.1
		c-3.4-1.9-7.6-1.3-10.3,1.3c-2.2,2.2-2.5,4.9-2.9,7.8l0.3-2c-0.3,2.4-1,4.7-1.9,6.9l0.8-1.8c-0.8,2-1.9,3.8-3.1,5.5
		c-0.5,0.6-0.3,0.4,0.5-0.6c-0.2,0.2-0.3,0.4-0.5,0.6c-0.3,0.4-0.7,0.8-1,1.2c-0.7,0.8-1.5,1.5-2.3,2.2c-1.3,1.1-2.3,3.6-2.2,5.3
		s0.6,3.2,1.6,4.5c1,1.2,2.3,2.3,3.9,2.7c1.8,0.4,4.2,0.4,5.8-0.8c1.9-1.4,3.1-2.5,4.5-4.4c0.9-1.2,1.5-2.6,2-4c1-2.5,1.3-5.3,1.2-8
		c-0.1-5.9-2.5-11.3-3.3-17.1l0.3,2c-0.2-1.5-0.2-3-0.1-4.6l-0.3,2c0.1-0.5,0.1-0.9,0.2-1.4c0.8-3.8-1.1-8.3-5.2-9.2
		C364.1,522.9,359.5,524.9,358.6,529L358.6,529L358.6,529z"/>
	<path class="st0" d="M380.1,515.6c1.8,3.7,3.6,7.3,5.6,10.8l3.2-1.9c-1.5-2.2-2.6-4.5-3.2-7.2l-3.4,1.4l4.8,11l2.9-2.3
		c-1.9-2-4.1-4.3-4.4-7.2l-3.5,1c2.1,3.1,4.1,6.3,5.9,9.7l2.6-2.6c-2.4-1.8-4.2-4.2-5.5-6.9l-3.2,1.9c1.1,1.5,2,3.2,2.7,4.9l3.4-1.4
		c-1.3-1.7-2.6-3.5-3.5-5.5c-0.4-0.9-0.7-1.8-0.9-2.8c-0.1-0.5-0.1-1-0.1-1.6c0-0.3,0-0.6,0-0.8c0.1-0.4,0-0.3-0.3,0.2l-1,0.3
		c-0.3-0.2-0.3-0.2-0.1,0c0.1,0.2,0.3,0.5,0.4,0.7c0.2,0.4,0.5,0.9,0.6,1.4c0.2,0.9,0,1.5-0.7,2.1h2.6c-1.1-0.9-1.2-2.2-1.2-3.6
		c0-1.8,0.4-3.7,0.6-5.5s0.6-3.4,1.8-4.8c1.1-1.3,2.5-2.3,3.9-3.3l-2.3-2.9c-1.9,2.2-3.9,4.4-5.1,7.1c-0.6,1.3-1,2.7-1.1,4.1
		c-0.1,1.7,0.3,3.2,0.4,4.9l3.7-0.5c-0.7-2.7-0.7-5.4-0.2-8l-3.7-0.5c-0.1,1.3-0.5,2.6-1,3.7c-0.3,0.6-0.6,1.2-1,1.8
		c-0.1,0.2-1.3,1.4-1.3,1.5l1.2,0.5l-0.1-0.3c0.1-0.2,0-0.5,0.1-0.6c0.1-0.5,0.2-1.1,0.5-1.6c0.5-1.2,1.3-2.2,2.3-3l-3.2-1.3
		c0,1.2-0.2,2.5-0.7,3.6c-0.2,0.5-0.5,1-0.9,1.5c-0.3,0.5-0.9,0.9-1.1,1.3c0,0-0.1,0.1-0.1,0.1c-0.4,0.2-0.1,0.4,1,0.7
		c0.1-0.1,0-0.5,0-0.6c0.1-0.5,0.3-1.1,0.5-1.6c0.6-1,1.4-1.8,2.4-2.3l-2.8-2.1c-0.3,1.2-0.8,2.3-1.7,3.3c-0.4,0.5-0.9,0.9-1.4,1.2
		c0,0-0.7,0.3-0.7,0.2c0,0,0.1,0.4,0.2,0.4c0.3,0,1.2-1.2,1.4-1.5c0.5-0.5,1-1,1.6-1.5c1.1-1,2.3-2,3.5-2.9l-2.6-2.6
		c-1.2,2.4-2.8,6-5.8,6.4l1.8,2.4c1.9-5.4,6.8-9.2,12.4-10.1l-2.1-2.8c-2.2,3-4.8,5.6-7.6,7.9c-1.4,1.2-2.9,2.2-4.5,3.2
		s-3.2,1.6-4.6,2.7c-3,2.2-1.6,6.7,1.8,7.6c4.3,1.1,6.8-3.1,9.3-5.7h-2.6c1.1,1.5,2.1,3.2,2.8,4.9c0.4,0.9,1.8,1.1,2.6,0.7
		c1-0.5,1.1-1.6,0.7-2.6c-0.9-2-2-3.9-3.4-5.6c-0.6-0.8-2-0.7-2.6,0c-1,1-4.2,6.1-6.1,4.5c-0.8-0.7,0.1-0.9,0.7-1.2
		c1.3-0.7,2.6-1.5,3.9-2.3c5-3.2,9.3-7.4,12.9-12.2c1.1-1.5-0.7-3-2.1-2.8c-6.9,1.1-12.7,6.2-15,12.7c-0.4,1,0.6,2.5,1.8,2.4
		c4.7-0.6,7.1-4.3,9.1-8.3c0.7-1.5-0.9-3.8-2.6-2.6c-2,1.5-4,3.2-5.8,5c-1.6,1.7-3.7,3.8-1.8,6.1c1.8,2.1,4.5,1.4,6.4-0.1
		s3.2-3.7,3.8-6c0.4-1.7-1.3-2.8-2.8-2.1c-2,1-3.5,2.8-4.4,4.9c-0.7,1.9-1,5.2,1.5,5.8c2.3,0.6,4.2-1.7,5.3-3.4c1.3-2,2-4.5,2-6.8
		c0-1.7-2-2.3-3.2-1.3c-1.7,1.5-3,3.5-3.6,5.7c-0.5,2-0.5,4.8,1.8,5.6s4.1-1.9,5.2-3.5c1.4-2.1,2.1-4.5,2.4-7
		c0.2-2.1-3.2-2.5-3.7-0.5c-0.7,3.3-0.7,6.7,0.2,10c0.5,2,3.8,1.6,3.7-0.5c-0.1-1.4-0.4-2.7-0.4-4.1c0-1.2,0.3-2.3,0.8-3.4
		c1-2.3,2.7-4.2,4.3-6c1.3-1.5-0.4-4.2-2.3-2.9s-3.6,2.5-4.9,4.2c-1.6,2-2.2,4.1-2.6,6.7c-0.5,3.9-1.9,9.3,1.6,12.2
		c0.9,0.7,1.8,0.7,2.6,0c2.1-1.7,2.2-4.7,1.2-7c-0.9-2-3.4-5.3-5.8-2.8c-1.7,1.8-0.9,5.6-0.1,7.7c0.9,2.7,2.5,5.1,4.2,7.3
		c0.6,0.8,1.4,1.2,2.3,0.8c0.8-0.3,1.4-1.3,1.1-2.2c-0.9-2-1.8-4-3.1-5.8c-1.4-2-4.3-0.3-3.2,1.9c1.6,3.3,4,6,6.8,8.2
		c1.6,1.2,3.4-1.1,2.6-2.6c-1.8-3.3-3.8-6.5-5.9-9.7c-0.9-1.4-3.7-1.1-3.5,1c0.5,4,2.9,7,5.5,9.8c0.6,0.7,1.8,0.7,2.5,0.2
		c0.8-0.6,0.9-1.5,0.5-2.4l-4.8-11c-0.9-2-3.9-0.5-3.4,1.4c0.7,2.9,1.9,5.6,3.6,8c1.4,2,4.4,0.2,3.2-1.9c-2-3.5-3.9-7.2-5.6-10.8
		C382.3,511.5,379.1,513.4,380.1,515.6L380.1,515.6L380.1,515.6z"/>
	<path class="st0" d="M371.7,511.1c-0.7,0.3-1.3,0.6-1.8,1.2s-0.8,1.2-1.1,1.9c-0.4,1.1-0.5,2.2-0.6,3.4c0,0.5,0.2,1,0.5,1.3
		s0.9,0.6,1.3,0.5c1.1,0,1.8-0.8,1.9-1.9c0-0.4,0-0.8,0.1-1.1l-0.1,0.5c0.1-0.7,0.2-1.3,0.5-1.9l-0.2,0.5c0.1-0.3,0.3-0.6,0.5-0.8
		l-0.3,0.4c0.1-0.2,0.3-0.3,0.5-0.5l-0.4,0.3c0.2-0.1,0.4-0.2,0.6-0.3l-0.5,0.2l0.1,0c0.5-0.2,0.9-0.4,1.1-0.9
		c0.2-0.4,0.3-1,0.2-1.4s-0.4-0.9-0.9-1.1S372.1,510.9,371.7,511.1L371.7,511.1L371.7,511.1z"/>
	<path class="st0" d="M407.6,598.6c0.3-2.7,0.3-5.5,0-8.2c-0.1-1.4-0.3-2.8-0.6-4.2s-0.7-2.6-0.9-4c0-0.1,0-0.1,0-0.3
		c0,0,0-0.1,0-0.1c0.4-0.1-1.8,1.5-1.5,0.3c0-0.1,0.1,0.3,0.1,0.3c0.4,1.2,0.5,2.6,0.6,3.9c0.2,1.4,0.3,2.8,0.4,4.2
		c0,0.7,0,1.4,0,2.1c0,0.3,0,0.7,0,1.1c0,0.2,0,0.2,0,0.1c-0.2,0.6,0.1,0.4,0.9-0.5l1,0.3c0.2,0.1-0.2-0.2-0.2-0.3
		c-0.2-0.3-0.4-0.5-0.5-0.8c-0.4-0.6-0.8-1.2-1.3-1.8c-0.5-0.5-1-1-1.6-1.3c-0.7-0.4-1.4-0.3-2.1-0.6l1.1,0.9l-0.1-0.2l0.3,1v-0.2
		l-0.6,1.3l0.1-0.1l-1.8,0.5l0.1,0l-1.1-0.9l0.1,0.1l-0.3-1v0.1l0.9-1.6l-0.1,0c-0.9,0.5-1.2,1.7-0.7,2.6c0.5,0.9,1.7,1.1,2.6,0.7
		l0.1,0c0.6-0.3,0.9-1,0.9-1.6c0-1.2-0.9-2.1-2.1-2.1c-1.5,0-2.4,1.6-1.8,2.9c0.3,0.6,0.7,1,1.3,1.2c0.3,0.1,0.9,0.2,1,0.2
		c0.4,0.1,0.8,0.5,1.2,0.9c1,1.2,1.8,3.5,3.6,3.5c2.5,0.1,2.8-2.6,2.8-4.4c0-2.2-0.2-4.4-0.4-6.5c-0.1-1-0.3-2.1-0.5-3.1
		c-0.2-1-0.3-1.9-0.8-2.8c-1-1.8-3.6-2.2-4.8-0.3c-1,1.5-0.5,3.3-0.1,4.9c1.1,4.6,1.4,9.2,0.9,13.9c-0.1,1,0.9,1.9,1.9,1.9
		C406.9,600.5,407.6,599.6,407.6,598.6L407.6,598.6L407.6,598.6z"/>
	<path class="st0" d="M403,590.1c2.4,0,2.4-3.8,0-3.8S400.6,590.1,403,590.1L403,590.1z"/>
	<path class="st0" d="M355,565.6c-0.7,0-1.5-0.1-2.2-0.2l0.5,0.1c-0.9-0.1-1.8-0.3-2.6-0.5l-1,3.6c0.3,0,0.6,0.1,0.9,0.2l-0.5-0.2
		c0.3,0.1,0.6,0.3,0.9,0.5l-0.4-0.3c0.3,0.2,0.5,0.5,0.8,0.8l-0.3-0.4c0.2,0.3,0.4,0.6,0.5,0.9l-0.2-0.5c0.1,0.2,0.1,0.4,0.2,0.7
		l0.9-2.1l-0.1,0l0.5-0.2c-0.1,0-0.2,0-0.2,0.1l0.5-0.1c-0.1,0-0.2,0-0.3,0l0.5,0.1c-0.1,0-0.2,0-0.4-0.1l0.5,0.2
		c-0.1-0.1-0.2-0.1-0.3-0.2l0.4,0.3c-0.1-0.1-0.2-0.2-0.3-0.3l0.3,0.4c-0.1-0.1-0.2-0.3-0.2-0.4l0.2,0.5c-0.1-0.2-0.1-0.3-0.1-0.5
		l0.1,0.5c0-0.3,0-0.5,0-0.8l-0.1,0.5c0.1-0.5,0.2-0.9,0.4-1.4c0.3-0.9-0.4-2.1-1.3-2.3c-1-0.2-2,0.3-2.3,1.3c-0.5,1.4-0.7,3,0,4.3
		c0.4,0.7,1,1.2,1.7,1.5c0.4,0.2,0.8,0.3,1.2,0.3c0.5,0,1-0.2,1.4-0.4l0.4-0.3c0.2-0.2,0.3-0.4,0.4-0.6c0.2-0.4,0.2-0.8,0.1-1.2
		c-0.2-1.1-0.9-2.1-1.7-2.9s-1.8-1.3-2.9-1.5c-0.5-0.1-1-0.1-1.4,0.2c-0.4,0.2-0.8,0.7-0.9,1.1c-0.2,1,0.3,2,1.3,2.3
		c1.7,0.5,3.5,0.7,5.3,0.8c1,0,1.9-0.9,1.9-1.9S356.1,565.6,355,565.6L355,565.6L355,565.6z"/>
</g>
<g id="Capa_16">
	<path d="M348.1,563.5c-0.6,1-1.6,1.7-2,2.8c-0.6,1.7,0.3,2.9,1.5,4s2.2,2.2,3.6,3s3,1.7,4.6,2.5c2.8,1.4,5.8,2.7,8.9,3.4
		c1.6,0.4,3.2,0.6,4.8,0.7s3.5-0.5,5,0.2c2.5,1,3.6,3.5,4.7,5.8c1.1,2.1,2.1,4.2,3.7,6s3.8,2.9,6.2,3s4.7-0.6,7-1s4.9-0.6,6,1.8
		c0.8,1.7,0.5,3.4,0.2,5.2c-0.1,0.8-0.3,1.6-0.1,2.4c0.1,0.3,0.2,0.5,0.4,0.7c0.1,0.1,0.6,0.5,0.6,0.6c0.1,0.8,1,1.7,1.9,1.1
		c5.6-4.3,6.4-11.2,5.9-17.7c-0.3-3.4-0.8-6.7-1.2-10c-0.1-0.6-0.3-1.2-0.2-1.8c0.1-0.8,0.4-1.6,0.5-2.5c0.2-1.9-0.4-3.5-1.7-4.9
		l0.4,0.9c0-0.5,0.4-1.4,0.8-1.7c0.6-0.4,2.4,0,3.1,0.1c2.1,0.2,4.3,0.4,6.4,0.1c1.7-0.2,3.2-0.8,4.4-2.1c1-1.2,1.5-2.8,1.6-4.4
		c0.1-1.9-0.5-3.4-1.2-5.1c-0.8-2-1.3-4.1-1.5-6.2c-0.2-2.3-0.1-4.6,0.2-6.8c0.2-1.1,0.4-2.1,0.6-3.2c0.2-1,0.6-1.8,0.2-2.7
		c-0.5-1.2-1.7-2.4-3-3c-0.7-0.3-1.4-0.2-2.1-0.3c-1-0.1-2-0.2-3-0.3c-2.1-0.2-4,0.1-6,0.3c-1.6,0.2-3.4,0-5-0.1
		c-3.2-0.2-6.6-1-9.1-3.3c-1.4-1.3-2.2-2.9-3.1-4.5s-1.9-3.3-2.7-5c-1.6-3.5-2.9-7.7-1-11.4c1-2,2.9-3.1,4.2-4.9
		c1-1.5,1.5-3.3,2.7-4.7c0.7-0.7,0.3-2.2-0.9-2.1c-8.5,0.9-16,4.6-22.4,10.1c-1.4,1.2-3.3,2.6-4.2,4.2c-0.4,0.7-0.5,1.6-0.9,2.3
		c-0.4,0.9-1.4,1.5-2.1,2.2c-3,2.9-5.5,6.4-7,10.3c-1.8,4.4-2.1,9.2-0.9,13.9c0.4,1.5,2.8,0.9,2.4-0.7c-2.1-7.8,1.3-15.5,6.8-21.1
		c1.3-1.3,2.7-2.3,3.4-4c0.3-0.7,0.4-1.5,0.9-2.1c0.7-0.8,1.5-1.5,2.3-2.2c2.8-2.6,5.9-4.8,9.3-6.6c3.9-2,8.1-3.3,12.5-3.8l-0.9-2.1
		c-1.6,1.7-2.1,4-3.6,5.8c-0.9,1-1.9,1.7-2.7,2.7c-0.7,1-1.3,2-1.7,3.2c-1.6,4.7,0.4,9.8,2.5,14s4.5,8.8,9.3,10.8
		c2.1,0.9,4.5,1.3,6.8,1.5c1,0.1,2.1,0.1,3.2,0.1c1.4,0,2.6-0.2,4-0.3s2.8-0.1,4.1,0c1.3,0.1,2.6,0.1,3.9,0.3
		c0.6,0.1,1.6,0.9,1.8,1.5c0.2,0.5-0.2,1.2-0.3,1.7c-0.2,0.9-0.4,1.8-0.5,2.7c-0.5,3-0.6,6-0.2,8.9c0.2,1.3,0.5,2.7,0.9,4
		c0.4,1.4,1.3,2.7,1.5,4.1c0.3,1.9-0.2,4.5-2.1,5.4c-1.3,0.6-3,0.5-4.4,0.5c-1.6,0-3.1-0.3-4.7-0.4c-1.2-0.1-2.4-0.3-3.4,0.5
		c-0.8,0.6-1.3,1.6-1.6,2.5c-0.1,0.4-0.2,1-0.1,1.4c0.2,0.7,0.9,1.1,1.1,1.7c0.5,1.1,0,2.4-0.2,3.5s-0.1,2,0.1,3.1
		c0.2,1.3,0.3,2.6,0.5,3.9c0.4,2.6,0.7,5.2,0.8,7.9c0.2,4.9-0.6,10.3-4.7,13.5l1.9,1.1c-0.1-0.6-0.2-1.1-0.6-1.6s-0.4-0.7-0.3-1.4
		c0.1-1.5,0.5-3.1,0.3-4.6c-0.2-2.3-1.6-4.7-3.9-5.5c-4.5-1.7-9.1,1.9-13.5,0.7c-2.1-0.6-3.5-2.5-4.6-4.3c-1.2-2.1-2.2-4.3-3.5-6.4
		s-3.5-4-6.1-4.1c-1.6,0-3.2,0.2-4.8,0.1c-1.8-0.1-3.5-0.5-5.3-1c-3.5-1-6.7-2.7-9.9-4.5c-1.7-1-3.2-2-4.5-3.5
		c-0.7-0.8-0.6-1.1,0-1.9c0.4-0.5,0.9-1,1.3-1.6C351.2,563.4,349.1,562.1,348.1,563.5L348.1,563.5L348.1,563.5z"/>
	<path d="M358.2,549.6c0.6,2.6,0.3,5-1.5,7s-4.2,3.3-6.4,4.9c-0.5,0.4-0.8,1.1-0.5,1.7c0.3,0.5,1.2,0.8,1.7,0.5
		c2.4-1.8,5.2-3.3,7.2-5.7c0.9-1.1,1.6-2.4,2-3.8c0.4-1.8,0.3-3.5-0.1-5.3C360.3,547.4,357.9,548.1,358.2,549.6L358.2,549.6
		L358.2,549.6z"/>
	<path d="M344,566.8c-7.2,13.8-10.6,29.3-8.4,44.8c0.2,1.6,2.6,0.9,2.4-0.7c-2.1-14.8,1.2-29.7,8.1-42.9
		C346.9,566.7,344.7,565.4,344,566.8L344,566.8L344,566.8z"/>
</g>
<g id="Capa_14">
	<path d="M77.5,179.9c11.7-9.4,28.1-14.1,42.9-10.8c13.1,2.9,24.8,10.7,32.6,21.6c9.2,12.9,12.3,29.9,10.5,45.4
		c-1.6,14.8-9.8,28.1-16.8,40.8c-3.5,6.4-7.1,12.9-9.6,19.7s-3.5,14.4-2.9,21.7s2.5,14.1,5.4,20.7c1.6,3.6,3.5,7,5.6,10.3
		s4.5,6,6.8,8.8c9.6,11.7,20,22.8,27.7,35.9c2,3.3,3.8,6.7,5.3,10.3c1.7,3.9,2.8,8.1,3.9,12.2s2.4,8.3,3.7,12.5
		c0.5,1.7,1.1,3.3,2,4.8c0.8,1.4,1.9,2.7,2.6,4.1c0.6,1.2,0.1,2.7,0.9,3.9c0.9,1.6,2.4,3.1,3.7,4.5c2.6,2.9,5.6,5.9,9,7.8
		c7,4,14.8,6.3,22.5,8.7s15.1,5.2,22.7,7.9c7.5,2.7,15.6,5.6,23.1,9.2c3.6,1.7,7.2,3.5,10.6,5.6c1.4,0.8,2.6-1.3,1.3-2.2
		c-14.2-8.5-30.1-13.4-45.5-19c-7.7-2.8-15.6-4.9-23.3-7.7c-3.7-1.4-7.7-2.9-11.1-5.2c-3.5-2.4-6.7-5.8-9.4-9
		c-0.6-0.7-1.4-1.4-1.5-2.3c-0.1-0.6,0-1.3-0.1-1.9c-0.3-1.3-1.3-2.6-2.1-3.7c-2.4-3.5-3.4-7.5-4.6-11.5c-2.3-8-4.3-16.1-7.9-23.6
		c-6.7-13.7-16.7-25.3-26.5-36.8c-5.1-6-10.4-11.9-14.2-18.8s-6.4-14-7.6-21.6c-1.2-7.4-0.7-15.1,1.5-22.3s5.9-13.8,9.5-20.2
		c7-12.8,14.8-25.6,17.4-40.2c1.4-7.9,1.1-16.2-0.2-24s-3.9-15.5-7.9-22.2c-6.9-11.4-17.7-20.3-30.4-24.6
		c-13.8-4.8-29.4-3.1-42.3,3.7c-3.2,1.7-6.2,3.8-9.1,6C74.5,179.1,76.3,180.9,77.5,179.9L77.5,179.9L77.5,179.9z"/>
	<path d="M336.3,616c10,29.5,32.7,51.8,51.9,75.5c2.3,2.9,5,5.5,7.2,8.5s4,6.1,5.5,9.5c3.1,6.8,5,14.3,5.6,21.8
		c0.7,8.5,0.9,17,2,25.5c0.3,2.1,0.8,4.2,0.8,6.3s0,4.1,0,6.2c0,3.8,0.4,7.7,0.7,11.5c2.8,32.1,6.9,64.4,17.8,94.9
		c5.5,15.4,12.8,30,21.6,43.7c6.1,9.6,14.1,21.3,26.7,21.6c1.6,0,3.2-0.2,4.8-0.4c1.1-0.2,2-0.5,2.7-1.5c1.3-2.1,0.6-5,0.4-7.3
		c-0.1-1.5-0.2-2.9-0.6-4.3c-0.5-1.8-1.2-3.5-2-5.2c-1.6-3.5-3.7-6.8-5.8-10.1s-4.5-6.7-5.7-10.5c-1.4-4.2-1.8-8.7-1.6-13.1
		c0.2-4.1,1-7.9,2.6-11.7s3.6-7,5.8-10.3s4.2-6.5,6-9.8c0.8-1.4-1.4-2.7-2.2-1.3c-3.8,6.8-8.6,13-11.8,20.2
		c-3.1,7-3.8,15.1-2.4,22.6s6.5,13.8,10.3,20.5c1.9,3.2,3.8,6.8,4.5,10.4c0.2,1.3,0.2,2.7,0.4,4c0.1,1.2,0.4,2.7,0.1,3.9
		s-1.6,1.1-2.7,1.2c-1.6,0.2-3.3,0.2-4.9,0c-2.9-0.4-5.6-1.6-8-3.2c-5.1-3.4-8.9-8.5-12.3-13.5c-8.7-13-16-26.8-21.7-41.4
		c-11.5-29.7-16.2-61.3-19.1-92.8c-0.4-3.9-0.7-7.8-1-11.8s-0.3-7.7-0.3-11.6c0-4.3-1-8.6-1.4-12.8s-0.6-8.3-0.9-12.5
		c-0.5-7.6-1.1-15-3.3-22.4c-2-6.6-5-12.9-9.2-18.5c-2.2-2.9-4.7-5.4-7-8.2c-2.5-3-5-6.1-7.5-9.1c-5-5.9-10-11.7-14.9-17.6
		c-9.4-11.5-18.4-23.6-24.7-37.2c-1.6-3.4-3-7-4.2-10.6C338.2,613.8,335.8,614.5,336.3,616L336.3,616L336.3,616z"/>
	<path d="M292.4,485.6c13,18.3,33.5,28.4,53.4,37.4c3.1,1.4,6.1,3.8,7.5,6.9s2.4,6.5,1.4,10.1c-0.5,1.5,2,2.2,2.4,0.7
		c0.9-3,0.7-6.1-0.4-9c-0.5-1.3-1-2.5-1.6-3.7c-0.8-1.5-2-2.6-3.2-3.8c-1.1-1-2.3-2-3.6-2.7s-2.6-1.2-3.9-1.8
		c-2.6-1.2-5.2-2.4-7.7-3.6c-10.2-4.9-20.2-10.4-28.9-17.6c-4.9-4.1-9.4-8.8-13.1-14C293.6,483.1,291.4,484.3,292.4,485.6
		L292.4,485.6L292.4,485.6z"/>
	<path d="M537.3,197.5c0,2.9,0.8,5.6,2.2,8.1c0.4,0.6,0.9,1.2,1.1,1.9c0.2,0.6,0.1,1.1,0.1,1.7c0,1.4,0.5,2.7,1.1,4
		c1.2,2.5,3.4,4.8,3.4,7.7c0,0.8,0,1.1-0.6,1.8c-0.4,0.4-0.7,0.7-1.2,1.1c-0.9,0.7-1.9,1.2-3,1.5c-2.3,0.6-4.7,0.3-7-0.4
		s-4.6-1.3-7-1.8c-4.7-0.9-9.6-1.4-14.2,0c-8,2.3-12.2,9.8-15.6,16.8c-3.1,6.4-5.5,13.1-9.6,19c-2,2.9-4.5,5.4-7.6,7
		c-3.6,1.9-7.8,2.1-11.8,1.5c-1.6-0.2-2.2,2.2-0.7,2.4c3.8,0.6,7.8,0.6,11.4-0.7c3.1-1.1,5.8-3.1,8.1-5.5
		c4.9-5.4,7.6-12.3,10.6-18.8s6.6-15.3,13.8-18.5c4.5-2,9.8-1.7,14.5-0.8s9.5,3.2,14.3,2.5c2.6-0.4,5-1.6,6.7-3.6
		c0.4-0.4,1-1,1.2-1.6c0.3-0.8,0-2,0-2.8c0-1.6-1-3.1-1.8-4.5s-1.6-2.7-2.2-4.2c-0.3-0.7-0.5-1.3-0.5-2c0-0.7,0-1.3-0.1-2
		c-0.4-1.8-1.7-3.2-2.4-4.8c-0.6-1.6-1-3.2-1-4.9S537.3,195.9,537.3,197.5L537.3,197.5L537.3,197.5z"/>
	<path d="M406.6,201.4c5.9,7.5,15.5,10.6,24.7,8.3c4.5-1.1,8.7-3.5,12-6.8c4-4,6.6-9.3,9.2-14.2c2.9-5.4,5.5-10.8,8.9-15.9
		c3.1-4.7,6.8-9.6,11.9-12.1c9.4-4.7,21.2-1.2,29.2,4.7c9.3,6.9,16.5,17.4,28.4,20c1.6,0.4,2.2-2.1,0.7-2.4
		c-10.5-2.4-17.2-11.1-25.1-17.7s-18.1-10.8-28.5-8.8c-11.4,2.1-18,13.1-23.1,22.5c-2.9,5.3-5.5,10.7-8.7,15.9
		c-2.7,4.4-5.8,8-10.4,10.5s-9.5,3.2-14.4,2.4c-5.3-0.9-9.8-3.8-13.1-8C407.4,198.4,405.6,200.2,406.6,201.4L406.6,201.4
		L406.6,201.4z"/>
	<path d="M471,119.4c-18.9,6.8-38,13-56.7,20.1c-6.4,2.4-12.8,4.7-18.8,8c-5.7,3.1-11.3,7.3-14.1,13.2c-1.8,3.7-2.3,7.8-0.8,11.7
		s4.6,7.3,8.2,9.6c1.4,0.9,2.6-1.3,1.3-2.2c-3.1-1.9-5.8-4.7-7.1-8.1s-0.9-6.8,0.7-10c2.8-5.6,8.2-9.4,13.5-12.3s11.6-5.2,17.5-7.4
		c8.9-3.4,17.8-6.6,26.8-9.7c10-3.5,20.1-6.9,30.1-10.5C473.2,121.2,472.5,118.8,471,119.4L471,119.4L471,119.4z"/>
	<path d="M35.2,163.3c16.4-18.9,37.2-33.4,60.3-42.9s47.9-14.1,72.7-14.3c6.4-0.1,12.9-0.1,19.2,0.9c7.3,1.1,14.7,2.2,22.1,3.1
		c15.3,1.9,30.6,3.2,45.9,3.9c30.2,1.5,60.6,0.7,90.7-2.4s60-8.5,89.2-16.3c3.6-1,7.3-2,10.9-3c1.5-0.4,0.9-2.9-0.7-2.4
		c-29.6,8.5-60,14.6-90.6,18.2s-60.9,4.8-91.4,3.7c-15.2-0.5-30.4-1.6-45.6-3.3s-28.9-4.6-43.4-4.9c-24.9-0.5-49.9,3.3-73.3,11.9
		c-23,8.4-44.4,21.6-61.5,39.2c-2.2,2.2-4.3,4.5-6.3,6.9C32.4,162.7,34.2,164.5,35.2,163.3L35.2,163.3L35.2,163.3z"/>
	<path d="M454.9,277.7c-18.5,3-36,11.9-49.4,25c-3.4,3.3-6.5,6.9-9.3,10.6c-3.1,4.1-5.6,8.5-8.2,12.9s-5.4,9.2-9,13.1
		c-2.9,3.2-6.1,6-9.2,9c-6.6,6.1-13.8,13.4-13.4,23l1.6-1.2c-11.4-3.3-23.4-3.2-35-1.8s-22.8,3.6-33.9,6.2
		c-19.4,4.5-41.6,13.9-48,34.6c-3.1,10-1.3,21.6,6,29.4c1.1,1.2,2.9-0.6,1.8-1.8c-6.3-6.6-8-16.5-5.9-25.1s8.5-16.6,15.9-22
		c8.5-6.2,18.5-9.7,28.6-12.2c10.6-2.6,21.5-4.6,32.3-6.2c12.5-1.8,25.3-2.3,37.5,1.3c0.8,0.2,1.6-0.4,1.6-1.2
		c-0.4-8.4,5.7-14.7,11.3-20.1c3-2.9,6.2-5.6,9.1-8.7c3.4-3.5,6.2-7.6,8.7-11.8s5.1-8.9,8-13.2c2.6-3.8,5.5-7.4,8.7-10.8
		c6.3-6.7,13.6-12.3,21.7-16.8c9-5,18.9-8.5,29.1-10.1C457.1,279.8,456.5,277.4,454.9,277.7L454.9,277.7L454.9,277.7z"/>
	<path d="M256.5,439.2c6.9,5.7,16.2,1.7,23.8,0.3c3.9-0.7,8.1-0.9,11.6,1.4c3.8,2.5,5.2,7.4,6.7,11.4s3.3,8.4,6.8,11.4
		s7.8,4.5,11.7,6.8c1.9,1.1,3.8,2.4,5.1,4.2c1.8,2.3,2.3,5.2,2.9,8c1,4.7,2.9,8.6,6.2,12c6.8,6.8,17,10.4,21.5,19.3
		c0.7,1.4,2.9,0.2,2.2-1.3c-4.1-8-12.5-11.9-19.2-17.3c-3.4-2.8-6.4-6.1-7.6-10.4c-0.8-2.9-1.1-5.9-2.3-8.7
		c-0.9-2.1-2.2-3.9-3.9-5.3c-3.5-3-7.9-4.6-11.8-6.9c-2-1.2-3.8-2.5-5.2-4.3s-2.4-3.8-3.2-5.9c-1.6-4.2-2.8-8.7-5.6-12.2
		c-2.7-3.4-6.7-4.9-10.9-4.9c-4.8,0-9.5,1.5-14.3,2.5c-4.2,0.9-9.2,1.4-12.8-1.6C257,436.4,255.2,438.2,256.5,439.2L256.5,439.2
		L256.5,439.2z"/>
	<path d="M366.3,518.8c9.4-17.3,30.7-23.9,49.3-22c12,1.2,23.5,5.6,34.2,10.9c11.2,5.6,22,12.2,32.8,18.5
		c5.7,3.4,11.4,6.7,17.1,10.1c5.1,3,10.3,6.1,14.3,10.6c7.1,8.2,9.8,19.3,17.4,27.1c14.1,14.6,36.2,15.1,54.8,18.6
		c16.2,3.1,37.7,11.5,41,29.9c3.1,17-11.8,30.3-21.4,42.1c-5.1,6.3-10,13.1-12.1,21c-2.6,9.8,0.2,19.6,0.8,29.4
		c0.3,4.9,0,10-2.6,14.3c-2.3,3.8-6,6.1-10.1,7.5c-8,2.8-16.9,2.6-24.8,6c-3.8,1.6-7.1,4.2-9.2,7.8c-2.5,4.2-3,9.2-2.8,14
		c0.2,5.3,1.2,10.6,1.5,16s-0.4,10.4-2.5,15.2s-5.4,9-9.5,12.1s-8.9,4.8-13.6,6.7c-4.3,1.8-8.6,4-11.5,7.7c-3.3,4.3-4,9.8-6,14.7
		c-1.7,4.1-6.6,9.5-11.6,7c-1.4-0.7-2.7,1.4-1.3,2.2c4.4,2.2,9.1,0,12.2-3.4c3.6-4.1,4.3-9.6,6.2-14.5c4.3-10.8,16.6-11.4,25.2-17.1
		c8.5-5.6,14.1-15.1,14.9-25.2c0.4-5.5-0.5-11-1.1-16.5s-1-10.9,1.2-15.8c3.9-8.8,14-10.4,22.4-11.9c8.3-1.5,17.3-3.2,22.3-10.8
		c5.8-8.8,2.6-20.3,1.6-30c-0.5-4.9-0.6-9.9,0.7-14.8c1.1-4,3-7.8,5.2-11.3c4.7-7.4,10.8-13.7,16.2-20.5c5.1-6.3,10-13.1,11.8-21.1
		s0-16.9-5.2-23.7c-5.5-7.2-13.6-11.9-21.9-15.1c-18.9-7.4-40.4-5.3-58.6-14.7c-4.5-2.3-8.5-5.3-11.8-9.1c-3.7-4.3-6.2-9.5-8.9-14.5
		s-5.5-9.8-9.7-13.6c-4.5-4.1-10-7.1-15.2-10.2c-11.5-6.8-23-13.7-34.5-20.2c-10.7-6.1-21.8-11.8-33.7-15.1
		c-19.1-5.5-41.7-4-57.1,9.8c-3.4,3-6.3,6.7-8.5,10.7C363.4,519,365.6,520.2,366.3,518.8L366.3,518.8L366.3,518.8z"/>
	<path d="M535.6,61.2c12.2-3.1,24.3-7.2,36.6-9.9c6.2-1.4,12.4-2.4,18.8-2.8c3.2-0.2,6.4-0.2,9.6-0.1s6,0.6,9,0s5.7-2,8.4-3.3
		c3-1.5,5.9-2.8,9.2-3.5c6.3-1.3,12.8-0.8,19.1,0.3c3.2,0.6,6.4,1.2,9.6,1.9s6.4,1.8,9.6,1.8c2.9,0,5.9,0.1,8.8,0
		c1.4-0.1,2.8-0.5,4.2-0.8c1.7-0.4,3.3-0.8,4.9-1.3c11.3-3.3,22-8.7,33.7-10.6c6.5-1.1,13.3-1,19.8-0.7c6.5,0.3,13.3,1,19.8,2.1
		s13.6,2.4,20.2,4.3c3.9,1.1,7.9,2.8,11.3,4.9s6.4,4.9,7,9c0.8,5.2-3.4,8.6-7.5,10.9c-2.1,1.2-4.5,1.9-6.7,2.8S776.3,68,774,69
		c-4.5,2.1-8.9,4.5-13,7.4s-7.6,6.2-10.7,10.1c-1.5,1.9-2.8,4-3.9,6.2c-0.5,1.1-1,2.1-1.5,3.2c-0.2,0.6-0.4,1.2-0.7,1.8
		c-0.2,0.5-0.3,0.4-0.9,0.8c-0.8,0.5-1.1,1-1.3,1.9c-0.3,1.2-0.7,2.4-1.2,3.6c-0.9,2.2-2.1,4.3-3.6,6.1s-3.2,3.3-5.2,4.2
		c-2.3,1-4.5,0.9-7,0.8c-10.6-0.5-21,2-30.7,6.4s-18.8,10.7-27.6,17.1s-17.1,13.1-26.6,18c-4.4,2.2-9.2,4.3-14.2,4.3
		c-5.3,0-9.6-3-12-7.7c-5-9.6,2.8-20,6-28.8c2.9-8,3.1-17.1-1.3-24.6c-4.1-6.8-11-11.6-18.1-14.7c-7.5-3.3-15.8-5.4-24-6.1
		c-5.4-0.4-9.9,3.4-14.2,6.2c-2.2,1.5-4.6,2.4-7.3,2.4c-2.4-0.1-4.7-0.9-6.8-2c-4.2-2.2-7.7-5.4-11.7-7.9c-1.4-0.9-2.6,1.3-1.3,2.2
		c7.9,5,16.6,14,26.7,8.6c4.7-2.5,8.8-7.4,14.6-6.9c4.1,0.3,8.2,1.1,12.1,2.1c8,2.1,16.1,5.3,22.4,10.9s9.4,13,8.4,21.3
		c-0.6,5.1-2.5,9.7-4.6,14.3s-4.3,9.3-4.9,14.5s1.3,10.5,5,14.2c3.5,3.5,8.2,4.9,13.1,4.4c5.1-0.6,9.9-2.7,14.4-5.1
		c4.8-2.6,9.2-5.6,13.6-8.7c9.1-6.5,17.9-13.4,27.4-19.3c9.1-5.6,18.9-10.2,29.5-11.9c2.7-0.4,5.5-0.7,8.3-0.7
		c2.6-0.1,5.3,0.4,7.8,0.1c4.7-0.5,8.5-3.6,11.1-7.4c1.4-2,2.5-4.2,3.3-6.6c0.2-0.5,0.4-1.1,0.5-1.6c0.1-0.4,0.2-1.1,0.3-1.3
		c0.4-0.6,1.5-0.6,1.9-1.5c0.5-1.1,0.8-2.3,1.3-3.4c0.5-1.2,1.2-2.5,1.8-3.7c1.2-2.1,2.7-4.1,4.3-6c6.7-7.7,15.9-12.8,25.2-16.7
		c4.6-1.9,9.4-3.2,13.4-6.3c1.9-1.4,3.5-3.2,4.5-5.4s0.9-4.6,0.4-6.9c-2.1-8.3-11.5-11.7-18.7-14.4c-3-1.1-6.3-1.7-9.4-2.3
		c-3.3-0.7-6.6-1.4-9.9-2c-6.6-1.2-13.3-2-20-2.4s-13.6-0.4-20.4,0.3c-5.9,0.6-11.7,2.4-17.3,4.3s-11.4,4.3-17.2,6.1
		c-2.9,0.9-5.9,1.7-8.9,2.4s-6.4,0.2-9.4,0.2s-6.4-1-9.5-1.7c-3.3-0.7-6.7-1.5-10.1-2c-6.3-1-12.7-1.5-19-0.4c-3.1,0.6-6.1,1.6-9,3
		s-5.8,3-9,3.8s-6.2,0.2-9.4,0.1s-6.5-0.1-9.8,0.1c-12.7,0.9-25.1,4.2-37.3,7.7c-6,1.7-12,3.5-18,5C533.3,59.2,534,61.6,535.6,61.2
		L535.6,61.2L535.6,61.2z"/>
	<path d="M1542.5,785.9c1.2-17.4,5.1-35.9,15.4-50.3c4.9-6.8,11.3-12.4,19.1-15.7c5.4-2.3,11.2-3.4,16.9-4.9s10.5-3.5,15.3-6.4
		s8.9-6.3,12.9-10c4.6-4.1,9.2-8.3,13.8-12.5l14.1-12.8c4.3-3.9,8.4-8.1,13.1-11.5c4-2.9,8.7-5.2,13.7-4.7c4.2,0.4,8.3,2.8,9.5,7.1
		c0.7,2.6,0.6,5.3,1.3,7.9c0.5,1.9,1.3,3.7,2.4,5.3c2.2,3.2,5.3,5.8,8.8,7.4c7.5,3.6,16.3,3.4,23.6-0.5c8.3-4.5,14-12.7,17.3-21.3
		c0.8-2.2,1.5-4.5,2.1-6.8l-1.2,0.9c6.1,0.5,9.7,6.5,11.1,11.9c2,7.7-0.2,15.7,0.5,23.5c0.4,3.8,1.4,7.4,3.2,10.8
		c1.7,3.2,4,6,6.2,8.8s4.7,5.6,6.8,8.6s3.7,6,5.1,9.2c5.8,13.1,6.6,28.2,3.4,42c-3.2,13.8-10.6,26.4-20.3,36.6
		c-4.8,5.2-10.3,9.8-16.1,13.9s-11.4,7.3-17.8,9.5c-5.9,2-12.3,3.2-18.5,2s-11.3-4.9-14.3-10.6c-3.3-6.1-4.9-13.2-9.9-18.3
		s-11.7-7.4-18.4-8.9c-15.8-3.6-32.5-4.2-48.6-2.7c-8.2,0.8-16.3,2.2-24.3,4.2c-4,1-8,2.2-11.9,3.5s-7.9,2.9-11.9,4.3
		c-6.6,2.2-15.4,4.5-21.7,0.3c-4-2.6-6.9-7.9-6.2-12.7c0.3-2.2,1.5-4.1,3.4-5.3c1.4-0.8,0.1-3-1.3-2.2c-4.6,2.8-5.6,8.4-3.9,13.3
		c1.7,5.3,5.9,9.6,11.3,11c8.3,2.1,16.8-1,24.5-3.9s16.2-5.5,24.6-7.3c16.9-3.5,34.4-4.3,51.5-2.3c7.7,0.9,15.9,2,23,5.2
		c3.2,1.5,6.3,3.4,8.6,6.1s4,6.1,5.4,9.5c2.7,6.4,5.5,12.9,11.8,16.6c5.4,3.2,12,3.8,18.2,2.9c13.8-1.9,26.3-10,36.7-19
		c11-9.5,20.1-21.5,25.4-35.2c5.3-13.7,6.5-29.1,2.9-43.5c-1.8-7-4.7-13.8-8.8-19.8s-10.1-11.5-13.5-18.3c-3.9-8-1.9-16.8-2-25.2
		c-0.1-6.3-1.9-13.1-6.7-17.5c-2.2-2-4.8-3.1-7.7-3.4c-0.5,0-1.1,0.4-1.2,0.9c-2.2,9.2-6.8,18.3-14.4,24.1
		c-6.9,5.3-15.7,6.7-23.8,3.5c-3.6-1.4-6.9-3.8-9-7c-1.1-1.6-1.9-3.4-2.3-5.3c-0.6-2.7-0.5-5.5-1.4-8.1c-1.4-4-5-6.6-9-7.6
		c-4.6-1.2-9.3-0.2-13.4,2c-4.8,2.5-8.7,6.3-12.6,9.8l-14.4,13.1c-4.7,4.3-9.4,8.5-14.1,12.8c-4.2,3.8-8.3,7.6-12.8,10.8
		c-4.6,3.3-9.5,6.1-14.9,7.8s-11.3,2.8-16.9,4.6c-8.4,2.7-15.8,7.7-21.5,14.4c-11.5,13.5-16.3,31.7-18.2,48.9
		c-0.2,2.2-0.4,4.3-0.6,6.5C1539.9,787.5,1542.4,787.5,1542.5,785.9L1542.5,785.9L1542.5,785.9z"/>
	<path d="M807.7,333.1c-23.5,33.8-57.8,62.6-70.6,102.8c-9.8,30.8-6.5,70.2,23.1,89c32.9,20.8,75.1,6.5,111.2,14.2
		c5.3,1.1,11.1,2.5,15.8,5.3c5.5,3.4,8.4,8.9,11,14.6c5,10.9,9,22.2,12.3,33.7c6.6,23.2,9.7,47.3,9.3,71.4
		c-0.2,11.1-0.9,22.4,1.2,33.4c1.9,9.8,6.5,18.6,11.5,27.2c5.1,8.9,10.7,17.9,12.9,28s0.3,19.7,1.3,29.5c0.8,7.9,4.1,15,11,19.2
		c7.2,4.4,16.3,5.3,24.6,6.1c14.4,1.4,33.8,0.8,40.6-14.7c3.7-8.5,2.7-18.2,6.2-26.8c3-7.5,8.1-13.9,13.8-19.5
		c11.3-11.4,25.1-20.3,35.9-32.3c12.1-13.4,16.4-28.8,15.6-46.7c-0.5-10.9-2.3-21.7-2.4-32.6c0-12,3-22.7,8.8-33.1
		c12.2-21.9,26-42.9,39.1-64.2c6.2-10.2,13.4-20.3,18.7-31c3.5-7.2,5.3-16.1-1-22.4c-5.9-5.9-15-6.9-22.6-9.2
		c-9-2.8-17.6-6.8-25.6-11.9c-16.3-10.4-29.9-25.2-38.9-42.4c-4.4-8.4-7.6-17.3-9.6-26.5l-1.5,1.5c22.2,7,30.4,32.9,46.1,47.8
		c7.4,7.1,16.2,10.7,26.5,9.3c4.8-0.6,9.9-2.4,14.8-1.3s7.8,5.2,11.4,8.5c4.3,3.9,9.6,5.4,15.2,3.6c17-5.3,19-26.8,34.4-33.9
		c0.7-0.3,0.8-1.5,0.2-2l-22.1-20.9c-3.2-3-10.1-7.3-6.4-12c2.1-2.7,6.4-3.8,9.6-3.6c8.2,0.3,13.8,8.7,19.8,13.2
		c5.6,4.2,12.1,5.7,19,5.8c8,0.1,16.1-1.4,24.1-0.6c10.4,1,17.3,7.4,24,14.8c11.5,12.9,21.8,27,30.7,41.9
		c10.3,17.3,18.6,35.8,24.9,54.9c0.2,0.6,0.9,1.1,1.5,0.9c20.7-7.2,23.8-32.2,27.3-50.8c2-10.8,3.9-22.4,9.3-32.1
		c6.7-12,19.9-17.6,33.2-12.9c17.6,6.1,29.5,23.3,41.7,36.3c13.6,14.4,28.3,27.8,44,39.9c9.9,7.7,23.9,16,37.1,12.8
		c10.2-2.5,15-13.2,11.7-22.8c-3.7-10.8-12.8-18.9-18.7-28.4c-3.2-5.2-5.9-11.2-4.8-17.5c1.7-9.1,10.6-13.8,18.5-16.7
		c9-3.3,18.4-5.6,27.7-8.3l14.7-4.3c4-1.2,6.1-1.9,8.8-5.2c8.5-10.7,4.6-26.8-0.3-38.1c-3.8-8.9-8.6-17.4-10.6-26.9
		c-2.4-11.4,1.4-20.6,10.1-28.1c8-7,16.6-13.5,24.8-20.1l12-9.7c3-2.4,7.9-5.1,9.6-8.6c1.7-3.8,2.6-8.3,3.9-12.3
		c1.4-4.4,2.7-8.8,3.6-13.2c1.4-7.1,1.9-14.6-0.9-21.4c-5.1-12.3-18.4-16.5-29.6-21.5c-5.6-2.5-11.7-5.3-15.4-10.5
		c-5.6-7.8-2.7-17.5,4-23.6c8.5-7.7,20.2-7.9,30.9-5.5c10.4,2.3,19.7,5.4,26.1,14.4c8.8,12.4,11.9,28,25.4,36.7
		c9.9,6.4,23.8,5.8,28.4-6.7s-2.9-27.3,0.5-40.6c4-15.3,22.5-15.2,32.5-24.5s6.3-24-2.6-32.6c-12.6-12.1-32.1-9.9-48-9
		c-42.6,2.3-85.4-0.8-127.2-9.1c-10.5-2.1-20.9-4.5-31.2-7.3c-9.7-2.6-19.3-6-29.3-7.6c-9.3-1.5-18.1-0.3-27.2,1.3
		s-19.2,2.5-28.9,2.2c-36.7-1.1-71.6-14.4-107.5-20.6c-16.1-2.8-32.6-4.2-48.8-2c-18.9,2.6-34.7,11.6-52.3,18.2
		c-9.4,3.6-19,5.3-29,4.8s-19.8-2.7-29.8-3.5c-16.8-1.4-32.3,3-47.3,10.2s-30,17-46,23.4c-8.5,3.4-17.8,6-27,6.1
		c-11.3,0.1-19-6-28.2-11.4c-31.9-18.6-70.5-4.8-101.2,9.4c-12.4,5.7-30.3,12.4-34.6,27c-2.4,8,1.4,16,1.3,24
		c-0.1,8.5-3,16.8-7.8,23.9c-9.2,13.7-25.1,22.6-41.8,21l1.1,1.9c5.2-7,4.5-17.2-1.5-23.5c-6.1-6.4-16.2-6.2-23-1.1
		c-2.3,1.7-6.2,5.5-6.3,8.7c0,2,1.5,4.5,2.1,6.5c1.2,3.8,2,7.7,2.5,11.7c1.5,13-0.9,26.6-7,38.2c-4.9,9.3-16.1,18-14.8,29.5
		c0.9,8,7.8,13,14.8,15.7c10.8,4.2,22.6,4,34,4.5c15.9,0.7,31.8,1.4,47.8,2c3.9,0.2,12.6-1.3,12.9,4.1c0.3,4.9-4,8.3-8.4,9.3
		c-7.8,1.7-17-0.6-24.8-1.4l-55-5.6c-1.6-0.2-1.6,2.3,0,2.5l45.2,4.6c7.2,0.7,14.4,1.5,21.6,2.2c5.5,0.6,11.5,1.4,16.7-0.9
		c5-2.1,11.3-12.3,4.6-16.4c-1.4-0.8-3.3-0.5-4.9-0.5l-11.9-0.5l-21.9-0.9c-14.2-0.6-28.8-0.1-42.9-2.2c-8.7-1.3-21-4.4-24.5-13.6
		c-2.3-6.1,0.7-12,4.2-16.9s7.5-9.8,10.3-15.5c4.6-9.4,7-19.9,7-30.4c0-6.3-0.8-12.6-2.6-18.6c-0.9-3.3-3-6.4-1.2-9.7
		c1.5-2.7,4.2-4.8,7-6c14.6-6.6,27,10.9,17.9,23.2c-0.6,0.8,0.2,1.8,1.1,1.9c28.6,2.7,55.7-24.9,51.6-53.6c-0.6-4.5-2.1-9-1.7-13.5
		c0.4-4.9,2.9-9.1,6.3-12.6c5.8-6,13.6-9.7,21-13.3c17.3-8.3,35.2-16.1,54.2-19.6c19.3-3.6,38.2-1.6,55,9.1c7.4,4.7,14.2,9,23.2,9.5
		c8.4,0.5,16.9-1.5,24.8-4.1c31.4-10.5,58.1-36.8,92.8-35.8c19.3,0.5,37.8,6.9,57,1.6c17.6-4.9,33.1-15.2,51-19.2
		c35.3-7.9,71.5,3.2,105.7,11.4c16.9,4.1,33.9,7.8,51.2,9.2c8.4,0.6,16.9,0.7,25.3-0.1c10.1-1,20.1-4,30.4-3.8s20,3.6,29.7,6.3
		s20.1,5.3,30.2,7.5c19.8,4.3,39.8,7.4,59.9,9.4s41.4,2.7,62.2,2.2c9.9-0.3,19.8-1.2,29.7-1.3s20.3,0.9,28.3,7
		c6.5,5,11.7,13.7,10.1,22.2s-9,12.2-15.9,15.2c-11.9,5.3-22.2,10.4-23.2,24.8c-0.8,12,6.8,30.6-3.1,40.2c-7.3,7-17.6,3.2-24.4-2.4
		s-10.1-12.5-13.8-19.9c-3.2-6.5-6.6-13.3-11.7-18.6c-5.8-6.1-13.7-8.2-21.7-10.1c-14.8-3.7-33.3-2.3-40.9,13.2
		c-5.4,11.1,0.9,21.4,10.7,27c10.5,6,24.4,8.4,32.3,18.2c6.6,8.1,5.7,18.9,3.4,28.4c-1,4.2-2.4,8.3-3.7,12.5
		c-1.5,4.7-2.3,9.2-6,12.6c-8.2,7.2-17.1,13.8-25.5,20.6c-7.3,5.9-15.7,11.5-22,18.6c-11.8,13.3-5.8,30.4,0.7,44.7
		c3.8,8.2,7.6,16.2,8.6,25.3c0.8,7,0,16.9-6.5,21.3c-4,2.7-10.5,3.5-15.1,4.8l-15.6,4.6c-7.8,2.3-16.1,4.2-23.4,8
		c-10.7,5.5-16.6,15.7-12.3,27.5c4,10.9,13,19,18.9,28.8c2.9,4.7,5.4,10.3,4,16c-2,7.6-9,11.3-16.4,10.9
		c-17.5-0.8-32-14.7-44.5-25.5c-14.9-12.8-28-27.1-41.3-41.5c-10-10.8-22.7-23.2-38.2-24.2c-10.5-0.7-20.1,4.6-25.9,13.2
		c-12.1,18-10.4,42.1-17.3,62.1c-3.4,9.9-9.1,18.7-19.4,22.3l1.5,0.9c-12.2-37.3-32.4-73.1-59.6-101.6c-6-6.3-12.7-10.8-21.6-11.8
		s-18.1,1-27.1,0.5c-5.1-0.3-10-1.6-14.2-4.5s-7.5-6.8-11.5-9.9c-5.2-4-11.1-6-17.4-3.4c-4.6,1.9-9.3,7.3-5.5,12s9.7,9.1,14.3,13.5
		l15,14.1l0.2-2c-13.6,6.2-16.5,22.8-28.4,30.9c-3.6,2.5-8.3,4.2-12.7,3s-7.1-5.1-10.2-8c-4.9-4.5-10.4-5.2-16.8-4.3
		c-7,1.1-13.4,2.5-20.2-0.2c-4.9-1.9-9.1-5.3-12.7-9.1c-7.6-8-13.3-17.6-20-26.3s-14.6-17-25.4-20.4c-0.9-0.3-1.7,0.6-1.5,1.5
		c7.5,34,31.7,63.6,63.5,77.9c7.5,3.4,15.3,5.3,23.2,7.7c4.7,1.4,9.8,3.5,12.5,7.8c3.9,6.5,0.5,14.2-2.8,20.1
		c-11.7,20.9-25,41.1-37.5,61.5c-10.7,17.6-25.3,35.8-27.4,56.9s5.8,42.6,0.2,63.3c-8.5,31.2-44.5,42.3-60.1,68.8
		c-3.9,6.7-5.6,13.8-6.7,21.5c-1.5,10.7-5.2,19.5-16.1,23.1c-8.3,2.8-17.5,2.4-26.2,1.4c-9.5-1-21.1-2.2-27.3-10.5
		s-4.7-19.2-4.6-28.7c0-9-1.6-17.2-5.3-25.4s-9-16.2-13.2-24.4c-5.5-10.6-8.1-21.4-8.4-33.4c-0.3-11.3,0.6-22.6,0-33.9
		c-0.5-10.7-1.7-21.3-3.5-31.9c-3.7-21.2-10-42.7-19.6-62c-4.3-8.8-10.4-13.5-19.7-16.3c-8.5-2.6-17.3-3.7-26.2-4.3
		c-19-1.2-38,0.8-57-1s-37.4-8.2-49.1-23.9c-10.3-13.8-13.5-31.8-12.2-48.7c3-41.7,32.5-72.8,57.7-103.6c6.1-7.4,12-15,17.4-22.9
		C810.8,333,808.6,331.8,807.7,333.1L807.7,333.1L807.7,333.1z"/>
	<path d="M1449.1,548.5c10.4,12.1,16.7,26.9,24.8,40.4c7.8,13,17.7,24.4,30.4,32.9c6.9,4.6,14.5,8.3,22.4,10.8
		c0.9,0.3,1.9-0.7,1.5-1.5c-3.2-8.5-7.2-16.7-12.2-24.3c-2.4-3.7-5.1-7.3-7.9-10.8s-6-6.7-8.7-10.2c-2.8-3.8-4.5-7.8-5.6-12.4
		c-1-4.2-1.8-8.6-3.8-12.5c-3-6.1-8.5-10.6-14.8-13.2c-7.1-2.9-15.2-3-22.2,0.2c-1.5,0.7-0.2,2.8,1.3,2.2
		c11.9-5.4,27.4,0.3,33.4,11.8c1.9,3.7,2.7,8,3.6,12s2.4,8.1,4.8,11.6s5.3,6.6,8.1,9.8s5.6,6.8,8,10.4c5.6,8.1,10.1,16.9,13.5,26.1
		l1.5-1.5c-14.1-4.5-26.8-12.7-36.9-23.3c-10.7-11.2-17.5-25-25-38.4c-4.3-7.7-8.9-15.2-14.6-21.8
		C1449.8,545.6,1448.1,547.3,1449.1,548.5L1449.1,548.5L1449.1,548.5z"/>
	<path d="M1558.1,638.5l21.9,3.3c1.6,0.2,2.2-2.2,0.7-2.4l-21.9-3.3C1557.2,635.9,1556.5,638.3,1558.1,638.5L1558.1,638.5z"/>
	<path d="M1599.4,641.2c5,1.4,10.5,0.5,14.8-2.5c0.6-0.4,0.8-1.1,0.4-1.7c-0.3-0.5-1.2-0.8-1.7-0.5c-3.7,2.6-8.5,3.5-12.9,2.3
		C1598.5,638.3,1597.9,640.8,1599.4,641.2L1599.4,641.2L1599.4,641.2z"/>
	<path d="M1640.4,640.5l2.2,3.1c0.2,0.3,0.4,0.5,0.8,0.6c0.3,0.1,0.7,0,1-0.1s0.5-0.4,0.6-0.8s0.1-0.7-0.1-1l-2.2-3.1
		c-0.2-0.3-0.4-0.5-0.8-0.6c-0.3-0.1-0.7,0-1,0.1s-0.5,0.4-0.6,0.8S1640.2,640.2,1640.4,640.5L1640.4,640.5z"/>
	<path d="M1541.8,568.5l32.8-31.6c2.1-2,4.4-4.5,7.4-5.1c2.4-0.4,4.6,0.6,6.2,2.3c4.2,4.3,4.1,10.3,2.6,15.7c-0.9,3.2-2.1,6.4-3,9.6
		s-1.3,6.7-1.3,10.1c0,6.7,1.2,13.7-0.9,20.1c-1.5,4.7-5.1,9.8-10.4,10.4c-3.2,0.4-6.1-1-8.8-2.7c-2.8-1.7-5.5-3.7-8.2-5.7
		c-6.1-4.6-11.8-9.7-17.1-15.2c-2-2.2-3.8-4.5-4.7-7.4c-0.7-2.3-0.8-5,1.5-6.3c1.4-0.8,0.1-3-1.3-2.2c-5,3-3.1,9.4-0.6,13.5
		c1.7,2.8,4.2,5.1,6.5,7.4c2.6,2.6,5.4,5.1,8.2,7.5s5.8,4.7,8.9,6.9s5.9,4.2,9.2,5.6c2.9,1.2,6.2,1.5,9.1,0.4c2.6-1,4.8-2.7,6.4-4.9
		c4.2-5.3,4.9-11.9,4.8-18.5c-0.1-4-0.4-8.1-0.2-12.1c0.3-3.8,1.4-7.4,2.5-11c2.1-6.3,4.1-12.8,1.1-19.2c-2.3-4.9-7.5-8.7-13.1-6.5
		c-3.2,1.3-5.6,4-8.1,6.4l-9.1,8.8l-18,17.4l-4.4,4.3C1538.8,567.8,1540.6,569.6,1541.8,568.5L1541.8,568.5L1541.8,568.5z"/>
	<path d="M1596.2,450.1c-0.2,12.8,2.3,25.6,7.2,37.5c4.9,11.8,12,22.6,20.9,31.7c5.1,5.2,10.8,9.7,17,13.5c0.6,0.3,1.4,0.1,1.7-0.5
		c2.9-5.7,1.3-12-1.9-17.2c-3.5-5.5-8.7-9.2-13.9-13.1s-10.2-7.9-12.5-14c-2.6-6.6-2-14-4.4-20.6c-2.2-5.9-6.7-11.7-13.5-12
		c-1.6-0.1-1.6,2.4,0,2.5c5.7,0.2,9.5,5.5,11.2,10.5c2.2,6.2,1.9,12.9,3.9,19s6,10.3,10.8,14.1s9.8,6.8,13.7,11.2
		c4.2,4.8,7.8,11.9,4.6,18.2l1.7-0.5c-21.3-13.2-36.4-35.4-41.8-59.8c-1.5-6.8-2.2-13.8-2.1-20.7
		C1598.7,448.5,1596.2,448.5,1596.2,450.1L1596.2,450.1L1596.2,450.1z"/>
	<path d="M1115.6,753.7c-7.1-11.7-7.8-26.2-4.6-39.2c3.4-14,11-26.6,19-38.5c1-1.5,2-3,3.1-4.4s1.9-3,3.2-4.1c2-1.8,4.7-1.8,7-0.6
		s4.2,3.3,5.3,5.7c1.3,2.9,1.1,6.1,0.4,9.1c-0.8,3.6-2.2,6.9-3.5,10.3s-2.2,6.8-2.8,10.4c-1.1,7.4-0.8,15-1.4,22.4
		s-2.5,14.4-7.4,20.1c-4.2,4.9-10.5,8.3-17,6.3c-1.5-0.5-2.2,1.9-0.7,2.4c13.1,4,24-9.5,26.5-20.9c1.7-8,1.3-16.2,1.9-24.2
		c0.3-4.1,0.8-8.1,2.1-12c1.1-3.6,2.7-7.1,3.9-10.8c1.1-3.4,1.9-7.2,1.4-10.8c-0.4-2.9-1.9-5.6-4-7.7c-1.9-2-4.4-3.5-7.2-3.7
		c-3-0.3-5.6,1.2-7.4,3.5c-2.4,3-4.5,6.3-6.7,9.5s-4.4,6.6-6.4,10c-4,6.8-7.5,13.8-10,21.3c-4.5,13.6-5.2,29,0.7,42.3
		c0.7,1.6,1.6,3.2,2.5,4.7C1114.3,756.3,1116.5,755.1,1115.6,753.7L1115.6,753.7L1115.6,753.7z"/>
	<path d="M344.4,396.3c4.4,3.3,8.5,7.2,12,11.5c1.7,2.1,3.3,4.3,4.8,6.6c0.4,0.6,0.6,0.9,1.3,1c0.8,0.1,1.7,0.1,2.5,0.1l4.9,0.2
		c0.7,0,1.2-0.6,1.2-1.2c0.4-9-6.1-17.7-14.9-19.7c-1.6-0.4-2.2,2-0.7,2.4c7.8,1.8,13.5,9.3,13.1,17.3l1.2-1.2l-7.4-0.2l1.1,0.6
		c-4.8-7.5-10.8-14-17.9-19.4C344.3,393.2,343.1,395.4,344.4,396.3L344.4,396.3L344.4,396.3z"/>
	<path d="M374.2,434.4c2.6,4.4,6.8,7.6,11.6,9.1c1.5,0.5,2.2-1.9,0.7-2.4c-4.2-1.3-7.8-4.2-10.1-8
		C375.6,431.7,373.4,433,374.2,434.4L374.2,434.4L374.2,434.4z"/>
	<path d="M412.2,445.1c0-0.1,0.1-0.3,0.1-0.4c0.1-0.2-0.1,0.3,0,0c0-0.1,0.1-0.1,0.1-0.2c0.1-0.1,0.1-0.2,0.2-0.3
		c0.1-0.2-0.1,0.1,0,0c0,0,0.1-0.1,0.1-0.1c0.1-0.1,0.2-0.2,0.3-0.3c0,0,0.1-0.1,0.1-0.1c0.2-0.2-0.2,0.2,0,0
		c0.2-0.2,0.4-0.3,0.7-0.4c0.2-0.1,0,0-0.1,0c0.1,0,0.1,0,0.2-0.1c0.1,0,0.3-0.1,0.4-0.1s0.3,0,0.4-0.1c-0.1,0-0.3,0-0.1,0
		c0.1,0,0.1,0,0.2,0c0.1,0,0.2,0,0.4,0c0.1,0,0.1,0,0.2,0c-0.4,0-0.2,0-0.1,0c0.1,0,0.3,0.1,0.4,0.1c0,0,0.1,0,0.2,0.1
		c0.1,0,0,0-0.1-0.1c0,0,0.1,0,0.1,0.1c0.6,0.3,1.4,0.2,1.7-0.5c0.3-0.6,0.2-1.4-0.5-1.7c-1.5-0.7-3-0.6-4.5,0
		c-1.3,0.6-2.4,1.8-2.7,3.2c-0.2,0.6,0.2,1.4,0.9,1.5S412,445.9,412.2,445.1L412.2,445.1L412.2,445.1z"/>
	<path d="M441.3,451.6h11c1.6,0,1.6-2.5,0-2.5h-11C439.7,449.1,439.7,451.6,441.3,451.6L441.3,451.6z"/>
	<path d="M462,475.4l2.8,11c0.4,1.6,2.8,0.9,2.4-0.7l-2.8-11C464,473.2,461.6,473.9,462,475.4L462,475.4z"/>
	<path d="M826.5,297.5c1.6,0,1.6-2.5,0-2.5S824.9,297.5,826.5,297.5L826.5,297.5z"/>
	<path d="M436.4,93.9c8.4-2.4,16.6-5.5,24.4-9.4c2.4-1.2,6.8-4,9.4-2c1.4,1.1,1.3,3.3,1.6,4.9s0.8,3.3,1.5,4.8
		c2.7,6,8.5,10.7,15,12.1c1.6,0.3,3.3,0.5,4.9,0.4c1.9-0.1,4.2-0.6,5.9,0.3c2.7,1.4,1.9,5.3,0.3,7.2c-2.7,3.2-8,2.8-11.8,2.6
		c-4.2-0.2-8.8-0.3-12.4,2.2c-1.3,0.9-0.1,3.1,1.3,2.2c7-4.8,16.6,1.1,23.5-4.1c2.4-1.9,3.8-5.2,3.2-8.2c-0.8-4-4.7-4.9-8.2-4.7
		c-3.8,0.2-7.3,0-10.7-1.8c-3.3-1.7-6-4.2-7.9-7.4c-0.9-1.5-1.6-3.2-2-4.9c-0.4-1.9-0.3-3.9-1.2-5.7c-1.7-3.4-5.8-3.3-8.9-2.2
		c-2.1,0.7-4,1.9-6,2.8c-2.4,1.2-4.8,2.3-7.3,3.3c-5,2.1-10.1,3.8-15.3,5.3C434.1,91.9,434.8,94.4,436.4,93.9L436.4,93.9L436.4,93.9
		z"/>
	<path d="M393.5,188.1l8.2,9.2c0.5,0.5,1.3,0.5,1.8,0c0.5-0.5,0.5-1.3,0-1.8l-8.2-9.2c-0.5-0.5-1.3-0.5-1.8,0
		C393,186.8,393,187.6,393.5,188.1L393.5,188.1z"/>
	<path d="M532.4,187.2c3.1,2,5.3,5.5,5.7,9c0.1,0.7,0.5,1.2,1.2,1.2c0.6,0,1.3-0.6,1.2-1.2c-0.5-4.6-3-8.7-7-11.2
		c-0.6-0.4-1.4-0.1-1.7,0.4C531.6,186.1,531.8,186.8,532.4,187.2L532.4,187.2L532.4,187.2z"/>
	<path d="M30.9,168.2c-2.9,6.8-0.3,14.7,5.4,19.1c6.4,4.9,15.1,5.2,22.5,2.7c4.5-1.5,8.7-4.1,12.5-6.9c1.3-1,0-3.1-1.3-2.2
		c-5.8,4.4-12.6,8.1-20,8.2c-6.8,0.1-13.7-2.9-16.6-9.3c-1.5-3.2-1.8-7.1-0.4-10.3C33.6,168.1,31.5,166.8,30.9,168.2L30.9,168.2
		L30.9,168.2z"/>
	<path d="M529.8,59.1c-4.9-1.7-10.1-0.4-14.7,1.5c-3.9,1.6-8.4,3.3-11,6.7c-2.3,2.9-2.4,7,0.4,9.6c2.6,2.4,6.7,3,10.1,2.7
		c4.5-0.4,10.3-2.4,14.1,0.9c1.2,1.1,3-0.7,1.8-1.8c-6.1-5.4-14.1-0.2-21-2.1c-2.9-0.8-5.7-3.1-4.3-6.4s5.6-5.1,8.7-6.5
		c4.8-2.1,10.2-4.1,15.4-2.3C530.6,62,531.3,59.6,529.8,59.1L529.8,59.1L529.8,59.1z"/>
	<path d="M912.2,324.1c2.3,16.4,13.6,31.3,30,35.5c8.2,2.1,16.8,1.3,24.4-2.4c4-1.9,7.8-4.5,12.2-5.5c2.2-0.5,4.4-0.4,6.5,0.2
		s4.3,1.9,6.4,2.9c17,7.6,36.2,6.1,54.2,3.6c4.2-0.6,8.6-0.9,12.6-2.2c3.6-1.1,6.9-3.4,7.8-7.2c1-4.3-1-8.6-3.2-12.2
		s-4.9-6.6-7.9-9.3s-6.6-5.1-10.3-7c-3.5-1.7-7.1-2.8-10.8-3.9c-6.3-1.8-14.1-3.7-17.4-10c-1-2-1.3-4.3-2-6.4
		c-0.5-1.8-1.3-3.4-2.5-4.8c-2.1-2.5-5.3-4.2-8.6-4.7s-6.8,0.1-9.5,2c-3.3,2.3-5.8,5.9-10.3,5.7c-3.9-0.1-7.3-2.7-10.1-5.2
		c-3.2-2.9-5.8-6.3-8.7-9.5c-6-6.6-13-12.4-20.6-17.1c-3.6-2.3-7.4-4.4-11.4-6c-3-1.2-6.9-2.1-9.8-0.4c-3.1,1.8-3.5,5.6-1.8,8.6
		c2,3.4,5.4,5.4,7.7,8.4c2.5,3.2,3.7,7.5,3.2,11.6c-0.1,0.8-0.1,1.8-0.8,2c-0.8,0.3-1.8-0.1-2.5-0.5c-1.8-1-2.6-2.8-3.2-4.7
		s-1.1-4.1-2.2-5.9s-2.7-3.1-4.5-4c-3.6-1.8-7.8-2.7-11.8-3c-8.2-0.5-16.7,1.9-23.3,6.9c-3.3,2.6-5.9,6-5.9,10.3
		c0,2.3,0.7,4.6,1.3,6.9c0.5,2,1.2,4.1,1,6.2c-0.3,2.6-2.1,6.7-5.3,5.9c-1.6-0.4-2.2,2-0.7,2.4c3.2,0.8,5.9-1.2,7.3-4
		c1.8-3.6,1.3-7.1,0.2-10.8c-0.6-2.3-1.4-4.6-1.3-7c0.1-2.1,1-4,2.3-5.5c2.7-3,6.5-5.2,10.2-6.6c7.6-2.9,16.7-3.2,24.2,0.3
		c1.9,0.9,3.5,2.1,4.5,4.1s1.3,4,2,6c1.2,3.1,4.1,6.3,7.7,5.8c0.8-0.1,1.5-0.4,2.1-0.9c0.8-0.6,0.8-1.7,1-2.6c0.3-1.9,0.3-3.8,0-5.8
		c-0.6-3.9-2.4-7.4-5.2-10.1c-1.4-1.4-2.8-2.6-4.1-4c-1.1-1.2-2.4-2.7-2.6-4.4c-0.4-4,4.4-4,7-3.4c3.9,1,7.5,3.2,11,5.2
		c3.8,2.2,7.4,4.7,10.9,7.4s6.8,5.7,9.8,8.9c2.9,3,5.5,6.4,8.4,9.3c5,5.1,12.5,10.6,19.7,6.4c3.3-1.9,5.5-5.3,9.3-6.2
		c3.1-0.7,6.5,0.1,9.2,1.8c1.3,0.9,2.5,2.1,3.2,3.5c1,1.9,1.4,4.1,1.9,6.1c1,3.4,2.8,6.2,5.7,8.4c5.5,4.2,12.7,5.4,19.2,7.5
		c7.7,2.5,14.6,7.2,19.8,13.5c2.6,3.2,5.3,7,6.1,11.1c0.4,2.1,0.1,4.4-1.4,6c-1.1,1.3-2.7,2.1-4.3,2.7c-3.8,1.3-8.1,1.6-12.1,2.2
		c-4.6,0.6-9.1,1.2-13.7,1.6c-9,0.8-18.3,0.8-27.2-1c-4.4-0.9-8.7-2.2-12.8-4.1s-7.7-4-12.2-3.5c-4.2,0.5-8,2.5-11.7,4.4
		s-7.5,3.7-11.8,4.4c-8.2,1.4-16.8-0.5-23.9-4.8s-12.2-10.9-15.3-18.4c-1.5-3.6-2.5-7.3-3-11.1C914.4,321.9,912,322.5,912.2,324.1
		L912.2,324.1L912.2,324.1z"/>
	<path d="M1134.4,252.8c-7.2,0.9-13.5,6-15.2,13.2c-0.9,3.6-0.6,7.5,0.8,10.9c0.7,1.8,1.7,3.3,2.9,4.8c1.4,1.7,2.9,3.3,3.6,5.5
		c0.6,2,0.7,4.1,1,6.2s0.8,4.3,1.5,6.4c1.4,4.2,3.4,8.2,5.4,12.2c1.9,3.7,4.1,6.9,7.9,8.9c3.4,1.7,7.3,2.5,11.1,2.8
		s8.3-0.1,11.8-2.3c2.9-1.8,5.3-4.9,5.9-8.3c1.2-7.3-5.4-11.1-10.8-13.9c-3-1.6-5.9-3.2-8.2-5.8c-2.4-2.8-3.9-6.3-4.4-9.9
		c-0.2-1.8-0.2-3.6,0.1-5.4c0.2-0.8,0.3-1.8,0.9-2.5s1.5-1.1,2.2-1.6c1.5-1.2,1.7-2.7,1.6-4.5c-0.1-1.6,0.1-2.6,1.4-3.5
		c2.1-1.5,5-2.3,5.8-5c1.2-3.8-2.6-6.7-5.5-8.3c-6.2-3.5-14.1-3.8-20.6-1.1c-1.6,0.7-3.2,1.5-4.6,2.6c-1.3,1,0,3.1,1.3,2.2
		c5.3-4,12.4-5.1,18.8-3.2c1.6,0.5,3.1,1.1,4.6,2s3.2,2,3.7,3.7c0.7,2.5-2.9,3.7-4.5,4.7c-1,0.6-1.9,1.4-2.4,2.5
		c-0.8,1.5-0.2,3-0.4,4.6s-2.3,2-3.2,3.1c-1,1.2-1.4,2.8-1.6,4.4c-0.9,6.5,1.6,13.4,6.3,18c2.2,2.1,4.9,3.6,7.6,5s5.3,2.6,7.4,4.7
		s3,5.1,1.9,8c-1.2,3.4-4.3,5.7-7.7,6.6c-3.6,1-7.6,0.7-11.2,0s-7.1-1.9-9.6-4.6c-1.4-1.5-2.3-3.3-3.2-5.1s-1.9-3.7-2.7-5.5
		c-1.7-3.7-3.2-7.5-3.9-11.5s-0.6-7.8-3.1-11c-1.1-1.5-2.4-2.8-3.4-4.3s-1.6-3.1-2-4.9c-1.6-6.9,1.8-13.8,8.1-16.9
		c1.5-0.7,3.1-1.2,4.7-1.4S1136,252.5,1134.4,252.8L1134.4,252.8L1134.4,252.8z"/>
</g>
</svg>
