<?xml version="1.0" encoding="utf-8"?>
<!-- Generator: Adobe Illustrator 26.3.1, SVG Export Plug-In . SVG Version: 6.00 Build 0)  -->
<svg version="1.1" id="Capa_1" xmlns="http://www.w3.org/2000/svg" xmlns:xlink="http://www.w3.org/1999/xlink" x="0px" y="0px"
	 viewBox="0 0 50.4 75.2" style="enable-background:new 0 0 50.4 75.2;" xml:space="preserve">
<style type="text/css">
	.st0{fill:#FCCB68;}
</style>
<path id="Trazado_573" class="st0" d="M20,0c-0.9,0-1.6,0.7-1.6,1.6c0,0,0,0,0,0v9.6c0,0.9,0.7,1.6,1.6,1.6s1.6-0.7,1.6-1.6V1.6
	C21.6,0.7,20.9,0,20,0C20,0,20,0,20,0 M38.5,10.4c-0.3,0-0.6,0.1-0.9,0.2l-8.3,4.8c-0.8,0.4-1,1.4-0.6,2.2s1.4,1,2.2,0.6l8.3-4.8
	c0.8-0.4,1-1.4,0.6-2.2c0,0,0,0,0,0C39.5,10.7,39,10.4,38.5,10.4L38.5,10.4z M1.4,10.4c-0.5,0.1-0.9,0.3-1.2,0.8
	C-0.2,12,0,12.9,0.8,13.4c0,0,0,0,0,0l8.3,4.8c0.8,0.4,1.7,0.2,2.2-0.6c0.4-0.8,0.2-1.7-0.6-2.2l-8.3-4.8
	C2.1,10.5,1.7,10.4,1.4,10.4L1.4,10.4z M20,16c-3.5,0-6.4,2.9-6.4,6.4v20.4c-1-2.1-2.8-4.5-5-5c-3-0.8-6.8,1.6-7.6,4.4
	c-0.4,1.9-0.1,3.8,0.7,5.5c4.2,10,9.3,19.6,15.5,26.9c0.3,0.3,0.7,0.5,1.2,0.6H40c0.3,0,0.7-0.1,1-0.3c2.3-1.7,4.2-4.6,5.7-8.1
	c1.6-3.6,2.7-7.5,3.3-11.4c0.7-3.6,0.6-7.3-0.2-10.8c-0.8-3.1-3-5.8-6.3-6.1c-0.8,0-1.5,0.1-2.3,0.2c-0.3-0.9-0.9-1.7-1.7-2.3
	c-1-0.7-2.2-1.1-3.4-1.1c-0.9,0-1.8,0.3-2.6,0.9c-0.3-0.5-0.7-1-1.2-1.4c-1-0.7-2.2-1.1-3.4-1.1c-0.8,0-1.6,0.2-2.4,0.5V22.4
	c0.1-3.5-2.7-6.3-6.2-6.4C20.1,16,20,16,20,16L20,16z M20,19.2c1.7,0,3.2,1.4,3.2,3.1c0,0,0,0.1,0,0.1v15.2c0,0.9,0.7,1.6,1.6,1.6
	c0.6,0,1.2-0.4,1.5-0.9c0.6-0.9,1.5-1.4,2.5-1.5c0.6,0,1.1,0.2,1.6,0.5c0.6,0.4,0.9,1.2,0.8,1.9c0,0.9,0.7,1.6,1.6,1.6
	c0.6,0,1.1-0.3,1.4-0.9c0.7-1.3,1-1.5,1.8-1.5c0.5,0,1,0.2,1.5,0.5c0.6,0.4,1,1.2,0.9,1.9c0,0.6,0.4,1.2,0.9,1.5
	c0.6,0.2,1.3,0.1,1.7-0.3c0.6-0.3,1.3-0.4,2-0.4c1.9,0.2,2.9,1.4,3.6,3.8c0.7,3.1,0.7,6.3,0.2,9.5c-0.6,3.7-1.6,7.2-3.1,10.6
	c-1,2.4-2.5,4.7-4.4,6.5H19.2c-5.6-6.6-11-16.8-14.5-25.4c-0.7-1.9-0.8-2.9-0.6-3.5c0.6-1.5,2.1-2.4,3.7-2.2
	c1.7,0.6,2.1,1.8,2.8,3.1l3.2,6.4c0.4,0.8,1.4,1.1,2.2,0.7c0.5-0.3,0.9-0.8,0.9-1.4V22.4C16.8,20.6,18.2,19.2,20,19.2
	C19.9,19.2,19.9,19.2,20,19.2L20,19.2z"/>
</svg>
