<?xml version="1.0" encoding="utf-8"?>
<!-- Generator: Adobe Illustrator 26.3.1, SVG Export Plug-In . SVG Version: 6.00 Build 0)  -->
<svg version="1.1" id="Layer_1" xmlns="http://www.w3.org/2000/svg" xmlns:xlink="http://www.w3.org/1999/xlink" x="0px" y="0px"
	 viewBox="0 0 905.7 1000" style="enable-background:new 0 0 905.7 1000;" xml:space="preserve">
<style type="text/css">
	.st0{fill:none;}
	.st1{display:none;}
	.st2{display:inline;}
</style>
<rect class="st0" width="905.7" height="1000"/>
<g class="st1">
	<path class="st2" d="M378.3,122.5c2-6.3,8.2-10.4,13-14.6c5.2-4.6,10.7-8.9,17.5-10.8c6.6-1.8,13.9-2.2,20.7-2.2
		c2.2,0,19-1,19.3,0.9c0.2,1.2-15.9,0.9-17.5,0.9c-7.2,0-14.4,0.7-21.4,2.4c-6.2,1.5-11.1,5.7-15.8,9.7
		C388.8,113.3,382.6,117.1,378.3,122.5z"/>
	<path class="st2" d="M399.2,172.6c2.4-9.3,8.8-13.9,17.9-16.2c5.4-1.4,11.1-2.9,16.6-3.6c1.1-0.1,13.1-1.4,13.5-0.5
		c0.8,2.2-10,2.5-11,2.6c-5.4,0.7-10.7,2.4-16,3.6C410.7,160.7,405.1,164.8,399.2,172.6z"/>
	<path class="st2" d="M635.8,27c-0.1,0.1-1.4,2.7-1.7,2.6c-3.5-1,4.6-11.3,5.7-12.2c4.6-3.5,13.3-4.5,18.9-3.8
		c1,0.1,3.8,0.4,2.7,2.1c-1,1.6-8.3,1.3-10,1.6C644.3,18.4,639.8,20.7,635.8,27z"/>
	<path class="st2" d="M590.8,83.3c1.6,1.1-1,5.9-1.4,7.7c-0.8,3.2-1,5.9-0.4,9.2c0.3,2,4.1,19.2,3.1,19.4
		c-1.8,0.4-4.8-16.7-5.1-18.4c-0.6-3.5-0.6-6.5,0.2-10C587.7,89.5,588.4,83.5,590.8,83.3z"/>
	<path class="st2" d="M655.5,49c-4.9-0.4-9.5-0.2-13.7-3.2c-1.4-1-9.5-10-6.2-10.3c1.8-0.2,6.8,6.8,8.6,8c1.2,0.8,13.4,4.7,13.3,4.8
		C656.9,49,656.2,48.9,655.5,49z"/>
	<path class="st2" d="M505.7,123.6c3.8-1.1,39.7-2.8,39.8-2.2c0.3,3.6-36.5,1.6-40,2C505.5,123.4,505.6,123.5,505.7,123.6z"/>
	<path class="st2" d="M400.2,73.5c4.2-2.8,10.1-3.9,14.6-6.3c1.6-0.9,8.7-6.7,9.9-5.1c1.3,1.9-10.4,7.8-11.7,8.3
		C411.9,70.9,400.2,74.4,400.2,73.5z"/>
	<path class="st2" d="M588.8,28.5c0.1,0,0.2,0,0.3-0.1c0.4,4.5,2.4,9.4,4,13.7c1,2.6,2,5.2,3.2,7.7c0.4,0.8,3.3,5.7,1.7,5.8
		c-2.5,0.1-6.1-11.2-6.8-13.1C589.9,38.9,586.8,32.2,588.8,28.5z"/>
	<path class="st2" d="M589.1,158.6c-0.3,4-0.7,7.9-0.2,11.9c0.1,1.1,1.9,7.8,0.2,8.3c-3.4,0.9-1.9-25.4-0.5-24.9
		C589.4,154.2,589,157.9,589.1,158.6z"/>
	<path class="st2" d="M535.5,35.1c-0.1-1,0.1-6.2,1.7-6.2c-0.6,0,0.1,11.1,0.3,12.2c0.6,3,5,8.7,4.4,11.5c-0.8,3.7-3.7-4.1-4.3-5.6
		C536.1,43.1,535.6,39.2,535.5,35.1z"/>
	<path class="st2" d="M583.7,96.8c-1,4.1-0.2,9.6,0.7,13.7c0.4,2.2,1.2,4.4,1.9,6.5c0.5,1.6,1.3,3.3,1.4,4.9c0-0.3,0.2,3.2-0.4,2.4
		c-2.4-3-4.2-10.5-4.7-14.2C582.1,108.3,581.2,97.3,583.7,96.8z"/>
	<path class="st2" d="M560.1,240.8c0-3.8,1.4-8,3.1-11.4c0.5-0.9,5.9-9.8,7.1-7.7c0.6,1.1-5.3,8.4-5.9,9.9c-0.5,1.2-4.2,11-3.5,11.5
		C560,242.5,559.8,241.8,560.1,240.8z"/>
	<path class="st2" d="M576,98.3c-0.1-3,0.1-9,2.9-10.8c0.4,0.7-0.8,4.1-0.9,4.8c-0.3,2.3-0.5,4.6-0.4,6.8c0,1.6,2.4,11.6,1.8,12.2
		C578,112.7,575.8,99.7,576,98.3z"/>
	<path class="st2" d="M447.4,261.6c-7.8-1.7-14.5-1.2-22.4-0.3c0.1-2.4,12.4-2.7,14.1-2.5c2.5,0.2,5.7,0.5,8.1,1.3
		C448.6,260.6,450.5,262.1,447.4,261.6z"/>
	<path class="st2" d="M598.2,166c-0.4,3.6-0.2,7.4-2.7,9.7c0.7-0.6,0.7-5.1,0.8-6.7c0.3-4-0.2-7.8-1.2-11.6
		c-0.5-1.9-1.8-6.9,0.8-3.3C597.8,156.8,598.2,162.9,598.2,166z"/>
	<path class="st2" d="M642,123.1c-0.1-0.9,0.6-9.8,2.1-9.2c-0.8-0.3,0.5,19.2,0.3,19.4C643.3,134.4,642,123.4,642,123.1z"/>
	<path class="st2" d="M595.7,31c0-0.8-0.2-6.4,1.4-6.4c-1.3,0,2.5,17.1,2.2,17.9c-1,2.5-1.7-0.3-2.2-2.1
		C596.3,37.4,595.6,34.2,595.7,31z"/>
	<path class="st2" d="M553.4,242.1c-2.2-2.8-1.4-6.1-0.4-9.2c0.5-1.6,2.6-8.4,4.7-8.8c2.2-0.4-1.7,6.1-2.1,7.2
		C554.1,234.8,552.8,238.3,553.4,242.1z"/>
	<path class="st2" d="M379,382.4c-0.8-2.5-8.1,6.7-8.7,7.5c-3.3,4.5-6.2,9.3-8.8,14.4c-2.5,4.9-4.3,10.1-6.4,15.2
		c-2.1,5.1-4.9,10-6.7,15.3c-3.9,10.9-6,22.1-10.6,32.7c-4.6,10.4-7,21.2-10.5,31.9c-15,45.6-30.4,91.5-49.4,135.7
		c-9.6,22.4-17.8,45.4-27.4,67.8c-9.6,22.3-19.7,44.3-30.7,65.9c-21.9,42.6-47.4,83.1-77.1,120.7c-14.8,18.7-31,36.5-48.1,53.1
		c-8.7,8.5-17.8,16.5-26.9,24.5c-4.5,3.9-9,7.8-13.6,11.6c-3.9,3.2-8.1,5.7-11.9,8.8c-1.2,1-9.7,6.7-7.8,8c1.2,0.9,10.8-7.4,12-8.3
		c4.1-3,7.7-6.7,11.9-9.9c4.6-3.5,9.1-7.1,13.5-10.7c18.2-15,35.1-31.4,51.1-48.8c32.2-35,58.9-74.2,83-115.1
		c24.5-41.5,42.4-86.2,61-130.5c18.6-44.2,35.9-88.9,51.2-134.4c3.8-11.2,7.5-22.5,11.3-33.8c3.8-11.1,6.1-22.5,10.8-33.3
		c4.4-10.4,7.1-21,10.4-31.8c3.1-10.2,7.9-20.7,12.4-30.4c2.3-5,5-9.9,8-14.5C372.3,392,379.8,384.8,379,382.4z"/>
	<path class="st2" d="M637.1,198.4c0.1-3.1,1.1-5.9,2.8-8.4c0.4-0.6,3.1-4.5,4-3.1c0.3,0.5-3.3,4.6-3.7,5.2
		c-1.5,2.6-1.4,5.7-2.6,8.3C637.2,201.5,636.9,195.8,637.1,198.4z"/>
	<path class="st2" d="M491.9,302.2c-0.9-1.5-3-2.1-4.1-3.8c-0.3-0.5-4.2-9.1-2.4-8.8C488.2,290.1,488.3,300.9,491.9,302.2z"/>
	<path class="st2" d="M289,351.1c-2.2-1-8,6.1-9.9,7.5c-3.9,3-8.2,5.2-13,6.4c-5.2,1.3-10.4,1-15.7,1c-0.7,0-11.7-0.6-10.1,1.5
		c0.6,0.8,5.4,0.3,6.4,0.3c2.3,0.1,4.5,0.7,6.7,0.8c5.3,0.4,11.2-0.3,16.2-1.8c4.6-1.3,8.5-3.7,12.1-6.7
		C283,359.3,291,352,289,351.1z"/>
	<path class="st2" d="M341.4,173.8c-2.3-0.6-8.3,9.1-9.7,10.7c-4.1,5-8.2,9.8-12.3,14.8c-1.9,2.4-19.8,22.7-17.6,24.8
		c1.4,1.3,6.1-7.4,6.9-8.4c3.9-4.9,7.9-9.7,11.9-14.5c4.1-5,8.4-9.9,12.5-15C334,184.9,342.2,174,341.4,173.8z"/>
	<path class="st2" d="M534.3,241.2c-2.5-1.4-8.1-0.3-10.8,0c-3.8,0.4-7.4,1.8-11.2,2.4c-1.2,0.2-7.1,0.1-7.1,2.4
		c0,1.8,6.3-0.6,7.4-1c0-0.1-0.1-0.1-0.2-0.2c0.4,0.3,10.2-2,11.6-2.1c2.5-0.2,5.7,0.2,8.2-0.3C532.3,242.4,535.6,242,534.3,241.2z"
		/>
	<path class="st2" d="M591.3,52.3c-2.1-3.5-3.5-6.6-4.6-10.4c-0.7-2.2-2.4-5.7-2.2-1.1c0.2,2.8,2,5.7,3.2,8.1c0.3,0.6,1.7,4,2.6,4.1
		C590.6,52.9,591.8,53.1,591.3,52.3z"/>
	<path class="st2" d="M580.2,224.5c-0.8-2-6.5,8.4-6.9,9.2c-0.5,1.3-4.3,8.6-2.6,9.4c1.5,0.7,3.5-7.4,4-8.5
		C575.4,233,580.6,225.6,580.2,224.5z"/>
	<path class="st2" d="M455.3,211.9c-0.2-1.1-29.6,3.6-32.2,4.1c-5.1,1-10.2,2.6-14.6,5.4c-1.2,0.8-10.2,7.6-9.1,9.1
		c0.7,1,7.8-5.6,9.1-6.4c4.4-2.8,9.3-4.6,14.4-5.7c5.7-1.3,11.5-2,17.2-2.9C442,215.3,455.8,214.5,455.3,211.9z"/>
	<g class="st2">
		<path d="M670.5,200.1l0.1,0.1c0.2-0.2,0.5-0.3,0.6-0.6C671,199.6,670.7,199.8,670.5,200.1z"/>
		<path d="M491.9,302.2c-0.3,0.2-0.1,0.5,0.6,0.7C492.4,302.7,492.2,302.4,491.9,302.2z"/>
		<path d="M728.9,120.8c0.1-0.1,0.2-0.2,0.3-0.2C729,120.6,728.9,120.7,728.9,120.8L728.9,120.8z"/>
		<path d="M899.3,627.3c-1.9-32.8-12-65.5-27.5-94.4c-7.3-13.7-16-26.6-25.9-38.5c-5.3-6.4-11-12.3-16.8-18.2
			c-5.3-5.3-8.2-12.6-12.7-18.6c-19.2-26.2-46.6-46.5-75.4-61.1c-14.5-7.4-29.8-13.4-45.5-17.4c-7.8-2-15.7-3.6-23.8-4.3
			c-4.3-0.4-8.7-0.5-13-0.5c-2.1,0-9.3,1.6-10.9,0.3c-1.6-1.4-0.4-7.7-0.3-9.6c0.2-4.2,0.3-8.5,0.7-12.7c0.8-7.7,1.1-15.4,1.1-23.2
			c0-8.1-0.3-16.3,0.6-24.4c0.9-8.5,2.8-16.8,3.4-25.3c0.5-6.9,0.7-13.9,1.4-20.8c0.3-2.3-0.1-9.4,1.4-11c1.5-1.7,6.8-0.6,8.9-0.6
			c12.5-0.5,25.6-16,24.8-28.6c-0.5-7.4-6.5-10.4-11.3-14.8c-5.4-5-8.7-12.1-14.1-17.3c-2.2-2.1-6.6-4.1-8.2-6.5
			c-2-2.8-1.3-9.2-1.5-12.5c-0.2-4.4,0.8-4.5,5-4.2c4.3,0.4,8.7,1,13,1.6c8.2,1.1,16.7,1.4,25,1c7.2-0.4,15.1,0.4,21.8-2.7
			c14.1-6.6,22.1-20.8,16.7-36.2c-2.3-6.7-7.6-12-13.2-16.1c-6.2-4.6-12.6-6.2-20.1-7.5c-15.8-2.8-30.9-9.8-47.2-8.7
			c-7.8,0.5-15.6,1.2-22.8-2.3c-7-3.4-13.4-8.2-20.5-11.5c-1.5-0.7-6.6-1.7-5.8-3.8c0.7-1.7,9.3-3,11.1-3.4c8.1-1.9,16.2-3,24.1-5.5
			c8.1-2.5,16.5-5.4,24.1-9.2c6.2-3.1,10.5-8.8,13.4-15c6.5-13.9,2.6-29-11.9-35.4c-14-6.2-31.3-3.4-45.7,0
			c-14.9,3.6-30.2,8.2-45.5,9.4c-7.5,0.6-15.1,0.2-22.6,0.9c-3.5,0.3-6.7,0.9-10.1,1.7c-4.1,1-7.3,3.3-11.2,4.6
			c-2.9,1-6.2,0.7-9.2,1.2c-4.1,0.7-8,2-12.1,2.6c-7.5,1.2-15,2.5-22.5,3.8c-15.8,2.6-31.4,6-47.2,8.4c-7.6,1.2-15.4,1.5-22.7,4
			c-6.4,2.2-11.9,6.1-16.8,10.6c-11.3,10.3-19.3,24.3-27.9,36.9c-5,7.3-9.8,14.8-15,22c-4.5,6.3-9.8,11.9-14.5,18.1
			c-9.8,13.2-19,26.6-29.2,39.5c-10.1,12.7-18.6,26.7-28.7,39.3c-10.2,12.7-19.6,25.9-29.4,38.9c-10,13.2-20.4,26.2-29.9,39.8
			c-9.5,13.4-20.3,25.7-30.9,38.2c-11.2,13.2-21.8,27-32.5,40.7c-9.9,12.6-17.9,26.6-27.6,39.4c-5,6.7-10.4,13-15.3,19.8
			c-5.1,7-9.9,14.2-15.4,20.9c-21.5,26.1-44,51.4-68.1,75c-3.2,3.2-31,30.6-33.1,28.2c0,1.5,0,3,0,4.6c0.7-1,1.9-1.1,3-1.7
			c2-1.1,3.8-2.9,5.7-4.3c3.8-2.9,7.4-5.8,11-8.9c6.4-5.6,12.4-11.5,18.5-17.4c12.9-12.3,25.1-25.2,36.8-38.8
			c11.5-13.3,23.5-26.4,34.1-40.5c10.1-13.4,20.6-26.6,30.1-40.4c9.8-14.2,19.4-28.3,30.1-41.9c10.8-13.8,21.8-27.4,33.2-40.7
			c11.3-13.1,21.1-27.1,31.5-40.8c10.2-13.5,20.8-26.7,30.7-40.3c10-13.6,20.4-26.9,30-40.7c9.8-13.9,21.1-26.7,30.9-40.6
			c19.9-28.2,42.3-55,60-84.7c8-13.5,20-25.4,35.8-28.8c8-1.7,16.3-2.1,24.4-3.7c8.8-1.7,17.6-2.9,26.5-4.9
			c8.3-1.9,16.8-2.9,25.2-4.4c8.1-1.5,16.4-3.7,24.6-4.8c4.4-0.6,4.5,0,3.8,4c-0.8,4.4-0.4,8.8,1,13.1c1,3.2,2.4,6.5,4.3,9.3
			c2,3,4.1,3.1,1.9-0.6c-4.2-6.9-6.5-13.8-5.9-22c0.3-3.5,0.3-4.4,3.6-5.8c3.7-1.5,7.2-2.5,11.1-3.4c7.8-1.9,16-1.7,24-1.7
			c9,0,17.6-1.6,26.5-3.3c16.3-3.1,31.6-8.2,48.3-9.3c4.2-0.3,8.3-0.3,12.5,0.5c2.7,0.5,8.8,1.4,10.5,3.8c1.8,2.5-0.6,1-1.5,3.1
			c-0.7,1.8,2.5,7.6,2.8,9.6c0.7,3.7,0.2,7.8-0.4,11.5c-0.2,1.3-3.3,10.2-2.6,10.8c1.5,1.3,4.8-10.6,5-11.4
			c0.9-4.8,0.8-9.8-0.5-14.5c-0.4-1.5-3.8-7.3-0.3-7c3,0.2,6.8,6.6,7.6,9.1c3.1,9-1.1,18.8-6.3,26.1c-5,7.1-16.1,9.5-23.8,12.4
			c-10,3.7-20.2,5.4-30.5,8c-4.7,1.2-8.6,2.9-12.6,5.2c-1.8,1-0.8,1.1-3.2,0.6c-2.5-0.5-4.9-1.9-7.5-2.4c-20.4-3.8-40.5-0.4-61,0.3
			c-6.1,0.2-12.1,0.6-18.2,1c-5.8,0.4-11.5-0.5-17.3-0.6c-5.5,0-11-0.3-16.5-1.2c-1.5-0.2-17.4-3.2-17.4-2.9c0,0.8,7.5,3.2,8.4,3.5
			c3.6,1.2,7.5,1.9,11.3,2.5c8.2,1.4,17,1.5,25.3,1.6c14.4,0.2,28.6-1.7,42.9-2.2c14.3-0.5,28.8-2,42.9,1.1
			c14.7,3.2,27.1,12.3,40.5,18.7c1.2,0.6,2.7,1.6,4,1.9c2,0.5,1.6-0.2,3.4-0.3c2.6-0.2,6.8-0.8,8.2,1.7c1.2,2,0.5,8.7,0,10.9
			c-1,3.9-2.6,6.5-2.7,10.9c-0.2,6.8,2.3,12.7,2.5,19.2c0.1,3.8,0,7.5,0.2,11.3c0.4,5.5,1.4,7.7-4.9,6.3c-16-3.6-31.4-9.5-47.5-12.4
			c-14.5-2.6-29.2-0.7-43.7-2.2c-9.2-0.9-18.7-0.9-28-1.2c-8.2-0.2-16.4-1-24.5-1.4c-8.6-0.4-16.9-1.6-25.2-4
			c-4.4-1.3-8.5-2.8-12.7-4.7c-2.6-1.2-7.9-4.8-10.7-4.4c2.4,4.7,12.2,8.2,16.8,10.1c7.4,3,15.3,4.8,23.2,5.6
			c15.6,1.5,31.2,1.9,46.9,2.1c7.9,0.1,15.7,0.4,23.6,0.6c3.5,0.1,7-0.4,10.6,0c4.3,0.4,8.6,1.3,12.9,1.6
			c14.8,1,26.2,13.9,38.8,20.8c6.3,3.4,12.8,6.2,19.1,9.6c2,1.1,5.8,2.2,7.1,4.3c1.6,2.6,0.5,8.1,0.5,11c0.1,7.9,0.8,15.8,0.7,23.7
			c-0.1,4.1-0.2,8.1-0.2,12.2c-0.1,2.7,1.2,11.2-0.5,13.3c-2.4,3-14.4-3.2-17.2-4.6c-7.2-3.4-14.3-9.1-22.2-10.9
			c-3-0.7-3.6,0.8-6.3-0.5c-2.9-1.3-5.5-3.8-8.3-5.4c-6.1-3.4-14-7.3-20.8-8.8c-8.7-1.9-17.8-3.7-26.6-4.5c-8.7-0.8-17.3,0-26.1,0.1
			c-8,0.1-16.2,0.8-24.2,0c-4.5-0.5-9.1-1.3-13.5-2.2c-2-0.4-10-4.3-11.3-3.6c0.2-0.1,0.4-0.2,0.6-0.2c-3.1-3.3-4.4,0.8-1.1,1.1
			c0-0.4,0.1-0.6,0.3-0.8c-1.8,1.4,12.5,6.8,13.8,7c7.4,1.6,14.1,2.1,21.6,2.1c13.6-0.1,27.3-1.7,40.9-0.6
			c6.8,0.6,13.6,1.8,20.3,2.9c6.4,1.1,12.6,4.6,18.5,7.2c9.8,4.3,23.2,12.1,27,22.9c3.6,10.3,0.6,26-6.7,34.3
			c-8.1,9.1-26.2,3.8-36.3,2c-6-1.1-11.1-3.2-16.7-5.5c-1-0.4-4.2-2.6-4-0.8c0.2,2.8,7.4,2.7,1.8,4.6c-5.8,2-13.2,2.2-19.3,3
			c-7.4,1-14.3,0.9-21.7,0.3c-6.5-0.5-13.5-3.7-19-7c-0.5-0.3-4.5-3.8-4.9-1.3c-0.2,1.4,7,4.4,7.8,4.9c1.1,0.6,2.1,1.2,3.2,1.8
			c1.5,0.8,5.8,1.8,6.8,3.1c1.9,2.3-0.8,4.4-2.5,6.6c-1.3,1.7-11.3,15.3-14.2,13.4c2.1,4.4-20.4,6.7-22.4,6.9c1.4,1,5.5,1.2,7.2,1.3
			c2,0.1,9.1-2.2,10.3-1.4c2.2,1.4-6.2,12-7.6,14.2c-7.7,12.4-15.7,23.1-26.8,32.6c-11.7,10-25.8,15.2-40.6,19
			c-14,3.5-29.8,3.8-44,0.8c-3.3-0.7-7.3-1.6-10.2-3.4c-1-0.6-5.3-4.9-5.7-2c-0.4,2.9,14.2,7,16.2,7.3c7.4,1.4,14.6,1.3,22,1.5
			c7.4,0.2,14,0.2,21.3-1.5c14-3.3,29.1-8,40.3-17.5c10.9-9.3,20.7-19.3,27.6-32c2.7-4.9,5.3-10,8.5-14.6c1.9-2.7,3.9-5.3,5.8-7.9
			c2.3-3,5.5-4.7,8-7.4c1.9-2,3.4-4.4,5.1-6.7c1.2-1.7,3.7-7.3,5.4-8.1c2.4-1.1,7,0.5,9.5,0.6c4.4,0.2,8.8-0.1,13.2-0.7
			c7.1-0.9,14-2.4,21.1-3.6c7.6-1.3,14.1,1.4,21.5,2.8c11.3,2.1,28.7,4.9,36.6-6c7.2-10,10-27.4,4-38.5c-0.8-1.5-1.8-3-2.9-4.3
			c-0.8-1-3.5-2.7-3.8-3.9c-0.9-3.5,2.8-1.2,4.6-0.3c3.1,1.6,6,3.4,9,5.1c4.7,2.7,7.9,3.5,8.8,9.1c4.8,30,3.6,61.3-1.3,91.1
			c-1.2,7.4-2.2,14.8-1.9,22.3c0.2,4.1,0.6,8.3,1.1,12.5c0.5,4.1,1.8,5.5-2.5,6.4c-15.1,3.3-29.5,6.5-43.8,12.6
			c-25.9,11.1-49.5,27.9-69,48.2c-41.1,42.7-64.7,101.1-61.7,160.5c0.8,14.9,3.8,29.9,8.6,44c2,6,5.8,11.9,6.9,18.1
			c1.4,7.8,2.4,15.6,4.4,23.3c7.2,28.5,19.9,55.5,37,79.3c34.2,47.5,86.3,81.3,144.1,91.3c58.2,10.1,119.1-5.2,165.1-42.3
			c42.8-34.5,70.2-86.4,76.5-140.8C899.9,656.5,900.2,641.9,899.3,627.3z M656.5,238c0.2-14.3,0.2-28.5,0.1-42.7
			c0-3.3-2.1-13.2,3.2-8.9c2.2,1.8,12.2,10.1,11.5,13.2c1.5,0.1,3.6,4.3,4.8,5.3c2,1.9,4.6,2.9,6.7,4.7c4.6,4.2,1,12-1.4,16.6
			c-0.6,1.2-1.3,2.5-2.2,3.6c-0.8,1-3,1.8-3.5,2.5c-1.4,1.8-0.1,3.5,2.3,2.9c5.2-1.3,7.2-10.9,9-15c0.9,8.9-8.8,20.4-16.9,22.9
			c-2.8,0.9-8.7,2-11.6,0.8C655.7,242.9,656.4,240.6,656.5,238z M651.1,176.7c-4-1.1-8.2-3.8-12-5.6c-4-1.9-8-4.1-11.9-6.2
			c-4-2.2-7.7-4.6-11.5-7.2c-3.1-2.2-9.1-4.4-11.1-7.6c11.3,1.6,22.8,5.9,34,8.9c3.3,0.9,10.7,1.2,12.4,4.2
			C651.8,164.4,651.4,176.8,651.1,176.7z M654.9,97.2c14-2.6,28.1,5,41.5,7.7c6.5,1.3,13.6,1.4,19.7,4.4c1.8,0.9,14.7,9.6,13.1,11.2
			c1.5-0.7,4.6,5.6,4.9,6.5c1.3,3.6,1.5,7.8,1.3,11.6c-0.5,7.2-4.9,12.8-10.2,17.3c-2.5,2.2-5.4,4.1-8.5,5.5
			c-4.2,1.9-7.1,0.6-11.5,0.5c-4,0-8,0.9-12,0.8c-3.8-0.1-7.5-0.6-11.3-0.7c-7.2-0.1-14.2-1.4-21.3-2.2c-4.6-0.5-5.7-0.4-6-5.2
			c-0.3-4.4-0.3-8.7-0.3-13c0.1-7.7,0.3-15.4,0.2-23.1C654.4,116,653.1,97.6,654.9,97.2z M797.8,446.9
			c-18.2-12.9-36.4-24.2-57.7-31.5c-20.8-7.1-42.2-10.2-64.1-10.6c-5.5-0.1-11.1,0.1-16.6,0.5c-1.9,0.1-5.1,1.1-6.6-0.3
			c-0.4-0.3-1.5-3.4-1.2-4c1-2.1,4.9-1.5,7-1.6c5.5-0.3,11-0.6,16.6-0.5c21.2,0.4,42.5,4.1,62.5,11.2
			C760.1,418.2,780.5,430.5,797.8,446.9z M565.1,463.6c-19.6,12.8-37.4,28.4-52.2,46.6c-15.7,19.3-26.6,40.7-35.2,64
			c-1.3-4.8,2.8-13.5,4.2-18c2-6.1,4.3-12,6.9-17.9c4.8-10.7,10.5-21,17.1-30.7c13.2-19.4,29.9-36.3,48.9-50.1
			c19.8-14.4,42.1-25.2,65.6-32c23.4-6.8,48.2-9.6,72.5-7.9c14.5,1,28.9,3.3,43,7.2c6.9,1.9,13.6,4.1,20.2,6.7
			c5.9,2.3,14.1,4.7,18.8,9.1c-17.2-6.2-34.3-11.3-52.5-13.7c-19-2.5-37.9-2.1-56.9,0C630,430.9,595.1,444.1,565.1,463.6z
			 M768.1,432.9c-33-15.2-68.3-20.6-104.5-18.6c-2.5,0.1-5.8,1.1-7.7-0.7c-3.8-3.8,0.8-4.5,3.5-4.8c9-1,18.4-1.1,27.4-0.4
			c17,1.3,33.6,3.8,49.8,9c8.9,2.8,17.6,6.4,26,10.5c4.1,2,8.1,4.2,12,6.5c1.3,0.8,9.3,7,10,6.7c-1.3,0.5-5.8-2.7-7-3.4
			C774.5,436.2,771.3,434.5,768.1,432.9z M651.1,396.2c-2.2-0.3-3.5-5.9-1.9-7.2c1.6-1.4,8.3-0.5,10.2-0.5c7.8,0,15.7,0.6,23.4,1.6
			c8.6,1.2,17.2,2.9,25.6,5.1c4.3,1.2,8.6,2.5,12.8,4c2.9,1,9.6,2.3,11,5c-2.1,0.4-4.9-1-7-1.6c-3.6-1-7.2-1.9-10.8-2.6
			c-7-1.5-14-2.6-21.1-3.4c-6.9-0.7-13.8-1.1-20.7-1.2C665.6,395.4,658,397,651.1,396.2z M650.5,377.9c13.8-0.5,27,0.2,40.6,3.4
			c13,3,25.7,7.5,37.8,13c24.4,11,47.4,26,66.7,44.7c-25.5-17.7-50-34.9-79.9-44.5c-14.4-4.6-29.2-7.6-44.2-8.5
			c-3.8-0.2-7.6-0.3-11.4-0.3c-2.6,0-8.8,1.3-11.2,0.2C645.5,384.3,646.4,378,650.5,377.9z M636.3,338.6c1.8-10.6,3.7-21.1,4-31.9
			c0.3-9.6,1.3-19.8,0.4-29.3c-0.9-9.7-1.8-19.5-2.8-29.3c-0.1-1-1.1-5-0.2-5.8c1.2-0.9,3.6,0.7,4.8,1.1c2.4,0.8,4.8,1.4,7.2,2.1
			c3,1,3.1,1.2,2.9,4.4c-0.6,10.7-0.7,21.6-2.3,32.2c-1.6,10.3-3.6,20.5-4.1,30.9c-0.5,10.2,0.1,20.4-0.7,30.5
			c-0.8,10.3-1.5,20.6-1.7,31c0,2.5,1.9,12.9-2.9,11.6c-3.1-0.8-4.1-9.7-4.6-12.4C634.3,362.2,634.3,350.2,636.3,338.6z
			 M646.5,396.2c0.2,1-2.6,1.1-3.2,0.7c-1.2-0.6-2.1-4.4-1.8-5.7c0.3-1.2,0.7-2.8,2.5-2C645.5,389.9,646.1,394.6,646.5,396.2z
			 M640.2,397.1c-2.2,2-9.4,2.1-12.3,2.7c-4.4,0.9-8.7,1.9-13,3.1c-8.9,2.4-17.6,5.3-26.2,8.8c-16.6,6.8-32.5,15.5-47.1,26
			c-3.3,2.4-6.5,4.8-9.7,7.4c-1.3,1.1-3.1,3.1-4.7,3.8c-1.8,0.8-1.6,1-0.8-0.7c1.4-3.2,6.6-6.9,9.1-9.2c3.3-3.1,6.7-6.1,10.2-8.9
			c13.6-11.1,28.6-20.4,44.8-27.3c9.3-4,19-7.2,28.9-9.5c4.8-1.1,9.6-2,14.4-2.8c1.8-0.3,3.1-0.8,4.5,0.3
			C639.2,391.5,640.5,396,640.2,397.1z M470.5,520.3c19.7-56.8,64-105.9,119.8-128.9c6.9-2.8,13.9-5.3,21.1-7.3
			c3.7-1,7.4-2,11.1-2.8c2.6-0.6,9.3-3,11.6-1.4c0.7,0.5,2.1,3.7,2.1,4.6c0.2,2.9,0.8,1.4-1.6,2.6c-2.9,1.4-7.5,1.3-10.7,1.9
			c-7.9,1.6-15.7,3.7-23.3,6.4c-28.3,9.9-53.5,26.9-74.3,48.4c-12,12.4-22,26.6-32.4,40.4c-5.3,7-10.1,14.4-14.5,22
			c-4,7-6.8,14.7-11.1,21.4C469,524.8,469.7,522.5,470.5,520.3z M459.4,575.7c-0.7-8.4,2.9-18.1,5.2-26.1c2.7-9,6.1-17.9,10.1-26.5
			c7.6-16.2,17.4-31.3,28.8-45c22.2-26.6,50.9-47.7,82.8-61.4c10.1-4.3,20.5-7.9,31.1-10.7c5.2-1.4,10.5-2.5,15.8-3.5
			c1.5-0.3,5.7-1.7,7.3-1c0.8,0.4,1.7,2.4,2.2,2.3c1.2-0.2,0.2-4,3.8-3.3c1.6,0.4,3.6,3.1,2.8,5c-0.7,1.5-7.6,1.8-9.4,2.3
			c-5,1.2-10.3,1.8-15.3,3c-20.2,4.9-39.6,12.6-57.7,22.8c-33.3,18.7-61.8,45.9-81.6,78.5c-5.7,9.5-10.7,19.4-14.9,29.6
			c-2.2,5.5-4.2,11.1-6,16.8C462.8,563.9,462.2,570.9,459.4,575.7z M471,589.1c-1.4,11.7-1.4,23.2-1.2,35c0.1,6.2,0.2,12.4,0.9,18.6
			c0.1,0.9,1.1,5.4,0,5.7c-1,0.3-3-6.9-3.2-7.5c-3.3-10.9-4.1-22.7-4.6-34c-0.6-11.3,0.5-22.7,1.6-33.9c1.1-11.1,6.2-22.8,10.5-32.9
			c4.4-10.2,9.6-20,15.6-29.3c10.8-17,24-32.6,39.1-46c16.1-14.3,34.2-26.4,53.7-35.5c10.5-5,21.4-9.1,32.5-12.4
			c4.9-1.4,9.8-2.7,14.7-3.8c3.3-0.7,6.7-1.4,10.1-2c2.5-0.4,6.5-1.7,8.9-1.2c1.8,0.4,1.9,0.6,2.7,2.4c1.4,3.1,0.7,2.8-2.6,3.3
			c-6,1-11.9,2-17.9,3.3c-11.1,2.5-22,5.8-32.6,10c-20.4,8.1-39.7,19.2-56.7,33.1C504.1,493.5,477.1,539.4,471,589.1z M894,672.5
			c-6.4,47.9-28.6,93.7-64.1,126.8c-36.5,34.1-84.8,53-134.6,54c-14.9,0.3-30-1.3-44.6-4.3c-7.9-1.7-15.8-3.7-23.5-6.2
			c-6.7-2.2-14.2-4.3-20.1-8.2c30.8,7.4,62.7,13.5,94.5,10.5c29.8-2.8,58.5-10.1,84.6-25.2c43.7-25.2,73.8-67.6,91.3-114.2
			c5.5-14.6,9.7-29.6,13-44.9c1.6-7.5,3.5-15.4,4.2-23.1c0.1-1.2,0.7-4.5-1.1-4.5c-1.7,0-2.6,9.2-2.8,10.5
			c-5.5,30-14.3,60-28.2,87.3C838.8,777.3,801,815,751.1,831.7c-30.2,10.1-62.6,12.3-94.1,8.8c-7.3-0.8-14.7-1.9-21.9-3.3
			c-8.6-1.7-17.2-4.4-25.8-5.8c-3.1-0.5-5.8,0-8.8-0.1c-2.9,0-6.1-2.4-8.7-3.8c-7.2-3.9-14.3-8.2-21-12.9
			c-45.2-31.5-78.1-78.9-92-132.2c-1.7-6.5-4.2-13.8-4.5-20.5c-0.1-2.9,0.3-6.1,0.5-9c0.2-3.4,0-6.3-0.4-9.8
			c-1.9-16.3-1.1-32.9,2.2-49c6-29.6,19.8-57.3,38.7-80.8c31.7-39.3,77.4-66.9,126.4-78.5c59.5-14.1,128.5-4.8,175.9,36
			c44.5,38.4,72.7,95.5,77.5,154C896.3,640.8,896.1,656.8,894,672.5z"/>
	</g>
	<path class="st2" d="M580.6,164.6c0-0.8,2.1-13.5,0.5-13.2c-1.3,0.3-1.7,9.1-1.8,10.4c-0.2,3.4-1.5,11.3,1,14.1
		c1.8,2,1.2-0.9,1.1-1.9C581,170.7,580.4,167.8,580.6,164.6z"/>
	<path class="st2" d="M553.2,184.9c-8-1.1-15.2-0.7-23.3,0.2c-3.6,0.4-7.2,1.1-10.8,1.4c-0.5,0-6.2,0.6-3,1.7c1.1,0.4,2.1-0.8,3-1
		c1.5-0.2,3,0,4.5-0.1c4.1-0.1,8.3-0.6,12.4-1c3.8-0.4,7.4-0.6,11.2-0.2c1,0.1,4,1.1,5,0.5C552.2,186.5,554.5,185.1,553.2,184.9z"/>
	<path class="st2" d="M517.1,61.4c-0.7-1.2-18.4,2.6-20.5,2.9c-2.3,0.3-6.8,1.8-1.9,2.8c2.3,0.4,7.1-0.5,8.9-1.8
		C505.5,65,517.4,61.9,517.1,61.4z"/>
	<path class="st2" d="M548.1,49.8c-1.7-4.6-4-9.2-5.1-14c-0.3-1.6-0.9-8.7-1.6-3.4c-0.5,3.8,1.2,8.9,2.5,12.5
		c0.3,0.8,2.1,6.3,2.9,6.4C547.7,51.3,548.6,51,548.1,49.8z"/>
	<path class="st2" d="M718.1,148.1c-6.6-0.1-15.3-2.9-18.8-8.9c-2.6-4.5-4.9-17.8,0.8-21.1c1,7.8-2.4,17.5,5.7,22.9
		c3.4,2.3,7,2.9,10.9,3.8C719.8,145.5,723.7,148.1,718.1,148.1z"/>
	<path class="st2" d="M728.8,120.7c-0.8,1.5,0.8,4.3,1.2,6c0.6,2.7,0.8,5.3,0.8,8c0,1.6-1.3,14.1-4.5,10.6c-0.8-0.8,1.1-5.4,1.3-6.2
		c0.5-2.8,0.5-5.7,0.2-8.6C727.4,126.7,725.4,122.7,728.8,120.7z"/>
	<path class="st2" d="M705.8,113.7c4.8,1,9.7,2,14.5,3.2c2,0.5,6.8,1.8,2.7,2.6c-1.9,0.4-5.1-0.8-7-1.2c-2.7-0.5-5.4-1-8-1.4
		c-0.8-0.1-5.4-0.1-5.5-1.2C702.1,113.9,704.6,113.9,705.8,113.7z"/>
	<path class="st2" d="M657.2,123.3c0.9,1.7,4.9,15.9,4.1,16.3C657.9,141.2,656.7,125,657.2,123.3z"/>
	<path class="st2" d="M670.5,200.1c-1.9,4.2-4.8,7.9-5.9,12.4c-0.7,2.7-0.2,4.8-0.1,7.4c0.1,1.4,1,3-0.9,1.6
		C657.6,216.8,664.6,201.1,670.5,200.1z"/>
	<path class="st2" d="M666.5,225.9c1.4,0,5.5,3.6,3.6,4.6C669.2,230.9,665.2,226.4,666.5,225.9z"/>
	<path class="st2" d="M708.8,587.7c3-3,5.3-6.9,7.5-10.5c0.7-1.2,6-12,7.1-11.1c1.2,1-4.3,9.7-5.2,11.1c-2.2,3.8-5.3,9.2-9.7,11
		L708.8,587.7z"/>
	<path class="st2" d="M523.1,648.8c1.3-4.2,1.1-9,1.6-13.4c0.5-4.5,1-8.9,1.9-13.3c1.6-8.8,4.5-17.4,8-25.5
		c3.4-7.8,7.7-15.2,11.6-22.8c2-4,4-8,6.1-11.9c0.4-0.7,4.9-8.9,5.6-6.6c0.4,1.3-4.9,8.6-5.5,9.9c-1.8,3.7-3.5,7.5-5.4,11.1
		c-4,7.7-8.4,15.2-11.8,23.3c-3.4,8.2-6,16.7-7.5,25.4c-0.8,4.7-1.5,9.3-2.3,14c-0.4,2.8-0.4,8.9-2.3,11
		C523.1,649.6,523.1,649.2,523.1,648.8z"/>
	<path class="st2" d="M640.8,793.1c2.1-8.5,6.1-16.4,9.1-24.6c3-8.1,5.6-16,9.4-23.7c3.8-7.6,7.7-15.4,12.3-22.5
		c2.2-3.4,4.8-6.5,7.5-9.5c1.5-1.7,5-7,7.1-6.8c0.2,0-5.3,6.8-5.8,7.5c-2.7,3.1-5.3,6.2-7.6,9.7c-4.6,7.2-8.5,14.9-12.3,22.6
		C653,761,647.9,777.5,640.8,793.1z"/>
	<path class="st2" d="M639.4,714.1c-0.6,5.7-1.5,11.4-2,17.1c-0.6,7-0.5,14-1.7,20.9c-1.1,6.6-2.7,13.3-4.6,19.7
		c-0.9,3.2-2,6.5-3.2,9.6c-0.6,1.6-2.2,7-3.7,7.8c-0.9-1.8,1.6-6.1,2.2-7.8c1.2-3.5,2.3-7,3.2-10.6c1.8-7.2,3.6-14.4,4.7-21.7
		c1-6.7,0.9-13.6,1.7-20.4c0.4-3.1,0.7-6.3,1.1-9.4c0-0.2,1.2-7.4,2.1-6.5C639.4,713.3,639.5,713.7,639.4,714.1z"/>
	<path class="st2" d="M552.2,675.4c0.8-3.2,1-4.5,0.4-7.4c-0.7-3-0.8-6.2-1.2-9.4c-0.7-7-3-14.4-2.7-21.5c0.1-3,0.7-6.1,1.2-9.2
		c0.4-2.5,0.1-7.4,1.9-9.3c2-2.1,1.8-1.1,1.8,0.2c0,0.5-1,2-1.2,2.7c-0.5,1.7-0.5,3.9-0.7,5.7c-0.8,6.2-1.4,11.5-0.4,17.7
		c0.6,3.5,1,7.1,1.4,10.7c0.1,1.3-0.3,9,0.5,9.6c1.8,1.3,1.8-1.4,2.2-3.3c0.2-0.8,1-6.3,1.9-3.3c0.7,2.3-1,6.8-1.6,9.2
		c-0.7,2.7-1.1,6.9-3.5,8.6C552.3,676.2,552.2,675.8,552.2,675.4z"/>
	<path class="st2" d="M677.6,764.2c1-1,1.3-4.2,1.7-5.7c0.8-2.8,1.6-5.5,2.5-8.3c2-6.4,4-12.8,6.1-19.2c0.9-2.8,13.7-29.1,16.3-26.7
		c-0.4-0.3-12.5,20.7-13.7,24c-2.2,6-4,12.2-6,18.2c-1,3-1.9,5.9-3.1,8.8C680.6,757.5,677.3,762.2,677.6,764.2z"/>
	<path class="st2" d="M681,576.4c7.8-5.6,17.2-10.5,24-17.3c3.3-3.2,5.3-7.1,7.5-11.1c0.8-1.4,5.5-11.5,7-11.1
		c1.7,0.5-10.8,21.2-13.1,23.4c-7.1,6.8-16.8,11.6-25.4,16.3C681.1,576.6,681,576.5,681,576.4z"/>
	<path class="st2" d="M746.6,623.5c4.8-7.9,10-15.5,14.4-23.6c2.5-4.5,4.7-9.2,7-13.8c0.8-1.6,3.4-8.4,5.5-6.8c1.3,1-11,22.1-12,24
		C760.1,605.8,748.2,624.6,746.6,623.5z"/>
	<path class="st2" d="M643.4,597.8c-1.4-1.5,1.8-9.2,2.5-11.3c1.3-4.3,2.7-8.6,4.3-12.9c0.8-2.2,9.2-22.6,10.6-21.7
		c1.5,1-7.9,19.9-8.8,22.3c-1.6,4.3-3.1,8.6-4.5,12.9C646.7,589.3,645.3,597.1,643.4,597.8z"/>
	<path class="st2" d="M708,732.2c0.4,3.3-1.8,8.5-2.8,11.7c-1.1,3.7-2.4,7.4-4.1,10.8c-1.2,2.5-8.7,18.6-11.3,18.4
		c-0.1,0,4.5-10.1,5.1-11.1c2-3.7,4.1-7.3,5.8-11.2C701.6,748.8,706.4,731.4,708,732.2z"/>
	<path class="st2" d="M763.5,707.6c2.1-7.8,4.7-15.4,8-22.7c1.7-3.6,3.4-7.6,5.9-10.7c0.8-0.9,2.8-3.7,3-1.3c0,0.3-2.8,3.7-3,4.1
		c-0.9,1.4-1.7,2.9-2.4,4.4c-1.8,3.5-3.4,7-4.9,10.7c-1.5,3.7-2.8,7.5-4.1,11.3c-0.6,1.7-2.3,9.9-4,10.7
		C761.7,712.5,763.1,709.2,763.5,707.6z"/>
	<path class="st2" d="M631.9,557c-2.5,5.1-3.1,11.2-5.3,16.5c-0.6,1.4-8.1,16-8.5,15.6c-1.8-1.7,6.6-16,7.5-18.4
		c1.3-3.4,2.2-6.9,3-10.5c0.2-0.9,0.5-3.9,1.2-4.2C630.3,555.8,632.2,555.7,631.9,557z"/>
	<path class="st2" d="M749.2,689.9c-1.8-1.6,3.6-15.2,4.3-17.6c0.8-2.8,4.2-20,6.7-20c0.4,0-4.3,17-4.8,18.6
		c-1.1,3.6-2.1,7.2-3.2,10.8C751.8,683.4,750.7,689.2,749.2,689.9z"/>
	<path class="st2" d="M618.2,726.4c1.8-6.2,3.6-12.3,5.3-18.5c0.9-3.1,1.5-6.3,2.3-9.4c0.3-1.2,1.4-5.2,2-2.3
		c0.5,2.6-1.6,7.3-2.2,9.8c-0.8,2.9-1.6,5.8-2.5,8.7c-1,3.2-2,6.4-3,9.6c-0.5,1.5-1.5,6.4-3,7.3
		C616.6,730.6,617.9,727.5,618.2,726.4C618.2,726.4,618.2,726.4,618.2,726.4z"/>
	<path class="st2" d="M602.8,762.1c-0.7-4.2,3.2-39.1,7.2-38.2c-1-0.2-6.1,34.5-7.5,37.5C602.5,761.4,602.5,761.4,602.8,762.1z"/>
	<path class="st2" d="M733.5,779.3c-0.2,5.2-0.7,10.3-1.8,15.5c-0.4,1.7-3.2,14.3-5.2,14c-0.9-0.1,3.2-12.7,3.6-14.3
		c1.1-4.5,0.3-11.6,2.8-15.5C732.8,779.1,733.5,779.2,733.5,779.3z"/>
	<path class="st2" d="M792,767.8c3.7-3.8,7.1-7.9,9.3-12.8c0.6-1.3,4.5-14,5.9-12.3c1.2,1.4-4.1,12.8-5.1,14.6
		C799.8,761.8,796.5,765.6,792,767.8z"/>
	<path class="st2" d="M744.3,584.1c-0.2-4.1,0.2-8.3,1.3-12.3c0.2-0.9,2.3-7.4,3.1-4.2c0.3,1.1-1.5,4.2-1.8,5.5
		c-0.6,2.5-0.8,5.1-0.9,7.7c-0.1,2.1-0.1,4.2-0.1,6.3c0,1.5,0.7,5.5,0,6.8C745.8,594.3,744.3,585.1,744.3,584.1z"/>
	<path class="st2" d="M559.4,674.7c1.1-4.1,2.2-8.2,3.1-12.4c0.4-1.9,0.6-12.5,2.1-13.4c2.1-1.3,0.1,10.6-0.2,12
		C563.4,665.6,562.1,670.5,559.4,674.7z"/>
	<path class="st2" d="M794,786.3c-0.1-1.9,9.2-19.4,9.7-19.2C807.4,768.2,795.3,784.8,794,786.3z"/>
	<path class="st2" d="M612.1,776c1.4-4,2.7-7.9,4-11.9c0.8-2.5,1.6-10,4-11.2c1.1,2.7-1.9,9.4-2.8,12
		C616.1,768.9,614.2,772.5,612.1,776z"/>
	<path class="st2" d="M680.5,803c1-3.3,2.1-6.6,3.1-9.9c0.3-1,1.4-8,2.1-7.9C689,785.9,682.2,801.6,680.5,803z"/>
	<path class="st2" d="M657.9,813.9c-0.3-1.5,0.3-16.9,2.1-15.9C662.3,799.2,658.4,811.6,657.9,813.9z"/>
	<path class="st2" d="M803,788.5c-0.4-1.6,0.8-16.4,3.7-15.1C807.2,773.5,804,787.2,803,788.5z"/>
</g>
<g>
	<path d="M615.3,687c-4.2-0.8-1.9,2.1-4,4.9c-2.2,3-5.4,2.9-8.2,1.1c-4.5-2.8-2.2-0.8-4,3c-1.4,2.8-5.2,3.7-8,2.6
		c-7.2-2.9-6.6-14.4,2.1-13.5c2.2,0.2,5.7,3.5,7.1,2.6c0.6-0.3,0.9-3,1.5-3.8c1.5-2,3.2-2.3,5.5-2.4c2.9-0.1,1.2,1.8,2.4-0.3
		c0.5-0.8-0.1-3,0.5-4.2c1.9-4,4.5-3.4,7.9-2.7c5.1,1.1,1.5-2.5,2.6-5.8s5.2-5.2,8.5-4.2c6.7,2,5.4,13.7-1.8,13.6
		c-1.4,0-3.1-2.1-4.3-1.4c-1.2,0.6-0.2,2.3-0.3,3.2C622.3,683.7,619,686.5,615.3,687z M627.4,675.7c5-1.2,5-9.1-0.5-9.4
		C620,665.9,622.7,674.3,627.4,675.7z M597,693.5c0.2-7.3-9.7-7.3-8.3-1.1C589.9,697.3,597,697.3,597,693.5z M620.2,679.7
		c0.1-4.5-8.8-5.2-8,0.6C613,686.1,619.2,684.4,620.2,679.7z M606.7,692c5.5-1.1,3-9-1.3-8.2C600.6,684.7,603.3,691.2,606.7,692z
		 M621.4,675.3c0.1,0.2,0.2,0.4,0.3,0.6C622.1,675.6,622,674.8,621.4,675.3z"/>
	<path d="M690.7,531.7c0.7,1.6,0.9,5.1,1.9,5.9c0.2,0.1,3.2-0.5,3.5-0.5c1.4,0.3,2.8,1.7,3.5,2.8c2.9,4.3-0.1,10.3-5.6,9.2
		c-3.4-0.6-4.8-4-4.7-7.2c0.1-3,1.1-1.4-0.5-2.8c-1.2-1-2.7,0.1-4-1.7c-1.6-2.2,0.6-4-0.1-5.9c-0.9-2.6-3.9-2.6-3.5-6.3
		c0.4-3.2,2.9-3.6,5-5.3c2.6-2,0.1-1.1-1.8-3.3c-3.7-4.3,2.3-10.5,6.7-6.9c1.8,1.5,2.6,4.6,1.3,6.6c-1.4,2.2-3.9,1.6-1.8,3.5
		c1.3,1.2,2.2,0.3,3.2,2.2c0.8,1.3,0.8,3,0.3,4.4C693.7,528.5,692.1,530.1,690.7,531.7z M689,522.1c-4.9-0.4-6.8,6.6-1.6,7.1
		C691.6,529.7,694,523.1,689,522.1z M698.4,543.1c-0.8-3.8-5.5-5.4-6.3-0.6C691.3,547.1,698.6,547.8,698.4,543.1z M690.7,513.3
		c-0.8-2-3.9-3.5-4.5-0.4C685.5,516.1,691,516.8,690.7,513.3z M689.7,534.6c-0.8-0.9-3.8-1.6-3.2,0.5
		C686.9,537.2,689.7,536.6,689.7,534.6z"/>
	<path d="M569,577.2c-0.6-2.5,0.1-5.2,2.2-6.9c1-0.8,4.7-1.3,4.8-2.3c0-0.6-1.5-1.7-1.8-2.3c-0.9-1.5-1.1-2.6-0.9-4.3
		c0.3-2.2,1.3-3.8,3.2-4.9c4.3-2.4,11.5,0.6,11.7,5.9c0.1,2.2-1.2,4.6-2.9,5.8c-1.3,0.9-4.4,0.8-4.8,1.9c-0.2,0.6,1.9,3,2,3.7
		c0.2,1.3-0.1,2.2-0.7,3.3c-1.1,2.1-3.2,3.5-5.5,3.9c-3.8,0.8-3.5-0.8-4.2,3.1c-0.4,2.3-1.1,4.7-3.4,5.7c-4.1,1.8-10.3-2.1-9.2-6.8
		c0.5-2.2,2.4-3.8,4.5-4.5C565.6,578.1,569.5,579.7,569,577.2z M580.7,566.7c6.1,0,6.1-7.7,0.2-8.5
		C574.4,557.3,574.8,566.9,580.7,566.7z M574.8,578.7c5.6,0.1,7.2-7.8,0.6-7.5C570.5,571.3,569.6,578,574.8,578.7z M569.7,584.5
		c-0.3-5.6-8.8-5.1-8.3-0.1C562,589.5,568.7,589,569.7,584.5z"/>
	<path d="M661.5,622.3c0.2,2.3-1.5,4.5-3.3,5.8c-0.8,0.6-1.6,1.1-2.6,1.4c-0.9,0.2-3-0.6-3.6-0.3c-2,0.8-1.3,3.4-2.3,5.2
		c-1,1.7-2.9,3.1-4.9,3.3c-5,0.7-8.5-4.7-6.8-9.2c1.1-2.8,2.8-3.3,5.4-3.8c3.2-0.6,3.2,0,4.2-2.6c1.4-4,2.2-7.4,7.5-7
		c0.6,0,2,0.6,2.6,0.5c1.9-0.3,0.9,0.1,1.7-1.3c1.1-2.1,0.3-4,3.1-4.8c5.1-1.6,8.8,4.5,5.5,8.4C665,621.5,660.9,616.5,661.5,622.3z
		 M653.5,617.2c-4.6,1.6-4,9.2,1,9.5C660.5,627,659.4,617.6,653.5,617.2z M648.2,629.8c-0.6-2.2-0.9-3.1-3.4-3
		c-2.3,0.1-4.3,1.5-4.4,3.8c-0.1,2.3,1.6,4.4,3.9,4.2C647.2,634.8,647.7,632,648.2,629.8z M666.5,614.7c-0.4-2.5-4.4-4.6-4.5-0.9
		C661.9,616.8,665.3,617.4,666.5,614.7z"/>
	<path d="M617.6,809.1c4.3-0.6,8.4,3.4,6.2,7.9c-1,2.1-4,3.1-6.1,2.1c-3.7-1.8-1.8-5.2-2.4-8.1c-0.7-3.3-3,0.1-5.7-0.1
		c-2.5-0.2-4.4-2.4-5.1-4.7c-0.6-2.1,1.8-6.4,1.2-7.5c-0.8-1.5-4.6,1.2-6.4,0.9c-5-0.9-7.3-7.9-4.4-11.8c3.4-4.5,10-1.6,11.5,3
		c0.7,2-1.2,5.5-0.5,6.8c0.9,1.6,4.9-0.2,6.8,0.8c2.6,1.3,3.2,4.2,3,6.8C615.7,807.6,614.3,810,617.6,809.1z M604.8,793.1
		c-0.6-5.3-8.5-7.2-8.7-0.9C595.9,798.2,602.8,797.9,604.8,793.1z M606.7,805.1c1.5,4.7,7.4,3.5,6.9-1.6
		C613.2,798.8,606.5,800.5,606.7,805.1z M622,814.5c-0.1-3.3-4.2-4.8-4.8-1C616.7,816.9,621.9,818.6,622,814.5z"/>
	<path d="M664.3,661c-1.4-3.3-5.6-3.5-4.9-8.3c0.5-3.5,3.5-5.8,7-6.1s6,2,7.2,5.2c1.7,4.4-1.1,6.4-4,9.2c2.3,2.3,5.7,4.4,5,8.1
		c-0.7,3.7-4.5,5.2-7.9,5.3c-3.7,0.1-7.2-1.8-7.8-5.7C658.2,664.6,661.1,662.7,664.3,661z M671.5,654.5c-1-5.4-9.7-7.2-9.3-0.7
		C662.4,659.2,670.3,659.7,671.5,654.5z M666.8,671.8c2-0.6,5.5-1,5-3.9c-0.3-1.6-3.2-4.2-4.7-4.5c-2-0.3-4.9,1.5-5.3,3.5
		C661.2,670.2,664.4,671.2,666.8,671.8z"/>
	<path d="M620.4,468.2c3.3,0.7,2.1-0.5,3.3-3c1.1-2.5,3.7-3.5,6.2-2c1.9,1.1,2.9,4.2,1.8,6.4c-1.7,3.2-6.2,0.7-6.8,1.5
		c-0.3,0.5,1.5,3.8,1,5.1c-0.7,2.3-2.8,3.1-4.8,4c-2.5,1.2-1.1-0.4-1.9,1.9c-0.7,2.1,0,3-2,4.5c-0.8,0.6-2.1,0.4-2.8,1.1
		c-0.6,0.5-0.4,1.6-0.8,2.2c-1.2,1.7-2.5,2.6-4.7,1.7c-3.7-1.7-3.7-7.7,1-7c0.7,0.1,3.3,2,3.2,0.1c-0.1-1.5-2.7-1.3-3.7-2.2
		c-3.4-3,1-7.9,4.5-4.6c0.3,0.3,1.8,3.7,2.6,1.9c0.3-0.7-1.4-2.5-1.7-3.4C613.4,472.4,615.8,468.2,620.4,468.2z M619.9,477.7
		c4-0.1,4.4-6,0.8-6.9C616.6,469.6,615.5,476.7,619.9,477.7z M629.5,467.5c-0.3-2.1-2.7-4.1-3.5-1
		C625.3,469,629.5,470.6,629.5,467.5z M611.9,488.5c-0.3-1.1-3.7-2.9-3.2-0.4C609,489.5,611.9,490.4,611.9,488.5z M617.2,483.1
		C614,480.1,615.8,488.5,617.2,483.1z M611.5,479.1c-2.2,0,0,1.9,0,1.9C611.5,481.1,613.8,479.1,611.5,479.1z"/>
	<path d="M580.2,633.5c-0.4-8.5,8.9-7.2,14-7.8c5.8-0.7,12.1,2.6,10.1,9.6c-0.8,2.6-2.9,5.2-5.4,6.2c-3.1,1.2-4.8-0.6-7.7-0.8
		c-2.6-0.2-5.1,1.8-7.7,0.1C581.3,639.5,580.1,635.8,580.2,633.5z M582.8,633.5c0.1,3,1.4,5.2,4.3,5.5c1.9,0.2,3.7-0.8,5.7-0.5
		c1.4,0.2,2,1.1,3.7,1c7.2-0.5,7.6-12.5-0.6-11.7c-4.6,0.5-3.3,1.4-2.5,4.2c0.6,2.3,0.3,4.9-1.5,2c-1.6-2.6,0.4-4.2-2.6-5.4
		C585.8,627.2,583.6,630.5,582.8,633.5z"/>
	<path d="M738.5,505.3c-0.7,8.7-12,4.6-10.1-2.6c1.5-5.7,4.6-2.5,7.8-1.6c1.8,0.5,1.1,1.3,2-0.2c0.6-0.9,0.1-3.5,0.8-4.9
		c3.6-6.8,15-4,12,3.7c-1.2,3.2-4.4,5.3-7.7,4.7c-0.8-0.1-4-2.2-4.6-1.7C738.2,503,738.3,505.3,738.5,505.3z M748.9,498
		c-0.8-5.1-8.8-4.1-8.2,1C741.2,504,747.8,501.5,748.9,498z M731.9,502c-2.5-0.2-0.6,5.4,2,5.6C738.3,507.8,734.8,502.4,731.9,502z"
		/>
	<path d="M566.1,526.1c-2.5-1.8-1.9-5.5,0.6-7.5c2.2-1.7,5.9-1.2,8.2,0c2.2,1.2,3.7,3.5,3.9,6c0.1,1.3-0.1,2.5-0.8,3.6
		c-0.6,1-2.5,1.6-2.9,2.6c-0.7,1.9,1.2,4,0.2,6.3c-1.3,3-4.6,3.2-7,1.2c-2.8-2.4-1.3-4.2-0.5-7C568.3,529.8,569,528.1,566.1,526.1z
		 M574.4,528.2c3.9,0-0.3-11.6-5.8-7.5C563.9,524.2,571.3,528.3,574.4,528.2z M573.7,534.8c-0.6-3.1-4.9-3.8-4.8-0.2
		C569,537.7,573.6,538.3,573.7,534.8z"/>
	<path d="M552.7,530.8c-0.7,3.2-1.5,6.5-5.6,5.8c-1.1-0.2-2.9-2.3-3.6-2.3c-1.4,0-0.5,0.3-1.6,1.2c-1.9,1.8-3.4,4.1-6.7,3.4
		c-3.2-0.7-3.6-3.7-2.8-6.4c0.8-2.7,2.5-4.7,5.5-4.3c2.6,0.3,3.2,2.8,5,0.9c2-1.9,1.5-5.2,5.6-4.4
		C551.6,525.3,552.8,528,552.7,530.8z M550,530.8c0.2-4.4-5-3.8-4.3,0.4C546.3,535.3,549.3,533.9,550,530.8z M536.6,536.2
		c2.8-0.6,5.1-5.5,1-5.5C534.9,530.7,533.3,536.3,536.6,536.2z"/>
	<path d="M827,545c-0.2-5.2,3.7-7.8,8.6-6.9c2.8,0.5,4.6,2.3,7.1,3.2c2,0.8,3.1,0.2,4,2.8c0.9,2.4,0,5-1.9,6.7
		c-2.6,2.4-4.5,1.8-7.3,0.5c-2.5-1.2-4.2,0.3-6.8-0.6C828.3,549.9,827.2,547.6,827,545z M838.4,541.5c-3.5-1.5-11.6-1.3-8.7,5
		c0.8,1.7,3.6,3.1,5.4,1.7c0.8-0.7,0.5-2.2,0.9-3.1C836.7,543.7,837.6,542.7,838.4,541.5z M841.7,543.5c-3.1,0.7-5.4,5.7-0.9,6.2
		C844.7,550.3,846.3,543.4,841.7,543.5z"/>
	<path d="M691.6,502.6c0-7.2,7.4-3.7,10.7-5.2c1.9-0.9,2.1-2.9,4.9-2c2.6,0.8,4.6,3.9,3.9,6.5c-0.8,3-2.5,2.2-4.9,2.5
		c-2.9,0.3-1.2,0.8-3.3,3.2C699.6,511.3,691.2,507.4,691.6,502.6z M701.5,505.1c0-3.2-5.2-8.3-7-3.5
		C693.2,505,701.1,508.6,701.5,505.1z M708.6,500.7c-0.1-1.3-2.5-4.6-3.7-2.3C703.7,500.7,708.5,503.2,708.6,500.7z"/>
	<path d="M814.6,691.4c1.2-1.7-2.7-4.2-1.9-6.6c1.1-3.6,4.5-1.3,6.4-2.3c1.5-0.7-0.3-4.2,1.2-5.8c2.1-2.3,5.8-1.2,7.7,0.6
		c1.7,1.7,2.7,5.1,0.8,7.2c-1.9,2-4.7-0.2-6.2,1.2c-1.4,1.2,0.9,3.9-1.6,5.6C818.8,692.8,816,690.3,814.6,691.4z M823,678.5
		c-3.4,0.8,0.4,5.3,2.6,4.6C829.2,682,825.3,678.5,823,678.5z M820,688.6c0.5-1.6-3.6-5.5-4.5-3.1
		C814.8,687.3,818.8,690.9,820,688.6z"/>
	<path d="M671.9,504.8c-3.8,0-7.3-1.1-7.7-5.5c-0.4-4.8,5.2-7.5,9.2-8.2c4.2-0.7,8.6,1.9,9.4,6.5
		C683.9,503.4,676.4,505.4,671.9,504.8z M671.7,502.4c2.2,0,7.2-0.3,8.3-2.7c1.5-3.4-2.4-6.6-5.3-6.4
		C668.8,493.7,663.1,501.4,671.7,502.4z"/>
	<path d="M803.2,505.7c4,0.6,9,1,9.2,6.2c0.2,4.4-3.9,8.2-8,8.7C794.8,521.9,792.7,506.2,803.2,505.7z M803.4,518.3
		c8.3,0.7,7.9-11.8-1.2-10C796.7,509.4,797.9,518.3,803.4,518.3z"/>
	<path d="M745.8,631.1c10.1,0,10,15,0.6,13.5c-3.3-0.5-7.2-3.2-7.8-6.6C737.9,633.5,741.2,629.8,745.8,631.1z M745.8,633.1
		c-6.5-0.1-4.7,7.7,0.8,8.4C752.8,642.4,751.1,633.4,745.8,633.1z"/>
	<path d="M734.5,512.7c4.1,0.2,6.5,2,7.7,6.1c1,3.6,0.2,8.4-4.4,8.8c-3.6,0.3-9.4-3.5-10.6-6.8C725.6,516.2,730.5,512.7,734.5,512.7
		z M740.2,521.7c-0.6-4.2-6.1-10.6-9.9-4.6C727.6,521.6,738.5,528.8,740.2,521.7z"/>
	<path d="M765.4,530.9c0.6-4.3-6.4-7.7-1.1-12.1c3.4-2.9,8.8-0.1,9.1,4.2c0.1,1.9-0.8,3-0.3,4.8c0.6,2.1,2.1,3.2,0.8,5.6
		C771.4,537.8,765.4,535.5,765.4,530.9z M767.2,526.2c3.8,0,5.1-5.2,0.8-5.8C763.5,519.7,764.3,524.7,767.2,526.2z M769.7,529.3
		c-3.2,0-2.2,4.7,0.7,4C773.3,532.5,771.9,529.6,769.7,529.3z"/>
	<path d="M788.2,494.5c9.8-0.7,9.9,14.2,0.4,14.4C779.6,509,780.2,495.6,788.2,494.5z M788.3,497c-4.6,0-5.1,10.4,1.4,9
		C795,504.8,793.5,497,788.3,497z"/>
	<path d="M766,479.4c-0.9-9.6,15-9.2,13.8,1.1C778.8,490,766,488.5,766,479.4z M777.2,479.9c0.7-5.9-8-6.8-8.4-0.6
		C768.3,485.1,777.7,486.3,777.2,479.9z"/>
	<path d="M712.6,622.1c3.1-0.4,8.5,2.8,9.2,6.1c0.9,4.3-3.6,7.2-7.2,7.1c-3.7-0.1-8.2-2.2-8.7-6.2
		C705.4,625.4,708.8,621.5,712.6,622.1z M712.9,624.8c-7.6,0.1-2.6,10.1,3.6,7.9C722.8,630.5,716.6,625.3,712.9,624.8z"/>
	<path d="M597.5,493.5c1.5,8.7-15.7-0.1-13.6-7.5c1.3-4.8,6.2-4.4,9.3-2C596.5,486.6,597.5,489.2,597.5,493.5z M595.1,493.6
		c-0.1-2.7-0.4-4.5-2.3-6.5c-1.5-1.6-4.8-3.9-6.1-0.6C585.3,490,594.5,497.1,595.1,493.6z"/>
	<path d="M667.5,470.1c-1.3,7.7-12.5,10.6-14.3,1.4C651.5,463,667.9,459.8,667.5,470.1z M664.9,468.9c0.2-5.5-9.1-2.5-8.8,1.7
		c0.1,2.4,2.5,4.2,4.7,4C664,474.3,664.4,471.5,664.9,468.9z"/>
	<path d="M714,619.1c-3.3-0.3-6.4-4.6-2.8-7c1.4-1,3.2,0.1,4.5-0.7c1.9-1.2,0.8-3.1,3.7-3.6c4.3-0.8,7.8,4.4,4.5,7.8
		c-1.4,1.5-3.2,1-4.9,1.8C716.9,618.4,716.8,619.1,714,619.1z M722.7,612.7c0-1.7-2.4-3.8-3.6-1.9
		C717.9,612.6,721.3,615.5,722.7,612.7z M714.4,613.8c-3.6,0.6-0.9,4.2,1.4,3.1C718.8,615.5,716.2,614.1,714.4,613.8z"/>
	<path d="M821.1,494.7c10.3-1.2,9.9,15.1,0,14.2C812.8,508.1,812.3,494.7,821.1,494.7z M817,501.2c0.1,7,10.5,6.2,9.8,0
		c-0.2-2.1-2.9-3.7-4.8-3.9C818.8,496.9,817.7,498.5,817,501.2z"/>
	<path d="M627,528.5c0-9.3,13.4-7.6,14.3,0.6C642.3,538.7,627,537.6,627,528.5z M633.5,524.6c-6.3-0.3-3.7,10.2,2.2,9
		C641.7,532.4,638.2,524.9,633.5,524.6z"/>
	<path d="M582.2,513.3c-0.6-8.7,13.8-7.4,13.8,1.3C596,524.2,581.7,522.8,582.2,513.3z M584.9,513.4c-0.1,5,6.1,7.6,8.3,2.4
		C595.9,509.6,584.7,507.8,584.9,513.4z"/>
	<path d="M796,634.6c7.4-0.1,14.1,15.2,4.4,14.5C793.5,648.5,786.1,634.9,796,634.6z M796.3,636.8c-5.7-0.1,0.3,9.4,4.3,9.5
		C806.8,646.5,799.6,637.5,796.3,636.8z"/>
	<path d="M706.5,461.1c-3.5,0.2-8-2.5-9.2-5.9c-1.5-4.3,3.1-8.4,7.1-8.3C711.3,446.9,714.4,460.3,706.5,461.1z M708.8,456.3
		c-0.1-4.1-4.1-10.1-8-5.1C696.4,456.5,709,461.1,708.8,456.3z"/>
	<path d="M853.8,715c8.7,0.5,9.8,13,0.7,13.3c-4.2,0.2-7.4-2.2-7.6-6.6C846.8,717.2,849.8,715.6,853.8,715z M854.2,725.9
		c6.3,0,4.8-9.7-1-8.6C848.2,718.3,849.1,726.2,854.2,725.9z"/>
	<path d="M569.7,504.1c1,7.3-12.5,8-12.7-0.2c-0.1-4.3,2.4-7.2,6.9-7.2C568.6,496.8,569.7,500.1,569.7,504.1z M559.6,504.4
		c0.5,5.1,8.5,3.5,8-1.4C567.1,497.6,559.5,499.5,559.6,504.4z"/>
	<path d="M755.3,531.7c-0.4,3.1,1.6,7.4-0.7,10c-2.6,3-7.1,0.9-8-2.4c-0.6-2.2,0.9-2.9,1-4.7c0-1.9-1.8-3.2-0.5-5.3
		c1-1.6,3.5-2.3,5.2-1.8C754.5,528.1,754.8,529.5,755.3,531.7z M753.5,538.3c-0.1-3-4.5-4-4.7-0.6
		C748.7,540.9,753.1,541.9,753.5,538.3z M752.7,531.3c0-1.9-3.5-1.6-3,0C750.1,532.3,752.8,533,752.7,531.3z"/>
	<path d="M795.4,552.1c-0.5-9.8,13.7-6.8,13.3,0.6C808.2,561.9,794.1,560.6,795.4,552.1z M798,552c-0.2,5.8,8.7,5.6,8,0.4
		C805.5,548.5,797.9,546.3,798,552z"/>
	<path d="M649.4,461c-0.1,8.4-13.3,8-13.6,0.1C635.4,452.4,649.5,451.5,649.4,461z M643.8,456.4c-4.7-0.3-7.4,6.2-2.4,8
		C647.6,466.5,648.2,456.4,643.8,456.4z"/>
	<path d="M618.2,647c-9.8,0.4-8.1-13.6,1.3-13.2C629.8,634.2,627.5,647.6,618.2,647z M618.6,644.6c6,0.1,7.6-8.5,1.1-8.7
		C613.6,635.8,611.6,644.7,618.6,644.6z"/>
	<path d="M713.6,603.9c-8.6,3.3-10.9-9.6-2.5-11.8C720.1,589.6,721.5,601.7,713.6,603.9z M713.2,601.7c5.1-1.7,4.1-9.5-1.5-7.8
		C706.5,595.4,706.9,603.8,713.2,601.7z"/>
	<path d="M573,708.2c9.8,0.1,7,13.6-2,13.2C562,720.9,564.3,708.1,573,708.2z M570.8,718.8c5.4,0.1,9.5-7.2,2.4-8
		C567.9,710.2,565.6,718.9,570.8,718.8z"/>
	<path d="M773.7,781.9c-0.3,8.4-11.6,10.3-13.3,1.6C758.3,773.3,774,773.1,773.7,781.9z M766.3,778.1c-5.5,0.3-4.2,8.1,0.6,8.5
		C772.9,787.1,772,777.8,766.3,778.1z"/>
	<path d="M638.8,653.4c0.6,8.6-15.6,9-15.2,0.1C624,645.6,638.8,645.2,638.8,653.4z M631.7,649.7c-5.8-0.6-7.1,7.2-1.1,8
		C636.9,658.5,639,649,631.7,649.7z"/>
	<path d="M609.4,626c-9.4,0.5-10-12.9-0.5-12.1c3.6,0.3,6.7,1.5,6.6,5.4C615.5,623,613.1,626,609.4,626z M608.3,616.3
		c-5.8,0.6-3.8,8.3,1.4,7.4c1.7-0.3,3.2-1.7,3.3-3.5C613.3,617.3,610.6,616.8,608.3,616.3z"/>
	<path d="M879.9,587.6c3.6,0.6,6,1.1,7,5c1,3.7-0.2,7.5-4.1,8.5C873.5,603.5,869.9,587.2,879.9,587.6z M876.6,593.5
		c0.3,4.2,6.6,7.8,7.9,2.3C886,590,876.6,588,876.6,593.5z"/>
	<path d="M698,471.4c7.8-0.3,7.9,17.4-1.8,12.9c-3-1.4-6.8-3.7-6.6-7.6C689.8,472.7,694.9,471.3,698,471.4z M697.8,473.7
		c-6,0.1-6.5,5.4-1.5,7.9C702.8,484.9,703,473.6,697.8,473.7z"/>
	<path d="M785.5,800c0.3,8.5-12.7,6.9-14-0.3C770,790,785.2,790.7,785.5,800z M783.4,799.9c0-4.7-8.9-7.4-9.8-2.1
		C772.7,803.4,783.2,806,783.4,799.9z"/>
	<path d="M861.1,560.2c3.3-2,6.1-3.9,9.3-0.4c2.2,2.4,2.4,5.7,0.7,8.4c-2,3.1-4.9,3.9-8,1.8C859.2,567.5,859.8,564,861.1,560.2
		L861.1,560.2z M866.2,560.3c-4,1.2-4.2,8.7,0.5,8C870.8,567.7,870.3,560.8,866.2,560.3z"/>
	<path d="M602.5,601.9c0.6-8,14-8.5,14.2-0.3C616.9,610,602.6,610.4,602.5,601.9z M610,597.8c-6-0.2-6,8.2-0.1,8
		C615.7,605.7,615.3,597,610,597.8z"/>
	<path d="M792.8,572.8c-6.9,0.1-11.2-11.5-3.1-13.1C797.6,558.3,801.6,572.4,792.8,572.8z M790.5,562.2c-4.7,0.5-2,8.8,2.4,7.7
		C797.9,568.5,794,562.4,790.5,562.2z"/>
	<path d="M668.2,641c-3.2-0.2-7.9-1.8-7.9-5.6c0-3.4,3.3-4.9,6.2-5.3C673.7,629.3,676.8,639.8,668.2,641z M667,633
		c-4.6,0.2-3.9,4.4,0.2,5C672.2,638.8,671.2,632.9,667,633z"/>
	<path d="M733.1,619.3c8.2-0.7,9.8,12.9,0.8,12C726.6,630.5,725.3,618.5,733.1,619.3z M737.4,625.8c-0.3-3.6-6.9-6.1-7.1-1.2
		C730.2,628.3,737.6,630.3,737.4,625.8z"/>
	<path d="M701.4,584c6.6-0.6,8.9,10.2,1.6,10.6C695.8,594.9,694.2,583.3,701.4,584z M705.2,589.7c-0.2-2.6-4.3-5.2-5.9-2.2
		C697.1,591.4,705.4,594.2,705.2,589.7z"/>
	<path d="M682.4,598.7c0,7-8.7,12.4-12.5,4.4C665.8,594.5,682.4,593.3,682.4,598.7z M675.8,604c3.8,0.5,5.2-5.6,0.8-6.2
		C672,597.3,670.8,603.6,675.8,604z"/>
	<path d="M683.6,684.3c-6.7,0.3-9.1-11.5-1.8-12.5C690,670.7,691,684.4,683.6,684.3z M681.7,674.8c-2.9,0.1-1.2,7.5,2.3,6.3
		C688.4,679.7,685,674.9,681.7,674.8z"/>
	<path d="M789.7,582.7c0,8.7-12.8,8.1-12.3,0.3C777.9,575.4,790.3,573.7,789.7,582.7z M787.1,582.8c-0.5-5.1-6.5-5.2-7-0.2
		C779.7,586.8,787.1,587.8,787.1,582.8z"/>
	<path d="M574.5,737.5c-7.4-0.7-8.1-11.5-0.3-12.3c4-0.4,7.1,2.5,7.5,6.4C582.3,736.4,578.5,737.1,574.5,737.5z M575.7,727.8
		c-5.8,0-5.9,7.8,0,7.5C581.4,735,580.6,728.2,575.7,727.8z"/>
	<path d="M759.5,772.7c-7.5,0.7-9.5-14.3,0.2-12.9c3.7,0.5,6.5,4,6.1,7.8C765.3,771.4,762.9,772.5,759.5,772.7z M755.3,764.7
		c-0.2,4.6,6.7,8.5,8,2.8C764.5,762.2,755.3,760.5,755.3,764.7z"/>
	<path d="M859.5,747.8c-7.5,0.7-9.5-14.3,0.2-12.9c3.7,0.5,6.5,4,6.1,7.8C865.3,746.5,862.9,747.6,859.5,747.8z M855.3,739.8
		c-0.2,4.6,6.7,8.5,8,2.8C864.5,737.3,855.3,735.6,855.3,739.8z"/>
	<path d="M772.3,462.4c0.1-7.8,13.1-7,12.6,1.2C784.2,472.2,771.1,471.1,772.3,462.4z M778.7,459.5c-1.6,0.4-3.3,0.6-3.9,2.3
		c-0.7,1.9,1.1,4.9,2.9,5.3C782.5,468,782.8,461.1,778.7,459.5z"/>
	<path d="M878.8,634.8c-4-0.9-7-2.6-6.6-7.3c0.3-3.8,2.8-5.6,6.5-4.6C886,625.1,886.2,633.1,878.8,634.8z M874.9,627.1
		c0.2,1.7,0.4,3.3,2,4.3c1.5,0.9,4.2,0.8,4.8-1.2C882.8,627.3,876.5,622.6,874.9,627.1z"/>
	<path d="M861.2,560.2c-1-1.8-2.9,0.3-4.4,0.6c-2,0.4-5.1-0.1-6.5-1.7c-2.7-3.1,0.6-6.7,3.3-8.4c2.8-1.7,8.1-2.5,9.4,1.6
		C863.7,554.8,858.9,559.3,861.2,560.2z M855,558.2c2.7,0,8-4.7,3.9-6.3C855.2,550.4,848,558.3,855,558.2z"/>
	<path d="M529.4,534.2c-1.8-3.1-5.3-2.5-8-0.7c-1.3,0.9-1.6,1.3-2.1,2.8c-0.8,1.9,0.9,5,0,6.5c-1.1,1-6.3-1.6-9,0
		c-3.1,1.8-4.1,7.2-3.1,10.5c1.1,3.5,6,4.8,9.1,3.4c4.9-2.2,4.1-7.6,3.9-12l0,0c0.8-1.5,5.4,0.8,7.5-0.7
		C530.2,542.2,531,537,529.4,534.2z M512.3,554.3c-0.9-0.3-2-1.7-2.4-4.5c0-7.2,8.6-6.6,7.8,0.4C517.4,553,515.3,555.2,512.3,554.3z
		 M524.4,542c-2-0.1-2.7-1.9-2.6-3.5c0.1-1.8,1.1-3.3,3.1-3.5c2.1-0.1,2.2,0.9,2.7,2.8C527.7,539.9,526.9,542.1,524.4,542z"/>
	<path d="M719.5,660.4c-2.9,6.7-11.7,7.1-12.3-1.4C706.6,649.7,717.5,655.6,719.5,660.4z M713.2,662.8c3.6-0.9,3.7-4.6-0.1-5.8
		C708.4,655.4,710.2,661.5,713.2,662.8z"/>
	<path d="M847.9,690.2c-0.2,3.2-2.1,7.1-5.8,7.3c-3,0.2-6.2-2.3-6.5-5.2C834.8,684.8,845.7,683.1,847.9,690.2z M842.4,687.9
		c-3.4,0.4-5.8,5.6-1.4,6.6C844.9,695.4,846.5,688.6,842.4,687.9z"/>
	<path d="M750.1,483.8c-8.7,0.7-8.4-11.9-0.4-12.4C757.6,470.8,757.8,484,750.1,483.8z M753.3,476.5c-0.3-5.2-8.6-1.9-7,2.4
		C748,483.5,753.5,480.6,753.3,476.5z"/>
	<path d="M844.8,651.5c3.2-0.6,5.3,2.9,5.1,5.7c-0.3,3.5-3.8,5.2-7,5.1c-3.1,0-5.8-2.6-5.9-5.8C837,652.4,841.4,651.3,844.8,651.5z
		 M847.3,657.1c0-4-6.7-4.2-7.3-0.8C839.4,660.4,847.4,660.7,847.3,657.1z"/>
	<path d="M603.3,593.1c-8.5,0.5-8-12.3,0.2-11.8C610.3,581.7,610.4,593,603.3,593.1z M602.4,590.5c5.5,0.6,4.6-7.8-0.4-6.7
		C597.6,584.7,599.2,589.3,602.4,590.5z"/>
	<path d="M799.6,697c6.9-0.1,11.3,12.1,3,12.1C796.7,709.1,792.2,697.2,799.6,697z M804.6,704.3c0.4-4.2-8.1-6.6-5.9-1.1
		C799.7,705.8,804.2,708.4,804.6,704.3z"/>
	<path d="M629.3,493.2c0.3-1.4,0.8-2.1,1.9-2.8c2.2-1.3,1.7-0.1,3.1-2.1c1-1.5,1.5-3.4,3.8-3.2c1.9,0.1,3.2,2,3.5,3.6
		c0.7,3.4-1.3,2.6-3.3,4.1c-1.4,1.1-0.7,1.7-1.8,3.1C634.3,499.1,628.8,497.6,629.3,493.2z M640,489.2c-0.1-1.8-2.8-2.8-3.2-0.5
		C636.5,491,640.2,491.3,640,489.2z M634.8,494.6c-0.2-1.2-2.2-2.9-3-1.3C631,494.9,633.9,496.5,634.8,494.6z"/>
	<path d="M785.8,734c-6.4-0.6-11.5-11.7-2.8-12.2c3-0.2,6.4,3.1,7.4,5.8C791.8,731.6,789.3,733,785.8,734z M783.2,724.4
		c-4.8,1.6-1.4,7.2,2.5,7C791.3,731.1,786.6,724.8,783.2,724.4z"/>
	<path d="M864.7,650.1c0.4,9.2-12.3,4.8-11.5-2C854.1,640.2,864.7,643.3,864.7,650.1z M862.1,649.5c-0.4-3-5.7-5.8-6.3-1.5
		C855.3,651.7,861.7,655.4,862.1,649.5z"/>
	<path d="M623.6,824.5c0.7-3.2,2.1-6.3,6-6c2.8,0.3,5.5,3,5.4,5.8C634.9,831.8,623.4,832.6,623.6,824.5z M629.2,821
		c-3.4,1.1-4.8,7.7,0,7.1C633.2,827.7,633.7,821,629.2,821z"/>
	<path d="M583.8,752.2c-1,3.3-2.6,6.1-6.6,5.4c-3.4-0.6-6.4-5-5.5-8.3C573.5,742.4,583.5,746.4,583.8,752.2z M577.5,747.9
		c-5.6,0-4,7.4,0.6,7.3C583.5,755.2,581.8,748.6,577.5,747.9z"/>
	<path d="M818.6,553.9c-7.3,0.2-5.8-13.8,2.3-12.4C828.1,542.8,824.9,554.1,818.6,553.9z M822.8,546.5c0-4.3-7.2-2.5-6.3,1.9
		C817.5,553.7,822.8,550.2,822.8,546.5z"/>
	<path d="M811.2,469.3c0,7.7-12.4,10.3-13,1.8C797.6,463.9,809,463.2,811.2,469.3z M808.8,470.2c-1.1-4.6-8.7-3.3-7.8,1.1
		C802,476.5,807.4,473,808.8,470.2z"/>
	<path d="M856.8,705.9c-0.6,7.4-11.4,7-11.1-0.4C846,697.4,857.3,697.7,856.8,705.9z M848.5,705.4c0,4.5,6.2,4.3,5.8-0.2
		C853.8,700.8,848.8,701.1,848.5,705.4z"/>
	<path d="M870.7,647.7c-3.1-0.6-4.9-1.6-5.3-4.8c-0.3-2.5,1-6.3,3.9-6.8C876.1,635,878.1,647.7,870.7,647.7z M868,641.4
		c0.5,2.5,3.3,5.4,4.7,1.7C874,639.7,868.5,636.9,868,641.4z"/>
	<path d="M832.4,654.3c0,7.1-9.7,11-10.7,2.3C821,650.2,830.5,647.6,832.4,654.3z M829.8,655.6c0.3-4.4-5.1-3.5-5.3,0.1
		C824.1,660.3,829.1,659.5,829.8,655.6z"/>
	<path d="M582.9,582.6c0-7.3,12-7.8,12.3-1.2C595.7,589.5,582.4,590,582.9,582.6z M589.1,579.2c-4.6-0.1-5.2,5.6-0.6,6.3
		c2,0.3,3.6-0.9,4-3C592.9,579.9,591.5,579.8,589.1,579.2z"/>
	<path d="M877,610.8c0.8-2.9,2-4.7,5.4-4.3c3,0.3,6.1,2.7,5.7,6C887.3,620,877.2,617.5,877,610.8z M885.6,612c-1-2-5.3-5.2-6.1-1.3
		C878.8,614.6,884.2,615.5,885.6,612z"/>
	<path d="M612.2,522.9c0.2,2.5-2.5,5.9-5.1,5.5c-3-0.3-4.7-4.7-4.5-7.2C603,512.9,612.6,515.9,612.2,522.9z M606.9,519.1
		c-2.7,0.8-1.7,6.6,0.7,6.3C611,524.9,609,519.7,606.9,519.1z"/>
	<path d="M608.5,451.6c1.6,3-0.6,7.5-4.1,7.1c-2.8-0.3-5.3-3.5-5.8-6.1C597.4,445,606.4,446,608.5,451.6z M602.1,450.1
		c-2.2,1.8,1,6.7,3.1,5.5C608.2,453.9,604.3,449.9,602.1,450.1z"/>
	<path d="M769.5,735.1c1.2-7.1,11.9-1.1,11.1,4.3c-0.4,2.7-3.7,4.3-6.2,3.6C771.1,742.1,769.5,738.2,769.5,735.1z M775.7,740.3
		c4.5-1.4,0.1-6.6-2.9-6C769.3,735.1,773.6,739.8,775.7,740.3z"/>
	<path d="M629.3,450.9c-6,0.6-4.9-12.4,3-10.5C640.6,442.4,635.6,450.5,629.3,450.9z M634.3,444.9c-1.6-3.3-7.4-2.9-6.3,1.3
		C629,450.4,633.4,447.5,634.3,444.9z"/>
	<path d="M716.6,674.6c-0.7,6.1-9.3,6.8-10.6,0.5C704.4,667.6,715.4,667.5,716.6,674.6z M713.7,674.9c-0.4-2.2-4.5-4.9-5-1.1
		C708.3,676.5,713,678.3,713.7,674.9z"/>
	<path d="M707.8,644.3c0.6-2.9,1.4-5.5,4.8-5.5c3.2-0.1,6.6,3.4,6.2,6.7C718.1,652.5,708.1,650.7,707.8,644.3z M710.6,643.4
		c-0.3,2.9,3.8,5.8,5.2,2.4C717.1,642.9,712.4,638.9,710.6,643.4z"/>
	<path d="M581.2,773.3c-8.5-1-5.7-11.7,1.8-10.2c3,0.6,5,3.4,4.3,6.4C586.6,772.6,584,773.2,581.2,773.3z M581.5,770.9
		c3.1-0.4,5.5-4.1,1.2-5.3C578.7,764.6,576.2,770.3,581.5,770.9z"/>
	<path d="M788.2,629.3c0,7-9.8,9.3-10.3,1.2C777.5,622.2,789.5,623.3,788.2,629.3z M780.7,629.8c0.5,3.4,4.6,4.5,4.9,0.4
		C785.9,626.7,781.4,626.5,780.7,629.8z"/>
	<path d="M720.4,756.1c0.2-3.3,2.2-5,5.4-4.6c3.4,0.3,5.1,3.2,5.5,6.5C732.3,767.2,720.2,763.3,720.4,756.1z M722.8,755.4
		c-0.2,2.9,5.2,8.7,6.4,4C730.1,756.3,724.4,750.9,722.8,755.4z"/>
	<path d="M703.4,678.6c0.5,6.6-9.7,6.8-11.2,1C690.1,671.8,703.7,670.9,703.4,678.6z M698.3,681.3c4.2-0.9,1.7-6.8-1.6-5.8
		C693,676.5,695.6,681,698.3,681.3z"/>
	<path d="M723,772.2c0,7.5-12.2,4-11.6-2.7C712.2,761.3,723.3,765.6,723,772.2z M720.8,771.9c-0.8-2.7-7.2-7.5-7-2
		C713.8,773.3,719.7,776,720.8,771.9z"/>
	<path d="M788.4,536.9c-7.3,0-6.3-11.5,0.3-11.4C795.9,525.6,795.8,536.9,788.4,536.9z M791.6,531.2c-1-3.2-5.6-4.3-5.6,0
		C786.1,535.4,791,534.8,791.6,531.2z"/>
	<path d="M778,602.9c-6.4,0-5.3-10,0.2-11C785,590.7,786.1,603.3,778,602.9z M778.6,594.5c-3.1,1-3,6.7,0.8,5.7
		C782.8,599.2,781.2,595.2,778.6,594.5z"/>
	<path d="M698.5,578.1c0.3,7.6-11.1,7.5-10.5,0.5C688.6,572.7,697.9,572.5,698.5,578.1z M693.4,581.3c3.1,0,3.3-4.8-0.1-4.9
		C689.8,576.3,689.9,581.3,693.4,581.3z"/>
	<path d="M656.5,446.9c6.4,0.3,7.8,11.5,0,10.3C650.6,456.2,649.1,446.7,656.5,446.9z M657.8,454.5c3.5,0,0.6-4.7-1.3-5
		C652.3,448.8,654.4,454.7,657.8,454.5z"/>
	<path d="M583,458.3c7.2,2.3,5.3,15.3-3.1,11.5C573.4,466.9,574.6,456,583,458.3z M582,467.3c4,1.1,2-5.9-0.6-6.4
		C577.4,460,578.7,466.6,582,467.3z"/>
	<path d="M573.7,694.5c-2.5-1-6.3,1.8-7.9-1.3c-0.7-1.3-0.1-3.5,1.1-4.4c1.6-1.2,2.5,0.1,4.1-0.2c2.4-0.4,4.9-3.6,7-0.1
		C579.7,691.5,576.5,694.3,573.7,694.5z M574.6,692.1c1.4-0.2,2.3-2.8,0.4-3C573.5,689,573,692.5,574.6,692.1z M569,690.1
		c-1.6,0.1-1.7,2.3-0.1,2.6C570.6,693.1,570.8,690,569,690.1z"/>
	<path d="M775.1,613.3c-0.2-5.8,10.5-7.3,10.2-0.8C785.1,618.8,775.1,620.9,775.1,613.3z M782.6,612.4c-1.4-2.5-5.5-1.2-4.5,1.6
		C779.2,617.1,782.1,614.2,782.6,612.4z"/>
	<path d="M733.2,461.4c-6.4,0.1-8.5-9.6-1.6-10.1C736.8,450.8,740.4,461.4,733.2,461.4z M734.9,457.8c-0.2-1.8-3.4-6.1-4.8-2.5
		C729.2,457.8,733.4,460.4,734.9,457.8z"/>
	<path d="M762.3,457.4c0.2,6.8-9.4,7.1-9.6,0.3C752.6,451.6,761.8,451.4,762.3,457.4z M756.3,455.3c-1.8,1.4-1.3,4.8,1.4,4.8
		C761.6,460,759.9,455,756.3,455.3z"/>
	<path d="M723.2,487.3c-6.9-0.7-4.1-10.2,1.4-10.3c3.8-0.1,5.4,3.4,4.3,6.8C727.9,486.6,726,487.3,723.2,487.3z M723.7,484.6
		c3.3-0.2,4.3-5.5,0.8-5.2C721.8,479.7,720.7,483.9,723.7,484.6z"/>
	<path d="M579.7,542.7c5.9,1.2,6,10.2-0.7,9.1C573.1,550.7,573.8,542.7,579.7,542.7z M581.5,547.8c-0.1-2.2-4-3.3-3.9-0.7
		C577.7,549.1,581.5,550.2,581.5,547.8z"/>
	<path d="M703.6,798.5c-6.6,0.4-4.9-10.2,0.8-10C711,788.6,710,798.6,703.6,798.5z M706.7,793.3c-0.6-3-4.7-3.1-5.2,0.1
		C700.8,797.3,706.8,797,706.7,793.3z"/>
	<path d="M540.2,496.1c-0.2-6.5,9.7-2.9,9.4,2.4C549,505.9,540.2,501.8,540.2,496.1z M547,498.4c-0.5-1.9-3.8-4.6-4.1-1.2
		C542.7,500.2,547.5,500.6,547,498.4z"/>
	<path d="M792,710.3c5.5,0,8.9,10.1,2.6,10C789.8,720.2,785.5,711.3,792,710.3z M796,716.6c-0.2-2.1-4.3-5.8-5.1-2.5
		C790.4,716,795.7,719.7,796,716.6z"/>
	<path d="M563.9,526.8c0.7,1.8,1,4.6-0.9,6.7c-2.4,2.6-5.6,2.4-6.9-1c-0.9-2.4,0-7.1,3-7.8C560.9,524.2,563,525,563.9,526.8z
		 M558.3,530.3c0.5,3.2,3.9,2.1,3.7-0.5C561.8,526.7,558.6,527.7,558.3,530.3z"/>
	<path d="M754,733.3c7.1,0.1,5.9,11.5-0.4,9.4C749.7,741.4,748.6,732.4,754,733.3z M756.5,738.3c0-1.7-3.2-3.6-3.8-1.3
		C752.2,739.1,756.1,741.7,756.5,738.3z"/>
	<path d="M814.5,691.4c-2,1.5,2.4,5.2-0.6,7.9c-2.6,2.4-5.9-0.1-7.4-2.6c-1.7-2.8-1.2-6.1,2.7-6.6
		C810.8,690,813.8,692.9,814.5,691.4z M811.6,697.7c2.4,0.2,0.2-6.3-2.8-4.4C807,694.5,809.8,697.7,811.6,697.7z"/>
	<path d="M628.9,477.1c7.4-0.4,5.3,11-1.4,10.4C620.1,486.9,623.5,478.2,628.9,477.1z M628,485.1c2-0.4,5.5-4.5,1.9-5.5
		C626.9,478.7,624,483.7,628,485.1z"/>
	<path d="M683.4,582.6c7.1-0.1,6.7,10.5,0.3,9.7C677.9,591.6,678.4,583.9,683.4,582.6z M683.7,585.1c-2.7,0-1.5,5.1,0.8,4.6
		C687.1,589.1,686.2,585,683.7,585.1z"/>
	<path d="M674,835.7c-5,0.4-7.8-12-1.1-9.8C677.1,827.2,680.1,835.4,674,835.7z M675.2,832.5c-0.1-1.7-2.6-6-4-3.5
		C670.4,830.5,673.9,835,675.2,832.5z"/>
	<path d="M748.3,516.2c5.2,0.4,8,9.2,1.3,8.8C744.3,524.7,741.9,516.8,748.3,516.2z M747.9,518.2c-2.6,0.1,0.4,5.3,2.3,4.1
		C752.3,521.1,749.4,518.4,747.9,518.2z"/>
	<path d="M842.2,678.8c0.1,5.5-8.7,5.3-9.6,0.4C831.5,673,842.2,672.7,842.2,678.8z M837.4,676.6c-2.8-0.3-2.7,3.9,0.1,3.7
		C839.8,680.2,839.8,676.9,837.4,676.6z"/>
	<path d="M795.2,485.7c-0.2,6-10.5,3.7-9.6-1.9C786.6,478.1,795.4,480.1,795.2,485.7z M792.6,485.8c0.2-2.7-4.2-4.8-4.2-1.5
		C788.4,486.2,792.4,488.2,792.6,485.8z"/>
	<path d="M690.7,447.2c-5.5-0.7-5.3-9.1,0.6-8.5C697.9,439.4,697.4,447.5,690.7,447.2z M694.1,442.8c-0.3-1.8-4.3-2.7-4.9-0.6
		C688.3,445.2,693.2,445.3,694.1,442.8z"/>
	<path d="M676.7,485.9c-6.9-0.8-5.6-10.4,0.9-9.1c2.3,0.5,3.7,1.9,4,4C682.1,484.4,679.7,485.4,676.7,485.9z M679.4,481.1
		c-0.5-2.5-4-2.8-4.7-0.2C673.8,484.4,679.6,484.5,679.4,481.1z"/>
	<path d="M760.8,756.4c-5.4,0.4-9.3-9.6-1.5-8.5c2.5,0.4,5.2,1.4,5.4,4.3C764.8,754.7,763.2,756.4,760.8,756.4z M760.6,753.7
		c3.8-0.1-0.6-4.7-2.5-3.8C755.8,751.1,759.4,753.3,760.6,753.7z"/>
	<path d="M541.8,714.4c2.1,0.5,5,1.5,4.6,4.1c-0.3,2.3-4.2,4.1-6.2,4.1C533.4,722.4,535.5,714.3,541.8,714.4z M540.1,720.2
		c2-0.1,5.3-2.4,2-3.4C539.6,716.1,536.6,719.9,540.1,720.2z"/>
	<path d="M656.6,831.8c0.1-7.7,8.8-1.5,8.7,3.6c-0.1,2.9-2.7,4.6-5.5,3.4C657.4,837.7,656.6,834.3,656.6,831.8z M663,835.6
		c0.1-1.4-2.6-6.7-4.1-4.2C657.8,833.1,661.1,838.3,663,835.6z"/>
	<path d="M682.2,455.3c-0.8,6-9,7.3-9.4,0.6C672.4,449.9,680.8,450,682.2,455.3z M679.5,455.1c-1.1-2.4-5-1.2-4,1.3
		C676.6,459.4,679.2,457.1,679.5,455.1z"/>
	<path d="M606.8,472.5c-0.9,6.8-12,3.6-9.6-2.8C599.5,463.8,606.6,467.6,606.8,472.5z M599.5,471.5c-0.3,3,4.3,3.9,5.2,1.1
		C605.6,469.6,599.7,468,599.5,471.5z"/>
	<path d="M718.9,441.5c0.2,5.2-8.7,5.5-8.6,0C710.4,435.4,718.6,435,718.9,441.5z M715.3,439c-1.8,0.3-3.4,3.6-0.8,3.7
		C716.4,442.7,717,439.6,715.3,439z"/>
	<path d="M671.9,548.3c-6.5,0-6.2-10.4,0.5-9.2C678.2,540.2,677.8,547.8,671.9,548.3z M672,541.3c-2.9-0.4-3,3.9,0,4.2
		C675.3,545.9,675.1,542,672,541.3z"/>
	<path d="M682.3,827.2c-4.6,0.1-8-9-1.4-9.3C686,817.8,688.4,827.4,682.3,827.2z M683.6,823.8c0-1.5-2.1-5.2-3.9-3.3
		C677.8,822.5,683.2,826,683.6,823.8z"/>
	<path d="M814.2,648.4c5.9,1.1,4.7,9.9-1.2,9.1c-2.6-0.3-4.4-3.1-3.7-5.7C809.9,649.4,811.9,648.8,814.2,648.4z M815.7,652.6
		c-0.9-2.4-4.4-2.1-4,0.7C812.1,655.8,815.8,655.2,815.7,652.6z"/>
	<path d="M535.1,683.3c6.5-0.2,2.4,10.4-3.7,8c-1.8-0.7-3-2.8-2.3-4.8C530,684.3,533,683.8,535.1,683.3z M536.3,686.2
		c-1.3-1.1-5.2,0.2-4.4,2.3C532.9,690.8,536.2,687.5,536.3,686.2z"/>
	<path d="M544.1,774.7c-0.6,5.8-9.6,0.6-9.3-3.4C535.2,765.5,543.9,770.2,544.1,774.7z M538.6,771.3c-1.5,0.1,0.9,3.7,2.3,3.5
		C543.5,774.4,540.3,771.2,538.6,771.3z"/>
	<path d="M537,706.1c-5.3-0.5-3.2-7.1,1.3-7.6C546.4,697.5,543.4,706.5,537,706.1z M540.2,700.6c-1.7,0-5.5,1.9-2.4,3.2
		C539.4,704.5,542.1,702,540.2,700.6z"/>
	<path d="M738.5,740.9c-5.2,0.4-6.7-8.4-1.2-8.8C742.7,731.7,744.5,741,738.5,740.9z M736.1,736c0.2,1.8,2.8,4.2,3.7,1.4
		C740.5,735.2,736.1,733.3,736.1,736z"/>
	<path d="M615.2,517.4c-5.4,0.1-6.8-8.2-1.1-8.5C619.4,508.5,620.8,517.5,615.2,517.4z M614.4,511.2c-2,1.1-1.3,4.4,1.2,3.4
		C618.2,513.6,615.6,511.8,614.4,511.2z"/>
	<path d="M693.5,815.2c-0.5,5.8-8.7,2-8-2.6C686.6,806.3,693.4,810.6,693.5,815.2z M691.4,815c0-2-3.5-5-3.6-1.7
		C687.8,815,690.4,817,691.4,815z"/>
	<path d="M541.3,751.5c-5.8-0.7-3.8-7.6,1.3-7.2C548.8,744.8,547.5,751.8,541.3,751.5z M541.6,749c1.3-0.1,4.4-0.9,1.6-2.1
		C541.7,746.3,539,748.3,541.6,749z"/>
	<path d="M755.1,510.2c-0.4,5.7-8.8,3.2-8.6-1.5C746.8,503.4,754.5,506.3,755.1,510.2z M752.3,510.6c-0.2-1-3.2-3.6-4-1.8
		C747.7,510.1,751.4,510.9,752.3,510.6z"/>
	<path d="M670.7,444.5c-5.6,0.1-6.3-7.8-0.5-8.2C675.3,436,676.3,444,670.7,444.5z M670.8,438.6c-1.8-0.5-3.2,3.1-0.5,3.3
		C672.7,442,672.4,439.6,670.8,438.6z"/>
	<path d="M577.1,478.2c0.1,5.9-8.8,3.9-8.6-1.6C568.7,471.3,577.1,473.8,577.1,478.2z M572.2,476.6c-0.6,0.7-0.2,2.9,1,2.9
		C575.4,479.6,574.4,476.3,572.2,476.6z"/>
	<path d="M734.5,746.7c-0.5,2.4-1,3.9-3.9,3.2c-1.8-0.5-4.7-3-4.5-5.1C726.5,739.5,734.4,742.2,734.5,746.7z M731.5,747.6
		c3-1.7-2.2-4.9-3-3.5C727.6,745.6,730.3,747.3,731.5,747.6z"/>
	<path d="M588.2,781.6c-6.1,0.4-6-7.5-0.2-7.2C593.2,774.7,593.2,782,588.2,781.6z M588.3,777c-2.7-0.2-2.7,3-0.2,2.1
		C589.4,778.7,590.1,777.4,588.3,777z"/>
	<path d="M615,463.8c0,5.2-7.3,4.7-7.8-0.1c-0.2-2,1.6-4.5,3.7-4.8C613.9,458.5,614.7,461.5,615,463.8z M611.5,461.6
		c-2,0.1-2.3,3.2-0.2,3.5C613.6,465.5,613.1,462.3,611.5,461.6z"/>
	<path d="M541.8,737.5c-5.7-1.1-4.6-7.3,0.9-6.8C548.4,731.3,546.3,736.7,541.8,737.5z M544.2,733.9c-0.6-1.3-4-1.8-3.7,0.2
		C540.8,735.9,543.5,734.8,544.2,733.9z"/>
	<path d="M702,805.1c-0.2,4.9-6.6,6.9-6.8,1.1c-0.1-1.8,0.7-4.6,2.8-4.9C699.5,801,702,803.4,702,805.1z M698.3,804
		c-1.4,0.5-2,3.3-0.1,3.4C700.2,807.5,700.4,803.9,698.3,804z"/>
	<path d="M617.9,506.6c-4.4-0.3-6.8-8.6-1.4-8.4C621.3,498.4,623.5,505.7,617.9,506.6z M617.8,504c2.5-0.4,0.1-4.4-1.5-3.3
		C615,501.7,616.5,504,617.8,504z"/>
	<path d="M568.7,490c-3.9,0.2-6.9-5.5-2.1-6.7C571,482.3,574,489.8,568.7,490z M567.4,485.9c-1.3,1.8,1.1,0.9,1.3,1.2
		C568.7,487,568.9,485.5,567.4,485.9z"/>
	<path d="M768.2,497.3c4-0.4,6.4,6.3,1.7,7.3C765.1,505.7,762.7,497.3,768.2,497.3z M767.4,500.1c0.1,0.5,1.9,3,2.2,1.5
		C770,500.2,768.5,499.3,767.4,500.1z"/>
	<path d="M756.8,492.6c4.7,0.3,5.2,7.2,0.4,6.9C753.3,499.3,751.8,491.6,756.8,492.6z M756.3,495.7c-0.2,2,2,0.1,1.5,0
		C757.8,495.8,756.5,494.3,756.3,495.7z"/>
	<path d="M878.6,579.6c0.2,5.3-8.2,4.4-8-0.6C871,573.7,878.5,575,878.6,579.6z M876.3,579.7c0-1.5-2.7-3-3.1-1
		C872.9,580.3,876.3,581.6,876.3,579.7z"/>
	<path d="M711.5,786.5c-4.3,0.1-4.9-7.6-0.4-7.9C715.9,778.2,717,786.4,711.5,786.5z M712,784.3c2.3,0.2,0.9-3.9-0.7-3.6
		C709,781.1,710.6,783.8,712,784.3z"/>
	<path d="M616.6,492c0-5,7.2-4.7,6.7,0.4C622.7,497,617.2,496.1,616.6,492z M621,491.7c-0.2-2-1.8,0.6-1.6,0.5
		C619.5,492.2,621.2,493.8,621,491.7z"/>
	<path d="M542.7,758.3c0,4-6.1,4-6,0C536.8,754.5,542.8,754.2,542.7,758.3z M539.7,758.8C541.8,759.2,538.6,756.3,539.7,758.8z"/>
	<path d="M643.7,508.3c0.4,3.7-5,4.4-5.6,0.8C637.6,505.7,643.3,505,643.7,508.3z"/>
	<path d="M639.5,831.9c-0.2,2.2-4,2.2-3.7-0.2C636.1,829.7,639.7,829.3,639.5,831.9z"/>
	<path d="M576.2,788.1c-1.2-0.2,0-1.3,0-1.6C576.1,787,577.8,787.1,576.2,788.1z"/>
	<path d="M643.7,508.3c0.4,3.7-5,4.4-5.6,0.8C637.6,505.7,643.3,505,643.7,508.3z"/>
	<path d="M639.5,831.9c-0.2,2.2-4,2.2-3.7-0.2C636.1,829.7,639.7,829.3,639.5,831.9z"/>
	<path d="M576.2,788.1c-1.2-0.2,0-1.3,0-1.6C576.1,787,577.8,787.1,576.2,788.1z"/>
</g>
<g class="st1">
	
		<image style="display:inline;overflow:visible;opacity:0.9;enable-background:new    ;" width="413" height="434" xlink:href="CB90F8E2.png"  transform="matrix(1 0 0 1 491.0223 421.0369)">
	</image>
	<g class="st2">
		<g>
			<path d="M852.6,613c-1.8-9.7,12.9-8.8,12-1c-0.4,3.5-3.7,3.8-5.3,6c-1,1.4-0.5,3.3-1.9,4.9c-0.8,1-2,2.1-3.2,2.5
				c-1.7,0.7-2.8,0-4.1,1.3c-0.9,0.9-1,2.9-2,4c-1.1,1.3-2.8,2.3-4.5,2.4c-2.8,0.1-3.4-2.4-5.7-3c-2.8-0.8-3.4,2.3-6.5,3.1
				c-2.2,0.6-5.1-1.7-6.4-0.9c-1.2,0.7-1,3.9-2.6,4.9c-1.3,0.9-2.8,1-4.3,0.5c-2.7-0.9-4.5-4-4.2-6.8c0.3-3.1,3-5.7,6-5.9
				c1.2-0.1,3.3,1.4,3.9,1.3c1.6-0.3,1.7-1.5,2.8-2.8c2.4-2.7,4.7-2.8,7.7-0.9c1.4,0.9,0.9,1.6,2.3,1c0.9-0.4,1.8-3.2,2.5-4
				c2.5-2.7,5-0.9,8.1-2C849.5,616.7,853,615.7,852.6,613z M847.8,624.2c-2.6-5.6-9.8-3.5-8.3,2.5
				C841.3,633.4,847.1,628.7,847.8,624.2z M854.8,612.5c-1,0,0.9,2.7,1.8,2.9c1.8,0.5,4.8-1.5,5-3.5
				C862,607.3,854.8,607.3,854.8,612.5z M820.3,627c-1.6,0.9-3.3,1.5-3.7,3.5c-0.3,1.8,1,4.4,3,4.4C823.5,635,823.2,628.5,820.3,627
				z M833.5,627c0-4.5-5.7-4.3-6,0C827.2,631.4,833.5,631.4,833.5,627z M853.5,618.3c-1,0.1-3.5-0.1-4.1,0.9
				c-0.8,1.2,0.9,3.9,2.1,4.2C854.3,624.1,858.1,619.4,853.5,618.3z"/>
			<path d="M615.3,687c-4.2-0.8-1.9,2.1-4,4.9c-2.2,3-5.4,2.9-8.2,1.1c-4.5-2.8-2.2-0.8-4,3c-1.4,2.8-5.2,3.7-8,2.6
				c-7.2-2.9-6.6-14.4,2.1-13.5c2.2,0.2,5.7,3.5,7.1,2.6c0.6-0.3,0.9-3,1.5-3.8c1.5-2,3.2-2.3,5.5-2.4c2.9-0.1,1.2,1.8,2.4-0.3
				c0.5-0.8-0.1-3,0.5-4.2c1.9-4,4.5-3.4,7.9-2.7c5.1,1.1,1.5-2.5,2.6-5.8s5.2-5.2,8.5-4.2c6.7,2,5.4,13.7-1.8,13.6
				c-1.4,0-3.1-2.1-4.3-1.4c-1.2,0.6-0.2,2.3-0.3,3.2C622.3,683.7,619,686.5,615.3,687z M627.4,675.7c5-1.2,5-9.1-0.5-9.4
				C620,665.9,622.7,674.3,627.4,675.7z M597,693.5c0.2-7.3-9.7-7.3-8.3-1.1C589.9,697.3,597,697.3,597,693.5z M620.2,679.7
				c0.1-4.5-8.8-5.2-8,0.6C613,686.1,619.2,684.4,620.2,679.7z M606.7,692c5.5-1.1,3-9-1.3-8.2C600.6,684.7,603.3,691.2,606.7,692z
				 M621.4,675.3c0.1,0.2,0.2,0.4,0.3,0.6C622.1,675.6,622,674.8,621.4,675.3z"/>
			<path d="M690.7,531.7c0.7,1.6,0.9,5.1,1.9,5.9c0.2,0.1,3.2-0.5,3.5-0.5c1.4,0.3,2.8,1.7,3.5,2.8c2.9,4.3-0.1,10.3-5.6,9.2
				c-3.4-0.6-4.8-4-4.7-7.2c0.1-3,1.1-1.4-0.5-2.8c-1.2-1-2.7,0.1-4-1.7c-1.6-2.2,0.6-4-0.1-5.9c-0.9-2.6-3.9-2.6-3.5-6.3
				c0.4-3.2,2.9-3.6,5-5.3c2.6-2,0.1-1.1-1.8-3.3c-3.7-4.3,2.3-10.5,6.7-6.9c1.8,1.5,2.6,4.6,1.3,6.6c-1.4,2.2-3.9,1.6-1.8,3.5
				c1.3,1.2,2.2,0.3,3.2,2.2c0.8,1.3,0.8,3,0.3,4.4C693.7,528.5,692.1,530.1,690.7,531.7z M689,522.1c-4.9-0.4-6.8,6.6-1.6,7.1
				C691.6,529.7,694,523.1,689,522.1z M698.4,543.1c-0.8-3.8-5.5-5.4-6.3-0.6C691.3,547.1,698.6,547.8,698.4,543.1z M690.7,513.3
				c-0.8-2-3.9-3.5-4.5-0.4C685.5,516.1,691,516.8,690.7,513.3z M689.7,534.6c-0.8-0.9-3.8-1.6-3.2,0.5
				C686.9,537.2,689.7,536.6,689.7,534.6z"/>
			<path d="M569,577.2c-0.6-2.5,0.1-5.2,2.2-6.9c1-0.8,4.7-1.3,4.8-2.3c0-0.6-1.5-1.7-1.8-2.3c-0.9-1.5-1.1-2.6-0.9-4.3
				c0.3-2.2,1.3-3.8,3.2-4.9c4.3-2.4,11.5,0.6,11.7,5.9c0.1,2.2-1.2,4.6-2.9,5.8c-1.3,0.9-4.4,0.8-4.8,1.9c-0.2,0.6,1.9,3,2,3.7
				c0.2,1.3-0.1,2.2-0.7,3.3c-1.1,2.1-3.2,3.5-5.5,3.9c-3.8,0.8-3.5-0.8-4.2,3.1c-0.4,2.3-1.1,4.7-3.4,5.7
				c-4.1,1.8-10.3-2.1-9.2-6.8c0.5-2.2,2.4-3.8,4.5-4.5C565.6,578.1,569.5,579.7,569,577.2z M580.7,566.7c6.1,0,6.1-7.7,0.2-8.5
				C574.4,557.3,574.8,566.9,580.7,566.7z M574.8,578.7c5.6,0.1,7.2-7.8,0.6-7.5C570.5,571.3,569.6,578,574.8,578.7z M569.7,584.5
				c-0.3-5.6-8.8-5.1-8.3-0.1C562,589.5,568.7,589,569.7,584.5z"/>
			<path d="M661.5,622.3c0.2,2.3-1.5,4.5-3.3,5.8c-0.8,0.6-1.6,1.1-2.6,1.4c-0.9,0.2-3-0.6-3.6-0.3c-2,0.8-1.3,3.4-2.3,5.2
				c-1,1.7-2.9,3.1-4.9,3.3c-5,0.7-8.5-4.7-6.8-9.2c1.1-2.8,2.8-3.3,5.4-3.8c3.2-0.6,3.2,0,4.2-2.6c1.4-4,2.2-7.4,7.5-7
				c0.6,0,2,0.6,2.6,0.5c1.9-0.3,0.9,0.1,1.7-1.3c1.1-2.1,0.3-4,3.1-4.8c5.1-1.6,8.8,4.5,5.5,8.4C665,621.5,660.9,616.5,661.5,622.3
				z M653.5,617.2c-4.6,1.6-4,9.2,1,9.5C660.5,627,659.4,617.6,653.5,617.2z M648.2,629.8c-0.6-2.2-0.9-3.1-3.4-3
				c-2.3,0.1-4.3,1.5-4.4,3.8c-0.1,2.3,1.6,4.4,3.9,4.2C647.2,634.8,647.7,632,648.2,629.8z M666.5,614.7c-0.4-2.5-4.4-4.6-4.5-0.9
				C661.9,616.8,665.3,617.4,666.5,614.7z"/>
			<path d="M617.6,809.1c4.3-0.6,8.4,3.4,6.2,7.9c-1,2.1-4,3.1-6.1,2.1c-3.7-1.8-1.8-5.2-2.4-8.1c-0.7-3.3-3,0.1-5.7-0.1
				c-2.5-0.2-4.4-2.4-5.1-4.7c-0.6-2.1,1.8-6.4,1.2-7.5c-0.8-1.5-4.6,1.2-6.4,0.9c-5-0.9-7.3-7.9-4.4-11.8c3.4-4.5,10-1.6,11.5,3
				c0.7,2-1.2,5.5-0.5,6.8c0.9,1.6,4.9-0.2,6.8,0.8c2.6,1.3,3.2,4.2,3,6.8C615.7,807.6,614.3,810,617.6,809.1z M604.8,793.1
				c-0.6-5.3-8.5-7.2-8.7-0.9C595.9,798.2,602.8,797.9,604.8,793.1z M606.7,805.1c1.5,4.7,7.4,3.5,6.9-1.6
				C613.2,798.8,606.5,800.5,606.7,805.1z M622,814.5c-0.1-3.3-4.2-4.8-4.8-1C616.7,816.9,621.9,818.6,622,814.5z"/>
			<path d="M664.3,661c-1.4-3.3-5.6-3.5-4.9-8.3c0.5-3.5,3.5-5.8,7-6.1s6,2,7.2,5.2c1.7,4.4-1.1,6.4-4,9.2c2.3,2.3,5.7,4.4,5,8.1
				c-0.7,3.7-4.5,5.2-7.9,5.3c-3.7,0.1-7.2-1.8-7.8-5.7C658.2,664.6,661.1,662.7,664.3,661z M671.5,654.5c-1-5.4-9.7-7.2-9.3-0.7
				C662.4,659.2,670.3,659.7,671.5,654.5z M666.8,671.8c2-0.6,5.5-1,5-3.9c-0.3-1.6-3.2-4.2-4.7-4.5c-2-0.3-4.9,1.5-5.3,3.5
				C661.2,670.2,664.4,671.2,666.8,671.8z"/>
			<path d="M620.4,468.2c3.3,0.7,2.1-0.5,3.3-3c1.1-2.5,3.7-3.5,6.2-2c1.9,1.1,2.9,4.2,1.8,6.4c-1.7,3.2-6.2,0.7-6.8,1.5
				c-0.3,0.5,1.5,3.8,1,5.1c-0.7,2.3-2.8,3.1-4.8,4c-2.5,1.2-1.1-0.4-1.9,1.9c-0.7,2.1,0,3-2,4.5c-0.8,0.6-2.1,0.4-2.8,1.1
				c-0.6,0.5-0.4,1.6-0.8,2.2c-1.2,1.7-2.5,2.6-4.7,1.7c-3.7-1.7-3.7-7.7,1-7c0.7,0.1,3.3,2,3.2,0.1c-0.1-1.5-2.7-1.3-3.7-2.2
				c-3.4-3,1-7.9,4.5-4.6c0.3,0.3,1.8,3.7,2.6,1.9c0.3-0.7-1.4-2.5-1.7-3.4C613.4,472.4,615.8,468.2,620.4,468.2z M619.9,477.7
				c4-0.1,4.4-6,0.8-6.9C616.6,469.6,615.5,476.7,619.9,477.7z M629.5,467.5c-0.3-2.1-2.7-4.1-3.5-1
				C625.3,469,629.5,470.6,629.5,467.5z M611.9,488.5c-0.3-1.1-3.7-2.9-3.2-0.4C609,489.5,611.9,490.4,611.9,488.5z M617.2,483.1
				C614,480.1,615.8,488.5,617.2,483.1z M611.5,479.1c-2.2,0,0,1.9,0,1.9C611.5,481.1,613.8,479.1,611.5,479.1z"/>
			<path d="M801.6,622.5c-0.1-1.2,1.5-4.2,1-5c-0.5-0.8-1.6-0.6-2.3-1c-2.5-1.4-4.8-4.2-4.5-7.3c0.8-8,13.6-5.7,15.6,0.4
				c0.5,1.7,0.3,3.2-0.7,4.7c-1.5,2.2-1.9,0.8-0.8,3.2c1.5,3.2,4.2,4.2,3,8.4C810.4,634.3,801.3,629.5,801.6,622.5z M801.9,606.5
				c-6.3,0.7-2.1,8.6,3.1,7.7C812.6,612.9,806.8,606.1,801.9,606.5z M804.3,622.3c0,4.2,5.5,7.7,5.8,1.8
				C810.4,620,805.3,617,804.3,622.3z"/>
			<path d="M580.2,633.5c-0.4-8.5,8.9-7.2,14-7.8c5.8-0.7,12.1,2.6,10.1,9.6c-0.8,2.6-2.9,5.2-5.4,6.2c-3.1,1.2-4.8-0.6-7.7-0.8
				c-2.6-0.2-5.1,1.8-7.7,0.1C581.3,639.5,580.1,635.8,580.2,633.5z M582.8,633.5c0.1,3,1.4,5.2,4.3,5.5c1.9,0.2,3.7-0.8,5.7-0.5
				c1.4,0.2,2,1.1,3.7,1c7.2-0.5,7.6-12.5-0.6-11.7c-4.6,0.5-3.3,1.4-2.5,4.2c0.6,2.3,0.3,4.9-1.5,2c-1.6-2.6,0.4-4.2-2.6-5.4
				C585.8,627.2,583.6,630.5,582.8,633.5z"/>
			<path d="M842.5,575.3c3.2,2.9,5.3,6,3,10.3c-2.5,4.7-8.1,4.8-11.1,0.5c-2.7-3.8,0.2-6.6,1.4-10c0.9-2.7-0.5-0.6-1-2.6
				c-0.6-2.4,1.4-1.8,3.6-1.7c1.6,0.1,4.6,1.1,4.7-1.5c0-1.3-2-2.9-3.1-3.3c-2.9-1-4.4,4.2-5.4,1.3c-1.9-5.3,5.7-4.7,8.2-2.7
				C847,569,846.2,572.2,842.5,575.3z M844.2,581.8c-1.7-5.4-9.3-5.6-8.2,1C836.9,588.9,843.2,586.4,844.2,581.8z"/>
			<path d="M738.5,505.3c-0.7,8.7-12,4.6-10.1-2.6c1.5-5.7,4.6-2.5,7.8-1.6c1.8,0.5,1.1,1.3,2-0.2c0.6-0.9,0.1-3.5,0.8-4.9
				c3.6-6.8,15-4,12,3.7c-1.2,3.2-4.4,5.3-7.7,4.7c-0.8-0.1-4-2.2-4.6-1.7C738.2,503,738.3,505.3,738.5,505.3z M748.9,498
				c-0.8-5.1-8.8-4.1-8.2,1C741.2,504,747.8,501.5,748.9,498z M731.9,502c-2.5-0.2-0.6,5.4,2,5.6C738.3,507.8,734.8,502.4,731.9,502
				z"/>
			<path d="M566.1,526.1c-2.5-1.8-1.9-5.5,0.6-7.5c2.2-1.7,5.9-1.2,8.2,0c2.2,1.2,3.7,3.5,3.9,6c0.1,1.3-0.1,2.5-0.8,3.6
				c-0.6,1-2.5,1.6-2.9,2.6c-0.7,1.9,1.2,4,0.2,6.3c-1.3,3-4.6,3.2-7,1.2c-2.8-2.4-1.3-4.2-0.5-7C568.3,529.8,569,528.1,566.1,526.1
				z M574.4,528.2c3.9,0-0.3-11.6-5.8-7.5C563.9,524.2,571.3,528.3,574.4,528.2z M573.7,534.8c-0.6-3.1-4.9-3.8-4.8-0.2
				C569,537.7,573.6,538.3,573.7,534.8z"/>
			<path d="M552.7,530.8c-0.7,3.2-1.5,6.5-5.6,5.8c-1.1-0.2-2.9-2.3-3.6-2.3c-1.4,0-0.5,0.3-1.6,1.2c-1.9,1.8-3.4,4.1-6.7,3.4
				c-3.2-0.7-3.6-3.7-2.8-6.4c0.8-2.7,2.5-4.7,5.5-4.3c2.6,0.3,3.2,2.8,5,0.9c2-1.9,1.5-5.2,5.6-4.4
				C551.6,525.3,552.8,528,552.7,530.8z M550,530.8c0.2-4.4-5-3.8-4.3,0.4C546.3,535.3,549.3,533.9,550,530.8z M536.6,536.2
				c2.8-0.6,5.1-5.5,1-5.5C534.9,530.7,533.3,536.3,536.6,536.2z"/>
			<path d="M827,545c-0.2-5.2,3.7-7.8,8.6-6.9c2.8,0.5,4.6,2.3,7.1,3.2c2,0.8,3.1,0.2,4,2.8c0.9,2.4,0,5-1.9,6.7
				c-2.6,2.4-4.5,1.8-7.3,0.5c-2.5-1.2-4.2,0.3-6.8-0.6C828.3,549.9,827.2,547.6,827,545z M838.4,541.5c-3.5-1.5-11.6-1.3-8.7,5
				c0.8,1.7,3.6,3.1,5.4,1.7c0.8-0.7,0.5-2.2,0.9-3.1C836.7,543.7,837.6,542.7,838.4,541.5z M841.7,543.5c-3.1,0.7-5.4,5.7-0.9,6.2
				C844.7,550.3,846.3,543.4,841.7,543.5z"/>
			<path d="M691.6,502.6c0-7.2,7.4-3.7,10.7-5.2c1.9-0.9,2.1-2.9,4.9-2c2.6,0.8,4.6,3.9,3.9,6.5c-0.8,3-2.5,2.2-4.9,2.5
				c-2.9,0.3-1.2,0.8-3.3,3.2C699.6,511.3,691.2,507.4,691.6,502.6z M701.5,505.1c0-3.2-5.2-8.3-7-3.5
				C693.2,505,701.1,508.6,701.5,505.1z M708.6,500.7c-0.1-1.3-2.5-4.6-3.7-2.3C703.7,500.7,708.5,503.2,708.6,500.7z"/>
			<path d="M814.6,691.4c1.2-1.7-2.7-4.2-1.9-6.6c1.1-3.6,4.5-1.3,6.4-2.3c1.5-0.7-0.3-4.2,1.2-5.8c2.1-2.3,5.8-1.2,7.7,0.6
				c1.7,1.7,2.7,5.1,0.8,7.2c-1.9,2-4.7-0.2-6.2,1.2c-1.4,1.2,0.9,3.9-1.6,5.6C818.8,692.8,816,690.3,814.6,691.4z M823,678.5
				c-3.4,0.8,0.4,5.3,2.6,4.6C829.2,682,825.3,678.5,823,678.5z M820,688.6c0.5-1.6-3.6-5.5-4.5-3.1
				C814.8,687.3,818.8,690.9,820,688.6z"/>
			<path d="M671.9,504.8c-3.8,0-7.3-1.1-7.7-5.5c-0.4-4.8,5.2-7.5,9.2-8.2c4.2-0.7,8.6,1.9,9.4,6.5
				C683.9,503.4,676.4,505.4,671.9,504.8z M671.7,502.4c2.2,0,7.2-0.3,8.3-2.7c1.5-3.4-2.4-6.6-5.3-6.4
				C668.8,493.7,663.1,501.4,671.7,502.4z"/>
			<path d="M803.2,505.7c4,0.6,9,1,9.2,6.2c0.2,4.4-3.9,8.2-8,8.7C794.8,521.9,792.7,506.2,803.2,505.7z M803.4,518.3
				c8.3,0.7,7.9-11.8-1.2-10C796.7,509.4,797.9,518.3,803.4,518.3z"/>
			<path d="M745.8,631.1c10.1,0,10,15,0.6,13.5c-3.3-0.5-7.2-3.2-7.8-6.6C737.9,633.5,741.2,629.8,745.8,631.1z M745.8,633.1
				c-6.5-0.1-4.7,7.7,0.8,8.4C752.8,642.4,751.1,633.4,745.8,633.1z"/>
			<path d="M734.5,512.7c4.1,0.2,6.5,2,7.7,6.1c1,3.6,0.2,8.4-4.4,8.8c-3.6,0.3-9.4-3.5-10.6-6.8
				C725.6,516.2,730.5,512.7,734.5,512.7z M740.2,521.7c-0.6-4.2-6.1-10.6-9.9-4.6C727.6,521.6,738.5,528.8,740.2,521.7z"/>
			<path d="M765.4,530.9c0.6-4.3-6.4-7.7-1.1-12.1c3.4-2.9,8.8-0.1,9.1,4.2c0.1,1.9-0.8,3-0.3,4.8c0.6,2.1,2.1,3.2,0.8,5.6
				C771.4,537.8,765.4,535.5,765.4,530.9z M767.2,526.2c3.8,0,5.1-5.2,0.8-5.8C763.5,519.7,764.3,524.7,767.2,526.2z M769.7,529.3
				c-3.2,0-2.2,4.7,0.7,4C773.3,532.5,771.9,529.6,769.7,529.3z"/>
			<path d="M788.2,494.5c9.8-0.7,9.9,14.2,0.4,14.4C779.6,509,780.2,495.6,788.2,494.5z M788.3,497c-4.6,0-5.1,10.4,1.4,9
				C795,504.8,793.5,497,788.3,497z"/>
			<path d="M766,479.4c-0.9-9.6,15-9.2,13.8,1.1C778.8,490,766,488.5,766,479.4z M777.2,479.9c0.7-5.9-8-6.8-8.4-0.6
				C768.3,485.1,777.7,486.3,777.2,479.9z"/>
			<path d="M712.6,622.1c3.1-0.4,8.5,2.8,9.2,6.1c0.9,4.3-3.6,7.2-7.2,7.1c-3.7-0.1-8.2-2.2-8.7-6.2
				C705.4,625.4,708.8,621.5,712.6,622.1z M712.9,624.8c-7.6,0.1-2.6,10.1,3.6,7.9C722.8,630.5,716.6,625.3,712.9,624.8z"/>
			<path d="M597.5,493.5c1.5,8.7-15.7-0.1-13.6-7.5c1.3-4.8,6.2-4.4,9.3-2C596.5,486.6,597.5,489.2,597.5,493.5z M595.1,493.6
				c-0.1-2.7-0.4-4.5-2.3-6.5c-1.5-1.6-4.8-3.9-6.1-0.6C585.3,490,594.5,497.1,595.1,493.6z"/>
			<path d="M667.5,470.1c-1.3,7.7-12.5,10.6-14.3,1.4C651.5,463,667.9,459.8,667.5,470.1z M664.9,468.9c0.2-5.5-9.1-2.5-8.8,1.7
				c0.1,2.4,2.5,4.2,4.7,4C664,474.3,664.4,471.5,664.9,468.9z"/>
			<path d="M714,619.1c-3.3-0.3-6.4-4.6-2.8-7c1.4-1,3.2,0.1,4.5-0.7c1.9-1.2,0.8-3.1,3.7-3.6c4.3-0.8,7.8,4.4,4.5,7.8
				c-1.4,1.5-3.2,1-4.9,1.8C716.9,618.4,716.8,619.1,714,619.1z M722.7,612.7c0-1.7-2.4-3.8-3.6-1.9
				C717.9,612.6,721.3,615.5,722.7,612.7z M714.4,613.8c-3.6,0.6-0.9,4.2,1.4,3.1C718.8,615.5,716.2,614.1,714.4,613.8z"/>
			<path d="M821.1,494.7c10.3-1.2,9.9,15.1,0,14.2C812.8,508.1,812.3,494.7,821.1,494.7z M817,501.2c0.1,7,10.5,6.2,9.8,0
				c-0.2-2.1-2.9-3.7-4.8-3.9C818.8,496.9,817.7,498.5,817,501.2z"/>
			<path d="M627,528.5c0-9.3,13.4-7.6,14.3,0.6C642.3,538.7,627,537.6,627,528.5z M633.5,524.6c-6.3-0.3-3.7,10.2,2.2,9
				C641.7,532.4,638.2,524.9,633.5,524.6z"/>
			<path d="M582.2,513.3c-0.6-8.7,13.8-7.4,13.8,1.3C596,524.2,581.7,522.8,582.2,513.3z M584.9,513.4c-0.1,5,6.1,7.6,8.3,2.4
				C595.9,509.6,584.7,507.8,584.9,513.4z"/>
			<path d="M796,634.6c7.4-0.1,14.1,15.2,4.4,14.5C793.5,648.5,786.1,634.9,796,634.6z M796.3,636.8c-5.7-0.1,0.3,9.4,4.3,9.5
				C806.8,646.5,799.6,637.5,796.3,636.8z"/>
			<path d="M706.5,461.1c-3.5,0.2-8-2.5-9.2-5.9c-1.5-4.3,3.1-8.4,7.1-8.3C711.3,446.9,714.4,460.3,706.5,461.1z M708.8,456.3
				c-0.1-4.1-4.1-10.1-8-5.1C696.4,456.5,709,461.1,708.8,456.3z"/>
			<path d="M853.8,715c8.7,0.5,9.8,13,0.7,13.3c-4.2,0.2-7.4-2.2-7.6-6.6C846.8,717.2,849.8,715.6,853.8,715z M854.2,725.9
				c6.3,0,4.8-9.7-1-8.6C848.2,718.3,849.1,726.2,854.2,725.9z"/>
			<path d="M569.7,504.1c1,7.3-12.5,8-12.7-0.2c-0.1-4.3,2.4-7.2,6.9-7.2C568.6,496.8,569.7,500.1,569.7,504.1z M559.6,504.4
				c0.5,5.1,8.5,3.5,8-1.4C567.1,497.6,559.5,499.5,559.6,504.4z"/>
			<path d="M755.3,531.7c-0.4,3.1,1.6,7.4-0.7,10c-2.6,3-7.1,0.9-8-2.4c-0.6-2.2,0.9-2.9,1-4.7c0-1.9-1.8-3.2-0.5-5.3
				c1-1.6,3.5-2.3,5.2-1.8C754.5,528.1,754.8,529.5,755.3,531.7z M753.5,538.3c-0.1-3-4.5-4-4.7-0.6
				C748.7,540.9,753.1,541.9,753.5,538.3z M752.7,531.3c0-1.9-3.5-1.6-3,0C750.1,532.3,752.8,533,752.7,531.3z"/>
			<path d="M795.4,552.1c-0.5-9.8,13.7-6.8,13.3,0.6C808.2,561.9,794.1,560.6,795.4,552.1z M798,552c-0.2,5.8,8.7,5.6,8,0.4
				C805.5,548.5,797.9,546.3,798,552z"/>
			<path d="M649.4,461c-0.1,8.4-13.3,8-13.6,0.1C635.4,452.4,649.5,451.5,649.4,461z M643.8,456.4c-4.7-0.3-7.4,6.2-2.4,8
				C647.6,466.5,648.2,456.4,643.8,456.4z"/>
			<path d="M618.2,647c-9.8,0.4-8.1-13.6,1.3-13.2C629.8,634.2,627.5,647.6,618.2,647z M618.6,644.6c6,0.1,7.6-8.5,1.1-8.7
				C613.6,635.8,611.6,644.7,618.6,644.6z"/>
			<path d="M713.6,603.9c-8.6,3.3-10.9-9.6-2.5-11.8C720.1,589.6,721.5,601.7,713.6,603.9z M713.2,601.7c5.1-1.7,4.1-9.5-1.5-7.8
				C706.5,595.4,706.9,603.8,713.2,601.7z"/>
			<path d="M573,708.2c9.8,0.1,7,13.6-2,13.2C562,720.9,564.3,708.1,573,708.2z M570.8,718.8c5.4,0.1,9.5-7.2,2.4-8
				C567.9,710.2,565.6,718.9,570.8,718.8z"/>
			<path d="M773.7,781.9c-0.3,8.4-11.6,10.3-13.3,1.6C758.3,773.3,774,773.1,773.7,781.9z M766.3,778.1c-5.5,0.3-4.2,8.1,0.6,8.5
				C772.9,787.1,772,777.8,766.3,778.1z"/>
			<path d="M638.8,653.4c0.6,8.6-15.6,9-15.2,0.1C624,645.6,638.8,645.2,638.8,653.4z M631.7,649.7c-5.8-0.6-7.1,7.2-1.1,8
				C636.9,658.5,639,649,631.7,649.7z"/>
			<path d="M609.4,626c-9.4,0.5-10-12.9-0.5-12.1c3.6,0.3,6.7,1.5,6.6,5.4C615.5,623,613.1,626,609.4,626z M608.3,616.3
				c-5.8,0.6-3.8,8.3,1.4,7.4c1.7-0.3,3.2-1.7,3.3-3.5C613.3,617.3,610.6,616.8,608.3,616.3z"/>
			<path d="M879.9,587.6c3.6,0.6,6,1.1,7,5c1,3.7-0.2,7.5-4.1,8.5C873.5,603.5,869.9,587.2,879.9,587.6z M876.6,593.5
				c0.3,4.2,6.6,7.8,7.9,2.3C886,590,876.6,588,876.6,593.5z"/>
			<path d="M698,471.4c7.8-0.3,7.9,17.4-1.8,12.9c-3-1.4-6.8-3.7-6.6-7.6C689.8,472.7,694.9,471.3,698,471.4z M697.8,473.7
				c-6,0.1-6.5,5.4-1.5,7.9C702.8,484.9,703,473.6,697.8,473.7z"/>
			<path d="M785.5,800c0.3,8.5-12.7,6.9-14-0.3C770,790,785.2,790.7,785.5,800z M783.4,799.9c0-4.7-8.9-7.4-9.8-2.1
				C772.7,803.4,783.2,806,783.4,799.9z"/>
			<path d="M861.1,560.2c3.3-2,6.1-3.9,9.3-0.4c2.2,2.4,2.4,5.7,0.7,8.4c-2,3.1-4.9,3.9-8,1.8C859.2,567.5,859.8,564,861.1,560.2
				L861.1,560.2z M866.2,560.3c-4,1.2-4.2,8.7,0.5,8C870.8,567.7,870.3,560.8,866.2,560.3z"/>
			<path d="M602.5,601.9c0.6-8,14-8.5,14.2-0.3C616.9,610,602.6,610.4,602.5,601.9z M610,597.8c-6-0.2-6,8.2-0.1,8
				C615.7,605.7,615.3,597,610,597.8z"/>
			<path d="M792.8,572.8c-6.9,0.1-11.2-11.5-3.1-13.1C797.6,558.3,801.6,572.4,792.8,572.8z M790.5,562.2c-4.7,0.5-2,8.8,2.4,7.7
				C797.9,568.5,794,562.4,790.5,562.2z"/>
			<path d="M668.2,641c-3.2-0.2-7.9-1.8-7.9-5.6c0-3.4,3.3-4.9,6.2-5.3C673.7,629.3,676.8,639.8,668.2,641z M667,633
				c-4.6,0.2-3.9,4.4,0.2,5C672.2,638.8,671.2,632.9,667,633z"/>
			<path d="M733.1,619.3c8.2-0.7,9.8,12.9,0.8,12C726.6,630.5,725.3,618.5,733.1,619.3z M737.4,625.8c-0.3-3.6-6.9-6.1-7.1-1.2
				C730.2,628.3,737.6,630.3,737.4,625.8z"/>
			<path d="M701.4,584c6.6-0.6,8.9,10.2,1.6,10.6C695.8,594.9,694.2,583.3,701.4,584z M705.2,589.7c-0.2-2.6-4.3-5.2-5.9-2.2
				C697.1,591.4,705.4,594.2,705.2,589.7z"/>
			<path d="M682.4,598.7c0,7-8.7,12.4-12.5,4.4C665.8,594.5,682.4,593.3,682.4,598.7z M675.8,604c3.8,0.5,5.2-5.6,0.8-6.2
				C672,597.3,670.8,603.6,675.8,604z"/>
			<path d="M683.6,684.3c-6.7,0.3-9.1-11.5-1.8-12.5C690,670.7,691,684.4,683.6,684.3z M681.7,674.8c-2.9,0.1-1.2,7.5,2.3,6.3
				C688.4,679.7,685,674.9,681.7,674.8z"/>
			<path d="M789.7,582.7c0,8.7-12.8,8.1-12.3,0.3C777.9,575.4,790.3,573.7,789.7,582.7z M787.1,582.8c-0.5-5.1-6.5-5.2-7-0.2
				C779.7,586.8,787.1,587.8,787.1,582.8z"/>
			<path d="M574.5,737.5c-7.4-0.7-8.1-11.5-0.3-12.3c4-0.4,7.1,2.5,7.5,6.4C582.3,736.4,578.5,737.1,574.5,737.5z M575.7,727.8
				c-5.8,0-5.9,7.8,0,7.5C581.4,735,580.6,728.2,575.7,727.8z"/>
			<path d="M759.5,772.7c-7.5,0.7-9.5-14.3,0.2-12.9c3.7,0.5,6.5,4,6.1,7.8C765.3,771.4,762.9,772.5,759.5,772.7z M755.3,764.7
				c-0.2,4.6,6.7,8.5,8,2.8C764.5,762.2,755.3,760.5,755.3,764.7z"/>
			<path d="M859.5,747.8c-7.5,0.7-9.5-14.3,0.2-12.9c3.7,0.5,6.5,4,6.1,7.8C865.3,746.5,862.9,747.6,859.5,747.8z M855.3,739.8
				c-0.2,4.6,6.7,8.5,8,2.8C864.5,737.3,855.3,735.6,855.3,739.8z"/>
			<path d="M772.3,462.4c0.1-7.8,13.1-7,12.6,1.2C784.2,472.2,771.1,471.1,772.3,462.4z M778.7,459.5c-1.6,0.4-3.3,0.6-3.9,2.3
				c-0.7,1.9,1.1,4.9,2.9,5.3C782.5,468,782.8,461.1,778.7,459.5z"/>
			<path d="M878.8,634.8c-4-0.9-7-2.6-6.6-7.3c0.3-3.8,2.8-5.6,6.5-4.6C886,625.1,886.2,633.1,878.8,634.8z M874.9,627.1
				c0.2,1.7,0.4,3.3,2,4.3c1.5,0.9,4.2,0.8,4.8-1.2C882.8,627.3,876.5,622.6,874.9,627.1z"/>
			<path d="M861.2,560.2c-1-1.8-2.9,0.3-4.4,0.6c-2,0.4-5.1-0.1-6.5-1.7c-2.7-3.1,0.6-6.7,3.3-8.4c2.8-1.7,8.1-2.5,9.4,1.6
				C863.7,554.8,858.9,559.3,861.2,560.2z M855,558.2c2.7,0,8-4.7,3.9-6.3C855.2,550.4,848,558.3,855,558.2z"/>
			<path d="M529.4,534.2c-1.8-3.1-5.3-2.5-8-0.7c-1.3,0.9-1.6,1.3-2.1,2.8c-0.8,1.9,0.9,5,0,6.5c-1.1,1-6.3-1.6-9,0
				c-3.1,1.8-4.1,7.2-3.1,10.5c1.1,3.5,6,4.8,9.1,3.4c4.9-2.2,4.1-7.6,3.9-12l0,0c0.8-1.5,5.4,0.8,7.5-0.7
				C530.2,542.2,531,537,529.4,534.2z M512.3,554.3c-0.9-0.3-2-1.7-2.4-4.5c0-7.2,8.6-6.6,7.8,0.4
				C517.4,553,515.3,555.2,512.3,554.3z M524.4,542c-2-0.1-2.7-1.9-2.6-3.5c0.1-1.8,1.1-3.3,3.1-3.5c2.1-0.1,2.2,0.9,2.7,2.8
				C527.7,539.9,526.9,542.1,524.4,542z"/>
			<path d="M719.5,660.4c-2.9,6.7-11.7,7.1-12.3-1.4C706.6,649.7,717.5,655.6,719.5,660.4z M713.2,662.8c3.6-0.9,3.7-4.6-0.1-5.8
				C708.4,655.4,710.2,661.5,713.2,662.8z"/>
			<path d="M847.9,690.2c-0.2,3.2-2.1,7.1-5.8,7.3c-3,0.2-6.2-2.3-6.5-5.2C834.8,684.8,845.7,683.1,847.9,690.2z M842.4,687.9
				c-3.4,0.4-5.8,5.6-1.4,6.6C844.9,695.4,846.5,688.6,842.4,687.9z"/>
			<path d="M750.1,483.8c-8.7,0.7-8.4-11.9-0.4-12.4C757.6,470.8,757.8,484,750.1,483.8z M753.3,476.5c-0.3-5.2-8.6-1.9-7,2.4
				C748,483.5,753.5,480.6,753.3,476.5z"/>
			<path d="M844.8,651.5c3.2-0.6,5.3,2.9,5.1,5.7c-0.3,3.5-3.8,5.2-7,5.1c-3.1,0-5.8-2.6-5.9-5.8C837,652.4,841.4,651.3,844.8,651.5
				z M847.3,657.1c0-4-6.7-4.2-7.3-0.8C839.4,660.4,847.4,660.7,847.3,657.1z"/>
			<path d="M814.9,569.1c7.9,0.4,9.3,9.5,0.4,10.4C806.3,580.4,807.6,569.8,814.9,569.1z M815.7,572c-4.4,0-6,5.4-0.6,4.8
				C819.4,576.3,820.4,572.5,815.7,572z"/>
			<path d="M603.3,593.1c-8.5,0.5-8-12.3,0.2-11.8C610.3,581.7,610.4,593,603.3,593.1z M602.4,590.5c5.5,0.6,4.6-7.8-0.4-6.7
				C597.6,584.7,599.2,589.3,602.4,590.5z"/>
			<path d="M799.6,697c6.9-0.1,11.3,12.1,3,12.1C796.7,709.1,792.2,697.2,799.6,697z M804.6,704.3c0.4-4.2-8.1-6.6-5.9-1.1
				C799.7,705.8,804.2,708.4,804.6,704.3z"/>
			<path d="M629.3,493.2c0.3-1.4,0.8-2.1,1.9-2.8c2.2-1.3,1.7-0.1,3.1-2.1c1-1.5,1.5-3.4,3.8-3.2c1.9,0.1,3.2,2,3.5,3.6
				c0.7,3.4-1.3,2.6-3.3,4.1c-1.4,1.1-0.7,1.7-1.8,3.1C634.3,499.1,628.8,497.6,629.3,493.2z M640,489.2c-0.1-1.8-2.8-2.8-3.2-0.5
				C636.5,491,640.2,491.3,640,489.2z M634.8,494.6c-0.2-1.2-2.2-2.9-3-1.3C631,494.9,633.9,496.5,634.8,494.6z"/>
			<path d="M818.7,582.8c7.7,0.6,7.5,12.8-0.4,11.9C810.8,593.9,809.9,581.9,818.7,582.8z M817.8,585.5c-5.5,1.1-1.5,7.7,2.2,6.3
				C824,590.1,820.9,585.7,817.8,585.5z"/>
			<path d="M785.8,734c-6.4-0.6-11.5-11.7-2.8-12.2c3-0.2,6.4,3.1,7.4,5.8C791.8,731.6,789.3,733,785.8,734z M783.2,724.4
				c-4.8,1.6-1.4,7.2,2.5,7C791.3,731.1,786.6,724.8,783.2,724.4z"/>
			<path d="M864.7,650.1c0.4,9.2-12.3,4.8-11.5-2C854.1,640.2,864.7,643.3,864.7,650.1z M862.1,649.5c-0.4-3-5.7-5.8-6.3-1.5
				C855.3,651.7,861.7,655.4,862.1,649.5z"/>
			<path d="M623.6,824.5c0.7-3.2,2.1-6.3,6-6c2.8,0.3,5.5,3,5.4,5.8C634.9,831.8,623.4,832.6,623.6,824.5z M629.2,821
				c-3.4,1.1-4.8,7.7,0,7.1C633.2,827.7,633.7,821,629.2,821z"/>
			<path d="M583.8,752.2c-1,3.3-2.6,6.1-6.6,5.4c-3.4-0.6-6.4-5-5.5-8.3C573.5,742.4,583.5,746.4,583.8,752.2z M577.5,747.9
				c-5.6,0-4,7.4,0.6,7.3C583.5,755.2,581.8,748.6,577.5,747.9z"/>
			<path d="M818.6,553.9c-7.3,0.2-5.8-13.8,2.3-12.4C828.1,542.8,824.9,554.1,818.6,553.9z M822.8,546.5c0-4.3-7.2-2.5-6.3,1.9
				C817.5,553.7,822.8,550.2,822.8,546.5z"/>
			<path d="M857,592.6c5.7,1.2,6.7,11.1,0.3,11.5C850,604.7,850.6,593.1,857,592.6z M857.3,601.4c2.2-0.3,2.7-4,0.6-4.8
				C854.3,595.1,853,601.4,857.3,601.4z"/>
			<path d="M811.2,469.3c0,7.7-12.4,10.3-13,1.8C797.6,463.9,809,463.2,811.2,469.3z M808.8,470.2c-1.1-4.6-8.7-3.3-7.8,1.1
				C802,476.5,807.4,473,808.8,470.2z"/>
			<path d="M856.8,705.9c-0.6,7.4-11.4,7-11.1-0.4C846,697.4,857.3,697.7,856.8,705.9z M848.5,705.4c0,4.5,6.2,4.3,5.8-0.2
				C853.8,700.8,848.8,701.1,848.5,705.4z"/>
			<path d="M870.7,647.7c-3.1-0.6-4.9-1.6-5.3-4.8c-0.3-2.5,1-6.3,3.9-6.8C876.1,635,878.1,647.7,870.7,647.7z M868,641.4
				c0.5,2.5,3.3,5.4,4.7,1.7C874,639.7,868.5,636.9,868,641.4z"/>
			<path d="M832.4,654.3c0,7.1-9.7,11-10.7,2.3C821,650.2,830.5,647.6,832.4,654.3z M829.8,655.6c0.3-4.4-5.1-3.5-5.3,0.1
				C824.1,660.3,829.1,659.5,829.8,655.6z"/>
			<path d="M582.9,582.6c0-7.3,12-7.8,12.3-1.2C595.7,589.5,582.4,590,582.9,582.6z M589.1,579.2c-4.6-0.1-5.2,5.6-0.6,6.3
				c2,0.3,3.6-0.9,4-3C592.9,579.9,591.5,579.8,589.1,579.2z"/>
			<path d="M877,610.8c0.8-2.9,2-4.7,5.4-4.3c3,0.3,6.1,2.7,5.7,6C887.3,620,877.2,617.5,877,610.8z M885.6,612
				c-1-2-5.3-5.2-6.1-1.3C878.8,614.6,884.2,615.5,885.6,612z"/>
			<path d="M612.2,522.9c0.2,2.5-2.5,5.9-5.1,5.5c-3-0.3-4.7-4.7-4.5-7.2C603,512.9,612.6,515.9,612.2,522.9z M606.9,519.1
				c-2.7,0.8-1.7,6.6,0.7,6.3C611,524.9,609,519.7,606.9,519.1z"/>
			<path d="M608.5,451.6c1.6,3-0.6,7.5-4.1,7.1c-2.8-0.3-5.3-3.5-5.8-6.1C597.4,445,606.4,446,608.5,451.6z M602.1,450.1
				c-2.2,1.8,1,6.7,3.1,5.5C608.2,453.9,604.3,449.9,602.1,450.1z"/>
			<path d="M769.5,735.1c1.2-7.1,11.9-1.1,11.1,4.3c-0.4,2.7-3.7,4.3-6.2,3.6C771.1,742.1,769.5,738.2,769.5,735.1z M775.7,740.3
				c4.5-1.4,0.1-6.6-2.9-6C769.3,735.1,773.6,739.8,775.7,740.3z"/>
			<path d="M629.3,450.9c-6,0.6-4.9-12.4,3-10.5C640.6,442.4,635.6,450.5,629.3,450.9z M634.3,444.9c-1.6-3.3-7.4-2.9-6.3,1.3
				C629,450.4,633.4,447.5,634.3,444.9z"/>
			<path d="M716.6,674.6c-0.7,6.1-9.3,6.8-10.6,0.5C704.4,667.6,715.4,667.5,716.6,674.6z M713.7,674.9c-0.4-2.2-4.5-4.9-5-1.1
				C708.3,676.5,713,678.3,713.7,674.9z"/>
			<path d="M707.8,644.3c0.6-2.9,1.4-5.5,4.8-5.5c3.2-0.1,6.6,3.4,6.2,6.7C718.1,652.5,708.1,650.7,707.8,644.3z M710.6,643.4
				c-0.3,2.9,3.8,5.8,5.2,2.4C717.1,642.9,712.4,638.9,710.6,643.4z"/>
			<path d="M581.2,773.3c-8.5-1-5.7-11.7,1.8-10.2c3,0.6,5,3.4,4.3,6.4C586.6,772.6,584,773.2,581.2,773.3z M581.5,770.9
				c3.1-0.4,5.5-4.1,1.2-5.3C578.7,764.6,576.2,770.3,581.5,770.9z"/>
			<path d="M788.2,629.3c0,7-9.8,9.3-10.3,1.2C777.5,622.2,789.5,623.3,788.2,629.3z M780.7,629.8c0.5,3.4,4.6,4.5,4.9,0.4
				C785.9,626.7,781.4,626.5,780.7,629.8z"/>
			<path d="M720.4,756.1c0.2-3.3,2.2-5,5.4-4.6c3.4,0.3,5.1,3.2,5.5,6.5C732.3,767.2,720.2,763.3,720.4,756.1z M722.8,755.4
				c-0.2,2.9,5.2,8.7,6.4,4C730.1,756.3,724.4,750.9,722.8,755.4z"/>
			<path d="M703.4,678.6c0.5,6.6-9.7,6.8-11.2,1C690.1,671.8,703.7,670.9,703.4,678.6z M698.3,681.3c4.2-0.9,1.7-6.8-1.6-5.8
				C693,676.5,695.6,681,698.3,681.3z"/>
			<path d="M723,772.2c0,7.5-12.2,4-11.6-2.7C712.2,761.3,723.3,765.6,723,772.2z M720.8,771.9c-0.8-2.7-7.2-7.5-7-2
				C713.8,773.3,719.7,776,720.8,771.9z"/>
			<path d="M788.4,536.9c-7.3,0-6.3-11.5,0.3-11.4C795.9,525.6,795.8,536.9,788.4,536.9z M791.6,531.2c-1-3.2-5.6-4.3-5.6,0
				C786.1,535.4,791,534.8,791.6,531.2z"/>
			<path d="M778,602.9c-6.4,0-5.3-10,0.2-11C785,590.7,786.1,603.3,778,602.9z M778.6,594.5c-3.1,1-3,6.7,0.8,5.7
				C782.8,599.2,781.2,595.2,778.6,594.5z"/>
			<path d="M698.5,578.1c0.3,7.6-11.1,7.5-10.5,0.5C688.6,572.7,697.9,572.5,698.5,578.1z M693.4,581.3c3.1,0,3.3-4.8-0.1-4.9
				C689.8,576.3,689.9,581.3,693.4,581.3z"/>
			<path d="M656.5,446.9c6.4,0.3,7.8,11.5,0,10.3C650.6,456.2,649.1,446.7,656.5,446.9z M657.8,454.5c3.5,0,0.6-4.7-1.3-5
				C652.3,448.8,654.4,454.7,657.8,454.5z"/>
			<path d="M583,458.3c7.2,2.3,5.3,15.3-3.1,11.5C573.4,466.9,574.6,456,583,458.3z M582,467.3c4,1.1,2-5.9-0.6-6.4
				C577.4,460,578.7,466.6,582,467.3z"/>
			<path d="M573.7,694.5c-2.5-1-6.3,1.8-7.9-1.3c-0.7-1.3-0.1-3.5,1.1-4.4c1.6-1.2,2.5,0.1,4.1-0.2c2.4-0.4,4.9-3.6,7-0.1
				C579.7,691.5,576.5,694.3,573.7,694.5z M574.6,692.1c1.4-0.2,2.3-2.8,0.4-3C573.5,689,573,692.5,574.6,692.1z M569,690.1
				c-1.6,0.1-1.7,2.3-0.1,2.6C570.6,693.1,570.8,690,569,690.1z"/>
			<path d="M775.1,613.3c-0.2-5.8,10.5-7.3,10.2-0.8C785.1,618.8,775.1,620.9,775.1,613.3z M782.6,612.4c-1.4-2.5-5.5-1.2-4.5,1.6
				C779.2,617.1,782.1,614.2,782.6,612.4z"/>
			<path d="M733.2,461.4c-6.4,0.1-8.5-9.6-1.6-10.1C736.8,450.8,740.4,461.4,733.2,461.4z M734.9,457.8c-0.2-1.8-3.4-6.1-4.8-2.5
				C729.2,457.8,733.4,460.4,734.9,457.8z"/>
			<path d="M762.3,457.4c0.2,6.8-9.4,7.1-9.6,0.3C752.6,451.6,761.8,451.4,762.3,457.4z M756.3,455.3c-1.8,1.4-1.3,4.8,1.4,4.8
				C761.6,460,759.9,455,756.3,455.3z"/>
			<path d="M723.2,487.3c-6.9-0.7-4.1-10.2,1.4-10.3c3.8-0.1,5.4,3.4,4.3,6.8C727.9,486.6,726,487.3,723.2,487.3z M723.7,484.6
				c3.3-0.2,4.3-5.5,0.8-5.2C721.8,479.7,720.7,483.9,723.7,484.6z"/>
			<path d="M579.7,542.7c5.9,1.2,6,10.2-0.7,9.1C573.1,550.7,573.8,542.7,579.7,542.7z M581.5,547.8c-0.1-2.2-4-3.3-3.9-0.7
				C577.7,549.1,581.5,550.2,581.5,547.8z"/>
			<path d="M703.6,798.5c-6.6,0.4-4.9-10.2,0.8-10C711,788.6,710,798.6,703.6,798.5z M706.7,793.3c-0.6-3-4.7-3.1-5.2,0.1
				C700.8,797.3,706.8,797,706.7,793.3z"/>
			<path d="M540.2,496.1c-0.2-6.5,9.7-2.9,9.4,2.4C549,505.9,540.2,501.8,540.2,496.1z M547,498.4c-0.5-1.9-3.8-4.6-4.1-1.2
				C542.7,500.2,547.5,500.6,547,498.4z"/>
			<path d="M792,710.3c5.5,0,8.9,10.1,2.6,10C789.8,720.2,785.5,711.3,792,710.3z M796,716.6c-0.2-2.1-4.3-5.8-5.1-2.5
				C790.4,716,795.7,719.7,796,716.6z"/>
			<path d="M563.9,526.8c0.7,1.8,1,4.6-0.9,6.7c-2.4,2.6-5.6,2.4-6.9-1c-0.9-2.4,0-7.1,3-7.8C560.9,524.2,563,525,563.9,526.8z
				 M558.3,530.3c0.5,3.2,3.9,2.1,3.7-0.5C561.8,526.7,558.6,527.7,558.3,530.3z"/>
			<path d="M754,733.3c7.1,0.1,5.9,11.5-0.4,9.4C749.7,741.4,748.6,732.4,754,733.3z M756.5,738.3c0-1.7-3.2-3.6-3.8-1.3
				C752.2,739.1,756.1,741.7,756.5,738.3z"/>
			<path d="M814.5,691.4c-2,1.5,2.4,5.2-0.6,7.9c-2.6,2.4-5.9-0.1-7.4-2.6c-1.7-2.8-1.2-6.1,2.7-6.6
				C810.8,690,813.8,692.9,814.5,691.4z M811.6,697.7c2.4,0.2,0.2-6.3-2.8-4.4C807,694.5,809.8,697.7,811.6,697.7z"/>
			<path d="M628.9,477.1c7.4-0.4,5.3,11-1.4,10.4C620.1,486.9,623.5,478.2,628.9,477.1z M628,485.1c2-0.4,5.5-4.5,1.9-5.5
				C626.9,478.7,624,483.7,628,485.1z"/>
			<path d="M683.4,582.6c7.1-0.1,6.7,10.5,0.3,9.7C677.9,591.6,678.4,583.9,683.4,582.6z M683.7,585.1c-2.7,0-1.5,5.1,0.8,4.6
				C687.1,589.1,686.2,585,683.7,585.1z"/>
			<path d="M674,835.7c-5,0.4-7.8-12-1.1-9.8C677.1,827.2,680.1,835.4,674,835.7z M675.2,832.5c-0.1-1.7-2.6-6-4-3.5
				C670.4,830.5,673.9,835,675.2,832.5z"/>
			<path d="M748.3,516.2c5.2,0.4,8,9.2,1.3,8.8C744.3,524.7,741.9,516.8,748.3,516.2z M747.9,518.2c-2.6,0.1,0.4,5.3,2.3,4.1
				C752.3,521.1,749.4,518.4,747.9,518.2z"/>
			<path d="M842.2,678.8c0.1,5.5-8.7,5.3-9.6,0.4C831.5,673,842.2,672.7,842.2,678.8z M837.4,676.6c-2.8-0.3-2.7,3.9,0.1,3.7
				C839.8,680.2,839.8,676.9,837.4,676.6z"/>
			<path d="M795.2,485.7c-0.2,6-10.5,3.7-9.6-1.9C786.6,478.1,795.4,480.1,795.2,485.7z M792.6,485.8c0.2-2.7-4.2-4.8-4.2-1.5
				C788.4,486.2,792.4,488.2,792.6,485.8z"/>
			<path d="M690.7,447.2c-5.5-0.7-5.3-9.1,0.6-8.5C697.9,439.4,697.4,447.5,690.7,447.2z M694.1,442.8c-0.3-1.8-4.3-2.7-4.9-0.6
				C688.3,445.2,693.2,445.3,694.1,442.8z"/>
			<path d="M676.7,485.9c-6.9-0.8-5.6-10.4,0.9-9.1c2.3,0.5,3.7,1.9,4,4C682.1,484.4,679.7,485.4,676.7,485.9z M679.4,481.1
				c-0.5-2.5-4-2.8-4.7-0.2C673.8,484.4,679.6,484.5,679.4,481.1z"/>
			<path d="M760.8,756.4c-5.4,0.4-9.3-9.6-1.5-8.5c2.5,0.4,5.2,1.4,5.4,4.3C764.8,754.7,763.2,756.4,760.8,756.4z M760.6,753.7
				c3.8-0.1-0.6-4.7-2.5-3.8C755.8,751.1,759.4,753.3,760.6,753.7z"/>
			<path d="M541.8,714.4c2.1,0.5,5,1.5,4.6,4.1c-0.3,2.3-4.2,4.1-6.2,4.1C533.4,722.4,535.5,714.3,541.8,714.4z M540.1,720.2
				c2-0.1,5.3-2.4,2-3.4C539.6,716.1,536.6,719.9,540.1,720.2z"/>
			<path d="M656.6,831.8c0.1-7.7,8.8-1.5,8.7,3.6c-0.1,2.9-2.7,4.6-5.5,3.4C657.4,837.7,656.6,834.3,656.6,831.8z M663,835.6
				c0.1-1.4-2.6-6.7-4.1-4.2C657.8,833.1,661.1,838.3,663,835.6z"/>
			<path d="M682.2,455.3c-0.8,6-9,7.3-9.4,0.6C672.4,449.9,680.8,450,682.2,455.3z M679.5,455.1c-1.1-2.4-5-1.2-4,1.3
				C676.6,459.4,679.2,457.1,679.5,455.1z"/>
			<path d="M606.8,472.5c-0.9,6.8-12,3.6-9.6-2.8C599.5,463.8,606.6,467.6,606.8,472.5z M599.5,471.5c-0.3,3,4.3,3.9,5.2,1.1
				C605.6,469.6,599.7,468,599.5,471.5z"/>
			<path d="M718.9,441.5c0.2,5.2-8.7,5.5-8.6,0C710.4,435.4,718.6,435,718.9,441.5z M715.3,439c-1.8,0.3-3.4,3.6-0.8,3.7
				C716.4,442.7,717,439.6,715.3,439z"/>
			<path d="M671.9,548.3c-6.5,0-6.2-10.4,0.5-9.2C678.2,540.2,677.8,547.8,671.9,548.3z M672,541.3c-2.9-0.4-3,3.9,0,4.2
				C675.3,545.9,675.1,542,672,541.3z"/>
			<path d="M682.3,827.2c-4.6,0.1-8-9-1.4-9.3C686,817.8,688.4,827.4,682.3,827.2z M683.6,823.8c0-1.5-2.1-5.2-3.9-3.3
				C677.8,822.5,683.2,826,683.6,823.8z"/>
			<path d="M814.2,648.4c5.9,1.1,4.7,9.9-1.2,9.1c-2.6-0.3-4.4-3.1-3.7-5.7C809.9,649.4,811.9,648.8,814.2,648.4z M815.7,652.6
				c-0.9-2.4-4.4-2.1-4,0.7C812.1,655.8,815.8,655.2,815.7,652.6z"/>
			<path d="M535.1,683.3c6.5-0.2,2.4,10.4-3.7,8c-1.8-0.7-3-2.8-2.3-4.8C530,684.3,533,683.8,535.1,683.3z M536.3,686.2
				c-1.3-1.1-5.2,0.2-4.4,2.3C532.9,690.8,536.2,687.5,536.3,686.2z"/>
			<path d="M544.1,774.7c-0.6,5.8-9.6,0.6-9.3-3.4C535.2,765.5,543.9,770.2,544.1,774.7z M538.6,771.3c-1.5,0.1,0.9,3.7,2.3,3.5
				C543.5,774.4,540.3,771.2,538.6,771.3z"/>
			<path d="M537,706.1c-5.3-0.5-3.2-7.1,1.3-7.6C546.4,697.5,543.4,706.5,537,706.1z M540.2,700.6c-1.7,0-5.5,1.9-2.4,3.2
				C539.4,704.5,542.1,702,540.2,700.6z"/>
			<path d="M738.5,740.9c-5.2,0.4-6.7-8.4-1.2-8.8C742.7,731.7,744.5,741,738.5,740.9z M736.1,736c0.2,1.8,2.8,4.2,3.7,1.4
				C740.5,735.2,736.1,733.3,736.1,736z"/>
			<path d="M615.2,517.4c-5.4,0.1-6.8-8.2-1.1-8.5C619.4,508.5,620.8,517.5,615.2,517.4z M614.4,511.2c-2,1.1-1.3,4.4,1.2,3.4
				C618.2,513.6,615.6,511.8,614.4,511.2z"/>
			<path d="M693.5,815.2c-0.5,5.8-8.7,2-8-2.6C686.6,806.3,693.4,810.6,693.5,815.2z M691.4,815c0-2-3.5-5-3.6-1.7
				C687.8,815,690.4,817,691.4,815z"/>
			<path d="M541.3,751.5c-5.8-0.7-3.8-7.6,1.3-7.2C548.8,744.8,547.5,751.8,541.3,751.5z M541.6,749c1.3-0.1,4.4-0.9,1.6-2.1
				C541.7,746.3,539,748.3,541.6,749z"/>
			<path d="M755.1,510.2c-0.4,5.7-8.8,3.2-8.6-1.5C746.8,503.4,754.5,506.3,755.1,510.2z M752.3,510.6c-0.2-1-3.2-3.6-4-1.8
				C747.7,510.1,751.4,510.9,752.3,510.6z"/>
			<path d="M670.7,444.5c-5.6,0.1-6.3-7.8-0.5-8.2C675.3,436,676.3,444,670.7,444.5z M670.8,438.6c-1.8-0.5-3.2,3.1-0.5,3.3
				C672.7,442,672.4,439.6,670.8,438.6z"/>
			<path d="M577.1,478.2c0.1,5.9-8.8,3.9-8.6-1.6C568.7,471.3,577.1,473.8,577.1,478.2z M572.2,476.6c-0.6,0.7-0.2,2.9,1,2.9
				C575.4,479.6,574.4,476.3,572.2,476.6z"/>
			<path d="M734.5,746.7c-0.5,2.4-1,3.9-3.9,3.2c-1.8-0.5-4.7-3-4.5-5.1C726.5,739.5,734.4,742.2,734.5,746.7z M731.5,747.6
				c3-1.7-2.2-4.9-3-3.5C727.6,745.6,730.3,747.3,731.5,747.6z"/>
			<path d="M588.2,781.6c-6.1,0.4-6-7.5-0.2-7.2C593.2,774.7,593.2,782,588.2,781.6z M588.3,777c-2.7-0.2-2.7,3-0.2,2.1
				C589.4,778.7,590.1,777.4,588.3,777z"/>
			<path d="M615,463.8c0,5.2-7.3,4.7-7.8-0.1c-0.2-2,1.6-4.5,3.7-4.8C613.9,458.5,614.7,461.5,615,463.8z M611.5,461.6
				c-2,0.1-2.3,3.2-0.2,3.5C613.6,465.5,613.1,462.3,611.5,461.6z"/>
			<path d="M541.8,737.5c-5.7-1.1-4.6-7.3,0.9-6.8C548.4,731.3,546.3,736.7,541.8,737.5z M544.2,733.9c-0.6-1.3-4-1.8-3.7,0.2
				C540.8,735.9,543.5,734.8,544.2,733.9z"/>
			<path d="M702,805.1c-0.2,4.9-6.6,6.9-6.8,1.1c-0.1-1.8,0.7-4.6,2.8-4.9C699.5,801,702,803.4,702,805.1z M698.3,804
				c-1.4,0.5-2,3.3-0.1,3.4C700.2,807.5,700.4,803.9,698.3,804z"/>
			<path d="M617.9,506.6c-4.4-0.3-6.8-8.6-1.4-8.4C621.3,498.4,623.5,505.7,617.9,506.6z M617.8,504c2.5-0.4,0.1-4.4-1.5-3.3
				C615,501.7,616.5,504,617.8,504z"/>
			<path d="M568.7,490c-3.9,0.2-6.9-5.5-2.1-6.7C571,482.3,574,489.8,568.7,490z M567.4,485.9c-1.3,1.8,1.1,0.9,1.3,1.2
				C568.7,487,568.9,485.5,567.4,485.9z"/>
			<path d="M768.2,497.3c4-0.4,6.4,6.3,1.7,7.3C765.1,505.7,762.7,497.3,768.2,497.3z M767.4,500.1c0.1,0.5,1.9,3,2.2,1.5
				C770,500.2,768.5,499.3,767.4,500.1z"/>
			<path d="M756.8,492.6c4.7,0.3,5.2,7.2,0.4,6.9C753.3,499.3,751.8,491.6,756.8,492.6z M756.3,495.7c-0.2,2,2,0.1,1.5,0
				C757.8,495.8,756.5,494.3,756.3,495.7z"/>
			<path d="M878.6,579.6c0.2,5.3-8.2,4.4-8-0.6C871,573.7,878.5,575,878.6,579.6z M876.3,579.7c0-1.5-2.7-3-3.1-1
				C872.9,580.3,876.3,581.6,876.3,579.7z"/>
			<path d="M711.5,786.5c-4.3,0.1-4.9-7.6-0.4-7.9C715.9,778.2,717,786.4,711.5,786.5z M712,784.3c2.3,0.2,0.9-3.9-0.7-3.6
				C709,781.1,710.6,783.8,712,784.3z"/>
			<path d="M616.6,492c0-5,7.2-4.7,6.7,0.4C622.7,497,617.2,496.1,616.6,492z M621,491.7c-0.2-2-1.8,0.6-1.6,0.5
				C619.5,492.2,621.2,493.8,621,491.7z"/>
			<path d="M542.7,758.3c0,4-6.1,4-6,0C536.8,754.5,542.8,754.2,542.7,758.3z M539.7,758.8C541.8,759.2,538.6,756.3,539.7,758.8z"/>
			<path d="M643.7,508.3c0.4,3.7-5,4.4-5.6,0.8C637.6,505.7,643.3,505,643.7,508.3z"/>
			<path d="M639.5,831.9c-0.2,2.2-4,2.2-3.7-0.2C636.1,829.7,639.7,829.3,639.5,831.9z"/>
			<path d="M576.2,788.1c-1.2-0.2,0-1.3,0-1.6C576.1,787,577.8,787.1,576.2,788.1z"/>
			<path d="M643.7,508.3c0.4,3.7-5,4.4-5.6,0.8C637.6,505.7,643.3,505,643.7,508.3z"/>
			<path d="M639.5,831.9c-0.2,2.2-4,2.2-3.7-0.2C636.1,829.7,639.7,829.3,639.5,831.9z"/>
			<path d="M576.2,788.1c-1.2-0.2,0-1.3,0-1.6C576.1,787,577.8,787.1,576.2,788.1z"/>
		</g>
	</g>
</g>
</svg>
