<?xml version="1.0" encoding="utf-8"?>
<!-- Generator: Adobe Illustrator 26.3.1, SVG Export Plug-In . SVG Version: 6.00 Build 0)  -->
<svg version="1.1" id="Layer_1" xmlns="http://www.w3.org/2000/svg" xmlns:xlink="http://www.w3.org/1999/xlink" x="0px" y="0px"
	 viewBox="0 0 905.7 1000" style="enable-background:new 0 0 905.7 1000;" xml:space="preserve">
<style type="text/css">
	.st0{fill:#FFFF00;}
</style>
<g>
	
		<image style="overflow:visible;opacity:0.9;enable-background:new    ;" width="413" height="434" xlink:href="B9312BEB.png"  transform="matrix(1 0 0 1 487.8121 421.0369)">
	</image>
	<g>
		<g>
			<path class="st0" d="M612.1,687c-4.2-0.8-1.9,2.1-4,4.9c-2.2,3-5.4,2.9-8.2,1.1c-4.5-2.8-2.2-0.8-4,3c-1.4,2.8-5.2,3.7-8,2.6
				c-7.2-2.9-6.6-14.4,2.1-13.5c2.2,0.2,5.7,3.5,7.1,2.6c0.6-0.3,0.9-3,1.5-3.8c1.5-2,3.2-2.3,5.5-2.4c2.9-0.1,1.2,1.8,2.4-0.3
				c0.5-0.8-0.1-3,0.5-4.2c1.9-4,4.5-3.4,7.9-2.7c5.1,1.1,1.5-2.5,2.6-5.8s5.2-5.2,8.5-4.2c6.7,2,5.4,13.7-1.8,13.6
				c-1.4,0-3.1-2.1-4.3-1.4c-1.2,0.6-0.2,2.3-0.3,3.2C619.1,683.7,615.8,686.5,612.1,687z M624.2,675.7c5-1.2,5-9.1-0.5-9.4
				C616.8,665.9,619.5,674.3,624.2,675.7z M593.8,693.5c0.2-7.3-9.7-7.3-8.3-1.1C586.7,697.3,593.8,697.3,593.8,693.5z M617,679.7
				c0.1-4.5-8.8-5.2-8,0.6C609.7,686.1,615.9,684.4,617,679.7z M603.5,692c5.5-1.1,3-9-1.3-8.2C597.4,684.7,600.1,691.2,603.5,692z
				 M618.2,675.3c0.1,0.2,0.2,0.4,0.3,0.6C618.9,675.6,618.8,674.8,618.2,675.3z"/>
			<path class="st0" d="M687.5,531.7c0.7,1.6,0.9,5.1,1.9,5.9c0.2,0.1,3.2-0.5,3.5-0.5c1.4,0.3,2.8,1.7,3.5,2.8
				c2.9,4.3-0.1,10.3-5.6,9.2c-3.4-0.6-4.8-4-4.7-7.2c0.1-3,1.1-1.4-0.5-2.8c-1.2-1-2.7,0.1-4-1.7c-1.6-2.2,0.6-4-0.1-5.9
				c-0.9-2.6-3.9-2.6-3.5-6.3c0.4-3.2,2.9-3.6,5-5.3c2.6-2,0.1-1.1-1.8-3.3c-3.7-4.3,2.3-10.5,6.7-6.9c1.8,1.5,2.6,4.6,1.3,6.6
				c-1.4,2.2-3.9,1.6-1.8,3.5c1.3,1.2,2.2,0.3,3.2,2.2c0.8,1.3,0.8,3,0.3,4.4C690.5,528.5,688.9,530.1,687.5,531.7z M685.8,522.1
				c-4.9-0.4-6.8,6.6-1.6,7.1C688.4,529.7,690.8,523.1,685.8,522.1z M695.1,543.1c-0.8-3.8-5.5-5.4-6.3-0.6
				C688.1,547.1,695.4,547.8,695.1,543.1z M687.5,513.3c-0.8-2-3.9-3.5-4.5-0.4C682.3,516.1,687.8,516.8,687.5,513.3z M686.4,534.6
				c-0.8-0.9-3.8-1.6-3.2,0.5C683.7,537.2,686.4,536.6,686.4,534.6z"/>
			<path class="st0" d="M565.8,577.2c-0.6-2.5,0.1-5.2,2.2-6.9c1-0.8,4.7-1.3,4.8-2.3c0-0.6-1.5-1.7-1.8-2.3
				c-0.9-1.5-1.1-2.6-0.9-4.3c0.3-2.2,1.3-3.8,3.2-4.9c4.3-2.4,11.5,0.6,11.7,5.9c0.1,2.2-1.2,4.6-2.9,5.8c-1.3,0.9-4.4,0.8-4.8,1.9
				c-0.2,0.6,1.9,3,2,3.7c0.2,1.3-0.1,2.2-0.7,3.3c-1.1,2.1-3.2,3.5-5.5,3.9c-3.8,0.8-3.5-0.8-4.2,3.1c-0.4,2.3-1.1,4.7-3.4,5.7
				c-4.1,1.8-10.3-2.1-9.2-6.8c0.5-2.2,2.4-3.8,4.5-4.5C562.4,578.1,566.3,579.7,565.8,577.2z M577.5,566.7c6.1,0,6.1-7.7,0.2-8.5
				C571.2,557.3,571.6,566.9,577.5,566.7z M571.6,578.7c5.6,0.1,7.2-7.8,0.6-7.5C567.2,571.3,566.4,578,571.6,578.7z M566.5,584.5
				c-0.3-5.6-8.8-5.1-8.3-0.1C558.8,589.5,565.4,589,566.5,584.5z"/>
			<path class="st0" d="M658.2,622.3c0.2,2.3-1.5,4.5-3.3,5.8c-0.8,0.6-1.6,1.1-2.6,1.4c-0.9,0.2-3-0.6-3.6-0.3
				c-2,0.8-1.3,3.4-2.3,5.2c-1,1.7-2.9,3.1-4.9,3.3c-5,0.7-8.5-4.7-6.8-9.2c1.1-2.8,2.8-3.3,5.4-3.8c3.2-0.6,3.2,0,4.2-2.6
				c1.4-4,2.2-7.4,7.5-7c0.6,0,2,0.6,2.6,0.5c1.9-0.3,0.9,0.1,1.7-1.3c1.1-2.1,0.3-4,3.1-4.8c5.1-1.6,8.8,4.5,5.5,8.4
				C661.8,621.5,657.7,616.5,658.2,622.3z M650.3,617.2c-4.6,1.6-4,9.2,1,9.5C657.3,627,656.2,617.6,650.3,617.2z M645,629.8
				c-0.6-2.2-0.9-3.1-3.4-3c-2.3,0.1-4.3,1.5-4.4,3.8c-0.1,2.3,1.6,4.4,3.9,4.2C644,634.8,644.5,632,645,629.8z M663.3,614.7
				c-0.4-2.5-4.4-4.6-4.5-0.9C658.7,616.8,662.1,617.4,663.3,614.7z"/>
			<path class="st0" d="M614.3,809.1c4.3-0.6,8.4,3.4,6.2,7.9c-1,2.1-4,3.1-6.1,2.1c-3.7-1.8-1.8-5.2-2.4-8.1
				c-0.7-3.3-3,0.1-5.7-0.1c-2.5-0.2-4.4-2.4-5.1-4.7c-0.6-2.1,1.8-6.4,1.2-7.5c-0.8-1.5-4.6,1.2-6.4,0.9c-5-0.9-7.3-7.9-4.4-11.8
				c3.4-4.5,10-1.6,11.5,3c0.7,2-1.2,5.5-0.5,6.8c0.9,1.6,4.9-0.2,6.8,0.8c2.6,1.3,3.2,4.2,3,6.8C612.5,807.6,611,810,614.3,809.1z
				 M601.5,793.1c-0.6-5.3-8.5-7.2-8.7-0.9C592.7,798.2,599.6,797.9,601.5,793.1z M603.5,805.1c1.5,4.7,7.4,3.5,6.9-1.6
				C610,798.8,603.3,800.5,603.5,805.1z M618.8,814.5c-0.1-3.3-4.2-4.8-4.8-1C613.5,816.9,618.7,818.6,618.8,814.5z"/>
			<path class="st0" d="M661.1,661c-1.4-3.3-5.6-3.5-4.9-8.3c0.5-3.5,3.5-5.8,7-6.1s6,2,7.2,5.2c1.7,4.4-1.1,6.4-4,9.2
				c2.3,2.3,5.7,4.4,5,8.1c-0.7,3.7-4.5,5.2-7.9,5.3c-3.7,0.1-7.2-1.8-7.8-5.7C655,664.6,657.9,662.7,661.1,661z M668.2,654.5
				c-1-5.4-9.7-7.2-9.3-0.7C659.2,659.2,667.1,659.7,668.2,654.5z M663.5,671.8c2-0.6,5.5-1,5-3.9c-0.3-1.6-3.2-4.2-4.7-4.5
				c-2-0.3-4.9,1.5-5.3,3.5C658,670.2,661.1,671.2,663.5,671.8z"/>
			<path class="st0" d="M617.2,468.2c3.3,0.7,2.1-0.5,3.3-3c1.1-2.5,3.7-3.5,6.2-2c1.9,1.1,2.9,4.2,1.8,6.4
				c-1.7,3.2-6.2,0.7-6.8,1.5c-0.3,0.5,1.5,3.8,1,5.1c-0.7,2.3-2.8,3.1-4.8,4c-2.5,1.2-1.1-0.4-1.9,1.9c-0.7,2.1,0,3-2,4.5
				c-0.8,0.6-2.1,0.4-2.8,1.1c-0.6,0.5-0.4,1.6-0.8,2.2c-1.2,1.7-2.5,2.6-4.7,1.7c-3.7-1.7-3.7-7.7,1-7c0.7,0.1,3.3,2,3.2,0.1
				c-0.1-1.5-2.7-1.3-3.7-2.2c-3.4-3,1-7.9,4.5-4.6c0.3,0.3,1.8,3.7,2.6,1.9c0.3-0.7-1.4-2.5-1.7-3.4
				C610.2,472.4,612.6,468.2,617.2,468.2z M616.7,477.7c4-0.1,4.4-6,0.8-6.9C613.3,469.6,612.3,476.7,616.7,477.7z M626.3,467.5
				c-0.3-2.1-2.7-4.1-3.5-1C622,469,626.3,470.6,626.3,467.5z M608.7,488.5c-0.3-1.1-3.7-2.9-3.2-0.4
				C605.8,489.5,608.7,490.4,608.7,488.5z M608.3,479.1c-2.2,0,0,1.9,0,1.9C608.3,481.1,610.5,479.1,608.3,479.1z"/>
			<path class="st0" d="M577,633.5c-0.4-8.5,8.9-7.2,14-7.8c5.8-0.7,12.1,2.6,10.1,9.6c-0.8,2.6-2.9,5.2-5.4,6.2
				c-3.1,1.2-4.8-0.6-7.7-0.8c-2.6-0.2-5.1,1.8-7.7,0.1C578.1,639.5,576.9,635.8,577,633.5z M579.6,633.5c0.1,3,1.4,5.2,4.3,5.5
				c1.9,0.2,3.7-0.8,5.7-0.5c1.4,0.2,2,1.1,3.7,1c7.2-0.5,7.6-12.5-0.6-11.7c-4.6,0.5-3.3,1.4-2.5,4.2c0.6,2.3,0.3,4.9-1.5,2
				c-1.6-2.6,0.4-4.2-2.6-5.4C582.6,627.2,580.4,630.5,579.6,633.5z"/>
			<path class="st0" d="M735.3,505.3c-0.7,8.7-12,4.6-10.1-2.6c1.5-5.7,4.6-2.5,7.8-1.6c1.8,0.5,1.1,1.3,2-0.2
				c0.6-0.9,0.1-3.5,0.8-4.9c3.6-6.8,15-4,12,3.7c-1.2,3.2-4.4,5.3-7.7,4.7c-0.8-0.1-4-2.2-4.6-1.7C735,503,735.1,505.3,735.3,505.3
				z M745.7,498c-0.8-5.1-8.8-4.1-8.2,1C738,504,744.6,501.5,745.7,498z M728.7,502c-2.5-0.2-0.6,5.4,2,5.6
				C735.1,507.8,731.6,502.4,728.7,502z"/>
			<path class="st0" d="M562.9,526.1c-2.5-1.8-1.9-5.5,0.6-7.5c2.2-1.7,5.9-1.2,8.2,0c2.2,1.2,3.7,3.5,3.9,6
				c0.1,1.3-0.1,2.5-0.8,3.6c-0.6,1-2.5,1.6-2.9,2.6c-0.7,1.9,1.2,4,0.2,6.3c-1.3,3-4.6,3.2-7,1.2c-2.8-2.4-1.3-4.2-0.5-7
				C565.1,529.8,565.8,528.1,562.9,526.1z M571.2,528.2c3.9,0-0.3-11.6-5.8-7.5C560.7,524.2,568.1,528.3,571.2,528.2z M570.4,534.8
				c-0.6-3.1-4.9-3.8-4.8-0.2C565.7,537.7,570.4,538.3,570.4,534.8z"/>
			<path class="st0" d="M549.4,530.8c-0.7,3.2-1.5,6.5-5.6,5.8c-1.1-0.2-2.9-2.3-3.6-2.3c-1.4,0-0.5,0.3-1.6,1.2
				c-1.9,1.8-3.4,4.1-6.7,3.4c-3.2-0.7-3.6-3.7-2.8-6.4c0.8-2.7,2.5-4.7,5.5-4.3c2.6,0.3,3.2,2.8,5,0.9c2-1.9,1.5-5.2,5.6-4.4
				C548.4,525.3,549.5,528,549.4,530.8z M546.8,530.8c0.2-4.4-5-3.8-4.3,0.4C543.1,535.3,546,533.9,546.8,530.8z M533.4,536.2
				c2.8-0.6,5.1-5.5,1-5.5C531.6,530.7,530.1,536.3,533.4,536.2z"/>
			<path class="st0" d="M823.8,545c-0.2-5.2,3.7-7.8,8.6-6.9c2.8,0.5,4.6,2.3,7.1,3.2c2,0.8,3.1,0.2,4,2.8c0.9,2.4,0,5-1.9,6.7
				c-2.6,2.4-4.5,1.8-7.3,0.5c-2.5-1.2-4.2,0.3-6.8-0.6C825.1,549.9,824,547.6,823.8,545z M835.2,541.5c-3.5-1.5-11.6-1.3-8.7,5
				c0.8,1.7,3.6,3.1,5.4,1.7c0.8-0.7,0.5-2.2,0.9-3.1C833.4,543.7,834.4,542.7,835.2,541.5z M838.5,543.5c-3.1,0.7-5.4,5.7-0.9,6.2
				C841.5,550.3,843.1,543.4,838.5,543.5z"/>
			<path class="st0" d="M688.3,502.6c0-7.2,7.4-3.7,10.7-5.2c1.9-0.9,2.1-2.9,4.9-2c2.6,0.8,4.6,3.9,3.9,6.5c-0.8,3-2.5,2.2-4.9,2.5
				c-2.9,0.3-1.2,0.8-3.3,3.2C696.4,511.3,688,507.4,688.3,502.6z M698.2,505.1c0-3.2-5.2-8.3-7-3.5
				C690,505,697.9,508.6,698.2,505.1z M705.4,500.7c-0.1-1.3-2.5-4.6-3.7-2.3C700.5,500.7,705.3,503.2,705.4,500.7z"/>
			<path class="st0" d="M811.4,691.4c1.2-1.7-2.7-4.2-1.9-6.6c1.1-3.6,4.5-1.3,6.4-2.3c1.5-0.7-0.3-4.2,1.2-5.8
				c2.1-2.3,5.8-1.2,7.7,0.6c1.7,1.7,2.7,5.1,0.8,7.2c-1.9,2-4.7-0.2-6.2,1.2c-1.4,1.2,0.9,3.9-1.6,5.6
				C815.5,692.8,812.8,690.3,811.4,691.4z M819.8,678.5c-3.4,0.8,0.4,5.3,2.6,4.6C826,682,822.1,678.5,819.8,678.5z M816.8,688.6
				c0.5-1.6-3.6-5.5-4.5-3.1C811.6,687.3,815.6,690.9,816.8,688.6z"/>
			<path class="st0" d="M668.7,504.8c-3.8,0-7.3-1.1-7.7-5.5c-0.4-4.8,5.2-7.5,9.2-8.2c4.2-0.7,8.6,1.9,9.4,6.5
				C680.7,503.4,673.2,505.4,668.7,504.8z M668.4,502.4c2.2,0,7.2-0.3,8.3-2.7c1.5-3.4-2.4-6.6-5.3-6.4
				C665.6,493.7,659.9,501.4,668.4,502.4z"/>
			<path class="st0" d="M799.9,505.7c4,0.6,9,1,9.2,6.2c0.2,4.4-3.9,8.2-8,8.7C791.6,521.9,789.5,506.2,799.9,505.7z M800.2,518.3
				c8.3,0.7,7.9-11.8-1.2-10C793.5,509.4,794.7,518.3,800.2,518.3z"/>
			<path class="st0" d="M742.5,631.1c10.1,0,10,15,0.6,13.5c-3.3-0.5-7.2-3.2-7.8-6.6C734.7,633.5,738,629.8,742.5,631.1z
				 M742.5,633.1c-6.5-0.1-4.7,7.7,0.8,8.4C749.6,642.4,747.8,633.4,742.5,633.1z"/>
			<path class="st0" d="M731.3,512.7c4.1,0.2,6.5,2,7.7,6.1c1,3.6,0.2,8.4-4.4,8.8c-3.6,0.3-9.4-3.5-10.6-6.8
				C722.4,516.2,727.3,512.7,731.3,512.7z M737,521.7c-0.6-4.2-6.1-10.6-9.9-4.6C724.3,521.6,735.3,528.8,737,521.7z"/>
			<path class="st0" d="M762.2,530.9c0.6-4.3-6.4-7.7-1.1-12.1c3.4-2.9,8.8-0.1,9.1,4.2c0.1,1.9-0.8,3-0.3,4.8
				c0.6,2.1,2.1,3.2,0.8,5.6C768.2,537.8,762.2,535.5,762.2,530.9z M763.9,526.2c3.8,0,5.1-5.2,0.8-5.8
				C760.3,519.7,761.1,524.7,763.9,526.2z M766.5,529.3c-3.2,0-2.2,4.7,0.7,4C770.1,532.5,768.7,529.6,766.5,529.3z"/>
			<path class="st0" d="M785,494.5c9.8-0.7,9.9,14.2,0.4,14.4C776.4,509,777,495.6,785,494.5z M785,497c-4.6,0-5.1,10.4,1.4,9
				C791.8,504.8,790.3,497,785,497z"/>
			<path class="st0" d="M762.8,479.4c-0.9-9.6,15-9.2,13.8,1.1C775.6,490,762.8,488.5,762.8,479.4z M774,479.9
				c0.7-5.9-8-6.8-8.4-0.6C765.1,485.1,774.4,486.3,774,479.9z"/>
			<path class="st0" d="M709.4,622.1c3.1-0.4,8.5,2.8,9.2,6.1c0.9,4.3-3.6,7.2-7.2,7.1c-3.7-0.1-8.2-2.2-8.7-6.2
				C702.2,625.4,705.6,621.5,709.4,622.1z M709.6,624.8c-7.6,0.1-2.6,10.1,3.6,7.9C719.6,630.5,713.4,625.3,709.6,624.8z"/>
			<path class="st0" d="M594.2,493.5c1.5,8.7-15.7-0.1-13.6-7.5c1.3-4.8,6.2-4.4,9.3-2C593.3,486.6,594.2,489.2,594.2,493.5z
				 M591.9,493.6c-0.1-2.7-0.4-4.5-2.3-6.5c-1.5-1.6-4.8-3.9-6.1-0.6C582.1,490,591.3,497.1,591.9,493.6z"/>
			<path class="st0" d="M664.3,470.1c-1.3,7.7-12.5,10.6-14.3,1.4C648.3,463,664.7,459.8,664.3,470.1z M661.7,468.9
				c0.2-5.5-9.1-2.5-8.8,1.7c0.1,2.4,2.5,4.2,4.7,4C660.7,474.3,661.2,471.5,661.7,468.9z"/>
			<path class="st0" d="M710.8,619.1c-3.3-0.3-6.4-4.6-2.8-7c1.4-1,3.2,0.1,4.5-0.7c1.9-1.2,0.8-3.1,3.7-3.6
				c4.3-0.8,7.8,4.4,4.5,7.8c-1.4,1.5-3.2,1-4.9,1.8C713.7,618.4,713.5,619.1,710.8,619.1z M719.4,612.7c0-1.7-2.4-3.8-3.6-1.9
				C714.7,612.6,718.1,615.5,719.4,612.7z M711.1,613.8c-3.6,0.6-0.9,4.2,1.4,3.1C715.6,615.5,713,614.1,711.1,613.8z"/>
			<path class="st0" d="M817.9,494.7c10.3-1.2,9.9,15.1,0,14.2C809.6,508.1,809,494.7,817.9,494.7z M813.7,501.2
				c0.1,7,10.5,6.2,9.8,0c-0.2-2.1-2.9-3.7-4.8-3.9C815.6,496.9,814.5,498.5,813.7,501.2z"/>
			<path class="st0" d="M623.8,528.5c0-9.3,13.4-7.6,14.3,0.6C639.1,538.7,623.8,537.6,623.8,528.5z M630.3,524.6
				c-6.3-0.3-3.7,10.2,2.2,9C638.4,532.4,634.9,524.9,630.3,524.6z"/>
			<path class="st0" d="M579,513.3c-0.6-8.7,13.8-7.4,13.8,1.3C592.7,524.2,578.5,522.8,579,513.3z M581.6,513.4
				c-0.1,5,6.1,7.6,8.3,2.4C592.6,509.6,581.5,507.8,581.6,513.4z"/>
			<path class="st0" d="M792.8,634.6c7.4-0.1,14.1,15.2,4.4,14.5C790.3,648.5,782.9,634.9,792.8,634.6z M793.1,636.8
				c-5.7-0.1,0.3,9.4,4.3,9.5C803.6,646.5,796.4,637.5,793.1,636.8z"/>
			<path class="st0" d="M703.3,461.1c-3.5,0.2-8-2.5-9.2-5.9c-1.5-4.3,3.1-8.4,7.1-8.3C708.1,446.9,711.2,460.3,703.3,461.1z
				 M705.6,456.3c-0.1-4.1-4.1-10.1-8-5.1C693.2,456.5,705.7,461.1,705.6,456.3z"/>
			<path class="st0" d="M850.6,715c8.7,0.5,9.8,13,0.7,13.3c-4.2,0.2-7.4-2.2-7.6-6.6C843.5,717.2,846.6,715.6,850.6,715z
				 M851,725.9c6.3,0,4.8-9.7-1-8.6C844.9,718.3,845.9,726.2,851,725.9z"/>
			<path class="st0" d="M566.5,504.1c1,7.3-12.5,8-12.7-0.2c-0.1-4.3,2.4-7.2,6.9-7.2C565.4,496.8,566.5,500.1,566.5,504.1z
				 M556.4,504.4c0.5,5.1,8.5,3.5,8-1.4C563.9,497.6,556.3,499.5,556.4,504.4z"/>
			<path class="st0" d="M752.1,531.7c-0.4,3.1,1.6,7.4-0.7,10c-2.6,3-7.1,0.9-8-2.4c-0.6-2.2,0.9-2.9,1-4.7c0-1.9-1.8-3.2-0.5-5.3
				c1-1.6,3.5-2.3,5.2-1.8C751.3,528.1,751.5,529.5,752.1,531.7z M750.2,538.3c-0.1-3-4.5-4-4.7-0.6
				C745.4,540.9,749.9,541.9,750.2,538.3z M749.5,531.3c0-1.9-3.5-1.6-3,0C746.8,532.3,749.6,533,749.5,531.3z"/>
			<path class="st0" d="M792.2,552.1c-0.5-9.8,13.7-6.8,13.3,0.6C805,561.9,790.8,560.6,792.2,552.1z M794.8,552
				c-0.2,5.8,8.7,5.6,8,0.4C802.3,548.5,794.7,546.3,794.8,552z"/>
			<path class="st0" d="M646.2,461c-0.1,8.4-13.3,8-13.6,0.1C632.1,452.4,646.3,451.5,646.2,461z M640.5,456.4
				c-4.7-0.3-7.4,6.2-2.4,8C644.4,466.5,644.9,456.4,640.5,456.4z"/>
			<path class="st0" d="M614.9,647c-9.8,0.4-8.1-13.6,1.3-13.2C626.6,634.2,624.3,647.6,614.9,647z M615.4,644.6
				c6,0.1,7.6-8.5,1.1-8.7C610.4,635.8,608.4,644.7,615.4,644.6z"/>
			<path class="st0" d="M710.3,603.9c-8.6,3.3-10.9-9.6-2.5-11.8C716.9,589.6,718.3,601.7,710.3,603.9z M710,601.7
				c5.1-1.7,4.1-9.5-1.5-7.8C703.3,595.4,703.7,603.8,710,601.7z"/>
			<path class="st0" d="M569.8,708.2c9.8,0.1,7,13.6-2,13.2C558.8,720.9,561.1,708.1,569.8,708.2z M567.6,718.8
				c5.4,0.1,9.5-7.2,2.4-8C564.6,710.2,562.4,718.9,567.6,718.8z"/>
			<path class="st0" d="M770.5,781.9c-0.3,8.4-11.6,10.3-13.3,1.6C755.1,773.3,770.8,773.1,770.5,781.9z M763.1,778.1
				c-5.5,0.3-4.2,8.1,0.6,8.5C769.7,787.1,768.8,777.8,763.1,778.1z"/>
			<path class="st0" d="M635.6,653.4c0.6,8.6-15.6,9-15.2,0.1C620.8,645.6,635.6,645.2,635.6,653.4z M628.4,649.7
				c-5.8-0.6-7.1,7.2-1.1,8C633.7,658.5,635.8,649,628.4,649.7z"/>
			<path class="st0" d="M606.2,626c-9.4,0.5-10-12.9-0.5-12.1c3.6,0.3,6.7,1.5,6.6,5.4C612.3,623,609.9,626,606.2,626z M605.1,616.3
				c-5.8,0.6-3.8,8.3,1.4,7.4c1.7-0.3,3.2-1.7,3.3-3.5C610.1,617.3,607.3,616.8,605.1,616.3z"/>
			<path class="st0" d="M876.7,587.6c3.6,0.6,6,1.1,7,5c1,3.7-0.2,7.5-4.1,8.5C870.3,603.5,866.7,587.2,876.7,587.6z M873.4,593.5
				c0.3,4.2,6.6,7.8,7.9,2.3C882.8,590,873.4,588,873.4,593.5z"/>
			<path class="st0" d="M694.8,471.4c7.8-0.3,7.9,17.4-1.8,12.9c-3-1.4-6.8-3.7-6.6-7.6C686.6,472.7,691.7,471.3,694.8,471.4z
				 M694.6,473.7c-6,0.1-6.5,5.4-1.5,7.9C699.6,484.9,699.8,473.6,694.6,473.7z"/>
			<path class="st0" d="M782.3,800c0.3,8.5-12.7,6.9-14-0.3C766.7,790,782,790.7,782.3,800z M780.2,799.9c0-4.7-8.9-7.4-9.8-2.1
				C769.5,803.4,780,806,780.2,799.9z"/>
			<path class="st0" d="M857.9,560.2c3.3-2,6.1-3.9,9.3-0.4c2.2,2.4,2.4,5.7,0.7,8.4c-2,3.1-4.9,3.9-8,1.8
				C855.9,567.5,856.6,564,857.9,560.2L857.9,560.2z M863,560.3c-4,1.2-4.2,8.7,0.5,8C867.6,567.7,867.1,560.8,863,560.3z"/>
			<path class="st0" d="M599.3,601.9c0.6-8,14-8.5,14.2-0.3C613.7,610,599.4,610.4,599.3,601.9z M606.8,597.8c-6-0.2-6,8.2-0.1,8
				C612.5,605.7,612.1,597,606.8,597.8z"/>
			<path class="st0" d="M789.5,572.8c-6.9,0.1-11.2-11.5-3.1-13.1C794.4,558.3,798.4,572.4,789.5,572.8z M787.3,562.2
				c-4.7,0.5-2,8.8,2.4,7.7C794.7,568.5,790.8,562.4,787.3,562.2z"/>
			<path class="st0" d="M665,641c-3.2-0.2-7.9-1.8-7.9-5.6c0-3.4,3.3-4.9,6.2-5.3C670.5,629.3,673.6,639.8,665,641z M663.8,633
				c-4.6,0.2-3.9,4.4,0.2,5C669,638.8,668,632.9,663.8,633z"/>
			<path class="st0" d="M729.9,619.3c8.2-0.7,9.8,12.9,0.8,12C723.4,630.5,722.1,618.5,729.9,619.3z M734.2,625.8
				c-0.3-3.6-6.9-6.1-7.1-1.2C726.9,628.3,734.4,630.3,734.2,625.8z"/>
			<path class="st0" d="M698.2,584c6.6-0.6,8.9,10.2,1.6,10.6C692.5,594.9,691,583.3,698.2,584z M701.9,589.7
				c-0.2-2.6-4.3-5.2-5.9-2.2C693.9,591.4,702.2,594.2,701.9,589.7z"/>
			<path class="st0" d="M679.2,598.7c0,7-8.7,12.4-12.5,4.4C662.6,594.5,679.2,593.3,679.2,598.7z M672.6,604
				c3.8,0.5,5.2-5.6,0.8-6.2C668.8,597.3,667.6,603.6,672.6,604z"/>
			<path class="st0" d="M680.4,684.3c-6.7,0.3-9.1-11.5-1.8-12.5C686.8,670.7,687.8,684.4,680.4,684.3z M678.5,674.8
				c-2.9,0.1-1.2,7.5,2.3,6.3C685.2,679.7,681.8,674.9,678.5,674.8z"/>
			<path class="st0" d="M786.5,582.7c0,8.7-12.8,8.1-12.3,0.3C774.7,575.4,787.1,573.7,786.5,582.7z M783.9,582.8
				c-0.5-5.1-6.5-5.2-7-0.2C776.5,586.8,783.9,587.8,783.9,582.8z"/>
			<path class="st0" d="M571.2,737.5c-7.4-0.7-8.1-11.5-0.3-12.3c4-0.4,7.1,2.5,7.5,6.4C579.1,736.4,575.3,737.1,571.2,737.5z
				 M572.5,727.8c-5.8,0-5.9,7.8,0,7.5C578.1,735,577.4,728.2,572.5,727.8z"/>
			<path class="st0" d="M756.3,772.7c-7.5,0.7-9.5-14.3,0.2-12.9c3.7,0.5,6.5,4,6.1,7.8C762.1,771.4,759.7,772.5,756.3,772.7z
				 M752.1,764.7c-0.2,4.6,6.7,8.5,8,2.8C761.3,762.2,752.1,760.5,752.1,764.7z"/>
			<path class="st0" d="M856.3,747.8c-7.5,0.7-9.5-14.3,0.2-12.9c3.7,0.5,6.5,4,6.1,7.8C862.1,746.5,859.7,747.6,856.3,747.8z
				 M852,739.8c-0.2,4.6,6.7,8.5,8,2.8C861.3,737.3,852.1,735.6,852,739.8z"/>
			<path class="st0" d="M769.1,462.4c0.1-7.8,13.1-7,12.6,1.2C781,472.2,767.9,471.1,769.1,462.4z M775.4,459.5
				c-1.6,0.4-3.3,0.6-3.9,2.3c-0.7,1.9,1.1,4.9,2.9,5.3C779.3,468,779.6,461.1,775.4,459.5z"/>
			<path class="st0" d="M876.1,623.2c-0.2,0.8-0.4,1.5-0.8,2.3c2,0.8,3.8,3,3.2,4.7c-0.7,1.9-3.4,2.1-4.8,1.2
				c-0.6-0.4-1-0.9-1.3-1.4c-0.7,0.7-1.5,1.4-2.3,2c1.2,1.5,3.1,2.3,5.5,2.8C882.8,633.2,882.7,625.6,876.1,623.2z"/>
			<path class="st0" d="M857.9,560.2c-1-1.8-2.9,0.3-4.4,0.6c-2,0.4-5.1-0.1-6.5-1.7c-2.7-3.1,0.6-6.7,3.3-8.4
				c2.8-1.7,8.1-2.5,9.4,1.6C860.5,554.8,855.7,559.3,857.9,560.2z M851.8,558.2c2.7,0,8-4.7,3.9-6.3
				C851.9,550.4,844.7,558.3,851.8,558.2z"/>
			<path class="st0" d="M526.2,534.2c-1.8-3.1-5.3-2.5-8-0.7c-1.3,0.9-1.6,1.3-2.1,2.8c-0.8,1.9,0.9,5,0,6.5c-1.1,1-6.3-1.6-9,0
				c-3.1,1.8-4.1,7.2-3.1,10.5c1.1,3.5,6,4.8,9.1,3.4c4.9-2.2,4.1-7.6,3.9-12l0,0c0.8-1.5,5.4,0.8,7.5-0.7
				C527,542.2,527.8,537,526.2,534.2z M509.1,554.3c-0.9-0.3-2-1.7-2.4-4.5c0-7.2,8.6-6.6,7.8,0.4
				C514.2,553,512.1,555.2,509.1,554.3z M521.2,542c-2-0.1-2.7-1.9-2.6-3.5c0.1-1.8,1.1-3.3,3.1-3.5c2.1-0.1,2.2,0.9,2.7,2.8
				C524.5,539.9,523.7,542.1,521.2,542z"/>
			<path class="st0" d="M716.3,660.4c-2.9,6.7-11.7,7.1-12.3-1.4C703.4,649.7,714.3,655.6,716.3,660.4z M710,662.8
				c3.6-0.9,3.7-4.6-0.1-5.8C705.2,655.4,707,661.5,710,662.8z"/>
			<path class="st0" d="M844.7,690.2c-0.2,3.2-2.1,7.1-5.8,7.3c-3,0.2-6.2-2.3-6.5-5.2C831.6,684.8,842.4,683.1,844.7,690.2z
				 M839.2,687.9c-3.4,0.4-5.8,5.6-1.4,6.6C841.7,695.4,843.3,688.6,839.2,687.9z"/>
			<path class="st0" d="M746.9,483.8c-8.7,0.7-8.4-11.9-0.4-12.4C754.4,470.8,754.6,484,746.9,483.8z M750.1,476.5
				c-0.3-5.2-8.6-1.9-7,2.4C744.8,483.5,750.3,480.6,750.1,476.5z"/>
			<path class="st0" d="M841.6,651.5c3.2-0.6,5.3,2.9,5.1,5.7c-0.3,3.5-3.8,5.2-7,5.1c-3.1,0-5.8-2.6-5.9-5.8
				C833.8,652.4,838.2,651.3,841.6,651.5z M844.1,657.1c0-4-6.7-4.2-7.3-0.8C836.1,660.4,844.1,660.7,844.1,657.1z"/>
			<path class="st0" d="M600.1,593.1c-8.5,0.5-8-12.3,0.2-11.8C607.1,581.7,607.2,593,600.1,593.1z M599.2,590.5
				c5.5,0.6,4.6-7.8-0.4-6.7C594.4,584.7,596,589.3,599.2,590.5z"/>
			<path class="st0" d="M796.4,697c6.9-0.1,11.3,12.1,3,12.1C793.4,709.1,789,697.2,796.4,697z M801.4,704.3
				c0.4-4.2-8.1-6.6-5.9-1.1C796.4,705.8,801,708.4,801.4,704.3z"/>
			<path class="st0" d="M626.1,493.2c0.3-1.4,0.8-2.1,1.9-2.8c2.2-1.3,1.7-0.1,3.1-2.1c1-1.5,1.5-3.4,3.8-3.2c1.9,0.1,3.2,2,3.5,3.6
				c0.7,3.4-1.3,2.6-3.3,4.1c-1.4,1.1-0.7,1.7-1.8,3.1C631.1,499.1,625.6,497.6,626.1,493.2z M636.8,489.2c-0.1-1.8-2.8-2.8-3.2-0.5
				C633.2,491,637,491.3,636.8,489.2z M631.5,494.6c-0.2-1.2-2.2-2.9-3-1.3C627.7,494.9,630.7,496.5,631.5,494.6z"/>
			<path class="st0" d="M782.6,734c-6.4-0.6-11.5-11.7-2.8-12.2c3-0.2,6.4,3.1,7.4,5.8C788.6,731.6,786.1,733,782.6,734z
				 M779.9,724.4c-4.8,1.6-1.4,7.2,2.5,7C788.1,731.1,783.3,724.8,779.9,724.4z"/>
			<path class="st0" d="M861.4,650.1c0.4,9.2-12.3,4.8-11.5-2C850.9,640.2,861.4,643.3,861.4,650.1z M858.9,649.5
				c-0.4-3-5.7-5.8-6.3-1.5C852,651.7,858.5,655.4,858.9,649.5z"/>
			<path class="st0" d="M620.4,824.5c0.7-3.2,2.1-6.3,6-6c2.8,0.3,5.5,3,5.4,5.8C631.6,831.8,620.2,832.6,620.4,824.5z M626,821
				c-3.4,1.1-4.8,7.7,0,7.1C630,827.7,630.5,821,626,821z"/>
			<path class="st0" d="M580.6,752.2c-1,3.3-2.6,6.1-6.6,5.4c-3.4-0.6-6.4-5-5.5-8.3C570.3,742.4,580.3,746.4,580.6,752.2z
				 M574.3,747.9c-5.6,0-4,7.4,0.6,7.3C580.3,755.2,578.6,748.6,574.3,747.9z"/>
			<path class="st0" d="M815.4,553.9c-7.3,0.2-5.8-13.8,2.3-12.4C824.9,542.8,821.7,554.1,815.4,553.9z M819.6,546.5
				c0-4.3-7.2-2.5-6.3,1.9C814.3,553.7,819.6,550.2,819.6,546.5z"/>
			<path class="st0" d="M808,469.3c0,7.7-12.4,10.3-13,1.8C794.4,463.9,805.8,463.2,808,469.3z M805.6,470.2
				c-1.1-4.6-8.7-3.3-7.8,1.1C798.8,476.5,804.2,473,805.6,470.2z"/>
			<path class="st0" d="M853.6,705.9c-0.6,7.4-11.4,7-11.1-0.4C842.8,697.4,854.1,697.7,853.6,705.9z M845.2,705.4
				c0,4.5,6.2,4.3,5.8-0.2C850.6,700.8,845.6,701.1,845.2,705.4z"/>
			<path class="st0" d="M867.5,647.7c-3.1-0.6-4.9-1.6-5.3-4.8c-0.3-2.5,1-6.3,3.9-6.8C872.9,635,874.9,647.7,867.5,647.7z
				 M864.8,641.4c0.5,2.5,3.3,5.4,4.7,1.7C870.8,639.7,865.3,636.9,864.8,641.4z"/>
			<path class="st0" d="M829.2,654.3c0,7.1-9.7,11-10.7,2.3C817.8,650.2,827.3,647.6,829.2,654.3z M826.6,655.6
				c0.3-4.4-5.1-3.5-5.3,0.1C820.9,660.3,825.9,659.5,826.6,655.6z"/>
			<path class="st0" d="M579.7,582.6c0-7.3,12-7.8,12.3-1.2C592.4,589.5,579.2,590,579.7,582.6z M585.9,579.2
				c-4.6-0.1-5.2,5.6-0.6,6.3c2,0.3,3.6-0.9,4-3C589.7,579.9,588.3,579.8,585.9,579.2z"/>
			<path class="st0" d="M873.7,610.8c0.8-2.9,2-4.7,5.4-4.3c3,0.3,6.1,2.7,5.7,6C884.1,620,874,617.5,873.7,610.8z M882.4,612
				c-1-2-5.3-5.2-6.1-1.3C875.6,614.6,881,615.5,882.4,612z"/>
			<path class="st0" d="M609,522.9c0.2,2.5-2.5,5.9-5.1,5.5c-3-0.3-4.7-4.7-4.5-7.2C599.8,512.9,609.4,515.9,609,522.9z
				 M603.7,519.1c-2.7,0.8-1.7,6.6,0.7,6.3C607.8,524.9,605.8,519.7,603.7,519.1z"/>
			<path class="st0" d="M605.3,451.6c1.6,3-0.6,7.5-4.1,7.1c-2.8-0.3-5.3-3.5-5.8-6.1C594.2,445,603.2,446,605.3,451.6z
				 M598.9,450.1c-2.2,1.8,1,6.7,3.1,5.5C604.9,453.9,601.1,449.9,598.9,450.1z"/>
			<path class="st0" d="M766.3,735.1c1.2-7.1,11.9-1.1,11.1,4.3c-0.4,2.7-3.7,4.3-6.2,3.6C767.8,742.1,766.3,738.2,766.3,735.1z
				 M772.4,740.3c4.5-1.4,0.1-6.6-2.9-6C766.1,735.1,770.3,739.8,772.4,740.3z"/>
			<path class="st0" d="M626.1,450.9c-6,0.6-4.9-12.4,3-10.5C637.4,442.4,632.4,450.5,626.1,450.9z M631.1,444.9
				c-1.6-3.3-7.4-2.9-6.3,1.3C625.8,450.4,630.2,447.5,631.1,444.9z"/>
			<path class="st0" d="M713.4,674.6c-0.7,6.1-9.3,6.8-10.6,0.5C701.2,667.6,712.2,667.5,713.4,674.6z M710.5,674.9
				c-0.4-2.2-4.5-4.9-5-1.1C705.1,676.5,709.8,678.3,710.5,674.9z"/>
			<path class="st0" d="M704.6,644.3c0.6-2.9,1.4-5.5,4.8-5.5c3.2-0.1,6.6,3.4,6.2,6.7C714.9,652.5,704.9,650.7,704.6,644.3z
				 M707.4,643.4c-0.3,2.9,3.8,5.8,5.2,2.4C713.9,642.9,709.2,638.9,707.4,643.4z"/>
			<path class="st0" d="M578,773.3c-8.5-1-5.7-11.7,1.8-10.2c3,0.6,5,3.4,4.3,6.4C583.3,772.6,580.7,773.2,578,773.3z M578.3,770.9
				c3.1-0.4,5.5-4.1,1.2-5.3C575.4,764.6,573,770.3,578.3,770.9z"/>
			<path class="st0" d="M785,629.3c0,7-9.8,9.3-10.3,1.2C774.3,622.2,786.3,623.3,785,629.3z M777.5,629.8c0.5,3.4,4.6,4.5,4.9,0.4
				C782.7,626.7,778.2,626.5,777.5,629.8z"/>
			<path class="st0" d="M717.2,756.1c0.2-3.3,2.2-5,5.4-4.6c3.4,0.3,5.1,3.2,5.5,6.5C729.1,767.2,717,763.3,717.2,756.1z
				 M719.6,755.4c-0.2,2.9,5.2,8.7,6.4,4C726.9,756.3,721.2,750.9,719.6,755.4z"/>
			<path class="st0" d="M700.2,678.6c0.5,6.6-9.7,6.8-11.2,1C686.9,671.8,700.5,670.9,700.2,678.6z M695.1,681.3
				c4.2-0.9,1.7-6.8-1.6-5.8C689.8,676.5,692.3,681,695.1,681.3z"/>
			<path class="st0" d="M719.8,772.2c0,7.5-12.2,4-11.6-2.7C709,761.3,720.1,765.6,719.8,772.2z M717.6,771.9c-0.8-2.7-7.2-7.5-7-2
				C710.6,773.3,716.5,776,717.6,771.9z"/>
			<path class="st0" d="M785.2,536.9c-7.3,0-6.3-11.5,0.3-11.4C792.7,525.6,792.6,536.9,785.2,536.9z M788.4,531.2
				c-1-3.2-5.6-4.3-5.6,0C782.8,535.4,787.8,534.8,788.4,531.2z"/>
			<path class="st0" d="M774.8,602.9c-6.4,0-5.3-10,0.2-11C781.8,590.7,782.9,603.3,774.8,602.9z M775.4,594.5c-3.1,1-3,6.7,0.8,5.7
				C779.6,599.2,777.9,595.2,775.4,594.5z"/>
			<path class="st0" d="M695.3,578.1c0.3,7.6-11.1,7.5-10.5,0.5C685.4,572.7,694.7,572.5,695.3,578.1z M690.2,581.3
				c3.1,0,3.3-4.8-0.1-4.9C686.6,576.3,686.7,581.3,690.2,581.3z"/>
			<path class="st0" d="M653.3,446.9c6.4,0.3,7.8,11.5,0,10.3C647.4,456.2,645.9,446.7,653.3,446.9z M654.6,454.5
				c3.5,0,0.6-4.7-1.3-5C649.1,448.8,651.1,454.7,654.6,454.5z"/>
			<path class="st0" d="M579.7,458.3c7.2,2.3,5.3,15.3-3.1,11.5C570.2,466.9,571.4,456,579.7,458.3z M578.8,467.3
				c4,1.1,2-5.9-0.6-6.4C574.2,460,575.5,466.6,578.8,467.3z"/>
			<path class="st0" d="M570.4,694.5c-2.5-1-6.3,1.8-7.9-1.3c-0.7-1.3-0.1-3.5,1.1-4.4c1.6-1.2,2.5,0.1,4.1-0.2
				c2.4-0.4,4.9-3.6,7-0.1C576.5,691.5,573.3,694.3,570.4,694.5z M571.4,692.1c1.4-0.2,2.3-2.8,0.4-3
				C570.3,689,569.8,692.5,571.4,692.1z M565.7,690.1c-1.6,0.1-1.7,2.3-0.1,2.6C567.4,693.1,567.5,690,565.7,690.1z"/>
			<path class="st0" d="M771.9,613.3c-0.2-5.8,10.5-7.3,10.2-0.8C781.9,618.8,771.9,620.9,771.9,613.3z M779.4,612.4
				c-1.4-2.5-5.5-1.2-4.5,1.6C775.9,617.1,778.9,614.2,779.4,612.4z"/>
			<path class="st0" d="M730,461.4c-6.4,0.1-8.5-9.6-1.6-10.1C733.5,450.8,737.2,461.4,730,461.4z M731.7,457.8
				c-0.2-1.8-3.4-6.1-4.8-2.5C726,457.8,730.2,460.4,731.7,457.8z"/>
			<path class="st0" d="M759.1,457.4c0.2,6.8-9.4,7.1-9.6,0.3C749.4,451.6,758.5,451.4,759.1,457.4z M753.1,455.3
				c-1.8,1.4-1.3,4.8,1.4,4.8C758.4,460,756.7,455,753.1,455.3z"/>
			<path class="st0" d="M719.9,487.3c-6.9-0.7-4.1-10.2,1.4-10.3c3.8-0.1,5.4,3.4,4.3,6.8C724.7,486.6,722.8,487.3,719.9,487.3z
				 M720.5,484.6c3.3-0.2,4.3-5.5,0.8-5.2C718.6,479.7,717.5,483.9,720.5,484.6z"/>
			<path class="st0" d="M576.5,542.7c5.9,1.2,6,10.2-0.7,9.1C569.9,550.7,570.6,542.7,576.5,542.7z M578.3,547.8
				c-0.1-2.2-4-3.3-3.9-0.7C574.5,549.1,578.3,550.2,578.3,547.8z"/>
			<path class="st0" d="M700.4,798.5c-6.6,0.4-4.9-10.2,0.8-10C707.8,788.6,706.8,798.6,700.4,798.5z M703.5,793.3
				c-0.6-3-4.7-3.1-5.2,0.1C697.6,797.3,703.6,797,703.5,793.3z"/>
			<path class="st0" d="M536.9,496.1c-0.2-6.5,9.7-2.9,9.4,2.4C545.8,505.9,537,501.8,536.9,496.1z M543.8,498.4
				c-0.5-1.9-3.8-4.6-4.1-1.2C539.5,500.2,544.3,500.6,543.8,498.4z"/>
			<path class="st0" d="M788.8,710.3c5.5,0,8.9,10.1,2.6,10C786.5,720.2,782.3,711.3,788.8,710.3z M792.8,716.6
				c-0.2-2.1-4.3-5.8-5.1-2.5C787.2,716,792.5,719.7,792.8,716.6z"/>
			<path class="st0" d="M560.7,526.8c0.7,1.8,1,4.6-0.9,6.7c-2.4,2.6-5.6,2.4-6.9-1c-0.9-2.4,0-7.1,3-7.8
				C557.7,524.2,559.8,525,560.7,526.8z M555,530.3c0.5,3.2,3.9,2.1,3.7-0.5C558.6,526.7,555.4,527.7,555,530.3z"/>
			<path class="st0" d="M750.8,733.3c7.1,0.1,5.9,11.5-0.4,9.4C746.5,741.4,745.4,732.4,750.8,733.3z M753.3,738.3
				c0-1.7-3.2-3.6-3.8-1.3C749,739.1,752.9,741.7,753.3,738.3z"/>
			<path class="st0" d="M811.3,691.4c-2,1.5,2.4,5.2-0.6,7.9c-2.6,2.4-5.9-0.1-7.4-2.6c-1.7-2.8-1.2-6.1,2.7-6.6
				C807.6,690,810.6,692.9,811.3,691.4z M808.4,697.7c2.4,0.2,0.2-6.3-2.8-4.4C803.8,694.5,806.6,697.7,808.4,697.7z"/>
			<path class="st0" d="M625.7,477.1c7.4-0.4,5.3,11-1.4,10.4C616.9,486.9,620.3,478.2,625.7,477.1z M624.7,485.1
				c2-0.4,5.5-4.5,1.9-5.5C623.7,478.7,620.8,483.7,624.7,485.1z"/>
			<path class="st0" d="M680.2,582.6c7.1-0.1,6.7,10.5,0.3,9.7C674.7,591.6,675.2,583.9,680.2,582.6z M680.5,585.1
				c-2.7,0-1.5,5.1,0.8,4.6C683.9,589.1,683,585,680.5,585.1z"/>
			<path class="st0" d="M670.8,835.7c-5,0.4-7.8-12-1.1-9.8C673.9,827.2,676.9,835.4,670.8,835.7z M672,832.5c-0.1-1.7-2.6-6-4-3.5
				C667.2,830.5,670.7,835,672,832.5z"/>
			<path class="st0" d="M745.1,516.2c5.2,0.4,8,9.2,1.3,8.8C741.1,524.7,738.7,516.8,745.1,516.2z M744.7,518.2
				c-2.6,0.1,0.4,5.3,2.3,4.1C749.1,521.1,746.2,518.4,744.7,518.2z"/>
			<path class="st0" d="M839,678.8c0.1,5.5-8.7,5.3-9.6,0.4C828.3,673,839,672.7,839,678.8z M834.2,676.6c-2.8-0.3-2.7,3.9,0.1,3.7
				C836.6,680.2,836.5,676.9,834.2,676.6z"/>
			<path class="st0" d="M792,485.7c-0.2,6-10.5,3.7-9.6-1.9C783.4,478.1,792.2,480.1,792,485.7z M789.4,485.8
				c0.2-2.7-4.2-4.8-4.2-1.5C785.1,486.2,789.2,488.2,789.4,485.8z"/>
			<path class="st0" d="M687.4,447.2c-5.5-0.7-5.3-9.1,0.6-8.5C694.7,439.4,694.2,447.5,687.4,447.2z M690.9,442.8
				c-0.3-1.8-4.3-2.7-4.9-0.6C685.1,445.2,690,445.3,690.9,442.8z"/>
			<path class="st0" d="M673.5,485.9c-6.9-0.8-5.6-10.4,0.9-9.1c2.3,0.5,3.7,1.9,4,4C678.9,484.4,676.5,485.4,673.5,485.9z
				 M676.2,481.1c-0.5-2.5-4-2.8-4.7-0.2C670.6,484.4,676.4,484.5,676.2,481.1z"/>
			<path class="st0" d="M757.5,756.4c-5.4,0.4-9.3-9.6-1.5-8.5c2.5,0.4,5.2,1.4,5.4,4.3C761.6,754.7,760,756.4,757.5,756.4z
				 M757.3,753.7c3.8-0.1-0.6-4.7-2.5-3.8C752.6,751.1,756.2,753.3,757.3,753.7z"/>
			<path class="st0" d="M538.6,714.4c2.1,0.5,5,1.5,4.6,4.1c-0.3,2.3-4.2,4.1-6.2,4.1C530.2,722.4,532.3,714.3,538.6,714.4z
				 M536.9,720.2c2-0.1,5.3-2.4,2-3.4C536.4,716.1,533.4,719.9,536.9,720.2z"/>
			<path class="st0" d="M653.4,831.8c0.1-7.7,8.8-1.5,8.7,3.6c-0.1,2.9-2.7,4.6-5.5,3.4C654.2,837.7,653.4,834.3,653.4,831.8z
				 M659.8,835.6c0.1-1.4-2.6-6.7-4.1-4.2C654.6,833.1,657.8,838.3,659.8,835.6z"/>
			<path class="st0" d="M678.9,455.3c-0.8,6-9,7.3-9.4,0.6C669.2,449.9,677.6,450,678.9,455.3z M676.3,455.1c-1.1-2.4-5-1.2-4,1.3
				C673.4,459.4,676,457.1,676.3,455.1z"/>
			<path class="st0" d="M603.6,472.5c-0.9,6.8-12,3.6-9.6-2.8C596.3,463.8,603.4,467.6,603.6,472.5z M596.3,471.5
				c-0.3,3,4.3,3.9,5.2,1.1C602.4,469.6,596.5,468,596.3,471.5z"/>
			<path class="st0" d="M715.7,441.5c0.2,5.2-8.7,5.5-8.6,0C707.2,435.4,715.3,435,715.7,441.5z M712.1,439
				c-1.8,0.3-3.4,3.6-0.8,3.7C713.2,442.7,713.8,439.6,712.1,439z"/>
			<path class="st0" d="M668.7,548.3c-6.5,0-6.2-10.4,0.5-9.2C675,540.2,674.6,547.8,668.7,548.3z M668.8,541.3
				c-2.9-0.4-3,3.9,0,4.2C672.1,545.9,671.9,542,668.8,541.3z"/>
			<path class="st0" d="M679.1,827.2c-4.6,0.1-8-9-1.4-9.3C682.8,817.8,685.2,827.4,679.1,827.2z M680.4,823.8
				c0-1.5-2.1-5.2-3.9-3.3C674.6,822.5,680,826,680.4,823.8z"/>
			<path class="st0" d="M811,648.4c5.9,1.1,4.7,9.9-1.2,9.1c-2.6-0.3-4.4-3.1-3.7-5.7C806.7,649.4,808.7,648.8,811,648.4z
				 M812.5,652.6c-0.9-2.4-4.4-2.1-4,0.7C808.9,655.8,812.6,655.2,812.5,652.6z"/>
			<path class="st0" d="M531.9,683.3c6.5-0.2,2.4,10.4-3.7,8c-1.8-0.7-3-2.8-2.3-4.8C526.8,684.3,529.8,683.8,531.9,683.3z
				 M533.1,686.2c-1.3-1.1-5.2,0.2-4.4,2.3C529.7,690.8,533,687.5,533.1,686.2z"/>
			<path class="st0" d="M540.9,774.7c-0.6,5.8-9.6,0.6-9.3-3.4C532,765.5,540.7,770.2,540.9,774.7z M535.4,771.3
				c-1.5,0.1,0.9,3.7,2.3,3.5C540.3,774.4,537.1,771.2,535.4,771.3z"/>
			<path class="st0" d="M533.8,706.1c-5.3-0.5-3.2-7.1,1.3-7.6C543.2,697.5,540.2,706.5,533.8,706.1z M536.9,700.6
				c-1.7,0-5.5,1.9-2.4,3.2C536.2,704.5,538.9,702,536.9,700.6z"/>
			<path class="st0" d="M735.3,740.9c-5.2,0.4-6.7-8.4-1.2-8.8C739.5,731.7,741.3,741,735.3,740.9z M732.9,736
				c0.2,1.8,2.8,4.2,3.7,1.4C737.3,735.2,732.9,733.3,732.9,736z"/>
			<path class="st0" d="M612,517.4c-5.4,0.1-6.8-8.2-1.1-8.5C616.2,508.5,617.6,517.5,612,517.4z M611.2,511.2
				c-2,1.1-1.3,4.4,1.2,3.4C615,513.6,612.4,511.8,611.2,511.2z"/>
			<path class="st0" d="M690.3,815.2c-0.5,5.8-8.7,2-8-2.6C683.4,806.3,690.2,810.6,690.3,815.2z M688.2,815c0-2-3.5-5-3.6-1.7
				C684.6,815,687.2,817,688.2,815z"/>
			<path class="st0" d="M538.1,751.5c-5.8-0.7-3.8-7.6,1.3-7.2C545.6,744.8,544.3,751.8,538.1,751.5z M538.4,749
				c1.3-0.1,4.4-0.9,1.6-2.1C538.5,746.3,535.8,748.3,538.4,749z"/>
			<path class="st0" d="M751.9,510.2c-0.4,5.7-8.8,3.2-8.6-1.5C743.6,503.4,751.2,506.3,751.9,510.2z M749.1,510.6
				c-0.2-1-3.2-3.6-4-1.8C744.5,510.1,748.2,510.9,749.1,510.6z"/>
			<path class="st0" d="M667.5,444.5c-5.6,0.1-6.3-7.8-0.5-8.2C672.1,436,673.1,444,667.5,444.5z M667.6,438.6
				c-1.8-0.5-3.2,3.1-0.5,3.3C669.5,442,669.2,439.6,667.6,438.6z"/>
			<path class="st0" d="M573.9,478.2c0.1,5.9-8.8,3.9-8.6-1.6C565.4,471.3,573.9,473.8,573.9,478.2z M568.9,476.6
				c-0.6,0.7-0.2,2.9,1,2.9C572.1,479.6,571.2,476.3,568.9,476.6z"/>
			<path class="st0" d="M731.3,746.7c-0.5,2.4-1,3.9-3.9,3.2c-1.8-0.5-4.7-3-4.5-5.1C723.3,739.5,731.2,742.2,731.3,746.7z
				 M728.2,747.6c3-1.7-2.2-4.9-3-3.5C724.3,745.6,727.1,747.3,728.2,747.6z"/>
			<path class="st0" d="M584.9,781.6c-6.1,0.4-6-7.5-0.2-7.2C589.9,774.7,590,782,584.9,781.6z M585.1,777c-2.7-0.2-2.7,3-0.2,2.1
				C586.2,778.7,586.9,777.4,585.1,777z"/>
			<path class="st0" d="M611.8,463.8c0,5.2-7.3,4.7-7.8-0.1c-0.2-2,1.6-4.5,3.7-4.8C610.7,458.5,611.4,461.5,611.8,463.8z
				 M608.2,461.6c-2,0.1-2.3,3.2-0.2,3.5C610.4,465.5,609.9,462.3,608.2,461.6z"/>
			<path class="st0" d="M538.5,737.5c-5.7-1.1-4.6-7.3,0.9-6.8C545.2,731.3,543.1,736.7,538.5,737.5z M540.9,733.9
				c-0.6-1.3-4-1.8-3.7,0.2C537.5,735.9,540.3,734.8,540.9,733.9z"/>
			<path class="st0" d="M698.7,805.1c-0.2,4.9-6.6,6.9-6.8,1.1c-0.1-1.8,0.7-4.6,2.8-4.9C696.3,801,698.8,803.4,698.7,805.1z
				 M695.1,804c-1.4,0.5-2,3.3-0.1,3.4C697,807.5,697.2,803.9,695.1,804z"/>
			<path class="st0" d="M614.6,506.6c-4.4-0.3-6.8-8.6-1.4-8.4C618.1,498.4,620.3,505.7,614.6,506.6z M614.6,504
				c2.5-0.4,0.1-4.4-1.5-3.3C611.7,501.7,613.3,504,614.6,504z"/>
			<path class="st0" d="M565.5,490c-3.9,0.2-6.9-5.5-2.1-6.7C567.8,482.3,570.7,489.8,565.5,490z M564.2,485.9
				c-1.3,1.8,1.1,0.9,1.3,1.2C565.4,487,565.7,485.5,564.2,485.9z"/>
			<path class="st0" d="M765,497.3c4-0.4,6.4,6.3,1.7,7.3C761.9,505.7,759.5,497.3,765,497.3z M764.1,500.1c0.1,0.5,1.9,3,2.2,1.5
				C766.7,500.2,765.3,499.3,764.1,500.1z"/>
			<path class="st0" d="M753.6,492.6c4.7,0.3,5.2,7.2,0.4,6.9C750,499.3,748.6,491.6,753.6,492.6z M753.1,495.7c-0.2,2,2,0.1,1.5,0
				C754.6,495.8,753.3,494.3,753.1,495.7z"/>
			<path class="st0" d="M875.4,579.6c0.2,5.3-8.2,4.4-8-0.6C867.7,573.7,875.3,575,875.4,579.6z M873.1,579.7c0-1.5-2.7-3-3.1-1
				C869.7,580.3,873.1,581.6,873.1,579.7z"/>
			<path class="st0" d="M708.3,786.5c-4.3,0.1-4.9-7.6-0.4-7.9C712.7,778.2,713.7,786.4,708.3,786.5z M708.7,784.3
				c2.3,0.2,0.9-3.9-0.7-3.6C705.8,781.1,707.4,783.8,708.7,784.3z"/>
			<path class="st0" d="M613.4,492c0-5,7.2-4.7,6.7,0.4C619.5,497,614,496.1,613.4,492z M617.8,491.7c-0.2-2-1.8,0.6-1.6,0.5
				C616.2,492.2,618,493.8,617.8,491.7z"/>
			<path class="st0" d="M539.5,758.3c0,4-6.1,4-6,0C533.6,754.5,539.6,754.2,539.5,758.3z"/>
			<path class="st0" d="M640.5,508.3c0.4,3.7-5,4.4-5.6,0.8C634.4,505.7,640.1,505,640.5,508.3z"/>
			<path class="st0" d="M636.2,831.9c-0.2,2.2-4,2.2-3.7-0.2C632.9,829.7,636.5,829.3,636.2,831.9z"/>
			<path class="st0" d="M573,788.1c-1.2-0.2,0-1.3,0-1.6C572.9,787,574.6,787.1,573,788.1z"/>
			<path class="st0" d="M640.5,508.3c0.4,3.7-5,4.4-5.6,0.8C634.4,505.7,640.1,505,640.5,508.3z"/>
			<path class="st0" d="M636.2,831.9c-0.2,2.2-4,2.2-3.7-0.2C632.9,829.7,636.5,829.3,636.2,831.9z"/>
			<path class="st0" d="M573,788.1c-1.2-0.2,0-1.3,0-1.6C572.9,787,574.6,787.1,573,788.1z"/>
		</g>
	</g>
</g>
</svg>
