<?xml version="1.0" encoding="UTF-8"?><svg xmlns="http://www.w3.org/2000/svg" viewBox="0 0 924 840.37"><defs><style>.cls-1{fill:none;stroke-linecap:round;stroke-linejoin:round;}.cls-1,.cls-2{stroke:#000;}.cls-2{fill:#ffb600;stroke-miterlimit:10;}</style></defs><g id="Layer_7"><g><path class="cls-1" d="M474.69,263.42l8.29-4.52-2.08-7.92,19.17-7.5v-53.76l-9.59-12.09,4.17-14.17,9.17-3.75,5.83,17.5,6.67-1.25-8.75-32.92s-15-10.42-14.17-11.67,6.25-13.34,6.25-13.34l11.25,6.25v-10.84l-16.67-21.26,5-4.17,22.92,24.59,10-10.42,5-38.34,11.25-9.59-11.25-5.42,8.34-5,29.59,11.25,16.67,13.75,1.67-17.09-14.59-11.67-7.92-18.34"/><polyline class="cls-1" points="549.66 6.75 537.16 29.26 489.31 86.79"/><polyline class="cls-1" points="684.59 359.03 686.78 325.58 682.19 314.74 716.37 268.48 668.02 210.13 648.43 170.54 653.43 160.96 667.19 160.96 684.69 146.37 681.36 129.28 647.6 98.86 664.69 72.18 655.94 68.43 646.35 40.51 660.52 23.84 654.69 .5"/><polygon class="cls-1" points="691.36 78.44 711.37 79.69 715.53 96.77 702.61 103.44 709.7 120.11 702.2 121.78 704.28 136.78 693.44 140.53 694.69 120.95 690.94 113.44 684.28 114.69 674.27 82.19 691.36 78.44"/><polygon class="cls-1" points="721.78 128.86 734.7 154.29 730.12 173.88 745.96 190.13 730.12 193.88 737.62 211.38 717.2 228.47 723.04 243.06 709.7 244.73 701.78 219.3 706.78 212.22 681.36 201.38 688.03 187.63 690.94 166.37 706.78 173.88 708.86 162.62 699.7 154.29 721.78 128.86"/><polygon class="cls-1" points="659.27 168.87 669.69 176.38 668.16 184.29 675.8 200.13 667.47 196.1 656.77 172.62 659.27 168.87"/><polygon class="cls-1" points="695.81 304.88 705.39 293.07 711.64 304.88 705.25 310.02 695.81 304.88"/><polyline class="cls-1" points="504.79 613.12 498.4 622.04 492.84 639.26 501.73 679.83 490.06 682.05 490.06 703.72 501.73 705.95 509.51 731.51 497.84 733.73 500.06 745.4 531.74 769.3 530.07 778.74 514.51 775.96 491.17 795.41 508.96 829.31 498.95 835.98"/><polyline class="cls-1" points=".5 839.87 16.06 786.52 6.61 774.85 3.28 737.62 20.5 715.95 18.84 700.95 10.5 690.94 14.95 671.49 44.96 652.05 44.96 629.26 65.52 624.26 84.96 600.92 92.74 544.8 105.8 533.13 115.81 543.96 115.81 555.63 140.81 585.64 157.48 585.64 160.82 595.64 206.66 619.82 211.66 630.65 237.5 626.48 310.85 644.82 331.69 667.33 334.19 686.5 320.02 668.16 318.35 695.67 296.68 671.49 284.18 675.66 284.18 683.16 250 689 257.51 694 248.34 715.67 290.01 736.51 287.51 725.67 260.84 714.01 266.68 694 286.68 689 276.68 701.5 285.85 717.34 306.68 725.67 318.35 722.34 331.69 730.68 318.35 750.68 296.68 761.52 309.19 772.35 278.34 773.19 266.68 807.36 250.84 806.53 244.17 792.36 226.67 796.52 233.33 785.69 225 771.52 216.66 766.52 213.88 749.85 201.1 749.29 191.66 762.63 203.88 803.75 187.77 785.97 179.43 794.86 178.88 767.63 164.98 759.29 151.09 764.29 142.76 777.63 131.09 777.63 117.75 789.86 103.86 814.86 87.74 809.31 84.96 824.31"/><polyline class="cls-1" points="848.19 486.15 848.19 448.23 923.5 479.63"/><polyline class="cls-1" points="873.49 800.69 833.48 754.87 867.24 673.9 860.05 639.09 777.47 548.78"/></g></g><g id="Layer_2"><g><polygon class="cls-1" points="526.52 677.31 538.45 673.9 541.57 677.03 547.54 676.46 546.4 682.71 572.53 688.67 570.26 695.2 552.08 697.48 539.58 695.2 526.52 677.31"/><polygon class="cls-1" points="591.28 692.36 604.35 668.5 609.17 671.91 612.3 667.08 624.51 672.76 625.08 689.24 619.59 688.75 613.43 699.75 609.46 700.88 605.48 695.77 591.28 692.36"/></g><polygon class="cls-1" points="302.1 286.67 296.9 291.12 295.03 304.93 286.51 318 261.95 299.46 268.9 291.13 263.78 286.76 250.72 308.63 275.72 337.98 270.6 338.73 266.05 343.56 270.88 347.82 279.67 344.09 282.53 349.81 277.98 358.62 268.89 358.9 263.5 375.09 253.56 387.31 242.76 411.45 242.76 419.69 231.97 436.73 287.64 471.1 291.62 479.62 282.81 481.32 217.77 449.23 201.86 446.95 196.18 440.7 187.66 439.85 187.66 450.93 207.83 451.78 212.94 459.74 206.69 467.97 181.41 458.6 168.63 438.43 174.31 433.04 208.96 413.15 247.59 364.58 252.42 338.17 249.86 334.76 252.7 330.78 249.86 327.94 250.15 323.4 242.76 308.91 238.79 306.92 240.78 304.37 239.92 299.82 236.23 299.25 237.37 293 231.97 291.02 234.53 288.18 230.27 279.65 234.53 267.44 254.12 253.81 261.23 249.55 264.07 242.73 273.44 241.59 283.66 229.66 292.19 227.68 385.07 173.71 452.67 120.59 454.09 115.76 458.06 115.76 489.31 86.79 485.62 177.68 476.78 177.07 448.12 162.35 421.99 164.05 401.61 166.73 395.01 172.29 395.29 179.96 387.34 185.92 383.08 184.79 378.25 187.34 379.95 190.18 375.98 192.45 373.14 190.47 371.72 195.01 362.91 200.12 357.46 200.13 356.56 203.88 350.51 206.59 349.4 212.7 338.36 218.47 336.5 216.31 325.42 221.71 320.31 220.01 319.74 224.83 312.35 227.39 300.14 239.89 290.77 247.84 289.35 254.09 295.72 265.09 293.63 266.54 294.46 271.7 299.04 274.83 296.69 277.57 298.72 284.48 302.1 286.67"/><polygon class="cls-1" points="309.8 279.65 308.66 275.39 310.65 273.41 306.67 270 303.55 270.85 294.88 254.03 298.72 252.1 299.57 248.69 310.93 240.46 317.75 242.16 318.03 237.05 324 235.06 328.54 226.82 336.83 227.08 339.1 223.39 352.45 217.71 354.44 210.61 360.12 207.77 361.26 204.93 363.53 205.5 369.21 202.09 372.34 202.37 374.61 198.96 387.68 192.63 391.98 188.88 399.9 183.04 399.83 174.57 403.51 171.24 447 167.35 472.97 180.54 470.7 241.59 475.39 259.49 471.28 282.47 465.45 294.42 466.02 311.89 480.5 320.27 501.81 325.53 511.61 321.69 551.23 331.49 582.33 328.51 595.97 337.03 616.56 334.76 628.77 328.51 642.69 332.2 658.17 332.77 659.22 341.02 653.91 348.68 660.23 348.95 661.15 356.2 679.47 360.89 699.7 353.56 704.04 348.39 712 351.23 715.69 344.42 733.58 341.29 745.09 345.55 747.64 327.23 758.29 327.23 747.22 308.48 789.4 284.2 785.56 278.66 796.21 273.97 852.03 379.64 807.72 401.37 792.38 387.73 792.8 406.48 760.42 417.98 762.13 429.91 795.79 443.12 785.56 464 765.54 449.51 767.24 459.74 750.2 477.2 742.96 471.24 737.84 480.19 750.2 499.36 760 508.73 770.22 498.51 787.69 512.14 797.92 500.21 790.25 492.12 800.9 480.61 810.7 483.59 820.07 472.94 848.19 486.15 800.9 545.37 787.69 526.2 777.47 548.78 765.65 561.28 769.37 568.38 748.92 588.4 738.7 602.89 704.18 643.37 709.72 651.04 697.37 663.39 690.12 654.02 672.66 678.3 625.79 731.99 637.29 755.42 585.74 754.57 588.72 742.64 610.45 743.49 622.81 734.12 621.1 729.86 624.94 726.45 624.09 705.14 648.37 674.04 670.1 655.72 654.34 636.98 656.89 631.86 649.65 622.92 639.85 622.92 611.3 628.88 614.29 639.96 581.05 646.77 567.42 642.51 561.88 631.86 552.93 631.44 553.36 622.06 564.86 623.77 559.32 609.71 536.14 608.49 535.04 611.7 525.67 610.56 524.81 607.89 518.85 607.58 513.31 615.67 504.79 613.12 502.23 603.74 506.92 603.32 505.64 596.5 500.53 591.81 497.55 579.46 502.23 577.33 492.43 553.47 499.25 550.06 494.99 539.83 486.89 538.98 477.95 524.07 464.74 521.09 462.18 515.55 454.94 516.83 452.38 512.14 446.85 512.14 445.14 506.18 426.82 504.9 427.25 509.16 418.3 505.75 415.32 509.16 399.98 507.88 405.94 477.63 410.63 475.5 410.63 470.2 406.37 473.8 402.11 473.8 394.44 484.45 394.01 510.44 398.27 520.66 407.22 521.94 408.5 526.2 414.46 527.05 423.84 524.07 411.06 538.13 399.98 524.07 377.82 512.57 365.89 489.13 362.06 481.46 354.82 479.76 350.56 471.24 337.35 466.13 333.51 458.46 338.63 454.2 348.85 467.83 359.08 468.26 370.15 463.57 374.84 451.64 387.2 445.25 398.27 455.05 406.8 454.62 401.68 450.36 403.39 446.95 411.06 449.08 413.19 445.68 408.07 443.55 397 445.68 377.4 435.45 397.42 421.82 405.52 434.17 409.78 438.01 402.96 441.84 416.17 442.27 413.19 435.88 414.04 427.78 417.87 427.78 414.89 420.54 407.65 412.87 416.17 409.46 415.32 405.2 418.3 403.5 408.5 387.73 417.87 386.03 417.02 363.02 397.42 347.68 393.16 350.66 399.55 356.2 394.87 362.59 405.09 387.31 400.83 391.14 394.87 390.71 394.01 394.97 375.42 392.47 367.66 399.21 366.6 391.85 360.64 391.85 355.17 397.12 352.5 391.12 328.54 388.16 333.37 373.67 326.55 371.4 322.86 356.91 312.07 351.52 305.82 353.79 306.06 347.43 291.05 336.75 295.59 333.91 285.94 327.66 293.32 326.52 296.16 318.28 312.92 305.79 342.18 319.99 371.84 343.5 372.46 351.67 366.89 355.86 367.7 360.7 372.57 357.48 377.97 361.17 378.53 348.68 391.03 349.24 373.71 340.72 351.27 317.72 317.8 302.93 305.57 291.4 309.8 279.65"/></g><g id="Layer_3"><g><line class="cls-1" x1="313.62" y1="215.22" x2="318.31" y2="225.33"/><line class="cls-1" x1="285.66" y1="229.2" x2="293.95" y2="245.14"/><polyline class="cls-1" points="270.65 241.93 266.84 270.14 276.21 266.73 276.21 275.59"/><line class="cls-1" x1="242.76" y1="308.91" x2="250.72" y2="308.63"/><line class="cls-1" x1="263.78" y1="286.76" x2="293.04" y2="260.47"/><line class="cls-1" x1="296.69" y1="277.57" x2="266.05" y2="288.69"/><line class="cls-1" x1="182.36" y1="428.42" x2="187.66" y2="439.85"/><polyline class="cls-1" points="209.31 448.23 231.53 430.46 235.28 431.3"/><polyline class="cls-1" points="307.3 286.59 317.64 293.15 326.7 295.92 335.86 290.38 330.11 277.6 340.97 284.84 350.13 286.76 357.8 282.28 347.57 279.83 331.17 268.22 325.42 274.83 319.45 268.22 317.64 272.48 313.06 269.29 310.65 273.41"/><polyline class="cls-1" points="317.64 242.13 320.31 246.49 332.58 240.74 335.01 243.62 321.66 270.67"/><polyline class="cls-1" points="368.7 202.23 375.91 212.83 388.05 207.51 398.7 193.87 399.9 183.04"/><polyline class="cls-1" points="429.42 168.92 429.42 173 425.12 173 425.12 180.03 416.6 180.03 416.6 206.23 419.15 206.23 418.51 216.77 423.01 219.01 429.42 219.01 429.42 213.69 434.49 220.72 443.65 224.55 448.76 214.75 452.38 215.18 460.91 196.64 461.39 174.66"/><polyline class="cls-1" points="444.67 167.55 444.95 183.44 461.2 183.44"/><line class="cls-1" x1="472.2" y1="201.28" x2="460.91" y2="196.64"/><polyline class="cls-1" points="416.6 206.23 401.61 198.12 397.23 195.76"/><polyline class="cls-1" points="343.11 314.11 347.57 297.41 356.52 298.69 362.06 291.87 350.13 286.76"/><polyline class="cls-1" points="362.06 291.87 376.01 303.16 395.29 327.87 463.46 368.98 554 387.09 588.08 410.95 594.9 422.24 598.1 434.81 608.32 448.23 620.89 455.47 644.11 455.47 712.28 497.23 722.51 505.54 765.32 534.08 777.47 548.78"/><polyline class="cls-1" points="477.95 524.07 477.95 510.22 485.83 510.22 487.75 507.88 492.22 511.29 496.91 502.77 490.73 501.06 491.58 498.29 496.91 500.21 620.68 479.33 760.42 417.98"/><polyline class="cls-1" points="419.87 342.69 463.46 486.43 462.18 515.55"/><polyline class="cls-1" points="454.82 457.95 441.67 458.6 440.17 468.4 446.7 486.86 452.38 492.12 463.21 492.12"/><path class="cls-1" d="M444.94,425.34h3.05l2.84,3.78s0,4.77,.99,5.76,3.83,2.56,3.83,2.56l3.41,13.78,9.09,8.95,1.56,7.81,4.97,8.38,6.39,4.97,11.79,5.54,.71,6.39,11.65,3.41,6.11-.99,.6,2.01"/><polyline class="cls-1" points="376.01 303.16 383.08 298.83 383.08 296.7 387.2 295.92 390.61 295.92 364.19 273.33"/><polyline class="cls-1" points="466.02 311.89 453.09 313.17 449.54 318.43 439.6 319.7 424.55 317.01 422.42 319.7 415.74 316.01 417.16 313.46 414.61 312.89 415.74 308.91 413.61 307.92 412.19 310.49 408.22 310.49 408.36 317.57 413.61 319.7 406.51 319.7 405.09 316.58 400.12 316.58 403.1 314.7 400.83 312.46 397.23 316.58 392.17 313.6 393.59 311.61 388.19 302.24 390.61 300.11 390.61 295.92 392.74 295.92 390.61 291.87 382.79 285.05 383.79 278.52 389.47 277.81 391.32 274.4 390.61 270.67 395.08 266.73"/><polyline class="cls-1" points="395.29 220.72 403.96 238.33 402.96 247.13 397.23 258.64"/><polyline class="cls-1" points="405.48 211.89 403.96 217.02 400.83 215.46 398.56 219.61 395.29 217.31 393.85 219.61"/><polyline class="cls-1" points="397.23 209.07 408.22 212.83 411.2 212.83 404.21 227.11 404.69 230.66 400.83 231.98 400.83 235.63 397.23 237.23 395.29 234.78 390.61 236.05 389.9 239.68 386.11 236.05 383.28 238.08"/><polyline class="cls-1" points="401.61 198.12 397.23 200.99 397.23 210.28 391.67 217.95 395.29 220.72 381.87 235.2 391.88 255.7 397.23 258.64 395.08 266.73 388.48 258.21 384.21 261.19 378.04 259.91 373.99 253.74 369.73 257.14 367.52 262.68 364.19 256.93 360.14 260.77 364.19 273.33 362.27 276.74 360.14 274.83 354.79 281.56"/><line class="cls-1" x1="408.38" y1="201.79" x2="408.22" y2="212.83"/><polyline class="cls-1" points="401.61 233.55 411.2 232.79 416.47 216.08"/><polyline class="cls-1" points="397.23 258.64 406.23 257.36 410.35 249.83 418.51 216.77 415.32 215.69 413.47 218.92 408.22 218.92"/><line class="cls-1" x1="410.35" y1="249.83" x2="417.09" y2="247.85"/><polyline class="cls-1" points="443.65 224.55 446.56 225.69 440.17 235.06 434.49 231.65 428.67 244.29 432.36 245.14 430.51 254.66 417.45 253.66 416.6 239.68 418.51 232.93 418.51 227.82 421.57 227.82 421.57 230.8 426.39 230.8 423.01 219.01"/><polyline class="cls-1" points="413.61 307.92 415.89 305.08 418.51 306.5 424.41 303.16 424.41 289.45 419.86 289.45 419.01 284.06 430.94 257.64 430.51 254.66"/><polyline class="cls-1" points="473.39 270.67 466.02 270.67 457.21 268.22 453.07 268.86 429.19 261.52"/><polyline class="cls-1" points="440.17 235.06 444.95 239.68 444.95 246.99 453.07 244.15 451.29 248.84 442.73 256.65 440.17 255.7 437.46 264.06"/><polyline class="cls-1" points="387.1 347.31 393.87 330.5 403.96 333.1"/><line class="cls-1" x1="407.87" y1="355.86" x2="422.28" y2="350.62"/><polyline class="cls-1" points="431.76 318.3 424.41 330.5 430.94 339.59 427.73 344.06"/><polyline class="cls-1" points="421.55 343.71 436.19 344.56 448.69 350.62 453.07 350.62 450.4 348.39 451.29 341.43 469.14 340.44 475.54 317.45"/><polyline class="cls-1" points="504.24 324.57 503.65 332.06 495.13 357.2 495.13 363.16 492.15 371.83 499.59 376.21"/><polyline class="cls-1" points="453.07 350.62 470.14 360.32 483.63 362.31 489.31 360.89 495.13 360.75"/><polyline class="cls-1" points="442.62 417.69 471.27 408.18 469 404.49 453.07 385.6 462.08 368.15"/><line class="cls-1" x1="431.26" y1="380.24" x2="457.42" y2="377.18"/><polyline class="cls-1" points="469 404.49 480.08 385.74 478.43 378.71 482.77 372.85"/><polyline class="cls-1" points="408.5 387.73 419.87 391.99 429.8 389.86 430.33 377.18"/><polyline class="cls-1" points="458.61 412.38 462.47 423.8 447.98 425.34"/><polyline class="cls-1" points="451.24 433.57 464.74 432.75 464.74 430.05 475.89 430.62 480.36 441.56 485.9 440.56 486.47 446.39 484.91 451.92 472.48 472.64"/><polyline class="cls-1" points="471.39 400.44 478.43 403.64 475.89 408.32 486.47 408.32 485.19 410.31 481.78 410.31 481.78 413.72 477.38 414.57 477.95 417.69 480.08 417.69 479.79 422.53 492.15 418.86 489.31 412.38 481.78 413.72"/><polyline class="cls-1" points="500.96 376.48 498.37 389.86 499.66 390.71 489.31 412.38"/><polyline class="cls-1" points="479.41 480.03 492.15 462.58 497.55 465.42 504.58 453.49 495.13 439.57 489.31 426.36 489.31 421.96 492.15 418.86 498.37 420.96 498.37 429.12 503.65 433.75 503.51 435.59 510.47 437.72 514.59 437.44 519.84 438.86"/><polyline class="cls-1" points="485.34 450.4 489.31 451.35 495.13 450.88 500.96 444.4 508.34 442.27 512.46 449.45 520.7 447.38 519.84 438.86 522.68 438.86 518.85 412.38 515.87 407.05 520.7 398.38 515.01 391 542.42 388.67 545.59 385.41"/><polyline class="cls-1" points="499.66 390.71 506.64 392.92 512.6 394.43 517.29 398.67 519.96 399.71"/><polyline class="cls-1" points="520.46 423.53 516.15 423.53 515.46 429.12 509.81 426.93 509.81 430.76 506.35 429.12 506.35 431.47 501.05 431.47 500.39 435.02 497.4 434.03 496.41 430.76 491.78 431.96"/><polyline class="cls-1" points="502.29 444.01 503.37 448.09 506.12 448.09 506.12 452.92 517.57 457.18 520.46 461.51 523.82 460.16 525.52 463.29 528.79 460.16 532.91 461.51 538.05 493.27"/><polyline class="cls-1" points="492.86 486.86 494.42 480.03 499.63 480.03 499.66 477.91 506.75 481.32 500.53 468.64 501.66 465.13 509.81 460.16 511.92 461.51 517.57 457.18"/><polyline class="cls-1" points="519.16 447.77 522.12 458.03 519.16 459.56"/><polyline class="cls-1" points="491.78 451.15 480.36 468.64 480.36 470.88 476.38 477.67"/><polyline class="cls-1" points="532.91 461.51 531.21 453.06 549.24 446.1 561.6 428.21 556.48 425.34 560.75 418.38 554.78 415.71 556.48 406.62 552.65 406.62 554 387.09"/><polyline class="cls-1" points="534.61 472.02 538.05 468.64 543.13 468.64 543.13 470.33 546.4 470.33 549.67 472.02 550.24 468.64 557.49 468.64 557.49 460.16 553.93 460.16 554.35 457.18 555.92 446.67 550.68 444.01"/><line class="cls-1" x1="600.76" y1="438.31" x2="595.27" y2="448.64"/><line class="cls-1" x1="613.38" y1="451.15" x2="610.89" y2="456.68"/><polyline class="cls-1" points="598.02 450.05 600.76 460.16 590 462.86 582.62 461.51 577.08 467.97 568.98 464.41 567.42 469.39 564.01 468.64 563.3 472.02 535.1 475.07"/><polyline class="cls-1" points="584.03 442.85 583.18 446.67 575.94 444.76 563.59 435.02 560.6 439 556.2 460.16"/><polyline class="cls-1" points="587.3 444.01 585.03 451.15 588.58 452.21 594.16 483.81"/><line class="cls-1" x1="598.02" y1="460.85" x2="600.76" y2="482.69"/><line class="cls-1" x1="606.28" y1="454.31" x2="610.89" y2="480.99"/><polyline class="cls-1" points="614.63 458.61 616.56 469.68 619.59 469.68 619.59 471.77 614.63 472.64 614.63 480.35"/><polyline class="cls-1" points="627.17 465.06 624.46 477.67 621.96 492.68 616.42 504.9 618.12 515.55 620.96 515.55 618.26 526.34 609.32 524.07 610.89 513.84 600.76 514.98 615.28 501.06 617.11 501.92"/><polyline class="cls-1" points="496.91 502.77 519.16 514.98 523.82 526.34 522.12 533.44 534.61 535.57 538.05 528.61 547.4 532.88 552.79 519.81 552.79 511.86 539.87 497.68 539.64 493"/><polyline class="cls-1" points="600.76 514.98 590.57 516.26 572.39 514.29 565.72 516.26 557.49 515.27 555.49 520.24 552.79 519.81"/><polyline class="cls-1" points="547.4 532.88 538.73 552.77 567.93 566.68 578.78 543.67 582.62 547.22 589.59 532.88 590.43 529.04 598.02 515.33"/><polyline class="cls-1" points="609.32 524.07 606.28 523.22 604.35 530.74 602.78 530.74 601.36 538.56 598.95 541 594.16 536.57 587.65 536.88"/><polyline class="cls-1" points="558 561.95 556.91 569.23 552.79 567.53 552.79 574.2 549.24 574.2 548.39 584.43 526.94 582.01 518.85 607.58"/><line class="cls-1" x1="499.98" y1="589.54" x2="521.72" y2="598.5"/><polyline class="cls-1" points="522.47 596.14 534.9 597.35 534.9 599.91 562.59 600.9 562.59 602.75 560.75 602.75 561.6 604.88 564.86 604.88 564.86 610.13 559.32 609.71"/><polyline class="cls-1" points="564.23 636.37 566.28 627.6 571.54 627.6 569.76 618.94 573.24 610.7 564.86 610.13"/><line class="cls-1" x1="538.73" y1="552.77" x2="526.94" y2="582.01"/><polyline class="cls-1" points="567.93 566.68 571.68 568.66 581.76 586.84 581.76 592.24 583.47 596.14 589.86 600.33 599.09 614.54 611.3 628.88"/><polyline class="cls-1" points="570.31 621.63 582.76 619.37 599.09 614.54"/><polyline class="cls-1" points="551.22 600.49 551.22 598.5 558.61 598.5 554.07 590.96 554.92 584.14 548.39 584.43"/><polyline class="cls-1" points="598.95 541 601.36 542.67 605.2 542.67 613.97 549.78 619.59 549.78 623.09 544.09 649.51 545.39 663.43 545.39 677.63 547.08 699.78 504.19 704.33 497.68 704.33 492.36"/><line class="cls-1" x1="699.78" y1="504.19" x2="667.53" y2="493.27"/><polyline class="cls-1" points="669.75 486.86 646.52 476.07 639.15 471.23 582.62 442.12 585.74 438.86 583.47 437.44 589.58 427.07 595.42 424.3"/><line class="cls-1" x1="618.26" y1="526.34" x2="652.9" y2="535.57"/><polyline class="cls-1" points="607.78 544.77 603.92 552.77 601.93 551.62 595.54 570.65 590.29 568.81 586.45 584.14 590.71 587.41 581.76 586.84 562.88 584.76 562.88 587.69 567.93 587.69 567.93 592.81 570.31 591.96 571.4 596.14 565.86 596.78 564.86 604.88"/><polyline class="cls-1" points="637.72 544.77 634.17 561.28 637.15 561.28 631.04 584.14 645.39 587.27 654.19 592.32 666.55 591.67 673.93 594.02 689.13 597.78 704.33 606.16 725.35 578.32 726.77 554.89 736.71 558.44 740.12 552.77 741.96 554.75 749.2 548.78 752.76 552.77 770.4 540.23 778.46 529.18 781.44 520.24 780.73 515.33 783.18 508.62"/><polyline class="cls-1" points="737.84 480.19 711.57 474.08 704.33 466.55 693.76 447.28 691.12 443.48 681.46 440.28 677.77 429.63 672.8 426.08 665.56 414.29 646.38 424.3 642.55 414.29 639.14 415.14 640.24 421.96 647.52 445.39 644.11 455.47 644.11 460.85 638.86 463.29 638.86 467.65 636.38 469.8"/><polyline class="cls-1" points="617.11 453.3 617.11 448.64 620.96 448.64 620.96 436.87 644.87 436.87"/><line class="cls-1" x1="629.34" y1="455.47" x2="630.19" y2="436.87"/><polyline class="cls-1" points="608.32 448.23 618.55 439 612.13 436.87 604.7 443.48"/><line class="cls-1" x1="620.96" y1="445.08" x2="614.61" y2="442.55"/><polyline class="cls-1" points="604.7 336.07 595.27 379.21 651.92 393.55 655.33 401.22 666.27 394.55 673.51 403.92 683.73 395.21 692.97 399.71 700.78 402.22 714.41 410.17 748.51 423.27"/><polyline class="cls-1" points="745.09 345.55 742.1 407.61 740.26 407.61 740.26 420.1"/><polyline class="cls-1" points="727.65 342.33 728.47 356.35 726.34 357.77 714.41 410.17"/><polyline class="cls-1" points="699.7 353.56 699.36 368.13 696.66 385.41 706.17 397.96 706.9 405.79"/><polyline class="cls-1" points="687.93 357.83 687.11 364.58 691.12 367.99 689.11 371.68 694.81 379.67 693.82 381.62 688.99 378.59 686.57 381.62 688.42 385.41 685.58 391.99 694.81 395.83 692.97 399.71"/><line class="cls-1" x1="697.55" y1="379.67" x2="694.81" y2="379.67"/><polyline class="cls-1" points="523.31 324.57 515.46 361.32 511.18 361.32 511.18 363.73 576.79 376.48 583.99 329.54"/><line class="cls-1" x1="548.22" y1="330.75" x2="541.91" y2="369.7"/><line class="cls-1" x1="516.89" y1="379.67" x2="516.89" y2="364.84"/><polyline class="cls-1" points="561.6 373.53 560.6 379.67 605.06 388.02 606.01 381.93"/><line class="cls-1" x1="559.17" y1="390.71" x2="562.29" y2="379.99"/><polyline class="cls-1" points="594.9 422.24 597.39 412.38 597.39 405.91 600.14 387.09"/><polyline class="cls-1" points="628.77 328.51 628.77 350.54 626.18 368.84 623.8 382.33 639.14 415.14"/><polyline class="cls-1" points="617.79 384.91 606.01 412.38 606.28 417.69 602.78 420.32 604.7 421.39 598.1 434.81"/><polyline class="cls-1" points="628.75 392.92 623.8 390.71 622.38 392.92 625.57 396.39 624.94 406.76 610.89 401.01"/><polyline class="cls-1" points="640.7 390.71 648.23 386.17 669.75 385.35 673.65 387.09 683.73 395.21"/><line class="cls-1" x1="673.8" y1="359.44" x2="669.75" y2="385.35"/><polyline class="cls-1" points="679.47 360.89 671.89 383.47 670.04 383.47"/><line class="cls-1" x1="656.89" y1="348.81" x2="650.78" y2="386.07"/><polyline class="cls-1" points="669.13 420.1 678.8 412.3 677.06 409.86 682.03 405.79 676.28 401.56"/><line class="cls-1" x1="672.8" y1="426.08" x2="705.58" y2="416.19"/><polyline class="cls-1" points="687.11 442.15 701.78 435.02 704.18 438.31 711.2 432.5"/><line class="cls-1" x1="692.61" y1="420.1" x2="682.03" y2="405.79"/><polyline class="cls-1" points="698.74 401.56 696.66 409.86 690.98 410.83 693.39 416.19 690.83 417.69"/><polyline class="cls-1" points="745.09 345.55 757.58 350.81 763.83 357.06 767.24 366.29 778.89 374.95 781.73 383.47 786.27 384.18 790.57 382.57 792.38 387.73"/><line class="cls-1" x1="779.21" y1="411.31" x2="771.5" y2="369.45"/><polyline class="cls-1" points="760.42 417.98 761.24 402.79 761.24 392.13 769.17 392.13 766.53 370.55 762.13 360.4 762.34 355.56"/><polyline class="cls-1" points="726.26 433.03 729.18 438.7 742.67 450.36 757.16 437.32 757.16 448.66 765.54 449.51"/><line class="cls-1" x1="735.23" y1="429.1" x2="750.68" y2="443.16"/><polyline class="cls-1" points="697.97 454.97 706.32 450.36 711.2 449.65 712.28 447.24 714.41 450.36 716.68 447.81 712.42 443.83 713.33 438.7 700.78 402.22"/><line class="cls-1" x1="676.62" y1="475.38" x2="696.66" y2="452.57"/><line class="cls-1" x1="712.28" y1="497.23" x2="725.49" y2="477.32"/><line class="cls-1" x1="727.95" y1="509.16" x2="742.95" y2="488.11"/><polyline class="cls-1" points="677.63 547.08 703.05 549.78 696.66 579.74 689.13 597.78"/><polyline class="cls-1" points="686.69 597.17 692.68 578.89 688.14 577.04 673.37 575.91 664.99 575.2 643.4 572.43 643.4 564.97 649.51 545.39 670.24 485.44 678.8 476.72"/><polyline class="cls-1" points="658.45 545.39 657.32 555.6 660.16 556.17 658.74 562.56 656.47 562.56 654.07 573.8"/><line class="cls-1" x1="648.77" y1="573.12" x2="645.39" y2="587.27"/><polyline class="cls-1" points="664.99 575.2 662.86 587.84 661.44 591.94"/><line class="cls-1" x1="666.55" y1="591.67" x2="673.37" y2="575.91"/><line class="cls-1" x1="683.66" y1="547.72" x2="675.64" y2="576.08"/><polyline class="cls-1" points="690.34 548.43 681.32 576.52 676.78 591.67 673.93 594.02"/><polyline class="cls-1" points="682.14 596.05 688.14 577.04 697.93 549.23"/><line class="cls-1" x1="684.98" y1="565.1" x2="691.45" y2="567.64"/><line class="cls-1" x1="708.5" y1="600.63" x2="717.46" y2="606.77"/><line class="cls-1" x1="697.37" y1="602.32" x2="675.25" y2="621.13"/><line class="cls-1" x1="695.95" y1="616.4" x2="689.36" y2="609.13"/><polyline class="cls-1" points="691.45 599.06 689.36 603.03 670.47 619.24"/><line class="cls-1" x1="664.61" y1="617.07" x2="683.66" y2="596.42"/><polyline class="cls-1" points="653.04 612.96 660.16 606.16 669.96 592.75"/><line class="cls-1" x1="671.72" y1="609.37" x2="662.52" y2="602.92"/><line class="cls-1" x1="661.44" y1="604.41" x2="654.07" y2="602.32"/><polyline class="cls-1" points="652.54 604.41 648.77 602.92 643.4 609.37 647.08 610.84 663.21 591.85"/><polyline class="cls-1" points="739.92 588.4 729.46 581.02 731.03 577.47 727.76 575.91 725.35 578.32"/><polyline class="cls-1" points="647.08 604.95 642.12 602.32 639.85 606.95 643.4 609.37"/><polyline class="cls-1" points="635.58 585.13 633.89 591.67 636.3 594.02 632.89 596.42 619.59 590.78 620.54 576.76 625.36 577.61 626.07 572.43 634.5 571.22"/><polyline class="cls-1" points="595.54 570.65 600.76 572.43 596.39 587.98 590.71 587.41"/><polyline class="cls-1" points="722.51 505.54 720.52 510.58 695.95 548.78"/><polyline class="cls-1" points="736.71 558.44 757.73 564.12 765.65 561.28"/><polyline class="cls-1" points="772.2 542.4 750.34 558.15 741.96 554.75"/><line class="cls-1" x1="585.03" y1="485.35" x2="590.57" y2="516.26"/><polyline class="cls-1" points="520.46 518.16 527.8 520.24 546.4 521.07 551.87 522.03"/><line class="cls-1" x1="560.73" y1="489.44" x2="565.72" y2="516.26"/></g><line class="cls-1" x1="402.42" y1="160.08" x2="405.48" y2="166.22"/></g><g id="Layer_4"><polygon class="cls-2" points="672.66 678.3 660.16 664.1 670.1 655.72 654.34 636.98 656.89 631.86 649.65 622.92 639.85 622.92 638.36 621.05 641.02 616.63 643.05 618.08 647.08 610.84 668.04 618.28 678.94 622.6 680.06 624.89 682.62 622.86 684.69 625.37 691.45 620.73 701.68 610.4 706.69 607.84 710.84 612.21 716.54 607.36 727.83 599.64 740.4 590.06 739.92 588.4 765.65 561.28 769.37 568.38 748.92 588.4 738.7 602.89 704.18 643.37 709.72 651.04 697.37 663.39 690.12 654.02 672.66 678.3"/></g></svg>