<?xml version="1.0" encoding="UTF-8"?><svg id="svg4942" xmlns="http://www.w3.org/2000/svg" viewBox="0 0 2447.41 1131.01"><defs><style>.cls-1{stroke:#fb0;stroke-width:1.2px;}.cls-1,.cls-2{fill:none;stroke-linejoin:round;}.cls-2,.cls-3{stroke:#000;}.cls-3{fill:#ffb600;stroke-miterlimit:10;}</style></defs><polygon class="cls-2" points="9.63 180.73 6.8 178.88 4.94 178.75 7.29 177.39 9.63 180.73"/><polygon class="cls-2" points="19.01 162.58 16.18 161.97 17.16 160.24 18.89 160.61 19.01 162.58"/><polygon class="cls-2" points="22.47 190.36 21.11 189.12 23.83 187.64 22.47 190.36"/><polygon class="cls-2" points="17.78 181.1 16.05 180.85 15.43 177.15 20.25 177.52 22.22 177.89 24.94 177.27 19.88 180.98 17.78 181.1"/><polygon class="cls-2" points="4.82 185.29 3.09 186.04 .5 181.96 4.32 182.21 4.82 185.29"/><path class="cls-2" d="M333.22,408.22l-5.48-.44c-5.24,2.55-6.13,2.6-10.3-.88l-2.19-7.23-8.11-2.63-10.3,3.51v-5.04l7.01-7.23-.44-6.57-5.04-7.23,.69-4.34-2.02-5.57,8.86-9.11,1.77-12.66-8.1-6.33-2.28-5.82,3.54-5.82v-5.32l-7.85-9.37-.25-6.33,4.81-1.27,1.77-3.8-8.35-2.03-11.39-13.67,3.29-6.33-1.27-9.88-4.56-5.32-.51-11.05,22.21-10.3,1.85-8.78-6.28-6.6-9.75-17.55-29.07-8.94-1.45-12.32,8.38-15.06,.84-10.92-7.29-7.1-2.34-11.43-3.81-7.32-4.69-1.76-6.15-9.37-3.22-1.17-4.98,.88-9.96-5.56-3.81-7.32-6.15-1.17-2.05,2.93-9.37,1.46-8.2-8.79v-4.98l-5.27-2.63v-2.05l3.22-1.76v-3.22l-6.15-1.47-14.06,2.35-7.32-4.98,4.68-3.81,.59-8.49,4.1-2.34,1.17-5.27-6.74-3.51,3.81-2.64,2.34-16.7-9.67-11.43,1.44-10.04,7.84-13.57-7.74-7.22-5.76,11.89-1.4,9.35-15.74,3.02-7.65,5.4-8.3,.89-11.03,12.48-7.17,3.62-2.74,10.38-10.87,.4-6.77,5.96v2.34l7.25,.4,4.34,3.06-5.71,1.93-.08,2.5,2.74,.64,.08,4.99,4.99,3.71-.08,2.34-3.14-.08-.08,2.34-4.11,1.34,5.16,1.4-2.07,6.3,2.34,4.59,3.93,.43-3.75,4.65-6.3,.48-4.42-2.77,5.14-7.21h-2.42l.3-5.33-2.01,.72-2.17,4.91-10.24,5.72-1.12,7.01-2.74,.64-.08,2.66,8.7,.08,1.79,4.34,2.4-3.14,3.7,2.34-2.74,3.54,1.37,6.12,2.34,.8-1.53,14.09-5.48,3.3-2.57,3.46-6.44,.08-2.42,3.14-3.46-1.77-.16-9.91-2.66,4.27-.08,5.56-3.95,4.59h-2.42l-3.95,2.17,3.46,.72-.89,4.83,1.85,3.3,.89,4.99-4.59,2.34-3.62,5.56-6.92,4.59-6.85,2.26-4.83,4.43,1.45,3.71,2.66-.64,3.62,1.37,1.93-3.54,6.12-.57,.64-5.15,10.95-10.39,4.51,.08,2.74-8.54,7.25-.08,5.15-6.84,4.43,.97-1.45,4.34,2.42,17.55h3.46l1.05,2.01-5.88,4.67-4.19-3.38-1.77,3.78-7.41,8.38,4.51,5.48,11.92-9.67h4.19l-.32,10.95-6.44,7.08,.63,7.57,5.8,3.71,4.4,1.94,1.76,14.27,6.17,3.53,1.23,7.75-6.52,3.87-.35,9.16,7.58,4.41,5.29-.35,16.21,6.7,7.4,.35,1.94-5.29,7.4,5.46-4.41,4.05,.35,10.22-3.88,4.41,5.64,2.82s-4.05,15.86-4.23,16.56c-.18,.71-5.11,5.11-5.11,5.11l.53,9.69-3.88,.53v7.22l-1.06,5.47,5.99,4.05,1.06-2.99,4.93,1.23v6.52l4.58-1.41,1.41-9.34,6.17-.35,8.81-9.87,.35,6.52,4.93-.71,11.98,8.28,13.57-.53,1.41,1.76s-6.52,2.29-7.22,2.29-.71,6.34-.71,6.34l2.29,2.64s2.47-3.87,2.64-5.11c.18-1.23,4.93,5.29,4.93,5.29l4.41,.18-.7,3.7,14.27,9.69,1.59,4.76,9.51,.53,2.11-2.99h1.23l1.23,3.17,5.81,2.29-4.23,3.52,3.17,16.56,4.76,.71,2.46,4.4,25.9-1.76,2.29,4.93-.18,2.64-4.58,3.87-1.06,8.11,1.26,2.79-4.48,5.87-2.93,.62-1.08,3.09,4.79,2.78,.31,3.24-4.02,4.79v4.17l1.85,1.24,.15,9.26,5.41,1.85,2.93,4.01v9.11l-2.47,1.39v2.16l4.48-.15-1.08,2.93,2.93,1.54,.15,3.71,4.02,.62,4.02,4.48,.15,7.26,3.09,2.16,.31,8.8,1.39,2.16,.77-3.4,3.4-.62v4.94l5.1,2.93,.31,5.41,9.26,.15,1.39,2.01,5.87,1.23,4.63-2.47,2.32,1.39v1.7l2.01,5.56,7.11,2.32h6.64l.62-2.78,2.78-.31,.93,2.63,3.24,6.18h4.63l10.04,19.46,6.8,5.56-.77,7.41,3.71,2.78,1.08,8.65-3.09,1.39h7.11l9.11,7.72-.16,2.78-6.79,.62-7.57,10.65-6.79,1.85,4.79,3.55-4.94,4.17,.16,4.79,4.48,2.47-1.23,19.77,2.01,1.39v13.74l7.41,1.7,1.08,4.79-3.09,4.17,.31,2.16,4.17,.46,1.39,3.24-3.4,7.57,4.94,2.78-.07,17.39-5.21,4.6v14.49l-5.48,1.29-8.05-6.12-4.19,2.9,1.61,15.78-7.08,1.61-2.29,5.06,1.31,2.62-1.31,5.89-3.71-.22-1.09-2.62-4.59-2.84-9.39,1.09-.44,5.24-3.93-1.53-1.53-3.06-11.36,2.84-4.37,5.46-4.81-.65,1.09,4.37,2.84,1.53s-7.42,7.21-8.3,7.42c-.87,.22-3.93-.66-3.93-.66l-1.31,4.15,3.06,2.19,.73,3.81,11.12,3.53,1.74,4.98,4.92,2.29,5.57,7.21,11.15,7.54v3.61l6.88,5.24,5.57,1.64,6.23,8.52,8.2-.66,2.62,2.62,.66,4.26,9.5,18.03,5.57,2.3,3.28,12.78,3.61,1.64,.66,8.19-1.97,2.95-1.31,4.59,2.62,3.61v8.52l-1.97,2.3,1.96,9.18,7.11,6.98,7.96,1.61,5.3,6.91-4.84,12.9-11.29,9.44-10.86,3.29-6.1-.73-.55,4.58,4.38,6.68,.23,14.06,2.53,1.38,.69,4.38-4.61,8.29h-3.69l-5.3,5.76,.46,11.75,10.14,5.76,.46,5.3,6.45,.23,8.07,9.68,.92,5.53,2.77,.69,.92,5.53,6.22,.69,7.14-5.53,3.72-7.04,7.45-4.05-3.1-9.14,3.15-7.63,6.13-.44,2.02-2.82,5.64,.4,2.02,4.03,5.65,1.61,2.42,6.05-6.46,6.05-5.13,4.72-1.99,6.08-10.72,7.69v4.51l2.9,1.29v6.12l3.87,1.93-3.87,6.77,.32,6.44-6.12,10.63,3.87,4.83,3.22,8.7,4.83,5.8v16.1l7.08,9.02v11.92l3.87,3.54h8.05l2.9,3.54h4.19l2.9-3.54h5.48l8.05,2.9,87.93-83.74,.64-13.21,7.09-8.69-.97-28.67-2.9-3.54,.64-8.38,16.43-13.85,10.63-21.9,.65-19.65,7.73-16.1,.32-18.36-7.09-10.63-.32-13.21-5.15-4.51,.64-18.68-7.09-6.44v-9.34l-3.54-2.26-.64-6.76,5.48-8.7,6.76-13.85,6.44-.64,3.54-2.58,.24-6.12,8.13-.32,1.77-10.06-4.99-5.48,.97-7.41,6.6-8.14,2.9-12.48,.08-59.35-9.02-8.7,.56-17.31-10.71-11.84-.16-33.66,4.03-5.88,.4-20.21-21.5-23.35,2.5-12.64-2.01-12.56-26.9-5.4-9.66,1.93-6.85-13.29-12.16-.08-12.4,5.64-11.35-5.15-.48-7.33-22.31-14.42-11.84-16.43-14.49,.97-1.61-6.04,3.3-4.75-15.38-10.71-7.49,5.15-8.94-.08-7.81-18.28-11.68,.48-.64,5.56-12.65,7.25-5.96-4.51-1.77-9.35-4.68-1.99-3.55-3.69,.44-7.83-14.63-2.96-2.07-5.62,2.22-6.65-4.14-2.22h-7.98l-4.28-3.99-3.03-8.68Z"/><polygon class="cls-2" points="64.66 135.84 67.39 135.84 70.58 130.37 72.86 132.19 76.04 131.28 77.41 129.91 80.6 128.09 80.13 123.2 75.13 122.03 72.4 118.53 68.76 118.53 66.94 114.43 66.48 122.17 63.57 127.34 64.66 135.84"/><g id="layer2"><path class="cls-2" d="M235.93,121.54c-1.74,.33-2.74,.33-3.74,4.33-2,5-6,7-11,6-2,3,0,7-3,10-2,2-5,3-6,6v4h-3c-2,3-7,6-10,3,0-1,1-4-2-5-5-1-10,1-15-1-2-1-4-3-7-3-2,0-2,3-3,5s-2,3-4,2,0-4-1-6c-1-1-2-1-3-1-1-5-4-8-9-7,0-2,0-3-1.35-5.22"/><path id="path2386" class="cls-2" d="M167.69,152.96l-4.51,2.9-1.93,5.16-5.8,3.22,1.93,3.87,9.34,3.54-.32,6.44-9,3.32,.64,3.87-3.22,1.29,1.29,2.58h3.86l6.52,4.03-1.19,5.31,2.38,8.6h-6.12l-4.51,2.9-5.28-4.32-13.2-.37-10.51,4.37-5.1,7.22-7.3,2.51,.42,5.85-5.08,4.48-2.39-4.18-5.16-4.53-8.26,3.48"/><path id="path2388" class="cls-2" d="M183.71,150.25l7.82-10.49,3.54-21.58,4.83-6.12"/><path id="path2390" class="cls-2" d="M90.24,164.52l-1.14,10.35,6.12,10.31,.15,5.69"/><path id="path2392" class="cls-2" d="M320.13,480.53l9.78-1.19,3.22,3.87h5.8l.64-4.19,5.16-4.83,2.88,.28,3.02-3.51,4.52-.2,1.77,3.1,5.75,.68,1.51,3.01h3.54l1.28-3.44,8.63-3.1,.62-9.11"/><path id="path2408" class="cls-2" d="M435.15,771.78l4.19-11.59,13.53-14.17,8.37-1.29,5.8-8.7,.64-5.8,8.7-4.83h5.47l3.87-7.41,4.83-1.29,7.73-8.05,2.9-.64,1.29,3.54,4.83,1.61,4.83-6.77h6.44l1.61-5.47h10.63l7.41-9.34,9.98-8.05,2.26-.64,.32,2.58h20.61l4.83,5.8h6.12l.32,2.9-4.19,2.26,2.26,3.87,4.51-1.61,4.18,2.9v4.19h9.02l2.25,3.54-.97,4.83h10.59"/><path id="path2410" class="cls-2" d="M577.36,812.4l-4.8-2.69-2.22-6.77,3.18-5.47-4.9-5.69-9,.53-8.84-7.25-4.19-7.99-7.1-1.68-2.46,3.15-12.25-1.2-6.28,8.07h-3.59l-2.99-5.08h-4.48l-1.2,3.88-20.92,9.57v4.48l-7.18,.3-2.09-3.29-3.88-.6-2.39,2.99h-9.86l-3.88,4.48"/><path id="path2412" class="cls-2" d="M365.43,996.37l4.36-9.46,10.63-8.38h1.93v3.87h6.77l2.26-12.56-3.22-2.57v-4.51h3.86l6.12-3.22-5.37-8.64,3.3-8.56,5.02-1.46-.32-8.7,12.88-10.95v-5.15l-5.8-1.29,2.26-12.88-3.87-2.58-1.29-4.51,4.19-5.48,3.86-1.61,.64,3.87h7.09l7.73-4.51-2.39-12.19,2.26-2.58h6.12v-4.83l-2.9-1.61,.32-4.83,9.99-7.41v-1.61l2.57-.64,3.87,4.51,.97-3.54,4.51-.97,5.15-6.12v-6.44l-5.48-4.19-3.22-11.59-4.19-1.61-.32-5.48,3.87-.96,4.51-4.51,1.61-5.8-1.29-7.09,.97-3.54-5.21-9.14-7.73-.97-6.6-12.16h-7.41l-5.16-4.51,2.26-3.22-.32-12.56,2.26-2.9h4.51l2.25-1.93v-6.44l-6.76,.32-2.58-3.54h-9.66l-7.41-7.41,1.29-9.02-7.09-6.44,1.93-4.83-6.44-3.22"/><path id="path2424" class="cls-2" d="M356.02,527.34l6.09-2.63,.97-3.54,5.15-1.29,1.61,3.87,3.54,.32v-3.22l15.78,.64-3.22-6.44,4.5-5.41h3.87l8.69-6.76v-5.48l7.09-6.12,5.47-2.54v4.51h4.51l.32-6.12,7.41,.64,2.58-2.58-4.19-3.54v-2.9h2.58l.32-3.54-5.4-4.1"/><path id="path2426" class="cls-2" d="M348.09,475.37l-1.21-5.92-3.87-2.28-.36-4.93,2.92,.5,2.31-8.13,3.35-1.33,1.65-3.04-4.73-.16,1.86-4.69-8.2-.28-2.12,1.78-6.47-5.99-3.7,4.8-5.51-.59"/><path id="path2490" class="cls-2" d="M399.92,587.88l1.29-6.53-3.54-2.9v-4.19l4.51-5.47-9.82-10.31-11.11-15.78-4.51-1.93v-7.09l-15.78-1.93-6.44-4.51-6.44-1.61-3.54-7.66-15.25-8.82-5.04-11.54-5.16-2.58,.32-16.75,2.26-2.26-2.26-2.9-7.09-.32-1.29-3.54,6.12-3.22,2.9-13.21,4.45-7.46-.35-4.92,2.94-.86-.74-11.01-5.98-2.03-5.28-8.94,.2-7.35,4.49-2.81"/><path id="path2498" class="cls-2" d="M168.43,71.9l.14-5.56-3.08-.22-1.05,2.84-9.26-.82-2.24-2.5,2.21-2.68-3.54-4.19-7.08-.64v-5.47l-6.44-1.29-1.33-2.44,2.58-2.9,5.8,1.61,3.22-7.09,3.58,2.44,1.05-7.44,2.6-.24,.08-10.12-5.37-2.81"/><path id="path2696" class="cls-2" d="M90.71,164.56l2.58-3.87h6.12l4.51-2.25-5.48-4.19v-6.44l-3.86-.64v-3.54l2.25-2.26,10.63,.64,2.57-5.48-5.47-1.61,1.29-16.75h8.7l1.29-2.25-2.58-3.22-4.51,.32-.64-3.54,3.22-3.22h4.83l3.86-5.48v-7.41l2.9-9.66,2.9-.64,4.83-8.7-4.83-1.29-.97-2.58,4.83-.64,1.29-7.41,4.19-.64,2.71-10.14"/><path id="path2698" class="cls-2" d="M91.55,193.75l6.25-4.07,4.83,.32,6.76-6.12-.32-8.05,1.61-3.54,7.41,.64,1.29-5.8,6.12-1.93,.64-2.58-2.9-1.29-.32-3.22,3.22-2.58v-2.26h-5.48l-10.31-7.73v-3.22l-2.26-.32"/><path id="path2700" class="cls-2" d="M174.78,224.47h2.26l1.93,3.22h2.58l.64-6.77,5.48-8.37,7.41-2.26,6.44-7.08h1.93l.64,2.9,5.48,2.26,.32-4.19,3.87-4.19"/><path id="path2702" class="cls-2" d="M167.69,267.31l4.64-.13,2.57-3.88,1.29-8.7h3.22l5.48,8.05,4-1.36,3.54-4.19h6.44l9.34,6.12,.64,8.7h4.19l9.02-7.08h2.25l.32,6.44,14.17,.64,2.25,2.9,2.58-.32,3.54-3.87h9.98l3.61,10.85,11.33,.79,2.07-2.31,6.68,2.24"/><path id="path2704" class="cls-2" d="M251.31,304.33l-12.19-.71-3.22-6.12h-5.15l-3.54,4.19-10.31-.64-9.98,6.44h-3.87l-1.29-4.19-8.05-5.8h-5.15l-.64,4.51h-3.22l-1.61-3.54h-10.95l-.56-5.42-4.71-1.06,.83-7.28,2.9-1.93,1.93-3.54-7.55-7.92-7.31,2.84-15.82-2.85"/><path id="path2840" class="cls-2" d="M445.3,1126.72l5.51-12.97,6.98-12.51,7.34,.26,3.31-8.37-3.54-2.57-.64-5.8,3.5-3.27-4.4-4.91-7.84-1.82-7.55-7.54,.56-14.12,8.23,2.41,2.42-3.95,23.66-11.66,5.5,2.12,8.51-2.27,.46-5.46-6.75-1.9-1.26-4.37,5.17-8.73,3.93,2.89,5.23-.29,3.62-7.57,11.15-.94,7.09,2.43,16.84-12.73,3.92-1.22,2.78-4.36,14.12-.79"/><path id="path3484" class="cls-2" d="M130.65,74.05l1.93-.97,8.41,2.74-.64,3.54,7.81,.12-.51-4.02,3.76,6.2,7.09-1.11,1.33-3.32,5.76,5.09"/><path id="path3486" class="cls-2" d="M189.18,97l-7.33,5.51-6.82-1.21-3.48,5.28h-5.47l-3.22,2.9v1.93h3.87v3.22l-2.9,1.61v4.51l-6.44,6.12-6.8-3.32-.64-6.12-7.87-4.77,.24-4.55,4.77-1.85,4.19-4.51,.11-8.85,3.66-5.5-3.22-1.29-.32-4.51"/><path id="path3488" class="cls-2" d="M116.16,116.24h4.51l2.9-3.54,7.41-.32,2.26-2.9,1.93-.97v3.87h7.03"/><path id="path3490" class="cls-2" d="M126.14,152.96v-5.48l9.34-.32,8.69-6.12,2.58-5.48,7.08-1.93,2.9-7.09"/><path id="path3492" class="cls-2" d="M219.87,133.96l-9.99-1.93-4.19-3.54v-5.48l5.15-3.22-.7-8.96"/><path id="path3494" class="cls-2" d="M256.03,196.92l-7.81,1.78-6.44,5.8h-7.08l-.97,2.9-3.54-.97v-2.89l-6.12-2.9v-2.9h-5.48l-.32,4.19-4.19-1.61-.84-6.06,3.18-4.13"/><path id="path3496" class="cls-2" d="M216.07,189.76l.66-6.28-.32-1.93-6.12-.32,.64-4.51,2.26-.32-.64-8.05,3.22-.32,.97-4.51-3.22-1.93v-4.19l-1.05-5.4h2.9l4.83-5.8v6.12l1.93,3.54h3.22v-2.9l5.8-2.54,2.58-1.93,.32-7.73,6.62-2.52,2.58,.65,1.11,6.66,.9,5.58,6.29,3.43-.73,10.23-7.95,5.38-9.52-.42-13.14,11.56,.32,7.73-4.64,1.38"/><path id="path3498" class="cls-2" d="M141.06,271.44l5.7-5.1,21.58,.64,.32-7.73-3.54-.32-.64-1.93,6.44-3.54,.32-9.34,5.16-4.51,2.25-5.15-4.51-2.26,.32-9.34-3.54-1.93v-2.25l2.57-.64,1.94-3.54-2.58-2.58h-3.22l-4.83,4.83-2.26-2.9-5.8-.64v-2.9"/><path id="path3500" class="cls-2" d="M277.14,250.11l-2.09-6.46-6-1.42-1.64-2.45-4.36,2.58-8.92,.17-2.69,5.4h-3.22l-7.41-4.45h-7.41l-.64-1.93,2.67-2.22,.17-8.89-3.91-1.13-3.16-3.53-1.61,4.51-5.8-3.87-1.89-5.48,3.88,.11,1.91-5.9v-5.15l4.83-3.54"/><path id="path3502" class="cls-2" d="M258.48,273.44l-3.89,.78-.19,4.28-1.78,1.49,3.98,2.13v2.57l3.22,1.61-1.61,7.08,7.08,2.9-2.9,2.9h-6.12l-4.51,3.54v10.95l-3.86,2.26v8.05l7.08,2.9v2.9l-2.57,.32-.55,3.47,7.59-1.56,1.36,2.14,4.09-.19,.97-2.34,2.73-.58,1.95,3.31s13.63,3.89,14.4,3.89,15.96-2.53,15.96-2.53"/><path id="path3514" class="cls-2" d="M234.29,375.5l6.86-5.98-.99-12.99,9.02-9.02v-4.51l-4.19-.64,.32-1.93,3.54-.64-.64-6.76h4.19"/><path id="path3516" class="cls-2" d="M263.84,414.59l4.61-.12,2.57-4.51h2.26l1.29,3.87h2.9l4.51-5.8,.32-2.9h9.98l5.67-5.5"/><path id="path3534" class="cls-2" d="M447.15,486.83l-5.51,4.1-3.91,3.6,1.65,4.57,2.72-.03v7.56l8.37,4.51-.28,3.24,5.15,3.22v4.51h-2.9v6.44l-3.23,1.78,7.43,3.79-3.71,1.95-5.56-.81-11.12-.12-4.31-5.12-10.41-.22-2.31-6.1v-5.15l-4.51-.64-3.54,3.87v4.83h-5.48l-7.41-6.44,.64-3.54-4.82-6.61"/><path id="path3536" class="cls-2" d="M411.19,526.91l6.54,4.17,.44,5.38,2.51-.29,3.22,5.48,2.26,.32,2.26-3.22,19.8,3.25,2.58-2.58h2.9l2.59,6.17h4.83l.64,1.29h8.7l1.61-6.12,9.02-6.12,9.98,.97,1.61-2.9,3.22-1.93,1.61,4.19,3.54,.32,5.71-6.73"/><path id="path3538" class="cls-2" d="M371.12,580.85h5.15l5.69,3.07,3.86-.32,2.26,3.87,7.97-.32,7.73,2.9,8.05-.32,2.58,6.44v6.44l2.26,2.9,4.19-.64v4.83l3.87,.97,.32,5.15-2.57,.97-.32,5.47,2.25,.32-1.44,11.05-.32,6.44,2.57,3.22,6.12,.32,3.54,5.8h3.22l1.93,3.22-6.76,.97-2.26,4.51,3.87,5.47-.32,4.51-8.37,4.19h-6.44l-2.58,2.26,4.51,6.44h5.47l3.22,3.54-5.15,.64-4.19,9.98-4.19-1.61v-3.86l-4.51-1.29-1.61,9.34-13.85,8.37h-4.83l-15.63,.22-2.65-5.09"/><path id="path3540" class="cls-2" d="M353.26,816.92l-.37-13.01-9.66-6.76-8.51-18.84-3.22-.97v-5.47l2.26-.97,4.51-9.34,8.69-.97,9.99-7.73h8.05l1.61-2.9h5.15v2.9l3.87,.97,1.29-3.87,9.66-4.51,.64-3.22-9.34-13.85,3.22-1.61v-4.83l-3.2-4.76,5.15,.51v-10.89"/><path id="path3542" class="cls-2" d="M422.94,633.76l17.88,.45,13.99,2.76,12.89-1.61,18.33-1-.03,3.21,9.24,.81,10.99-.37,5.16-5.16,6.44-1.61,2.57,3.54,7.73,.64,4.51-5.8,3.22-.97,.32,3.87,10.33,2.09,3.54-4.36"/><path id="path3544" class="cls-2" d="M467.96,634.97l.69-3.22-12.05-7.25h-4.51v-10.63l-4.51-1.61v-5.8l1.93-.97,1.29-2.9-8.69-6.12v-6.44l4.43-.59"/><path id="path3546" class="cls-2" d="M548.97,631.22l.32,3.22,7.34-.61,3.13,2.97,3.24-3.43,4.63,.23,2.55-2.32,1.39,9.04,2.78,.93,3.25-3.48,1.62,.93v6.96l5.1,.46,2.32-7.42,5.1-.23"/><path id="path3548" class="cls-2" d="M589.23,581.56l-10.12,3.94-1.73,6.45-5.16,.58,.17,5.58,3.22,1.61-.64,2.26-3.54,3.54,5.56,3.51,.15,3.83-5.48-.1,.53,5.09-8.26,1.85-5.33,6.72h-4.41l-4.64,3.94"/><path id="path3550" class="cls-2" d="M485.91,634.84l.97-4.54-1.28-3.87h-3.54l-1.29,4.19-5.49-1.85-.97-9.34,7.45,1.39,2.13-3.08h1.93l2.71,3.72h3.87l-1.61-3.22,8.59-4.66,5.95-11.69,6.61-3.18,.93-12.73-9.29-1.34-1.29-5.15h-3.22l-2.57,3.87-15.14-.97-8.05,3.87-3.87-.64-2.19,7.01-6.44,.97-1.61-4.83-4.94,.79-.93-2.32-1.85-.69-.93,3.02-4.64-.46"/><path id="path3552" class="cls-2" d="M446.3,589.72v-7.09l-3.87-2.58-4.02-6.59-12-2.24,1.85-4.64,3.48-.46,5.56-4.64-.23,6.72,2.5,1.2,7.99,6.07,2.77-4.07h7.08l4.83-8.05-.32-3.54h3.54l-.32-8.38,5.16-1.29,.14-3.61,7.73-1.93,6.44,1.93,11.93,1.34,3.85-.38,1.29-3.54,10.63-.32,3.54,3.22,9.99,.32,2.25-3.22,6.44-.64,3.54-6.76"/><path id="path3554" class="cls-2" d="M514.75,546.82l-3.54,14.7,4.19,2.9v3.86l-3.54,1.93-.32,3.22,2.9,.64,.64,6.44,6.12,8.37h2.26l.32,5.8-4.19,2.26v5.8l-2.26,1.29-.32,2.9,2.58,1.61v1.93l-11.59,10.63-3.22,5.8-10.63,4.83,.41,10.97-5.91,6.08v7.41l-3.54,2.26v4.19l2.9,3.22-.32,9.34h-4.19l-14.82,11.92-.97,5.48-8.05,2.9-2.57,5.8,2.57,.64v1.93l2.9,2.9,.32,4.83-7.01,5.82-.9,5.95-7.5,8.13-8.69,3.87-4.51,4.83"/><path id="path3556" class="cls-2" d="M572.42,613.35l-3.72-4.36-3.51,3.09-8.56,.37-5.66-22.1-6.44-.97-.64-4.19,3.22-3.22v-8.7l-5.47-3.22v-19.33l-5.16-.97-1.34-6.79"/><path id="path3558" class="cls-2" d="M449.85,783.94l6.5-1.57,.4-7.73,12.55-12.44,1.67-5.7,10.51-6.54,7.01-12.7,5.8-1.05,11.33-8.01,19.78-8.49,5.49-3.6,13.19,.58,11.43,1.21,16.01-6.43,.11-10.29-3.73-4.86,5.71-8.15"/><path id="path3560" class="cls-2" d="M495.06,959.26l-10.56-10.61h-4.83l-3.22,4.19h-5.8l-.32-6.12-4.19-1.93-1.29-3.54,4.19-2.26-.97-11.59,3.22-1.61v-8.38l9.66-5.15h9.34l4.19-5.16h-9.02l-1.61-2.25,2.26-3.22h4.19l4.19-2.58-.64-11.27,3.22-2.9h7.73l4.19-4.51h7.08l4.88-6.85v-9.02l10.31-4.51,7.08-10.3-.32-29.63,2.06-3.4,.32-2.26-7.94-7.81-9.66-.64-1.93-12.88,4.51-2.57v-11.74"/><path id="path3562" class="cls-2" d="M593.4,915.05l-13.28-2.28-1.29-3.54-2.9,.96,.32,3.87-3.86,2.26-13.53,.32v2.26l4.19,3.54,.32,2.26-6.65,1.38-5.9-2.49-4.03,6.92-7.73-1.29-4.51-2.9h-6.12l-7.09,5.8-7.41-.32-12.24,6.44-5.8,8.7-.32,12.56-14.49,5.47-5.48,10.63-10.95,9.02-9.02,1.93-6.44,9.02h-4.83l-9.66-6.12-6.4,3.95"/><path id="path4440" class="cls-2" d="M457.5,717.31l9.39,2.19,5.46-4.07,6.97-.72,8.27-5.83,4.3-1.61,1.07-5.37,6-5.93,7.54-1.14-.17,5.74,6.34-1.46,1.2-9.16,15.5-12.47,.58-9.33,6.67-3.54-1.39-9.72-10.38-2.91-7.05-3.74-6.31,2.85-4.55-.76-3.31-4.46-12.96,1.98"/></g><polyline class="cls-1" points="2447.39 868.91 2443.36 868.75 2431.37 878.49 2427.02 873.18"/><path class="cls-3" d="M155.98,24.92c.03,2.91,3.03,6.91,.03,9.91h-3c0,3-1,5-.76,7.82l-3.58-2.44c-1.12,2.9-2.37,7.55-6.1,6.38-1.71-.54-2.69-1.69-4.15-.07-1.22,1.35-1.02,3.15,.5,4.09l-.76,.72-2.71,10.14-4.19,.64-1.29,7.41-4.83,.64,.97,2.58,4.83,1.29-4.83,8.7-2.9,.64-2.9,9.66v7.41l-3.86,5.48h-4.83l-3.22,3.22,.64,3.54,4.51-.32,2.58,3.22-1.29,2.25h-8.7l-1.29,16.75,5.47,1.61-2.57,5.48-10.63-.64-2.25,2.26v3.54l3.86,.64v6.44l5.48,4.19-4.51,2.25h-6.12l-2.58,3.87-.47-.04c-.42,3.83-2.14,8.67-.12,12.07,1.48,2.49,3.42,5.02,4.56,7.67,.81,1.91,.62,3.88,.67,6.01l.21,1.14c-1.59,1.22-3.15,2.49-4.56,3.92l.06-2.12h-4.19l-11.92,9.67-4.51-5.48,7.41-8.38,1.77-3.78,4.19,3.38,5.88-4.67-1.05-2.01h-3.46l-2.42-17.55,1.45-4.34-4.43-.97-5.15,6.84-7.25,.08-2.74,8.54-4.51-.08-10.95,10.39-.65,5.15-6.12,.57-1.93,3.54-3.62-1.37-2.66,.64-1.45-3.71,4.83-4.43,6.85-2.26,6.92-4.59,3.62-5.56,4.59-2.34-.89-4.99-1.85-3.3,.89-4.83-3.46-.72,3.95-2.17h2.42l3.95-4.59,.08-5.56,2.66-4.27,.16,9.91,3.46,1.77,2.42-3.14,6.44-.08,2.57-3.46,5.48-3.3,1.53-14.09-2.34-.8-1.37-6.12,2.74-3.54-3.7-2.34-2.4,3.14-1.79-4.34-8.7-.08,.08-2.66,2.74-.64,1.12-7.01,10.24-5.72,2.17-4.91,2.01-.72-.3,5.33h2.42l-5.14,7.21,4.42,2.77,6.3-.48,3.75-4.65-3.94-.43-2.34-4.59,2.07-6.3-5.16-1.4,4.11-1.34,.08-2.34,3.14,.08,.08-2.34-4.99-3.71-.08-4.99-2.74-.64,.08-2.5,5.71-1.93-4.34-3.06-7.25-.4v-2.34l6.77-5.96,10.87-.4,2.74-10.38,7.17-3.62,11.03-12.48,8.3-.89,7.65-5.4,11.51-2.2s.06,.04,.08,.06c.12,.16,.24,.31,.36,.47,.57,.57,1.24,.97,2,1.21,.43,.2,.84,.43,1.23,.71l-.1,.24Z"/></svg>