<?xml version="1.0" encoding="utf-8"?>
<!-- Generator: Adobe Illustrator 24.0.1, SVG Export Plug-In . SVG Version: 6.00 Build 0)  -->
<svg version="1.1" id="svg4942" xmlns="http://www.w3.org/2000/svg" xmlns:xlink="http://www.w3.org/1999/xlink" x="0px" y="0px"
	 viewBox="0 0 2447.4 1131" style="enable-background:new 0 0 2447.4 1131;" xml:space="preserve">
<style type="text/css">
	.st0{fill:none;stroke:#FFBB00;stroke-width:1.2;stroke-linejoin:round;}
	.st1{fill:none;stroke:#000000;stroke-linejoin:round;}
	.st2{fill:#FFB600;stroke:#000000;stroke-miterlimit:10;}
</style>
<polyline class="st0" points="2447.4,868.9 2443.4,868.8 2431.4,878.5 2427,873.2 "/>
<g>
	<polygon class="st1" points="927.9,180.7 925.1,178.9 923.2,178.8 925.6,177.4 	"/>
	<polygon class="st1" points="937.3,162.6 934.5,162 935.5,160.2 937.2,160.6 	"/>
	<polygon class="st1" points="940.8,190.4 939.4,189.1 942.1,187.6 	"/>
	<polygon class="st1" points="936.1,181.1 934.3,180.9 933.7,177.1 938.5,177.5 940.5,177.9 943.2,177.3 938.2,181 	"/>
	<polygon class="st1" points="923.1,185.3 921.4,186 918.8,182 922.6,182.2 	"/>
	<path class="st1" d="M1251.5,408.2l-5.5-0.4c-5.2,2.5-6.1,2.6-10.3-0.9l-2.2-7.2l-8.1-2.6l-10.3,3.5v-5l7-7.2l-0.4-6.6l-5-7.2
		l0.7-4.3l-2-5.6l8.9-9.1l1.8-12.7l-8.1-6.3l-2.3-5.8l3.5-5.8v-5.3l-7.8-9.4l-0.2-6.3l4.8-1.3l1.8-3.8l-8.3-2l-11.4-13.7l3.3-6.3
		l-1.3-9.9l-4.6-5.3l-0.5-11.1l22.2-10.3l1.8-8.8l-6.3-6.6l-9.8-17.6l-29.1-8.9l-1.4-12.3l8.4-15.1l0.8-10.9l-7.3-7.1l-2.3-11.4
		l-3.8-7.3l-4.7-1.8l-6.2-9.4l-3.2-1.2l-5,0.9l-10-5.6l-3.8-7.3l-6.2-1.2l-2.1,2.9l-9.4,1.5l-8.2-8.8v-5l-5.3-2.6v-2.1l3.2-1.8v-3.2
		l-6.2-1.5l-14.1,2.3l-7.3-5l4.7-3.8l0.6-8.5l4.1-2.3l1.2-5.3l-6.7-3.5l3.8-2.6l2.3-16.7l-9.7-11.4l1.4-10l7.8-13.6l-7.7-7.2
		l-5.8,11.9l-1.4,9.4l-15.7,3l-7.6,5.4l-8.3,0.9l-11,12.5l-7.2,3.6l-2.7,10.4l-10.9,0.4l-6.8,6v2.3l7.2,0.4l4.3,3.1l-5.7,1.9
		l-0.1,2.5l2.7,0.6l0.1,5l5,3.7l-0.1,2.3l-3.1-0.1l-0.1,2.3l-4.1,1.3l5.2,1.4l-2.1,6.3l2.3,4.6l3.9,0.4l-3.8,4.7l-6.3,0.5l-4.4-2.8
		l5.1-7.2h-2.4l0.3-5.3l-2,0.7l-2.2,4.9l-10.2,5.7l-1.1,7l-2.7,0.6l-0.1,2.7l8.7,0.1l1.8,4.3l2.4-3.1l3.7,2.3l-2.7,3.5l1.4,6.1
		l2.3,0.8l-1.5,14.1l-5.5,3.3l-2.6,3.5l-6.4,0.1l-2.4,3.1l-3.5-1.8l-0.2-9.9l-2.7,4.3l-0.1,5.6l-4,4.6h-2.4l-3.9,2.2l3.5,0.7
		l-0.9,4.8l1.8,3.3l0.9,5l-4.6,2.3l-3.6,5.6l-6.9,4.6l-6.9,2.3l-4.8,4.4l1.4,3.7l2.7-0.6l3.6,1.4l1.9-3.5l6.1-0.6l0.6-5.1l11-10.4
		l4.5,0.1l2.7-8.5l7.2-0.1l5.1-6.8l4.4,1l-1.4,4.3l2.4,17.6h3.5l1,2l-5.9,4.7l-4.2-3.4l-1.8,3.8l-7.4,8.4l4.5,5.5l11.9-9.7h4.2
		l-0.3,10.9l-6.4,7.1l0.6,7.6l5.8,3.7l4.4,1.9l1.8,14.3l6.2,3.5l1.2,7.8l-6.5,3.9l-0.4,9.2l7.6,4.4l5.3-0.4l16.2,6.7l7.4,0.4
		l1.9-5.3l7.4,5.5l-4.4,4l0.4,10.2l-3.9,4.4l5.6,2.8c0,0-4,15.9-4.2,16.6c-0.2,0.7-5.1,5.1-5.1,5.1l0.5,9.7l-3.9,0.5v7.2l-1.1,5.5
		l6,4l1.1-3l4.9,1.2v6.5l4.6-1.4l1.4-9.3l6.2-0.4l8.8-9.9l0.3,6.5l4.9-0.7l12,8.3l13.6-0.5l1.4,1.8c0,0-6.5,2.3-7.2,2.3
		c-0.7,0-0.7,6.3-0.7,6.3l2.3,2.6c0,0,2.5-3.9,2.6-5.1c0.2-1.2,4.9,5.3,4.9,5.3l4.4,0.2l-0.7,3.7l14.3,9.7l1.6,4.8l9.5,0.5l2.1-3
		h1.2l1.2,3.2l5.8,2.3l-4.2,3.5l3.2,16.6l4.8,0.7l2.5,4.4l25.9-1.8l2.3,4.9l-0.2,2.6l-4.6,3.9l-1.1,8.1l1.3,2.8l-4.5,5.9l-2.9,0.6
		l-1.1,3.1l4.8,2.8l0.3,3.2l-4,4.8v4.2l1.8,1.2l0.2,9.3l5.4,1.9l2.9,4v9.1l-2.5,1.4v2.2l4.5-0.1l-1.1,2.9l2.9,1.5l0.2,3.7l4,0.6
		l4,4.5l0.2,7.3l3.1,2.2l0.3,8.8l1.4,2.2l0.8-3.4l3.4-0.6v4.9l5.1,2.9l0.3,5.4l9.3,0.2l1.4,2l5.9,1.2l4.6-2.5l2.3,1.4v1.7l2,5.6
		l7.1,2.3h6.6l0.6-2.8l2.8-0.3l0.9,2.6l3.2,6.2h4.6l10,19.5l6.8,5.6l-0.8,7.4l3.7,2.8l1.1,8.7l-3.1,1.4h7.1l9.1,7.7l-0.2,2.8
		l-6.8,0.6l-7.6,10.7l-6.8,1.8l4.8,3.5l-4.9,4.2l0.2,4.8l4.5,2.5l-1.2,19.8l2,1.4v13.7l7.4,1.7l1.1,4.8l-3.1,4.2l0.3,2.2l4.2,0.5
		l1.4,3.2l-3.4,7.6l4.9,2.8l-0.1,17.4l-5.2,4.6v14.5l-5.5,1.3l-8.1-6.1l-4.2,2.9l1.6,15.8l-7.1,1.6l-2.3,5.1l1.3,2.6l-1.3,5.9
		l-3.7-0.2l-1.1-2.6l-4.6-2.8l-9.4,1.1l-0.4,5.2l-3.9-1.5l-1.5-3.1l-11.4,2.8l-4.4,5.5l-4.8-0.7l1.1,4.4l2.8,1.5
		c0,0-7.4,7.2-8.3,7.4c-0.9,0.2-3.9-0.7-3.9-0.7l-1.3,4.2l3.1,2.2l0.7,3.8l11.1,3.5l1.7,5l4.9,2.3l5.6,7.2l11.2,7.5v3.6l6.9,5.2
		l5.6,1.6l6.2,8.5l8.2-0.7l2.6,2.6l0.7,4.3l9.5,18l5.6,2.3l3.3,12.8l3.6,1.6l0.7,8.2l-2,3l-1.3,4.6l2.6,3.6v8.5l-2,2.3l2,9.2l7.1,7
		l8,1.6l5.3,6.9l-4.8,12.9l-11.3,9.4l-10.9,3.3l-6.1-0.7l-0.5,4.6l4.4,6.7l0.2,14.1l2.5,1.4l0.7,4.4l-4.6,8.3h-3.7l-5.3,5.8
		l0.5,11.8l10.1,5.8l0.5,5.3l6.4,0.2l8.1,9.7l0.9,5.5l2.8,0.7l0.9,5.5l6.2,0.7l7.1-5.5l3.7-7l7.4-4l-3.1-9.1l3.2-7.6l6.1-0.4l2-2.8
		l5.6,0.4l2,4l5.7,1.6l2.4,6l-6.5,6l-5.1,4.7l-2,6.1l-10.7,7.7v4.5l2.9,1.3v6.1l3.9,1.9l-3.9,6.8l0.3,6.4l-6.1,10.6l3.9,4.8l3.2,8.7
		l4.8,5.8v16.1l7.1,9v11.9l3.9,3.5h8l2.9,3.5h4.2l2.9-3.5h5.5l8,2.9l87.9-83.7l0.6-13.2l7.1-8.7l-1-28.7l-2.9-3.5l0.6-8.4l16.4-13.8
		l10.6-21.9l0.7-19.7l7.7-16.1l0.3-18.4l-7.1-10.6l-0.3-13.2l-5.1-4.5l0.6-18.7l-7.1-6.4v-9.3l-3.5-2.3l-0.6-6.8l5.5-8.7l6.8-13.8
		l6.4-0.6l3.5-2.6l0.2-6.1l8.1-0.3l1.8-10.1l-5-5.5l1-7.4l6.6-8.1l2.9-12.5l0.1-59.3l-9-8.7l0.6-17.3l-10.7-11.8l-0.2-33.7l4-5.9
		l0.4-20.2l-21.5-23.3l2.5-12.6l-2-12.6l-26.9-5.4l-9.7,1.9l-6.8-13.3l-12.2-0.1l-12.4,5.6l-11.3-5.2l-0.5-7.3l-22.3-14.4
		l-11.8-16.4l-14.5,1l-1.6-6l3.3-4.8l-15.4-10.7l-7.5,5.1l-8.9-0.1l-7.8-18.3l-11.7,0.5l-0.6,5.6l-12.6,7.2l-6-4.5l-1.8-9.4l-4.7-2
		l-3.5-3.7l0.4-7.8l-14.6-3l-2.1-5.6l2.2-6.6l-4.1-2.2h-8l-4.3-4l-3-8.7L1251.5,408.2z"/>
	<polygon class="st1" points="983,135.8 985.7,135.8 988.9,130.4 991.2,132.2 994.3,131.3 995.7,129.9 998.9,128.1 998.4,123.2 
		993.4,122 990.7,118.5 987.1,118.5 985.2,114.4 984.8,122.2 981.9,127.3 	"/>
	<g id="layer2">
		<path class="st1" d="M1154.2,121.5c-1.7,0.3-2.7,0.3-3.7,4.3c-2,5-6,7-11,6c-2,3,0,7-3,10c-2,2-5,3-6,6v4h-3c-2,3-7,6-10,3
			c0-1,1-4-2-5c-5-1-10,1-15-1c-2-1-4-3-7-3c-2,0-2,3-3,5s-2,3-4,2s0-4-1-6c-1-1-2-1-3-1c-1-5-4-8-9-7c0-2,0-3-1.3-5.2"/>
		<path id="path2386" class="st1" d="M1086,153l-4.5,2.9l-1.9,5.2l-5.8,3.2l1.9,3.9l9.3,3.5l-0.3,6.4l-9,3.3l0.6,3.9l-3.2,1.3
			l1.3,2.6h3.9l6.5,4l-1.2,5.3l2.4,8.6h-6.1l-4.5,2.9l-5.3-4.3l-13.2-0.4l-10.5,4.4l-5.1,7.2l-7.3,2.5l0.4,5.9l-5.1,4.5l-2.4-4.2
			l-5.2-4.5l-8.3,3.5"/>
		<path id="path2388" class="st1" d="M1102,150.2l7.8-10.5l3.5-21.6l4.8-6.1"/>
		<path id="path2390" class="st1" d="M1008.5,164.5l-1.1,10.4l6.1,10.3l0.2,5.7"/>
		<path id="path2392" class="st1" d="M1238.4,480.5l9.8-1.2l3.2,3.9h5.8l0.6-4.2l5.2-4.8l2.9,0.3l3-3.5l4.5-0.2l1.8,3.1l5.8,0.7
			l1.5,3h3.5l1.3-3.4l8.6-3.1l0.6-9.1"/>
		<path id="path2408" class="st1" d="M1353.4,771.8l4.2-11.6l13.5-14.2l8.4-1.3l5.8-8.7l0.6-5.8l8.7-4.8h5.5l3.9-7.4l4.8-1.3l7.7-8
			l2.9-0.6l1.3,3.5l4.8,1.6l4.8-6.8h6.4l1.6-5.5h10.6l7.4-9.3l10-8l2.3-0.6l0.3,2.6h20.6l4.8,5.8h6.1l0.3,2.9l-4.2,2.3l2.3,3.9
			l4.5-1.6l4.2,2.9v4.2h9l2.2,3.5l-1,4.8h10.6"/>
		<path id="path2410" class="st1" d="M1495.7,812.4l-4.8-2.7l-2.2-6.8l3.2-5.5l-4.9-5.7l-9,0.5l-8.8-7.2l-4.2-8l-7.1-1.7l-2.5,3.2
			l-12.2-1.2l-6.3,8.1h-3.6l-3-5.1h-4.5l-1.2,3.9l-20.9,9.6v4.5l-7.2,0.3l-2.1-3.3l-3.9-0.6l-2.4,3h-9.9l-3.9,4.5"/>
		<path id="path2412" class="st1" d="M1283.7,996.4l4.4-9.5l10.6-8.4h1.9v3.9h6.8l2.3-12.6l-3.2-2.6v-4.5h3.9l6.1-3.2l-5.4-8.6
			l3.3-8.6l5-1.5l-0.3-8.7l12.9-11v-5.2l-5.8-1.3l2.3-12.9l-3.9-2.6l-1.3-4.5l4.2-5.5l3.9-1.6l0.6,3.9h7.1l7.7-4.5l-2.4-12.2
			l2.3-2.6h6.1v-4.8l-2.9-1.6l0.3-4.8l10-7.4V852l2.6-0.6l3.9,4.5l1-3.5l4.5-1l5.2-6.1v-6.4l-5.5-4.2l-3.2-11.6l-4.2-1.6l-0.3-5.5
			l3.9-1l4.5-4.5l1.6-5.8l-1.3-7.1l1-3.5l-5.2-9.1l-7.7-1l-6.6-12.2h-7.4l-5.2-4.5l2.3-3.2l-0.3-12.6l2.3-2.9h4.5l2.2-1.9v-6.4
			l-6.8,0.3l-2.6-3.5h-9.7l-7.4-7.4l1.3-9l-7.1-6.4l1.9-4.8l-6.4-3.2"/>
		<path id="path2424" class="st1" d="M1274.3,527.3l6.1-2.6l1-3.5l5.2-1.3l1.6,3.9l3.5,0.3v-3.2l15.8,0.6l-3.2-6.4l4.5-5.4h3.9
			l8.7-6.8v-5.5l7.1-6.1l5.5-2.5v4.5h4.5l0.3-6.1l7.4,0.6l2.6-2.6l-4.2-3.5v-2.9h2.6l0.3-3.5l-5.4-4.1"/>
		<path id="path2426" class="st1" d="M1266.4,475.4l-1.2-5.9l-3.9-2.3l-0.4-4.9l2.9,0.5l2.3-8.1l3.4-1.3l1.6-3l-4.7-0.2l1.9-4.7
			l-8.2-0.3l-2.1,1.8l-6.5-6l-3.7,4.8l-5.5-0.6"/>
		<path id="path2490" class="st1" d="M1318.2,587.9l1.3-6.5l-3.5-2.9v-4.2l4.5-5.5l-9.8-10.3l-11.1-15.8l-4.5-1.9v-7.1l-15.8-1.9
			l-6.4-4.5l-6.4-1.6l-3.5-7.7l-15.2-8.8l-5-11.5l-5.2-2.6l0.3-16.8l2.3-2.3l-2.3-2.9l-7.1-0.3l-1.3-3.5l6.1-3.2l2.9-13.2l4.5-7.5
			l-0.3-4.9l2.9-0.9l-0.7-11l-6-2l-5.3-8.9l0.2-7.4l4.5-2.8"/>
		<path id="path2498" class="st1" d="M1086.7,71.9l0.1-5.6l-3.1-0.2l-1.1,2.8l-9.3-0.8l-2.2-2.5l2.2-2.7l-3.5-4.2l-7.1-0.6v-5.5
			l-6.4-1.3l-1.3-2.4l2.6-2.9l5.8,1.6l3.2-7.1l3.6,2.4l1-7.4l2.6-0.2l0.1-10.1l-5.4-2.8"/>
		<path id="path2696" class="st1" d="M1009,164.6l2.6-3.9h6.1l4.5-2.2l-5.5-4.2v-6.4l-3.9-0.6v-3.5l2.2-2.3l10.6,0.6l2.6-5.5
			l-5.5-1.6l1.3-16.8h8.7l1.3-2.2l-2.6-3.2l-4.5,0.3l-0.6-3.5l3.2-3.2h4.8l3.9-5.5v-7.4l2.9-9.7l2.9-0.6l4.8-8.7l-4.8-1.3l-1-2.6
			l4.8-0.6l1.3-7.4l4.2-0.6l2.7-10.1"/>
		<path id="path2698" class="st1" d="M1009.8,193.8l6.2-4.1l4.8,0.3l6.8-6.1l-0.3-8.1l1.6-3.5l7.4,0.6l1.3-5.8l6.1-1.9l0.6-2.6
			l-2.9-1.3l-0.3-3.2l3.2-2.6v-2.3h-5.5l-10.3-7.7v-3.2l-2.3-0.3"/>
		<path id="path2700" class="st1" d="M1093.1,224.5h2.3l1.9,3.2h2.6l0.6-6.8l5.5-8.4l7.4-2.3l6.4-7.1h1.9l0.6,2.9l5.5,2.3l0.3-4.2
			l3.9-4.2"/>
		<path id="path2702" class="st1" d="M1086,267.3l4.6-0.1l2.6-3.9l1.3-8.7h3.2l5.5,8.1l4-1.4l3.5-4.2h6.4l9.3,6.1l0.6,8.7h4.2l9-7.1
			h2.2l0.3,6.4l14.2,0.6l2.2,2.9l2.6-0.3l3.5-3.9h10l3.6,10.9l11.3,0.8l2.1-2.3l6.7,2.2"/>
		<path id="path2704" class="st1" d="M1169.6,304.3l-12.2-0.7l-3.2-6.1h-5.2l-3.5,4.2l-10.3-0.6l-10,6.4h-3.9l-1.3-4.2l-8-5.8h-5.2
			l-0.6,4.5h-3.2l-1.6-3.5h-10.9l-0.6-5.4l-4.7-1.1l0.8-7.3l2.9-1.9l1.9-3.5l-7.6-7.9l-7.3,2.8l-15.8-2.9"/>
		<path id="path2840" class="st1" d="M1363.6,1126.7l5.5-13l7-12.5l7.3,0.3l3.3-8.4l-3.5-2.6l-0.6-5.8l3.5-3.3l-4.4-4.9l-7.8-1.8
			l-7.6-7.5l0.6-14.1l8.2,2.4l2.4-3.9l23.7-11.7l5.5,2.1l8.5-2.3l0.5-5.5l-6.8-1.9l-1.3-4.4l5.2-8.7l3.9,2.9l5.2-0.3l3.6-7.6
			l11.2-0.9l7.1,2.4l16.8-12.7l3.9-1.2l2.8-4.4l14.1-0.8"/>
		<path id="path3484" class="st1" d="M1048.9,74.1l1.9-1l8.4,2.7l-0.6,3.5l7.8,0.1l-0.5-4l3.8,6.2l7.1-1.1l1.3-3.3l5.8,5.1"/>
		<path id="path3486" class="st1" d="M1107.5,97l-7.3,5.5l-6.8-1.2l-3.5,5.3h-5.5l-3.2,2.9v1.9h3.9v3.2l-2.9,1.6v4.5l-6.4,6.1
			l-6.8-3.3l-0.6-6.1l-7.9-4.8l0.2-4.6l4.8-1.8l4.2-4.5l0.1-8.8l3.7-5.5l-3.2-1.3l-0.3-4.5"/>
		<path id="path3488" class="st1" d="M1034.5,116.2h4.5l2.9-3.5l7.4-0.3l2.3-2.9l1.9-1v3.9h7"/>
		<path id="path3490" class="st1" d="M1044.4,153v-5.5l9.3-0.3l8.7-6.1l2.6-5.5l7.1-1.9l2.9-7.1"/>
		<path id="path3492" class="st1" d="M1138.2,134l-10-1.9l-4.2-3.5V123l5.2-3.2l-0.7-9"/>
		<path id="path3494" class="st1" d="M1174.3,196.9l-7.8,1.8l-6.4,5.8h-7.1l-1,2.9l-3.5-1v-2.9l-6.1-2.9v-2.9h-5.5l-0.3,4.2
			l-4.2-1.6l-0.8-6.1l3.2-4.1"/>
		<path id="path3496" class="st1" d="M1134.4,189.8l0.7-6.3l-0.3-1.9l-6.1-0.3l0.6-4.5l2.3-0.3l-0.6-8.1l3.2-0.3l1-4.5l-3.2-1.9
			v-4.2l-1.1-5.4h2.9l4.8-5.8v6.1l1.9,3.5h3.2V153l5.8-2.5l2.6-1.9l0.3-7.7l6.6-2.5l2.6,0.6l1.1,6.7l0.9,5.6l6.3,3.4l-0.7,10.2
			l-7.9,5.4l-9.5-0.4l-13.1,11.6l0.3,7.7l-4.6,1.4"/>
		<path id="path3498" class="st1" d="M1059.4,271.4l5.7-5.1l21.6,0.6l0.3-7.7l-3.5-0.3l-0.6-1.9l6.4-3.5l0.3-9.3l5.2-4.5l2.2-5.1
			l-4.5-2.3l0.3-9.3l-3.5-1.9v-2.2l2.6-0.6l1.9-3.5l-2.6-2.6h-3.2l-4.8,4.8l-2.3-2.9l-5.8-0.6v-2.9"/>
		<path id="path3500" class="st1" d="M1195.4,250.1l-2.1-6.5l-6-1.4l-1.6-2.4l-4.4,2.6l-8.9,0.2l-2.7,5.4h-3.2l-7.4-4.4h-7.4
			l-0.6-1.9l2.7-2.2l0.2-8.9l-3.9-1.1l-3.2-3.5l-1.6,4.5l-5.8-3.9l-1.9-5.5l3.9,0.1l1.9-5.9V210l4.8-3.5"/>
		<path id="path3502" class="st1" d="M1176.8,273.4l-3.9,0.8l-0.2,4.3l-1.8,1.5l4,2.1v2.6l3.2,1.6l-1.6,7.1l7.1,2.9l-2.9,2.9h-6.1
			l-4.5,3.5v11l-3.9,2.3v8l7.1,2.9v2.9l-2.6,0.3l-0.6,3.5l7.6-1.6l1.4,2.1l4.1-0.2l1-2.3l2.7-0.6l2,3.3c0,0,13.6,3.9,14.4,3.9
			c0.8,0,16-2.5,16-2.5"/>
		<path id="path3514" class="st1" d="M1152.6,375.5l6.9-6l-1-13l9-9V343l-4.2-0.6l0.3-1.9l3.5-0.6l-0.6-6.8h4.2"/>
		<path id="path3516" class="st1" d="M1182.1,414.6l4.6-0.1l2.6-4.5h2.3l1.3,3.9h2.9l4.5-5.8l0.3-2.9h10l5.7-5.5"/>
		<path id="path3534" class="st1" d="M1365.4,486.8l-5.5,4.1l-3.9,3.6l1.7,4.6l2.7,0v7.6l8.4,4.5l-0.3,3.2l5.2,3.2v4.5h-2.9v6.4
			l-3.2,1.8l7.4,3.8l-3.7,2l-5.6-0.8l-11.1-0.1l-4.3-5.1l-10.4-0.2l-2.3-6.1v-5.2l-4.5-0.6l-3.5,3.9v4.8h-5.5l-7.4-6.4l0.6-3.5
			l-4.8-6.6"/>
		<path id="path3536" class="st1" d="M1329.5,526.9l6.5,4.2l0.4,5.4l2.5-0.3l3.2,5.5l2.3,0.3l2.3-3.2l19.8,3.2l2.6-2.6h2.9l2.6,6.2
			h4.8l0.6,1.3h8.7l1.6-6.1l9-6.1l10,1l1.6-2.9l3.2-1.9l1.6,4.2l3.5,0.3l5.7-6.7"/>
		<path id="path3538" class="st1" d="M1289.4,580.8h5.2l5.7,3.1l3.9-0.3l2.3,3.9l8-0.3l7.7,2.9l8-0.3l2.6,6.4v6.4l2.3,2.9l4.2-0.6
			v4.8l3.9,1l0.3,5.2l-2.6,1l-0.3,5.5l2.2,0.3l-1.4,11l-0.3,6.4l2.6,3.2l6.1,0.3l3.5,5.8h3.2l1.9,3.2l-6.8,1l-2.3,4.5l3.9,5.5
			l-0.3,4.5l-8.4,4.2h-6.4l-2.6,2.3l4.5,6.4h5.5l3.2,3.5l-5.2,0.6l-4.2,10l-4.2-1.6v-3.9l-4.5-1.3l-1.6,9.3l-13.8,8.4h-4.8
			l-15.6,0.2l-2.7-5.1"/>
		<path id="path3540" class="st1" d="M1271.6,816.9l-0.4-13l-9.7-6.8l-8.5-18.8l-3.2-1v-5.5l2.3-1l4.5-9.3l8.7-1l10-7.7h8l1.6-2.9
			h5.2v2.9l3.9,1l1.3-3.9l9.7-4.5l0.6-3.2l-9.3-13.8l3.2-1.6v-4.8l-3.2-4.8l5.1,0.5v-10.9"/>
		<path id="path3542" class="st1" d="M1341.2,633.8l17.9,0.5l14,2.8l12.9-1.6l18.3-1l0,3.2l9.2,0.8l11-0.4l5.2-5.2l6.4-1.6l2.6,3.5
			l7.7,0.6l4.5-5.8l3.2-1l0.3,3.9l10.3,2.1l3.5-4.4"/>
		<path id="path3544" class="st1" d="M1386.3,635l0.7-3.2l-12.1-7.2h-4.5v-10.6l-4.5-1.6v-5.8l1.9-1l1.3-2.9l-8.7-6.1V590l4.4-0.6"
			/>
		<path id="path3546" class="st1" d="M1467.3,631.2l0.3,3.2l7.3-0.6l3.1,3l3.2-3.4l4.6,0.2l2.6-2.3l1.4,9l2.8,0.9l3.2-3.5l1.6,0.9v7
			l5.1,0.5l2.3-7.4l5.1-0.2"/>
		<path id="path3548" class="st1" d="M1507.5,581.6l-10.1,3.9l-1.7,6.5l-5.2,0.6l0.2,5.6l3.2,1.6l-0.6,2.3l-3.5,3.5l5.6,3.5l0.2,3.8
			l-5.5-0.1l0.5,5.1l-8.3,1.8l-5.3,6.7h-4.4l-4.6,3.9"/>
		<path id="path3550" class="st1" d="M1404.2,634.8l1-4.5l-1.3-3.9h-3.5l-1.3,4.2l-5.5-1.8l-1-9.3l7.5,1.4l2.1-3.1h1.9l2.7,3.7h3.9
			l-1.6-3.2l8.6-4.7l5.9-11.7l6.6-3.2l0.9-12.7l-9.3-1.3l-1.3-5.2h-3.2l-2.6,3.9l-15.1-1l-8.1,3.9l-3.9-0.6l-2.2,7l-6.4,1l-1.6-4.8
			l-4.9,0.8l-0.9-2.3l-1.8-0.7l-0.9,3l-4.6-0.5"/>
		<path id="path3552" class="st1" d="M1364.6,589.7v-7.1l-3.9-2.6l-4-6.6l-12-2.2l1.8-4.6l3.5-0.5l5.6-4.6l-0.2,6.7l2.5,1.2l8,6.1
			l2.8-4.1h7.1l4.8-8l-0.3-3.5h3.5l-0.3-8.4l5.2-1.3l0.1-3.6l7.7-1.9l6.4,1.9l11.9,1.3l3.9-0.4l1.3-3.5l10.6-0.3l3.5,3.2l10,0.3
			l2.2-3.2l6.4-0.6l3.5-6.8"/>
		<path id="path3554" class="st1" d="M1433,546.8l-3.5,14.7l4.2,2.9v3.9l-3.5,1.9l-0.3,3.2l2.9,0.6l0.6,6.4l6.1,8.4h2.3l0.3,5.8
			l-4.2,2.3v5.8l-2.3,1.3l-0.3,2.9l2.6,1.6v1.9l-11.6,10.6l-3.2,5.8l-10.6,4.8l0.4,11l-5.9,6.1v7.4l-3.5,2.3v4.2l2.9,3.2l-0.3,9.3
			h-4.2l-14.8,11.9l-1,5.5l-8.1,2.9l-2.6,5.8l2.6,0.6v1.9l2.9,2.9l0.3,4.8l-7,5.8l-0.9,6l-7.5,8.1l-8.7,3.9l-4.5,4.8"/>
		<path id="path3556" class="st1" d="M1490.7,613.3l-3.7-4.4l-3.5,3.1l-8.6,0.4l-5.7-22.1l-6.4-1l-0.6-4.2l3.2-3.2v-8.7l-5.5-3.2
			v-19.3l-5.2-1l-1.3-6.8"/>
		<path id="path3558" class="st1" d="M1368.1,783.9l6.5-1.6l0.4-7.7l12.5-12.4l1.7-5.7l10.5-6.5l7-12.7l5.8-1l11.3-8l19.8-8.5
			l5.5-3.6l13.2,0.6l11.4,1.2l16-6.4l0.1-10.3l-3.7-4.9l5.7-8.2"/>
		<path id="path3560" class="st1" d="M1413.4,959.3l-10.6-10.6h-4.8l-3.2,4.2h-5.8l-0.3-6.1l-4.2-1.9l-1.3-3.5l4.2-2.3l-1-11.6
			l3.2-1.6v-8.4l9.7-5.2h9.3l4.2-5.2h-9l-1.6-2.2l2.3-3.2h4.2l4.2-2.6l-0.6-11.3l3.2-2.9h7.7l4.2-4.5h7.1l4.9-6.8v-9l10.3-4.5
			l7.1-10.3l-0.3-29.6l2.1-3.4l0.3-2.3l-7.9-7.8l-9.7-0.6l-1.9-12.9l4.5-2.6v-11.7"/>
		<path id="path3562" class="st1" d="M1511.7,915l-13.3-2.3l-1.3-3.5l-2.9,1l0.3,3.9l-3.9,2.3l-13.5,0.3v2.3l4.2,3.5l0.3,2.3
			l-6.7,1.4l-5.9-2.5l-4,6.9l-7.7-1.3l-4.5-2.9h-6.1l-7.1,5.8l-7.4-0.3l-12.2,6.4l-5.8,8.7l-0.3,12.6l-14.5,5.5l-5.5,10.6l-11,9
			l-9,1.9l-6.4,9h-4.8l-9.7-6.1l-6.4,4"/>
		<path id="path4440" class="st1" d="M1375.8,717.3l9.4,2.2l5.5-4.1l7-0.7l8.3-5.8l4.3-1.6l1.1-5.4l6-5.9l7.5-1.1l-0.2,5.7l6.3-1.5
			l1.2-9.2l15.5-12.5l0.6-9.3l6.7-3.5l-1.4-9.7l-10.4-2.9l-7.1-3.7l-6.3,2.8l-4.5-0.8l-3.3-4.5l-13,2"/>
	</g>
	<path class="st2" d="M1074.3,24.9c0,2.9,3,6.9,0,9.9h-3c0,3-1,5-0.8,7.8l-3.6-2.4c-1.1,2.9-2.4,7.5-6.1,6.4
		c-1.7-0.5-2.7-1.7-4.1-0.1c-1.2,1.3-1,3.2,0.5,4.1l-0.8,0.7l-2.7,10.1l-4.2,0.6l-1.3,7.4l-4.8,0.6l1,2.6l4.8,1.3l-4.8,8.7l-2.9,0.6
		l-2.9,9.7v7.4l-3.9,5.5h-4.8l-3.2,3.2l0.6,3.5l4.5-0.3l2.6,3.2l-1.3,2.2h-8.7l-1.3,16.8l5.5,1.6l-2.6,5.5l-10.6-0.6l-2.2,2.3v3.5
		l3.9,0.6v6.4l5.5,4.2l-4.5,2.2h-6.1l-2.6,3.9l-0.5,0c-0.4,3.8-2.1,8.7-0.1,12.1c1.5,2.5,3.4,5,4.6,7.7c0.8,1.9,0.6,3.9,0.7,6
		l0.2,1.1c-1.6,1.2-3.1,2.5-4.6,3.9l0.1-2.1h-4.2l-11.9,9.7l-4.5-5.5l7.4-8.4l1.8-3.8l4.2,3.4l5.9-4.7l-1-2h-3.5l-2.4-17.6l1.5-4.3
		l-4.4-1l-5.1,6.8l-7.2,0.1l-2.7,8.5l-4.5-0.1l-11,10.4l-0.7,5.1l-6.1,0.6l-1.9,3.5l-3.6-1.4l-2.7,0.6l-1.5-3.7l4.8-4.4l6.8-2.3
		l6.9-4.6l3.6-5.6l4.6-2.3l-0.9-5l-1.8-3.3l0.9-4.8l-3.5-0.7l4-2.2h2.4l4-4.6l0.1-5.6l2.7-4.3l0.2,9.9l3.5,1.8l2.4-3.1l6.4-0.1
		l2.6-3.5l5.5-3.3l1.5-14.1l-2.3-0.8l-1.4-6.1l2.7-3.5l-3.7-2.3l-2.4,3.1l-1.8-4.3l-8.7-0.1l0.1-2.7l2.7-0.6l1.1-7l10.2-5.7l2.2-4.9
		l2-0.7l-0.3,5.3h2.4l-5.1,7.2l4.4,2.8l6.3-0.5l3.8-4.7l-3.9-0.4l-2.3-4.6l2.1-6.3l-5.2-1.4l4.1-1.3l0.1-2.3l3.1,0.1l0.1-2.3l-5-3.7
		l-0.1-5l-2.7-0.6l0.1-2.5l5.7-1.9l-4.3-3.1l-7.2-0.4v-2.3l6.8-6l10.9-0.4l2.7-10.4l7.2-3.6l11-12.5l8.3-0.9l7.7-5.4l11.5-2.2
		c0,0,0.1,0,0.1,0.1c0.1,0.2,0.2,0.3,0.4,0.5c0.6,0.6,1.2,1,2,1.2c0.4,0.2,0.8,0.4,1.2,0.7L1074.3,24.9L1074.3,24.9z"/>
</g>
</svg>
