<?xml version="1.0" encoding="UTF-8"?><svg xmlns="http://www.w3.org/2000/svg" viewBox="0 0 961.65 1067.15"><defs><style>.cls-1{fill:#fbbb0e;}</style></defs><g id="Capa_11"><path class="cls-1" d="M769.72,744.23c-1.76,2.51-3.63,4.93-5.44,7.41,1.45-1.98,0,0-.37,.46-.47,.6-.95,1.2-1.43,1.8-1,1.25-2.02,2.48-3.06,3.71-3.86,4.58-7.92,8.99-12.15,13.23-4.28,4.29-8.75,8.39-13.38,12.3-2.29,1.93-4.63,3.8-6.98,5.65,1.92-1.5,0,0-.47,.35-.67,.5-1.34,1-2.01,1.5-1.23,.91-2.48,1.81-3.73,2.69-5.58,3.93-11.35,7.59-17.28,10.97l11.29,6.48c-.35-5.54-3.7-9.49-8.88-11.28-3.95-1.37-8.75-.74-12.34,1.3-1.81,1.03-3.49,2.49-4.89,4.04-.6,.66-1.15,1.36-1.71,2.07s-1.1,1.42-1.64,2.13c-1.21,1.57,.81-1,0,0-1.05,1.3-2.13,2.52-3.4,3.61-1.05,.9,1.57-1.12,.17-.15-.36,.25-.73,.48-1.1,.7-.75,.44-1.54,.83-2.34,1.18l1.79-.76c-2.11,.89-4.31,1.45-6.58,1.76l1.99-.27c-2.81,.35-5.64,.31-8.45-.06l1.99,.27c-7.59-1.08-14.6-4.28-21.67-7.06s-13.79-4.14-20.99-2.98c-4.14,.67-8.23,2.85-11.03,5.98-3.41,3.81-2.58,8.92,1.52,11.78,4.47,3.12,10.82,3.95,15.95,2.13l-9.23-9.23c-.38,2.43-.54,4.75,.31,7.12,.63,1.74,1.42,3.28,2.52,4.76s2.32,2.96,3.52,4.41c.85,1.02-1.13-1.57-.38-.49,.18,.26,.37,.52,.55,.79,.4,.62,.75,1.26,1.04,1.94l-.76-1.79c.27,.71,.44,1.42,.55,2.18l-.27-1.99c.23,2.18,.24,4.32,.61,6.5,.25,1.5,.77,2.87,1.36,4.27,1.32,3.13,3.23,5.76,5.43,8.34,1.69,1.98,3.54,3.82,5.3,5.74,.48,.53,.96,1.06,1.42,1.6,.19,.22,.38,.45,.57,.68,.78,.95-.17-.31-.41-.55,.99,1,1.79,2.54,2.36,3.8l-.76-1.79c.27,.66,.45,1.3,.55,2l-.27-1.99c.03,.42,.02,.8-.04,1.22l.27-1.99c-.08,.36-.17,.66-.31,.99l.76-1.79c-.08,.19-.18,.37-.29,.54-.42,.61-.21,.35,.62-.78-.32,.26-.59,.61-.9,.89-.57,.5-1.19,.96-1.78,1.44-2.15,1.77-3.77,4.13-4.55,6.82-1.62,5.56,.88,11.4,3.97,15.95,1.77,2.6,3.78,4.93,6.73,6.18,3.24,1.37,6.88,1.32,9.97-.48,4.31-2.52,5.54-7.16,7.35-11.45l-.76,1.79c.29-.67,.64-1.27,1-1.9,.44-.78-1.11,1.28-.5,.62,.13-.14,.24-.29,.37-.42,.34-.37,.73-.69,1.09-1.04,.9-.86-1.36,.93-.31,.23,.38-.25,.74-.51,1.12-.75,.76-.48,1.55-.93,2.33-1.37,3.92-2.18,7.87-4.32,11.8-6.48s7.92-4.19,11.73-6.5c4.32-2.62,7.69-5.99,10.41-10.24,2.15-3.36,3.9-6.97,5.87-10.43s4.13-7.07,6.32-10.53c4.37-6.93,9.05-13.66,14.02-20.16,.18-.24,.36-.47,.54-.71,.59-.77-.95,1.22-.35,.46,.37-.47,.73-.94,1.1-1.41,.69-.88,1.39-1.75,2.09-2.62,1.45-1.8,2.92-3.57,4.42-5.33,3.04-3.57,6.17-7.06,9.39-10.48,2.69-2.86,3.05-7.81,0-10.61s-7.73-3.05-10.61,0c-12.17,12.92-23.16,27.01-32.72,41.96-2.36,3.7-4.64,7.46-6.82,11.27s-3.93,7.47-6.2,11.01c-.27,.42-.54,.83-.82,1.23-.12,.17-.25,.34-.37,.51-.54,.77,1.02-1.22,.4-.52-.71,.8-1.4,1.58-2.2,2.28-.16,.14-.34,.28-.5,.42-.72,.62,1.27-.9,.48-.38-.42,.28-.83,.58-1.26,.86-.92,.59-1.87,1.13-2.83,1.66-4.15,2.3-8.31,4.57-12.47,6.85s-8.83,4.41-12.74,7.28c-2.47,1.8-4.74,3.84-6.21,6.58-1.09,2.04-1.77,4.28-2.67,6.41l.76-1.79c-.3,.69-.69,1.3-1.02,1.97-.3,.6,1.43-1.72,.41-.59-.72,.8,1.87-1.14,.47-.46l1.79-.76c-.34,.13-.67,.22-1.03,.27l1.99-.27c-.34,.02-.64,.01-.97-.03l1.99,.27c-.34-.08-.63-.17-.96-.31l1.79,.76c-.77-.4-.76-.81,.37,.42-.24-.26-.52-.5-.77-.75-.85-.87,.87,1.24,.37,.52-.21-.3-.42-.59-.62-.9-.88-1.32-1.67-2.7-2.31-4.15l.76,1.79c-.41-1-.72-2.01-.88-3.09l.27,1.99c-.06-.64-.06-1.25,.01-1.89l-.27,1.99c.09-.51,.23-.97,.42-1.45l-.76,1.79c.11-.24,.23-.47,.37-.69,.42-.62,.22-.37-.6,.75,.24-.19,.45-.48,.68-.69,.56-.52,1.17-.98,1.77-1.46,1.47-1.19,2.8-2.61,3.67-4.31,2.79-5.44,.79-11.17-2.68-15.72-2.27-2.98-4.82-5.65-7.36-8.4-.52-.56-1.03-1.13-1.53-1.7-.3-.35-.6-.71-.89-1.07-.8-.96,1.1,1.51,.33,.43-.91-1.28-1.74-2.59-2.38-4.04l.76,1.79c-.48-1.15-.81-2.32-1.01-3.54l.27,1.99c-.33-2.54-.14-5.13-.83-7.63-.5-1.8-1.37-3.6-2.45-5.14s-2.38-3.07-3.61-4.57c-.19-.24-1.13-1.43-.21-.24s.02,0-.15-.25c-.39-.58-.73-1.18-1.01-1.82l.76,1.79c-.22-.54-.37-1.07-.46-1.64l.27,1.99c-.05-.49-.06-.96,0-1.46l-.27,1.99,.05-.3c.43-2.73,.12-5.24-1.93-7.3-1.79-1.79-4.82-2.8-7.3-1.93-.75,.27-1.51,.45-2.3,.57l1.99-.27c-.93,.11-1.83,.11-2.76,.02l1.99,.27c-1.06-.14-2.06-.41-3.05-.81l1.79,.76c-.73-.33-1.41-.71-2.06-1.16l1.52,11.78c.3-.34,.61-.67,.95-.97,1.23-1.12-.8,.49-.35,.25,.72-.39,1.37-.84,2.13-1.18l-1.79,.76c1.23-.51,2.49-.83,3.81-1.02l-1.99,.27c2.09-.26,4.17-.19,6.26,.09l-1.99-.27c9.72,1.4,18.28,6.87,27.77,9.17,10.94,2.66,22.93,1.67,31.72-5.95,.96-.84,1.82-1.78,2.63-2.77,.73-.89,1.43-1.82,2.13-2.73,.16-.2,.31-.41,.47-.61,.9-1.17-1.15,1.44-.23,.3,.8-.99,1.6-1.97,2.52-2.85,.18-.17,.37-.34,.56-.51,.91-.83-1.23,.83-.47,.36,.49-.31,.94-.6,1.46-.83l-1.79,.76c.63-.25,1.25-.41,1.92-.52l-1.99,.27c.76-.1,1.51-.11,2.28-.03l-1.99-.27c.74,.1,1.43,.28,2.12,.56l-1.79-.76c.24,.11,.46,.25,.7,.36,.97,.46-1.47-1.28-.7-.57,.7,.65-.08,.63-.52-.78,.07,.21,.26,.44,.36,.64l-.76-1.79c.13,.32,.22,.63,.29,.97l-.27-1.99c.03,.18,.05,.36,.05,.54,.17,2.69,1.32,5.08,3.71,6.48s5.23,1.33,7.57,0c21.82-12.43,41.61-28.69,57.95-47.76,4.85-5.67,9.43-11.58,13.72-17.68,1.06-1.51,1.23-4.06,.76-5.78s-1.82-3.63-3.45-4.48c-3.85-2.03-7.85-.75-10.26,2.69h0Z"/><path class="cls-1" d="M661.39,878.71c.56-1.21,1.18-2.38,1.88-3.5,.35-.56,.72-1.11,1.1-1.65,.15-.22,.31-.43,.47-.64,.46-.62,.32-.42-.45,.57,.17-.21,.33-.41,.5-.62,1.71-2.05,3.62-3.92,5.66-5.65,.51-.43,1.07-.83,1.56-1.27-1.79,1.62-.1,.09,.41-.29,1.08-.79,2.19-1.55,3.31-2.28,2.68-1.76,5.45-3.38,8.23-4.99,5.65-3.29,11.18-6.63,16.34-10.66,4.39-3.44,8.38-7.38,11.84-11.76,4.22-5.34,7.85-10.98,10.56-17.24,.8-1.84,1.41-3.76,.76-5.78-.51-1.58-1.37-2.88-2.69-3.9s-2.9-1.68-4.54-1.61c-2.11,.09-3.66,.89-5.3,2.2-14.04,11.18-28.08,22.35-42.12,33.53l-6.04,4.81-2.92,2.33-.58,.47c-.21,.17-1.17,.91-.13,.11s-.21,.05-.52,.2l1.79-.76c-.53,.22-1.05,.37-1.62,.45l1.99-.27c-.26,.02-.49,.02-.75,0l1.99,.27c-.15-.02-.29-.05-.44-.1l1.79,.76c-.41-.2-.28-.08,.41,.38,.64,.42,1.15,.97,1.55,1.63l.76,1.79c-.06-.15-.09-.3-.11-.46l.27,1.99,.02-.37-.27,1.99,.1-.35-.76,1.79c.54-1.08-.46,.63-.54,.56,0,0,.46-.49,.52-.56,.35-.36,.7-.72,1.06-1.07,.72-.71,1.45-1.4,2.19-2.07,1.49-1.35,3.04-2.65,4.61-3.91,.33-.27,.94-.59,1.19-.94-.03,.04-1.55,1.18-.62,.48,.2-.15,.4-.31,.61-.46,.81-.61,1.63-1.21,2.44-1.81,1.64-1.2,3.3-2.37,4.97-3.53,6.99-4.9,14.14-9.75,20.35-15.64,3.61-3.42,6.85-7.28,9.57-11.44,1.64-2.5,1.16-6.07-.59-8.33s-5.08-3.7-7.88-2.69c-4.24,1.53-8.07,3.64-11.67,6.34s-6.9,5.54-10.38,8.29c-.23,.18-.47,.37-.7,.55-.64,.51,.68-.53,.64-.49-.4,.33-.83,.63-1.24,.94-.83,.62-1.67,1.24-2.51,1.84-1.69,1.21-3.4,2.39-5.14,3.53-3.48,2.28-7.05,4.41-10.7,6.38-4.11,2.22-8.33,4.24-12.64,6.07l1.79-.76c-.55,.23-1.1,.46-1.64,.68l9.23,9.23,.15-.36-.76,1.79c.51-1.2,1.1-2.36,1.79-3.47,.21-.33,.42-.66,.64-.98,.17-.25,.91-1.22,.11-.19s0,0,.15-.16c.21-.25,.43-.49,.65-.73,.44-.48,.9-.95,1.37-1.39,.24-.22,.48-.44,.73-.65,.16-.14,1.22-.98,.15-.16s-.06,.06,.18-.12c.32-.23,.64-.44,.97-.65,.6-.38,1.21-.73,1.82-1.07,2.85-1.59,5.78-3.13,8.1-5.49,2.94-3,5.05-7.17,4.81-11.45-.17-3.04-1.75-5.65-4.61-6.85s-5.86-.47-8.19,1.55c-.61,.53-1.23,1.05-1.86,1.57-.29,.23-.58,.46-.86,.69-1.25,1.01,1.41-1.05,.12-.09s-2.62,1.9-3.98,2.79c-2.71,1.77-5.55,3.45-8.51,4.77l1.79-.76c-.44,.17-.85,.3-1.31,.4l1.99-.27c-.3,.05-.6,.06-.9,.02l1.99,.27c-.31-.05-.56-.13-.85-.25l1.79,.76c-.99-.54,1.35,1.33,.59,.48l.81,1.05c-.11-.17-.21-.35-.29-.53l.76,1.79c-.16-.39-.28-.77-.36-1.19l.27,1.99c-.07-.53-.07-1.03,0-1.57l-.27,1.99c.07-.34,.16-.63,.28-.95l-.76,1.79c.19-.43,.57-.87,.7-1.3-.81,1.01-.97,1.22-.48,.64,.17-.19,.34-.37,.52-.55,.72-.72,1.52-1.35,2.32-1.98,1.35-1.06,2.27-3.65,2.2-5.3s-.57-3.2-1.61-4.54c-2.24-2.9-6.44-3.86-9.68-1.93-1.11,.66-2.22,1.3-3.4,1.81l1.79-.76c-.8,.31-1.59,.55-2.43,.69l1.99-.27c-.59,.06-1.14,.07-1.73,0l1.99,.27c-.55-.09-1.06-.24-1.58-.45l1.79,.76c-.2-.09-.38-.21-.58-.3-1.02-.47,1.16,1.09,.63,.5-.4-.44,.69,1.38,.57,.79-.04-.19-.28-.52-.36-.7l.76,1.79c-.09-.23-.15-.47-.19-.71l.27,1.99c-.08-.7-.04-1.36,.05-2.06l-.27,1.99c.25-1.62,.65-3.28,.6-4.92-.07-2.36-.87-4.52-2.3-6.37-2.84-3.68-8.3-5.58-12.47-2.72-1.99,1.37-3.25,3.05-3.58,5.48s.41,4.53,2.06,6.3c.73,.78,1.37,1.64,2.09,2.43-1.59-1.74-.32-.4,.02,.09,.31,.44,.61,.88,.89,1.33,1.16,1.8,2.14,3.71,2.99,5.67l-.76-1.79c1.35,3.22,2.27,6.58,2.74,10.04l-.27-1.99c.35,2.8,.41,5.6,.15,8.41h15c.23-4.54-.43-9.26-1.97-13.54-.67-1.86-1.69-3.46-3.45-4.48-1.61-.94-3.98-1.34-5.78-.76-4.09,1.32-6.07,5.1-5.24,9.23,1.67,8.34,6.94,15.51,13.9,20.25,3.25,2.21,8.46,.72,10.26-2.69,2.01-3.8,.78-7.9-2.69-10.26-.21-.15-.42-.3-.64-.44-1.17-.8,1.07,.9,.44,.35-.39-.34-.79-.66-1.17-1.01-.86-.79-1.62-1.67-2.39-2.54-.6-.67,.97,1.34,.46,.6-.15-.21-.31-.42-.45-.63-.33-.48-.65-.97-.95-1.47-.6-1-1.12-2.04-1.58-3.11l.76,1.79c-.64-1.56-1.13-3.16-1.47-4.82l-14.46,3.99c.71,2,1.21,4.03,1.5,6.13l-.27-1.99c.22,1.8,.29,3.6,.19,5.41-.2,3.92,3.59,7.67,7.5,7.5,1.94-.09,3.95-.72,5.3-2.2s2.01-3.22,2.2-5.3c1.17-12.67-3.66-25.55-12.27-34.79l-1.52,11.78c.15-.13,.32-.22,.51-.28l-1.79,.76,.27-.05-1.99,.27h.27l-1.99-.27c.19,.02,.37,.06,.54,.14l-1.79-.76c.99,.5-1.32-1.34-.53-.44l-.78-.99c.12,.19,.22,.39,.3,.6l-.76-1.79c.08,.21,.14,.42,.17,.63l-.27-1.99c.05,.53,.02,1.04-.04,1.57l.27-1.99c-.21,1.49-.53,2.98-.62,4.49-.12,2.03,.4,3.91,1.26,5.72,1.35,2.88,4.01,4.73,6.9,5.84,5.17,1.97,10.47-.15,14.92-2.81l-9.09-11.78c-3.69,2.89-6.78,6.81-6.77,11.74,.01,6.16,4.88,11.73,11.26,11.4,2.94-.15,5.55-1.56,8.09-2.92,1.62-.87,3.22-1.8,4.77-2.79,3.64-2.32,7.1-4.95,10.37-7.78l-12.8-5.3c.03,.51,0,1-.06,1.51l.27-1.99c-.1,.5-.23,.97-.41,1.45l.76-1.79c-.23,.53-.49,1.04-.8,1.53-.82,1.25,.36-.43,.35-.43,.02,.02-.49,.53-.53,.58-.23,.23-.49,.43-.71,.66-.55,.56,1.6-1.11,.39-.3-.53,.35-1.05,.7-1.6,1.03-2.2,1.31-4.52,2.4-6.58,3.94-2.32,1.74-4.42,3.56-6.21,5.85-2.25,2.87-3.83,5.7-5.21,9.07-.98,2.4,.21,5.58,1.93,7.3s4.9,2.91,7.3,1.93c8.1-3.32,15.95-7.14,23.4-11.74s14.26-9.98,21.04-15.48c.39-.31,.77-.63,1.17-.94,.22-.18,.44-.36,.67-.53-.21,.15-1.31,.99-.5,.39,.91-.67,1.82-1.35,2.76-1.98,1.87-1.25,3.82-2.36,5.89-3.25l-1.79,.76c.52-.22,1.04-.42,1.58-.61l-8.47-11.02c-.55,.84-1.12,1.66-1.71,2.46-.13,.18-.36,.41-.45,.6,.02-.04,1.22-1.53,.48-.64-.36,.43-.7,.86-1.07,1.29-1.33,1.55-2.74,3.03-4.21,4.44s-2.93,2.69-4.46,3.96c-.77,.64-1.55,1.26-2.34,1.88-.38,.3-1.11,.8,.63-.48-.2,.15-.4,.31-.6,.46-.45,.34-.9,.68-1.36,1.02-7.08,5.25-14.49,10.04-21.37,15.56-1.57,1.26-3.11,2.56-4.6,3.93-1.87,1.71-3.95,3.54-5.23,5.75-2.8,4.86-.42,11.55,5.12,13.05,3.08,.83,6.35,.18,9.1-1.36,1.36-.77,2.54-1.89,3.76-2.87l3.31-2.64,6.43-5.12,12.67-10.09,28.66-22.82-11.78-9.09c-2.23,5.14-5.06,9.92-8.39,14.43-.87,1.18,.93-1.17,.3-.39-.21,.27-.42,.53-.64,.8-.43,.53-.86,1.05-1.31,1.57-.89,1.03-1.8,2.04-2.75,3.02-1.98,2.05-4.09,3.99-6.31,5.78-.21,.17-.43,.34-.64,.51-1.15,.91,1.19-.9,.39-.3-.52,.38-1.04,.77-1.56,1.15-1.37,.97-2.77,1.9-4.18,2.8-2.58,1.63-5.23,3.16-7.87,4.7-5.57,3.23-10.99,6.58-16,10.64s-9.67,9.3-12.43,15.29c-.86,1.88-1.32,3.71-.76,5.78,.48,1.74,1.82,3.63,3.45,4.48,3.3,1.75,8.51,1.11,10.26-2.69h0Z"/></g><g id="Cartagena"><path d="M137.34,349.55c12.88-11.05,25.92-21.93,39.36-32.28,13.21-10.18,26.81-19.87,40.97-28.7,7.96-4.96,16.09-9.64,24.4-13.99,1.43-.75,.16-2.9-1.26-2.16-14.85,7.76-29.11,16.61-42.86,26.17-13.85,9.63-27.2,19.95-40.26,30.63-7.45,6.09-14.81,12.3-22.11,18.57-1.22,1.05,.55,2.81,1.77,1.77h0Z"/><path d="M246.23,273.79c12.64,1.44,24.09-5.65,33.76-12.96,11.35-8.59,22.38-17.64,33.54-26.47l19.54-15.46c1.26-1-.52-2.76-1.77-1.77-11.2,8.87-22.41,17.73-33.61,26.6-5.5,4.35-10.98,8.74-16.51,13.06-4.85,3.79-9.87,7.46-15.36,10.29-6.07,3.13-12.72,5-19.58,4.22-1.6-.18-1.58,2.32,0,2.5h0Z"/><path d="M334.4,218.27c7.85-4.66,14.77-10.66,21.34-16.96,7.15-6.86,14.13-13.9,21.18-20.87,4.11-4.06,8.21-8.12,12.32-12.18,1.15-1.13-.62-2.9-1.77-1.77-7.16,7.07-14.31,14.15-21.46,21.22-6.62,6.54-13.12,13.25-20.22,19.27-3.97,3.37-8.16,6.47-12.64,9.12-1.38,.82-.13,2.98,1.26,2.16h0Z"/><path d="M413.61,689.79c-3.54,.59-7.2,.71-10.74,.04-3.15-.6-6.84-1.63-9.26-3.81-4.2-3.79-4.56-9.9-5.79-15.06-.58-2.45-1.27-6.04-3.41-7.61-2.36-1.74-5.31-.65-7.93-.37-7.24,.76-14.31,3.51-21.65,3.24-2.34-.09-4.59-.8-6.89-1.22-2.13-.39-4.28-.68-6.43-.81-4.44-.26-8.9,.25-13.1,1.74-1.51,.54-.86,2.95,.66,2.41,3.79-1.35,7.72-1.86,11.73-1.69,2.01,.08,4.02,.32,6,.67s3.97,1.01,5.97,1.24c7.48,.87,14.65-1.84,21.96-2.91,1.45-.21,2.91-.33,4.37-.57,1.18-.19,2.73-.49,3.78,.25s1.53,2.75,1.9,3.98c.42,1.37,.74,2.76,1.03,4.16,1.11,5.25,2.03,11.02,6.41,14.66,2.77,2.31,6.67,3.52,10.18,4.16,3.95,.73,7.92,.58,11.87-.07,1.58-.26,.91-2.67-.66-2.41h0Z"/><path d="M438.89,857.41c-14.26-15.57-1.48-37,3.28-53.74,6.58-23.14-3.28-45.89-12.41-66.81-5.32-12.21-10.55-24.82-11.22-38.29-.08-1.6-2.58-1.61-2.5,0,.6,11.98,4.65,23.32,9.29,34.27,4.65,10.98,9.79,21.8,13.13,33.28s4.68,23.42,1.79,35.06c-2.37,9.53-6.73,18.44-8.97,28.02-1.2,5.14-1.84,10.46-1.07,15.71s3.25,10.26,6.92,14.27c1.09,1.19,2.85-.58,1.77-1.77h0Z"/><path d="M597.12,975.7c-10.04-1.84-20.24-2.43-30.41-2.93-5.01-.25-10.02-.44-15.02-.79-3.13-.22-5.74-1.95-7.19-4.73-1.34-2.57-1.6-5.74-1.02-8.56,.37-1.81,1.12-3.53,1.54-5.33s.73-3.75,.9-5.65c.63-7.42-1.01-14.93-4.33-21.56s-8.36-12.41-14.49-16.6c-1.6-1.1-3.27-2.15-5.08-2.84-2.22-.85-4.53-1.47-6.87-1.9-4.56-.82-9.19-.93-13.81-.97s-9.48-.02-14.18-.61c-3.96-.5-7.58-2.65-10.37-5.46s-4.67-6.13-5.76-9.79c-.32-1.09-.41-1.67-1.56-2.07-1.01-.35-2.07-.55-3.13-.65-2.1-.2-4.26,.1-6.28,.69-4.32,1.25-8.19,3.69-12.03,5.98-.77,.46-1.66,1.19-2.49,1.49s-1.75,0-2.58,.23c-.87,.23-1.52,.89-2.18,1.47-.9,.79-1.77,1.61-2.61,2.46-3.22,3.24-6.04,6.84-9.09,10.23-.69,.77-1.38,1.58-2.14,2.28s-1.86,.01-2.44-.68c-1.4-1.69-2.25-4.51-2.51-6.66-.3-2.44,.21-4.81,1.31-6.99,.72-1.43-1.43-2.7-2.16-1.26-2.41,4.78-2.05,9.79,.29,14.52,.96,1.95,2.38,3.74,4.74,3.89,2.23,.15,3.78-2.32,5.1-3.8,3.39-3.81,6.53-7.84,10.28-11.31,.79-.73,1.55-1.73,2.67-1.78,.95-.04,1.86,.01,2.72-.49,2.14-1.25,4.24-2.59,6.4-3.82,4.83-2.74,10.31-5.22,15.87-3.24l-.87-.87c1.44,5.57,4.62,10.66,9.22,14.16,2.22,1.69,4.9,3.13,7.65,3.72,3.49,.74,7.25,.76,10.81,.83,6.88,.13,13.87-.22,20.62,1.38,3.27,.77,6.13,1.97,8.91,3.85,2.35,1.58,4.52,3.41,6.49,5.45,7.78,8.02,12.26,19.19,11.41,30.4-.22,2.9-.82,5.76-1.74,8.51-.74,2.2-1.13,4.44-.97,6.77,.33,4.51,2.55,8.99,6.85,10.87,3.17,1.39,6.95,1.14,10.33,1.32,4.22,.23,8.45,.41,12.67,.64,8.66,.46,17.32,1.07,25.86,2.64,1.57,.29,2.25-2.12,.66-2.41h0Z"/><path d="M318.79,663.7c-3.3-6.45-.91-13.9,1.14-20.34,2.26-7.1,4.05-14.33,4.7-21.78,.39-4.55,.26-9.12-.59-13.62-.3-1.58-2.71-.91-2.41,.66,1.53,8.13,.41,16.45-1.38,24.43-1.56,6.96-4.6,13.61-5.42,20.73-.45,3.86,.02,7.7,1.8,11.17,.73,1.43,2.89,.17,2.16-1.26h0Z"/><path d="M805.29,661.8c-1.42,1.41-2.74,2.92-4.3,4.19-1.98,1.61-4.26,2.62-6.77,3.07l.96,.13c-5.54-3.85-11.54-6.91-17.42-10.18-2.85-1.58-5.67-3.23-8.38-5.03-1.4-.93-2.77-1.9-4.1-2.92-.72-.55-.89-.92-1.08-1.83-.13-.64-.17-1.3-.13-1.95,.17-2.54,1.61-4.85,2.89-6.98,1.35-2.25,2.73-4.5,3.57-7,.79-2.35,.17-4.55-2.11-5.75-1.01-.53-2.18-.81-3.32-.79-1.67,.03-2.99,.89-4.55,1.36-1.77,.53-3.6,.76-5.45,.84-1.04,.05-2.07,.02-3.11,.05-.59,.02-.96,.19-1.51,.3-2.37,.49-3.99-1.55-4.35-3.65-.27-1.58-2.68-.91-2.41,.66,.46,2.66,2.31,4.91,5.03,5.42,.55,.1,1.1,.14,1.66,.09s1.07-.35,1.6-.42c.6-.07,1.86,.08,2.65,.06,1.04-.04,2.08-.11,3.11-.24,2.11-.27,4-.9,5.96-1.68,1.31-.52,3.03-.39,4.11,.6,1.19,1.09,.22,2.81-.34,4.02-.7,1.53-1.57,2.96-2.43,4.4-1.59,2.64-3.25,5.4-3.49,8.54-.11,1.48,.08,3.31,.81,4.63,.41,.74,1.31,1.23,1.98,1.74,.91,.69,1.85,1.36,2.79,2.01,6.8,4.66,14.29,8.15,21.35,12.38,1.01,.6,2.01,1.22,2.99,1.86,.78,.51,1.92,1.63,2.86,1.76,.87,.12,1.97-.32,2.79-.59,.89-.3,1.77-.67,2.61-1.12,2.88-1.54,5-3.96,7.28-6.22,1.14-1.13-.62-2.9-1.77-1.77h0Z"/><path d="M817.63,715.69c7.11-8.74,15.42-16.38,22.71-24.96,6.33-7.45,11.15-16.38,9.38-26.43-1.64-9.34-7.52-18.25-15.02-23.95-6.88-5.23-17.41-8.86-25.88-5.63s-7.89,13.77-4.02,20.32c.82,1.38,2.98,.13,2.16-1.26-2.89-4.89-4.16-13.34,1.96-16.39,3.7-1.84,8.41-1.53,12.31-.62,4.12,.96,8.06,2.75,11.49,5.22,7.08,5.08,12.52,13.34,14.36,21.85,2,9.22-2.23,17.58-8,24.52-7.36,8.86-15.95,16.63-23.23,25.58-1.01,1.24,.75,3.02,1.77,1.77h0Z"/><path d="M800.72,561.3c5.59,7.32,14.7,12.64,24.07,12.73,3.44,.03,6.61-1.59,8.09-4.77s1.25-6.83,.21-10.04c-2.42-7.46-11.16-14.04-8.67-22.58,2.52-8.67,12.02-12.28,19.92-14.29s17.14-3.43,23.54-9.46c3.3-3.11,6.03-7.56,5.86-12.23s-2.81-8.25-5.59-11.54c-3.18-3.77-6.53-7.22-9.14-11.44s-4.61-8.57-6.33-13.11c-3.44-9.07-5.66-18.52-8.76-27.7-6.68-19.77-19.73-36.29-32.1-52.75-1.53-2.04-3.06-4.09-4.57-6.15-.94-1.28-3.11-.04-2.16,1.26,11.78,16.07,24.89,31.53,33.11,49.86,7.75,17.28,9.43,37.1,20.64,52.84,2.74,3.84,6.23,7.04,9.03,10.82,2.64,3.55,4.3,7.59,2.69,11.96-3.2,8.66-12.75,11.83-20.88,13.8s-16.25,3.55-22.37,9.2c-3.01,2.78-5.33,6.6-5.75,10.72s1.31,7.83,3.35,11.21,4.7,6.68,5.88,10.53c.87,2.85,1.11,6.47-.72,9.02-2.25,3.13-6.6,2.47-9.86,1.76-4.55-.98-8.9-3.04-12.51-5.98-1.78-1.45-3.41-3.1-4.8-4.93-.96-1.26-3.14-.02-2.16,1.26h0Z"/><path d="M401.79,431.39c-12.5-10.41-14.86-27.47-12.23-42.72,1.44-8.32,4.47-16.64,8.2-24.19s8.68-14.84,14.54-21.11c1.44-1.55,2.62-2.86,4.81-3.17,1.92-.27,3.88,.02,5.8,.07,1.79,.05,3.65-.08,5.27-.91,1.81-.93,2.99-2.64,3.91-4.4,1.08-2.06,1.19-4.51,1.43-6.8,.25-2.44,.38-4.88,.4-7.33,.04-4.82-.33-9.63-.87-14.41-1.08-9.6-2.81-19.14-3.24-28.8-.11-2.47-.13-4.93-.05-7.4,.03-.92,.14-1.63,.58-2.46,.51-.97,.98-1.48,1.98-1.93,3.38-1.54,7.04-2.56,10.21-4.54,3.52-2.2,5.4-5.31,6.49-9.26,1.24-4.46,1.39-9.15,.98-13.74s-1.34-9.27-2.23-13.86c-.46-2.39-.92-4.77-1.29-7.18s-.84-4.91-.61-7.32c.24-2.53,1.05-5,1.66-7.46,.39-1.56-2.02-2.23-2.41-.66-.59,2.4-1.32,4.77-1.64,7.22s.03,4.88,.37,7.31c.67,4.88,1.75,9.7,2.62,14.55s1.47,9.41,1.18,14.16c-.25,4.17-1.06,9.31-4.16,12.37-2.66,2.62-6.43,3.78-9.81,5.15-1.76,.71-3.69,1.26-4.83,2.86s-1.53,3.29-1.59,5.27c-.28,9.82,1.2,19.55,2.5,29.26,1.29,9.65,2.32,19.43,1.18,29.15-.15,1.26-.2,2.72-.63,3.91-.34,.92-.98,1.95-1.6,2.72-1.35,1.68-3.2,2.06-5.25,2.05-3.59-.02-7.99-.94-10.93,1.77-3.17,2.93-5.95,6.46-8.52,9.92s-4.82,7.02-6.84,10.76c-4.14,7.65-7.18,15.88-9.25,24.32-3.63,14.84-2.47,32.42,7.84,44.44,1.3,1.52,2.74,2.91,4.28,4.19,1.23,1.02,3.01-.74,1.77-1.77h0Z"/><path d="M683.72,482.55c1.82-5.05,7.49-7.64,12.53-7.99,6.09-.43,11.84-3.21,16.55-7.03,.69-.56,1.32-1.17,1.99-1.75,.76-.65,1.61-1.07,2.53-1.46,1.59-.67,3.01-.82,4.7-.7,2.37,.16,4.73,.32,7.1,.43,4.89,.22,9.8,.21,14.65-.5s9.38-2.12,13.29-4.86c1.94-1.36,3.65-2.98,5.1-4.86,.74-.96,1.4-1.96,1.99-3.02,.75-1.35,.91-2.82,1.23-4.32,2.63-12.08,7.44-23.63,13.91-34.14,7.33-11.9,16.8-22.43,27.83-31.02,1.27-.99-.51-2.74-1.77-1.77-19.61,15.26-34.48,36.87-41.06,60.88-.38,1.4-.74,2.81-1.06,4.23s-.43,3.22-1.08,4.58c-1.08,2.27-2.83,4.34-4.71,5.99-3.58,3.14-8.17,4.8-12.79,5.64-4.9,.89-9.93,.9-14.89,.69-2.38-.1-4.76-.26-7.13-.42-1.25-.08-2.45-.21-3.69,.03-1.66,.32-3.77,1.09-5.14,2.1-.75,.55-1.38,1.31-2.09,1.91-.8,.68-1.63,1.33-2.49,1.92-1.49,1.03-3.07,1.94-4.71,2.7s-3.28,1.32-4.99,1.76c-1.53,.39-3.02,.42-4.58,.62-5.81,.76-11.56,3.95-13.63,9.69-.55,1.52,1.87,2.17,2.41,.66h0Z"/><path d="M627.93,465.63c2.91,1.45,4.1,4.51,5.74,7.13,1.75,2.8,4.2,4.89,7.19,6.28,3.37,1.56,7.03,2.51,10.56,3.62,3.97,1.26,7.98,2.45,12.07,3.28,4.55,.93,9.19,1.39,13.83,1,1.59-.13,1.61-2.64,0-2.5-8.17,.69-16.14-1.37-23.88-3.77-3.53-1.1-7.17-2.06-10.59-3.48-3.04-1.26-5.49-3.17-7.2-5.99s-3.24-6.13-6.45-7.73c-1.44-.72-2.7,1.44-1.26,2.16h0Z"/><path d="M408.25,436.63c13.04,2.66,26.06,5.61,39.35,6.73,1.52,.13,3,.16,4.48,.59s2.83,.99,4.3,1.3c2.96,.64,6.2,.5,9.22,.65,6.54,.31,13.08,.53,19.61,.84,7.46,.36,14.92,.86,22.34,1.77l-.88-.37c3.3,3,7.21,5.22,11.57,6.24s8.48,.89,12.7,.29c4.47-.64,8.83-1.88,13.13-3.26s8.74-3.48,13.47-3.31,9.63,1.72,14.54,1.81c2.36,.04,4.76-.27,6.98-1.11s3.94-2.32,5.79-3.61c3.57-2.5,7.7-5.38,12.28-4.45,3.89,.78,7.33,2.9,9.96,5.84,3.03,3.37,4.94,7.83,5.25,12.35,.15,2.13-.29,4.09,.71,6.07s2.78,3.5,4.9,3.99c1.57,.36,2.23-2.05,.66-2.41s-2.73-1.44-3.41-2.84c-.63-1.3-.28-2.71-.33-4.11-.12-3.23-.94-6.4-2.33-9.31-2.68-5.6-7.69-10.17-13.75-11.76-3.47-.91-6.66-.4-9.86,1.16s-6.03,3.91-9.05,5.86c-3.32,2.14-7.6,2.05-11.38,1.55s-7.68-1.49-11.59-1.54c-1.81-.02-3.69,.12-5.42,.7s-3.41,1.16-5.12,1.73c-3.39,1.14-6.81,2.23-10.29,3.09-6.64,1.63-13.78,2.4-20.31-.1-1.67-.64-3.25-1.51-4.72-2.53-.75-.52-1.46-1.08-2.15-1.69-.82-.72-1.45-.8-2.52-.93-4.33-.51-8.67-.88-13.02-1.17-8.85-.59-17.72-.84-26.58-1.25-4.17-.19-8.41-.07-12.4-1.39s-8.35-1.28-12.56-1.8c-8.8-1.07-17.49-2.86-26.16-4.65-2.25-.47-4.5-.93-6.75-1.39-1.57-.32-2.24,2.09-.66,2.41h0Z"/><path d="M25,577.59c9.09-5.07,18.93-8.68,27.89-13.99,8.27-4.91,15.71-11.12,22.55-17.85s13.29-14.18,19.63-21.53c6.19-7.19,12.38-14.44,17.6-22.39s9.32-16.42,11.14-25.65c1.97-10.03,1.19-20.35-1.12-30.26s-6.32-19.44-10.46-28.82c-4.04-9.16-8.3-18.87-8.46-29.05-.14-8.95,3.52-16.97,9.81-23.23,5.81-5.78,13.07-9.91,20.35-13.56,1.85-.93,3.72-1.83,5.59-2.72,1.45-.69,.19-2.84-1.26-2.16-14.16,6.71-30.61,15.16-35.57,31.27-2.94,9.55-.86,19.64,2.47,28.79,3.5,9.65,8.31,18.77,11.69,28.48s5.73,19.86,5.6,30.17-2.88,19.39-7.54,28.1c-4.5,8.43-10.4,16.01-16.53,23.3s-12.51,14.74-19.13,21.77-13.83,13.87-21.86,19.46-17.62,9.7-26.72,14.12c-2.34,1.14-4.67,2.32-6.94,3.59-1.41,.78-.15,2.94,1.26,2.16h0Z"/><path d="M639.43,316.44c1.61,0,1.61-2.5,0-2.5s-1.61,2.5,0,2.5h0Z"/><path d="M303.86,497.82c1.98,2.86,4.47,5.31,6.62,8.04,2.02,2.55,4.51,5.95,4.1,9.41-.81,6.87-10.97,7.12-16.08,7.24-9.54,.24-19.04,.1-28.54-.76-10.78-.97-21.49-2.67-32.09-4.87-2.27-.47-4.53-.91-6.81-1.32-2.1-.38-4.29-.78-6.25-1.66-1.54-.7-2.82-1.63-3.09-3.38-.21-1.37,.18-2.82,1.77-2.8s1.61-2.48,0-2.5c-3.74-.04-5.03,3.89-3.91,6.97,1.4,3.83,6.22,4.91,9.77,5.6,10.81,2.09,21.59,4.26,32.53,5.6,11.39,1.4,22.75,1.84,34.21,1.66,6.46-.1,16.04,.15,19.85-6.24,2.3-3.87,.75-8.26-1.52-11.74-2.46-3.78-5.85-6.81-8.41-10.5-.91-1.31-3.08-.07-2.16,1.26h0Z"/><path d="M428.22,132.37c15.29-18.56,30.84-36.91,46.28-55.36,7.54-9.01,14.98-18.11,22.51-27.13,6.56-7.87,13.99-15.34,18.39-24.73,3.62-7.73,7.73-17.62,17.06-19.55,1.57-.32,.91-2.73-.66-2.41-8.4,1.73-13.18,9.48-16.65,16.64-2.05,4.22-3.99,8.36-6.7,12.22-3.02,4.3-6.49,8.24-9.92,12.21-7.7,8.92-15.07,18.15-22.63,27.2s-15.45,18.42-23.18,27.63c-8.79,10.47-17.57,20.96-26.27,31.51-1.02,1.23,.74,3.01,1.77,1.77h0Z"/><path d="M492.44,90.32c13.03,1.02,26.71,6.54,35.83,16.08,3.76,3.93,7.05,9.55,12.68,10.96s10.24-3.12,12.24-8.09c2.12-5.26,1.56-10.92-1.29-15.79s-7.55-8.89-11.96-12.59-8.88-7.6-12.58-12.12-7.11-10.52-5.14-16.5c1.11-3.36,3.75-6.04,6.04-8.64,2.56-2.91,4.88-6,7.08-9.19,4.56-6.59,8.56-13.56,12.25-20.67,.94-1.82,1.86-3.65,2.77-5.48,.71-1.44-1.44-2.71-2.16-1.26-3.53,7.13-7.28,14.16-11.53,20.88-2.13,3.36-4.37,6.64-6.77,9.81-2.22,2.95-4.85,5.57-7.09,8.5-1.91,2.51-3.3,5.23-3.62,8.4-.29,2.87,.42,5.74,1.56,8.36,2.42,5.54,6.8,10.12,11.15,14.2,4.07,3.82,8.56,7.15,12.54,11.06,3.95,3.88,7.63,8.7,7.59,14.5-.03,4.65-2.7,11.52-7.92,12.35-5.61,.89-9.77-5.59-12.94-9.19-8.53-9.7-21.53-15.58-34.15-17.53-1.52-.23-3.05-.41-4.59-.53s-1.6,2.38,0,2.5h0Z"/><path d="M440.96,156.54c6.39,6.32,13.03,13.63,22.23,15.56,4.24,.89,8.9-.22,11.2-4.19,2.03-3.49,1.43-8.13,1.13-11.96-.4-4.95-1.08-9.9-.92-14.88s1.43-9.38,4.02-13.55c4.15-6.65,10.85-11.63,13.67-19.09,1.13-3,1.76-6.54,.75-9.66-1.12-3.46-4.09-5.45-7.54-6.16-1.57-.32-2.24,2.09-.66,2.41,2.67,.54,5.06,1.89,5.86,4.64,.73,2.49,.2,5.2-.63,7.59-1,2.86-2.66,5.29-4.59,7.6-2.68,3.2-5.51,6.28-7.9,9.71s-4.27,7.3-4.99,11.48c-.76,4.42-.55,8.91-.17,13.36s1.01,8.69,.83,13.04c-.07,1.66-.36,3.37-1.37,4.74-1.23,1.68-3.26,2.67-5.32,2.75-4.72,.18-9.52-2.58-13.19-5.3-3.88-2.89-7.21-6.46-10.65-9.86-1.15-1.13-2.91,.63-1.77,1.77h0Z"/><path d="M446.79,204.59c2.96-5.33,6.16-11.17,5.54-17.49s-4.33-10.88-8.04-15.39c-1.02-1.24-2.78,.53-1.77,1.77,3.33,4.04,6.96,8.61,7.34,14.05,.4,5.73-2.55,10.96-5.24,15.8-.78,1.41,1.38,2.67,2.16,1.26h0Z"/><path d="M390.38,166.94c13.22-9.65,25.46-20.57,36.5-32.65,1.08-1.19-.68-2.96-1.77-1.77-10.9,11.91-22.95,22.74-35.99,32.26-1.29,.94-.04,3.11,1.26,2.16h0Z"/><path d="M443.24,169.79c-.35-2.56-1.75-4.73-2.63-7.11-.66-1.77-1.17-4.21,.17-5.81h-1.77l.4,.42c1.11,1.17,2.88-.6,1.77-1.77l-.4-.42c-.44-.46-1.34-.51-1.77,0-1.76,2.11-1.83,4.89-1.08,7.44,.8,2.71,2.52,5.07,2.9,7.91,.09,.67,.95,1.03,1.54,.87,.72-.2,.96-.87,.87-1.54h0Z"/><path d="M485.38,91.85c0-.08,0-.16,.02-.23,.01-.18,0,.05-.01,.1,.05-.13,.06-.28,.09-.42,.04-.13,.08-.25,.12-.37,.05-.15-.12,.25-.02,.05,.04-.07,.07-.14,.11-.21,.06-.11,.13-.22,.21-.33,.03-.04,.12-.24,.04-.06s.01,0,.05-.05c.09-.1,.18-.19,.27-.28,.05-.05,.13-.1,.18-.15-.07,.08-.19,.14-.03,.03,.11-.08,.23-.15,.35-.21,.06-.03,.12-.06,.18-.09,.24-.12-.18,.06-.04,.02s.28-.1,.43-.13c.07-.02,.13-.03,.2-.04,.03,0,.05-.01,.08-.01,.1-.02,.05-.01-.13,.01,.08,.04,.32-.03,.41-.03,.14,0,.27,0,.41,.01,.28,.01-.28-.06,0,0,.07,.01,.13,.03,.2,.04,.15,.03,.29,.08,.43,.13,.62,.22,1.39-.25,1.54-.87,.16-.7-.21-1.3-.87-1.54-1.45-.51-3.24-.29-4.49,.61-1.32,.96-2.12,2.4-2.2,4.04-.03,.65,.6,1.28,1.25,1.25,.7-.03,1.22-.55,1.25-1.25h0Z"/><path d="M742.88,625.21l.07,.18,.13-.96-.12,.19,.75-.57-.22,.06,.96,.13c-.13-.07-.32-.74-.38-.89-.23-.53-.46-1.06-.68-1.59-.38-.91-.74-1.83-1.09-2.76-.72-1.92-1.37-3.88-1.93-5.85-1.12-3.9-1.93-7.9-2.29-11.95-.68-7.55,.13-15.2,2.78-22.32,5.08-13.65,17.6-24.07,32.52-23.99,8.35,.04,17.27,1.42,24.19,6.39,1.31,.94,2.56-1.23,1.26-2.16-6.86-4.93-15.55-6.4-23.82-6.7-8.16-.29-15.97,1.98-22.56,6.85-13.77,10.16-18.74,27.98-16.59,44.42,.65,5.01,1.88,9.93,3.57,14.69,.83,2.34,1.65,4.89,2.86,7.07,.39,.7,1.01,1.25,1.87,1.08s1.48-1.11,1.14-1.96c-.59-1.48-3-.83-2.41,.66h0Z"/><path d="M628.18,463.1c-1.7-1.84-4.54-.13-5.76,1.43-.3,.38-.55,.77-.82,1.17-.06,.08-.12,.17-.18,.25-.08,.1,.08-.08-.07,.08-.07,.07-.13,.15-.21,.22-.05,.05-.21,.17-.07,.07-.2,.14-.27,.17-.4,.2-.24,.06-.48,.11-.73,.15-.47,.08-.94,.15-1.39,.33-.62,.26-1.07,.83-.87,1.54,.16,.59,.91,1.13,1.54,.87,.81-.33,1.71-.3,2.52-.63,.88-.37,1.48-1.04,2.01-1.81,.44-.64,.67-1.08,1.27-1.49,.2-.14,.4-.28,.61-.41,.15-.09,.34-.19,.43-.22,.03,0,.29-.06,.17-.05-.14,.01,.21,.02,0-.01,.08,.01,.16,.04,.24,.06-.1-.03-.21-.14-.06,.02,.46,.5,1.3,.46,1.77,0,.49-.49,.46-1.27,0-1.77h0Z"/><path d="M677.61,486.81c2.35-.21,4.44-1.43,5.76-3.39,.37-.54,.12-1.41-.45-1.71-.63-.33-1.32-.13-1.71,.45-.07,.1-.14,.19-.21,.29,.02-.04,.17-.21,.06-.08-.04,.05-.08,.09-.11,.14-.14,.16-.29,.32-.44,.46-.09,.08-.17,.16-.27,.24-.04,.03-.07,.06-.11,.09-.12,.1,.23-.17,.06-.04s-.37,.26-.56,.37c-.18,.11-.37,.21-.57,.3-.05,.02-.11,.04-.16,.07,.04-.02,.26-.1,.1-.04-.11,.04-.22,.08-.33,.12-.2,.07-.41,.12-.62,.17-.12,.03-.23,.05-.35,.07-.18,.03,.09,0,.12-.02-.05,.02-.16,.02-.21,.02-.34,.03-.64,.12-.88,.37-.22,.22-.38,.57-.37,.88,.03,.63,.55,1.31,1.25,1.25h0Z"/><path d="M807.22,663.01c1.13-1.13,1.63-2.77,1.54-4.35-.11-1.78-.84-3.39-1.59-4.97-.28-.59-1.18-.79-1.71-.45-.61,.39-.75,1.08-.45,1.71s.55,1.17,.77,1.75c.13,.35,.24,.7,.33,1.06,.04,.18,.08,.36,.11,.54,.03,.16,.03,.18,.01,.06,0,.06,.01,.12,.02,.17,.02,.29,.03,.59,0,.88,0,.08-.01,.16-.02,.23,.02-.14,.01-.13,0,.02-.03,.13-.06,.27-.09,.4-.13,.46-.34,.84-.67,1.17-.46,.46-.5,1.31,0,1.77s1.27,.49,1.77,0h0Z"/><path d="M422.83,895.38c3.39-6.64,9.67-11.08,13.83-17.17,3.67-5.37,7.48-14.28,2.59-20.05-1.04-1.23-2.8,.55-1.77,1.77,2.1,2.48,1.73,6.08,.89,8.98-1.03,3.53-2.84,6.84-5.11,9.72-4.13,5.24-9.52,9.47-12.6,15.49-.73,1.43,1.43,2.7,2.16,1.26h0Z"/><path d="M413.81,693.06c.1,.11,.2,.23,.3,.35,.05,.06,.28,.37,.16,.2,.18,.25,.36,.49,.52,.75,.34,.53,.64,1.08,.91,1.65,.03,.07,.06,.14,.09,.21,.08,.18-.06-.17,0,.02,.05,.14,.11,.28,.16,.43,.1,.29,.2,.58,.28,.87,.17,.61,.3,1.22,.39,1.85s.95,1.06,1.54,.87c.71-.23,.97-.84,.87-1.54-.38-2.76-1.64-5.34-3.47-7.42-.43-.49-1.33-.48-1.77,0-.48,.53-.46,1.24,0,1.77h0Z"/><path d="M316.9,666.55c3.02,1.29,6.16,2.21,9.41,2.66,.67,.09,1.34-.16,1.54-.87,.16-.58-.2-1.44-.87-1.54-3.02-.42-6.01-1.21-8.81-2.41-.62-.27-1.34-.18-1.71,.45-.31,.53-.18,1.44,.45,1.71h0Z"/><path d="M322.29,605.32c-4.56-3.93-2.3-10.49,.19-14.88,1.57-2.77,3.31-5.42,4.65-8.32s2.34-5.68,3.1-8.66c1.67-6.58,1.75-13.33,1.23-20.06s-1.52-13.36-1.44-20.08,1.29-13.75,5.05-19.57c.88-1.35-1.29-2.61-2.16-1.26-7.32,11.32-5.4,25.3-4.21,37.97,.67,7.17,.99,14.4-.67,21.47-.79,3.35-1.93,6.63-3.44,9.73-1.39,2.85-3.18,5.48-4.69,8.26-2.83,5.21-4.55,12.71,.62,17.17,1.21,1.05,2.99-.72,1.77-1.77h0Z"/><path d="M305.66,496.65c-.36-3.61,1.73-6.82,2.89-10.11,1.1-3.11,1.22-6.52-.93-9.22-4.54-5.69-12.69-3.76-18.88-5.18-1.93-.44-3.81-1.24-5.11-2.79-1.53-1.82-2-4.3-2.49-6.56l-1.54,1.54c5.65,1.6,11.3,3.1,17.17,3.6,5.48,.47,10.97,.56,16.1,2.78,9.06,3.93,15.52,12.22,18.35,21.54,1.8,5.93,2.23,12.16,1.69,18.32-.14,1.6,2.36,1.59,2.5,0,.97-10.93-1.24-22.47-8-31.34-2.95-3.87-6.65-7.18-10.92-9.52-4.83-2.64-10.02-3.58-15.46-3.97-3.54-.26-7.05-.5-10.53-1.21s-6.84-1.66-10.22-2.62c-.96-.27-1.73,.63-1.54,1.54,.8,3.72,1.94,7.41,5.35,9.53,2.99,1.85,6.69,2.1,10.11,2.26,3.22,.15,6.59,.3,9.46,1.95,3.12,1.8,3.71,4.91,2.66,8.18-1.2,3.72-3.55,7.2-3.14,11.27,.16,1.59,2.66,1.6,2.5,0h0Z"/><path d="M224.48,506.28c1.75-1,3.23-2.65,3.15-4.78-.08-2.36-1.77-4.15-3.58-5.4-2.03-1.4-2.57-4.24-3.13-6.51s-.93-4.45-1.71-6.59-1.9-4.06-3.63-5.5-4.01-2.6-6.09-3.63c-4.15-2.05-8.52-3.61-12.66-5.67s-7.61-4.48-10.02-8.26-4.45-7.61-5.48-11.95c-.97-4.09-.93-8.53,1.16-12.28,1.13-2.02,2.75-3.82,4.74-5.02,2.28-1.37,4.73-2.41,7.15-3.49,4.05-1.81,9.78-4.44,10.57-9.38,.41-2.56-.78-4.95-2.3-6.93-.77-1.01-1.9-1.89-2.51-3-.57-1.05-.72-2.25-.72-3.43,0-2.34,.55-4.64,.58-6.98,.01-.89,.02-2.02-.38-2.83s-1.14-1.51-1.82-2.06c-2.8-2.25-6.8-2.87-10.27-2.19-1.51,.29-3.06,.92-4.17,2.03-1.44,1.44-2.27,3.69-3.01,5.53-1.9,4.72-2.61,9.78-3.81,14.7-.59,2.4-1.29,4.8-2.41,7-.5,.98-1.07,1.93-1.73,2.81-.74,.99-1.75,1.28-2.91,1.6-3.59,.98-7.21,.27-10.42-1.53-7.07-3.95-11.92-11.08-17.35-16.89-1.11-1.19-2.67-3.4-4.34-3.66-1.75-.26-3.73,.14-5.23,1.08-3.06,1.91-4.35,5.64-5.31,8.92-.52,1.75-.96,3.52-1.5,5.27-.48,1.54,1.93,2.2,2.41,.66,.96-3.08,1.54-6.34,2.94-9.26s3.53-4.53,6.85-4.16l-.88-.37c5.31,4.82,9.47,10.76,14.71,15.66,4.83,4.53,10.88,8.28,17.76,6.91,1.74-.35,3.77-.87,4.9-2.29,1.29-1.62,2.29-3.4,3.09-5.31,1.68-4.01,2.38-8.33,3.32-12.55,.49-2.18,1.03-4.35,1.77-6.45,.65-1.87,1.43-4.05,2.66-5.63,1.66-2.14,5.45-2.12,7.81-1.58,1.48,.34,2.95,.95,4.04,2.04,1.26,1.26,.79,3.34,.6,4.96-.23,2.04-.55,4.08-.29,6.14,.12,.92,.34,1.79,.72,2.63,.5,1.09,1.31,1.84,2.1,2.73,1.52,1.72,3.25,4.11,2.52,6.54-.65,2.16-2.88,3.74-4.72,4.84-3.85,2.3-8.22,3.58-12.03,5.96-6.88,4.29-8.47,12.87-6.62,20.24s6.12,14.8,12.47,19.03c6.75,4.51,14.91,6.33,21.69,10.82,3.61,2.38,4.27,6.8,5.18,10.71,.48,2.06,1.05,4.11,1.97,6.02,.41,.86,.96,1.56,1.71,2.15s1.7,1.04,2.27,1.87c1.32,1.89,.87,3.45-1.07,4.56-1.4,.8-.14,2.96,1.26,2.16h0Z"/><path d="M24.17,577.77c.39,.4-3.43,2.21-3.8,2.53-.57,.49-.99,1.1-1.1,1.86-.19,1.21,.59,1.76,1.39,2.55l10.72,10.49c6.47,6.33,13.1,12.93,21.42,16.77,4.04,1.86,8.38,3.1,12.85,3.23,3.44,.1,8.71-.27,9.24-4.64,.46-3.85-3.06-6.94-6.11-8.58-3.5-1.87-7.45-2.61-11.28-3.5-3.56-.83-7.1-1.93-9.98-4.29-1.3-1.07-2.48-2.38-3.13-3.95-.54-1.31-1.25-4.12,.7-4.46,1.73-.3,3.77,.14,5.45,.54,1.81,.43,3.58,1.05,5.29,1.79,3.44,1.49,6.69,3.38,10,5.13s6.6,3.34,10.16,4.28c1.8,.48,3.66,.77,5.53,.83,2.51,.08,5.02-.28,7.54-.12,4.9,.32,9.3,3.37,13.5,5.66l13.39,7.29,27,14.7c7.56,4.12,16.14,9.49,25.14,8.52,2.02-.22,3.91-.77,5.74-1.64,.64-.3,.72-1.15,.45-1.71-3.45-7.05-9-12.22-15.62-16.29-6.96-4.28-14.03-8.32-20.82-12.89s-13.4-9.43-19.79-14.56c-3.14-2.53-6.39-5.03-9.3-7.84-1.2-1.16-2.44-2.51-2.89-4.16-.51-1.89,.56-3.37,1.66-4.8,4.6-5.93,6.41-13.1,8.28-20.23,2.01-7.66,4.68-15.1,8.23-22.19,1.81-3.62,3.82-7.13,6.01-10.52s4.58-6.69,6.21-10.4,2.61-7.39,4.45-10.86c1.63-3.08,3.67-5.92,6.06-8.45s5.12-4.72,8.12-6.5c2.75-1.64,6.2-2.8,7.88-5.74,1.48-2.6,.93-5.86-.84-8.18-1.98-2.59-5.24-3.56-8.39-3.09-1.7,.25-3.31,.9-4.73,1.86l1.71,.45c-1.46-2.76-3.68-4.99-6.43-6.47l-.3,2.28c3.74-1.56,6.83-4.1,9.01-7.53,.87-1.36-1.3-2.62-2.16-1.26-1.8,2.83-4.41,5.09-7.52,6.39-.91,.38-1.34,1.72-.3,2.28,2.4,1.29,4.26,3.17,5.53,5.57,.3,.57,1.17,.81,1.71,.45,2.67-1.78,6.65-2.52,9.23-.14,2.32,2.14,2.46,5.58,.02,7.65-1.27,1.08-2.86,1.77-4.32,2.56s-2.93,1.71-4.3,2.7c-2.73,1.98-5.22,4.27-7.38,6.85s-4.02,5.41-5.47,8.45c-1.66,3.48-2.63,7.25-4.32,10.71s-4.12,6.76-6.24,10.11-4.06,6.82-5.81,10.38c-3.39,6.91-6.01,14.14-7.97,21.58-1.86,7.06-3.56,14.12-8.11,20-1,1.29-1.91,2.63-2.12,4.28s.28,3.24,1.13,4.63c1.87,3.08,5.05,5.32,7.77,7.59,6.1,5.09,12.41,9.93,18.89,14.51s13.37,9.04,20.32,13.14,13.4,7.68,17.94,14.18c1.05,1.51,1.97,3.1,2.78,4.75l.45-1.71c-7.8,3.72-16.72-.59-23.65-4.32-8.47-4.55-16.89-9.19-25.34-13.79s-16.69-9.19-25.1-13.65c-1.88-1-3.83-1.94-5.88-2.52-2.19-.61-4.43-.67-6.69-.58s-4.3,.24-6.44-.06c-1.71-.23-3.4-.69-5.02-1.26-6.71-2.34-12.53-6.64-19.14-9.22-3.06-1.19-6.55-2.17-9.87-1.96-1.7,.11-3.31,.82-3.85,2.56-.45,1.45-.23,3.24,.24,4.66,2.21,6.69,9.78,9.24,15.96,10.65,3.59,.82,7.35,1.55,10.54,3.49,1.56,.95,3.12,2.24,3.81,3.98,.81,2.04-.32,3.4-2.32,3.85-4,.9-8.56,0-12.37-1.28-4.09-1.38-7.86-3.56-11.33-6.11-7.17-5.26-13.3-11.95-19.64-18.15l-5.1-4.99,.37,.88c-.04-.78,1.13-1.14,1.73-1.39,.78-.33,1.47-.65,2.08-1.25,1.17-1.16,1.63-2.87,.39-4.14-1.13-1.15-2.89,.62-1.77,1.77h0Z"/><path d="M125.64,417.38c-.81,3.76,2.25,7.24,4.16,10.2,2.13,3.3,4.34,6.55,6.77,9.64s4.97,5.62,7.68,8.27c2.49,2.43,4.93,5.04,5.84,8.49,.41,1.55,2.82,.9,2.41-.66-1.75-6.66-8.21-10.77-12.46-15.78-2.5-2.94-4.73-6.11-6.85-9.33-1.07-1.63-2.12-3.28-3.16-4.92-.96-1.52-2.38-3.33-1.97-5.24,.34-1.57-2.07-2.24-2.41-.66h0Z"/><path d="M599,977.48c3.01-.08,4.68-2.29,5.71-4.88,.6-1.5,1.06-2.89,1.1-4.51,.05-2.02,.21-4.04,.54-6.04s.79-3.83,1.4-5.69c.28-.87,.55-1.8,.98-2.61,.53-.99,1.24-1.91,1.88-2.83,2.32-3.31,4.86-6.47,7.52-9.51,5.21-5.95,10.9-11.45,16.42-17.1,5.89-6.03,11.19-12.53,16.5-19.07,6.08-7.48,12.01-15.08,17.71-22.86,.95-1.3-1.22-2.55-2.16-1.26-4.93,6.74-10.05,13.34-15.29,19.84s-10.26,12.97-15.96,18.92c-5.37,5.62-10.99,11-16.25,16.71-2.59,2.81-5.1,5.71-7.45,8.73-1.19,1.53-2.35,3.09-3.46,4.69-.55,.79-1.14,1.58-1.62,2.41s-.75,1.77-1.05,2.66c-1.37,4.03-2.08,8.27-2.21,12.53-.08,2.44-1.2,7.27-4.32,7.35-1.61,.04-1.61,2.54,0,2.5h0Z"/><path d="M717.84,829.8c19.07-22.72,38.43-45.21,56.35-68.87,4.75-6.27,8.95-12.93,12.37-20.02,.7-1.44-1.46-2.71-2.16-1.26-6.24,12.94-15.32,24.08-24.22,35.25-9.16,11.5-18.58,22.79-28.04,34.05-5.35,6.36-10.72,12.71-16.07,19.08-1.03,1.22,.73,3,1.77,1.77h0Z"/><path d="M669.78,881c1.85-7.16,9.33-9.64,15.6-11.74,3.4-1.15,6.83-2.29,9.91-4.16,3.48-2.12,6.39-4.97,8.73-8.29,2.67-3.77,4.54-8.04,6.23-12.33,.59-1.5-1.83-2.15-2.41-.66-3.01,7.64-6.95,15.14-14.29,19.4-6.13,3.56-13.5,4.32-19.48,8.21-3.27,2.12-5.71,5.1-6.7,8.91-.4,1.56,2.01,2.22,2.41,.66h0Z"/><path d="M802.66,706.57c0-.09,0-.18,0-.27-.02,.12-.02,.1,.01-.05,.01-.05,.14-.35,.05-.17,.11-.22,.17-.31,.46-.53,.2-.15,.82-.39,1.14-.41,.64-.06,.98,.04,1.52,.38s1.02,.86,1.38,1.41c.89,1.33,1.4,2.85,2.08,4.28,.73,1.54,1.68,2.93,3.11,3.89,.56,.38,1.38,.11,1.71-.45,.36-.61,.11-1.33-.45-1.71-1.45-.97-2.14-2.76-2.79-4.3-.71-1.67-1.5-3.43-2.91-4.63s-3.16-1.73-4.94-1.12c-1.6,.55-2.95,1.9-2.87,3.69,.07,1.6,2.57,1.61,2.5,0h0Z"/><path d="M788.32,736.75c5.43-8.01,9.89-16.63,13.35-25.67,.57-1.5-1.84-2.15-2.41-.66-3.38,8.84-7.79,17.24-13.09,25.07-.91,1.34,1.26,2.59,2.16,1.26h0Z"/><path d="M711.28,841.72c.16-.77,.38-1.52,.67-2.25,.02-.06,.11-.27,.04-.11,.04-.1,.09-.19,.13-.29,.08-.17,.16-.34,.25-.51,.18-.36,.38-.71,.6-1.05,.2-.32,.42-.64,.65-.94,.07-.09-.05,.06,.08-.1,.05-.07,.11-.13,.16-.2,.14-.16,.27-.32,.42-.48,.54-.6,1.14-1.14,1.77-1.63,.53-.41,.43-1.33,0-1.77-.53-.53-1.23-.41-1.77,0-2.74,2.12-4.7,5.28-5.41,8.67-.13,.64,.19,1.38,.87,1.54,.63,.14,1.39-.19,1.54-.87h0Z"/><path d="M657.67,890.01c-4.09-.76-7.74-3.19-9.9-6.76-2.54-4.21-2.34-9.31-2.83-14.03-.94-9.04-3.52-17.86-7.53-26.01-2.03-4.13-4.44-8.07-7.19-11.76s-5.93-6.62-8.44-10.26c-1.94-2.81-4.51-7.53-1.17-10.34,1.59-1.34,3.86-1.37,5.83-1.2,2.41,.21,4.81,.79,7.18,1.24l16.13,3.05c5.27,1,10.56,2.07,15.94,2.27s10.2-.68,15.02-2.61c4.61-1.84,9.05-4.13,13.51-6.3,8.76-4.27,17.46-8.73,25.63-14.04,7.72-5.02,14.74-10.87,21.13-17.5,11.12-11.55,21.32-25.52,36.42-32.15,1.83-.8,3.72-1.45,5.64-1.99,1.55-.43,.89-2.84-.66-2.41-16.48,4.6-27.8,18.21-38.94,30.29-6.2,6.72-12.67,13.07-20.14,18.4-8.23,5.87-17.15,10.7-26.19,15.2-4.5,2.24-9.02,4.46-13.58,6.58-5.02,2.33-10.1,3.99-15.67,4.07s-11.2-1.02-16.71-2.07l-16.37-3.1c-4.26-.81-9.47-2.52-13.72-.82-3.85,1.54-5.25,5.51-4.13,9.33,1.19,4.07,4.12,7.4,6.9,10.47,3.2,3.54,6.03,7.39,8.48,11.48,4.85,8.1,8.14,17.1,9.64,26.43,.8,4.94,.53,10.13,1.92,14.96,1.17,4.07,3.83,7.56,7.43,9.79,1.75,1.08,3.7,1.83,5.72,2.2,1.57,.29,2.25-2.12,.66-2.41h0Z"/></g></svg>