<?xml version="1.0" encoding="utf-8"?>
<!-- Generator: Adobe Illustrator 26.3.1, SVG Export Plug-In . SVG Version: 6.00 Build 0)  -->
<svg version="1.1" xmlns="http://www.w3.org/2000/svg" xmlns:xlink="http://www.w3.org/1999/xlink" x="0px" y="0px"
	 viewBox="0 0 996.5 892.5" style="enable-background:new 0 0 996.5 892.5;" xml:space="preserve">
<style type="text/css">
	.st0{fill:none;stroke:#000000;stroke-width:0.75;stroke-linecap:round;stroke-linejoin:round;stroke-miterlimit:10;}
</style>
<g id="Layer_4">
	<g>
		<line class="st0" x1="310.8" y1="843" x2="281.3" y2="876.7"/>
		<polyline class="st0" points="224.7,757.2 190.6,796.9 181.3,789 156.9,815.9 142.5,839.1 111.3,884.2 		"/>
		<polyline class="st0" points="99.6,479.9 93.3,479.9 95.4,488.4 74,494.7 69.4,487.3 29.6,494.9 		"/>
		<polyline class="st0" points="11.3,545 65.1,545.5 65.4,847.5 		"/>
		<polyline class="st0" points="140.9,401.6 128.6,393.9 121.4,392 108.5,388.8 96.3,376.6 113.8,348 140.9,362.7 		"/>
		<polyline class="st0" points="143.3,400.8 145.8,394.4 191.7,343.1 248.6,271.4 		"/>
		<polyline class="st0" points="121.4,392 150.2,346.8 179.9,356.2 		"/>
		<polyline class="st0" points="183.3,414.4 242.4,348 290.8,280.7 		"/>
		<line class="st0" x1="191.7" y1="343.1" x2="237" y2="354"/>
		<line class="st0" x1="259.9" y1="440.5" x2="380.3" y2="306.5"/>
		<polyline class="st0" points="242.4,348 274.2,359.2 269.5,363.7 302.1,393.5 		"/>
		<polyline class="st0" points="291.4,453.1 328.7,424.4 358.5,400.8 416.6,348.5 438.7,326 		"/>
		<line class="st0" x1="326.8" y1="467.2" x2="472.8" y2="344"/>
		<line class="st0" x1="463.2" y1="437.6" x2="422" y2="386.9"/>
		<path class="st0" d="M368.1,303.4l10.6-25.6l8.1-29.9c0,0,11.5-36.4,13.1-38c1.6-1.6,10.5-30.6,10.5-30.6"/>
		<polyline class="st0" points="373.5,174.1 363.6,202.2 341.4,255.7 320.1,292 		"/>
		<polyline class="st0" points="318.3,168.1 283.8,248.6 290.8,248.6 281.7,267.1 272.3,263.7 268.7,276.7 		"/>
		<line class="st0" x1="262" y1="165" x2="237" y2="273.1"/>
		<polyline class="st0" points="418.9,317 427.5,301.4 468,195.9 475.5,196.6 498,62.3 		"/>
		<polyline class="st0" points="416.5,181.6 438.7,112.1 463.9,29.8 		"/>
		<polyline class="st0" points="368.1,173.5 368.1,155.7 377.2,155.7 377.2,150.7 394.8,97.9 417.2,8.2 		"/>
		<polyline class="st0" points="438.7,112.1 422,109.4 394.8,97.9 		"/>
		<polyline class="st0" points="331.4,168.1 334.7,150.7 346.8,122.7 354.2,84 369.7,34.8 		"/>
		<polyline class="st0" points="656,185.5 665.5,30.4 709.1,45.6 871.8,93.1 984.2,6.9 		"/>
		<polyline class="st0" points="871.5,17.3 825.2,54.1 771.7,36.7 759.2,19 744.4,30.9 733.9,52.9 		"/>
		<line class="st0" x1="765.4" y1="27.8" x2="783.1" y2="14"/>
		<polyline class="st0" points="11.3,285.7 46.7,307.1 68.8,280.7 55.4,273.1 63.8,257.4 70,226.5 		"/>
		<polyline class="st0" points="27.1,141.5 70,137.4 75.4,91.9 71.3,91.9 72.1,77.8 55.4,71.9 70,10.3 		"/>
		<polyline class="st0" points="132.9,42.7 131.3,63.2 125,91.9 121.4,97.9 118.6,143.2 155.7,149 218.7,157.6 262,165 302.1,166.4 
			373.5,174.1 410.3,179.4 444,191.3 404.5,311.4 		"/>
		<polyline class="st0" points="64.7,138 62.5,168.1 35.4,222.4 50,229 50.8,224 70,226.5 117,239.7 134.4,245.5 180.6,268.9 
			197.1,273.4 200.6,272.4 218.4,273.4 237,273.1 246.5,271.4 268.7,276.7 285.9,279 320.1,292 352,298.9 386.8,308.6 404.5,311.4 
			418.9,317 469.9,342.8 491.7,350.7 521.9,369.6 533.6,352.5 579.2,300.5 652.1,192.9 656,185.5 661.3,188.7 669.3,168.1 
			698,179.4 688.2,203.5 753.7,251.1 		"/>
		<line class="st0" x1="155.7" y1="149" x2="134.4" y2="245.5"/>
		<polyline class="st0" points="186.7,153.2 203.8,79.4 217.1,81.9 226.7,37.7 210.5,37.7 211.3,22.3 		"/>
		<line class="st0" x1="550.8" y1="332.9" x2="605" y2="372"/>
	</g>
</g>
<g id="Layer_3">
	<g>
		<line class="st0" x1="106.7" y1="440.2" x2="91.7" y2="465.1"/>
		<polyline class="st0" points="99.6,479.9 100.6,472.3 115.4,444.8 135.3,422.3 139.8,414.5 145.8,401.6 		"/>
		<line class="st0" x1="138.5" y1="407" x2="143.3" y2="407"/>
		<polyline class="st0" points="136.5,450.9 154.9,426.5 166.6,408.7 		"/>
		<polyline class="st0" points="120.2,439.3 125.8,444.9 138.5,452 148.6,456.5 157.8,461.6 185,496.8 197.3,514.4 210.8,560.4 
			224,554.4 250.9,536.8 		"/>
		<polyline class="st0" points="108.5,474 118.6,455.1 125.8,444.9 		"/>
		<line class="st0" x1="142.5" y1="481" x2="110.3" y2="470.7"/>
		<line class="st0" x1="150.8" y1="477.7" x2="163" y2="468.4"/>
		<line class="st0" x1="163" y1="485.2" x2="155.7" y2="474"/>
		<polyline class="st0" points="160.5,418.1 181.7,426.8 187.8,432.3 192.7,440.8 200.8,449.7 211.7,459.5 		"/>
		<polyline class="st0" points="221.1,427.3 210.8,462.6 207.8,469.5 203.6,475.9 185,496.8 		"/>
		<polyline class="st0" points="172.8,481 194,456.2 210.7,437.6 218.1,437.6 		"/>
		<polyline class="st0" points="209.5,423.4 204,431.4 192.7,440.8 168.1,474 161.1,466 169,457.8 179,444.9 		"/>
		<polyline class="st0" points="203.6,475.9 188.5,462.6 180.7,457 174.4,450.9 		"/>
		<line class="st0" x1="207.8" y1="469.5" x2="194" y2="456.2"/>
		<line class="st0" x1="169" y1="421.6" x2="148.6" y2="456.5"/>
		<line class="st0" x1="163" y1="448.7" x2="156.1" y2="443.7"/>
		<line class="st0" x1="195.2" y1="468.4" x2="178.5" y2="488.4"/>
		<polyline class="st0" points="238.1,433.1 232.1,459.3 223.7,474 212.8,486.6 202,494 190.1,504.1 		"/>
		<polyline class="st0" points="195.2,485.2 202,494 209.5,510.3 228.4,568 236.7,587.5 260.2,630.3 278.1,666.4 		"/>
		<polyline class="st0" points="234.9,625.4 274.6,672.5 309.6,708.4 359,763 		"/>
		<polyline class="st0" points="190.6,515.9 230.6,504.1 255.6,496.8 280.7,490.9 291.5,490.9 302.3,515.9 311.9,545.5 335.1,574.1 
			359,599.9 386.6,631 425.8,678.1 		"/>
		<polyline class="st0" points="301.3,834.1 330.4,800.7 369.5,749.8 403.5,704.6 456,643.7 497.2,590.7 520.2,564.7 526.3,555.4 
			560,516.7 577.8,499.9 581.1,492.1 594.2,476.6 611.1,466.8 626.8,454.1 639.7,430 733.9,335.3 810.1,260.6 		"/>
		<polyline class="st0" points="711.2,383.8 719.1,367 733.9,354.8 747,337.7 771.7,313.3 		"/>
		<polyline class="st0" points="254.7,438.8 250.1,454.4 239.7,479.6 235.3,487.2 240.9,501.1 244.6,519.3 257.8,559.6 		"/>
		<polyline class="st0" points="193.6,579 236.7,565.4 342.8,537.3 397.9,522.3 413.6,520.7 419.4,518.1 430,509.4 444,497.9 
			471.9,477.6 501.5,453 513.2,443.1 550.2,416.4 560.7,406.8 		"/>
		<polyline class="st0" points="228.4,429.8 224.5,449.7 215.3,469.5 238.1,482.4 		"/>
		<polyline class="st0" points="262.2,441.5 255.6,467.5 256.8,477.7 261.5,488.4 		"/>
		<line class="st0" x1="246.5" y1="485.2" x2="256.6" y2="475.9"/>
		<line class="st0" x1="251" y1="490.9" x2="259.5" y2="483.8"/>
		<polyline class="st0" points="212.8,486.6 216.5,491.5 222.4,506.5 226.7,524 233.7,548.1 		"/>
		<polyline class="st0" points="223.4,485.2 228.2,496.1 230.6,504.1 235.9,521.7 238.1,532.5 250.1,561.9 		"/>
		<polyline class="st0" points="272.7,445.6 269.5,468.4 276.7,526.7 283.3,553.1 		"/>
		<polyline class="st0" points="280.7,490.9 292.4,520.9 302.1,548.1 		"/>
		<path class="st0" d="M249.3,533.6c0.7,0,27.4-6.9,27.4-6.9l15.6-5.8l9.9-4.9l11.9-1.7l4.4,2.5l3.9,26.1"/>
		<polyline class="st0" points="306.1,458.9 307.1,475.9 311.2,488.2 		"/>
		<polyline class="st0" points="322.4,465.4 332.8,521.9 335,539.4 		"/>
		<line class="st0" x1="234.7" y1="448" x2="250.1" y2="454.4"/>
		<line class="st0" x1="246.5" y1="436" x2="243.2" y2="451.5"/>
		<polyline class="st0" points="216,444.9 224.5,449.7 233.2,454.4 		"/>
		<polyline class="st0" points="268.1,528.9 263.4,509.3 255.6,496.8 246.5,485.2 239.7,479.6 		"/>
		<line class="st0" x1="242.7" y1="509.8" x2="260.7" y2="504.9"/>
		<polyline class="st0" points="264.1,512.2 244.6,519.3 202.3,531.2 		"/>
		<line class="st0" x1="259" y1="531.2" x2="253.9" y2="515.9"/>
		<polyline class="st0" points="263.4,509.3 274.3,507.3 282.2,508.3 288.2,522.4 296.2,549.6 		"/>
		<line class="st0" x1="332.8" y1="469.5" x2="336.5" y2="487.4"/>
		<polyline class="st0" points="349.4,476.2 350,480.5 370.9,529.7 		"/>
		<line class="st0" x1="354.5" y1="534.1" x2="347.9" y2="496.8"/>
		<line class="st0" x1="332.8" y1="521.9" x2="352.2" y2="520.9"/>
		<line class="st0" x1="366" y1="486.2" x2="382.1" y2="526.6"/>
		<polyline class="st0" points="378.6,480.5 373.5,483.8 397.9,522.3 		"/>
		<polyline class="st0" points="356.2,494.9 368.1,491.5 375.7,487.4 		"/>
		<line class="st0" x1="356.3" y1="482.4" x2="351.4" y2="483.8"/>
		<line class="st0" x1="405.4" y1="485.2" x2="430" y2="509.4"/>
		<line class="st0" x1="398.9" y1="490.1" x2="413.6" y2="501.4"/>
		<line class="st0" x1="415.3" y1="477.7" x2="436.3" y2="504.2"/>
		<polyline class="st0" points="424.4,470.9 444,497.9 461.6,523.6 		"/>
		<polyline class="st0" points="427.4,511.6 463.2,553.1 497.2,590.7 518.2,612.8 		"/>
		<polyline class="st0" points="560,516.7 536,514.9 511.9,516.6 452,524.5 443,529.7 		"/>
		<polyline class="st0" points="462.1,484.7 481.7,505.6 486.6,511.6 490.1,519.5 		"/>
		<polyline class="st0" points="468,513.9 481.7,505.6 515.4,480.5 568.5,439.8 589.7,425.5 605.4,410 		"/>
		<polyline class="st0" points="565.6,403.7 577.4,420.5 610.8,434.6 627.5,432.5 643.7,412.9 659.2,399.4 665.5,390.3 691.5,362.3 
			759.2,292.4 815.9,234.9 833.7,217 851.9,195.9 871.8,174.6 906.3,141.9 910.3,136 927.2,118.2 947.7,99.6 		"/>
		<polyline class="st0" points="946.2,85 902.4,128.1 845.1,188.5 		"/>
		<line class="st0" x1="838.8" y1="182.5" x2="851.9" y2="195.9"/>
		<line class="st0" x1="863.5" y1="183.5" x2="874.8" y2="196.6"/>
		<line class="st0" x1="871.8" y1="174.6" x2="883.6" y2="188.5"/>
		<polyline class="st0" points="907.1,166.9 901.2,160.8 938.2,132.3 927.2,118.2 		"/>
		<line class="st0" x1="906.3" y1="141.9" x2="914.3" y2="150.7"/>
		<polyline class="st0" points="910.3,136 902.4,128.1 895.6,119.6 890.6,109.4 		"/>
		<polyline class="st0" points="943.3,73.1 925.1,86.2 910.3,101.5 893.6,115.5 878.9,122.7 		"/>
		<polyline class="st0" points="835.2,200.1 820.3,213.8 796.8,233.9 741.5,282.7 713.6,310.5 690.4,329.3 672.9,346.5 664.8,356.7 
			647.7,372.9 626.5,392.4 		"/>
		<polyline class="st0" points="643.7,412.9 623.3,388.2 619.1,385.7 606.4,388.7 572.1,412.9 		"/>
		<polyline class="st0" points="602,430.8 618.7,411.7 633.4,400.4 		"/>
		<line class="st0" x1="639.7" y1="430" x2="633.4" y2="425.5"/>
		<line class="st0" x1="664.5" y1="405.1" x2="659.2" y2="399.4"/>
		<polyline class="st0" points="619.1,385.7 633.4,376.4 657.6,355 661.8,347.9 		"/>
		<line class="st0" x1="665.5" y1="390.3" x2="643.1" y2="367.7"/>
		<polyline class="st0" points="669.9,350.3 672,354.6 664.5,373.6 648.3,388.9 		"/>
		<line class="st0" x1="672.9" y1="346.5" x2="691.5" y2="362.3"/>
		<polyline class="st0" points="713.6,310.5 725.4,327.3 733.9,335.3 		"/>
		<polyline class="st0" points="759.2,292.4 768.5,301.4 805.9,245.1 796.8,233.9 788.7,225.1 		"/>
		<line class="st0" x1="815.9" y1="234.9" x2="825.2" y2="244.4"/>
		<line class="st0" x1="833.7" y1="217" x2="842.7" y2="226.2"/>
		<line class="st0" x1="849.3" y1="199" x2="860.4" y2="209.8"/>
		<polyline class="st0" points="488.4,463.8 498,477.7 504.2,488.8 		"/>
		<polyline class="st0" points="497.3,456.4 504.9,465.3 515.4,480.5 535.6,501 541.6,505.9 555.7,511.6 565.4,511.6 		"/>
		<polyline class="st0" points="578.4,498.4 566.4,497.2 545.8,496.2 535.6,501 		"/>
		<polyline class="st0" points="581.1,492.1 576.2,488.8 565.6,487.3 544,489.7 530.4,469 		"/>
		<polyline class="st0" points="589.7,425.5 592.5,433.2 591.1,443.4 578.4,456.4 572.1,461.9 537.5,479.8 		"/>
		<polyline class="st0" points="594.2,476.6 605.4,454.2 612.8,447.9 617.7,441.6 		"/>
		<line class="st0" x1="591.1" y1="443.4" x2="602" y2="461.1"/>
		<polyline class="st0" points="509.7,484.7 519.4,502.1 522.4,515.9 		"/>
		<polyline class="st0" points="504.9,465.3 515.2,457.8 554.3,422.3 		"/>
		<line class="st0" x1="526.1" y1="472.3" x2="515.2" y2="457.8"/>
		<line class="st0" x1="556.3" y1="521" x2="570.6" y2="531"/>
		<line class="st0" x1="548.7" y1="529.7" x2="562.3" y2="539.1"/>
		<line class="st0" x1="536.7" y1="543.5" x2="551.6" y2="551.8"/>
		<line class="st0" x1="531.4" y1="549.5" x2="545.4" y2="558.4"/>
		<line class="st0" x1="526.3" y1="555.4" x2="540.9" y2="564.6"/>
		<line class="st0" x1="520.2" y1="564.7" x2="534.7" y2="574.1"/>
		<polyline class="st0" points="511.9,516.6 511.9,524.5 507.7,538.3 506.3,546.3 504.2,551.8 496.3,562.2 483.4,575.4 		"/>
		<line class="st0" x1="468.5" y1="559" x2="508.2" y2="536.5"/>
		<polyline class="st0" points="477.6,538.3 485.2,549.5 495.5,563 502,569.4 510.5,575.8 		"/>
		<polyline class="st0" points="526.3,515.6 522.4,561.3 512.7,557 504.2,551.8 		"/>
		<line class="st0" x1="212.8" y1="573" x2="220.1" y2="590.1"/>
		<polyline class="st0" points="196.3,578.2 221.9,607.7 228.8,619.1 226.2,628.3 		"/>
		<line class="st0" x1="213.5" y1="614.9" x2="221.9" y2="607.7"/>
		<line class="st0" x1="203.7" y1="604.5" x2="212.5" y2="596.9"/>
		<line class="st0" x1="239.9" y1="642.9" x2="245.8" y2="638.3"/>
		<polyline class="st0" points="248.8,641.9 253.2,636.5 238.6,619.8 		"/>
		<path class="st0" d="M272.9,670.5c1.4-1.4,14.7-10.8,14.7-10.8l44.6-36.2l26.7-23.6l10.2-7.1l14.2-8.2l19.9-14.3l41.9-38"/>
		<polyline class="st0" points="320.6,556.2 345.1,549.6 363.2,544.2 375.7,536.5 		"/>
		<line class="st0" x1="373.5" y1="528.9" x2="377.2" y2="541.6"/>
		<polyline class="st0" points="335.1,574.1 378.8,540.2 395.2,532.2 		"/>
		<polyline class="st0" points="413.6,520.7 421.4,534.1 403.8,550.9 377.2,564.1 369.7,569.5 348.9,589.1 321.6,612.8 		"/>
		<polyline class="st0" points="403.5,704.6 375.7,673 314.5,604.5 301.3,575.8 		"/>
		<polyline class="st0" points="236.7,565.4 249.3,590.8 263.4,618.2 280.7,651.8 287.6,659.7 298,670.5 369.5,749.8 		"/>
		<polyline class="st0" points="303.1,647.2 349,698.4 382.2,733 		"/>
		<polyline class="st0" points="363.9,659.7 336.2,684.1 322.9,698.1 309.6,708.4 299.8,717.7 289.7,725.6 282.5,731.2 265.7,746.9 
					"/>
		<polyline class="st0" points="257.3,793.2 260.9,789.7 327.6,728.3 		"/>
		<line class="st0" x1="289.7" y1="725.6" x2="307.4" y2="746.9"/>
		<line class="st0" x1="299.8" y1="717.7" x2="317.3" y2="737.8"/>
		<polyline class="st0" points="299.1,697.6 270.2,722.4 251.3,739.8 245.9,746.9 233.7,757.1 229.3,762 		"/>
		<polyline class="st0" points="275.8,776 272.9,770.9 254.1,757.1 241.6,767.7 		"/>
		<polyline class="st0" points="248.3,784.8 250.9,780.2 265.7,765.6 		"/>
		<line class="st0" x1="241.6" y1="778.5" x2="245.8" y2="773.3"/>
		<line class="st0" x1="234.2" y1="771.6" x2="239.4" y2="764.7"/>
		<polyline class="st0" points="302.5,832.6 260.9,789.7 250.9,780.2 233.7,757.1 		"/>
		<polyline class="st0" points="330.4,800.7 317.3,788.9 304.2,770.9 293.3,759.9 		"/>
		<polyline class="st0" points="338.9,631.8 311.3,656.4 298,670.5 		"/>
		<polyline class="st0" points="304.2,677.4 317.3,663 328.6,653.5 348.8,642.9 381.6,625.4 		"/>
		<line class="st0" x1="280.1" y1="678.1" x2="294.9" y2="667.3"/>
		<line class="st0" x1="283.6" y1="689" x2="301.3" y2="674.1"/>
		<line class="st0" x1="294.9" y1="693.3" x2="308.5" y2="682.2"/>
		<polyline class="st0" points="310.2,684 323.4,669.8 352.4,646.9 		"/>
		<polyline class="st0" points="302.5,701.1 316.4,690.9 330.2,677.4 357.3,652.4 386.6,631 407.8,611.3 419.4,600.7 424.5,593.3 
			443.3,571.6 463.2,553.1 469,545.3 477.6,538.3 483.4,534.4 486.4,527 486.4,520 		"/>
		<polyline class="st0" points="425.1,550.4 433.9,562.2 452,581.5 452,587.3 443,594.7 437.9,600.7 436,605.7 395.7,641.9 
			366.7,662.9 		"/>
		<polyline class="st0" points="369.8,666.4 342.7,691.3 328.8,704.6 316.1,715.6 		"/>
		<polyline class="st0" points="322.9,723.1 335.9,712.5 349,698.4 375.7,673 404.1,652 429.6,629.6 		"/>
		<line class="st0" x1="422.2" y1="618.1" x2="447" y2="654.1"/>
		<line class="st0" x1="432.3" y1="609" x2="456" y2="643.7"/>
		<polyline class="st0" points="420.7,637.4 434.6,654.1 442.2,659.7 452,668.7 485.5,708 		"/>
		<polyline class="st0" points="429.1,674.9 470.4,723.1 483.9,709.3 549.4,652.2 		"/>
		<polyline class="st0" points="522,617.5 490.3,646.2 458.5,676.4 443.3,691.6 		"/>
		<polyline class="st0" points="413.6,643.7 435.7,667.3 450.9,684 477.8,715.6 		"/>
		<polyline class="st0" points="456,706.3 471,691 536.1,635.4 		"/>
		<polyline class="st0" points="542.7,643.7 510.8,671.8 478.4,699.7 		"/>
		<polyline class="st0" points="465.1,684 496.9,654.5 529,626.3 		"/>
		<polyline class="st0" points="514.6,609 483.2,637.4 503.3,663.4 517.3,680.1 		"/>
		<line class="st0" x1="450.5" y1="667.3" x2="483.2" y2="637.4"/>
		<line class="st0" x1="461.3" y1="636.9" x2="470.8" y2="648.8"/>
		<line class="st0" x1="507" y1="601" x2="466.7" y2="643.7"/>
		<line class="st0" x1="393.7" y1="659.7" x2="418" y2="687.8"/>
		<line class="st0" x1="386" y1="665.5" x2="411.7" y2="695.1"/>
		<polyline class="st0" points="454.2,542.7 433.9,562.2 422.2,572.9 407.1,592 398.8,601.3 386,612.1 377.5,620.7 		"/>
		<line class="st0" x1="369.2" y1="592.7" x2="386" y2="612.1"/>
		<polyline class="st0" points="383.4,584.5 391,594.1 398.8,601.3 407.8,611.3 		"/>
		<polyline class="st0" points="403.3,570.2 414.3,582.9 424.5,593.3 		"/>
		<line class="st0" x1="351.2" y1="606.8" x2="369.8" y2="631.8"/>
		<line class="st0" x1="342.1" y1="635.4" x2="361.6" y2="620.7"/>
		<line class="st0" x1="403.8" y1="550.9" x2="412.1" y2="562.2"/>
		<polyline class="st0" points="437.2,539.4 419.4,518.1 411.9,511 387.3,498.4 382.1,498.4 372.5,502.4 360.4,504.9 		"/>
		<polyline class="st0" points="417.7,527.8 394.5,540.5 391.2,534.1 		"/>
		<line class="st0" x1="372.5" y1="545.1" x2="377.2" y2="564.1"/>
		<polyline class="st0" points="342.8,537.3 345.1,549.6 347.9,558.4 		"/>
		<polyline class="st0" points="247.4,562.6 260.9,580.1 273.7,595.5 293.6,617.5 296.2,633 305.7,645.1 		"/>
		<line class="st0" x1="323.8" y1="614.9" x2="298" y2="635.2"/>
		<line class="st0" x1="301.3" y1="639.4" x2="285.9" y2="647.2"/>
		<line class="st0" x1="276.5" y1="643.7" x2="296.2" y2="633"/>
		<line class="st0" x1="263.4" y1="618.2" x2="283.9" y2="606.8"/>
		<polyline class="st0" points="260.2,612.1 271.1,606.7 278.1,600.4 		"/>
		<line class="st0" x1="256" y1="603.8" x2="273.7" y2="595.5"/>
		<line class="st0" x1="252.9" y1="597.9" x2="268.1" y2="588.7"/>
		<line class="st0" x1="249.3" y1="590.8" x2="263.4" y2="583"/>
		<line class="st0" x1="244.8" y1="581.7" x2="257.8" y2="575.8"/>
		<polyline class="st0" points="318.1,553.1 290.4,562.6 272.2,567.8 254.5,571.8 246.5,575.4 		"/>
		<polyline class="st0" points="268.5,557 272.2,567.8 279.7,588.7 		"/>
		<polyline class="st0" points="270.6,591.8 298,577.3 325.2,561.9 		"/>
		<polyline class="st0" points="287.5,552 290.4,562.6 298,577.3 		"/>
		<polyline class="st0" points="260.9,580.1 274.4,574.1 293.6,568.6 		"/>
		<polyline class="st0" points="304.9,583.7 323.8,577.3 333.4,572.1 		"/>
		<line class="st0" x1="293.6" y1="617.5" x2="314.5" y2="604.5"/>
		<line class="st0" x1="254" y1="648" x2="266" y2="641.9"/>
		<line class="st0" x1="271.6" y1="676.4" x2="275.4" y2="673.4"/>
		<line class="st0" x1="261.3" y1="665.5" x2="267.3" y2="663.8"/>
		<polyline class="st0" points="382.1,680.3 355,704.6 342.3,719.6 330.4,731.4 		"/>
		<polyline class="st0" points="336.7,738.3 348.1,726.1 362.2,712.1 388.6,687.7 		"/>
		<polyline class="st0" points="394,693.8 368.1,718.3 354.3,733 		"/>
		<line class="st0" x1="343.7" y1="746.1" x2="355.9" y2="734.7"/>
		<line class="st0" x1="350.7" y1="753.8" x2="363.5" y2="743.2"/>
		<polyline class="st0" points="361.1,740.4 374.2,724.6 397.3,697.6 		"/>
		<polyline class="st0" points="260.2,630.3 268.1,626.3 291.2,614.9 		"/>
		<polyline class="st0" points="264.7,639.4 272.2,635.2 294.4,622.3 		"/>
		<line class="st0" x1="254.5" y1="549.6" x2="280.7" y2="542.7"/>
		<polyline class="st0" points="271.7,556.2 268.5,546 266.5,539.4 		"/>
		<line class="st0" x1="218.1" y1="536.5" x2="229.5" y2="533.7"/>
		<polyline class="st0" points="430.4,496.8 438.9,490.9 476.1,463.8 		"/>
		<polyline class="st0" points="432.2,465 446.8,485.2 452.3,491.9 465.1,508.2 471.9,521.9 		"/>
		<polyline class="st0" points="543.1,385.7 533.6,395.9 515.3,410 499.4,425.5 479.5,447 464.6,461.1 440.4,476.3 		"/>
		<polyline class="st0" points="468,432.8 479.5,447 491.7,461.1 		"/>
		<line class="st0" x1="489.4" y1="436.4" x2="501.5" y2="453"/>
		<line class="st0" x1="499.4" y1="425.5" x2="513.2" y2="443.1"/>
		<polyline class="st0" points="550.8,393.6 544.1,410 507.9,436.4 		"/>
		<polyline class="st0" points="533.6,395.9 544.1,410 550.2,416.4 557,426.3 568.5,439.8 578.4,456.4 		"/>
		<polyline class="st0" points="541.3,586.6 544.1,577.7 565,554.7 597,523.6 		"/>
	</g>
</g>
<g id="Layer_2">
	<g>
		<path d="M937.5,56.4l8.1,23.2l3.9,37.3l-16.2,26l-56.9,52.4L844.7,224l-33,34.4l-66.1,90.7l-93.8,94.6l-51.3,75.9l-82.2,93.1
			l40.1,50.6l-80.8,80.1l-50.6-51.3L398,728.8l-30.6,45L310.8,843l-76.6-71.4v-4.6l-9.5-9.8l60.1-54.1l7.7-4.6l-91-96.3l-9.1-26.7
			l13-3.9l-3.9-15.8l2.5-18.6l-20-32L167.1,482l-8.1,6.3l-9.5-12.3l-10.9,7.7l-34.8-11.2l-4.2,7.4l-14.4-13l18.3-28.5l12,6.3
			l27.1-44.3l117.4,40.1l94.6,37.6l6.3,14.1l5.3-2.1v-3.9l11.2-7.4l13.7,17.2l55.5-41.8l56.6-56.6l17.9-8.8l15.1-10.2l21.8,22.1
			l2.8,6l16.2-10.2L605,372l51.7-35.4l23.9-12.4l76.3-62.6l-3.2-10.5l117-119.2L937.5,56.4 M937.5,55.4c-0.3,0-0.6,0.1-0.7,0.3
			L870,131.2L753,250.4c-0.3,0.3-0.3,0.6-0.2,1l3,9.9L680,323.4l-23.8,12.4c0,0-0.1,0-0.1,0.1l-51.7,35.4c0,0-0.1,0-0.1,0.1
			l-28.1,24.6l-15.1,9.5l-2.3-5c0-0.1-0.1-0.2-0.2-0.3L536.8,378c-0.2-0.2-0.5-0.3-0.7-0.3c-0.2,0-0.4,0.1-0.6,0.2L520.5,388
			l-17.9,8.8c-0.1,0-0.2,0.1-0.3,0.2l-56.5,56.5l-54.7,41.2L378,478.2c-0.2-0.2-0.5-0.4-0.8-0.4c-0.2,0-0.4,0.1-0.5,0.2l-11.2,7.4
			c-0.3,0.2-0.5,0.5-0.5,0.8v3.2l-3.8,1.5l-5.9-13.2c-0.1-0.2-0.3-0.4-0.5-0.5l-94.6-37.6l-117.4-40.1c-0.1,0-0.2-0.1-0.3-0.1
			c-0.3,0-0.7,0.2-0.9,0.5L115,443.4l-11.1-5.9c-0.1-0.1-0.3-0.1-0.5-0.1c-0.3,0-0.7,0.2-0.8,0.5l-18.3,28.5c-0.3,0.4-0.2,1,0.2,1.3
			l14.4,13c0.2,0.2,0.4,0.3,0.7,0.3c0.1,0,0.1,0,0.2,0c0.3,0,0.6-0.2,0.7-0.5l3.8-6.7l34,11c0.1,0,0.2,0,0.3,0
			c0.2,0,0.4-0.1,0.6-0.2l10.1-7.2l8.9,11.5c0.2,0.2,0.4,0.3,0.7,0.4c0,0,0.1,0,0.1,0c0.2,0,0.4-0.1,0.6-0.2l7.3-5.7l16.2,22.3
			l19.8,31.7l-2.4,18.3c0,0.1,0,0.2,0,0.4l3.6,14.9l-12.1,3.6c-0.3,0.1-0.5,0.3-0.6,0.5c-0.1,0.2-0.1,0.5-0.1,0.8l9.1,26.7
			c0,0.1,0.1,0.3,0.2,0.4l90.2,95.4l-6.7,3.9c-0.1,0-0.1,0.1-0.2,0.1L224,756.5c-0.2,0.2-0.3,0.4-0.3,0.7c0,0.3,0.1,0.5,0.3,0.7
			l9.2,9.6v4.2c0,0.3,0.1,0.5,0.3,0.7l76.6,71.4c0.2,0.2,0.4,0.3,0.7,0.3c0,0,0,0,0.1,0c0.3,0,0.5-0.2,0.7-0.4l56.6-69.2
			c0,0,0,0,0.1-0.1l30.6-45l28.1-35.6l49.8,50.5c0.2,0.2,0.4,0.3,0.7,0.3c0,0,0,0,0,0c0.3,0,0.5-0.1,0.7-0.3l80.8-80.1
			c0.4-0.4,0.4-0.9,0.1-1.3l-39.6-50l81.7-92.5c0,0,0.1-0.1,0.1-0.1l51.3-75.8l93.8-94.5c0,0,0.1-0.1,0.1-0.1l66-90.6l33-34.4
			l31.6-28.8l56.9-52.4c0.1-0.1,0.1-0.1,0.2-0.2l16.2-26c0.1-0.2,0.2-0.4,0.1-0.6l-3.9-37.3c0-0.1,0-0.2-0.1-0.2L938.5,56
			c-0.1-0.3-0.4-0.6-0.8-0.7C937.7,55.4,937.6,55.4,937.5,55.4L937.5,55.4z"/>
	</g>
</g>
</svg>
